<svg width="656" height="93" viewBox="0 0 656 93" fill="none" xmlns="http://www.w3.org/2000/svg">
<g clip-path="url(#clip0_2018_2559)">
<path d="M589.687 31.6074L616.939 4.61572L655.768 43.0015H636.357V63.749H627.514V34.575H635.562L617.069 16.293L601.324 31.6074H589.687Z" fill="white"/>
<path d="M586.809 34.4653L578.038 43.117H597.189V43.1814C594.597 50.2496 587.662 55.2578 579.575 55.0583C569.866 54.8201 561.986 46.973 561.804 37.3814C561.732 33.4997 562.898 29.8948 564.936 26.9272C565.705 25.8135 565.412 24.2943 564.285 23.5347L562.292 22.1957C560.684 21.1143 558.477 21.5713 557.454 23.2064C554.882 27.307 553.417 32.1543 553.476 37.3492C553.645 51.6272 565.483 63.2401 579.926 63.298C586.51 63.3238 592.533 60.9806 597.182 57.086V63.7229H605.934V34.4717H586.803L586.809 34.4653Z" fill="white"/>
<path d="M583.013 10.1519C582.661 15.0056 581.3 18.8616 579.978 18.765C578.656 18.6685 577.875 14.6645 578.227 9.81071C578.578 4.95697 579.939 1.10102 581.261 1.19758C582.583 1.29414 583.364 5.29815 583.013 10.1519Z" fill="white"/>
<path d="M576.625 10.8729C577.549 15.3404 577.243 19.177 575.947 19.4409C574.651 19.7049 572.848 16.2931 571.93 11.8256C571.005 7.35808 571.311 3.52143 572.607 3.2575C573.903 2.99357 575.706 6.40535 576.625 10.8729Z" fill="white"/>
<path d="M570.569 13.4928C572.119 17.072 572.535 20.3228 571.493 20.767C570.458 21.2048 568.355 18.662 566.805 15.0893C565.255 11.5102 564.838 8.25931 565.88 7.81513C566.916 7.37739 569.019 9.92014 570.569 13.4928Z" fill="white"/>
<path d="M565.952 17.3935C568.029 20.0586 568.96 22.8009 568.029 23.509C567.098 24.2171 564.656 22.6335 562.579 19.962C560.501 17.297 559.57 14.5547 560.501 13.8466C561.433 13.1385 563.874 14.722 565.952 17.3935Z" fill="white"/>
<path d="M590.123 10.2288C588.365 15.4623 585.949 19.3698 584.712 18.9706C583.481 18.5651 583.905 14.001 585.663 8.76749C587.421 3.53394 589.837 -0.37351 591.074 0.0256036C592.305 0.431155 591.881 4.99522 590.123 10.2288Z" fill="white"/>
<path d="M596.968 12.1603C593.503 17.5998 589.805 21.4622 588.704 20.7734C587.604 20.0911 589.525 15.1215 592.989 9.68192C596.453 4.24238 600.152 0.379987 601.252 1.06878C602.353 1.75114 600.432 6.72075 596.968 12.1603Z" fill="white"/>
<path d="M603.707 15.7455C598.504 20.8889 593.471 24.262 592.474 23.2771C591.478 22.2922 594.884 17.3162 600.093 12.1728C605.296 7.02934 610.33 3.65618 611.326 4.64109C612.322 5.626 608.916 10.6021 603.707 15.7455Z" fill="white"/>
<path d="M563.34 78.9795L563.881 79.0374C563.881 80.8334 563.725 82.4943 563.432 83.4792L562.018 82.8998C562.585 81.9857 563.034 80.6017 563.34 78.9731V78.9795ZM563.438 77.1062C564.102 76.3273 564.779 75.3746 565.392 74.306C564.532 74.5313 563.594 74.7309 562.898 74.821L562.618 73.5013C562.878 73.5142 563.138 73.5464 563.386 73.5464C563.939 72.4199 564.402 71.0809 564.786 69.375L566.219 69.9093C565.652 71.2611 564.786 72.6452 564.05 73.5721C564.636 73.585 565.203 73.5721 565.789 73.5271C566.114 72.9027 566.407 72.2525 566.648 71.5637L567.97 72.1431C567.293 73.5399 565.769 75.6578 564.389 77.0547C565.112 76.9904 565.834 76.9195 566.544 76.8294C566.388 76.4303 566.238 76.0505 566.082 75.7158L566.531 75.3939C567.195 76.0763 567.899 77.1577 568.283 77.9946L567.13 78.5739L566.746 77.3702C565.313 77.9045 563.562 78.3744 562.67 78.4967L562.318 77.0998C562.689 77.1127 563.054 77.1127 563.445 77.0998L563.438 77.1062ZM565.112 78.9022C565.509 80.0738 565.893 81.7282 566.017 82.6423L564.649 82.8097C564.708 81.8505 564.682 80.2219 564.571 78.9924L565.112 78.9022ZM566.219 78.4452C566.863 79.3593 567.527 80.6983 567.833 81.5802L566.557 82.0823C566.388 81.0781 566.049 79.6168 565.743 78.6447L566.219 78.4452ZM576.11 80.7755L575.107 82.0243C574.326 81.1424 573.277 80.0159 572.261 79.134V82.0694C572.261 83.5886 570.874 84.213 568.387 82.829L568.543 82.2947C570.712 82.6616 570.946 82.5393 570.946 81.7154V79.4172C570.21 80.164 569.266 80.9364 568.224 81.593L567.547 80.2991C568.719 79.9193 569.761 79.3593 570.946 78.6126V75.5999H567.365V74.9175H572.073L572.379 73.7331H569.624C569.546 73.9777 569.468 74.2352 569.377 74.4798L568.237 74.2674C568.745 72.7482 569.097 71.1517 569.422 69.5037L570.686 69.7162C570.627 69.993 570.562 70.2762 570.484 70.553H572.854L573.134 70.3535L574.378 70.7977C574.085 72.0916 573.746 73.5528 573.329 74.9175H575.7V75.5999H572.268V78.413L572.548 78.5482C573.212 77.7886 573.792 76.8938 574.176 76.0569L575.374 76.8359C574.807 77.5053 573.883 78.2649 573.082 78.8121C574.202 79.4237 575.328 80.164 576.11 80.7755ZM569.637 78.8829C569.019 78.0332 568.361 77.2736 567.853 76.7972L568.179 76.3531C568.843 76.6556 569.917 77.338 570.549 77.9366L569.644 78.8765L569.637 78.8829ZM572.528 73.0443C572.698 72.3426 572.834 71.6731 572.913 71.2032H570.327C570.171 71.8276 570.021 72.4327 569.833 73.0443H572.528Z" fill="white"/>
<path d="M591.549 81.6702L591.054 83.2795C589.765 83.3696 588.287 83.434 586.9 83.3889C583.839 83.2795 581.697 82.7774 580.297 81.3676C579.62 82.3397 578.806 83.1636 577.823 83.7881L577.484 83.3439C578.194 82.7645 578.975 81.8826 579.639 80.5436C579.073 79.6939 578.669 78.5996 578.422 77.1962L578.962 77.0417C579.242 78.091 579.594 78.9408 580.037 79.6102C580.453 78.5288 580.772 77.1898 580.942 75.5676H579.6C579.353 76.0118 579.125 76.3916 578.936 76.6169L577.842 76.1598C578.565 74.9882 579.626 72.9347 580.303 71.216H577.764V70.5594H582.01C581.593 71.6859 580.733 73.4819 579.978 74.8788H580.837L581.176 74.6342L582.361 75.0784C582.159 77.119 581.638 78.9729 580.792 80.505C582.081 81.6895 583.944 82.0114 586.594 82.0114C588.241 81.9985 590.025 81.844 591.53 81.6637L591.549 81.6702ZM585.565 73.4562H582.198V72.806H585.565V71.5571H582.921V70.8748H585.565V69.5229H586.887V70.8748H589.889V72.806H591.211V73.4562H589.889V75.4775H586.887V76.6813H590.026V77.3636H586.887V78.7798H590.735V79.4622H586.887V81.4706H585.565V79.4622H582.179V78.7798H585.565V77.3636H582.732V76.6813H585.565V75.4775H582.843V74.7951H585.565V73.4562ZM586.887 72.806H588.671V71.5571H586.887V72.806ZM586.887 74.7951H588.671V73.4562H586.887V74.7951Z" fill="white"/>
<path d="M593.184 73.8361L592.858 73.4112C594.076 72.2847 594.857 71.0873 595.378 69.3493L596.857 69.7612C596.7 70.1089 596.472 70.5209 596.166 70.9457H600.106V71.6281H597.475C597.846 71.9757 598.244 72.4649 598.615 72.9992L597.475 73.4112C597.293 72.819 597.078 72.2267 596.765 71.6345H595.639C594.975 72.4263 594.128 73.231 593.177 73.8361H593.184ZM606.904 81.6574L606.09 83.1638C604.534 82.9191 601.936 81.5995 600.536 79.5717V83.6659H599.214V79.6232C598.12 81.2197 595.385 82.5715 593.073 83.1058L592.891 82.6166C595.151 81.7797 596.739 80.8528 597.951 79.4044H593.334V78.722H599.214V77.4281C598.843 77.6727 598.413 77.8723 597.925 78.0654L597.664 77.5762C598.341 77.1642 598.771 76.8037 599.032 76.3724C597.833 76.8874 595.417 77.5568 593.757 77.8208L593.405 76.5591C594.284 76.514 595.033 76.4496 595.743 76.3788V74.3575H593.607V73.6751H599.175V74.3575H597.039V76.2114C597.684 76.102 598.348 75.9861 599.071 75.8123L599.162 76.1471C599.468 75.4969 599.468 74.7051 599.468 73.5142H604.391V75.793C604.391 76.3531 604.606 76.4496 605.113 76.4496C605.778 76.4496 605.791 76.3144 605.778 74.763H606.331C606.995 77.1513 606.592 77.5311 605.087 77.5504C603.551 77.5633 603.121 77.2479 603.121 75.9539V74.203H600.77C600.77 75.7673 600.275 76.6814 599.357 77.338H600.555V78.722H606.461V79.4044H601.109C602.834 80.8785 604.768 81.3227 606.924 81.6574H606.904ZM599.227 72.922C600.184 71.9177 600.842 70.6689 601.272 69.3042L602.685 69.7741C602.483 70.1732 602.242 70.5659 601.975 70.9328H606.624V71.6152H603.642C604.039 71.9371 604.397 72.3169 604.768 72.819L603.642 73.276C603.414 72.716 603.193 72.1946 602.86 71.6216H601.447C600.803 72.3684 600.106 72.9606 599.585 73.3275L599.233 72.9284L599.227 72.922ZM601.031 74.6858L601.493 74.5056C602.001 75.2652 602.418 76.1342 602.632 76.9067L601.526 77.1964C601.447 76.4818 601.246 75.5226 601.031 74.6858Z" fill="white"/>
<path d="M611.755 75.3297V83.6017H610.459V76.6365C610.062 77.763 609.398 79.0698 608.597 80.1642L608.167 79.8294C608.922 78.381 609.893 75.967 610.303 73.5015H608.486V72.8192H610.453V69.5361H611.749V72.8192H613.565V73.5015H611.749V74.4414C612.484 75.2654 613.35 76.2953 613.826 77.3189L612.719 77.8532C612.439 77.0163 612.055 76.0893 611.749 75.3297H611.755ZM612.66 83.1318L612.322 82.6747C613.09 82.0181 614.151 80.7113 614.77 79.4625L616.033 80.0998C615.03 81.4516 613.696 82.5202 612.667 83.1253L612.66 83.1318ZM618.306 79.0569V82.0052C618.306 83.7111 616.795 84.136 614.568 82.8421L614.692 82.2949C616.587 82.6425 616.938 82.5524 616.938 81.8379V79.0569H613.233V78.3746H622.096V79.0569H618.312H618.306ZM616.059 71.1133H613.318V70.4309H621.952V71.1133H619.211V72.3299H621.49V75.8898H613.858V72.3299H616.059V71.1133ZM614.151 77.3961V76.7588H621.119V77.3961H614.151ZM616.059 72.9865H615.089V75.2396H616.059V72.9865ZM617.173 72.3299H618.111V71.1133H617.173V72.3299ZM617.173 75.2396H618.111V72.9865H617.173V75.2396ZM622.324 82.1726L621.171 83.0867C620.696 82.282 619.68 80.7886 618.866 79.7393L619.237 79.3724C620.344 80.1513 621.699 81.3486 622.33 82.1726H622.324ZM619.218 75.2396H620.233V72.9865H619.218V75.2396Z" fill="white"/>
<path d="M637.438 80.666V81.3483H631.343V83.7237H629.898V81.3483H623.848V80.666H629.898V79.6618H626.036V75.5676H635.205V79.6618H631.343V80.666H637.438ZM637.126 74.7179H624.154V74.0355H628.172C627.755 73.3339 627.404 72.8189 626.928 72.0915L627.156 71.9112H624.942V71.2289H630.529C629.911 70.7589 629.162 70.2246 628.608 69.8127L628.856 69.3105C629.624 69.4908 630.979 69.9478 631.825 70.4049L631.317 71.2289H636.364V71.9112H633.18L634.104 72.2588C633.655 72.9927 633.258 73.4884 632.717 74.042H637.132V74.7243L637.126 74.7179ZM627.423 77.2478H633.824V76.2564H627.423V77.2478ZM633.818 78.9794V77.8979H627.417V78.9794H633.818ZM629.435 73.424L628.667 74.0291H631.884C632.164 73.3918 632.392 72.6773 632.561 71.8984H627.651C628.315 72.3425 628.849 72.8125 629.435 73.4176V73.424Z" fill="white"/>
<path d="M573.108 89.9294H575.316V90.1032C575.316 90.5024 575.27 90.85 575.172 91.1525C575.081 91.4358 574.925 91.6997 574.704 91.9443C574.209 92.4979 573.577 92.7683 572.815 92.7683C572.053 92.7683 571.428 92.5044 570.894 91.9701C570.36 91.4358 570.093 90.792 570.093 90.0389C570.093 89.2857 570.367 88.6227 570.907 88.0884C571.448 87.5541 572.105 87.2837 572.887 87.2837C573.304 87.2837 573.694 87.3674 574.052 87.5347C574.398 87.7021 574.736 87.9725 575.075 88.3523L574.502 88.893C574.065 88.3201 573.531 88.0304 572.9 88.0304C572.333 88.0304 571.864 88.2235 571.48 88.6098C571.096 88.9896 570.907 89.4595 570.907 90.0324C570.907 90.6054 571.122 91.1075 571.545 91.4873C571.943 91.8413 572.379 92.0151 572.841 92.0151C573.238 92.0151 573.597 91.8799 573.909 91.616C574.222 91.3521 574.404 91.0302 574.437 90.6633H573.108V89.9166V89.9294Z" fill="white"/>
<path d="M578.136 90.425L579.79 92.6717H578.806L577.283 90.5087H577.139V92.6717H576.332V87.3931H577.276C577.979 87.3931 578.494 87.5218 578.806 87.7857C579.151 88.0754 579.327 88.4617 579.327 88.938C579.327 89.3114 579.217 89.6333 579.002 89.9036C578.787 90.174 578.5 90.3478 578.142 90.4186L578.136 90.425ZM577.133 89.8199H577.387C578.149 89.8199 578.533 89.5303 578.533 88.9573C578.533 88.4166 578.162 88.1462 577.419 88.1462H577.133V89.8199Z" fill="white"/>
<path d="M583.54 88.1462H581.398V89.4144H583.475V90.1611H581.398V91.9249H583.54V92.6717H580.597V87.3931H583.54V88.1398V88.1462Z" fill="white"/>
<path d="M587.545 88.1462H585.403V89.4144H587.48V90.1611H585.403V91.9249H587.545V92.6717H584.602V87.3931H587.545V88.1398V88.1462Z" fill="white"/>
<path d="M588.6 92.6782V87.0391L592.494 91.0688V87.3996H593.301V93L589.407 88.9831V92.6782H588.6Z" fill="white"/>
<path d="M596.765 92.678V87.3994H597.566C597.924 87.3994 598.211 87.4252 598.419 87.4831C598.634 87.5346 598.817 87.6312 598.96 87.7599C599.11 87.8951 599.227 88.0625 599.318 88.262C599.409 88.4616 599.455 88.6676 599.455 88.88C599.455 89.2598 599.305 89.5752 599.018 89.8392C599.305 89.9357 599.526 90.1031 599.689 90.3413C599.852 90.5794 599.937 90.8563 599.937 91.1652C599.937 91.5772 599.787 91.9249 599.494 92.2081C599.318 92.3819 599.116 92.5042 598.895 92.575C598.654 92.6394 598.348 92.6716 597.983 92.6716H596.765V92.678ZM597.566 89.6653H597.82C598.12 89.6653 598.341 89.601 598.478 89.4658C598.615 89.337 598.686 89.1439 598.686 88.8864C598.686 88.6289 598.615 88.4487 598.471 88.3199C598.328 88.1912 598.12 88.1268 597.846 88.1268H597.56V89.6589L597.566 89.6653ZM597.566 91.9249H598.061C598.426 91.9249 598.693 91.854 598.862 91.7124C599.044 91.5579 599.129 91.3648 599.129 91.1331C599.129 90.9013 599.044 90.7146 598.869 90.5601C598.699 90.4056 598.4 90.3348 597.964 90.3348H597.553V91.9313L597.566 91.9249Z" fill="white"/>
<path d="M601.753 87.3994V90.573C601.753 91.0236 601.825 91.3584 601.975 91.5708C602.196 91.8734 602.515 92.0214 602.919 92.0214C603.323 92.0214 603.642 91.8734 603.87 91.5708C604.019 91.3712 604.091 91.0365 604.091 90.573V87.3994H604.898V90.7983C604.898 91.3519 604.723 91.8154 604.371 92.1759C603.974 92.575 603.492 92.7746 602.919 92.7746C602.346 92.7746 601.864 92.575 601.473 92.1759C601.122 91.8154 600.946 91.3584 600.946 90.7983V87.3994H601.753Z" fill="white"/>
<path d="M606.986 87.3994V92.678H606.181V87.3994H606.986Z" fill="white"/>
<path d="M609.079 87.3994V91.9313H610.648V92.678H608.271V87.3994H609.079Z" fill="white"/>
<path d="M611.41 92.678V87.3994H612.53C613.064 87.3994 613.494 87.4509 613.8 87.5539C614.132 87.6569 614.438 87.8307 614.711 88.0753C615.265 88.571 615.538 89.2276 615.538 90.0323C615.538 90.8369 615.252 91.5 614.679 92.0021C614.392 92.2532 614.086 92.427 613.774 92.5235C613.481 92.6201 613.058 92.6716 612.517 92.6716H611.41V92.678ZM612.217 91.9249H612.582C612.947 91.9249 613.246 91.8862 613.487 91.809C613.728 91.7317 613.943 91.603 614.138 91.4292C614.536 91.0687 614.731 90.6052 614.731 90.0323C614.731 89.4594 614.536 88.983 614.145 88.6225C613.793 88.3006 613.272 88.1397 612.582 88.1397H612.217V91.9184V91.9249Z" fill="white"/>
<path d="M617.353 87.3994V92.678H616.548V87.3994H617.353Z" fill="white"/>
<path d="M618.638 92.6782V87.0391L622.532 91.0688V87.3996H623.34V93L619.446 88.9831V92.6782H618.638Z" fill="white"/>
<path d="M627.416 89.9294H629.624V90.1032C629.624 90.5024 629.578 90.85 629.481 91.1525C629.389 91.4358 629.233 91.6997 629.012 91.9443C628.517 92.4979 627.885 92.7683 627.123 92.7683C626.361 92.7683 625.736 92.5044 625.202 91.9701C624.668 91.4358 624.401 90.792 624.401 90.0389C624.401 89.2857 624.675 88.6227 625.215 88.0884C625.756 87.5541 626.413 87.2837 627.195 87.2837C627.612 87.2837 628.002 87.3674 628.36 87.5347C628.706 87.7021 629.044 87.9725 629.383 88.3523L628.81 88.893C628.374 88.3201 627.84 88.0304 627.208 88.0304C626.641 88.0304 626.166 88.2235 625.788 88.6098C625.404 88.9896 625.215 89.4595 625.215 90.0324C625.215 90.6054 625.43 91.1075 625.853 91.4873C626.251 91.8413 626.687 92.0151 627.149 92.0151C627.547 92.0151 627.905 91.8799 628.217 91.616C628.53 91.3521 628.712 91.0302 628.745 90.6633H627.416V89.9166V89.9294Z" fill="white"/>
<path d="M462.344 50.752C466.446 50.752 469.773 47.4625 469.773 43.407C469.773 39.3515 466.446 36.062 462.344 36.062C458.241 36.062 454.914 39.3515 454.914 43.407C454.914 47.4625 458.241 50.752 462.344 50.752Z" fill="white"/>
<path d="M510.7 59.5197L510.413 71.1198H513.682C513.832 72.1047 513.884 73.6818 513.832 74.641C513.701 77.1451 512.171 79.0763 510.289 80.6534C509.664 81.1749 508.98 81.6448 508.264 82.089V58.9082H522.492L481.449 21.5781L466.973 33.9378L470.776 38.0834L481.332 28.6527L509.085 53.7776H500.326V77.0421H478.16L507.457 82.5718C507.203 82.7198 506.962 82.8743 506.708 83.0095C505.412 83.6983 504.045 84.297 502.631 84.812C499.805 85.8484 496.81 86.5629 493.776 87.0457C492.258 87.2775 490.722 87.4512 489.185 87.5736C487.641 87.683 486.098 87.7409 484.548 87.7474C482.999 87.7409 481.455 87.683 479.912 87.5736C478.375 87.4512 476.839 87.2775 475.321 87.0457C472.287 86.5629 469.298 85.8484 466.465 84.812C465.052 84.297 463.685 83.6854 462.395 82.9966C462.076 82.8228 461.77 82.6297 461.458 82.443H497.051L468.432 77.7245V53.7712H450.876L446.487 59.2429H461.373V61.3157C460.95 61.5217 460.527 61.7084 460.11 61.9273C459.348 62.3328 458.606 62.777 457.857 63.2341C457.486 63.4594 457.114 63.7104 456.737 63.9422C456.366 64.1932 455.994 64.4378 455.63 64.7018C454.178 65.7639 452.745 67.0128 451.664 68.6929C451.117 69.5169 450.7 70.4632 450.375 71.4481C450.069 72.4459 449.899 73.5016 449.88 74.5637C449.893 75.6259 450.036 76.6881 450.336 77.6923C450.414 77.9433 450.505 78.1815 450.596 78.4261C450.642 78.5484 450.687 78.6707 450.733 78.7866L450.896 79.1342C451.006 79.366 451.104 79.5977 451.228 79.823L451.599 80.4732C452.628 82.1855 453.969 83.5502 455.382 84.7154C458.234 87.02 461.406 88.5456 464.622 89.7365C467.846 90.9145 471.16 91.6999 474.494 92.2342C476.161 92.4917 477.835 92.6784 479.515 92.8135C481.195 92.9359 482.875 92.9938 484.548 93.0002C486.228 92.9938 487.908 92.9359 489.582 92.8135C491.262 92.6784 492.936 92.4917 494.603 92.2342C497.937 91.6999 501.251 90.9145 504.474 89.7365C506.083 89.1443 507.678 88.4555 509.221 87.6315C510.765 86.8011 512.275 85.8548 513.688 84.6896C514.034 84.3871 514.392 84.1039 514.724 83.7691L515.225 83.2799C515.388 83.1125 515.544 82.9323 515.707 82.7584C516.033 82.4173 516.326 82.031 516.625 81.6577C516.775 81.471 516.905 81.2585 517.048 81.059C517.185 80.853 517.328 80.6599 517.452 80.441L517.823 79.7908C517.941 79.572 518.045 79.3338 518.155 79.1085L518.312 78.7609C518.357 78.645 518.403 78.5227 518.448 78.4004C518.533 78.1558 518.631 77.9176 518.702 77.6665C519.002 76.6687 519.152 75.613 519.171 74.5573C519.158 73.5016 519.008 72.4459 518.709 71.4481C518.676 71.3386 518.637 71.2292 518.598 71.1262H522.427L510.693 59.5261L510.7 59.5197ZM458.085 79.9453L457.727 79.5913C457.609 79.469 457.505 79.3467 457.394 79.2244C457.16 78.9862 456.978 78.7287 456.776 78.4841C456.672 78.3618 456.6 78.2266 456.509 78.1043C456.424 77.9755 456.327 77.8532 456.261 77.718L456.04 77.3318C455.968 77.203 455.916 77.0679 455.851 76.9391L455.76 76.746C455.734 76.6816 455.714 76.6108 455.688 76.5464C455.643 76.4112 455.591 76.2825 455.552 76.1538C455.395 75.6259 455.317 75.098 455.298 74.5637C455.311 74.0294 455.369 73.4951 455.513 72.9608C455.552 72.8257 455.604 72.6969 455.649 72.5617C455.675 72.4974 455.695 72.4265 455.714 72.3622L455.806 72.1626C455.871 72.0274 455.916 71.8923 455.981 71.7635C456.053 71.6348 456.125 71.4996 456.19 71.3644C456.248 71.2292 456.346 71.1005 456.418 70.9653C456.502 70.8301 456.567 70.6949 456.665 70.5597C456.854 70.3022 457.017 70.019 457.232 69.7615C457.336 69.6328 457.434 69.4976 457.538 69.3624L457.87 68.9697C458.085 68.6993 458.345 68.4611 458.586 68.2037C459.387 67.4054 460.344 66.7166 461.373 66.118V82.3915C460.474 81.8508 459.602 81.2779 458.84 80.6341C458.586 80.4024 458.313 80.19 458.085 79.9518V79.9453Z" fill="white"/>
<path d="M439.5 35.6883L438.94 35.5789C439.129 33.9824 439.181 32.5276 437.912 30.944L436.245 33.255L435.672 32.8495L437.43 30.4097C437.091 30.075 436.694 29.7209 436.218 29.3604L435.574 30.2552C435.802 30.9505 435.958 31.6521 435.997 32.2122L435.45 32.3023C435.066 31.1758 434.271 29.869 433.399 28.9485L434.538 28.0408C434.812 28.4657 435.072 28.9549 435.287 29.4634L437.866 25.8907L438.439 26.2963L437.065 28.2017C437.521 28.5622 437.925 28.9034 438.27 29.2574L439.95 26.9336L440.523 27.3391L438.739 29.8175C438.836 29.9462 438.94 30.075 439.032 30.2166C440.015 29.5021 441.057 28.8841 441.91 28.5493L442.437 29.9334C441.578 30.0879 440.49 30.3904 439.351 30.7895C440.112 32.3023 440.028 33.9181 439.513 35.6883H439.5ZM441.037 21.0112L445.908 24.4488L445.127 25.5367L444.26 24.9251L442.795 26.9593L443.792 27.661L443.01 28.7489L438.016 25.2212L441.05 21.0177L441.037 21.0112ZM443.674 24.5131L440.822 22.5047L439.357 24.5389L442.203 26.5473L443.674 24.5131ZM440.406 33.1456L445.55 26.0195L450.798 29.7274L449.997 30.841L449.177 30.2617L445.641 35.1605L446.52 35.7849L445.719 36.8985L440.406 33.1456ZM443.036 33.3258L446.572 28.427L445.322 27.5451L441.786 32.4439L443.036 33.3258ZM445.068 34.7614L448.604 29.8625L447.145 28.8326L443.609 33.7314L445.068 34.7614Z" fill="white"/>
<path d="M450.883 16.75L448.682 18.1919L448.324 17.6641L450.525 16.2221L450.037 15.4947L448.279 16.6405L447.92 16.1127L449.679 14.9668L449.229 14.2909L447.185 15.6299L446.826 15.0956L448.871 13.7566L448.259 12.8361L449.359 12.1151L449.972 13.0356L451.704 11.9027L452.062 12.4305L450.33 13.5635L450.779 14.2394L452.361 13.203L452.72 13.7309L451.137 14.7673L451.626 15.4947L453.358 14.3617L453.716 14.8896L451.984 16.0226L452.505 16.8015L451.404 17.5225L450.883 16.7435V16.75ZM459.179 15.3853L450.336 21.166L449.946 20.5866L458.788 14.7995L458.378 14.1944L450.805 19.1447L450.447 18.6168L459.147 12.9262L459.908 14.0656L461.387 13.0936L461.777 13.6729L460.299 14.645L461.113 15.8616L452.335 21.6037L451.977 21.0759L459.628 16.0741L459.166 15.3853H459.179ZM456.125 13.3253L454.211 14.5742L453.853 14.0463L455.767 12.7975L455.279 12.0765L453.631 13.1579L453.273 12.6301L454.92 11.5486L454.471 10.8791L452.557 12.128L452.199 11.6001L454.113 10.3513L453.494 9.43074L454.595 8.70976L455.207 9.6303L457.343 8.2334L457.701 8.76126L455.565 10.1582L456.014 10.8276L457.955 9.55949L458.313 10.0873L456.373 11.3555L456.861 12.0765L459.296 10.48L459.655 11.0079L457.219 12.6043L457.74 13.3833L456.64 14.1042L456.119 13.3318L456.125 13.3253ZM453.182 21.7067L453.716 21.5458C454.315 22.8075 454.601 24.243 454.432 25.4919L452.837 25.2472C453.28 24.14 453.566 23.0199 453.182 21.7067ZM460.371 17.7349C462.272 19.3056 462.227 20.1167 461.133 21.0115C460.423 21.6102 459.348 22.344 458.495 22.8139C457.232 23.5092 456.379 23.9018 455.734 22.9427L454.328 20.8441L455.48 20.0909L456.477 21.578C456.822 22.0994 457.121 22.1445 457.89 21.7196C458.808 21.211 459.674 20.6059 460.182 20.1618C460.762 19.6532 460.801 19.4215 459.895 18.0439L460.364 17.7349H460.371ZM456.392 20.0008L456.275 19.4601C457.063 19.1511 458.053 18.8164 459.27 18.7262L459.401 20.0201C458.45 19.9751 457.336 19.9751 456.392 20.0008ZM464.46 17.4259L463.965 18.7713C462.774 18.1147 461.842 17.6834 460.657 17.1748L460.814 16.6792C461.771 16.7049 463.106 16.9302 464.46 17.4259Z" fill="white"/>
<path d="M480.531 13.19L480.394 14.9023C479.124 15.2693 477.666 15.6491 476.279 15.9001C473.205 16.4473 470.959 16.4087 469.259 15.295C468.797 16.4087 468.165 17.4065 467.319 18.2369L466.882 17.8699C467.462 17.1425 468.048 16.0932 468.413 14.6191C467.657 13.8917 467.019 12.8875 466.466 11.5421L466.967 11.2781C467.475 12.263 468.015 13.0355 468.601 13.6084C468.777 12.4433 468.81 11.0399 468.621 9.37911L467.286 9.66879C467.136 10.158 466.993 10.5893 466.856 10.8597L465.665 10.6408C466.127 9.32118 466.739 7.04237 467.032 5.18842L464.499 5.73559L464.356 5.08542L468.588 4.17776C468.419 5.38797 467.957 7.36423 467.514 8.91563L468.373 8.72895L468.66 8.41352L469.936 8.6002C470.184 10.673 470.067 12.6364 469.565 14.3487C471.115 15.2564 473.036 15.1727 475.68 14.6062C477.314 14.2393 479.066 13.705 480.524 13.2029L480.531 13.19ZM472.762 6.28276L469.402 7.00374L469.259 6.35357L472.619 5.63259L472.346 4.39019L469.708 4.95667L469.559 4.27432L472.196 3.70783L471.896 2.356L473.218 2.07275L473.518 3.42459L476.507 2.78086L476.93 4.70562L478.252 4.42238L478.395 5.07255L477.073 5.35579L477.516 7.37067L474.527 8.0144L474.788 9.21174L477.913 8.54226L478.063 9.22462L474.937 9.8941L475.25 11.3039L479.085 10.4799L479.235 11.1623L475.4 11.9862L475.842 13.9882L474.521 14.2715L474.078 12.2695L470.705 12.9969L470.555 12.3145L473.928 11.5871L473.615 10.1773L470.796 10.7825L470.646 10.1001L473.466 9.49499L473.205 8.29764L470.49 8.877L470.34 8.19465L473.055 7.60885L472.762 6.27633V6.28276ZM473.941 5.34935L475.719 4.96955L475.445 3.72715L473.667 4.10695L473.941 5.34935ZM474.377 7.33205L476.155 6.95224L475.862 5.61972L474.084 5.99952L474.377 7.33205Z" fill="white"/>
<path d="M497.038 15.2694L495.977 16.6663C494.447 16.1835 492.031 14.4454 490.937 12.1924L490.292 16.3251L488.957 16.1191L489.595 12.0379C488.241 13.4798 485.265 14.4261 482.856 14.6128L482.745 14.0914C485.161 13.5957 486.906 12.9005 488.358 11.6323L483.702 10.9242L483.807 10.2354L489.739 11.1366L489.941 9.82986C489.53 10.0165 489.062 10.1517 488.534 10.274L488.345 9.74618C489.094 9.43719 489.582 9.13463 489.915 8.74196C488.625 9.0767 486.079 9.38569 484.36 9.39213L484.204 8.06604C485.096 8.15616 485.864 8.20766 486.594 8.23984L486.913 6.19921L484.757 5.87091L484.861 5.18212L490.481 6.03828L490.377 6.72707L488.222 6.39877L487.928 8.27203C488.599 8.26559 489.283 8.24628 490.038 8.18191L490.077 8.53596C490.488 7.92442 490.618 7.12619 490.8 5.92885L495.769 6.68201L495.41 8.98657C495.319 9.55306 495.528 9.6818 496.036 9.75905C496.706 9.86205 496.739 9.72687 496.967 8.15616L497.527 8.23984C497.82 10.7504 497.357 11.0723 495.834 10.8598C494.277 10.641 493.893 10.2547 494.095 8.94795L494.369 7.18412L491.992 6.82363C491.744 8.40722 491.106 9.2505 490.071 9.76549L491.282 9.95217L491.067 11.3491L497.032 12.2567L496.928 12.9455L491.523 12.1215C493.027 13.8725 494.916 14.6192 497.038 15.2887V15.2694ZM484.412 5.27224L484.152 4.79588C485.558 3.84315 486.535 2.75525 487.336 1.08154L488.762 1.72528C488.554 2.05358 488.254 2.43338 487.876 2.81962L491.849 3.42473L491.744 4.11352L489.088 3.70797C489.407 4.11996 489.732 4.66713 490.019 5.2658L488.808 5.50398C488.716 4.87956 488.593 4.24227 488.371 3.59854L487.238 3.42473C486.444 4.11996 485.467 4.80231 484.406 5.27224H484.412ZM490.657 5.27868C491.777 4.40964 492.643 3.25092 493.288 1.93771L494.642 2.63294C494.375 2.99987 494.069 3.36036 493.743 3.68866L498.432 4.4032L498.328 5.09199L495.313 4.63494C495.664 5.02118 495.964 5.45892 496.257 6.01897L495.052 6.30865C494.909 5.70354 494.772 5.14993 494.518 4.51264L493.092 4.29377C492.324 4.94394 491.529 5.43961 490.943 5.72929L490.65 5.27868H490.657ZM492.2 7.33862L492.695 7.22275C493.086 8.06604 493.372 9.00589 493.47 9.82343L492.304 9.94573C492.337 9.21188 492.285 8.2141 492.2 7.33862Z" fill="white"/>
<path d="M505.542 12.2181L501.271 19.5309L500.131 18.8808L503.725 12.7267C502.788 13.5185 501.531 14.3424 500.261 14.9025L500.053 14.3875C501.466 13.4927 503.569 11.8448 505.21 9.87494L503.608 8.96084L503.96 8.35573L505.699 9.34708L507.392 6.44385L508.531 7.09402L506.838 9.99725L508.44 10.9113L508.088 11.5165L506.486 10.6024L505.998 11.4328C506.226 12.5336 506.454 13.879 506.35 15.0184L505.093 14.9282C505.282 14.0463 505.419 13.0357 505.542 12.2117V12.2181ZM502.319 19.5695L502.254 18.9966C503.27 18.8099 504.885 18.1855 506.07 17.3937L506.858 18.5911C505.275 19.2799 503.543 19.5502 502.319 19.5631V19.5695ZM509.41 18.8164L507.886 21.4235C507.007 22.9298 505.458 22.5436 504.149 20.2777L504.539 19.8528C506.031 21.1145 506.389 21.2111 506.76 20.5802L508.199 18.1211L504.924 16.2543L505.275 15.6492L513.102 20.1167L512.751 20.7218L509.41 18.8099V18.8164ZM506.597 15.2565L506.929 14.6901L513.089 18.2048L512.757 18.7713L506.597 15.2565ZM511.527 10.6667L509.104 9.28271L509.456 8.6776L517.081 13.0292L516.729 13.6343L514.307 12.2503L513.682 13.3253L515.694 14.4712L513.858 17.619L507.118 13.7695L508.954 10.6281L510.901 11.7353L511.527 10.6603V10.6667ZM510.556 12.3211L509.703 11.8319L508.544 13.821L509.397 14.3103L510.556 12.3211ZM511.351 23.5929L509.86 23.8182C509.86 22.8655 509.729 21.0373 509.547 19.6983L510.061 19.5631C510.641 20.8055 511.214 22.55 511.351 23.5929ZM510.374 14.8703L511.201 15.3467L512.36 13.3575L511.533 12.8812L510.374 14.8703ZM511.878 12.3018L512.705 12.7782L513.33 11.7031L512.503 11.2268L511.878 12.3018ZM512.184 15.9003L513.083 16.4153L514.242 14.4261L513.343 13.9176L512.184 15.9067V15.9003Z" fill="white"/>
<path d="M523.02 34.8322L522.473 35.2699L518.566 30.487L516.658 32.0126L515.727 30.8797L517.635 29.354L513.754 24.6097L514.301 24.172L518.182 28.9163L518.99 28.2725L516.509 25.2406L519.797 22.6141L525.684 29.8111L522.395 32.4375L519.914 29.4055L519.107 30.0492L523.014 34.8322H523.02ZM522.057 30.9118L522.923 30.2166L518.814 25.1955L517.948 25.8907L522.057 30.9118ZM527.598 30.7767L519.276 20.5993L519.823 20.1615L522.402 23.3158C522.695 22.5433 522.884 21.9318 523.164 21.0885L523.457 21.1529L522.037 19.4148L522.584 18.9771L526.166 23.3609C526.152 22.5755 526.094 21.6421 526.068 20.9404L526.628 20.8117C526.973 21.5327 527.474 22.8909 527.657 23.8437L526.673 23.9724L529.91 27.9314L529.363 28.3691L527.318 25.8714L527.631 26.8177C526.758 26.9336 526.1 26.9465 525.312 26.8756L528.145 30.3389L527.598 30.7767ZM519.341 24.7771L523.45 29.7982L524.245 29.1609L520.136 24.1398L519.341 24.7771ZM523.704 23.908L522.721 23.6956L524.785 26.219C525.475 26.0259 526.198 25.7491 526.927 25.3822L523.776 21.5327C523.847 22.3373 523.815 23.0583 523.698 23.908H523.704Z" fill="white"/>
<path d="M1.16287 44.2436L0.231689 43.2844C2.55638 39.7245 4.26245 35.9716 5.19363 31.6779L8.41043 32.6371C7.94809 33.8988 7.21227 35.4309 6.32016 37.0402H11.2821C10.8979 35.4695 10.1556 33.2872 9.69324 32.1028L10.8914 31.4912C12.0505 32.5662 13.5221 34.6712 14.2254 36.1647L12.1742 37.0466H18.4906V38.7718H13.0663V41.1858H17.1752V41.9905C19.0766 38.8105 20.2357 35.6304 21.0888 31.768L24.3837 32.7272C23.9214 33.9889 23.2637 35.521 22.4107 37.0531H27.1382C26.754 35.4824 26.0507 33.3001 25.5884 32.2251L26.7865 31.6135C27.9521 32.6886 29.4238 34.7936 30.1206 36.287L28.3363 37.0531H34.3792V38.7783H28.994V41.2309H33.1811V42.8788H28.994V45.4473H33.1811V47.0953H28.994V49.696H34.7243V51.4212H22.6776V52.9532H19.5781V41.4626C18.8813 42.3832 18.1845 43.1878 17.4878 43.838L16.5566 43.0333L16.6738 42.8402H13.0728V45.4087H17.1427V47.0953H13.0728V49.696H18.6143V51.4212H6.70435V53.1464H3.60477V41.3532C2.7908 42.4668 1.93776 43.4968 1.16287 44.2629V44.2436ZM33.5522 67.2634C28.4796 66.9544 23.4395 66.3043 19.0246 64.1992C14.258 66.1498 8.37136 67.302 1.0131 67.6818L0.739605 66.3429C7.2839 65.7313 12.4412 64.431 16.4264 62.7058C13.9063 61.0578 11.6989 58.7597 9.84301 55.6569H6.0076V53.9703H26.233L27.047 53.3588L30.6089 55.5024C28.4796 58.2576 25.9205 60.5171 22.7818 62.3195C26.6954 63.2015 30.9931 63.356 35.5253 63.356L33.5522 67.2634ZM6.70435 41.1794H10.0384V38.7654H6.70435V41.1794ZM6.70435 45.3958H10.0384V42.8273H6.70435V45.3958ZM6.70435 47.076V49.8311H10.0384V47.076H6.70435ZM19.2525 61.2896C22.0395 59.6416 24.0972 57.7297 25.4516 55.6569H11.3147C13.6003 58.3735 16.2766 60.1373 19.259 61.2896H19.2525ZM22.6646 41.218H25.9595V38.7654H22.6646V41.218ZM22.6646 45.4345H25.9595V42.866H22.6646V45.4345ZM22.6646 47.076V49.6766H25.9595V47.076H22.6646Z" fill="white"/>
<path d="M54.8195 60.7488C51.7981 62.5127 44.2836 64.9588 40.4872 65.8021L39.3607 61.8947C40.9495 61.8174 43.0398 61.5857 45.2473 61.2831V49.9856H39.6277V48.2604H45.2473V43.9345H41.6463V43.5869C41.0277 44.1212 40.4091 44.6233 39.7839 45.0804L38.9309 44.0053C41.757 41.321 44.8957 36.0359 46.172 31.6328L49.773 32.8559C49.5385 33.3516 49.3106 33.8537 49.0371 34.3494C51.0883 35.5338 53.5302 37.4135 55.1972 39.1387L52.7163 41.4369C51.3618 39.3319 49.6948 37.1882 48.3404 35.6175C46.9078 38.0315 45.1236 40.291 43.1505 42.2029H52.7553V43.9281H48.5357V48.254H53.9991V49.9792H48.5357V60.7424C50.7432 60.3626 52.8335 59.9377 54.4223 59.4807L54.8065 60.7424L54.8195 60.7488ZM44.277 59.2554L41.2556 59.8669C41.1775 57.4529 40.8323 54.5046 40.4807 51.9748L41.757 51.743C42.8445 54.0025 43.8473 56.8349 44.277 59.2489V59.2554ZM49.4343 58.7211C50.092 56.2298 50.5999 53.3202 50.7888 51.1765L53.9665 52.0584C53.2698 54.2407 52.1042 56.8478 50.5934 59.1073L49.4278 58.7275L49.4343 58.7211ZM73.7622 63.5491L70.897 67.1089C65.3555 63.4332 62.5685 57.2662 61.6373 48.8398H59.1173V62.5126C60.8234 62.0942 62.4904 61.6307 64.1509 61.0964L64.7304 62.3195C61.1685 64.5404 56.747 66.1884 52.9116 67.1861L51.6744 63.7036C53.107 63.5491 54.4614 63.3946 55.7833 63.1693V34.1756H70.7342V48.8462H63.0243C63.6039 51.8718 64.4569 54.2085 65.5444 56.0818C67.3286 54.3566 68.5658 52.6378 69.8421 50.4491L73.1371 52.7472C71.2747 54.4338 68.644 56.1526 66.3193 57.3435C68.2533 60.1759 70.8124 61.9011 73.7557 63.5491H73.7622ZM59.1173 40.6064H67.4067V35.8943H59.1173V40.6064ZM59.1173 47.1146H67.4067V42.3252H59.1173V47.1146Z" fill="white"/>
<path d="M82.5531 56.346C82.6313 60.865 81.9345 64.8111 81.0033 67.3024L77.4805 65.8089C79.1084 63.3177 80.4628 60.2921 81.1987 56.198L82.5531 56.3525V56.346ZM80.6973 51.9429C82.7094 49.5289 84.2592 47.0827 85.809 44.0894C83.5624 44.8554 81.0033 45.5828 78.7958 45.9626L78.0991 42.9757C78.9131 42.9757 79.727 42.9371 80.5801 42.8985C82.0517 39.8343 83.5624 35.7724 84.728 31.6782L88.1402 32.8627C86.5122 36.4998 84.5001 39.8343 82.1754 42.7826C83.7643 42.6281 85.3532 42.4736 86.7076 42.2869C87.3653 40.9866 88.023 39.5704 88.7588 38.0383L91.8193 39.609C88.4462 45.3897 86.0108 48.7243 82.755 51.7112C84.8843 51.4022 86.903 51.061 88.8369 50.6748C88.5244 49.7156 88.2183 48.8337 87.8667 47.9196L88.9932 47.3467C90.5821 49.2972 91.7412 51.0996 92.7896 53.7067L90.2305 54.8912C89.8788 53.8548 89.6118 52.9021 89.2993 52.0202C85.9262 53.5136 82.5206 54.6273 78.8414 55.3933L77.9102 52.1747C78.8414 52.136 79.7726 52.0588 80.6973 51.9429ZM87.9383 64.1223L84.6825 64.618C84.6043 61.3993 84.4871 58.7214 84.2201 55.889L85.4964 55.6572C86.5057 58.303 87.4304 61.2127 87.9383 64.1223ZM112.969 64.3541L110.84 67.9525C108.398 66.6908 105.377 64.7725 102.779 61.6697C99.7571 64.4249 95.9999 66.3432 91.3895 67.8753L90.81 66.6136C95.1859 64.6244 98.5199 62.2104 101.079 59.3394C99.0278 56.198 97.4389 52.1038 96.8985 46.7416C96.1236 55.2453 94.0333 62.4036 88.9542 66.5814L87.9448 65.6609C89.0714 64.3991 89.996 62.9443 90.7319 61.2963L89.7616 61.792C89.0258 59.3008 88.2118 57.1571 87.3588 54.9363L88.5244 54.402C89.6835 55.8568 90.7319 57.3889 91.624 58.9596C93.2128 54.1702 93.7142 48.0419 93.7924 40.9222V35.9462H90.3802V34.221H107.115C106.458 38.0898 105.917 41.3085 105.064 45.0228H106.887L107.741 44.2954L111.263 45.7116C109.714 51.6468 107.701 56.0499 104.947 59.3845C107.233 61.5281 109.941 63.0215 112.963 64.3605L112.969 64.3541ZM97.198 35.9333V41.0638C97.1589 42.4028 97.0808 43.7031 97.0027 45.0099H101.691C102.505 41.2956 102.928 38.3087 103.241 35.9333H97.198ZM102.818 57.0735C104.83 54.1252 106.191 50.7134 107.037 46.7351H98.2073C99.2557 51.2155 100.806 54.5114 102.818 57.0735Z" fill="white"/>
<path d="M119.514 55.7342L120.868 55.8887C120.868 60.4077 120.477 64.579 119.741 67.0703L116.18 65.6154C117.612 63.3173 118.739 59.8347 119.514 55.7342ZM119.748 51.022C121.415 49.0715 123.121 46.6575 124.671 43.9732C122.502 44.5461 120.139 45.0482 118.394 45.2735L117.697 41.939C118.354 41.9776 119.012 42.0548 119.631 42.0548C121.024 39.2224 122.19 35.8493 123.154 31.562L126.755 32.901C125.322 36.3128 123.154 39.7953 121.291 42.1321C122.763 42.1707 124.196 42.1321 125.667 42.0162C126.481 40.4455 127.217 38.7976 127.836 37.0788L131.17 38.5336C129.464 42.0548 125.628 47.3785 122.144 50.9062C123.968 50.7517 125.784 50.5586 127.569 50.3332C127.184 49.3355 126.794 48.3827 126.403 47.5394L127.53 46.7348C129.197 48.46 130.974 51.1765 131.944 53.2815L129.04 54.7364L128.07 51.7108C124.469 53.0498 120.048 54.2407 117.801 54.5433L116.909 51.022C117.84 51.0607 118.771 51.0607 119.735 51.022H119.748ZM123.968 55.541C124.977 58.4893 125.941 62.6672 126.253 64.9653L122.809 65.3837C122.965 62.9697 122.887 58.8756 122.613 55.7728L123.968 55.541ZM126.761 54.3952C128.389 56.6933 130.056 60.06 130.831 62.2874L127.614 63.5491C127.191 61.0192 126.338 57.3435 125.563 54.8909L126.761 54.3952ZM151.669 60.2532L149.148 63.3946C147.175 61.1737 144.538 58.3413 141.979 56.1204V63.5104C141.979 67.3406 138.495 68.9114 132.218 65.4223L132.602 64.0834C138.066 65.0039 138.645 64.6949 138.645 62.6285V56.8478C136.783 58.7275 134.419 60.678 131.788 62.326L130.082 59.0687C133.025 58.1095 135.663 56.6933 138.645 54.8201V47.2369H129.62V45.5117H141.471L142.246 42.5248H135.311C135.116 43.1363 134.927 43.7865 134.692 44.4045L131.827 43.8702C133.104 40.04 133.996 36.0166 134.81 31.8839L137.987 32.4182C137.831 33.107 137.675 33.8344 137.486 34.5232H143.451L144.147 34.0275L147.286 35.1412C146.55 38.3984 145.697 42.0742 144.649 45.5181H150.614V47.2433H141.973V54.3308L142.669 54.6784C144.336 52.7666 145.808 50.5071 146.778 48.3956L149.8 50.3461C148.367 52.0327 146.042 53.9446 144.03 55.3222C146.856 56.8543 149.689 58.7339 151.662 60.2596L151.669 60.2532ZM135.357 55.5024C133.807 53.3588 132.14 51.4405 130.864 50.256L131.678 49.1423C133.345 49.9084 136.053 51.6336 137.642 53.127L135.357 55.5024ZM142.643 40.7996C143.067 39.0357 143.418 37.3556 143.614 36.1647H137.102C136.718 37.7354 136.327 39.2675 135.865 40.7996H142.643Z" fill="white"/>
<path d="M190.524 62.5127L189.287 66.5747C186.031 66.8064 182.313 66.9545 178.829 66.845C171.119 66.5746 165.734 65.3129 162.211 61.7531C160.505 64.2057 158.454 66.2721 155.973 67.8428L155.12 66.7292C156.904 65.2743 158.877 63.0534 160.544 59.6803C159.112 57.5367 158.102 54.775 157.484 51.2538L158.838 50.874C159.535 53.5133 160.427 55.6634 161.547 57.3435C162.595 54.627 163.409 51.2538 163.833 47.1532H160.46C159.841 48.2669 159.261 49.2196 158.793 49.799L156.045 48.6467C157.868 45.6984 160.538 40.5292 162.244 36.2034H155.849V34.5554H166.542C165.493 37.3878 163.325 41.9068 161.43 45.4345H163.598L164.451 44.8229L167.434 45.9366C166.932 51.0671 165.61 55.7406 163.481 59.6095C166.737 62.5964 171.425 63.4011 178.087 63.4011C182.235 63.3624 186.728 62.9826 190.524 62.5191V62.5127ZM175.456 41.8296H166.971V40.1816H175.456V37.0402H168.795V35.315H175.456V31.9097H178.79V35.315H186.344V40.1816H189.678V41.8296H186.344V46.9215H178.79V49.947H186.695V51.6722H178.79V55.2321H188.473V56.9573H178.79V62.0106H175.456V56.9573H166.932V55.2321H175.456V51.6722H168.326V49.947H175.456V46.9215H168.599V45.1963H175.456V41.8231V41.8296ZM178.784 40.1881H183.277V37.0467H178.784V40.1881ZM178.784 45.2027H183.277V41.8296H178.784V45.2027Z" fill="white"/>
<path d="M194.633 42.7889L193.819 41.7138C196.88 38.8814 198.853 35.8559 200.175 31.4914L203.893 32.5278C203.509 33.4097 202.922 34.4397 202.148 35.5147H212.065V37.2399H205.443C206.374 38.1218 207.377 39.3449 208.308 40.6903L205.443 41.7267C204.98 40.2332 204.433 38.7398 203.658 37.2463H200.832C199.165 39.2355 197.036 41.2697 194.633 42.8017V42.7889ZM229.191 62.4742L227.14 66.2658C223.226 65.6542 216.682 62.3197 213.152 57.2278V67.5275H209.818V57.3372C207.07 61.3605 200.175 64.7659 194.36 66.1113L193.897 64.8882C199.595 62.7832 203.58 60.4464 206.641 56.8093H195.017V55.0841H209.818V51.8269C208.887 52.4384 207.806 52.9341 206.563 53.4362L205.905 52.2131C207.611 51.1767 208.692 50.2626 209.356 49.1876C206.335 50.4879 200.253 52.1745 196.066 52.8246L195.174 49.6446C197.381 49.5287 199.282 49.3742 201.06 49.1876V44.0956H195.675V42.3704H209.701V44.0956H204.316V48.7691C205.944 48.4988 207.611 48.1962 209.428 47.7713L209.662 48.6146C210.437 46.9667 210.437 44.9776 210.437 41.9906H222.835V47.7327C222.835 49.1489 223.376 49.3807 224.659 49.3807C226.326 49.3807 226.365 49.0331 226.326 45.132H227.719C229.386 51.1445 228.377 52.1037 224.581 52.1423C220.706 52.1809 219.619 51.3762 219.619 48.119V43.7158H213.693C213.693 47.6619 212.456 49.96 210.131 51.608H213.152V55.0906H228.032V56.8158H214.552C218.889 60.5301 223.773 61.6438 229.197 62.4806L229.191 62.4742ZM209.858 40.4907C212.26 37.9609 213.927 34.8195 215.008 31.3755L218.57 32.56C218.069 33.5577 217.45 34.5491 216.786 35.4696H228.488V37.1948H220.973C221.982 37.9995 222.874 38.9587 223.799 40.2204L220.973 41.3726C220.393 39.9564 219.853 38.6561 219 37.2013H215.438C213.81 39.081 212.065 40.5744 210.75 41.4885L209.858 40.4907ZM214.39 44.9325L215.549 44.4754C216.825 46.3873 217.873 48.576 218.414 50.5265L215.627 51.2539C215.432 49.4515 214.93 47.0439 214.39 44.9325Z" fill="white"/>
<path d="M245.496 52.1743C243.907 52.1357 242.631 50.9126 242.631 49.4191C242.631 47.8484 243.907 46.7026 245.496 46.664C247.046 46.6254 248.283 47.8484 248.322 49.4191C248.361 50.9126 247.046 52.213 245.496 52.1743Z" fill="white"/>
<path d="M262.466 53.3201L261.886 52.0584C265.409 50.1465 268.431 48.151 269.831 43.368H262.739V41.6428H270.215C270.41 40.497 270.566 39.1902 270.599 37.7354H267.851C266.764 39.1902 265.565 40.4905 264.478 41.3724L263.508 40.4133C265.253 38.0379 266.764 34.594 267.382 31.5298L270.866 32.4889C270.404 33.6412 269.778 34.8643 269.043 36.0102H280.008V37.7354H274.161C274.083 39.1516 273.965 40.4519 273.738 41.6428H280.868V43.368H273.275C273.158 43.7478 273.041 44.1341 272.891 44.5203C275.756 45.4408 278.511 46.6253 280.406 47.8548L278.354 50.8804C276.805 49.3869 274.636 47.6617 272.194 45.9751C270.221 49.6508 266.809 51.7945 262.472 53.3266L262.466 53.3201ZM268.938 51.4855H290.785V67.2247H287.373V64.7721H272.344V67.4114H268.932V51.479L268.938 51.4855ZM272.344 56.9572H287.373V53.2043H272.344V56.9572ZM272.344 63.0469H287.373V58.6824H272.344V63.0469ZM294.504 35.3214V49.9148H291.169V47.3077H284.931V50.2946H281.597V35.3214H294.497H294.504ZM291.176 45.5825V37.0401H284.938V45.5825H291.176Z" fill="white"/>
<path d="M306.668 56.9574L307.983 57.3372C307.482 60.7426 306.088 64.0771 304.03 66.4139L301.087 63.7746C303.529 62.088 305.658 60.1761 306.668 56.9574ZM327.707 52.02H301.556V50.2948H327.707V48.4924H305.313V46.9217H331.035V50.2948H335.41V52.02H331.035V55.6185H305.079V54.0478H327.701V52.02H327.707ZM308.764 43.6708H302.253V42.1001H308.764V39.9565H303.575V38.3858H308.764V36.3966H302.721V34.8259H308.764V32.1094H312.02V34.8259H317.132V36.3966H312.02V38.3858H316.709V39.9565H312.02V42.1001H317.132V43.6708H312.02V45.9689H308.764V43.6708ZM326.932 58.4509C328.677 64.2316 327.473 65.8409 323.989 66.2272C321.703 66.4976 318.486 66.5748 316.084 66.3817C312.522 66.1113 310.236 65.7701 310.236 62.9377V56.7321H313.648V61.1353C313.648 62.6673 314.189 63.163 316.357 63.3175C318.955 63.5106 321.547 63.4334 323.214 63.2016C325.115 62.9313 325.5 62.5128 325.539 58.4509H326.932ZM315.621 57.7621L316.123 56.5004C318.174 56.9188 320.655 57.5754 323.292 59.0303L321.781 61.8627C319.88 60.4851 317.601 58.9916 315.621 57.7621ZM324.256 43.6708H318.597V42.1001H324.256V39.9565H319.372V38.3858H324.256V36.3966H318.597V34.8259H324.256V32.1094H327.512V34.8259H333.828V36.3966H327.512V38.3858H333.242V39.9565H327.512V42.1001H334.72V43.6708H327.512V45.9689H324.256V43.6708ZM335.762 63.3175L332.897 65.4225C331.347 62.4742 330.032 60.3306 328.287 57.6849L329.296 56.8802C331.23 58.2192 333.672 60.4787 335.769 63.3111L335.762 63.3175Z" fill="white"/>
<path d="M348.317 46.5417V67.3793H345.061V49.8376C344.052 52.67 342.384 55.9659 340.372 58.7211L339.285 57.8778C341.186 54.2407 343.622 48.151 344.67 41.9454H340.099V40.2202H345.061V31.9482H348.317V40.2202H352.888V41.9454H348.317V44.3208C350.179 46.3872 352.347 48.9943 353.546 51.5563L350.759 52.8953C350.062 50.7903 349.092 48.4535 348.317 46.5352V46.5417ZM350.602 66.1884L349.749 65.0361C351.683 63.3881 354.36 60.0987 355.909 56.9572L359.087 58.5666C356.567 61.9719 353.201 64.6563 350.602 66.1884ZM364.817 55.9273V63.3559C364.817 67.6432 361.021 68.7182 355.401 65.4609L355.714 64.0834C360.481 64.9653 361.373 64.7335 361.373 62.9311V55.9208H352.035V54.1956H374.351V55.9208H364.817V55.9273ZM359.165 35.9329H352.269V34.2077H374.006V35.9329H367.11V38.9971H372.84V47.9579H353.624V38.9971H359.165V35.9329ZM354.36 51.7494V50.1401H371.909V51.7494H354.36ZM359.165 40.6451H356.723V46.3163H359.165V40.6451ZM361.952 38.9971H364.316V35.9329H361.952V38.9971ZM361.952 46.3099H364.316V40.6386H361.952V46.3099ZM374.93 63.7744L372.026 66.0725C370.828 64.0447 368.269 60.2918 366.217 57.646L367.149 56.7255C369.936 58.676 373.348 61.7015 374.937 63.7744H374.93ZM367.103 46.3099H369.662V40.6386H367.103V46.3099Z" fill="white"/>
<path d="M412.972 59.983V61.7082H397.63V67.682H393.99V61.7082H378.766V59.983H393.99V57.4531H384.268V47.1534H407.359V57.4531H397.637V59.983H412.978H412.972ZM412.197 45.0097H379.541V43.2845H389.653C388.605 41.5207 387.719 40.2204 386.515 38.3793L387.094 37.9222H381.514V36.197H395.579C394.029 35.0126 392.134 33.6672 390.734 32.6372L391.353 31.3755C393.287 31.8325 396.699 32.9848 398.828 34.1307L397.552 36.197H410.256V37.9222H402.234L404.559 38.8042C403.432 40.6452 402.429 41.9069 401.075 43.2845H412.197V45.0097ZM387.752 51.3698H403.868V48.8786H387.752V51.3698ZM403.868 55.7343V53.0178H387.752V55.7343H403.868ZM392.831 41.7525L390.897 43.2845H398.991C399.688 41.6752 400.267 39.8792 400.697 37.9222H388.338C390.005 39.0359 391.359 40.2204 392.831 41.7525Z" fill="white"/>
</g>
<defs>
<clipPath id="clip0_2018_2559">
<rect width="655.537" height="93" fill="white" transform="translate(0.231689)"/>
</clipPath>
</defs>
</svg>
