<?xml version="1.0" encoding="UTF-8"?>
<svg id="_圖層_1" data-name="圖層_1" xmlns="http://www.w3.org/2000/svg" version="1.1" viewBox="0 0 656 105">
  <!-- Generator: Adobe Illustrator 30.0.0, SVG Export Plug-In . SVG Version: 2.1.1 Build 123)  -->
  <path d="M589.7,31.6l27.3-27,38.8,38.4h-19.4v20.7h-8.8v-29.2h8l-18.5-18.3-15.7,15.3h-11.6ZM586.8,34.5l-8.8,8.7h19.2c-9.7,24.7-46.6,6.6-32.3-16.2,1.5-2.1-1-3.8-2.6-4.7-7-2.9-8.6,10.2-8.8,15.2-.5,21.7,27.8,34.1,43.7,19.7v6.6h8.8v-29.3h-19.1,0ZM583,10.2c-.8,11.4-5.7,11-4.8-.3.8-11.4,5.7-11,4.8.3ZM576.6,10.9c2.2,10.5-2.6,11.4-4.7,1-2.2-10.5,2.6-11.4,4.7-1ZM570.6,13.5c3.7,8.4-.2,10-3.8,1.6-3.7-8.4.2-10,3.8-1.6ZM566,17.4c4.9,6.3,1.4,8.8-3.4,2.6-4.9-6.3-1.4-8.8,3.4-2.6ZM590.1,10.2c-4,12.3-8.7,10.8-4.5-1.5,4-12.3,8.7-10.8,4.5,1.5ZM597,12.2c-8,12.8-12.2,10.3-4-2.5,8-12.8,12.2-10.2,4,2.5ZM603.7,15.7c-12.1,12.1-15.9,8.4-3.6-3.6,12.1-12.1,15.9-8.4,3.6,3.6ZM563.3,79h.5c0,1.9-.2,3.5-.4,4.5l-1.4-.6c.6-.9,1-2.3,1.3-3.9h0ZM563.4,77.1c.7-.8,1.3-1.7,2-2.8-.9.2-1.8.4-2.5.5l-.3-1.3c.3,0,.5,0,.8,0,.6-1.1,1-2.5,1.4-4.2l1.4.5c-.6,1.4-1.4,2.7-2.2,3.7.6,0,1.2,0,1.7,0,.3-.6.6-1.3.9-2l1.3.6c-.7,1.4-2.2,3.5-3.6,4.9.7,0,1.4-.1,2.2-.2-.2-.4-.3-.8-.5-1.1l.4-.3c.7.7,1.4,1.8,1.8,2.6l-1.2.6-.4-1.2c-1.4.5-3.2,1-4.1,1.1l-.4-1.4c.4,0,.7,0,1.1,0h0ZM565.1,78.9c.4,1.2.8,2.8.9,3.7l-1.4.2c0-1,0-2.6,0-3.8h.5ZM566.2,78.4c.6.9,1.3,2.3,1.6,3.1l-1.3.5c-.2-1-.5-2.5-.8-3.4l.5-.2ZM576.1,80.8l-1,1.2c-.8-.9-1.8-2-2.8-2.9,0,2.6.6,6.1-3.9,3.7l.2-.5c3.6.9,2.1-1.1,2.4-2.9-.7.7-1.7,1.5-2.7,2.2l-.7-1.3c1.2-.4,2.2-.9,3.4-1.7v-3h-3.6v-.7h4.7l.3-1.2h-2.8c0,.2-.2.5-.2.7l-1.1-.2c.5-1.5.9-3.1,1.2-4.8l1.3.2c0,.3-.1.6-.2.8h2.4l.3-.2,1.2.4c-.3,1.3-.6,2.8-1,4.1h2.4v.7h-3.4v2.8h.3c.7-.6,1.2-1.5,1.6-2.4l1.2.8c-.6.7-1.5,1.4-2.3,2,1.1.6,2.2,1.4,3,2ZM569.6,78.9c-.6-.8-1.3-1.6-1.8-2.1l.3-.4c.7.3,1.7,1,2.4,1.6,0,0-.9.9-.9.9ZM572.5,73c.2-.7.3-1.4.4-1.8h-2.6c-.2.6-.3,1.2-.5,1.8h2.7ZM591.5,81.7l-.5,1.6c-3.3.3-8.8.3-10.8-1.9-.7,1-1.5,1.8-2.5,2.4l-.3-.4c.7-.6,1.5-1.5,2.2-2.8-.6-.8-1-1.9-1.2-3.3l.5-.2c.3,1,.6,1.9,1.1,2.6.4-1.1.7-2.4.9-4h-1.3c-.2.4-.5.8-.7,1l-1.1-.5c.7-1.2,1.8-3.2,2.5-4.9h-2.5v-.7h4.2c-.4,1.1-1.3,2.9-2,4.3h.9l.3-.2,1.2.4c-.2,2-.7,3.9-1.6,5.4,2.2,2.1,7.6,1.5,10.8,1.2ZM585.6,73.5h-3.4v-.7h3.4v-1.2h-2.6v-.7h2.6v-1.4h1.3v1.4h3v1.9h1.3v.7h-1.3v2h-3v1.2h3.1v.7h-3.1v1.4h3.8v.7h-3.8v2h-1.3v-2h-3.4v-.7h3.4v-1.4h-2.8v-.7h2.8v-1.2h-2.7v-.7h2.7v-1.3ZM586.9,72.8h1.8v-1.2h-1.8v1.2ZM586.9,74.8h1.8v-1.3h-1.8v1.3ZM593.2,73.8l-.3-.4c1.2-1.1,2-2.3,2.5-4.1l1.5.4c-.2.3-.4.8-.7,1.2h3.9v.7h-2.6c.4.3.8.8,1.1,1.4l-1.1.4c-.2-.6-.4-1.2-.7-1.8h-1.1c-.7.8-1.5,1.6-2.5,2.2h0ZM606.9,81.7l-.8,1.5c-1.6-.2-4.2-1.6-5.6-3.6v4.1h-1.3v-4c-1.1,1.6-3.8,2.9-6.1,3.5l-.2-.5c2.3-.8,3.8-1.8,5.1-3.2h-4.6v-.7h5.9v-1.3c-.4.2-.8.4-1.3.6l-.3-.5c.7-.4,1.1-.8,1.4-1.2-1.2.5-3.6,1.2-5.3,1.4l-.4-1.3c.9,0,1.6-.1,2.3-.2v-2h-2.1v-.7h5.6v.7h-2.1v1.9c.6-.1,1.3-.2,2-.4v.3c.4-.7.4-1.4.4-2.6h4.9v2.3c0,.6.2.7.7.7s.7-.1.7-1.7h.6c1.7,3.7-3.4,3.6-3.2,1.2,0,0,0-1.8,0-1.8h-2.4c0,1.6-.5,2.5-1.4,3.1h1.2v1.4h5.9v.7h-5.4c1.7,1.5,3.7,1.9,5.8,2.3h0ZM599.2,72.9c1-1,1.6-2.3,2-3.6l1.4.5c-.2.4-.4.8-.7,1.2h4.6v.7h-3c.4.3.8.7,1.1,1.2l-1.1.5c-.2-.6-.4-1.1-.8-1.7h-1.4c-.6.7-1.3,1.3-1.9,1.7,0,0-.3-.4-.4-.4ZM601,74.7l.5-.2c.5.8.9,1.6,1.1,2.4l-1.1.3c0-.7-.3-1.7-.5-2.5ZM611.8,75.3v8.3h-1.3v-7c-.4,1.1-1.1,2.4-1.9,3.5l-.4-.3c.8-1.4,1.7-3.9,2.1-6.3h-1.8v-.7h2v-3.3h1.3v3.3h1.8v.7h-1.8v.9c.7.8,1.6,1.9,2.1,2.9l-1.1.5c-.3-.8-.7-1.8-1-2.5h0ZM612.7,83.1l-.3-.5c.8-.7,1.8-2,2.4-3.2l1.3.6c-1,1.4-2.3,2.4-3.4,3ZM618.3,79.1c0,2.5.4,6.2-3.7,3.8v-.5c3.6,1,2-1.5,2.4-3.2h-3.7v-.7h8.9v.7h-3.8ZM616.1,71.1h-2.7v-.7h8.6v.7h-2.7v1.2h2.3v3.6h-7.6v-3.6h2.2v-1.2ZM614.2,77.4v-.6h7v.6h-7ZM616.1,73h-1v2.3h1v-2.3ZM617.2,72.3h.9v-1.2h-.9v1.2ZM617.2,75.2h.9v-2.3h-.9v2.3ZM622.3,82.2l-1.2.9c-.5-.8-1.5-2.3-2.3-3.3l.4-.4c1.1.8,2.5,2,3.1,2.8h0ZM619.2,75.2h1v-2.3h-1v2.3ZM637.4,80.7v.7h-6.1v2.4h-1.4v-2.4h-6v-.7h6v-1h-3.9v-4.1h9.2v4.1h-3.9v1h6.1ZM637.1,74.7h-13v-.7h4c-.4-.7-.8-1.2-1.2-1.9l.2-.2h-2.2v-.7h5.6c-.6-.5-1.4-1-1.9-1.4l.2-.5c.8.2,2.1.6,3,1.1l-.5.8h5v.7h-3.2l.9.3c-.4.7-.8,1.2-1.4,1.8h4.4v.7h0ZM627.4,77.2h6.4v-1h-6.4v1ZM633.8,79v-1.1h-6.4v1.1h6.4ZM629.4,73.4l-.8.6h3.2c.3-.6.5-1.4.7-2.1h-4.9c.7.4,1.2.9,1.8,1.5h0ZM573.1,89.9h2.2c.3,2.4-2.8,3.8-4.4,2-2.7-2.7,1.8-6.6,4.2-3.6l-.6.5c-1.1-1.6-3.7-.8-3.6,1.1-.1,2.1,3.2,2.8,3.5.6h-1.3v-.7h0ZM578.1,90.4l1.7,2.2h-1l-1.5-2.2h-.1v2.2h-.8v-5.3c2.4-.6,4.5,1.9,1.8,3h0ZM577.1,89.8c1.8.3,1.9-2,0-1.7v1.7ZM583.5,88.1h-2.1v1.3h2.1v.7h-2.1v1.8h2.1v.7h-2.9v-5.3h2.9v.8ZM587.5,88.1h-2.1v1.3h2.1v.7h-2.1v1.8h2.1v.7h-2.9v-5.3h2.9v.8ZM588.6,92.7v-5.6l3.9,4v-3.7h.8v5.6l-3.9-4v3.7h-.8ZM596.8,92.7v-5.3c1.6-.4,3.7.9,2.3,2.4,2.4,1.6-.2,3.3-2.3,2.8h0ZM597.6,89.7c1.5.3,1.5-1.8,0-1.5v1.5h0ZM597.6,91.9c2,.3,2.1-1.9,0-1.6v1.6h0ZM601.8,87.4c.2,1.1-.8,4.7,1.2,4.6,1.9,0,.9-3.5,1.2-4.6h.8c-.1,1.6.7,5.5-2,5.4-2.7.1-1.9-3.7-2-5.4h.8ZM607,87.4v5.3h-.8v-5.3h.8ZM609.1,87.4v4.5h1.6v.7h-2.4v-5.3h.8ZM611.4,92.7v-5.3c5.5-.9,5.5,6.2,0,5.3h0ZM612.2,91.9c3.2.6,3.3-4.3,0-3.8v3.8ZM617.4,87.4v5.3h-.8v-5.3h.8ZM618.6,92.7v-5.6l3.9,4v-3.7h.8v5.6l-3.9-4v3.7h-.8ZM627.4,89.9h2.2c.3,2.4-2.8,3.8-4.4,2-2.7-2.7,1.8-6.6,4.2-3.6l-.6.5c-1.1-1.6-3.7-.8-3.6,1.1-.1,2.1,3.2,2.8,3.5.6h-1.3v-.7h0ZM462.3,50.8c9.6.1,9.6-14.8,0-14.7-9.6-.1-9.6,14.8,0,14.7ZM510.7,59.5l-.3,11.6h3.3c1.1,4.6-1.3,8.8-5.4,11v-23.2h14.2l-41-37.3-14.5,12.4,3.8,4.1,10.6-9.4,27.8,25.1h-8.8v23.3h-22.2l29.3,5.5c-13.9,7.1-32.2,7.1-46-.1h35.6l-28.6-4.7v-24h-17.6l-4.4,5.5h14.9v2.1c-17.8,7.5-13.1,23.2,3.2,28.4,14.7,6.3,58,4.7,54-18.6h3.8l-11.7-11.6h0ZM458.1,79.9c-5.4-4.4-1.8-11.1,3.3-13.8v16.3c-1.2-.7-2.3-1.5-3.3-2.4h0ZM439.5,35.7h-.6c.2-1.7.2-3.2-1-4.7l-1.7,2.3-.6-.4,1.8-2.4c-.3-.3-.7-.7-1.2-1l-.6.9c.2.7.4,1.4.4,2h-.5c-.4-1-1.2-2.3-2.1-3.3l1.1-.9c.3.4.5.9.7,1.4l2.6-3.6.6.4-1.4,1.9c.5.4.9.7,1.2,1.1l1.7-2.3.6.4-1.8,2.5c0,.1.2.3.3.4,1-.7,2-1.3,2.9-1.7l.5,1.4c-.9.2-1.9.5-3.1.9.8,1.5.7,3.1.2,4.9h0ZM441,21l4.9,3.4-.8,1.1-.9-.6-1.5,2,1,.7-.8,1.1-5-3.5,3-4.2h0ZM443.7,24.5l-2.9-2-1.5,2,2.8,2,1.5-2ZM440.4,33.1l5.1-7.1,5.2,3.7-.8,1.1-.8-.6-3.5,4.9.9.6-.8,1.1-5.3-3.8ZM443,33.3l3.5-4.9-1.2-.9-3.5,4.9,1.2.9ZM445.1,34.8l3.5-4.9-1.5-1-3.5,4.9,1.5,1ZM450.9,16.8l-2.2,1.4-.4-.5,2.2-1.4-.5-.7-1.8,1.1-.4-.5,1.8-1.1-.4-.7-2,1.3-.4-.5,2-1.3-.6-.9,1.1-.7.6.9,1.7-1.1.4.5-1.7,1.1.4.7,1.6-1,.4.5-1.6,1,.5.7,1.7-1.1.4.5-1.7,1.1.5.8-1.1.7-.5-.8h0ZM459.2,15.4l-8.8,5.8-.4-.6,8.8-5.8-.4-.6-7.6,5-.4-.5,8.7-5.7.8,1.1,1.5-1,.4.6-1.5,1,.8,1.2-8.8,5.7-.4-.5,7.7-5-.5-.7h0ZM456.1,13.3l-1.9,1.2-.4-.5,1.9-1.2-.5-.7-1.6,1.1-.4-.5,1.6-1.1-.4-.7-1.9,1.2-.4-.5,1.9-1.2-.6-.9,1.1-.7.6.9,2.1-1.4.4.5-2.1,1.4.4.7,1.9-1.3.4.5-1.9,1.3.5.7,2.4-1.6.4.5-2.4,1.6.5.8-1.1.7-.5-.8h0ZM453.2,21.7l.5-.2c.6,1.3.9,2.7.7,3.9l-1.6-.2c.4-1.1.7-2.2.3-3.5ZM460.4,17.7c3.5,2.6,0,3.7-1.9,5.1-2.4,1.8-3.1-.4-4.2-2l1.2-.8c.7.7,1,2.6,2.4,1.6,1.6-1.3,3.8-1.3,2-3.7l.5-.3h0ZM456.4,20v-.5c.7-.3,1.7-.6,2.9-.7v1.3c-.8,0-1.9,0-2.9,0ZM464.5,17.4l-.5,1.3c-1.2-.7-2.1-1.1-3.3-1.6l.2-.5c1,0,2.3.3,3.6.7ZM480.5,13.2v1.7c-3.4,1-8.8,2.2-11.3.4-.5,1.1-1.1,2.1-1.9,2.9l-.4-.4c.6-.7,1.2-1.8,1.5-3.3-.8-.7-1.4-1.7-1.9-3.1l.5-.3c.5,1,1,1.8,1.6,2.3.2-1.2.2-2.6,0-4.2l-1.3.3c-.2.5-.3.9-.4,1.2l-1.2-.2c.5-1.3,1.1-3.6,1.4-5.5l-2.5.5v-.7c-.1,0,4.1-.9,4.1-.9-.2,1.2-.6,3.2-1.1,4.7l.9-.2.3-.3,1.3.2c.2,2.1.1,4-.4,5.7,2.6,1.7,7.9-.1,11-1.1h0ZM472.8,6.3l-3.4.7v-.7c-.1,0,3.2-.7,3.2-.7l-.3-1.2-2.6.6v-.7c-.1,0,2.5-.6,2.5-.6l-.3-1.4,1.3-.3.3,1.4,3-.6.4,1.9,1.3-.3v.7c.1,0-1.2.3-1.2.3l.4,2-3,.6.3,1.2,3.1-.7v.7c.1,0-3,.7-3,.7l.3,1.4,3.8-.8v.7c.1,0-3.7.8-3.7.8l.4,2-1.3.3-.4-2-3.4.7v-.7c-.1,0,3.2-.7,3.2-.7l-.3-1.4-2.8.6v-.7c-.1,0,2.7-.6,2.7-.6l-.3-1.2-2.7.6v-.7c-.1,0,2.6-.6,2.6-.6l-.3-1.3h0ZM473.9,5.3l1.8-.4-.3-1.2-1.8.4.3,1.2ZM474.4,7.3l1.8-.4-.3-1.3-1.8.4.3,1.3ZM497,15.3l-1.1,1.4c-1.5-.5-3.9-2.2-5-4.5l-.6,4.1-1.3-.2.6-4.1c-1.4,1.4-4.3,2.4-6.7,2.6v-.5c2.3-.5,4.1-1.2,5.5-2.5l-4.7-.7v-.7c.1,0,6,.9,6,.9l.2-1.3c-.4.2-.9.3-1.4.4l-.2-.5c.7-.3,1.2-.6,1.6-1-1.3.3-3.8.6-5.6.7l-.2-1.3c.9,0,1.7.1,2.4.2l.3-2-2.2-.3v-.7c.1,0,5.7.9,5.7.9v.7c-.1,0-2.3-.3-2.3-.3l-.3,1.9c.7,0,1.4,0,2.1,0v.4c.5-.6.6-1.4.8-2.6l5,.8-.4,2.3c0,.6.1.7.6.8.7.1.7,0,.9-1.6h.6c1.2,4.1-4.1,3.1-3.4.8,0,0,.3-1.8.3-1.8l-2.4-.4c-.2,1.6-.9,2.4-1.9,2.9l1.2.2-.2,1.4,6,.9v.7c-.1,0-5.5-.8-5.5-.8,1.5,1.8,3.4,2.5,5.5,3.2h0ZM484.4,5.3l-.3-.5c1.4-1,2.4-2,3.2-3.7l1.4.6c-.2.3-.5.7-.9,1.1l4,.6v.7c-.1,0-2.8-.4-2.8-.4.3.4.6,1,.9,1.6l-1.2.2c0-.6-.2-1.3-.4-1.9l-1.1-.2c-.8.7-1.8,1.4-2.8,1.8h0ZM490.7,5.3c1.1-.9,2-2,2.6-3.3l1.4.7c-.3.4-.6.7-.9,1.1l4.7.7v.7c-.1,0-3.1-.5-3.1-.5.4.4.7.8.9,1.4l-1.2.3c-.1-.6-.3-1.2-.5-1.8l-1.4-.2c-.8.7-1.6,1.1-2.1,1.4l-.3-.5h0ZM492.2,7.3h.5c.4.7.7,1.7.8,2.5h-1.2c0-.6,0-1.6-.1-2.5ZM505.5,12.2l-4.3,7.3-1.1-.7,3.6-6.2c-.9.8-2.2,1.6-3.5,2.2l-.2-.5c1.4-.9,3.5-2.5,5.2-4.5l-1.6-.9.4-.6,1.7,1,1.7-2.9,1.1.7-1.7,2.9,1.6.9-.4.6-1.6-.9-.5.8c.2,1.1.5,2.4.4,3.6h-1.3c.2-1,.3-2,.4-2.8h0ZM502.3,19.6v-.6c1-.2,2.6-.8,3.8-1.6l.8,1.2c-1.6.7-3.3,1-4.5,1h0ZM509.4,18.8c-1.2,2.3-2.8,5.7-5.3,1.5l.4-.4c2.6,2.6,2.5-.4,3.7-1.7l-3.3-1.9.4-.6,7.8,4.5-.4.6-3.3-1.9h0ZM506.6,15.3l.3-.6,6.2,3.5-.3.6-6.2-3.5ZM511.5,10.7l-2.4-1.4.4-.6,7.6,4.4-.4.6-2.4-1.4-.6,1.1,2,1.1-1.8,3.1-6.7-3.8,1.8-3.1,1.9,1.1.6-1.1h0ZM510.6,12.3l-.9-.5-1.2,2,.9.5,1.2-2ZM511.4,23.6l-1.5.2c0-1-.1-2.8-.3-4.1h.5c.6,1.1,1.2,2.9,1.3,3.9ZM510.4,14.9l.8.5,1.2-2-.8-.5-1.2,2ZM511.9,12.3l.8.5.6-1.1-.8-.5-.6,1.1ZM512.2,15.9l.9.5,1.2-2-.9-.5-1.2,2h0ZM523,34.8l-.5.4-3.9-4.8-1.9,1.5-.9-1.1,1.9-1.5-3.9-4.7.5-.4,3.9,4.7.8-.6-2.5-3,3.3-2.6,5.9,7.2-3.3,2.6-2.5-3-.8.6,3.9,4.8h0ZM522.1,30.9l.9-.7-4.1-5-.9.7,4.1,5ZM527.6,30.8l-8.3-10.2.5-.4,2.6,3.2c.3-.8.5-1.4.8-2.2h.3c0,0-1.4-1.7-1.4-1.7l.5-.4,3.6,4.4c0-.8,0-1.7,0-2.4h.6c.3.6.8,2,1,2.9h-1c0,.1,3.2,4.1,3.2,4.1l-.5.4-2-2.5.3.9c-.9.1-1.5.1-2.3,0l2.8,3.5-.5.4ZM519.3,24.8l4.1,5,.8-.6-4.1-5-.8.6ZM523.7,23.9l-1-.2,2.1,2.5c.7-.2,1.4-.5,2.1-.8l-3.2-3.8c0,.8,0,1.5,0,2.4h0ZM1.2,44.2l-.9-1c2.3-3.6,4-7.3,5-11.6l3.2,1c-.5,1.3-1.2,2.8-2.1,4.4h5c-.4-1.6-1.1-3.8-1.6-4.9l1.2-.6c1.2,1.1,2.6,3.2,3.3,4.7l-2.1.9h6.3v1.7h-5.4v2.4h4.1v.8c1.9-3.2,3.1-6.4,3.9-10.2l3.3,1c-.5,1.3-1.1,2.8-2,4.3h4.7c-.4-1.6-1.1-3.8-1.5-4.8l1.2-.6c1.2,1.1,2.6,3.2,3.3,4.7l-1.8.8h6v1.7h-5.4v2.5h4.2v1.6h-4.2v2.6h4.2v1.6h-4.2v2.6h5.7v1.7h-12v1.5h-3.1v-11.5c-.7.9-1.4,1.7-2.1,2.4l-.9-.8v-.2c.1,0-3.5,0-3.5,0v2.6h4.1v1.7h-4.1v2.6h5.5v1.7H6.7v1.7h-3.1v-11.8c-.8,1.1-1.7,2.1-2.4,2.9h0ZM33.6,67.3c-5.1-.3-10.1-1-14.5-3.1-4.8,2-10.7,3.1-18,3.5l-.3-1.3c6.5-.6,11.7-1.9,15.7-3.6-2.5-1.6-4.7-3.9-6.6-7h-3.8v-1.7h20.2l.8-.6,3.6,2.1c-2.1,2.8-4.7,5-7.8,6.8,3.9.9,8.2,1,12.7,1l-2,3.9ZM6.7,41.2h3.3v-2.4h-3.3v2.4ZM6.7,45.4h3.3v-2.6h-3.3v2.6ZM6.7,47.1v2.8h3.3v-2.8h-3.3ZM19.3,61.3c2.8-1.6,4.8-3.6,6.2-5.6h-14.1c2.3,2.7,5,4.5,7.9,5.6h0ZM22.7,41.2h3.3v-2.5h-3.3v2.5ZM22.7,45.4h3.3v-2.6h-3.3v2.6ZM22.7,47.1v2.6h3.3v-2.6h-3.3ZM54.8,60.7c-3,1.8-10.5,4.2-14.3,5.1l-1.1-3.9c1.6,0,3.7-.3,5.9-.6v-11.3h-5.6v-1.7h5.6v-4.3h-3.6v-.3c-.6.5-1.2,1-1.9,1.5l-.9-1.1c2.8-2.7,6-8,7.2-12.4l3.6,1.2c-.2.5-.5,1-.7,1.5,2.1,1.2,4.5,3.1,6.2,4.8l-2.5,2.3c-1.4-2.1-3-4.2-4.4-5.8-1.4,2.4-3.2,4.7-5.2,6.6h9.6v1.7h-4.2v4.3h5.5v1.7h-5.5v10.8c2.2-.4,4.3-.8,5.9-1.3l.4,1.3h0ZM44.3,59.3l-3,.6c0-2.4-.4-5.4-.8-7.9l1.3-.2c1.1,2.3,2.1,5.1,2.5,7.5ZM49.4,58.7c.7-2.5,1.2-5.4,1.4-7.5l3.2.9c-.7,2.2-1.9,4.8-3.4,7l-1.2-.4h0ZM73.8,63.5l-2.9,3.6c-5.5-3.7-8.3-9.8-9.3-18.3h-2.5v13.7c1.7-.4,3.4-.9,5-1.4l.6,1.2c-3.6,2.2-8,3.9-11.8,4.9l-1.2-3.5c1.4-.2,2.8-.3,4.1-.5v-29h15v14.7h-7.7c.6,3,1.4,5.4,2.5,7.2,1.8-1.7,3-3.4,4.3-5.6l3.3,2.3c-1.9,1.7-4.5,3.4-6.8,4.6,1.9,2.8,4.5,4.6,7.4,6.2ZM59.1,40.6h8.3v-4.7h-8.3v4.7ZM59.1,47.1h8.3v-4.8h-8.3v4.8ZM82.6,56.3c0,4.5-.6,8.5-1.5,11l-3.5-1.5c1.6-2.5,3-5.5,3.7-9.6l1.4.2h0ZM80.7,51.9c2-2.4,3.6-4.9,5.1-7.9-2.2.8-4.8,1.5-7,1.9l-.7-3c.8,0,1.6,0,2.5,0,1.5-3.1,3-7.1,4.1-11.2l3.4,1.2c-1.6,3.6-3.6,7-6,9.9,1.6-.2,3.2-.3,4.5-.5.7-1.3,1.3-2.7,2.1-4.2l3.1,1.6c-3.4,5.8-5.8,9.1-9.1,12.1,2.1-.3,4.1-.7,6.1-1-.3-1-.6-1.8-1-2.8l1.1-.6c1.6,2,2.7,3.8,3.8,6.4l-2.6,1.2c-.4-1-.6-2-.9-2.9-3.4,1.5-6.8,2.6-10.5,3.4l-.9-3.2c.9,0,1.9-.1,2.8-.2ZM87.9,64.1l-3.3.5c0-3.2-.2-5.9-.5-8.7l1.3-.2c1,2.6,1.9,5.6,2.4,8.5ZM113,64.4l-2.1,3.6c-2.4-1.3-5.5-3.2-8.1-6.3-3,2.8-6.8,4.7-11.4,6.2l-.6-1.3c4.4-2,7.7-4.4,10.3-7.3-2.1-3.1-3.6-7.2-4.2-12.6-.8,8.5-2.9,15.7-7.9,19.8l-1-.9c1.1-1.3,2.1-2.7,2.8-4.4l-1,.5c-.7-2.5-1.5-4.6-2.4-6.9l1.2-.5c1.2,1.5,2.2,3,3.1,4.6,2-5.7,2.3-15.4,2.2-23h-3.4v-1.7h16.7c-.7,3.9-1.2,7.1-2.1,10.8h1.8l.9-.7,3.5,1.4c-1.5,5.9-3.6,10.3-6.3,13.7,2.3,2.1,5,3.6,8,5h0ZM97.2,35.9c0,2.5,0,6.6-.2,9.1h4.7c.8-3.7,1.2-6.7,1.5-9.1h-6ZM102.8,57.1c2-2.9,3.4-6.4,4.2-10.3h-8.8c1,4.5,2.6,7.8,4.6,10.3ZM119.5,55.7l1.4.2c0,4.5-.4,8.7-1.1,11.2l-3.6-1.5c1.4-2.3,2.6-5.8,3.3-9.9ZM119.7,51c1.7-2,3.4-4.4,4.9-7-2.2.6-4.5,1.1-6.3,1.3l-.7-3.3c.7,0,1.3.1,1.9.1,1.4-2.8,2.6-6.2,3.5-10.5l3.6,1.3c-1.4,3.4-3.6,6.9-5.5,9.2,1.5,0,2.9,0,4.4-.1.8-1.6,1.6-3.2,2.2-4.9l3.3,1.5c-1.7,3.5-5.5,8.8-9,12.4,1.8-.2,3.6-.3,5.4-.6-.4-1-.8-2-1.2-2.8l1.1-.8c1.7,1.7,3.4,4.4,4.4,6.5l-2.9,1.5-1-3c-3.6,1.3-8,2.5-10.3,2.8l-.9-3.5c.9,0,1.9,0,2.8,0ZM124,55.5c1,2.9,2,7.1,2.3,9.4l-3.4.4c.2-2.4,0-6.5-.2-9.6l1.4-.2ZM126.8,54.4c1.6,2.3,3.3,5.7,4.1,7.9l-3.2,1.3c-.4-2.5-1.3-6.2-2.1-8.7l1.2-.5ZM151.7,60.3l-2.5,3.1c-2-2.2-4.6-5.1-7.2-7.3.1,6.4,1.4,15.4-9.8,9.3l.4-1.3c5.5.9,6,.6,6-1.5v-5.8c-1.9,1.9-4.2,3.8-6.9,5.5l-1.7-3.3c2.9-1,5.6-2.4,8.6-4.2v-7.6h-9v-1.7h11.9l.8-3h-6.9c-.2.6-.4,1.3-.6,1.9l-2.9-.5c1.3-3.8,2.2-7.9,3-12l3.2.5c-.2.7-.3,1.4-.5,2.1h6l.7-.5,3.1,1.1c-.7,3.3-1.6,6.9-2.6,10.4h6v1.7h-8.6v7.1l.7.3c1.7-1.9,3.1-4.2,4.1-6.3l3,2c-1.4,1.7-3.8,3.6-5.8,5,2.8,1.5,5.7,3.4,7.6,4.9h0ZM135.4,55.5c-1.5-2.1-3.2-4.1-4.5-5.2l.8-1.1c1.7.8,4.4,2.5,6,4l-2.3,2.4ZM142.6,40.8c.4-1.8.8-3.4,1-4.6h-6.5c-.4,1.6-.8,3.1-1.2,4.6h6.8ZM190.5,62.5l-1.2,4.1c-8.4.7-22.1.8-27.1-4.8-1.7,2.5-3.8,4.5-6.2,6.1l-.9-1.1c1.8-1.5,3.8-3.7,5.4-7-1.4-2.1-2.4-4.9-3.1-8.4l1.4-.4c.7,2.6,1.6,4.8,2.7,6.5,1-2.7,1.9-6.1,2.3-10.2h-3.4c-.6,1.1-1.2,2.1-1.7,2.6l-2.7-1.2c1.8-2.9,4.5-8.1,6.2-12.4h-6.4v-1.6h10.7c-1,2.8-3.2,7.4-5.1,10.9h2.2l.9-.6,3,1.1c-.5,5.1-1.8,9.8-4,13.7,5.5,5.4,19.1,3.7,27,2.9h0ZM175.5,41.8h-8.5v-1.6h8.5v-3.1h-6.7v-1.7h6.7v-3.4h3.3v3.4h7.6v4.9h3.3v1.6h-3.3v5.1h-7.6v3h7.9v1.7h-7.9v3.6h9.7v1.7h-9.7v5.1h-3.3v-5.1h-8.5v-1.7h8.5v-3.6h-7.1v-1.7h7.1v-3h-6.9v-1.7h6.9v-3.4h0ZM178.8,40.2h4.5v-3.1h-4.5v3.1ZM178.8,45.2h4.5v-3.4h-4.5v3.4ZM194.6,42.8l-.8-1.1c3.1-2.8,5-5.9,6.4-10.2l3.7,1c-.4.9-1,1.9-1.7,3h9.9v1.7h-6.6c.9.9,1.9,2.1,2.9,3.5l-2.9,1c-.5-1.5-1-3-1.8-4.5h-2.8c-1.7,2-3.8,4-6.2,5.6h0ZM229.2,62.5l-2.1,3.8c-3.9-.6-10.5-3.9-14-9v10.3h-3.3v-10.2c-2.7,4-9.6,7.4-15.5,8.8l-.5-1.2c5.7-2.1,9.7-4.4,12.7-8.1h-11.6v-1.7h14.8v-3.3c-.9.6-2,1.1-3.3,1.6l-.7-1.2c1.7-1,2.8-2,3.5-3-3,1.3-9.1,3-13.3,3.6l-.9-3.2c2.2-.1,4.1-.3,5.9-.5v-5.1h-5.4v-1.7h14v1.7h-5.4v4.7c1.6-.3,3.3-.6,5.1-1l.2.8c.8-1.6.8-3.6.8-6.6h12.4v5.7c0,1.4.5,1.6,1.8,1.6s1.7-.3,1.7-4.2h1.4c1.7,6,.7,7-3.1,7-3.9,0-5-.8-5-4v-4.4h-5.9c0,3.9-1.2,6.2-3.6,7.9h3v3.5h14.9v1.7h-13.5c4.3,3.7,9.2,4.8,14.6,5.7h0ZM209.9,40.5c2.4-2.5,4.1-5.7,5.1-9.1l3.6,1.2c-.5,1-1.1,2-1.8,2.9h11.7v1.7h-7.5c1,.8,1.9,1.8,2.8,3l-2.8,1.2c-.6-1.4-1.1-2.7-2-4.2h-3.6c-1.6,1.9-3.4,3.4-4.7,4.3l-.9-1ZM214.4,44.9l1.2-.5c1.3,1.9,2.3,4.1,2.9,6.1l-2.8.7c-.2-1.8-.7-4.2-1.2-6.3ZM245.5,52.2c-3.7,0-3.7-5.5,0-5.5,3.6-.1,3.7,5.6,0,5.5ZM262.5,53.3l-.6-1.3c3.5-1.9,6.5-3.9,7.9-8.7h-7.1v-1.7h7.5c.2-1.1.4-2.5.4-3.9h-2.7c-1.1,1.5-2.3,2.8-3.4,3.6l-1-1c1.7-2.4,3.3-5.8,3.9-8.9l3.5,1c-.5,1.2-1.1,2.4-1.8,3.5h11v1.7h-5.8c0,1.4-.2,2.7-.4,3.9h7.1v1.7h-7.6c-.1.4-.2.8-.4,1.2,2.9.9,5.6,2.1,7.5,3.3l-2.1,3c-1.5-1.5-3.7-3.2-6.2-4.9-2,3.7-5.4,5.8-9.7,7.4h0ZM268.9,51.5h21.8v15.7h-3.4v-2.5h-15v2.6h-3.4v-15.9h0ZM272.3,57h15v-3.8h-15v3.8ZM272.3,63h15v-4.4h-15v4.4ZM294.5,35.3v14.6h-3.3v-2.6h-6.2v3h-3.3v-15h12.9ZM291.2,45.6v-8.5h-6.2v8.5h6.2ZM306.7,57l1.3.4c-.5,3.4-1.9,6.7-4,9.1l-2.9-2.6c2.4-1.7,4.6-3.6,5.6-6.8ZM327.7,52h-26.2v-1.7h26.2v-1.8h-22.4v-1.6h25.7v3.4h4.4v1.7h-4.4v3.6h-26v-1.6h22.6v-2h0ZM308.8,43.7h-6.5v-1.6h6.5v-2.1h-5.2v-1.6h5.2v-2h-6v-1.6h6v-2.7h3.3v2.7h5.1v1.6h-5.1v2h4.7v1.6h-4.7v2.1h5.1v1.6h-5.1v2.3h-3.3v-2.3ZM326.9,58.5c3.5,10-5.1,7.7-10.8,7.9-7.6.3-5.6-4.8-5.8-9.6h3.4c.4,2.3-1.5,6.8,2.7,6.6,4.9-.5,9.5,2.4,9.2-4.9h1.4ZM315.6,57.8l.5-1.3c2.1.4,4.5,1.1,7.2,2.5l-1.5,2.8c-1.9-1.4-4.2-2.9-6.2-4.1ZM324.3,43.7h-5.7v-1.6h5.7v-2.1h-4.9v-1.6h4.9v-2h-5.7v-1.6h5.7v-2.7h3.3v2.7h6.3v1.6h-6.3v2h5.7v1.6h-5.7v2.1h7.2v1.6h-7.2v2.3h-3.3v-2.3ZM335.8,63.3l-2.9,2.1c-1.6-2.9-2.9-5.1-4.6-7.7l1-.8c1.9,1.3,4.4,3.6,6.5,6.4h0ZM348.3,46.5v20.8h-3.3v-17.5c-1,2.8-2.7,6.1-4.7,8.9l-1.1-.8c1.9-3.6,4.3-9.7,5.4-15.9h-4.6v-1.7h5v-8.3h3.3v8.3h4.6v1.7h-4.6v2.4c1.9,2.1,4,4.7,5.2,7.2l-2.8,1.3c-.7-2.1-1.7-4.4-2.4-6.4h0ZM350.6,66.2l-.9-1.2c1.9-1.6,4.6-4.9,6.2-8.1l3.2,1.6c-2.5,3.4-5.9,6.1-8.5,7.6ZM364.8,55.9c.1,6.5,1.3,15.6-9.4,9.5l.3-1.4c4.8.9,5.7.7,5.7-1.2v-7h-9.3v-1.7h22.3v1.7h-9.5ZM359.2,35.9h-6.9v-1.7h21.7v1.7h-6.9v3.1h5.7v9h-19.2v-9h5.5v-3.1ZM354.4,51.7v-1.6h17.5v1.6h-17.5ZM359.2,40.6h-2.4v5.7h2.4v-5.7ZM362,39h2.4v-3.1h-2.4v3.1ZM362,46.3h2.4v-5.7h-2.4v5.7ZM374.9,63.8l-2.9,2.3c-1.2-2-3.8-5.8-5.8-8.4l.9-.9c2.8,2,6.2,5,7.8,7h0ZM367.1,46.3h2.6v-5.7h-2.6v5.7ZM413,60v1.7h-15.3v6h-3.6v-6h-15.2v-1.7h15.2v-2.5h-9.7v-10.3h23.1v10.3h-9.7v2.5h15.3,0ZM412.2,45h-32.7v-1.7h10.1c-1-1.8-1.9-3.1-3.1-4.9l.6-.5h-5.6v-1.7h14.1c-1.6-1.2-3.4-2.5-4.8-3.6l.6-1.3c1.9.5,5.3,1.6,7.5,2.8l-1.3,2.1h12.7v1.7h-8l2.3.9c-1.1,1.8-2.1,3.1-3.5,4.5h11.1v1.7ZM387.8,51.4h16.1v-2.5h-16.1v2.5ZM403.9,55.7v-2.7h-16.1v2.7h16.1ZM392.8,41.8l-1.9,1.5h8.1c.7-1.6,1.3-3.4,1.7-5.4h-12.4c1.7,1.1,3,2.3,4.5,3.8ZM591.3,101.8c0-1.1.4-2.4,1.3-3.3h.3c-.8,1-1,2.2-1,3.3,0,1.2.2,2.3,1,3.3h-.3c-.9-.9-1.3-2.1-1.3-3.3ZM596.1,98.7c-.1.5-.2,1.1-.5,1.6v4.7h-.5v-3.7c-.2.3-.4.6-.7.9l-.2-.2c.6-.9,1.1-2.4,1.2-3.6h.6ZM596.6,104.2h-.5v-4.6h.5v4.6ZM600.6,104.5l-.4.6c-.5-.3-1.3-1-1.6-2.1-.3,1.3-1.1,1.8-2.2,2.1v-.2c1-.4,1.5-1,1.7-1.9h-1.3v-.3h1.4c0-.3,0-.7,0-1.1h-.6c-.2.4-.5.7-.7.9l-.2-.2c.3-.4.7-1.2.8-1.8h.5c0,.4-.2.6-.3.8h2.3v.3h-1.3c0,.4,0,.8,0,1.1h1.7v.3h-1.5c.3.9,1.2,1.4,1.7,1.6ZM600.5,100.4h-3.6v-.3h2.2c0-.3,0-.6.1-.9h-2.1v-.3h2.1c0-.1.5,0,.5,0,0,.4-.1.8-.2,1.1h.9v.3ZM601.8,104.7c.3-.3.7-.6.9-.9v-1.6h-.9v-.3h1.4v1.9c.3.5.8.6,2,.6.9,0,2.2,0,3-.2l-.2.6c-.8,0-2,0-2.8,0-1.4,0-1.8-.3-2.2-.9-.3.5-.6.9-.9,1.2l-.4-.4ZM601.9,100.2v-.2c.5.2,1,.5,1.4.9l-.4.4c-.3-.3-.7-.8-1-1.1ZM602.2,98.8v-.2c.5.2,1,.5,1.4.8l-.4.4c-.3-.3-.7-.7-1-1.1ZM603.6,102.6h1.1v-.6h-.9v-.3h.9v-.6h.5v.6h1.1v-.6h.5v.6h1v.3h-1v.6h1.2v.3h-4.3v-.3ZM603.7,103.9c.6-.2,1-.5,1.4-.9l.4.3c-.5.4-1.1.6-1.8.8v-.2ZM603.8,100.3v-1.3h1.7v1.1h-1.2v.2c0,.3,0,.3.6.3s.5,0,.6-.2l.3.3c-.2.3-.4.3-.9.3-.8,0-1.1,0-1.1-.6ZM605.1,99.7v-.5h-.7v.5h.7ZM606.3,102.6v-.6h-1.1v.6h1.1ZM605.9,100.3v-1.3h1.7v1.1h-1.2v.2c0,.3,0,.3.6.3s.5,0,.7-.2l.3.3c-.2.3-.4.3-1,.3s-1,0-1-.6ZM606,103.2v-.2c.6.1,1.4.4,1.9.6l-.3.4c-.4-.3-1.1-.6-1.6-.9ZM607.1,99.7v-.5h-.8v.5h.8ZM609.8,105.1c.8-1,1-2.1,1-3.3,0-1.1-.2-2.2-1-3.3h.3c.8.9,1.3,2.2,1.3,3.3s-.4,2.4-1.3,3.3h-.3ZM473.7,101.8c0-1.1.4-2.4,1.3-3.3h.3c-.8,1-1,2.2-1,3.3,0,1.2.2,2.3,1,3.3h-.3c-.9-.9-1.3-2.1-1.3-3.3ZM478.4,98.7c-.1.5-.2,1.1-.5,1.6v4.7h-.5v-3.7c-.2.3-.4.6-.7.9l-.2-.2c.6-.9,1.1-2.4,1.2-3.6h.6ZM479,104.2h-.5v-4.6h.5v4.6ZM483,104.5l-.4.6c-.5-.3-1.3-1-1.6-2.1-.3,1.3-1.1,1.8-2.2,2.1v-.2c1-.4,1.5-1,1.7-1.9h-1.3v-.3h1.4c0-.3,0-.7,0-1.1h-.6c-.2.4-.5.7-.7.9l-.2-.2c.3-.4.7-1.2.8-1.8h.5c0,.4-.2.6-.3.8h2.3v.3h-1.3c0,.4,0,.8,0,1.1h1.7v.3h-1.5c.3.9,1.2,1.4,1.7,1.6ZM482.8,100.4h-3.6v-.3h2.2c0-.3,0-.6.1-.9h-2.1v-.3h2.1c0-.1.5,0,.5,0,0,.4-.1.8-.2,1.1h.9v.3ZM484.2,104.7c.3-.3.7-.6.9-.9v-1.6h-.9v-.3h1.4v1.9c.3.5.8.6,2,.6.9,0,2.2,0,3-.2l-.2.6c-.8,0-2,0-2.8,0-1.4,0-1.8-.3-2.2-.9-.3.5-.6.9-.9,1.2l-.4-.4ZM484.3,100.2v-.2c.5.2,1,.5,1.4.9l-.4.4c-.3-.3-.7-.8-1-1.1ZM484.5,98.8v-.2c.5.2,1,.5,1.4.8l-.4.4c-.3-.3-.7-.7-1-1.1ZM486,102.6h1.1v-.6h-.9v-.3h.9v-.6h.5v.6h1.1v-.6h.5v.6h1v.3h-1v.6h1.2v.3h-4.3v-.3ZM486,103.9c.6-.2,1-.5,1.4-.9l.4.3c-.5.4-1.1.6-1.8.8v-.2ZM486.2,100.3v-1.3h1.7v1.1h-1.2v.2c0,.3,0,.3.6.3s.5,0,.6-.2l.3.3c-.2.3-.4.3-.9.3-.8,0-1.1,0-1.1-.6ZM487.4,99.7v-.5h-.7v.5h.7ZM488.6,102.6v-.6h-1.1v.6h1.1ZM488.3,100.3v-1.3h1.7v1.1h-1.2v.2c0,.3,0,.3.6.3s.5,0,.7-.2l.3.3c-.2.3-.4.3-1,.3s-1,0-1-.6ZM488.3,103.2v-.2c.6.1,1.4.4,1.9.6l-.3.4c-.4-.3-1.1-.6-1.6-.9ZM489.5,99.7v-.5h-.8v.5h.8ZM492.2,105.1c.8-1,1-2.1,1-3.3,0-1.1-.2-2.2-1-3.3h.3c.8.9,1.3,2.2,1.3,3.3s-.4,2.4-1.3,3.3h-.3Z" fill="#fff"/>
</svg>