<?xml version="1.0" encoding="UTF-8"?>
<svg id="_圖層_1" data-name="圖層_1" xmlns="http://www.w3.org/2000/svg" version="1.1" xmlns:xlink="http://www.w3.org/1999/xlink" viewBox="0 0 917 278">
  <!-- Generator: Adobe Illustrator 29.3.1, SVG Export Plug-In . SVG Version: 2.1.0 Build 151)  -->
  <defs>
    <style>
      .st0, .st1 {
        stroke: #fff;
      }

      .st0, .st1, .st2, .st3 {
        fill: none;
        stroke-linecap: round;
        stroke-linejoin: round;
      }

      .st0, .st3 {
        stroke-width: 1.6px;
      }

      .st4 {
        fill: #fff;
      }

      .st5 {
        fill: #9d0c24;
      }

      .st1 {
        stroke-width: .4px;
      }

      .st2 {
        stroke-width: .7px;
      }

      .st2, .st3 {
        stroke: #ff0c24;
      }
    </style>
  </defs>
  <path class="st1" d="M214.9,51.5h-15.4M214.9,57.2h-15.4M214.9,60h-15.4M214.9,62.9h-15.4M214.9,65.7h-15.4M214.9,71.4h-15.4M214.9,65.7h17.4M214.9,51.5h17.4M214.9,57.2h17.4M214.9,62.9h17.4M214.9,60h17.4M214.9,71.4h17.4M232.4,54.4h-32.9M214.9,71.4v-35.3M199.5,68.6h32.9M340.1,79.8h-17.4M322.7,52.1h-15.4M322.7,82.9h-15.4M322.7,79.8h-15.4M322.7,76.7h-15.4M322.7,73.7h-15.4M322.7,70.6h-15.4M322.7,64.5h-15.4M322.7,61.4h-15.4M322.7,58.3h-15.4M322.7,55.2h-15.4M340.1,86h-17.4M340.1,82.9h-17.4M340.1,76.7h-17.4M340.1,73.7h-17.4M340.1,70.6h-17.4M340.1,64.5h-17.4M340.1,61.4h-17.4M340.1,58.3h-17.4M340.1,55.2h-17.4M322.7,86v-33.8M340.1,67.5h-32.9"/>
  <path class="st4" d="M72.3,162.3l7.9,20.3h-2.2c0,0-3.2-8.2-3.2-8.3h-4.5v-.8h4.2l-2.8-7.2-6.3,16.3h-.9l7.9-20.3ZM92.6,173.2c5.9-7.5-1.4-14.4-8-8.7l.7.9c2.3-3,7.5-2.9,7.2,1.8,0,5-4.8,12.1-8.8,15.4.1,0,11.9,0,12,0v-1.7h-9c2.4-2.5,4.4-5.1,5.9-7.7ZM174.3,205.5h.9s6.3-16.3,6.3-16.3l2.8,7.2h-4.2v.8h4.5c0,.1,3.2,8.2,3.2,8.3h2.2l-7.9-20.3-7.9,20.3ZM200.6,194.5c8.9-4.5-1.5-13.3-6.8-7l.8.8c5.4-6.9,11.4,5,3.5,5.9v.8h0c9.3,1,2.9,15.8-3.8,7.6l-.9.9c7,7.5,17.7-4.7,7.2-9ZM268,204.1h.9l6.3-16.3,2.8,7.2h-4.2v.8h4.5c0,.1,3.2,8.2,3.2,8.3h2.2l-7.9-20.3-7.9,20.3ZM293.7,191.4c-1.3,0-2.5.3-3.6.8l.6-6.2h7.8v-1.7h-8.6l-1,9.7c12.1-8.3,10.5,17,.2,7.2l-.9.8c8.7,9,17.9-9.7,5.3-10.7ZM262,69.6c0,.2-7.8,20.1-7.9,20.3h.9s6.3-16.3,6.3-16.3l2.8,7.2h-4.2v.8h4.5c0,.1,3.2,8.2,3.2,8.3h2.2l-7.9-20.3ZM284.9,80.8c3.3,3.8-.2,9.6-4.9,9.4-6.7.3-8.6-9.5-2-11.3-5.1-1.8-3.2-9.3,2.1-9,5.3-.3,7.2,7.2,2,9,1.2.4,2.1,1,2.9,1.9ZM276.9,80.9c-3.8,3.9,1.7,11.8,6,7,3.8-3.9-1.7-11.8-6-7ZM277.7,77.3c3.4,3.7,7.5-2.5,4.6-5.5-3.4-3.7-7.5,2.5-4.6,5.5ZM366,205.5h.9l6.3-16.3,2.8,7.2h-4.2v.8h4.5c0,.1,3.2,8.2,3.2,8.3h2.2l-7.9-20.3-7.9,20.3ZM397.9,194.4c-2.1-2.1-6.2-2.3-8,.2l.7.8c6.6-7,10,8.9,2.9,9.5-7.7-.8-4.8-24.6,3.9-17.1l.7-1c-9.6-6.5-14.3,11.3-8.8,16.9,5.6,6.6,14.2-4,8.7-9.3ZM366.1,89.7v.2c0,0,.9,0,.9,0l6.3-16.3,2.8,7.2h-4.2v.8h4.5c0,.1,3.2,8.2,3.2,8.3h2.2l-7.9-20.3-7.8,20.1ZM391,81.4c-1.4,3.1-2.3,5.9-2.8,8.5h2.5c.3-5.3,2.8-12,7.2-19.7h-11.5v1.7h9.5c-2.3,4-4,7.3-5,9.6ZM63.1,91.1h.9l6.3-16.3,2.8,7.2h-4.2v.8h4.5c0,.1,3.2,8.2,3.2,8.3h2.2l-7.9-20.3-7.9,20.3ZM88.4,71.3v.8h1.5v18.9h2.2v-19.7h-3.6ZM912.5,142.1h0c0-13.4-10.9-24.3-24.3-24.3h-371.2c-13.4,0-24.3,10.9-24.3,24.3h0c0,13.4,10.9,24.3,24.3,24.3h371.2c13.4,0,24.3-10.9,24.3-24.3Z"/>
  <path class="st5" d="M535,142c0,9.1-7.4,16.5-16.5,16.5s-16.5-7.4-16.5-16.5,7.4-16.5,16.5-16.5,16.5,7.4,16.5,16.5ZM563.1,141.4l-.6-1.1c-1,.6-2.1,1.1-3.4,1.6v-5.7h3.8v-1.5h-3.8v-8.1h-2.9v8.1h-2.4c.4-1.9.7-3.9.9-5.7l-2.9-.4c-.2,5.5-.7,9.4-1.7,13l1.1.5c1-1.7,1.8-3.8,2.3-5.9h2.8v6.8c-2.1.8-4.2,1.5-6.4,2.1l1.3,3.2c1.8-.8,3.5-1.6,5.1-2.5v11.7h2.9v-13.3c1.6-1,3-2,3.9-2.9ZM571.7,137.8v-4.8h6.5v-1.5h-6.5v-4.5h-3v4.5h-6.4v1.5h6.4v4.8h-7.7v1.5h18.4v-1.5h-7.7ZM575.3,140h-3v3.7h-11.2v1.5h11.2v8.2c0,1.7-.4,2-5,1.3l-.3,1.2c5.7,2.7,8.3,1.6,8.3-1.4v-9.3h4v-1.5h-4v-3.7ZM569.7,151c-1.4-1.9-3.5-3.8-5.2-5l-.9.8c1.2,1.8,2.7,4.2,3.6,6l2.5-1.8ZM591.5,139.1h7.1v-10.3h-13.7v10.3h3.5c-.3,9.7-1.4,13.6-5.6,17.7l.8,1c5-3.2,7-7.5,7.6-14.1h4.7c-.2,4.2-.4,6.8-.7,9-.3,2.2-.8,2.7-5.2,1.6l-.5,1.2c3.9,2.8,7.8,2.7,8.5-1.1.5-2.5.8-6.9,1-12.1h-7.7c0-1,.1-2,.2-3.1ZM587.7,130.3h8v7.3h-8v-7.3ZM607.8,127v26.5c0,1.9-1,2-6.1,1l-.4,1.2c5.7,3.3,9.5,2.4,9.5-1.8v-26.9h-3ZM604.3,130.5h-2.8v19.1h2.8v-19.1ZM628.2,153.1l2.3-2.3c-1.7-1.7-4-3.4-6.3-4.7.2-1,.3-2.1.4-3.2h4.7v-1.5h-4.7c0-.5,0-1,0-1.5v-4.6h4.1v-1.5h-4.1v-7h-2.9v7h-4.4v1.5h4.4v6.1h-5v1.5h5c-.2,5.2-1.2,9.1-5.8,13.8l.8.9c4.1-3.3,6.2-6.4,7.1-9.9,1.5,1.6,3.1,3.5,4.3,5.4ZM645,149.1h-1.2c0,4.7-.2,5.1-1.9,5.1s-1.8-.3-1.8-1.4v-6.7h3.5v-18h-13.6v18h3.4c-.4,4.9-1.9,8.3-7.4,10.6l.5,1.1c6.1-1.7,9.1-4.9,9.9-11.7h1.1v6.8c0,2.6,0,4,4.4,4s4.7-1.7,3.3-7.7ZM632.7,129.6h8.1v3.8h-8.1v-3.8ZM632.7,135h8.1v3.9h-8.1v-3.9ZM632.7,140.3h8.1v4.3h-8.1v-4.3ZM649.5,153.9l.5,3.1c6-.5,13.6-1.6,18.3-2.7l-.2-1.2c-6.1.5-13.4.9-18.7.8ZM666,129h-5.9v-2.4h-2.9v2.4h-5.6v1.4h5.6v1.8h-7.7v1.5h7.7v1.8h-5.7v1.4h5.7v1.7h-6.3v1.4h6.3v1.6h-7.7v1.5h18.6v-1.5h-8v-1.6h6.8v-1.4h-6.8v-1.7h5.9v-3.2h3v-1.5h-3v-3.2ZM651.2,144.6v7.3h15v-7.3h-15ZM657.4,147.6h-3.4v-1.6h3.4v1.6ZM657.4,150.6h-3.4v-1.7h3.4v1.7ZM663.4,147.6h-3.4v-1.6h3.4v1.6ZM663.4,150.6h-3.4v-1.7h3.4v1.7ZM660.1,130.4h3.1v1.8h-3.1v-1.8ZM663.2,135.5h-3.1v-1.8h3.1v1.8ZM674.5,127v26.4c0,1.7-.4,2-5.2,1.4l-.3,1.2c5.7,2.3,8.4,2,8.4-2v-27h-2.9ZM672.2,129.8h-2.6v20h2.6v-20ZM689.7,139.2c1.4,0,2.6-1.1,2.6-2.6s-1.2-2.6-2.6-2.6-2.6,1.2-2.6,2.6,1.2,2.6,2.6,2.6ZM689.7,151.2c1.4,0,2.6-1.2,2.6-2.6s-1.2-2.6-2.6-2.6-2.6,1.1-2.6,2.6,1.2,2.6,2.6,2.6ZM703.2,128.6v2h13.4c-3.3,5.8-5.6,10.4-7.1,13.7-1.9,4.3-3.2,8.2-3.8,11.6h3.1c.5-7.3,3.9-16.4,10-27.3h-15.6ZM731.5,135.3v-3.7c6.4,0,13.9-.7,18.8-2l-3.3-2.7c-3.4,1.8-9.3,3.1-15.5,3.6l-3.1-.8v10.6c0,9.5-1.4,13.3-3.8,16.8l.9.8c3.3-3.2,5.2-7,5.8-13.7h16.2v1.9h3.1v-10.7h-19ZM731.5,142.6c0-1,0-2,0-3.2v-2.7h16v5.8h-16.1ZM771.4,143.6c-1.2-1.4-2.7-2.3-4.5-2.8,1.5-.6,2.7-1.5,3.7-2.7,1-1.2,1.5-2.5,1.5-3.7,0-1.8-.8-3.3-2.3-4.4-1.5-1.1-3.3-1.7-5.5-1.7s-4.7.9-6.3,2.8l.8.8c1.4-1.8,3.2-2.7,5.3-2.7s2.6.5,3.6,1.5c1,1,1.5,2.2,1.5,3.8s-.5,3.1-1.4,4.3c-1,1.2-2.3,1.8-4,1.9v1c-.1,0,0,0,.2,0,1.9.1,3.4.8,4.6,1.9,1.2,1.3,1.8,3,1.8,5.2s-.5,3.5-1.5,4.8c-1.1,1.4-2.5,2.2-4.3,2.2s-4.4-1.1-6.3-3.2l-1,1c.8.9,1.9,1.6,3.3,2.2,1.4.6,2.7.8,4.1.8,2.3,0,4.3-.7,5.9-2.2,1.7-1.5,2.5-3.4,2.5-5.7s-.6-3.5-1.8-4.9ZM793.4,135.4l-3.2-1.2c-.5,2.6-1.1,5.3-1.9,7.2h-3.9l1.8-.8c-.8-1.7-2.5-4.4-4-6.1l-1.1.6c.8,1.9,1.5,4.1,2.2,6.3h-4.6v1.5h16.6v-1.5h-5.5c1.3-1.8,2.6-4,3.5-6ZM794.6,132h-6.9l1.8-1.1c-1.3-1.8-3.1-3.5-4.6-4.6l-.9.8c.9,1.5,1.7,3.2,2.5,4.9h-7v1.5h15v-1.5ZM781.1,157.7h2.9v-2.6h6.5v2.4h2.9v-11.5h-12.4v11.8ZM784,147.4h6.5v6.2h-6.5v-6.2ZM807.3,147.2c-.6-2.8-2.2-5-4.6-8,1.5-2.9,2.6-5.2,4.1-9.6l-2.9-1.3-.8.6h-4l-2.9-.7v29.5h2.9v-27.2h4.2c-.5,3.1-1.2,5.8-2,8.9,1.8,2.6,2.8,5.3,3.2,7.5.5,3.1,0,4.1-3.9,3.2l-.3,1.2c4,2.5,8.5,1.8,7.1-4ZM816,133.4h9.2v7.9h2.9v-7.9h9.3v5.3h2.9v-6.8h-12.2v-2.3h10.3v-1.5h-23.4v1.5h10.1v2.3h-12v6.8h2.8v-5.3ZM841,148.7h-1.2c0,4.7-.6,5.4-2.3,5.5-2.4.1-4.6.1-7,0-2.1,0-2.4-.5-2.4-1.6v-1.5h6.4v1.5h2.9v-10.5h-21.4v11.1h2.8v-2.2h6.4v1.4c0,3,.6,4,5,4.1,2.6,0,5,0,7.6,0,4.6-.1,4.5-2.9,3.3-8ZM824.1,135.3h-6.8v1.4h6.8v-1.4ZM817.3,140.2h6.8v-1.4h-6.8v1.4ZM818.7,143.8h6.4v2.2h-6.4v-2.2ZM818.7,149.8v-2.3h6.4v2.3h-6.4ZM834.5,146h-6.4v-2.2h6.4v2.2ZM834.5,149.8h-6.4v-2.3h6.4v2.3ZM829.3,135.3v1.4h6.9v-1.4h-6.9ZM829.3,140.2h7v-1.4h-7v1.4ZM856.2,142.7c-1.1-2-2.2-3.5-3.8-5.3v-2h4v-1.5h-4v-6.9h-2.8v6.9h-4v1.5h3.8c-.9,5.4-2.6,10-4.5,13.3l.9.8c1.4-1.6,2.9-4.1,3.8-6.5v14.6h2.8v-18c.5,1.4,1,2.8,1.5,4.3l2.3-1.3ZM874,143.8h-7.7v-4.1h6.7v-7h-5c1.1-1.4,2.6-3.6,3.4-5l-3-1.1c-.3,1.6-1.2,4.4-1.9,6.1h-4.1l1.8-1.1c-1.3-1.8-3.1-3.8-4.4-4.9l-.9.7c.8,1.3,1.8,3.5,2.6,5.3h-4.4v1.5h6.4v4h-3.6l-2.6-.9c-.3,3.3-.8,6.5-1.3,9.2l2.7.4c0-.6.2-1.1.3-1.7h3.9c-1.9,4-5.1,7.8-8.8,10.4l.7,1c3.3-1.7,6.5-4.6,8.7-7.7v8.5h2.9v-12.2h4.9c0,1.3-.2,3.9-.3,5-.2,1.1-1,1.3-4,.5l-.4,1.1c3.5,2.6,6.6,2.1,7.1-.7.3-1.8.5-5.4.5-7.5ZM859.7,139.7h3.7v4.1h-4.2c.2-1.4.4-2.8.5-4.1ZM866.3,134.2h4v4h-4v-4Z"/>
  <path class="st0" d="M403.1,161.1v-21.4M232.4,38.5h47.1v-16.5M340.1,27.5h3.2M307.3,126.1V22M114.8,59.3h26.4M279.4,22h27.8M232.4,126.1h74.9M39.1,125.5v2.4h75.7v11.8h45v-20.4M114.8,59.3V19.6h-30.8v5.3h-45v56M39.1,80.9H4.5v89.3h34.6M296.4,234.5v34.5h84.5v-34.5M143.2,269h37.1v-34.5M324.5,139.7v19.6h12.4M381,234.5h56.6v-73.4h-34.5M340.1,118.5h-15.6v21.3h84.5M409,116h41.6v-29.6h-7.7v-43.8h-60M340.1,27.5v90.9M343.4,8.1h39.6M336.9,269v-109.7h-12.4v-4.7h-34.4v-1.2h-52.4v80.9M181.3,234.5h115.1M237.7,219.7v-66.3h-49.4v1.2h-28.4v4.7h-16.6v109.7M180.3,234.5h24.2M114.8,127.9H39.1M39.1,170.2v64.3h45v3.5h30.8v-36.7M143.2,182.4v-23.1h16.6v-19.6h-45v-11.8M382.9,42.6V8.1M343.4,27.5V8.1M232.4,36.1v90M114.8,201.3h28.4M39.1,125.5H4.5M199.5,27.8h-26.6v8.3M172.9,119.4h26.6M199.5,36.1h32.9M232.4,86.8h-16.8v8h-16v27.8h32.9M199.5,81.5V27.8M232.4,86.8h-16.8v8h-16v9.5h8.3v5.3h24.5-24.5v13.1h24.5M340.1,98.3l-15.6,3.2v17M324.5,124.9h-17.2M324.5,109h15.6M409,116v23.7M307.3,36.7h32.9M514.7,147.5l8.7-5.3-8.7-5.3"/>
  <path class="st3" d="M141.2,90.3h31.7M172.9,119.4V36.1h-31.7v83.2h31.7ZM141.2,61.6h31.7"/>
  <path class="st2" d="M172.9,36.1l-31.7,25.5,31.7,28.7-31.7,29M172.9,119.4l-31.7-29,31.7-28.7-31.7-25.5"/>
</svg>