<svg width="563" height="75" viewBox="0 0 563 75" fill="none" xmlns="http://www.w3.org/2000/svg">
<path d="M0.658741 14.4V10.8L9.13874 14.4H47.7787V16.72H8.49874V71.68C8.49874 72 8.17874 72.3733 7.53874 72.8C6.95208 73.28 6.15207 73.68 5.13874 74C4.17874 74.3733 3.11207 74.56 1.93874 74.56H0.658741V14.4ZM43.2987 14.4H42.4987L46.4987 9.84L54.8187 16.48C54.5521 16.8 54.0987 17.12 53.4587 17.44C52.8721 17.76 52.1521 18.0267 51.2987 18.24V71.76C51.2987 71.9733 50.9254 72.2933 50.1787 72.72C49.4854 73.1467 48.6054 73.52 47.5387 73.84C46.5254 74.2133 45.5387 74.4 44.5787 74.4H43.2987V14.4ZM4.25874 31.36H47.2987V33.6H4.25874V31.36ZM4.25874 48.72H47.2987V50.96H4.25874V48.72ZM4.25874 66.32H47.2987V68.64H4.25874V66.32ZM20.6587 0.479997L32.8187 2.47999C32.7121 2.95999 32.4187 3.38666 31.9387 3.76C31.4587 4.08 30.7654 4.26666 29.8587 4.31999C28.6321 6.08 27.0854 8.05333 25.2187 10.24C23.3521 12.3733 21.4321 14.2933 19.4587 16H17.7787C18.2054 14.5067 18.6054 12.8533 18.9787 11.04C19.3521 9.22666 19.6721 7.38666 19.9387 5.52C20.2587 3.65333 20.4987 1.97333 20.6587 0.479997ZM90.3387 18.96H128.659L133.299 13.04C133.299 13.04 133.565 13.28 134.099 13.76C134.685 14.1867 135.405 14.7733 136.259 15.52C137.165 16.2133 138.099 16.96 139.059 17.76C140.019 18.56 140.899 19.3067 141.699 20C141.485 20.8533 140.765 21.28 139.539 21.28H90.8987L90.3387 18.96ZM92.3387 41.84H127.939L132.259 36.24C132.259 36.24 132.525 36.4533 133.059 36.88C133.645 37.3067 134.339 37.8667 135.139 38.56C135.992 39.2 136.872 39.92 137.779 40.72C138.685 41.4667 139.512 42.1867 140.259 42.88C140.045 43.68 139.325 44.08 138.099 44.08H92.9787L92.3387 41.84ZM88.4187 68.88H130.019L134.899 62.72C134.899 62.72 135.192 62.96 135.779 63.44C136.365 63.8667 137.112 64.4533 138.019 65.2C138.979 65.9467 139.939 66.7467 140.899 67.6C141.912 68.4 142.845 69.1733 143.699 69.92C143.485 70.7733 142.739 71.2 141.459 71.2H89.0587L88.4187 68.88ZM104.099 1.12C107.992 1.70666 111.112 2.56 113.459 3.68C115.859 4.8 117.672 6.05333 118.899 7.44C120.125 8.77333 120.845 10.1067 121.059 11.44C121.325 12.7733 121.219 13.8933 120.739 14.8C120.259 15.7067 119.485 16.2933 118.419 16.56C117.405 16.8267 116.205 16.6133 114.819 15.92C114.232 14.2667 113.299 12.5867 112.019 10.88C110.739 9.12 109.325 7.44 107.779 5.84C106.285 4.24 104.819 2.88 103.379 1.75999L104.099 1.12ZM110.339 19.52H118.499V70.24H110.339V19.52ZM78.0987 25.76L79.8587 23.52L88.2587 26.64C88.0987 26.96 87.8321 27.2533 87.4587 27.52C87.0854 27.7867 86.5254 27.9733 85.7787 28.08V72.4C85.7254 72.6133 85.3787 72.9067 84.7387 73.28C84.1521 73.6533 83.3787 73.9733 82.4187 74.24C81.5121 74.56 80.5521 74.72 79.5387 74.72H78.0987V25.76ZM84.8987 0.399998L95.8587 3.76C95.6454 4.29333 95.2721 4.72 94.7387 5.04C94.2587 5.36 93.5654 5.49333 92.6587 5.43999C90.7387 10.6133 88.5254 15.4667 86.0187 20C83.5121 24.5333 80.7654 28.6667 77.7787 32.4C74.7921 36.1333 71.6187 39.4133 68.2587 42.24L67.2187 41.52C69.5654 38.2133 71.8321 34.3733 74.0187 30C76.2587 25.5733 78.3121 20.8267 80.1787 15.76C82.0987 10.6933 83.6721 5.57333 84.8987 0.399998ZM209.459 37.52C209.459 37.52 209.752 37.76 210.339 38.24C210.979 38.72 211.779 39.3333 212.739 40.08C213.699 40.8267 214.685 41.6267 215.699 42.48C216.712 43.3333 217.645 44.16 218.499 44.96C218.445 45.3867 218.205 45.7067 217.779 45.92C217.405 46.1333 216.925 46.24 216.339 46.24H150.979L150.259 43.92H204.499L209.459 37.52ZM185.379 26.88C185.379 27.36 185.379 27.8667 185.379 28.4C185.379 28.88 185.379 29.3333 185.379 29.76V62.96C185.379 63.8667 185.645 64.5067 186.179 64.88C186.765 65.2 188.045 65.36 190.019 65.36H201.139C203.379 65.36 205.352 65.3333 207.059 65.28C208.765 65.2267 210.019 65.1733 210.819 65.12C211.512 65.0667 212.019 64.96 212.339 64.8C212.659 64.5867 212.952 64.24 213.219 63.76C213.699 63.0133 214.232 61.6 214.819 59.52C215.459 57.44 216.152 54.9333 216.899 52H217.859L218.099 64.32C219.379 64.6933 220.232 65.1467 220.659 65.68C221.139 66.16 221.379 66.8 221.379 67.6C221.379 68.4533 221.085 69.2 220.499 69.84C219.965 70.48 218.952 70.9867 217.459 71.36C215.965 71.7333 213.859 72 211.139 72.16C208.419 72.32 204.899 72.4 200.579 72.4H189.139C186.205 72.4 183.912 72.1867 182.259 71.76C180.605 71.3867 179.432 70.64 178.739 69.52C178.099 68.4 177.779 66.8 177.779 64.72V26.88H185.379ZM207.219 25.52C206.845 25.8933 206.259 26.1067 205.459 26.16C204.659 26.16 203.699 25.92 202.579 25.44C198.632 26.4 194.045 27.3067 188.819 28.16C183.645 29.0133 178.205 29.7333 172.499 30.32C166.792 30.8533 161.192 31.2267 155.699 31.44L155.459 30.16C159.352 29.5733 163.352 28.8267 167.459 27.92C171.619 27.0133 175.699 26.0267 179.699 24.96C183.699 23.84 187.405 22.72 190.819 21.6C194.232 20.48 197.139 19.3867 199.539 18.32L207.219 25.52ZM178.499 0.239995C181.752 0.666663 184.259 1.38666 186.019 2.4C187.832 3.36 189.059 4.45333 189.699 5.68C190.392 6.90666 190.605 8.08 190.339 9.2C190.125 10.2667 189.592 11.1733 188.739 11.92C187.939 12.6133 186.925 12.9867 185.699 13.04C184.525 13.04 183.299 12.5067 182.019 11.44C182.072 9.52 181.699 7.57333 180.899 5.6C180.099 3.57333 179.059 1.94667 177.779 0.719998L178.499 0.239995ZM211.539 12L215.939 7.6L223.539 14.96C223.272 15.28 222.899 15.4933 222.419 15.6C221.939 15.7067 221.299 15.7867 220.499 15.84C219.645 16.8533 218.605 18 217.379 19.28C216.205 20.5067 214.952 21.7067 213.619 22.88C212.285 24 211.032 25.0133 209.859 25.92L208.979 25.36C209.405 24.08 209.832 22.64 210.259 21.04C210.739 19.3867 211.165 17.76 211.539 16.16C211.965 14.56 212.259 13.1733 212.419 12H211.539ZM157.939 7.6C159.005 10.5867 159.485 13.28 159.379 15.68C159.325 18.0267 158.899 20 158.099 21.6C157.352 23.1467 156.392 24.32 155.219 25.12C154.472 25.6533 153.619 25.9733 152.659 26.08C151.752 26.1867 150.872 26.0533 150.019 25.68C149.219 25.2533 148.659 24.6133 148.339 23.76C147.859 22.5867 147.912 21.52 148.499 20.56C149.139 19.5467 149.992 18.7467 151.059 18.16C152.072 17.6267 153.005 16.8267 153.859 15.76C154.765 14.6933 155.485 13.4667 156.019 12.08C156.552 10.64 156.765 9.17333 156.659 7.68L157.939 7.6ZM213.939 12V14.32H156.899V12H213.939ZM266.573 13.04H305.213V15.36H266.573V13.04ZM266.573 21.28H305.213V23.6H266.573V21.28ZM301.213 5.2H300.413L304.093 1.12L312.173 7.2C311.906 7.46666 311.48 7.76 310.893 8.08C310.306 8.4 309.613 8.64 308.813 8.8V24.32C308.813 24.48 308.44 24.72 307.693 25.04C307 25.36 306.146 25.6533 305.133 25.92C304.173 26.1333 303.293 26.24 302.493 26.24H301.213V5.2ZM262.253 5.2V1.92L270.333 5.2H305.533V7.44H269.773V24.96C269.773 25.1733 269.453 25.4667 268.813 25.84C268.173 26.2133 267.346 26.56 266.333 26.88C265.373 27.1467 264.386 27.28 263.373 27.28H262.253V5.2ZM265.053 44.72H306.493V47.04H265.053V44.72ZM265.053 53.2H306.493V55.52H265.053V53.2ZM302.093 36.32H301.293L305.053 32.08L313.293 38.32C313.08 38.6933 312.653 39.04 312.013 39.36C311.373 39.68 310.653 39.92 309.853 40.08V55.84C309.8 56 309.4 56.24 308.653 56.56C307.906 56.88 307.026 57.1733 306.013 57.44C305.053 57.6533 304.173 57.76 303.373 57.76H302.093V36.32ZM261.373 36.32V32.96L269.533 36.32H306.413V38.64H269.053V57.12C269.053 57.3333 268.706 57.6533 268.013 58.08C267.373 58.4533 266.546 58.8 265.533 59.12C264.573 59.3867 263.56 59.52 262.493 59.52H261.373V36.32ZM249.693 28.8H309.613L313.933 23.44C313.933 23.44 314.173 23.6533 314.653 24.08C315.186 24.4533 315.853 24.96 316.653 25.6C317.506 26.24 318.386 26.9333 319.293 27.68C320.2 28.4267 321.026 29.1467 321.773 29.84C321.56 30.6933 320.84 31.12 319.613 31.12H250.413L249.693 28.8ZM249.293 70.72H309.613L314.173 64.88C314.173 64.88 314.44 65.0933 314.973 65.52C315.56 65.9467 316.28 66.5067 317.133 67.2C318.04 67.8933 318.946 68.64 319.853 69.44C320.813 70.24 321.693 70.9867 322.493 71.68C322.333 72.5333 321.613 72.96 320.333 72.96H250.013L249.293 70.72ZM255.373 61.68H304.893L309.213 56.24C309.213 56.24 309.453 56.4533 309.933 56.88C310.466 57.3067 311.133 57.84 311.933 58.48C312.733 59.12 313.586 59.8133 314.493 60.56C315.4 61.3067 316.226 62.0267 316.973 62.72C316.76 63.5733 316.04 64 314.813 64H256.093L255.373 61.68ZM281.693 36.32H289.133V71.44H281.693V36.32ZM343.533 10.88V7.44L351.773 10.88H382.653V13.12H351.293V48C351.293 48.2667 350.973 48.6133 350.333 49.04C349.693 49.4133 348.866 49.76 347.853 50.08C346.893 50.4 345.853 50.56 344.733 50.56H343.533V10.88ZM378.973 10.88H378.173L381.853 6.48L390.173 12.88C389.906 13.2 389.48 13.52 388.893 13.84C388.306 14.16 387.613 14.4 386.813 14.56V65.76C386.813 67.4667 386.546 68.96 386.013 70.24C385.533 71.52 384.493 72.5333 382.893 73.28C381.346 74.0267 378.92 74.5333 375.613 74.8C375.453 73.7333 375.213 72.7733 374.893 71.92C374.626 71.0667 374.173 70.4 373.533 69.92C372.84 69.44 371.906 68.9867 370.733 68.56C369.56 68.1333 367.88 67.76 365.693 67.44V66.32C365.693 66.32 366.173 66.3733 367.133 66.48C368.093 66.5333 369.266 66.6133 370.653 66.72C372.04 66.7733 373.32 66.8533 374.493 66.96C375.72 67.0133 376.573 67.04 377.053 67.04C377.853 67.04 378.36 66.88 378.573 66.56C378.84 66.24 378.973 65.76 378.973 65.12V10.88ZM330.653 49.28C332.84 49.12 335.72 48.8533 339.293 48.48C342.92 48.0533 347.026 47.5733 351.613 47.04C356.2 46.5067 361.106 45.8933 366.333 45.2C371.613 44.5067 377 43.7867 382.493 43.04L382.733 44.32C377.346 45.8667 370.84 47.6267 363.213 49.6C355.64 51.52 346.626 53.68 336.173 56.08C335.96 56.5067 335.666 56.88 335.293 57.2C334.92 57.52 334.52 57.7333 334.093 57.84L330.653 49.28ZM393.933 24.96L402.493 31.6C402.12 31.9733 401.666 32.2133 401.133 32.32C400.653 32.3733 399.96 32.2133 399.053 31.84C395.8 36.16 391.906 40.4 387.373 44.56C382.84 48.72 377.693 52.64 371.933 56.32C366.173 60 359.826 63.3067 352.893 66.24C346.013 69.12 338.6 71.4933 330.653 73.36L330.173 72.08C337.373 69.5733 344.2 66.6133 350.653 63.2C357.16 59.7333 363.133 55.92 368.573 51.76C374.066 47.5467 378.946 43.1733 383.213 38.64C387.48 34.1067 391.053 29.5467 393.933 24.96ZM348.013 22H383.773V24.32H348.013V22ZM348.093 33.36H383.853V35.68H348.093V33.36ZM361.613 0.239995L373.213 2.16C373.053 2.8 372.706 3.28 372.173 3.59999C371.64 3.92 370.946 4.10666 370.093 4.16C369.506 4.90666 368.786 5.73333 367.933 6.64C367.133 7.54666 366.306 8.45333 365.453 9.36C364.653 10.2667 363.933 11.0667 363.293 11.76H359.373C359.693 10.2667 360.066 8.4 360.493 6.16C360.973 3.92 361.346 1.94666 361.613 0.239995ZM474.893 2.08C474.893 2.08 475.16 2.32 475.693 2.8C476.28 3.28 477 3.89333 477.853 4.64C478.76 5.38666 479.693 6.18666 480.653 7.04C481.666 7.84 482.573 8.61333 483.373 9.36C483.266 9.78666 483 10.1067 482.573 10.32C482.2 10.5333 481.72 10.64 481.133 10.64H445.693L445.053 8.32H470.173L474.893 2.08ZM468.013 64.24C468.013 66.0533 467.773 67.6533 467.293 69.04C466.813 70.48 465.8 71.6533 464.253 72.56C462.706 73.52 460.333 74.1333 457.133 74.4C457.026 73.1733 456.813 72.08 456.493 71.12C456.226 70.2133 455.773 69.4667 455.133 68.88C454.44 68.24 453.506 67.7067 452.333 67.28C451.16 66.8 449.48 66.4267 447.293 66.16V65.04C447.293 65.04 447.773 65.0667 448.733 65.12C449.693 65.1733 450.84 65.2533 452.173 65.36C453.56 65.4133 454.84 65.4933 456.013 65.6C457.24 65.6533 458.093 65.68 458.573 65.68C459.32 65.68 459.826 65.5467 460.093 65.28C460.36 64.96 460.493 64.5067 460.493 63.92V8.96H468.013V64.24ZM420.813 0.799997C423.96 1.28 426.44 2.02666 428.253 3.04C430.066 4 431.346 5.09333 432.093 6.32C432.84 7.49333 433.16 8.64 433.053 9.76C433 10.88 432.6 11.84 431.853 12.64C431.16 13.3867 430.253 13.8133 429.133 13.92C428.066 14.0267 426.946 13.68 425.773 12.88C425.56 10.8 424.866 8.69333 423.693 6.56C422.573 4.42666 421.373 2.66666 420.093 1.28L420.813 0.799997ZM437.293 64.24V66.56H418.333V64.24H437.293ZM433.293 46.64L436.813 42.8L444.333 48.56C444.12 48.88 443.72 49.2 443.133 49.52C442.6 49.7867 441.933 50 441.133 50.16V68.8C441.133 68.96 440.786 69.2 440.093 69.52C439.453 69.8933 438.68 70.2133 437.773 70.48C436.866 70.7467 436.013 70.88 435.213 70.88H434.093V46.64H433.293ZM421.213 71.28C421.213 71.5467 420.92 71.84 420.333 72.16C419.746 72.5333 419 72.8533 418.093 73.12C417.24 73.44 416.306 73.6 415.293 73.6H414.333V46.64V43.6L421.613 46.64H436.813V48.96H421.213V71.28ZM440.493 10.08C440.493 10.08 440.92 10.4267 441.773 11.12C442.626 11.76 443.64 12.5867 444.813 13.6C445.986 14.56 447.053 15.4667 448.013 16.32C447.8 17.1733 447.08 17.6 445.853 17.6H409.293L408.653 15.28H436.253L440.493 10.08ZM436.333 30.88C436.333 30.88 436.76 31.2 437.613 31.84C438.466 32.48 439.453 33.28 440.573 34.24C441.693 35.1467 442.733 36.0533 443.693 36.96C443.48 37.8133 442.76 38.24 441.533 38.24H414.173L413.533 35.92H432.413L436.333 30.88ZM436.333 20.56C436.333 20.56 436.76 20.88 437.613 21.52C438.466 22.16 439.453 22.96 440.573 23.92C441.693 24.8267 442.733 25.7333 443.693 26.64C443.48 27.4933 442.76 27.92 441.533 27.92H414.173L413.533 25.6H432.413L436.333 20.56ZM517.373 52.32V58H509.853V54.88L517.373 52.32ZM507.373 67.12C508.813 66.8533 510.786 66.4533 513.293 65.92C515.853 65.3867 518.706 64.7467 521.853 64C525 63.2533 528.226 62.5067 531.533 61.76L531.853 62.8C529.826 63.9733 526.946 65.5733 523.213 67.6C519.533 69.5733 515.48 71.6533 511.053 73.84L507.373 67.12ZM515.533 55.68L517.373 56.72V66.8L510.333 69.52L513.133 66.88C513.72 69.12 513.64 70.9067 512.893 72.24C512.2 73.5733 511.426 74.4533 510.573 74.88L506.413 67.28C507.906 66.4267 508.84 65.76 509.213 65.28C509.64 64.8 509.853 64.24 509.853 63.6V55.68H515.533ZM557.053 52.8C556.84 53.1733 556.52 53.44 556.093 53.6C555.666 53.7067 555.026 53.68 554.173 53.52C552.786 54.2667 551.08 55.0133 549.053 55.76C547.026 56.4533 544.893 57.0933 542.653 57.68C540.466 58.2133 538.333 58.6667 536.253 59.04L535.453 58.08C537 57.1733 538.6 56.1333 540.253 54.96C541.906 53.7333 543.453 52.5067 544.893 51.28C546.333 50.0533 547.506 48.96 548.413 48L557.053 52.8ZM527.373 45.44C528.813 48.6933 530.706 51.52 533.053 53.92C535.4 56.2667 538.12 58.2667 541.213 59.92C544.306 61.52 547.666 62.8533 551.293 63.92C554.973 64.9333 558.84 65.7333 562.893 66.32L562.813 67.12C561.213 67.5467 559.906 68.3467 558.893 69.52C557.88 70.7467 557.16 72.2933 556.733 74.16C551.613 72.6667 547.053 70.7467 543.053 68.4C539.106 66.0533 535.72 63.0933 532.893 59.52C530.066 55.8933 527.853 51.4133 526.253 46.08L527.373 45.44ZM529.293 46.72C526.52 49.6533 523.08 52.2667 518.973 54.56C514.92 56.8 510.386 58.7467 505.373 60.4C500.413 62 495.16 63.3067 489.613 64.32L489.053 63.12C495.453 61.1467 501.293 58.6133 506.573 55.52C511.853 52.4267 516.12 49.0667 519.373 45.44H529.293V46.72ZM520.493 38.56C522.893 38.1867 524.813 38.16 526.253 38.48C527.746 38.8 528.84 39.3333 529.533 40.08C530.28 40.7733 530.706 41.5467 530.813 42.4C530.92 43.2 530.733 43.9467 530.253 44.64C529.826 45.3333 529.186 45.8133 528.333 46.08C527.533 46.2933 526.6 46.1867 525.533 45.76C525.106 44.5333 524.333 43.3067 523.213 42.08C522.093 40.8533 520.946 39.8933 519.773 39.2L520.493 38.56ZM554.093 39.52C554.093 39.52 554.36 39.7333 554.893 40.16C555.426 40.5333 556.12 41.04 556.973 41.68C557.826 42.32 558.706 43.04 559.613 43.84C560.52 44.5867 561.373 45.28 562.173 45.92C561.96 46.7733 561.213 47.2 559.933 47.2H490.653L489.933 44.88H549.773L554.093 39.52ZM523.853 24.08L526.973 20.48L534.493 26C534.226 26.32 533.8 26.64 533.213 26.96C532.626 27.2267 531.906 27.44 531.053 27.6V31.12C531.053 32.3467 530.893 33.4133 530.573 34.32C530.253 35.1733 529.56 35.8667 528.493 36.4C527.426 36.88 525.8 37.2 523.613 37.36C523.613 36.72 523.56 36.1333 523.453 35.6C523.346 35.0667 523.133 34.64 522.813 34.32C522.546 34.0533 522.146 33.7867 521.613 33.52C521.08 33.2533 520.28 33.04 519.213 32.88V31.68C519.213 31.68 519.48 31.7067 520.013 31.76C520.6 31.8133 521.213 31.8667 521.853 31.92C522.546 31.9733 523.106 32 523.533 32C524.013 32 524.306 31.8933 524.413 31.68C524.573 31.4133 524.653 31.0933 524.653 30.72V24.08H523.853ZM507.133 3.44C506.973 3.92 506.653 4.32 506.173 4.64C505.746 4.90666 505.106 5.04 504.253 5.04C503.08 7.38666 501.693 9.57333 500.093 11.6C498.493 13.5733 496.813 15.2 495.053 16.48L493.853 15.84C494.813 13.92 495.666 11.6267 496.413 8.96C497.16 6.24 497.72 3.49333 498.093 0.719998L507.133 3.44ZM524.973 3.68C524.973 3.68 525.346 3.97333 526.093 4.56C526.893 5.14666 527.826 5.89333 528.893 6.8C530.013 7.65333 531.026 8.50666 531.933 9.36C531.72 10.2133 531 10.64 529.773 10.64H497.533L498.413 8.32H521.213L524.973 3.68ZM502.253 36.56C502.253 36.72 501.986 36.96 501.453 37.28C500.92 37.6 500.226 37.8933 499.373 38.16C498.573 38.3733 497.746 38.48 496.893 38.48H495.933V24.08V21.28L502.733 24.08H528.893V26.4H502.253V36.56ZM559.933 2.08C559.72 3.25333 558.786 3.94666 557.133 4.16V32.48C557.133 34.1333 556.92 35.5467 556.493 36.72C556.12 37.84 555.266 38.7467 553.933 39.44C552.6 40.1333 550.546 40.6133 547.773 40.88C547.72 39.8667 547.586 39.0133 547.373 38.32C547.16 37.5733 546.813 36.9333 546.333 36.4C545.853 35.9733 545.16 35.5733 544.253 35.2C543.4 34.8267 542.146 34.5333 540.493 34.32V33.2C540.493 33.2 540.84 33.2267 541.533 33.28C542.226 33.3333 543.053 33.3867 544.013 33.44C544.973 33.4933 545.88 33.5467 546.733 33.6C547.586 33.6533 548.2 33.68 548.573 33.68C549.16 33.68 549.56 33.5733 549.773 33.36C549.986 33.1467 550.093 32.8 550.093 32.32V1.12L559.933 2.08ZM528.493 11.68C528.493 11.68 528.866 12 529.613 12.64C530.413 13.2267 531.373 13.9733 532.493 14.88C533.613 15.7867 534.6 16.64 535.453 17.44C535.24 18.2933 534.546 18.72 533.373 18.72H491.693L491.053 16.4H524.653L528.493 11.68ZM519.213 1.35999C519.16 1.89333 518.92 2.34666 518.493 2.72C518.12 3.09333 517.453 3.33333 516.493 3.44V40C516.493 40.2667 516.2 40.56 515.613 40.88C515.08 41.2 514.386 41.4933 513.533 41.76C512.733 41.9733 511.906 42.08 511.053 42.08H509.693V0.399998L519.213 1.35999ZM546.573 4.08C546.52 4.61333 546.28 5.06666 545.853 5.43999C545.426 5.81333 544.733 6.05333 543.773 6.16V28.72C543.773 28.9333 543.506 29.2 542.973 29.52C542.44 29.7867 541.746 30.0267 540.893 30.24C540.093 30.4533 539.266 30.56 538.413 30.56H537.133V3.2L546.573 4.08Z" fill="white"/>
</svg>
