<svg xmlns="http://www.w3.org/2000/svg" xmlns:xlink="http://www.w3.org/1999/xlink" viewBox="0 0 1920 1350">
  <defs>

    <linearGradient id="grad1" gradientUnits="userSpaceOnUse" x1="0"  x2="0">
      <stop offset="0" stop-color="#fff0"/>
      <stop offset="0.5" stop-color="#fff"/>
      <stop offset="1" stop-color="#fff0"/>
        <animate attributeName="y1"
          values="2118;-524" dur="4s"
          repeatCount="indefinite" />
        <animate attributeName="y2"
          values="2889;347" dur="4s"
          repeatCount="indefinite" />

    </linearGradient>

    <linearGradient id="grad" gradientUnits="userSpaceOnUse">
      <stop offset="0" stop-color="#fff"/>
      <stop offset=".2" stop-color="#fffe"/>
      <stop offset=".4" stop-color="#fffc"/>
      <stop offset=".7" stop-color="#fff6"/>
      <stop offset="1" stop-color="#fff0"/>
    </linearGradient>
    <linearGradient id="paint0" x1="0" y1="708.3" x2="0" y2="829.9" xlink:href="#grad"/>
    <linearGradient id="paint1" x1="0" y1="584.8" x2="0" y2="699.1" xlink:href="#grad"/>
    <linearGradient id="paint2" x1="0" y1="1074" x2="0" y2="1193.2" xlink:href="#grad"/>
    <linearGradient id="paint3" x1="0" y1="1037.2" x2="0" y2="1164.7" xlink:href="#grad"/>
    <linearGradient id="paint4" x1="0" y1="851.8" x2="0" y2="1017.1" xlink:href="#grad"/>
    <linearGradient id="paint5" x1="0" y1="1150" x2="0" y2="1252.3" xlink:href="#grad"/>
    <linearGradient id="paint6" x1="0" y1="1207.1" x2="0" y2="1296.9" xlink:href="#grad"/>
    <radialGradient id="rg" cx="1235.9" cy="732.1" fx="1235.9" fy="732.1" r="53.8" gradientTransform="translate(0 -6948.3) scale(1 10.5)" gradientUnits="userSpaceOnUse">
      <stop offset="0" stop-color="#fff" stop-opacity="0"/>
      <stop offset="1" stop-color="#fff"/>
    </radialGradient>
    <path id="lo" d="M1268.6,972.9v138.1c0,0,7.4,5.6,7.4,5.6V347.6h-80.2v734.4h1.2c2.6-3.2,3.1-3.1,3.1-3.1l.3-125.4,11.2-9.5,58.5,11.5-.3,15.8-1.3,1.6Z"/>
  </defs>
  <use xlink:href="#lo" fill="url(#rg)" />
  <use xlink:href="#lo" fill="url(#grad1)" />
      <rect fill="url(#paint0)" x="964.7" y="689.8" width="149.1" height="140.5"/>
      <path fill="url(#paint1)" d="M434.4,653.3c10.5-5.4,26-7.2,34.5-9.6,8.4-2.4,29.5-.6,38.7-2.4,9.2-1.8,27.4,6,33.1,7.2,5.8,1.2,34.7,13.5,42.9,15.6,8.2,2.1,15.3,8.1,21,10.8s15.3,7.5,20.3,9.9c5,2.4,10.5,5.4,17.9,8.3,7.4,2.9,4.7,1.9,11.8,5.8.3.2.6.4,1,.5v-131.9h-251v101.7c7.7-5.1,21.5-11.6,29.8-15.8Z"/>
      <rect fill="url(#paint2)" x="1008.9" y="1055.8" width="149.1" height="137.7"/>
      <rect fill="url(#paint3)" x="1296.1" y="1017.8" width="149.1" height="147.2"/>
      <rect fill="url(#paint4)" x="702.7" y="826.7" width="149.1" height="190.9"/>
      <rect fill="url(#paint5)" x="797.9" y="1134.4" width="149.1" height="118.1"/>
      <rect fill="url(#paint6)" x="1185.1" y="1193.5" width="183" height="103.6"/>
      <path fill="#000" d="M1271.9,608.5l-6.1-3.3-1.8,3.1h-14.6v-9.8h16v-29.2c.2-.6.9-.6.9-.6l-6.1-3.3-1.3,3h-25.4c-3.4-.4-5.1-2.6-5.8-3.7,0,0-.3,0-.3,0l.2,4.4h0v27.7c0,.9.7,1.5,1.5,1.5h13.8v9.8h-14.6c-2.6-.7-4-2.6-4.6-3.5,0,0-.3,0-.3,0v3.6h0v44.8h6.5v-42.3h13v26.6c-6.2,1.1-10.2.8-10.2.8v5.7c17.2-1.3,25-11.3,25-11.3-.7.3-1.5.7-2.2,1v-.2c0,0-.3-.7-.3-.7.3.7-.4,1.2-.5,1.2-1.8.7-3.6,1.4-5.3,1.9v-25h14.6c0,10.3.2,22.2.3,32.2,0,2.9-.5,7.2-2.3,12.2-.5,1.5-1.8,4.5-4.1,7.9-2.6,3.8-5.6,6.6-8.2,8.7-.2.2,0,.5.3.4,4.8-2.5,13.2-7.9,17.8-18.2,2-4.4,2.8-8.6,3-11.8v-32.9c0-.9,1-1,1-1v.3ZM1259,595.8h-9.5v-10h8.3v-2.8h-8.3v-11.8h9.5v24.5h0ZM1243,571.2v11.8h-8.8v-11.8h8.8ZM1235.9,595.8c-1.5,0-1.7-1.1-1.8-1.4v-8.6h8.8v10h-7.1,0ZM1212.5,569h-6.2c-4.7-.4-6.4-4.3-6.4-4.3v4.3h0v84.9h6.5v-14.3c4.2-3.6,7.3-10.6,9.3-16.1,3.2-9.2.9-20.1-3.9-28,0,0,0,0-.2-.3.9-2,1.8-4.1,2.6-5.4,2.5-4.8,4.7-11.7,5.2-19.6h0c0-1,1-1,1-1l-6.1-3.3-1.9,3.2h0ZM1212,582.8c-.2,1.5-.4,3.8-1.3,8-.2,1.1-.6,3-1.1,5l-1.6,6.2c8.3,13.3,2,29.1-1.5,35.8v-65.9h6.2c0,3.4,0,7.1-.7,11h0ZM1202.4,479.1h0v72.9c0,.9.7,1.5,1.5,1.5h59.1v-73h0c0-1,1-1,1-1l-6.1-3.3-1.4,2.9h-44c8.7-3.3,11.5-16.2,11.5-16.2l-7-6.7s1.6,19-8.4,22.9h-.4c-3.4-.4-5.1-2.6-5.8-3.7,0-.1-.3,0-.3,0v3.5c0,0,.3.1.3.1h.1ZM1210.8,550.8c-1.8,0-2-1.2-2-1.5v-67.5h47.6v68.9h-45.6ZM978.8,725.6c1.3-1,3-2.8,4-4.2v-6.2h-3.6v-1.3h6v7.5c1.6,2.3,5.1,2.5,7.7,2.5,3.7,0,8.6-.3,11.9-.7l-1,2.8c-3,.2-7.6.2-11,0-5.1,0-7.5-2.1-8.6-4.3-.9,2-2.3,4.1-3.6,5.6l-1.7-1.8h-.1ZM979.6,707.3l.5-.9c1.6.8,3.7,2,5.2,3.4l-1.8,2c-1-1.3-2.6-3.3-4-4.6h0ZM980.4,701.6l.5-.8c1.6.6,3.7,1.8,5.2,3.2l-1.8,2c-1.1-1.4-2.5-2.9-4-4.4h0ZM994,720.2h-7.1v-1.3h7.1v-1.8h-5.5v-7.5h5.5v-1.7h-6.4v-1.3h6.4v-2.2h2.4v2.2h6.2v1.3h-6.2v1.7h5.6v7.5h-5.6v1.8h7.4v1.3h-7.4v3h-2.4v-3ZM987,702.2h16.2v3.9h-2.4v-2.6h-11.5v2.6h-2.4v-3.9h.1ZM994,712.7v-1.9h-3.3v1.9h3.3ZM994,715.9v-2.1h-3.3v2.1h3.3ZM999.7,712.7v-1.9h-3.3v1.9h3.3ZM999.7,715.9v-2.1h-3.3v2.1h3.3ZM1035.4,707.5c-.2,9-.6,14.5-.9,16.7s-2.8,3.4-6.9.7l.4-1c3.4.8,4,.6,4.2-1.1.3-2,.7-7.8.7-14h-2.4c-.3,9.5-1.6,14.8-7,18.5l-.7-.8c1.1-1,1.9-2.2,2.6-3.5-4.1,1.6-8.8,2.7-13.3,3.3l-.6-2.6c2,0,4.1-.3,6.1-.5v-2.4h-5.7v-1.3h5.7v-2.1h-4.9v-8.5h4.9v-1.9h-6.1v-1.3h6.1v-1.8c-1.8.2-3.7.3-5.6.3v-1c4.8-.6,8.8-1.6,11.5-2.7l1.8,2c-1.6.4-3.3.8-5.2,1.1v2.1h5.9v1.3h-5.9v1.9h4.9v8.5h-4.9v2.1h5.2v1.3h-5.2v2.1c1.8-.2,3.5-.5,5.1-.9l.3,1c1.7-3.4,2.3-7.8,2.5-14.2h-2.4v-1.3h2.5v-6.7h2.6v6.7h5-.3ZM1014.9,712.4h2.5v-2.3h-2.5v2.3ZM1017.4,716.1v-2.4h-2.5v2.4h2.5ZM1019.9,710.1v2.3h2.6v-2.3h-2.6ZM1022.5,713.7h-2.6v2.4h2.6v-2.4ZM1044,716.9l-.6-.9c3.6-3.4,6.1-7.6,7.5-13.7l3,1.2c-1.9,5.2-5.4,10.4-10,13.3h0ZM1067.3,725.1l-3,1.6c-.5-1.3-1.1-2.7-1.8-4.2-4.7,1.6-11.2,2.7-15.8,3.2l-.8-3.2h3.5c2-3.2,3.8-7.9,4.9-11.9l3.2,1.3c-1.6,3.8-4.2,7.8-6.5,10.6,3.8-.2,7.8-.5,10.8-.9-.8-1.5-1.6-3-2.5-4.4l.9-.7c3,2.8,5.5,6,7.1,8.8v-.2ZM1069.6,713.7l-2.3,3.2c-3.6-2.7-6.3-6.9-7.3-13.2h-4.6v-1.3h5.6c.9,5.7,4.5,9.2,8.6,11.3h0ZM1100,702v25.1h-2.5v-1.7h-17.5v1.7h-2.5v-25.2h22.5ZM1097.5,703.2h-17.5v20.9h17.5v-20.9ZM1081,720l-.3-1c2-.8,4-1.7,5.6-3.1h-3.4v-4.6h11.7v4.6h-5.3c-.7.6-1.3,1.1-2,1.5v2.9c1.2-.3,2.2-.6,3-.9l.4.9c-2.3,1.3-6.2,2.6-8.3,3.2l-.8-2.1c.9,0,2.1-.3,3.3-.6v-2.3c-1.5.7-2.9,1.1-3.9,1.3v.2ZM1096.6,710.1h-15.7v-1.3h6.7v-1.6h-5.5v-1.3h5.5v-1.9h2.4v1.9h5.5v1.3h-5.5v1.6h6.6v1.3ZM1085.3,714.7h6.9v-2.1h-6.9v2.1ZM1096.9,717c-.9.8-2.1,1.6-3.1,2.1,1.2.7,2.2,1.5,3.2,2.2l-1.7,2c-1.9-1.9-3.9-3.7-6.4-5.5l.5-.9c1.1.5,2.2,1,3.4,1.6.9-.9,1.8-2,2.4-2.9l1.8,1.4h-.1ZM436.6,599.4h-11.1v-1.6h11.1v-4.1h-9v-1.5h9v-10.4h2.7v10.4h9v1.5h-9v4.1h11.2v1.6h-11.2v8.9h-2.7v-8.9ZM427.9,583.9l.8-.7c1.9,1.6,4.5,4.4,6,6.7l-2.6,1.7c-1.2-2.7-3-5.8-4.2-7.7h0ZM440.9,590.7c1.2-1.7,2.9-4.6,4.2-7.7l2.8,1.5c-1.8,2.7-4.6,5.5-6.3,6.8l-.8-.7h0ZM461.2,588.5v1.5c0,10.2-.9,14.8-4.5,18.3l-.7-.7c2.9-4.1,2.6-10,2.6-18.4v-6.3h21.1v5.6h-18.5ZM461.2,584.2v3h15.8v-3h-15.8ZM481.1,598.8v1.3h-5.6v8h-2.6v-8h-4.4c-.7,4.9-3.2,7.1-6.7,8.4l-.5-.9c3.1-1.8,4.2-4.2,4.6-7.5h-4.5v-1.3h4.6v-4.1h-3.9v-1.3h4.9c-.7-1.3-1.7-2.9-2.4-3.9l.7-.8c1.4.8,3,2.1,4.3,3.7l-1.3.9h4.4c.5-1.4,1-3.4,1.2-4.7l2.7.9c-.5,1.1-1.5,2.6-2.6,3.8h6.1v1.3h-4.7v4.2h5.7ZM472.9,594.6h-4.2v4.1h4.2v-4.2h0ZM510.4,587.8v20.2h-2.5v-2.9h-16.8v3.1h-2.4v-20.3h2.4v15.9h7.1v-21.9h2.7v21.9h7.1v-16h2.5-.1ZM539.6,586.6v21.6h-2.6v-2.4h-13.7v2.4h-2.6v-21.6h6.4c.7-1.7,1.2-3.3,1.7-5.3l3.5,1.3c-1.2,1.7-2.4,3-3.4,4h10.8-.1ZM523.3,587.9v4.5h13.7v-4.5h-13.7ZM523.3,593.6v4.7h13.7v-4.7h-13.7ZM537,604.5v-4.9h-13.7v4.9h13.7ZM563.1,590.2h-3.2c-1.8,5.5-5.5,9.1-10.8,11.4l-.5-.9c5.1-2.9,8.8-7.5,9.5-14.2h-3.7c-.2.5-.5,1.1-.7,1.6,1,.5,2.2,1.4,3.2,2.3l-1.7,1.7c-.6-.9-1.4-2.1-2.2-2.9-.5.8-1,1.6-1.6,2.4,1.1.7,2.4,1.6,3.3,2.6l-1.8,1.7c-.6-1.1-1.5-2.4-2.2-3.4-.6.7-1.3,1.5-2,2.2l-.7-.7c2.9-3.6,4.3-7.9,4.9-12.2l2.7.6c-.2,1-.5,2-.8,3h3l.6-.5,2.4.9c0,1.1-.3,2.2-.6,3.2h3c.2-2,.3-4.3.4-7.1h2.6c0,2.7,0,5.1-.4,7.1h6.6v1.3h-5.8c1.2,4,4.2,6.7,7.4,8.4l-1.9,2.8c-3.9-2.6-5.7-6.9-6.3-11.2h0c-1.1,5.9-4,8.9-9.3,10.9l-.5-.9c4.4-2.3,6.3-4.9,7.1-10h0ZM552.6,601.2l1,.4c-.5,2.8-2,5.5-3.1,6.9l-2.3-1.9c1.5-1.2,3.4-3.2,4.4-5.4h0ZM557.4,601.5c1.2,1.7,2.3,4.2,2.9,5.9l-2.7.8c-.3-1.7-.7-4.4-1.2-6.3l.9-.4h0ZM562.9,601.1c1.5,1.6,3.1,4,4,5.7l-2.6,1.3c-.5-1.6-1.4-4.4-2.2-6.5l.9-.5h-.1ZM569,588.1c-.5-1.5-1.2-3.5-1.9-5.1l.9-.6c1.1,1.1,2.6,3.1,3.3,4.5l-2.3,1.1h0ZM573.7,606.6l-2.6,1.6c-.6-1.7-1.9-4.6-3-6.6l.8-.6c1.7,1.5,3.8,3.8,4.8,5.6ZM579.1,598l-.6-.9c3.6-3.4,6.1-7.6,7.5-13.7l3,1.2c-1.9,5.2-5.4,10.4-10,13.3h0ZM602.4,606.2l-3,1.6c-.5-1.3-1.1-2.7-1.8-4.2-4.7,1.6-11.2,2.7-15.8,3.2l-.8-3.2h3.5c2-3.2,3.8-7.9,4.9-11.9l3.2,1.3c-1.6,3.8-4.2,7.8-6.5,10.6,3.8-.2,7.8-.5,10.8-.9-.8-1.5-1.6-3-2.5-4.4l.9-.7c3,2.8,5.5,6,7.1,8.8v-.2ZM604.7,594.7l-2.3,3.2c-3.6-2.7-6.3-6.9-7.3-13.2h-4.6v-1.3h5.6c.9,5.7,4.5,9.2,8.6,11.3ZM633.5,583v25.1h-2.5v-1.7h-17.5v1.7h-2.5v-25.2h22.5ZM631,584.3h-17.5v20.9h17.5v-20.9ZM614.5,601l-.3-1c2-.8,4-1.7,5.6-3.1h-3.4v-4.6h11.7v4.6h-5.3c-.7.6-1.3,1.1-2,1.5v2.9c1.2-.3,2.2-.6,3-.9l.4.9c-2.3,1.3-6.2,2.6-8.3,3.2l-.8-2.1c.9,0,2.1-.3,3.3-.6v-2.3c-1.5.7-2.9,1.1-3.9,1.3v.2ZM630,591.1h-15.7v-1.3h6.7v-1.6h-5.5v-1.3h5.5v-1.9h2.4v1.9h5.5v1.3h-5.5v1.6h6.6v1.3ZM618.8,595.7h6.9v-2.1h-6.9v2.1ZM630.3,598.1c-.9.8-2.1,1.6-3.1,2.1,1.2.7,2.2,1.5,3.2,2.2l-1.7,2c-1.9-1.9-3.9-3.7-6.4-5.5l.5-.9c1.1.5,2.2,1,3.4,1.6.9-.9,1.8-2,2.4-2.9l1.8,1.4h-.1ZM835.2,1168.5v1.6h-24.2v-1.6h10.9v-7.2h-8.2v-1.4h8.2v-6.2h-5.8c-1.3,2.3-2.8,4.4-4.5,5.9l-.8-.7c2.2-3.1,4-7.3,4.8-12.6l2.9.8c-.4,1.8-1,3.5-1.8,5.1h5.2v-7.1h2.7v7.1h8.8v1.4h-8.8v6.2h8.1v1.4h-8.1v7.2h10.7-.1ZM846.6,1163.5l.9.3c-.3,2.5-1.5,5.1-2.6,6.7l-2.2-1.8c1.7-1.4,2.9-3,3.9-5.1h0ZM843.1,1148.7l2.7.2c.7-1.1,1.2-2.2,1.8-4.1l2.5.8c-1.1,1.5-2,2.4-3.2,3.3h5.7c-.3-.7-.7-1.3-1.1-1.8l.8-.6c1.3,1.1,2.2,2.1,3.5,3.8l-2,1.3c-.3-.6-.6-1.2-.8-1.7-3.9.8-7.2,1.2-9.4,1.4l-.6-2.4v-.2ZM852.2,1159.4v-1h-5.4v4.4h-2.3v-10.9h10.1v8.4c0,2.3-2.4,3.4-5.7.9l.3-1c2.8.7,3.1.6,3.1-.8h0ZM846.8,1153.1v1.4h5.4v-1.4h-5.4ZM852.2,1157.2v-1.5h-5.4v1.5h5.4ZM862.3,1165.3c1.6,4.3.9,5.6-1.8,5.8-1.7,0-5.4.2-7.5,0-2.8,0-4.2-.5-4.2-2.8v-5h2.4v3.8c0,1.3.4,1.7,2,1.8,2.2,0,5.3,0,6.7,0,1.3-.2,1.5-.4,1.3-3.6h1.1ZM853.8,1162.6c1.6.6,3.8,1.6,5.2,2.7l-1.8,2.2c-1.2-1.4-2.9-3.1-3.9-4l.5-.9h0ZM856.2,1159.1v-4.9h2.3v3.6c1.7-.7,3.5-1.8,5.2-3.2l2,1.9c-1.9,1-5,1.8-7.2,2.3,0,1.4.2,1.6,1.5,1.7s2.4,0,3.7,0c1.6-.2,1.9-.5,1.8-2.8h1c1.1,3,.9,4.6-2.6,4.9-1.5,0-2.8,0-4.3,0-2.4-.2-3.4-.4-3.4-3.4h0ZM856.3,1149.8v-4.6h2.3v3.8c1.6-.8,3.4-1.9,4.9-3.1l2,1.8c-2,1-4.7,1.8-6.9,2.3,0,1.5,0,1.6,1.5,1.7h3.4c1.5-.2,1.6-.6,1.6-2.7h1c1.2,3.7.3,4.4-2.3,4.7-1.6,0-2.3,0-3.8,0-3.1,0-3.7-.5-3.7-3.9h0ZM868.1,1168.4l-2.4,1.5c-1-2.4-1.8-4.2-3-6l.8-.6c1.8,1.5,3.2,3,4.6,5.1h0ZM875.2,1161.3l-.6-.9c3.6-3.4,6.1-7.6,7.5-13.7l3,1.2c-1.9,5.2-5.4,10.4-10,13.3h0ZM898.4,1169.4l-3,1.6c-.5-1.3-1.1-2.7-1.8-4.2-4.7,1.6-11.2,2.7-15.8,3.2l-.8-3.2h3.5c2-3.2,3.8-7.9,4.9-11.9l3.2,1.3c-1.6,3.8-4.2,7.8-6.5,10.6,3.8-.2,7.8-.5,10.8-.9-.8-1.5-1.6-3-2.5-4.4l.9-.7c3,2.8,5.5,6,7.1,8.8v-.2ZM900.8,1158l-2.3,3.2c-3.6-2.7-6.3-6.9-7.3-13.2h-4.6v-1.3h5.6c.9,5.7,4.5,9.2,8.6,11.3ZM931.2,1146.3v25.1h-2.5v-1.7h-17.5v1.7h-2.5v-25.2h22.5ZM928.7,1147.6h-17.5v20.9h17.5v-20.9ZM912.2,1164.3l-.3-1c2-.8,4-1.7,5.6-3.1h-3.4v-4.6h11.7v4.6h-5.3c-.7.6-1.3,1.1-2,1.5v2.9c1.2-.3,2.2-.6,3-.9l.4.9c-2.3,1.3-6.2,2.6-8.3,3.2l-.8-2.1c.9,0,2.1-.3,3.3-.6v-2.3c-1.5.7-2.9,1.1-3.9,1.3v.2ZM927.8,1154.4h-15.7v-1.3h6.7v-1.6h-5.5v-1.3h5.5v-1.9h2.4v1.9h5.5v1.3h-5.5v1.6h6.6v1.3ZM916.5,1159h6.9v-2.1h-6.9v2.1ZM928.1,1161.4c-.9.8-2.1,1.6-3.1,2.1,1.2.7,2.2,1.5,3.2,2.2l-1.7,2c-1.9-1.9-3.9-3.7-6.4-5.5l.5-.9c1.1.5,2.2,1,3.4,1.6.9-.9,1.8-2,2.4-2.9l1.8,1.4h-.1ZM1026.1,1077.9c-1.3-1.7-3.1-3.5-4.4-4.7l.5-.9c1.6.7,3.9,2,5.6,3.3l-1.8,2.3h.1ZM1027.6,1079.8c-.6,4-1.5,9-2.2,11.3l-2.8-1.1c1.3-2.6,2.8-7.2,3.9-10.5l1,.3h0ZM1027.4,1071.7c-1.4-1.8-2.8-3.5-4-4.8l.6-.8c1.3.6,3.4,1.8,5.4,3.5l-1.9,2.1h0ZM1031,1086.5l1,.3c-.3,2.6-1.3,4.8-2.5,6.3l-2.2-1.7c1.3-1,2.6-2.3,3.7-4.9h0ZM1035.7,1082.1c1,1.4,1.6,2.6,2.1,4l-2,.6c0-.6-.2-1.2-.4-1.8-2.7.9-4.7,1.3-6.4,1.5l-.5-2.5c.7,0,1.5,0,2.4,0,.7-.7,1.5-1.7,2.2-2.8-1.4.4-2.8.7-3.8.9l-.5-2.3c.4,0,.9,0,1.5,0,.7-1.2,1.5-2.7,2.1-4.5h-1.8v-7.8h14.8v7.8h-12.7l2,.9c-.9,1.5-2.1,2.8-3.1,3.7h2.5c.5-.9,1-1.7,1.3-2.6l2.4,1c-1.8,2.7-3.7,4.5-5.3,5.7,1,0,1.9,0,2.9,0,0-.5-.2-.9-.3-1.5l.8-.3h-.2ZM1032.8,1070.9h10v-2h-10v2ZM1032.8,1074.2h10v-2h-10v2ZM1034.8,1086.7c1.1,1.7,2,3.9,2.6,5.5l-2.7.7c0-1.7-.4-3.8-.8-5.9l1-.3h0ZM1044.9,1084.7c-2.2.7-5.3,1.3-6.6,1.5l-.5-2.3h2c.6-.7,1.3-1.5,2-2.6-1.4.3-2.8.6-3.8.7l-.4-2.2c.4,0,.9,0,1.4,0,.7-1.2,1.3-2.6,1.8-4.3l2.2.9c-.9,1.5-1.9,2.7-2.8,3.5h2.4c.5-.8.9-1.6,1.4-2.5l2.3,1.1c-1.2,2-3.4,4-5.1,5.3,1.1,0,2.3,0,3.3-.2,0-.5-.3-1-.5-1.5l.8-.4c1.2,1.3,1.9,2.6,2.5,4l-1.9.9c0-.6-.3-1.3-.5-1.9h0ZM1039.4,1086.6c1.4,1.7,2.4,3.4,3.2,5.1l-2.6.9c-.3-1.6-.8-3.7-1.5-5.6l.9-.4ZM1047.8,1091.2l-2.5,1.4c-.6-1.7-1.4-3.9-2.3-5.7l.8-.6c1.7,1.5,3.1,3.4,4,4.9h0ZM1064.2,1082.5l.5,1c-2.5,1.9-6.1,4-9.4,5.4l-1.1-2.8c1-.2,2.5-.7,4.2-1.3v-9.6h-3.7v-1.3h3.7v-6.9h2.5v6.9h3.5v1.3h-3.5v8.6c1.2-.5,2.3-.9,3.4-1.4h0ZM1076.6,1091.7c-2.6.2-4.8.2-7.3,0-3.2-.2-4-1.1-4-4v-10l-2.8,1-.4-1.2c1.1-.4,2.2-.8,3.2-1.2v-7.1h2.4v6.1c.9-.3,1.8-.7,2.8-1.1v-7.9h2.3v7c.9-.4,1.7-.7,2.6-1.1l.5-.7,2.7.7c-.4,2.9-1.7,9.1-2.7,11.4l-1-.2c.4-2.4.8-8.3.8-9.9l-2.9,1.2v10.8h-2.3v-9.9c-.9.4-1.8.7-2.8,1.1v10.7c0,1.5.7,1.8,2.2,1.9,2.4.2,4.1.2,6.6,0,1.5,0,1.8-.7,1.8-7.1h1.1c1.3,7.7,1.1,9.2-2.7,9.4h0ZM1087.1,1082.3l-.6-.9c3.6-3.4,6.1-7.6,7.5-13.7l3,1.2c-1.9,5.2-5.4,10.4-10,13.3h0ZM1110.4,1090.5l-3,1.6c-.5-1.3-1.1-2.7-1.8-4.2-4.7,1.6-11.2,2.7-15.8,3.2l-.8-3.2h3.5c2-3.2,3.8-7.9,4.9-11.9l3.2,1.3c-1.6,3.8-4.2,7.8-6.5,10.6,3.8-.2,7.8-.5,10.8-.9-.8-1.5-1.6-3-2.5-4.4l.9-.7c3,2.8,5.5,6,7.1,8.8v-.2ZM1112.7,1079l-2.3,3.2c-3.6-2.7-6.3-6.9-7.3-13.2h-4.6v-1.3h5.6c.9,5.7,4.5,9.2,8.6,11.3h0ZM1143.1,1067.3v25.1h-2.5v-1.7h-17.5v1.7h-2.5v-25.2h22.5ZM1140.6,1068.6h-17.5v20.9h17.5v-20.9ZM1124.2,1085.3l-.3-1c2-.8,4-1.7,5.6-3.1h-3.4v-4.6h11.7v4.6h-5.3c-.7.6-1.3,1.1-2,1.5v2.9c1.2-.3,2.2-.6,3-.9l.4.9c-2.3,1.3-6.2,2.6-8.3,3.2l-.8-2.1c.9,0,2.1-.3,3.3-.6v-2.3c-1.5.7-2.9,1.1-3.9,1.3v.2ZM1139.7,1075.4h-15.7v-1.3h6.7v-1.6h-5.5v-1.3h5.5v-1.9h2.4v1.9h5.5v1.3h-5.5v1.6h6.6v1.3ZM1128.4,1080h6.9v-2.1h-6.9v2.1ZM1140,1082.4c-.9.8-2.1,1.6-3.1,2.1,1.2.7,2.2,1.5,3.2,2.2l-1.7,2c-1.9-1.9-3.9-3.7-6.4-5.5l.5-.9c1.1.5,2.2,1,3.4,1.6.9-.9,1.8-2,2.4-2.9l1.8,1.4h-.1ZM1321.3,1039.6c-1.5,5.5-4.6,10.1-10.2,13l-.6-.9c4.9-3.7,6.7-7.6,7.6-11.4h-6.2v-1.3h6l.8-.6,2.6,1.2h0ZM1336.1,1049.1l-2.3,3.1c-4.2-2.8-6.8-6.6-8.6-12.3v11.1c0,3.3-2.7,4.6-8.1,1.3l.3-1c4.6,1.1,5.1.7,5.1-.8v-15.3h-7.3v-1.4h10v2.3c.5,1.6,1.1,3.1,1.7,4.4,1.3-1.2,3-3,4.6-5.6l2.7,2.1c-2.3,2-4.8,3.6-6.7,4.5,2.3,3.9,5.5,6.2,8.6,7.7h0ZM1326.2,1032.7c-2.3-1.5-5.1-3-7.8-4.1l.3-1c2.6.4,7.1,1.5,9,2.4l-1.4,2.8h0ZM1345.7,1033c.3,3.1.3,6.5-.2,8.7l-2.9-.9c.9-1.9,1.7-4.8,2-7.9h1.1ZM1346.7,1028h2.4v26.3h-2.4v-26.3ZM1350.8,1039.1c-.2-1.8-.7-4.2-1.2-6.3l1-.3c1,1.6,2.1,3.7,2.7,5.8l-2.5.8ZM1368.3,1051.6v1.3h-18.2v-1.3h10.5c.8-4,1.9-10.3,2.6-15h-6.5c-.9,4-1.8,8.1-2.8,11.4l-2.5-.4c1.3-4.6,2.8-11.2,3.8-16.5h-4.2v-1.3h16.7v1.3h-9.9c-.3,1.4-.6,2.8-.9,4.2h6l.6-.6,2.6.8c-1,6.1-2.1,11.9-3,16h5.2ZM1356.3,1043.1c1.4.7,3.3,1.9,4.7,3.3l-1.9,1.9c-1.1-1.6-2.1-2.8-3.5-4.3l.6-.9h.1ZM1361.9,1041.6l-1.9,1.7c-1.1-1.6-2.2-3-3.3-4.3l.7-.9c1.4.8,3.1,1.9,4.5,3.4h0ZM1401.1,1049.5l-.8,3.3c-2.7.4-5.3.4-8.7.3-8.6-.4-9.6-6.5-10.6-6.5s-1.9,3.5-3.1,7.3l-2.7-1.4c2.1-4,4.3-7.7,5.8-7.7s1.2.9,2.1,1.9c4-2.7,8.5-7.1,10.8-11.2h-17.2v-1.6h10c-1.4-2-2.9-3.8-4.4-5.4l.7-.8c1.9,1,4.8,3,6.5,4.7l-1.6,1.5h6.1l1.3-.9,3,1.9c-4.2,6.2-8.9,9.9-14.2,12.6,1.5,1.4,3.8,2.8,7.8,2.8s6.5-.3,9.4-.9h-.2ZM1417.5,1045.2c-1.9,1.5-5.9,3.5-8.9,4.6l-1.1-2.8c1.1-.2,2.4-.5,3.8-.8v-6.9h-3v-1.3h3v-6.5h-3.4v-1.3h9v1.3h-3.2v6.5h3v1.3h-3v6.2c1.4-.4,2.6-.9,3.3-1.2l.5.9h0ZM1433.4,1051.6l-1.5,2.6c-3.3-1.4-6.1-4-6.9-9.8h-.5c-.5.7-1.2,1.3-2,1.9v4.3c1.2-.3,2.3-.7,3.3-1l.4.9c-2.8,1.8-5.9,3-8.5,3.7l-.9-2.6c1.1,0,2.2-.3,3.4-.5v-3.3c-2,1.1-4.2,2-5.7,2.4l-.4-1c2.5-.9,5.5-2.6,7.4-4.7h-3.6v-4.9h13.3v4.9h-5.2c.4,1.4.9,2.5,1.5,3.4,1.1-.9,2.4-2,3.3-3.2l2,1.6c-1.3,1-3.1,1.8-4.6,2.4,1.3,1.4,3,2.2,5.2,2.8h0ZM1416.7,1036.6h16.2v1.3h-16.2v-1.3ZM1431.8,1035.2h-14.3v-6.1h14.3v6.1ZM1421.6,1030.3h-1.8v3.6h1.8v-3.6ZM1420.3,1043.2h8.5v-2.5h-8.5v2.5ZM1425.5,1030.3h-1.8v3.6h1.8v-3.6ZM1429.5,1030.3h-1.9v3.6h1.9v-3.6ZM1223.2,1227.8v1.6h-24.2v-1.6h10.9v-7.2h-8.2v-1.4h8.2v-6.2h-5.8c-1.3,2.3-2.8,4.4-4.5,5.9l-.8-.7c2.2-3.1,4-7.3,4.8-12.6l2.9.8c-.4,1.8-1,3.5-1.8,5.1h5.2v-7.1h2.7v7.1h8.8v1.4h-8.8v6.2h8.1v1.4h-8.1v7.2h10.7,0ZM1234.6,1222.8l.9.3c-.3,2.5-1.5,5.1-2.6,6.7l-2.2-1.8c1.7-1.4,2.9-3,3.9-5.1h0ZM1231,1208.1l2.7.2c.7-1.1,1.2-2.2,1.8-4.1l2.5.8c-1.1,1.5-2,2.4-3.2,3.3h5.7c-.3-.7-.7-1.3-1.1-1.8l.8-.6c1.3,1.1,2.2,2.1,3.5,3.8l-2,1.3c-.3-.6-.6-1.2-.8-1.7-3.9.8-7.2,1.2-9.4,1.4l-.6-2.4v-.2ZM1240.1,1218.7v-1h-5.4v4.4h-2.3v-10.9h10.1v8.4c0,2.3-2.4,3.4-5.7.9l.3-1c2.8.7,3.1.6,3.1-.8h0ZM1234.7,1212.5v1.4h5.4v-1.4h-5.4ZM1240.1,1216.6v-1.5h-5.4v1.5h5.4ZM1250.2,1224.6c1.6,4.3.9,5.6-1.8,5.8-1.7,0-5.4.2-7.5,0-2.8,0-4.2-.5-4.2-2.8v-5h2.4v3.8c0,1.3.4,1.7,2,1.8,2.2,0,5.3,0,6.7,0,1.3-.2,1.5-.4,1.3-3.6h1.1ZM1241.7,1222c1.6.6,3.8,1.6,5.2,2.7l-1.8,2.2c-1.2-1.4-2.9-3.1-3.9-4l.5-.9h0ZM1244.1,1218.4v-4.9h2.3v3.6c1.7-.7,3.5-1.8,5.2-3.2l2,1.9c-1.9,1-5,1.8-7.2,2.3,0,1.4.2,1.6,1.5,1.7s2.4,0,3.7,0c1.6-.2,1.9-.5,1.8-2.8h1c1.1,3,.9,4.6-2.6,4.9-1.5,0-2.8,0-4.3,0-2.4-.2-3.4-.4-3.4-3.4h0ZM1244.2,1209.1v-4.6h2.3v3.8c1.6-.8,3.4-1.9,4.9-3.1l2,1.8c-2,1-4.7,1.8-6.9,2.3,0,1.5,0,1.6,1.5,1.7h3.4c1.5-.2,1.6-.6,1.6-2.7h1c1.2,3.7.3,4.4-2.3,4.7-1.6,0-2.3,0-3.8,0-3.1,0-3.7-.5-3.7-3.9h0ZM1256.1,1227.7l-2.4,1.5c-1-2.4-1.8-4.2-3-6l.8-.6c1.8,1.5,3.2,3,4.6,5.1ZM1263.2,1210.6c1.6.8,3.5,2,5.2,3.6l-1.9,2.2c-1.1-1.6-2.6-3.4-3.9-4.8l.6-.9h0ZM1267.2,1217.6l1,.3c-.5,3.6-1.4,8.7-2.2,11.6l-2.9-1.2c1.5-3,2.9-7,4.2-10.6h0ZM1267.9,1210c-1.1-1.7-2.3-3.4-3.5-4.9l.6-.8c1.6.9,3.6,2.3,5,3.8l-2.1,1.9ZM1278,1226.2h-6.3v2.6h-2.4v-11.4h3v-5h-3.8v-1.3h3.8v-6.7h2.6v6.7h4v1.3h-4v5h3.1v8.8h0ZM1275.7,1218.6h-3.9v6.3h3.9v-6.3ZM1286.8,1205.6v22.4c0,2.8-2.5,3.6-6.3,1.3l.3-1c3.2.7,3.5.5,3.5-1.1v-7.4h-2.6c-.3,5.3-1.6,8.4-5.1,11.2l-.7-.7c3-3.3,3.6-6.6,3.6-14.4v-10.3h7.4-.1ZM1284.3,1218.7v-5.6h-2.5v5.6h2.5ZM1281.8,1206.9v4.9h2.5v-4.9h-2.5ZM1295.5,1220.6l-.6-.9c3.6-3.4,6.1-7.6,7.5-13.7l3,1.2c-1.9,5.2-5.4,10.4-10,13.3h0ZM1318.8,1228.8l-3,1.6c-.5-1.3-1.1-2.7-1.8-4.2-4.7,1.6-11.2,2.7-15.8,3.2l-.8-3.2h3.5c2-3.2,3.8-7.9,4.9-11.9l3.2,1.3c-1.6,3.8-4.2,7.8-6.5,10.6,3.8-.2,7.8-.5,10.8-.9-.8-1.5-1.6-3-2.5-4.4l.9-.7c3,2.8,5.5,6,7.1,8.8v-.2ZM1321.1,1217.3l-2.3,3.2c-3.6-2.7-6.3-6.9-7.3-13.2h-4.6v-1.3h5.6c.9,5.7,4.5,9.2,8.6,11.3h0ZM1351.5,1205.6v25.1h-2.5v-1.7h-17.5v1.7h-2.5v-25.2h22.5ZM1349,1206.9h-17.5v20.9h17.5v-20.9ZM1332.6,1223.6l-.3-1c2-.8,4-1.7,5.6-3.1h-3.4v-4.6h11.7v4.6h-5.3c-.7.6-1.3,1.1-2,1.5v2.9c1.2-.3,2.2-.6,3-.9l.4.9c-2.3,1.3-6.2,2.6-8.3,3.2l-.8-2.1c.9,0,2.1-.3,3.3-.6v-2.3c-1.5.7-2.9,1.1-3.9,1.3v.2ZM1348.1,1213.7h-15.7v-1.3h6.7v-1.6h-5.5v-1.3h5.5v-1.9h2.4v1.9h5.5v1.3h-5.5v1.6h6.6v1.3ZM1336.8,1218.3h6.9v-2.1h-6.9v2.1ZM1348.4,1220.7c-.9.8-2.1,1.6-3.1,2.1,1.2.7,2.2,1.5,3.2,2.2l-1.7,2c-1.9-1.9-3.9-3.7-6.4-5.5l.5-.9c1.1.5,2.2,1,3.4,1.6.9-.9,1.8-2,2.4-2.9l1.8,1.4h-.1Z"/>
      <path fill="#aa0c24" d="M1255,518.5h-46.2v-2.8h40.1l1.4-2.8,4.7,2.8v2.8ZM1251.9,626.3c-.1,0-.3,0-.2.2,1.9,2.8,3.7,5.9,4.5,9.2.2.9.3,1.8.3,2.7,0,1.7-.8,3.3-.2,5,.7,1.6,3.9,3,5,.9,3.4-6.8-6.6-15.6-9.4-17.9ZM1004.4,746.8c0,.7-.3,1.3-.8,1.8-.5.4-1.1.6-1.8.6s-1.6-.3-2.3-.8l.3-.4c.6.6,1.3.9,2,.9s1-.2,1.3-.5c.3-.3.5-.8.5-1.4,0-1-.6-1.8-1.9-2.5-1.4-.8-2.1-1.8-2-2.9,0-.6.3-1,.7-1.4.4-.3,1-.5,1.6-.5.3,0,.5,0,.8.1.6.1,1,.4,1.3.8l-.3.3c-.2-.2-.4-.4-.6-.6-.4-.2-.7-.4-1.1-.4s-.8.1-1.1.4c-.3.3-.5.6-.5,1,0,.8.5,1.5,1.6,2.2.9.5,1.6,1.1,1.9,1.7.3.5.4,1,.4,1.6ZM1011.9,742.3c0,.7-.3,1.3-.9,1.8-.6.5-1.3.7-2.1.7-.2,0-.3,0-.5,0v-.3h.3c.7,0,1.3-.2,1.8-.7.4-.4.6-.9.6-1.6,0-1.5-.9-2.3-2.6-2.2h-.9v9h-.9v-9.3c.4,0,1.1,0,2.1,0,2.2,0,3.2.8,3.2,2.5ZM1023,744.5c0,1.3-.4,2.5-1.3,3.4-.9.9-2,1.4-3.4,1.4s-2.5-.5-3.4-1.4c-.9-.9-1.3-2-1.3-3.4s.4-2.5,1.3-3.4c.9-.9,2-1.4,3.4-1.4s2.5.5,3.4,1.4c.9.9,1.3,2,1.3,3.4ZM1022,744.5c0-1.3-.3-2.4-1-3.2-.7-.9-1.6-1.3-2.7-1.3s-2,.4-2.7,1.3c-.7.8-1,1.9-1,3.2s.3,2.4,1,3.2c.7.9,1.6,1.3,2.7,1.3s2-.4,2.7-1.3c.7-.8,1-1.9,1-3.2ZM1030.7,749.1h-1l-3-5.2c.1,0,.3,0,.4,0,1.3,0,2-.6,2-1.9s-.8-2.1-2.5-2h-.6v9.1h-.9v-9.3c.1,0,.7,0,1.6,0,2.2,0,3.3.7,3.3,2.3s-.2,1.1-.6,1.5c-.4.4-.9.6-1.6.7l2.8,4.9ZM1037.7,740.1h-2.4v9h-.9v-9h-2.5v-.3h5.8v.3ZM1043.8,746.8c0,.7-.3,1.3-.8,1.8-.5.4-1.1.6-1.8.6s-1.6-.3-2.3-.8l.3-.4c.6.6,1.3.9,2,.9s1-.2,1.3-.5c.3-.3.5-.8.5-1.4,0-1-.6-1.8-1.9-2.5-1.4-.8-2.1-1.8-2-2.9,0-.6.3-1,.7-1.4.4-.3,1-.5,1.6-.5.3,0,.5,0,.8.1.6.1,1,.4,1.3.8l-.3.3c-.2-.2-.4-.4-.6-.6-.4-.2-.7-.4-1.1-.4s-.8.1-1.1.4c-.3.3-.5.6-.5,1,0,.8.5,1.5,1.6,2.2.9.5,1.6,1.1,1.9,1.7.3.5.4,1,.4,1.6ZM1055.1,742.3c0,.7-.3,1.3-.9,1.8-.6.5-1.3.7-2.1.7-.2,0-.3,0-.5,0v-.3h.3c.7,0,1.3-.2,1.8-.7.4-.4.6-.9.6-1.6,0-1.5-.9-2.3-2.6-2.2h-.9v9h-.9v-9.3c.4,0,1.1,0,2.1,0,2.2,0,3.2.8,3.2,2.5ZM1063.5,749.1h-1l-1.5-3.9h-2.1v-.3h2l-1.4-3.6-3,7.9h-.3s3.7-9.5,3.7-9.5l3.7,9.5ZM1071.1,749.1h-1l-3-5.2c.1,0,.3,0,.4,0,1.3,0,2-.6,2-1.9s-.8-2.1-2.5-2h-.6v9.1h-.9v-9.3c.1,0,.7,0,1.6,0,2.2,0,3.3.7,3.3,2.3s-.2,1.1-.6,1.5c-.4.4-.9.6-1.6.7l2.8,4.9ZM1074.1,749.1h-.9v-9.3h.9v9.3ZM1079.3,749.1h-1.1l-3.6-4.8,3.9-4.5h.3s-3.5,4.1-3.5,4.1l4,5.2ZM495.9,631.2l-5.7-7.8v7.6h-.3v-9.5l5.7,7.7v-7.5h.3v9.5ZM504.8,631.1h-1l-1.5-3.9h-2.1v-.3h2l-1.4-3.6-3,7.9h-.3s3.7-9.5,3.7-9.5l3.7,9.5ZM511,622h-2.4v9h-.9v-9h-2.5v-.3h5.8v.3ZM519.1,628.1c0,.9-.3,1.7-1,2.3-.6.5-1.3.8-2.2.8s-1.6-.3-2.2-.8c-.6-.6-1-1.3-1-2.2v-6.4h.9v6.3c0,1.8.8,2.7,2.3,2.7s2.3-.9,2.3-2.7v-6.3h.9v6.4ZM527,631.1h-1l-3-5.2c.1,0,.3,0,.4,0,1.3,0,2-.6,2-1.9s-.8-2.1-2.5-2h-.6v9.1h-.9v-9.3c.1,0,.7,0,1.6,0,2.2,0,3.3.7,3.3,2.3s-.2,1.1-.6,1.5c-.4.4-.9.6-1.6.7l2.8,4.9ZM533.3,631.1h-4.3v-9.3h4.2v.3h-3.3v3.8h2.9v.3h-2.9v4.7h3.4v.3ZM544.5,624.3c0,.7-.3,1.3-.9,1.8-.6.5-1.3.7-2.1.7-.2,0-.3,0-.5,0v-.3h.3c.7,0,1.3-.2,1.8-.7.4-.4.6-.9.6-1.6,0-1.5-.9-2.3-2.6-2.2h-.9v9h-.9v-9.3c.4,0,1.1,0,2.1,0,2.2,0,3.2.8,3.2,2.5ZM552.9,631.1h-1l-1.5-3.9h-2.1v-.3h2l-1.4-3.6-3,7.9h-.3s3.7-9.5,3.7-9.5l3.7,9.5ZM560.5,631.1h-1l-3-5.2c.1,0,.3,0,.4,0,1.3,0,2-.6,2-1.9s-.8-2.1-2.5-2h-.6v9.1h-.9v-9.3c.1,0,.7,0,1.6,0,2.2,0,3.3.7,3.3,2.3s-.2,1.1-.6,1.5c-.4.4-.9.6-1.6.7l2.8,4.9ZM563.5,631.1h-.9v-9.3h.9v9.3ZM568.7,631.1h-1.1l-3.6-4.8,3.9-4.5h.3s-3.5,4.1-3.5,4.1l4,5.2ZM1046.8,1105.8l-2.8,9.5-2.6-7.6-2.4,7.6-2.7-9.4h1s2.1,7.3,2.1,7.3l2.3-7.4,2.5,7.5,2.1-7.4h.3ZM1052.9,1115.1h-4.3v-9.3h4.2v.3h-3.3v3.8h2.9v.3h-2.9v4.7h3.4v.3ZM1060.5,1106.1h-2.4v9h-.9v-9h-2.5v-.3h5.8v.3ZM1067.1,1115.1h-4.3v-9.3h.9v9h3.4v.3ZM1075.6,1115.1h-1l-1.5-3.9h-2.1v-.3h2l-1.4-3.6-3,7.9h-.3s3.7-9.5,3.7-9.5l3.7,9.5ZM1083.7,1115.3l-5.7-7.8v7.6h-.3v-9.5l5.7,7.7v-7.5h.3v9.5ZM1093.1,1110.5c0,1.7-.6,3-1.9,3.8-.9.6-1.9.9-2.9.9h-2.3v-9.3h2.3c1.1,0,2.1.3,2.9.8,1.3.8,1.9,2.1,1.9,3.8ZM1092.2,1110.5c0-1.6-.5-2.8-1.6-3.5-.8-.5-1.7-.8-2.8-.8h-1v8.8h.8c1.2,0,2.2-.3,3-.8,1-.8,1.6-1.9,1.6-3.6ZM1105.4,1108.4c0,.7-.3,1.3-.9,1.8-.6.5-1.3.7-2.1.7-.2,0-.3,0-.5,0v-.3h.3c.7,0,1.3-.2,1.8-.7.4-.4.6-.9.6-1.6,0-1.5-.9-2.3-2.6-2.2h-.9v9h-.9v-9.3c.4,0,1.1,0,2.1,0,2.2,0,3.2.8,3.2,2.5ZM1113.8,1115.1h-1l-1.5-3.9h-2.1v-.3h2l-1.4-3.6-3,7.9h-.3s3.7-9.5,3.7-9.5l3.7,9.5ZM1121.5,1115.1h-1l-3-5.2c.1,0,.3,0,.4,0,1.3,0,2-.6,2-1.9s-.8-2.1-2.5-2h-.6v9.1h-.9v-9.3c.1,0,.7,0,1.6,0,2.2,0,3.3.7,3.3,2.3s-.2,1.1-.6,1.5c-.4.4-.9.6-1.6.7l2.8,4.9ZM1124.4,1115.1h-.9v-9.3h.9v9.3ZM1129.6,1115.1h-1.1l-3.6-4.8,3.9-4.5h.3s-3.5,4.1-3.5,4.1l4,5.2ZM817.8,1192.7h-4.3v-9.3h4.2v.3h-3.3v3.8h2.9v.3h-2.9v4.7h3.4v.3ZM826.8,1191.4c-.7.9-1.6,1.4-2.8,1.4s-2.1-.5-3-1.4c-.9-.9-1.3-2.1-1.3-3.3s.4-2.4,1.2-3.3c.8-.9,1.7-1.4,2.9-1.4s2,.3,2.7.9l-.4.4c-.7-.7-1.4-1.1-2.4-1.1s-1.6.4-2.2,1.3c-.5.8-.8,1.9-.8,3.2s.3,2.3.9,3.2c.6.9,1.4,1.3,2.3,1.3s1.9-.5,2.5-1.4l.4.3ZM838.3,1188c0,1.3-.4,2.5-1.3,3.4-.9.9-2,1.4-3.4,1.4s-2.5-.5-3.4-1.4c-.9-.9-1.3-2-1.3-3.4s.4-2.5,1.3-3.4c.9-.9,2-1.4,3.4-1.4s2.5.5,3.4,1.4c.9.9,1.3,2,1.3,3.4ZM837.3,1188c0-1.3-.3-2.4-1-3.2-.7-.9-1.6-1.3-2.7-1.3s-2,.4-2.7,1.3c-.7.8-1,1.9-1,3.2s.3,2.4,1,3.2c.7.9,1.6,1.3,2.7,1.3s2-.4,2.7-1.3c.7-.8,1-1.9,1-3.2ZM844.8,1192.7h-4.3v-9.3h.9v9h3.4v.3ZM855.9,1188c0,1.3-.4,2.5-1.3,3.4-.9.9-2,1.4-3.4,1.4s-2.5-.5-3.4-1.4c-.9-.9-1.3-2-1.3-3.4s.4-2.5,1.3-3.4c.9-.9,2-1.4,3.4-1.4s2.5.5,3.4,1.4c.9.9,1.3,2,1.3,3.4ZM855,1188c0-1.3-.3-2.4-1-3.2-.7-.9-1.6-1.3-2.7-1.3s-2,.4-2.7,1.3c-.7.8-1,1.9-1,3.2s.3,2.4,1,3.2c.7.9,1.6,1.3,2.7,1.3s2-.4,2.7-1.3c.7-.8,1-1.9,1-3.2ZM865.1,1191.3c-.7,1-1.6,1.4-2.8,1.4s-2.1-.5-3-1.4c-.9-.9-1.3-2.1-1.3-3.3s.4-2.4,1.2-3.3c.8-1,1.7-1.4,2.9-1.4s2.1.3,2.8,1l-.3.4c-.7-.7-1.5-1.1-2.5-1.1s-1.6.4-2.2,1.3c-.5.8-.8,1.9-.8,3.2s.3,2.3.9,3.1c.6.9,1.4,1.3,2.3,1.3s1.4-.2,2-.6v-3.7h.9v3.2ZM868.5,1192.7h-.9v-9.3h.9v9.3ZM878.3,1191.4c-.7.9-1.6,1.4-2.8,1.4s-2.1-.5-3-1.4c-.9-.9-1.3-2.1-1.3-3.3s.4-2.4,1.2-3.3c.8-.9,1.7-1.4,2.9-1.4s2,.3,2.7.9l-.4.4c-.7-.7-1.4-1.1-2.4-1.1s-1.6.4-2.2,1.3c-.5.8-.8,1.9-.8,3.2s.3,2.3.9,3.2c.6.9,1.4,1.3,2.3,1.3s1.9-.5,2.5-1.4l.4.3ZM887.1,1192.7h-1l-1.5-3.9h-2.1v-.3h2l-1.4-3.6-3,7.9h-.3s3.7-9.5,3.7-9.5l3.7,9.5ZM893.6,1192.7h-4.3v-9.3h.9v9h3.4v.3ZM904.5,1185.9c0,.7-.3,1.3-.9,1.8-.6.5-1.3.7-2.1.7-.2,0-.3,0-.5,0v-.3h.3c.7,0,1.3-.2,1.8-.7.4-.4.6-.9.6-1.6,0-1.5-.9-2.3-2.6-2.2h-.9v9h-.9v-9.3c.4,0,1.1,0,2.1,0,2.2,0,3.2.8,3.2,2.5ZM913,1192.7h-1l-1.5-3.9h-2.1v-.3h2l-1.4-3.6-3,7.9h-.3s3.7-9.5,3.7-9.5l3.7,9.5ZM920.6,1192.7h-1l-3-5.2c.1,0,.3,0,.4,0,1.3,0,2-.6,2-1.9s-.8-2.1-2.5-2h-.6v9.1h-.9v-9.3c.1,0,.7,0,1.6,0,2.2,0,3.3.7,3.3,2.3s-.2,1.1-.6,1.5c-.4.4-.9.6-1.6.7l2.8,4.9ZM923.5,1192.7h-.9v-9.3h.9v9.3ZM928.8,1192.7h-1.1l-3.6-4.8,3.9-4.5h.3s-3.5,4.1-3.5,4.1l4,5.2ZM1234.5,1254.3h-4.3v-9.3h4.2v.3h-3.3v3.8h2.9v.3h-2.9v4.7h3.4v.3ZM1243.5,1253c-.7.9-1.6,1.4-2.8,1.4s-2.1-.5-3-1.4c-.9-.9-1.3-2.1-1.3-3.3s.4-2.4,1.2-3.3c.8-.9,1.7-1.4,2.9-1.4s2,.3,2.7.9l-.4.4c-.7-.7-1.4-1.1-2.4-1.1s-1.6.4-2.2,1.3c-.5.8-.8,1.9-.8,3.2s.3,2.3.9,3.2c.6.9,1.4,1.3,2.3,1.3s1.9-.5,2.5-1.4l.4.3ZM1255,1249.6c0,1.3-.4,2.5-1.3,3.4-.9.9-2,1.4-3.4,1.4s-2.5-.5-3.4-1.4c-.9-.9-1.3-2-1.3-3.4s.4-2.5,1.3-3.4c.9-.9,2-1.4,3.4-1.4s2.5.5,3.4,1.4c.9.9,1.3,2,1.3,3.4ZM1254,1249.6c0-1.3-.3-2.4-1-3.2-.7-.9-1.6-1.3-2.7-1.3s-2,.4-2.7,1.3c-.7.8-1,1.9-1,3.2s.3,2.4,1,3.2c.7.9,1.6,1.3,2.7,1.3s2-.4,2.7-1.3c.7-.8,1-1.9,1-3.2ZM1265.2,1254.3h-4.3v-9.3h.9v9h3.4v.3ZM1273.7,1254.3h-1l-1.5-3.9h-2.1v-.3h2l-1.4-3.6-3,7.9h-.3s3.7-9.5,3.7-9.5l3.7,9.5ZM1276.7,1254.3h-.9v-9.3h.9v9.3ZM1281.9,1254.3h-1.1l-3.6-4.8,3.9-4.5h.3s-3.5,4.1-3.5,4.1l4,5.2ZM1288.1,1254.3h-4.3v-9.3h4.2v.3h-3.3v3.8h2.9v.3h-2.9v4.7h3.4v.3ZM1299.3,1247.5c0,.7-.3,1.3-.9,1.8-.6.5-1.3.7-2.1.7-.2,0-.3,0-.5,0v-.3h.3c.7,0,1.3-.2,1.8-.7.4-.4.6-.9.6-1.6,0-1.5-.9-2.3-2.6-2.2h-.9v9h-.9v-9.3c.4,0,1.1,0,2.1,0,2.2,0,3.2.8,3.2,2.5ZM1307.7,1254.3h-1l-1.5-3.9h-2.1v-.3h2l-1.4-3.6-3,7.9h-.3s3.7-9.5,3.7-9.5l3.7,9.5ZM1315.3,1254.3h-1l-3-5.2c.1,0,.3,0,.4,0,1.3,0,2-.6,2-1.9s-.8-2.1-2.5-2h-.6v9.1h-.9v-9.3c.1,0,.7,0,1.6,0,2.2,0,3.3.7,3.3,2.3s-.2,1.1-.6,1.5c-.4.4-.9.6-1.6.7l2.8,4.9ZM1318.3,1254.3h-.9v-9.3h.9v9.3ZM1323.5,1254.3h-1.1l-3.6-4.8,3.9-4.5h.3s-3.5,4.1-3.5,4.1l4,5.2ZM1334.5,1077.1h-4.3v-9.3h4.2v.3h-3.3v3.8h2.9v.3h-2.9v4.7h3.4v.3ZM1342.4,1068h-2.4v9h-.9v-9h-2.5v-.3h5.8v.3ZM1349.1,1077.1h-4.3v-9.3h4.2v.3h-3.3v3.8h2.9v.3h-2.9v4.7h3.4v.3ZM1356.7,1077.1h-1l-3-5.2c.1,0,.3,0,.4,0,1.3,0,2-.6,2-1.9s-.8-2.1-2.5-2h-.6v9.1h-.9v-9.3c.1,0,.7,0,1.6,0,2.2,0,3.3.7,3.3,2.3s-.2,1.1-.6,1.5c-.4.4-.9.6-1.6.7l2.8,4.9ZM1364.7,1077.2l-5.7-7.8v7.6h-.3v-9.5l5.7,7.7v-7.5h.3v9.5ZM1373.6,1077.1h-.9l-1.5-3.9h-2.1v-.3h2l-1.4-3.6-3,7.9h-.3s3.7-9.5,3.7-9.5l3.7,9.5ZM1380,1077.1h-4.3v-9.3h.9v9h3.4v.3ZM1391.2,1077.1h-1l-3-5.2c.1,0,.3,0,.4,0,1.3,0,2-.6,2-1.9s-.8-2.1-2.5-2h-.6v9.1h-.9v-9.3c.1,0,.7,0,1.6,0,2.2,0,3.3.7,3.3,2.3s-.2,1.1-.6,1.5c-.4.4-.9.6-1.6.7l2.8,4.9ZM1394.2,1077h-.9v-9.3h.9v9.3ZM1403,1077.2l-5.7-7.8v7.6h-.3v-9.5l5.7,7.7v-7.5h.3v9.5ZM1412.3,1075.7c-.7,1-1.6,1.4-2.8,1.4s-2.1-.5-3-1.4c-.9-.9-1.3-2.1-1.3-3.3s.4-2.4,1.2-3.3c.8-1,1.7-1.4,2.9-1.4s2.1.3,2.8,1l-.3.4c-.7-.7-1.5-1.1-2.5-1.1s-1.6.4-2.2,1.3c-.5.8-.8,1.9-.8,3.2s.3,2.3.9,3.1c.6.9,1.4,1.3,2.3,1.3s1.4-.2,2-.6v-3.7h.9v3.2Z"/>
      <path fill="#e60012" d="M721.7,835.9v9.5h7.6v2.8h-7.6v16c0,1.5,0,2.5.3,2.9.2.4.5.8.9,1.1.4.3.8.4,1.2.4,1.5,0,2.9-.9,4.2-2.7l1,.6c-1.8,3.6-4.8,5.3-9,5.3s-3.7-.5-5.1-1.4c-1.4-.9-2.3-1.9-2.7-3.1-.2-.6-.3-2.3-.3-5.1v-14h-4.2v-1c2.9-1.6,5.3-3.4,7.3-5.2,2-1.8,3.8-3.8,5.3-6.1h1.1ZM752.5,844.7l.5,8.9h-1.2c-1.4-2.6-2.8-4.4-4.3-5.4-1.5-1-3-1.4-4.5-1.4s-1.7.3-2.4.8c-.7.5-1,1.1-1,1.8s.2,1,.7,1.4c.7.8,2.8,2.1,6.1,3.9,3.3,1.8,5.5,3.4,6.6,4.7,1.1,1.3,1.6,2.7,1.6,4.3s-.4,2.9-1.3,4.3c-.9,1.4-2.1,2.5-3.8,3.2-1.6.7-3.4,1.1-5.4,1.1s-3.6-.4-6.1-1.2c-.7-.2-1.1-.3-1.4-.3-.8,0-1.4.5-1.9,1.4h-1.1l-.5-9.3h1.2c1,2.4,2.4,4.3,4.2,5.5s3.5,1.8,5.1,1.8,2-.3,2.7-.8,1-1.2,1-2-.3-1.7-1-2.3c-.7-.6-2.2-1.6-4.6-2.9-3.5-2-5.7-3.5-6.8-4.5-1.5-1.5-2.3-3.2-2.3-5s.8-3.8,2.5-5.4c1.7-1.6,4.1-2.4,7.4-2.4s3.4.3,5,1c.6.3,1.1.4,1.5.4s.7,0,1-.2c.3-.1.6-.5,1.2-1.2h1.2ZM772.7,845.4v3.4c1.8-1.6,3.4-2.6,4.9-3.3,1.5-.6,3.1-.9,4.9-.9s3.8.4,5.2,1.2c1.4.8,2.5,2,3.2,3.6,1.8-1.7,3.6-2.9,5.2-3.6,1.7-.7,3.4-1.1,5.2-1.1s4,.4,5.3,1.2c1.3.8,2.2,1.9,2.7,3.1.5,1.3.8,3.3.8,6.1v10.6c0,2,.2,3.2.7,3.7.4.5,1.4.8,2.8.9v1h-16.5v-1c1.3,0,2.3-.5,2.9-1.2.4-.5.6-1.6.6-3.4v-11.2c0-2.3-.1-3.8-.3-4.4-.2-.6-.6-1.1-1.1-1.4-.5-.3-1.1-.5-1.7-.5-1,0-2,.3-3,.9-1,.6-2,1.5-3,2.6v14c0,1.9.2,3,.6,3.5.5.7,1.5,1.1,3,1.1v1h-16.5v-1c.9,0,1.6-.2,2.1-.5.5-.3.9-.7,1-1.2.2-.4.3-1.4.3-3v-11.2c0-2.4-.1-3.8-.3-4.4-.2-.6-.6-1.1-1.1-1.4-.5-.3-1.1-.5-1.7-.5-.9,0-1.7.2-2.5.6-1.1.6-2.2,1.6-3.4,2.9v14c0,1.8.2,3,.7,3.6.4.6,1.4.9,2.8,1v1h-16.4v-1c1.3-.1,2.3-.5,2.9-1.1.4-.4.6-1.6.6-3.6v-14.7c0-2-.2-3.2-.7-3.7-.4-.5-1.4-.8-2.8-.9v-1h13ZM843.7,864.7l1.1.7c-1.5,2.3-3.4,4-5.6,5.1-2.2,1.1-4.6,1.7-7.1,1.7-4.3,0-7.7-1.3-10.2-3.9-2.5-2.6-3.8-5.8-3.8-9.4s1.2-6.7,3.5-9.3c2.8-3.2,6.7-4.9,11.6-4.9s5.9.7,7.9,2c1.9,1.4,2.9,2.9,2.9,4.5s-.4,1.9-1.2,2.5c-.8.6-1.8.9-3.1.9s-2.5-.4-3.3-1.1-1.4-2-1.6-3.9c-.1-1.2-.5-2-1-2.4-.5-.5-1.1-.7-1.8-.7-1.1,0-2,.5-2.8,1.4-1.2,1.4-1.8,3.6-1.8,6.6s.5,4.8,1.4,7c1,2.2,2.3,3.9,3.9,5,1.3.8,2.7,1.2,4.4,1.2s2.2-.2,3.2-.6c1-.4,2.2-1.2,3.5-2.4ZM722.8,880.7c-.3.2-.5.5-.8.7-.1.4,1.6,2.3,1.8,3-2.7.1-5.3.2-8,.3,1.6-1.9,3.6-3.4,4.8-5.7-1.1-.4-2.2-.8-3.3-1.2-.4,1.6-2.4,5.9-3.5,6.8-.2.2-2.7,0-3.2,0,.2,1,.5,1.9.7,2.9,1,.2,3.2-.2,4.2-.4,3.1-.6,6.2-.7,9-1.6.5.8,1.3,1.8,1.6,2.8.8-.6,1.7-1.2,2.5-1.8-1.2-1.8-4-4.7-5.8-5.8ZM841.9,881.6v-1.3h-7l.6-1.2c-.9-.8-3.6-.9-5.1-1.2h0c0,.3-.2.6-.2,1,1,.5,2,.9,3,1.4-3,0-5.9,0-8.9,0,0,5.6.6,13-1.1,16.9.3.2.6.4.9.6,2.9-2.2,2.8-10.8,2.7-16.2h15.1ZM737.9,889.1c0,0,0-.1.1-.2-.9-.8-1.5-1.9-2.6-2.6v-1.3h1.7v.5h11.5v-1.2h-4.5v-1.1h3.3v-1.2h-3.3v-1h3.9v-1.2h-3.9v-1.7h-2.6v1.7h-3.7s0,0,.1,0c-.6-.6-1.2-1.3-1.8-1.9-1.7,1.1-3.7,2-6,2.5,0,.3.1.6.2,1,.8.2,1.8-.2,2.6-.3v2.7h-2.7v1.3h2.3c-.2,2.8-1.6,6-2.7,8,.3.2.5.4.8.6,1.1-.9,1.4-2.5,2.3-3.7h0c0,2.5,0,5.2,0,7.8h2.5c0-3.1,0-6.2,0-9.4h0c.3.6.6,1.2.9,1.8.5-.4,1-.8,1.6-1.2ZM735.4,880.6c.8-.2,1.5-.5,2.3-.7v1.2h3.8v1h-3.2v1.2h3.2v1.1h-4.1v-.5h-2v-3.3ZM796,882.2h5.6v-1.4h-8.3l.8-2.1c-.9-.2-1.8-.4-2.7-.6h-.1c-.1,1-.6,1.9-1,2.7h-5.6v1.4h4.9c-1,2-3.7,5-6,5.7.1.4.3.7.4,1.1,1.1-.5,2.2-.9,3.2-1.5.5-.4,1.1-.7,1.6-1.1,0,0,.1-.1.2-.2,0,.1,0,.3,0,.4h8v-1c1.3,1,2.5,2.3,4.3,2.8.5-.9.9-1.8,1.4-2.7-2.2-.3-5.7-2.1-6.8-3.5ZM796.8,885.3h-6.7c.8-1,1.8-1.9,2.4-3.1h2c.3.5.7,1.1,1,1.6.3.3.5.7.8,1,.2.2.3.3.5.5ZM815.2,887.4s0,0-.1-.1c2.4,0,4.7,0,7.1,0v-1.5h-7.6v-7.6h-2.8v7.6h-7.6v1.5h6.1c-1,2.3-2.4,4.7-4.3,6.2-.8.7-1.6,1.3-2.4,2,.2.3.4.7.6,1,2.4-1,4.7-2.9,6.3-4.9.5-.7.9-1.3,1.4-2h0c0,2.7,0,5.5,0,8.4h2.8v-8.8h0c.8,2.4,4.3,5.8,6.4,7,.6-.9,1.2-1.9,1.8-2.8-.7-.3-1.4-.7-2.1-1-1.6-.9-4.8-3.2-5.5-4.8ZM820.7,880.4c-.9-.5-1.8-1-2.8-1.4-.4,1.4-1.1,2.8-1.8,4-.3.5-.6,1-1,1.5,0,0,0,0,0,0,.3.3.5.5.8.8,1.3-.4,4.1-3.7,4.8-5ZM752.8,882.6h5c0,1.6,0,3.2,0,4.8h2.5v-4.8h5v3.1h2.5v-4.3c-2.5,0-5,0-7.5,0v-1h6.2v-1.3h-15.1v1.3h6.1v1h-7.4v4.4h2.5v-3.1ZM777.1,892.5c1.5-2,3-3.9,3.6-6.8.8-3.7-2.3-7.3-6.1-6.6-1.6.3-2.4,1-3.5,1.7v3.8h0c.5-1.2,1.9-2.3,3.2-2.6,2.5-.7,4.1,1.5,3.6,3.9-.6,2.9-3.8,6.4-5.4,8.6-.5.6-1.1,1.3-1.6,1.9,0,.2,0,.3,0,.5h11.2v-2.8h-6.2c.4-.5.9-1.1,1.3-1.6ZM808.6,885.6c.8-.5,1.6-1,2.4-1.5.1-.2-.7-1.1-.9-1.4-.7-1-2.5-3.2-3.6-3.6-.3.2-.6.5-.9.7.9,1.8,2.3,3.6,2.9,5.8,0,0,0,0,0,0ZM839.8,892.8c.8-1.8,1.4-4.1,1.4-6.8h.8v-1.2h-3.7c.2-.9.5-1.8.6-2.8-.7,0-1.4-.2-2.2-.2,0,1.9-.5,5.7-1.2,6.9h0c0-.6,0-1.3,0-2h-3v-4.8h-2.3v4.8h-3v10.9h2v-9.7h4.3v5.1c0,.8,0,1.8-.2,2.3-.5.2-1.3.1-1.9,0,0,.3-.1.6-.2,1,.4.2.8.3,1.2.5,1.2.4,2.4,0,2.8-.8.4-1,.2-5.1.2-6.6.2.1.4.3.6.4.2-.3.5-.7.7-1h0c.2.9.4,1.9.6,2.8.1.4.3.9.4,1.3-.2,1.1-2.4,3.5-3.4,3.9,0,.3.3.6.4.9,0,0,0,0,.1,0,1.2-.9,2.9-1.5,3.6-2.9h.2c.6,1,1.4,2,2.2,2.8h0c.5-.7,1.1-1.4,1.6-2h0c-1.1-.8-1.9-1.9-2.8-2.8ZM838.5,890.6h0c-.3-.2-1.2-2.7-1.1-3.3.1-.4.3-.8.4-1.2.4,0,.8,0,1.2,0,0,1.5,0,3.4-.6,4.5ZM833.4,886.4c1-.8,1.9-2.2,2.5-3.4-.7-.3-1.3-.5-2-.8-.2,1.3-.8,2.6-1.3,3.7.3.2.6.3.8.5ZM829.8,885.7c.2-.3-1.6-3.1-2-3.4-.3.1-.6.3-.8.4.4,1.2.8,2.5,1.2,3.7.5-.2,1.1-.5,1.6-.7ZM757.3,883.5h-3.9v1.1h3.9v-1.1ZM760.9,883.5v1.1h3.9v-1.1h-3.9ZM760.9,886.8h4v-1.1h-4v1.1ZM753.4,886.8h3.9v-1.1h-3.9v1.1ZM747.6,894.1v-7.6h-9.6v7.6h2.2c-.7,1-2.9,2.6-4.2,3,.1.3.2.6.4.9.4,0,.9-.2,1.3-.3,1.3-.4,2.4-.8,3.4-1.4.4-.3.9-.6,1.3-.9,0,0,.1-.1.2-.2-.5-.3-.9-.7-1.4-1h2.5c-.1.3-.3.6-.4.9,1.6.7,2.9,2.2,4.4,2.9,0,0,0,0,0,0l1.3-2.1c-1.5-.5-2.9-1.5-4.7-1.7,1.1,0,2.1,0,3.2,0ZM740.5,887.8h4.6v.9h-4.6v-.9ZM740.5,889.8h4.6v1h-4.6v-1ZM740.5,892.9v-1.1h4.6v1.1h-4.6ZM768.1,892.2c-.2-.2-.8,0-1.1,0,0,1.3,0,2.7-1,3-1,.2-5,.2-5.6-.2-.2-.2-.2-.6-.2-1.1h5.7v-6h-14v7.2h2.4v-1.2h3.2c0,1.2,0,2.5.7,3,1,.7,2.8.3,4.4.5h2.2c2.7,0,4.2-.5,3.6-3.5-.1-.5-.2-1-.4-1.6ZM760.3,889.1h3.3v1.1h-3.3v-1.1ZM760.3,891.4h3.3v1.2h-3.3v-1.2ZM757.7,892.6h-3.2v-1.2h3.2v1.2ZM757.7,890.2h-3.2v-1.1h3.2v1.1ZM800.4,889.9v-1.3c-4.8,0-9.7,0-14.5,0v1.3h6.2c0,1.5.3,4.5-.2,5.6-.8.3-1.9,0-2.9,0,0,.4-.2.7-.2,1.1.7.3,1.4.6,2,.8,5,1.5,4.1-3.5,4-7.5h5.6ZM832.9,888.8h-3.2v5.5h3.2v-5.5ZM831.6,893.2h-.7v-3.4h.7v3.4ZM712.8,897.8h2.8v-1.4h7.9v1.4h2.7v-8.9h-13.3c0,3,0,5.9,0,8.9ZM715.5,890.2h7.9v4.8h-7.9v-4.8ZM790.9,891.7c-.8-.4-1.6-.9-2.4-1.3-.7,1.5-3,4.8-4.4,5.4,0,0,0,0,0,0,.2.3.4.6.6.9,0,0,0,0,0,0,2.5-1,4.7-3,6.2-5.1ZM796.1,890.7c-.2.3-.4.6-.6.8h0c1.1,1.4,2.4,2.5,3.5,3.9.3.4.6.7.9,1.1,0,0,.1,0,.2.1.7-.7,1.3-1.4,2-2-1.3-1.3-2.9-2.2-4.5-3.2-.4-.2-.9-.6-1.4-.7Z"/>
</svg>