<svg xmlns="http://www.w3.org/2000/svg" xmlns:xlink="http://www.w3.org/1999/xlink" viewBox="0 0 750 1280">
  <defs>
    <linearGradient id="grad1" gradientUnits="userSpaceOnUse" x1="0"  x2="0">
      <stop offset="0" stop-color="#fff0"/>
      <stop offset="0.5" stop-color="#fff"/>
      <stop offset="1" stop-color="#fff0"/>
        <animate attributeName="y1"
          values="2118;-524" dur="4s"
          repeatCount="indefinite" />
        <animate attributeName="y2"
          values="2889;347" dur="4s"
          repeatCount="indefinite" />
    </linearGradient>
    <linearGradient id="grad" gradientUnits="userSpaceOnUse">
      <stop offset="0" stop-color="#fff"/>
      <stop offset=".2" stop-color="#fffe"/>
      <stop offset=".4" stop-color="#fffc"/>
      <stop offset=".7" stop-color="#fff6"/>
      <stop offset="1" stop-color="#fff0"/>
    </linearGradient>

    <linearGradient id="paint0" x1="0" y1="786.5" x2="0" y2="882.9" xlink:href="#grad"/>
    <linearGradient id="paint1"  x1="0" y1="861.8" x2="0" y2="962.7" xlink:href="#grad"/>
    <linearGradient id="paint2" x1="0" y1="1111.6" x2="0" y2="1184.4" xlink:href="#grad"/>
    <linearGradient id="paint3"  x1="0" y1="1089.2" x2="0" y2="1167" xlink:href="#grad"/>
    <linearGradient id="paint4"  x1="0" y1="976.1" x2="0" y2="1076.9" xlink:href="#grad"/>
    <linearGradient id="paint5" x1="0" y1="1158" x2="0" y2="1220.4" xlink:href="#grad"/>
    <linearGradient id="paint6" x1="0" y1="1192.9" x2="0" y2="1247.6" xlink:href="#grad"/>
    <radialGradient id="rg" cx="559.1" cy="904.7" fx="559.1" fy="904.7" r="23.5" gradientTransform="translate(0 -8150.1) scale(1 10)" gradientUnits="userSpaceOnUse">
      <stop offset="0" stop-color="#fff" stop-opacity="0"/>
      <stop offset="1" stop-color="#fff"/>
    </radialGradient>
  <path id="lo" d="M534.6,1117.5c2.2-2.9,2.6-2.8,2.6-2.8l.2-76.5,6.8-5.8,35.7,7-.2,9.6-.8.9v82.4s.4,2.2.4,2.2c0,0,2.2,1.6,4.1,3.1v-465.9h-48.9v445.7Z"/>
  </defs>
  <use xlink:href="#lo" fill="url(#rg)" />
  <use xlink:href="#lo" fill="url(#grad1)" />
  <path fill="url(#paint0)" d="M70.2,855c47.4-20.7,92.9,7.9,134.9,28.1v-111.2H52v92.8c4.7-3.1,13.1-7.1,18.2-9.7Z"/>
  <rect fill="url(#paint1)"  x="393.6" y="846.5" width="90.9" height="116.4"/>
  <rect fill="url(#paint2)"  x="420.6" y="1100.6" width="90.9" height="84"/>
  <rect fill="url(#paint3)" x="595.8" y="1077.4" width="90.9" height="89.8"/>
  <rect fill="url(#paint4)" x="233.8" y="960.8" width="90.9" height="116.4"/>
  <rect fill="url(#paint5)" x="291.9" y="1148.5" width="90.9" height="72.1"/>
  <rect fill="url(#paint6)" x="528.1" y="1184.5" width="111.6" height="63.2"/>
  <path fill="#000" d="M589.7,769.7l-4.8-2.6-1.4,2.5h0s-11.5,0-11.5,0v-7.7h7.5s5.1,0,5.1,0v-23c.2-.5.7-.5.7-.5l-4.8-2.6-1.1,2.4h0s-19.6,0-19.6,0h0c-2.6,0-4.6-2.1-5.1-2.9,0-.1-.2,0-.2,0v3.5c.1,0,.1,0,.1,0v21.8c0,.7.5,1.2,1.2,1.2h3.9s7,0,7,0v7.7h-11.5c-2.1-.6-3.2-2-3.6-2.7-.5-.5-.1,2.9-.2,2.9h0v35.3h5.1v-33.3h10.2v20.9c-4.9.9-8.1.7-8.1.7v4.5c13.5-1,19.7-8.9,19.7-8.9-.6.3-1.1.5-1.7.8h0c0-.1-.4-.7-.4-.7.4,1.4-3.7,1.9-4.6,2.4v-19.7h11.5c-.7,17.2,4.8,35.8-11.3,48-.2.1,0,.4.2.3,21.1-11.1,15.8-29.4,16.4-49.6,0-.7.8-.7.8-.7ZM579.6,759.7h-7.5v-7.9h6.6v-2.2h-6.6v-9.3h7.5v19.3ZM566.9,740.3v9.3h-7v-9.3h7ZM561.4,759.7c-1.2,0-1.4-.9-1.4-1.1v-6.8h7v7.9h-5.6ZM542.9,738.6h-4.7c-3.6,0-5.3-3.4-5.2-3.4v3.4c.1,0,.1,0,.1,0v66.9h5.1v-11.3c9-8.9,11.3-24.3,4.1-35,3.1-6.5,5.6-11,6.1-19.8h0c0-.8.8-.8.8-.8l-4.8-2.6-1.5,2.5ZM542.5,749.4c-.3,3.2-1.9,11-3.2,15.1,6.6,10.5,1.6,22.9-1.2,28.2v-52h4.9c0,2.7-.1,5.6-.6,8.7ZM535,667.7h-.1v57.5c0,.7.5,1.2,1.2,1.2,2.4,0,38,0,41.5,0h0s5.1,0,5.1,0v-57.5h0c0-.8.8-.8.8-.8l-4.8-2.6-1.1,2.3h-34.7c6.9-2.6,9.1-12.7,9.1-12.7l-5.6-5.3s1.3,15-6.6,18c-2.6,0-4.5-2.1-4.9-2.9-.5-.5,0,2.8-.1,2.8h.1ZM540,669.9h37.5v54.3h-35.9c-1.4,0-1.6-.9-1.6-1.2v-53.2ZM402,868.8c.8-.6,1.8-1.7,2.4-2.6v-3.8h-2.2v-.8h3.6v4.5c2.8,2.8,8.5,1.1,11.9,1.1l-.6,1.7c-3.3,0-10.7.9-11.9-2.5-.6,1.2-1.4,2.5-2.2,3.4l-1.1-1.1ZM402.5,857.6l.3-.5c1,.5,2.3,1.2,3.2,2.1l-1.1,1.2c-.6-.8-1.6-2-2.4-2.8ZM403,854.2l.3-.5c.9.4,2.3,1.1,3.2,1.9l-1.1,1.2c-.7-.8-1.5-1.8-2.4-2.6ZM411.2,865.4h-4.3v-.8h4.3v-1.1h-3.4v-4.6h3.4v-1h-3.9v-.8h3.9v-1.3h1.5v1.3h3.8v.8h-3.8v1h3.4v4.6h-3.4v1.1h4.5v.8h-4.5v1.8h-1.5v-1.8ZM407,854.5h9.9v2.3h-1.5v-1.6h-7v1.6h-1.5v-2.3ZM411.2,860.9v-1.1h-2v1.1h2ZM411.2,862.9v-1.3h-2v1.3h2ZM414.7,860.9v-1.1h-2v1.1h2ZM414.7,862.9v-1.3h-2v1.3h2ZM436.4,857.7c-.6,6.7,1.3,14.3-4.8,10.6l.2-.6c2.1.5,2.4.3,2.5-.7.2-1.2.4-4.7.4-8.5h-1.5c-.2,5.8-1,9-4.2,11.3l-.4-.5c.6-.6,1.1-1.3,1.6-2.1-2.5,1-5.3,1.6-8.1,2l-.4-1.6c1.2,0,2.5-.2,3.7-.3v-1.5h-3.4v-.8h3.4v-1.3h-3v-5.2h3v-1.2h-3.7v-.8h3.7v-1.1c-1.1.1-2.3.2-3.4.2v-.6c2.9-.4,5.3-1,7-1.6l1.1,1.2c-1,.3-2,.5-3.1.6v1.3h3.6v.8h-3.6v1.2h3v5.2h-3v1.3h3.2v.8h-3.2v1.3c1.1-.1,2.1-.3,3.1-.5l.2.6c1-2.1,1.4-4.7,1.5-8.6h-1.5v-.8h1.5c0-1.2,0-2.6,0-4.1h1.6c0,1.5,0,2.8,0,4.1h3.1ZM424,860.7h1.5v-1.4h-1.5v1.4ZM425.5,863v-1.5h-1.5v1.5h1.5ZM427,859.4v1.4h1.6v-1.4h-1.6ZM428.6,861.5h-1.6v1.5h1.6v-1.5ZM441.6,863.5l-.4-.5c2.2-2.1,3.7-4.6,4.6-8.3l1.8.7c-1.1,3.2-3.3,6.3-6,8.1ZM455.7,868.5l-1.8,1c-.3-.8-.7-1.6-1.1-2.5-2.8.9-6.8,1.6-9.6,1.9l-.5-2c.7,0,1.4,0,2.1,0,1.2-2,2.3-4.8,3-7.2l2,.8c-1,2.3-2.6,4.8-4,6.4,2.3-.1,4.7-.3,6.6-.6-.5-.9-1-1.8-1.5-2.7l.5-.4c1.8,1.7,3.4,3.6,4.3,5.3ZM457.1,861.5l-1.4,2c-2.2-1.6-3.9-4.2-4.4-8h-2.8v-.8h3.4c.6,3.5,2.7,5.6,5.2,6.8ZM475.6,854.4v15.2h-1.5v-1h-10.6v1.1h-1.5v-15.3h13.6ZM474.1,855.2h-10.6v12.7h10.6v-12.7ZM464.1,865.3l-.2-.6c1.2-.5,2.4-1.1,3.4-1.9h-2.1v-2.8h7.1v2.8h-3.2c-.4.3-.8.6-1.2.9v1.8c.7-.2,1.3-.4,1.8-.5l.2.6c-1.4.8-3.8,1.6-5,1.9l-.5-1.3c.6,0,1.3-.2,2-.4v-1.4c-.9.4-1.8.6-2.4.8ZM473.5,859.3h-9.6v-.8h4v-1h-3.3v-.8h3.3v-1.1h1.5v1.1h3.4v.8h-3.4v1h4v.8ZM466.7,862.1h4.2v-1.3h-4.2v1.3ZM473.7,863.5c-.6.5-1.3,1-1.9,1.3.7.4,1.4.9,2,1.3l-1,1.2c-1.2-1.2-2.3-2.3-3.9-3.4l.3-.5c.7.3,1.3.6,2,1,.5-.5,1.1-1.2,1.5-1.8l1.1.8ZM71.7,789.7h-6.8v-.9h6.8v-2.5h-5.5v-.9h5.5v-6.3h1.7v6.3h5.5v.9h-5.5v2.5h6.8v.9h-6.8v5.4h-1.7v-5.4ZM66.5,780.3l.5-.4c1.2,1,2.7,2.7,3.7,4.1l-1.6,1c-.7-1.6-1.8-3.5-2.6-4.7ZM74.3,784.4c.7-1,1.8-2.8,2.6-4.6l1.7.9c-1.1,1.6-2.8,3.3-3.8,4.1l-.5-.4ZM86.7,783.1c.1,5.8-.5,10.1-2.7,12.1l-.4-.4c2.2-2.8,1.5-10.2,1.6-15h12.8v3.4h-11.2ZM86.7,780.5v1.8h9.6v-1.8h-9.6ZM98.7,789.3v.8h-3.4v4.9h-1.6v-4.9h-2.7c-.4,3-1.9,4.3-4,5.1l-.3-.5c1.9-1.1,2.6-2.6,2.8-4.6h-2.7v-.8h2.8c0-.6,0-1.9,0-2.5h-2.3v-.8h3c-.4-.8-1-1.8-1.5-2.3l.4-.5c.8.5,1.8,1.3,2.6,2.2l-.8.6h2.6c.3-.8.6-2.1.7-2.8l1.7.6c-.3.7-.9,1.6-1.6,2.3h3.7v.8h-2.9v2.5h3.4ZM93.8,786.8h-2.5c0,.6,0,1.9,0,2.5h2.6v-2.5ZM116.5,782.6v12.3h-1.5v-1.8h-10.2v1.9h-1.5v-12.3h1.5v9.7h4.3v-13.3h1.6v13.3h4.3v-9.7h1.5ZM134.3,781.9v13.1h-1.6v-1.4h-8.3v1.5h-1.6v-13.1h3.9c.4-1,.7-2,1-3.2l2.1.8c-.7,1-1.5,1.8-2.1,2.4h6.6ZM124.4,782.7v2.7h8.3v-2.7h-8.3ZM124.4,786.2v2.8h8.3v-2.8h-8.3ZM132.7,792.8v-3h-8.3v3h8.3ZM148.5,784.1h-1.9c-1.1,3.4-3.4,5.5-6.6,6.9l-.3-.6c3.1-1.7,5.4-4.6,5.8-8.6h-2.2c-.1.3-.3.6-.4.9.6.3,1.3.8,2,1.4l-1,1c-.3-.6-.9-1.3-1.3-1.8-.3.5-.6,1-1,1.4.7.4,1.4.9,2,1.6l-1.1,1c-.4-.7-.9-1.5-1.4-2.1-.4.4-.8.9-1.2,1.3l-.4-.4c1.8-2.2,2.6-4.8,3-7.4l1.7.4c-.1.6-.3,1.2-.5,1.8h1.8l.4-.3,1.5.6c0,.7-.2,1.3-.4,2h1.8c.1-1.2.2-2.6.2-4.3h1.6c0,1.7,0,3.1-.2,4.3h4v.8h-3.5c.7,2.4,2.5,4.1,4.5,5.1l-1.2,1.7c-2.4-1.6-3.4-4.2-3.9-6.8h0c-.7,3.6-2.4,5.4-5.6,6.6l-.3-.6c2.6-1.4,3.8-3,4.3-6.1ZM142.2,790.8l.6.2c-.3,1.7-1.2,3.3-1.9,4.2l-1.4-1.1c.9-.7,2.1-1.9,2.7-3.3ZM145,791c.7,1,1.4,2.6,1.8,3.6l-1.6.5c-.2-1-.4-2.7-.7-3.9l.6-.2ZM148.4,790.7c.9.9,1.9,2.4,2.5,3.5l-1.6.8c-.3-1-.9-2.7-1.4-4l.5-.3ZM152.1,782.8c-.3-.9-.7-2.1-1.1-3.1l.5-.3c.7.6,1.6,1.9,2,2.7l-1.4.7ZM154.9,794l-1.6.9c-.4-1-1.1-2.8-1.8-4l.5-.3c1,.9,2.3,2.3,2.9,3.4ZM158.3,788.8l-.4-.5c2.2-2.1,3.7-4.6,4.6-8.3l1.8.7c-1.1,3.2-3.3,6.3-6,8.1ZM172.4,793.8l-1.8,1c-.3-.8-.7-1.6-1.1-2.5-2.8.9-6.8,1.6-9.6,1.9l-.5-2c.7,0,1.4,0,2.1,0,1.2-2,2.3-4.8,3-7.2l2,.8c-1,2.3-2.6,4.8-4,6.4,2.3-.1,4.7-.3,6.6-.6-.5-.9-1-1.8-1.5-2.7l.5-.4c1.8,1.7,3.4,3.6,4.3,5.3ZM173.8,786.9l-1.4,2c-2.2-1.6-3.9-4.2-4.4-8h-2.8v-.8h3.4c.6,3.5,2.7,5.6,5.2,6.8ZM191.3,779.7v15.2h-1.5v-1h-10.6v1.1h-1.5v-15.3h13.6ZM189.7,780.5h-10.6v12.7h10.6v-12.7ZM179.7,790.7l-.2-.6c1.2-.5,2.4-1.1,3.4-1.9h-2.1v-2.8h7.1v2.8h-3.2c-.4.3-.8.6-1.2.9v1.8c.7-.2,1.3-.4,1.8-.5l.2.6c-1.4.8-3.8,1.6-5,1.9l-.5-1.3c.6,0,1.3-.2,2-.4v-1.4c-.9.4-1.8.6-2.4.8ZM189.2,784.7h-9.5v-.8h4v-1h-3.3v-.8h3.3v-1.1h1.5v1.1h3.4v.8h-3.4v1h4v.8ZM182.3,787.5h4.2v-1.3h-4.2v1.3ZM189.4,788.9c-.6.5-1.3,1-1.9,1.3.7.4,1.4.9,2,1.3l-1,1.2c-1.2-1.2-2.3-2.3-3.9-3.4l.3-.5c.7.3,1.3.6,2,1,.5-.5,1.1-1.2,1.5-1.8l1.1.8ZM315.6,1169.9v.9h-14.7v-.9h6.6v-4.4h-5v-.9h5v-3.8h-3.5c-.8,1.4-1.7,2.7-2.7,3.6l-.5-.4c1.4-1.9,2.4-4.5,2.9-7.6l1.8.5c-.3,1.1-.6,2.1-1.1,3.1h3.1v-4.3h1.6v4.3h5.3v.8h-5.3v3.8h4.9v.9h-4.9v4.4h6.5ZM322.5,1166.8l.6.2c-.2,1.5-.9,3.1-1.6,4.1l-1.3-1.1c1.1-.9,1.8-1.8,2.3-3.1ZM320.4,1157.9h1.6c.4-.6.7-1.2,1.1-2.4l1.5.5c-.7.9-1.2,1.5-1.9,2,1.2,0,2.4,0,3.5,0-.2-.4-.4-.8-.7-1.1l.5-.4c.8.7,1.4,1.3,2.1,2.3l-1.2.8c-.2-.4-.3-.7-.5-1.1-2.4.5-4.4.7-5.7.8l-.3-1.5ZM325.9,1164.3v-.6h-3.3v2.7h-1.4v-6.6h6.1v5.1c0,1.4-1.4,2.1-3.5.5l.2-.6c1.7.4,1.9.4,1.9-.5ZM322.6,1160.5v.8h3.3v-.8h-3.3ZM325.9,1163v-.9h-3.3v.9h3.3ZM332,1167.9c2.2,5-2.8,3.3-5.6,3.6-3.6.2-2.3-2.5-2.6-4.7h1.5v2.3c0,.8.2,1,1.2,1.1,1.3,0,3.2,0,4.1,0,.8-.1.9-.3.8-2.2h.6ZM326.9,1166.3c1,.3,2.3,1,3.2,1.6l-1.1,1.3c-.7-.8-1.7-1.9-2.4-2.4l.3-.5ZM328.3,1164.2v-3h1.4v2.2c1.1-.4,2.1-1.1,3.1-2l1.2,1.1c-1.2.6-3,1.1-4.4,1.4-.1,1.7,2.1,1,3.2,1,1-.1,1.2-.3,1.1-1.7h.6c.7,1.8.6,2.8-1.6,3-1.8-.1-4.9.8-4.7-2.1ZM328.4,1158.5v-2.8h1.4v2.3c1-.5,2.1-1.1,3-1.9l1.2,1.1c-1.2.6-2.9,1.1-4.2,1.4-.2,1.6,2,.9,3,1,.9-.1,1-.4,1-1.6h.6c1.3,3.5-1.7,2.8-3.7,2.9-1.9,0-2.2-.3-2.2-2.3ZM335.6,1169.8l-1.5.9c-.6-1.5-1.1-2.5-1.8-3.6l.5-.4c1.1.9,2,1.8,2.8,3.1ZM339.9,1165.5l-.4-.5c2.2-2.1,3.7-4.6,4.6-8.3l1.8.7c-1.1,3.2-3.3,6.3-6,8.1ZM354,1170.4l-1.8,1c-.3-.8-.7-1.6-1.1-2.5-2.8.9-6.8,1.6-9.6,1.9l-.5-2c.7,0,1.4,0,2.1,0,1.2-2,2.3-4.8,3-7.2l2,.8c-1,2.3-2.6,4.8-4,6.4,2.3-.1,4.7-.3,6.6-.6-.5-.9-1-1.8-1.5-2.7l.5-.4c1.8,1.7,3.4,3.6,4.3,5.3ZM355.4,1163.5l-1.4,2c-2.2-1.6-3.9-4.2-4.4-8h-2.8v-.8h3.4c.6,3.5,2.7,5.6,5.2,6.8ZM373.9,1156.4v15.2h-1.5v-1h-10.6v1.1h-1.5v-15.3h13.6ZM372.4,1157.2h-10.6v12.7h10.6v-12.7ZM362.4,1167.3l-.2-.6c1.2-.5,2.4-1.1,3.4-1.9h-2.1v-2.8h7.1v2.8h-3.2c-.4.3-.8.6-1.2.9v1.8c.7-.2,1.3-.4,1.8-.5l.2.6c-1.4.8-3.8,1.6-5,1.9l-.5-1.3c.6,0,1.3-.2,2-.4v-1.4c-.9.4-1.8.6-2.4.8ZM371.8,1161.3h-9.5v-.8h4v-1h-3.3v-.8h3.3v-1.1h1.5v1.1h3.4v.8h-3.4v1h4v.8ZM364.9,1164.1h4.2v-1.3h-4.2v1.3ZM372,1165.5c-.6.5-1.3,1-1.9,1.3.7.4,1.4.9,2,1.3l-1,1.2c-1.2-1.2-2.3-2.3-3.9-3.4l.3-.5c.7.3,1.3.6,2,1,.5-.5,1.1-1.2,1.5-1.8l1.1.8ZM431.5,1114.8c-.8-1-1.9-2.1-2.6-2.9l.3-.5c1,.4,2.4,1.2,3.4,2l-1.1,1.4ZM432.4,1116c-.3,2.4-.9,5.5-1.3,6.9l-1.7-.7c.8-1.6,1.7-4.4,2.4-6.4l.6.2ZM432.3,1111.1c-.8-1.1-1.7-2.1-2.5-2.9l.4-.5c.8.4,2.1,1.1,3.3,2.1l-1.2,1.3ZM434.5,1120.1l.6.2c-.2,1.6-.8,2.9-1.5,3.8l-1.3-1c.8-.6,1.6-1.4,2.3-3ZM437.3,1117.4c.6.8,1,1.6,1.3,2.4l-1.2.4c0-.4-.1-.7-.2-1.1-1.6.6-2.8.8-3.9.9l-.3-1.5c.4,0,.9,0,1.5,0,.4-.4.9-1,1.3-1.7-.8.2-1.7.4-2.3.5l-.3-1.4c.3,0,.6,0,.9,0,.4-.7.9-1.7,1.3-2.7h-1.1v-4.7h9v4.7h-7.7l1.2.5c-.6.9-1.3,1.7-1.9,2.2.5,0,1,0,1.5,0,.3-.5.6-1.1.8-1.6l1.5.6c-1.1,1.7-2.3,2.7-3.2,3.4.6,0,1.2,0,1.8,0,0-.3-.1-.6-.2-.9l.5-.2ZM435.6,1110.6h6.1v-1.2h-6.1v1.2ZM435.6,1112.6h6.1v-1.2h-6.1v1.2ZM436.8,1120.2c.7,1.1,1.2,2.3,1.6,3.3l-1.6.4c0-1-.2-2.3-.5-3.6l.6-.2ZM442.9,1119c-1.3.4-3.2.8-4,.9l-.3-1.4c.4,0,.8,0,1.2,0,.4-.4.8-.9,1.2-1.6-.8.2-1.7.4-2.3.4l-.2-1.4c.2,0,.5,0,.8,0,.4-.7.8-1.6,1.1-2.6l1.4.5c-.6.9-1.2,1.6-1.7,2.1.5,0,1,0,1.5,0,.3-.5.6-1,.8-1.5l1.4.7c-.7,1.2-2.1,2.4-3.1,3.2.7,0,1.4,0,2-.1,0-.3-.2-.6-.3-.9l.5-.2c.7.8,1.2,1.6,1.5,2.4l-1.2.5c0-.4-.2-.8-.3-1.2ZM439.6,1120.1c.8,1,1.5,2.1,1.9,3.1l-1.6.6c-.2-1-.5-2.2-.9-3.4l.6-.3ZM444.6,1123l-1.5.8c-.3-1.1-.8-2.4-1.4-3.5l.5-.4c1,.9,1.9,2.1,2.4,3ZM454.6,1117.6l.3.6c-1.5,1.2-3.7,2.4-5.7,3.3l-.7-1.7c.6-.1,1.5-.4,2.5-.8v-5.8h-2.3v-.8h2.3v-4.2h1.5v4.2h2.1v.8h-2.1v5.2c.7-.3,1.4-.6,2.1-.9ZM462.2,1123.2c-9.2.6-6.4-1.3-6.9-8.5l-1.7.6-.3-.7c.7-.2,1.3-.5,2-.7v-4.3h1.5v3.7c.6-.2,1.1-.4,1.7-.7v-4.8h1.4v4.2c.5-.2,1.1-.4,1.6-.7l.3-.4,1.7.4c-.2,1.7-1,5.5-1.6,6.9h-.6c.2-1.6.5-5.2.5-6.1l-1.8.7v6.6h-1.4v-6c-.6.2-1.1.4-1.7.7v6.5c0,.9.4,1.1,1.3,1.2,1.5.1,2.5.1,4,0,.9,0,1.1-.4,1.1-4.3h.7c.8,4.7.7,5.6-1.7,5.7ZM468.5,1117.5l-.4-.5c2.2-2.1,3.7-4.6,4.6-8.3l1.8.7c-1.1,3.2-3.3,6.3-6,8.1ZM482.7,1122.5l-1.8,1c-.3-.8-.7-1.6-1.1-2.5-2.8.9-6.8,1.6-9.6,1.9l-.5-2c.7,0,1.4,0,2.1,0,1.2-2,2.3-4.8,3-7.2l2,.8c-1,2.3-2.6,4.8-4,6.4,2.3-.1,4.7-.3,6.6-.6-.5-.9-1-1.8-1.5-2.7l.5-.4c1.8,1.7,3.4,3.6,4.3,5.3ZM484.1,1115.6l-1.4,2c-2.2-1.6-3.9-4.2-4.4-8h-2.8v-.8h3.4c.6,3.5,2.7,5.6,5.2,6.8ZM502.6,1108.4v15.2h-1.5v-1h-10.6v1.1h-1.5v-15.3h13.6ZM501,1109.2h-10.6v12.7h10.6v-12.7ZM491,1119.4l-.2-.6c1.2-.5,2.4-1.1,3.4-1.9h-2.1v-2.8h7.1v2.8h-3.2c-.4.3-.8.6-1.2.9v1.8c.7-.2,1.3-.4,1.8-.5l.2.6c-1.4.8-3.8,1.6-5,1.9l-.5-1.3c.6,0,1.3-.2,2-.4v-1.4c-.9.4-1.8.6-2.4.8ZM500.5,1113.4h-9.6v-.8h4v-1h-3.3v-.8h3.3v-1.1h1.5v1.1h3.4v.8h-3.4v1h4v.8ZM493.6,1116.2h4.2v-1.3h-4.2v1.3ZM500.7,1117.6c-.6.5-1.3,1-1.9,1.3.7.4,1.4.9,2,1.3l-1,1.2c-1.2-1.2-2.3-2.3-3.9-3.4l.3-.5c.7.3,1.3.6,2,1,.5-.5,1.1-1.2,1.5-1.8l1.1.8ZM610.7,1091.6c-.9,3.3-2.8,6.1-6.2,7.9l-.3-.5c3-2.3,4.1-4.6,4.6-6.9h-3.8v-.8h3.6l.5-.4,1.6.7ZM619.7,1097.4l-1.4,1.9c-2.5-1.7-4.1-4-5.2-7.5v6.7c0,2-1.7,2.8-4.9.8l.2-.6c2.8.6,3.1.4,3.1-.5v-9.3h-4.4v-.9h6.1c-.2,1.4.5,3,1.1,4.1.8-.7,1.8-1.8,2.8-3.4l1.6,1.3c-1.4,1.2-2.9,2.2-4.1,2.7,1.4,2.4,3.4,3.7,5.2,4.7ZM613.7,1087.4c-1.4-.9-3.1-1.8-4.8-2.5l.2-.6c1.6.2,4.3.9,5.4,1.5l-.8,1.7ZM625.5,1087.6c.2,1.9.2,3.9-.1,5.3l-1.7-.6c.5-1.2,1.1-2.9,1.2-4.8h.6ZM626.2,1084.6h1.5v16h-1.5v-16ZM628.7,1091.3c-.1-1.1-.4-2.6-.7-3.8l.6-.2c.6,1,1.3,2.2,1.7,3.5l-1.5.5ZM639.3,1098.9v.8h-11v-.8h6.4c.5-2.4,1.2-6.2,1.6-9.1h-3.9c-.5,2.4-1.1,4.9-1.7,6.9l-1.5-.3c.8-2.8,1.7-6.8,2.3-10h-2.6v-.8h10.1v.8h-6c-.2.8-.3,1.7-.5,2.6h3.7l.4-.3,1.6.5c-.6,3.7-1.3,7.2-1.8,9.7h3.1ZM632,1093.8c.8.4,2,1.2,2.9,2l-1.2,1.1c-.7-.9-1.3-1.7-2.1-2.6l.4-.6ZM635.4,1092.8l-1.1,1.1c-.7-1-1.3-1.8-2-2.6l.4-.5c.8.5,1.9,1.2,2.7,2.1ZM659.2,1097.6l-.5,2c-14.6,2.4-10-10-13.6.6l-1.7-.8c1.8-3,2.8-6.4,4.8-3.5,2.4-1.6,5.2-4.3,6.5-6.8h-10.5v-.9h6.1c-.9-1.2-1.8-2.3-2.6-3.3l.4-.5c1.2.6,2.9,1.8,3.9,2.9l-1,.9h3.7l.8-.5,1.8,1.1c-2.5,3.7-5.4,6-8.7,7.7,1.8,2.2,7.7,1.9,10.4,1.2ZM669.1,1095c-1.2.9-3.6,2.1-5.4,2.8l-.6-1.7c.7-.1,1.5-.3,2.3-.5v-4.2h-1.8v-.8h1.8v-4h-2v-.8h5.4v.8h-2v4h1.8v.8h-1.8v3.8c.8-.2,1.6-.5,2-.7l.3.6ZM678.8,1098.9l-.9,1.6c-2-.9-3.7-2.4-4.2-5.9h-.3c-.3.4-.7.8-1.2,1.1v2.6c.7-.2,1.4-.4,2-.6l.3.6c-1.7,1.1-3.6,1.8-5.2,2.2l-.6-1.6c.7,0,1.4-.2,2.1-.3v-2c-1.2.7-2.5,1.2-3.5,1.5l-.2-.6c1.5-.5,3.4-1.6,4.5-2.9h-2.2v-3h8.1v3h-3.2c.2.9.5,1.5.9,2.1.7-.5,1.5-1.2,2-1.9l1.2,1c-.8.6-1.9,1.1-2.8,1.5.8.8,1.8,1.3,3.2,1.7ZM668.7,1089.8h9.8v.8h-9.8v-.8ZM677.8,1088.9h-8.7v-3.7h8.7v3.7ZM671.6,1086h-1.1v2.2h1.1v-2.2ZM670.9,1093.8h5.2v-1.5h-5.2v1.5ZM674,1086h-1.1v2.2h1.1v-2.2ZM676.4,1086h-1.2v2.2h1.2v-2.2ZM551.2,1205.9v.9h-14.7v-.9h6.6v-4.4h-5v-.9h5v-3.8h-3.5c-.8,1.4-1.7,2.7-2.7,3.6l-.5-.4c1.4-1.9,2.4-4.5,2.9-7.6l1.8.5c-.3,1.1-.6,2.1-1.1,3.1h3.1v-4.3h1.6v4.3h5.3v.8h-5.3v3.8h4.9v.9h-4.9v4.4h6.5ZM558.1,1202.9l.6.2c-.2,1.5-.9,3.1-1.6,4.1l-1.3-1.1c1.1-.9,1.8-1.8,2.3-3.1ZM555.9,1193.9h1.6c.4-.6.7-1.2,1.1-2.4l1.5.5c-.7.9-1.2,1.5-1.9,2,1.2,0,2.4,0,3.5,0-.2-.4-.4-.8-.7-1.1l.5-.4c.8.7,1.4,1.3,2.1,2.3l-1.2.8c-.2-.4-.3-.7-.5-1.1-2.4.5-4.4.7-5.7.8l-.3-1.5ZM561.4,1200.4v-.6h-3.3v2.7h-1.4v-6.6h6.1v5.1c0,1.4-1.4,2.1-3.5.5l.2-.6c1.7.4,1.9.4,1.9-.5ZM558.2,1196.6v.8h3.3v-.8h-3.3ZM561.4,1199.1v-.9h-3.3v.9h3.3ZM567.6,1203.9c2.2,5-2.8,3.3-5.6,3.6-3.6.2-2.3-2.5-2.6-4.7h1.5v2.3c0,.8.2,1,1.2,1.1,1.3,0,3.2,0,4.1,0,.8-.1.9-.3.8-2.2h.6ZM562.4,1202.3c1,.3,2.3,1,3.2,1.6l-1.1,1.3c-.7-.8-1.7-1.9-2.4-2.4l.3-.5ZM563.9,1200.2v-3h1.4v2.2c1.1-.4,2.1-1.1,3.1-2l1.2,1.1c-1.2.6-3,1.1-4.4,1.4-.1,1.7,2.1,1,3.2,1,1-.1,1.2-.3,1.1-1.7h.6c.7,1.8.6,2.8-1.6,3-1.8-.1-4.9.8-4.7-2.1ZM564,1194.5v-2.8h1.4v2.3c1-.5,2.1-1.1,3-1.9l1.2,1.1c-1.2.6-2.9,1.1-4.2,1.4-.2,1.6,2,.9,3,1,.9-.1,1-.4,1-1.6h.6c1.3,3.5-1.7,2.8-3.7,2.9-1.9,0-2.2-.3-2.2-2.3ZM571.1,1205.8l-1.5.9c-.6-1.5-1.1-2.5-1.8-3.6l.5-.4c1.1.9,2,1.8,2.8,3.1ZM575.5,1195.4c1,.5,2.1,1.2,3.2,2.2l-1.2,1.3c-.7-1-1.6-2-2.4-2.9l.4-.5ZM577.9,1199.7l.6.2c-.3,2.2-.9,5.3-1.4,7l-1.7-.7c.9-1.8,1.8-4.3,2.5-6.5ZM578.4,1195c-.7-1.1-1.4-2-2.1-3l.4-.5c1,.5,2.2,1.4,3,2.3l-1.3,1.2ZM584.5,1204.9h-3.8v1.6h-1.5v-6.9h1.8v-3h-2.3v-.8h2.3v-4h1.6v4h2.4v.8h-2.4v3h1.9v5.4ZM583,1200.3h-2.4v3.9h2.4v-3.9ZM589.8,1192.4v13.6c0,1.7-1.5,2.2-3.9.8l.2-.6c2,.4,2.1.3,2.1-.6v-4.5h-1.6c-.2,3.2-1,5.1-3.1,6.8l-.4-.4c2.9-2.2,2-10.7,2.2-15h4.5ZM588.3,1200.3v-3.4h-1.5c0,1,0,2.4,0,3.4h1.5ZM586.8,1193.2v3h1.5v-3h-1.5ZM595.1,1201.5l-.4-.5c2.2-2.1,3.7-4.6,4.6-8.3l1.8.7c-1.1,3.2-3.3,6.3-6,8.1ZM609.2,1206.5l-1.8,1c-.3-.8-.7-1.6-1.1-2.5-2.8.9-6.8,1.6-9.6,1.9l-.5-2c.7,0,1.4,0,2.1,0,1.2-2,2.3-4.8,3-7.2l2,.8c-1,2.3-2.6,4.8-4,6.4,2.3-.1,4.7-.3,6.6-.6-.5-.9-1-1.8-1.5-2.7l.5-.4c1.8,1.7,3.4,3.6,4.3,5.3ZM610.6,1199.5l-1.4,2c-2.2-1.6-3.9-4.2-4.4-8h-2.8v-.8h3.4c.6,3.5,2.7,5.6,5.2,6.8ZM629.1,1192.4v15.2h-1.5v-1h-10.6v1.1h-1.5v-15.3h13.6ZM627.6,1193.2h-10.6v12.7h10.6v-12.7ZM617.6,1203.3l-.2-.6c1.2-.5,2.4-1.1,3.4-1.9h-2.1v-2.8h7.1v2.8h-3.2c-.4.3-.8.6-1.2.9v1.8c.7-.2,1.3-.4,1.8-.5l.2.6c-1.4.8-3.8,1.6-5,1.9l-.5-1.3c.6,0,1.3-.2,2-.4v-1.4c-.9.4-1.8.6-2.4.8ZM627,1197.3h-9.6v-.8h4v-1h-3.3v-.8h3.3v-1.1h1.5v1.1h3.4v.8h-3.4v1h4v.8ZM620.2,1200.1h4.2v-1.3h-4.2v1.3ZM627.2,1201.6c-.6.5-1.3,1-1.9,1.3.7.4,1.4.9,2,1.3l-1,1.2c-1.2-1.2-2.3-2.3-3.9-3.4l.3-.5c.7.3,1.3.6,2,1,.5-.5,1.1-1.2,1.5-1.8l1.1.8ZM307.6,1005.1c4.4-18.3-10.8-37.2-29.7-36.8-13.8,0-29.1,12.4-30.2,28.2h0c0,1.4,0,2.7,0,4h0c.7,10.3,6.5,19.5,15.6,24.5h29.4c7.7-4.3,13.1-11.6,15-20.1v.3ZM304.5,985.6c.4.8.8,1.7,1.2,2.6v.2c0,0-1.2,0-1.2,0v-2.8h0ZM304.5,988.9h1.4c.3,1.3.9,2.4,1,3.5h-2.4v-3.5h0ZM304.5,993h2.6c.2,1.2.4,2.4.5,3.5h-3v-3.5h0ZM304.5,997h3v3.5h-3v-3.5h0ZM304.5,1001h3c0,1.1-.3,2.3-.5,3.5h-2.6v-3.5ZM304.5,1005h2.4c-.2,1.2-.7,2.3-1,3.5h-1.5v-3.5ZM304.5,1009.1h1.2v.2c-.5,1-.8,1.7-1.2,2.6v-2.7ZM301.4,980.7c.8,1.2,1.7,2.3,2.4,3.7h-2.4v-3.7h0ZM301.4,984.8h2.6v3.5h-2.6v-3.5ZM301.4,988.9h2.6v3.5h-2.6v-3.5ZM301.4,993h2.6v3.5h-2.6v-3.5ZM301.4,997h2.6v3.5h-2.6v-3.5ZM301.4,1001h2.6v3.5h-2.6v-3.5ZM301.4,1005h2.6v3.5h-2.6v-3.5ZM301.4,1009.1h2.6v3.5h-2.6v-3.5ZM301.4,1013.1h2.4c-.6,1.2-1.5,2.4-2.4,3.7v-3.7ZM298.3,977.2c1,1,2,2,2.8,3h-2.8v-3h0ZM298.3,980.8h2.6v3.5h-2.6v-3.5ZM298.3,984.8h2.6v3.5h-2.6v-3.5ZM298.3,988.9h2.6v3.5h-2.6v-3.5ZM298.3,993h2.6v3.5h-2.6v-3.5ZM298.3,997h2.6v3.5h-2.6v-3.5ZM298.3,1001h2.6v3.5h-2.6v-3.5ZM298.3,1005h2.6v3.5h-2.6v-3.5ZM298.3,1009.1h2.6v3.5h-2.6v-3.5ZM298.3,1013.1h2.6v3.5h-2.6v-3.5ZM292.1,972.7c1.9,1,3.5,2.2,5.1,3.5h-5.1v-3.5h0ZM292.1,976.7h2.6v3.5h-2.6v-3.5ZM292.1,984.8h2.6v3.5h-2.6v-3.5ZM292.1,988.9h2.6v3.5h-2.6v-3.5ZM292.1,993h2.6v3.5h-2.6v-3.5ZM292.1,997h2.6v3.5h-2.6v-3.5ZM292.1,1001h2.6v3.5h-2.6v-3.5ZM292.1,1005h2.6v3.5h-2.6v-3.5ZM292.1,1009.1h2.6v3.5h-2.6v-3.5ZM292.1,1013.1h2.6v3.5h-2.6v-3.5ZM289.1,971.2h.2c.5.4,1.3.6,1.9.9h-2.1v-.9h0ZM258.1,976.7h2.6v3.5h-2.6v-3.5ZM258.1,980.8h2.6v3.5h-2.6v-3.5ZM258.1,984.8h2.6v3.5h-2.6v-3.5ZM258.1,988.9h2.6v3.5h-2.6v-3.5ZM258.1,993h2.6v3.5h-2.6v-3.5ZM258.1,997h2.6v3.5h-2.6v-3.5ZM258.1,1001h2.6v3.5h-2.6v-3.5ZM258.1,1005h2.6v3.5h-2.6v-3.5ZM258.1,1009.1h2.6v3.5h-2.6v-3.5ZM258.1,1013.1h2.6v3.5h-2.6v-3.5ZM251.5,1011.8l-.3-.7h.1c0,0-.1,0-.1,0-.2-.6-.5-1.2-.8-1.8v-.2c0,0,1.1,0,1.1,0v2.7h0ZM251.5,1008.5h-1.3c-.3-1.3-.9-2.4-1-3.5h2.3v3.5ZM251.5,1004.5h-2.5c-.2-1.2-.4-2.4-.5-3.5h2.9v3.5h0ZM251.5,1000.4h-3v-3.5h3v3.5h0ZM251.5,996.4h-2.9c0-1.1.3-2.3.5-3.5h2.5v3.5h0ZM251.5,992.4h-2.4c.2-1.2.7-2.3,1-3.5h1.4v3.5h0ZM250.3,988.3v-.2c.4-.8.8-1.7,1.2-2.5v2.7h-1.2ZM254.5,1016.7c-.8-1.1-1.6-2.3-2.3-3.6h2.4v3.5h0ZM254.5,1012.6h-2.6v-3.5h2.6v3.5ZM254.5,1008.5h-2.6v-3.5h2.6v3.5ZM254.5,1004.5h-2.6v-3.5h2.6v3.5ZM254.5,1000.4h-2.6v-3.5h2.6v3.5ZM254.5,996.4h-2.6v-3.5h2.6v3.5ZM254.5,992.4h-2.6v-3.5h2.6v3.5ZM254.5,988.3h-2.6v-3.5h2.6v3.5ZM254.5,984.3h-2.3c.7-1.2,1.5-2.4,2.4-3.5v3.5h0ZM257.6,1020.2c-1.1-1.1-2-2-2.7-3h2.7v3h0ZM257.6,1016.6h-2.6v-3.5h2.6v3.5ZM257.6,1012.6h-2.6v-3.5h2.6v3.5ZM257.6,1008.5h-2.6v-3.5h2.6v3.5ZM257.6,1004.5h-2.6v-3.5h2.6v3.5ZM257.6,1000.4h-2.6v-3.5h2.6v3.5ZM257.6,996.4h-2.6v-3.5h2.6v3.5ZM257.6,992.4h-2.6v-3.5h2.6v3.5ZM257.6,988.3h-2.6v-3.5h2.6v3.5ZM257.6,984.3h-2.6v-3.5h2.6v3.5ZM257.6,980.2h-2.7c.7-.9,1.7-1.9,2.7-3v3ZM258.1,1017.2h2.6v3.5h-2.6v-3.5ZM263.7,1024.7c-1.8-1-3.5-2.2-5-3.4h5v3.5h0ZM263.7,1020.7h-2.6v-3.5h2.6v3.5ZM263.7,1016.6h-2.6v-3.5h2.6v3.5ZM263.7,1012.6h-2.6v-3.5h2.6v3.5ZM263.7,1008.5h-2.6v-3.5h2.6v3.5ZM263.7,1004.5h-2.6v-3.5h2.6v3.5ZM263.7,1000.4h-2.6v-3.5h2.6v3.5ZM263.7,996.4h-2.6v-3.5h2.6v3.5ZM263.7,992.4h-2.6v-3.5h2.6v3.5ZM263.7,988.3h-2.6v-3.5h2.6v3.5ZM263.7,984.3h-2.6v-3.5h2.6v3.5ZM263.7,980.2h-2.6v-3.5h2.6v3.5ZM263.7,976.2h-5c1.5-1.2,3.2-2.4,5-3.4v3.5h0ZM266.9,1024.7h-2.6v-3.5h2.6v3.5ZM266.9,1016.6h-2.6v-3.5h2.6v3.5ZM266.9,1012.6h-2.6v-3.5h2.6v3.5ZM266.9,1008.5h-2.6v-3.5h2.6v3.5ZM266.9,1004.5h-2.6v-3.5h2.6v3.5ZM266.9,1000.4h-2.6v-3.5h2.6v3.5ZM266.9,996.4h-2.6v-3.5h2.6v3.5ZM266.9,992.4h-2.6v-3.5h2.6v3.5ZM266.9,988.3h-2.6v-3.5h2.6v3.5ZM266.9,984.3h-2.6v-3.5h2.6v3.5ZM266.9,976.2h-2.6v-3.5h2.6v3.5ZM266.9,972.2h-2c.6-.3,1.4-.6,2-.9v.9h0ZM270,1020.7h-2.6v-3.5h2.6v3.5ZM270,1012.6h-2.6v-3.5h2.6v3.5ZM270,1008.5h-2.6v-3.5h2.6v3.5ZM270,1004.5h-2.6v-3.5h2.6v3.5ZM270,1000.4h-2.6v-3.5h2.6v3.5ZM270,996.4h-2.6v-3.5h2.6v3.5ZM270,992.4h-2.6v-3.5h2.6v3.5ZM270,988.3h-2.6v-3.5h2.6v3.5ZM270,980.2h-2.6v-3.5h2.6v3.5ZM270,976.2h-2.6v-3.5h2.6v3.5ZM270,972.2h-2.6v-1.1h.1c.8-.3,1.6-.7,2.5-.8v1.9h0ZM273.1,1024.7h-2.6v-3.5h2.6v3.5ZM273.1,1016.6h-2.6v-3.5h2.6v3.5ZM273.1,1012.6h-2.6v-3.5h2.6v3.5ZM273.1,1008.5h-2.6v-3.5h2.6v3.5ZM273.1,1004.5h-2.6v-3.5h2.6v3.5ZM273.1,1000.4h-2.6v-3.5h2.6v3.5ZM273.1,996.4h-2.6v-3.5h2.6v3.5ZM273.1,992.4h-2.6v-3.5h2.6v3.5ZM273.1,988.3h-2.6v-3.5h2.6v3.5ZM273.1,984.3h-2.6v-3.5h2.6v3.5ZM273.1,980.2h-2.6v-3.5h2.6v3.5ZM273.1,976.2h-2.6v-3.5h2.6v3.5ZM273.1,972.2h-2.6v-2.1c.9-.2,1.7-.5,2.6-.5v2.6h0ZM276.1,1024.7h-2.6v-3.5h2.6v3.5ZM276.1,1020.7h-2.6v-3.5h2.6v3.5ZM276.1,1016.6h-2.6v-3.5h2.6v3.5ZM276.1,1012.6h-2.6v-3.5h2.6v3.5ZM276.1,1008.5h-2.6v-3.5h2.6v3.5ZM276.1,1004.5h-2.6v-3.5h2.6v3.5ZM276.1,1000.4h-2.6v-3.5h2.6v3.5ZM276.1,996.4h-2.6v-3.5h2.6v3.5ZM276.1,992.4h-2.6v-3.5h2.6v3.5ZM276.1,988.3h-2.6v-3.5h2.6v3.5ZM276.1,984.3h-2.6v-3.5h2.6v3.5ZM276.1,980.2h-2.6v-3.5h2.6v3.5ZM276.1,976.2h-2.6v-3.5h2.6v3.5ZM276.1,972.2h-2.6v-2.7c.8,0,1.7-.2,2.6-.2v3h0ZM279.2,1024.7h-2.6v-3.5h2.6v3.5ZM279.2,1020.7h-2.6v-3.5h2.6v3.5ZM279.2,1016.6h-2.6v-3.5h2.6v3.5ZM279.2,1012.6h-2.6v-3.5h2.6v3.5ZM279.2,1008.5h-2.6v-3.5h2.6v3.5ZM279.2,1004.5h-2.6v-3.5h2.6v3.5ZM279.2,1000.4h-2.6v-3.5h2.6v3.5ZM279.2,996.4h-2.6v-3.5h2.6v3.5ZM279.2,992.4h-2.6v-3.5h2.6v3.5ZM279.2,988.3h-2.6v-3.5h2.6v3.5ZM279.2,984.3h-2.6v-3.5h2.6v3.5ZM279.2,980.2h-2.6v-3.5h2.6v3.5ZM279.2,972.2h-2.6v-3h2.4v3h.1ZM282.3,1024.7h-2.6v-3.5h2.6v3.5ZM282.3,1020.7h-2.6v-3.5h2.6v3.5ZM282.3,1012.6h-2.6v-3.5h2.6v3.5ZM282.3,1008.5h-2.6v-3.5h2.6v3.5ZM282.3,1004.5h-2.6v-3.5h2.6v3.5ZM282.3,1000.4h-2.6v-3.5h2.6v3.5ZM282.3,996.4h-2.6v-3.5h2.6v3.5ZM282.3,992.4h-2.6v-3.5h2.6v3.5ZM282.3,988.3h-2.6v-3.5h2.6v3.5ZM282.3,984.3h-2.6v-3.5h2.6v3.5ZM282.3,980.2h-2.6v-3.5h2.6v3.5ZM282.3,976.2h-2.6v-3.5h2.6v3.5ZM282.3,972.2h-2.6v-3c.8,0,1.7.2,2.6.2v2.7ZM285.4,1024.7h-2.6v-3.5h2.6v3.5ZM285.4,1020.7h-2.6v-3.5h2.6v3.5ZM285.4,1016.6h-2.6v-3.5h2.6v3.5ZM285.4,1012.6h-2.6v-3.5h2.6v3.5ZM285.4,1008.5h-2.6v-3.5h2.6v3.5ZM285.4,1004.5h-2.6v-3.5h2.6v3.5ZM285.4,1000.4h-2.6v-3.5h2.6v3.5ZM285.4,996.4h-2.6v-3.5h2.6v3.5ZM285.4,992.4h-2.6v-3.5h2.6v3.5ZM285.4,988.3h-2.6v-3.5h2.6v3.5ZM285.4,984.3h-2.6v-3.5h2.6v3.5ZM285.4,980.2h-2.6v-3.5h2.6v3.5ZM285.4,976.2h-2.6v-3.5h2.6v3.5ZM285.4,972.2h-2.6v-2.7c.8,0,1.6.4,2.6.5v2.1ZM288.5,1024.7h-2.6v-3.5h2.6v3.5ZM288.5,1020.7h-2.6v-3.5h2.6v3.5ZM288.5,1016.6h-2.6v-3.5h2.6v3.5ZM288.5,1012.6h-2.6v-3.5h2.6v3.5ZM288.5,1008.5h-2.6v-3.5h2.6v3.5ZM288.5,1004.5h-2.6v-3.5h2.6v3.5ZM288.5,1000.4h-2.6v-3.5h2.6v3.5ZM288.5,996.4h-2.6v-3.5h2.6v3.5ZM288.5,992.4h-2.6v-3.5h2.6v3.5ZM288.5,988.3h-2.6v-3.5h2.6v3.5ZM288.5,984.3h-2.6v-3.5h2.6v3.5ZM288.5,980.2h-2.6v-3.5h2.6v3.5ZM288.5,976.2h-2.6v-3.5h2.6v3.5ZM288.5,972.2h-2.6v-1.9c.9.2,1.7.6,2.5.9h.1v1.2h0ZM291.6,1024.7h-2.6v-3.5h2.6v3.5ZM291.6,1020.7h-2.6v-3.5h2.6v3.5ZM291.6,1016.6h-2.6v-3.5h2.6v3.5ZM291.6,1012.6h-2.6v-3.5h2.6v3.5ZM291.6,1008.5h-2.6v-3.5h2.6v3.5ZM291.6,1004.5h-2.6v-3.5h2.6v3.5ZM291.6,1000.4h-2.6v-3.5h2.6v3.5ZM291.6,996.4h-2.6v-3.5h2.6v3.5ZM291.6,992.4h-2.6v-3.5h2.6v3.5ZM291.6,988.3h-2.6v-3.5h2.6v3.5ZM291.6,984.3h-2.6v-3.5h2.6v3.5ZM291.6,980.2h-2.6v-3.5h2.6v3.5ZM291.6,976.2h-2.6v-3.5h2.6v3.5ZM296.9,1021.4c-1.5,1.2-3.1,2.3-4.8,3.2v-3.5h5.1l-.3.2h0ZM297.8,1020.7h-2.6v-3.5h2.6v3.5ZM297.8,1012.6h-2.6v-3.5h2.6v3.5ZM297.8,1008.5h-2.6v-3.5h2.6v3.5ZM297.8,1004.5h-2.6v-3.5h2.6v3.5ZM297.8,1000.4h-2.6v-3.5h2.6v3.5ZM297.8,996.4h-2.6v-3.5h2.6v3.5ZM297.8,992.4h-2.6v-3.5h2.6v3.5ZM297.8,988.3h-2.6v-3.5h2.6v3.5ZM297.8,984.3h-2.6v-3.5h2.6v3.5ZM297.8,980.2h-2.6v-3.5h2.6v3.5ZM298.3,1020.2v-3h2.8c-.8,1.1-1.8,2.1-2.8,3h0Z"/>
  <path fill="#aa0c24" d="M576.4,698.8h-36.4v-2.2h31.6l1.1-2.2,3.7,2.2v2.2ZM573.9,783.7c0,0-.2,0-.1.1,1.5,2.2,2.9,4.6,3.5,7.2.2.7.3,1.4.3,2.1,0,1.3-.7,2.6-.1,3.9.5,1.3,3.1,2.4,3.9.7,2.7-5.3-5.2-12.3-7.4-14.1ZM417.6,880.7c-.2-.3-.6-.7-1.2-1-.7-.4-1-.8-1-1.3,0-.2.1-.4.3-.6.2-.2.4-.2.7-.2s.5,0,.7.2c.2.1.3.2.4.4l.2-.2c-.2-.2-.4-.4-.8-.5-.1,0-.3,0-.5,0-.4,0-.7.1-1,.3-.3.2-.4.5-.4.8,0,.7.4,1.3,1.2,1.8.8.4,1.2.9,1.2,1.5s-.1.6-.3.8c-.2.2-.5.3-.8.3s-.9-.2-1.2-.5l-.2.3c.4.3.9.5,1.4.5s.8-.1,1.1-.4c.3-.3.5-.6.5-1.1s0-.7-.3-1ZM420.4,877.4c-.6,0-1,0-1.3,0v5.6h.5v-5.5h.6c1.1,0,1.6.4,1.6,1.4s-.1.7-.4,1c-.3.3-.6.4-1.1.4h-.2v.2c0,0,.2,0,.3,0,.5,0,.9-.1,1.3-.4.4-.3.5-.7.5-1.1,0-1-.7-1.5-2-1.5ZM428.4,878.2c-.5-.6-1.2-.8-2-.8s-1.5.3-2,.8c-.5.5-.8,1.2-.8,2s.3,1.5.8,2c.5.6,1.2.8,2,.8s1.5-.3,2-.8c.5-.5.8-1.2.8-2s-.3-1.5-.8-2ZM428,882.1c-.4.5-1,.8-1.6.8s-1.2-.3-1.6-.8c-.4-.5-.6-1.2-.6-1.9s.2-1.4.6-1.9c.4-.5,1-.8,1.6-.8s1.2.3,1.6.8c.4.5.6,1.2.6,1.9s-.2,1.4-.6,1.9ZM432.1,880.1c.4,0,.7-.2,1-.4.2-.2.4-.5.4-.9,0-.9-.7-1.4-2-1.4-.6,0-.9,0-1,0v5.7h.5v-5.5h.4c1,0,1.5.4,1.5,1.2s-.4,1.1-1.2,1.1-.2,0-.3,0l1.8,3.1h.6l-1.7-3ZM438.1,877.4h-3.5v.2h1.5v5.5h.6v-5.5h1.5v-.2ZM441.6,880.7c-.2-.3-.6-.7-1.2-1-.7-.4-1-.8-1-1.3,0-.2.1-.4.3-.6.2-.2.4-.2.7-.2s.5,0,.7.2c.2.1.3.2.4.4l.2-.2c-.2-.2-.4-.4-.8-.5-.1,0-.3,0-.5,0-.4,0-.7.1-1,.3-.3.2-.4.5-.4.8,0,.7.4,1.3,1.2,1.8.8.4,1.2.9,1.2,1.5s-.1.6-.3.8c-.2.2-.5.3-.8.3s-.9-.2-1.2-.5l-.2.3c.4.3.9.5,1.4.5s.8-.1,1.1-.4c.3-.3.5-.6.5-1.1s0-.7-.3-1ZM446.7,877.4c-.6,0-1,0-1.3,0v5.6h.5v-5.5h.6c1.1,0,1.6.4,1.6,1.4s-.1.7-.4,1c-.3.3-.6.4-1.1.4h-.2v.2c0,0,.2,0,.3,0,.5,0,.9-.1,1.3-.4.4-.3.5-.7.5-1.1,0-1-.7-1.5-2-1.5ZM451.5,877.3l-2.2,5.7h.2s1.8-4.8,1.8-4.8l.9,2.2h-1.2v.2h1.3l.9,2.4h.6l-2.2-5.7ZM456.7,880.1c.4,0,.7-.2,1-.4.2-.2.4-.5.4-.9,0-.9-.7-1.4-2-1.4-.6,0-.9,0-1,0v5.7h.5v-5.5h.4c1,0,1.5.4,1.5,1.2s-.4,1.1-1.2,1.1-.2,0-.3,0l1.8,3.1h.6l-1.7-3ZM460.2,877.4h-.6v5.7h.6v-5.7ZM460.9,879.9l2.1-2.5h-.2s-2.4,2.7-2.4,2.7l2.2,2.9h.7l-2.4-3.2ZM107.7,803.3h-.2v4.6l-3.5-4.7v5.7h.2v-4.6l3.5,4.7v-5.7ZM110.9,803.2l-2.2,5.7h.2s1.8-4.8,1.8-4.8l.9,2.2h-1.2v.2h1.3l.9,2.4h.6l-2.2-5.7ZM116.9,803.2h-3.5v.2h1.5v5.5h.6v-5.5h1.5v-.2ZM121.8,803.3h-.6v3.9c0,1.1-.5,1.7-1.4,1.7s-1.4-.6-1.4-1.7v-3.9h-.6v3.9c0,.6.2,1,.6,1.4.4.3.8.5,1.3.5s1-.2,1.3-.5c.4-.3.6-.8.6-1.4v-3.9ZM124.9,805.9c.4,0,.7-.2,1-.4.2-.2.4-.5.4-.9,0-.9-.7-1.4-2-1.4-.6,0-.9,0-1,0v5.7h.5v-5.5h.4c1,0,1.5.4,1.5,1.2s-.4,1.1-1.2,1.1-.2,0-.3,0l1.8,3.1h.6l-1.7-3ZM130.5,808.7h-2.1v-2.9h1.8v-.2h-1.8v-2.3h2v-.2h-2.5v5.7h2.6v-.2ZM135.3,803.2c-.6,0-1,0-1.3,0v5.6h.5v-5.5h.6c1.1,0,1.6.4,1.6,1.4s-.1.7-.4,1c-.3.3-.6.4-1.1.4h-.2v.2c0,0,.2,0,.3,0,.5,0,.9-.1,1.3-.4.4-.3.5-.7.5-1.1,0-1-.7-1.5-2-1.5ZM140.1,803.2l-2.2,5.7h.2s1.9-4.8,1.9-4.8l.9,2.2h-1.2v.2h1.3l.9,2.4h.6l-2.2-5.7ZM145.3,805.9c.4,0,.7-.2,1-.4.2-.2.4-.5.4-.9,0-.9-.7-1.4-2-1.4-.6,0-.9,0-1,0v5.7h.5v-5.5h.4c1,0,1.5.4,1.5,1.2s-.4,1.1-1.2,1.1-.2,0-.3,0l1.8,3.1h.6l-1.7-3ZM148.8,803.3h-.6v5.7h.6v-5.7ZM149.5,805.8l2.1-2.5h-.2s-2.4,2.7-2.4,2.7l2.2,2.9h.7l-2.4-3.2ZM443.9,1131.8l-1.3,4.5-1.5-4.6-1.4,4.5-1.3-4.4h-.6s1.6,5.7,1.6,5.7l1.4-4.6,1.6,4.6,1.7-5.7h-.2ZM447.8,1137.3h-2.1v-2.9h1.8v-.2h-1.8v-2.3h2v-.2h-2.5v5.7h2.6v-.2ZM452.4,1131.8h-3.5v.2h1.5v5.5h.6v-5.5h1.5v-.2ZM456.4,1137.3h-2.1v-5.5h-.6v5.7h2.6v-.2ZM459.3,1131.7l-2.2,5.7h.2s1.8-4.8,1.8-4.8l.9,2.2h-1.2v.2h1.3l.9,2.4h.6l-2.2-5.7ZM466.5,1131.8h-.2v4.6l-3.5-4.7v5.7h.2v-4.6l3.5,4.7v-5.7ZM471,1132.3c-.5-.3-1.1-.5-1.8-.5h-1.4v5.6h1.4c.6,0,1.2-.2,1.8-.5.8-.5,1.1-1.3,1.1-2.3s-.4-1.8-1.1-2.3ZM470.7,1136.8c-.5.3-1.1.5-1.8.5h-.5v-5.3h.6c.7,0,1.2.2,1.7.5.6.5,1,1.2,1,2.1,0,1-.3,1.7-.9,2.2ZM477.7,1131.8c-.6,0-1,0-1.3,0v5.6h.5v-5.5h.6c1.1,0,1.6.4,1.6,1.4s-.1.7-.4,1c-.3.3-.6.4-1.1.4h-.2v.2c0,0,.2,0,.3,0,.5,0,.9-.1,1.3-.4.4-.3.5-.7.5-1.1,0-1-.7-1.5-2-1.5ZM482.5,1131.7l-2.2,5.7h.2s1.8-4.8,1.8-4.8l.9,2.2h-1.2v.2h1.3l.9,2.4h.6l-2.2-5.7ZM487.7,1134.5c.4,0,.7-.2,1-.4.2-.2.4-.5.4-.9,0-.9-.7-1.4-2-1.4-.6,0-.9,0-1,0v5.7h.5v-5.5h.4c1,0,1.5.4,1.5,1.2s-.4,1.1-1.2,1.1-.2,0-.3,0l1.8,3.1h.6l-1.7-3ZM491.2,1131.8h-.6v5.7h.6v-5.7ZM491.9,1134.3l2.1-2.5h-.2s-2.4,2.7-2.4,2.7l2.2,2.9h.7l-2.4-3.2ZM305,1184.4h-2.1v-2.9h1.8v-.2h-1.8v-2.3h2v-.2h-2.5v5.7h2.6v-.2ZM310.2,1183.6c-.3.6-.8.9-1.5.9s-1-.3-1.4-.8c-.4-.5-.6-1.2-.6-1.9s.2-1.4.5-1.9c.3-.5.8-.8,1.3-.8s1,.2,1.4.6l.2-.3c-.4-.4-1-.6-1.7-.6s-1.3.3-1.7.9c-.5.6-.7,1.2-.7,2s.3,1.4.8,2c.5.6,1.1.9,1.8.9s1.3-.3,1.7-.8l-.2-.2ZM316.7,1179.7c-.5-.6-1.2-.8-2-.8s-1.5.3-2,.8c-.5.5-.8,1.2-.8,2s.3,1.5.8,2c.5.6,1.2.8,2,.8s1.5-.3,2-.8c.5-.5.8-1.2.8-2s-.3-1.5-.8-2ZM316.3,1183.7c-.4.5-1,.8-1.6.8s-1.2-.3-1.6-.8c-.4-.5-.6-1.2-.6-1.9s.2-1.4.6-1.9c.4-.5,1-.8,1.6-.8s1.2.3,1.6.8c.4.5.6,1.2.6,1.9s-.2,1.4-.6,1.9ZM321.4,1184.4h-2.1v-5.5h-.6v5.7h2.6v-.2ZM327.4,1179.7c-.5-.6-1.2-.8-2-.8s-1.5.3-2,.8c-.5.5-.8,1.2-.8,2s.3,1.5.8,2c.5.6,1.2.8,2,.8s1.5-.3,2-.8c.5-.5.8-1.2.8-2s-.3-1.5-.8-2ZM327,1183.7c-.4.5-1,.8-1.6.8s-1.2-.3-1.6-.8c-.4-.5-.6-1.2-.6-1.9s.2-1.4.6-1.9c.4-.5,1-.8,1.6-.8s1.2.3,1.6.8c.4.5.6,1.2.6,1.9s-.2,1.4-.6,1.9ZM333.7,1181.8h-.5v2.2c-.3.3-.7.4-1.2.4s-1-.3-1.4-.8c-.4-.5-.6-1.2-.6-1.9s.2-1.4.5-1.9c.3-.5.8-.8,1.3-.8s1.1.2,1.5.7l.2-.2c-.4-.4-1-.6-1.7-.6s-1.3.3-1.7.9c-.5.6-.7,1.2-.7,2s.3,1.4.8,2c.5.6,1.1.9,1.8.9s1.3-.3,1.7-.9v-2ZM335.8,1178.9h-.6v5.6h.6v-5.6ZM341.5,1183.6c-.3.6-.8.9-1.5.9s-1-.3-1.4-.8c-.4-.5-.6-1.2-.6-1.9s.2-1.4.5-1.9c.3-.5.8-.8,1.3-.8s1,.2,1.4.6l.2-.3c-.4-.4-1-.6-1.7-.6s-1.3.3-1.7.9c-.5.6-.7,1.2-.7,2s.3,1.4.8,2c.5.6,1.1.9,1.8.9s1.3-.3,1.7-.8l-.2-.2ZM344.9,1178.8l-2.2,5.7h.2s1.8-4.8,1.8-4.8l.9,2.2h-1.2v.2h1.3l.9,2.4h.6l-2.2-5.7ZM351,1184.4h-2.1v-5.5h-.6v5.7h2.6v-.2ZM355.7,1178.9c-.6,0-1,0-1.3,0v5.6h.5v-5.5h.6c1.1,0,1.6.4,1.6,1.4s-.1.7-.4,1c-.3.3-.6.4-1.1.4h-.2v.2c0,0,.2,0,.3,0,.5,0,.9-.1,1.3-.4.4-.3.5-.7.5-1.1,0-1-.7-1.5-2-1.5ZM360.5,1178.8l-2.2,5.7h.2s1.8-4.8,1.8-4.8l.9,2.2h-1.2v.2h1.3l.9,2.4h.6l-2.2-5.7ZM365.7,1181.6c.4,0,.7-.2,1-.4.2-.2.4-.5.4-.9,0-.9-.7-1.4-2-1.4-.6,0-.9,0-1,0v5.7h.5v-5.5h.4c1,0,1.5.4,1.5,1.2s-.4,1.1-1.2,1.1-.2,0-.3,0l1.8,3.1h.6l-1.7-3ZM369.2,1178.9h-.6v5.7h.6v-5.7ZM370,1181.4l2.1-2.5h-.2s-2.4,2.7-2.4,2.7l2.2,2.9h.7l-2.4-3.2ZM558,1221.8h-2.1v-2.9h1.8v-.2h-1.8v-2.3h2v-.2h-2.5v5.7h2.6v-.2ZM563.2,1221c-.3.6-.8.9-1.5.9s-1-.3-1.4-.8c-.4-.5-.6-1.2-.6-1.9s.2-1.4.5-1.9c.3-.5.8-.8,1.3-.8s1,.2,1.4.6l.2-.3c-.4-.4-1-.6-1.7-.6s-1.3.3-1.7.9c-.5.6-.7,1.2-.7,2s.3,1.4.8,2c.5.6,1.1.9,1.8.9s1.3-.3,1.7-.8l-.2-.2ZM569.7,1217.1c-.5-.6-1.2-.8-2-.8s-1.5.3-2,.8c-.5.5-.8,1.2-.8,2s.3,1.5.8,2c.5.6,1.2.8,2,.8s1.5-.3,2-.8c.5-.5.8-1.2.8-2s-.3-1.5-.8-2ZM569.3,1221.1c-.4.5-1,.8-1.6.8s-1.2-.3-1.6-.8c-.4-.5-.6-1.2-.6-1.9s.2-1.4.6-1.9c.4-.5,1-.8,1.6-.8s1.2.3,1.6.8c.4.5.6,1.2.6,1.9s-.2,1.4-.6,1.9ZM576.7,1221.8h-2.1v-5.5h-.6v5.7h2.6v-.2ZM579.6,1216.2l-2.2,5.7h.2s1.8-4.8,1.8-4.8l.9,2.2h-1.2v.2h1.3l.9,2.4h.6l-2.2-5.7ZM583.7,1216.3h-.6v5.7h.6v-5.7ZM584.4,1218.8l2.1-2.5h-.2s-2.4,2.7-2.4,2.7l2.2,2.9h.7l-2.4-3.2ZM590.6,1221.8h-2.1v-2.9h1.8v-.2h-1.8v-2.3h2v-.2h-2.5v5.7h2.6v-.2ZM595.4,1216.3c-.6,0-1,0-1.3,0v5.6h.5v-5.5h.6c1.1,0,1.6.4,1.6,1.4s-.1.7-.4,1c-.3.3-.6.4-1.1.4h-.2v.2c0,0,.2,0,.3,0,.5,0,.9-.1,1.3-.4.4-.3.5-.7.5-1.1,0-1-.7-1.5-2-1.5ZM600.2,1216.2l-2.2,5.7h.2s1.8-4.8,1.8-4.8l.9,2.2h-1.2v.2h1.3l.9,2.4h.6l-2.2-5.7ZM605.4,1219c.4,0,.7-.2,1-.4.2-.2.4-.5.4-.9,0-.9-.7-1.4-2-1.4-.6,0-.9,0-1,0v5.7h.5v-5.5h.4c1,0,1.5.4,1.5,1.2s-.4,1.1-1.2,1.1-.2,0-.3,0l1.8,3.1h.6l-1.7-3ZM608.9,1216.3h-.6v5.7h.6v-5.7ZM609.6,1218.8l2.1-2.5h-.2s-2.4,2.7-2.4,2.7l2.2,2.9h.7l-2.4-3.2ZM618.8,1114.2h-2.1v-2.9h1.8v-.2h-1.8v-2.3h2v-.2h-2.5v5.7h2.6v-.2ZM623.6,1108.7h-3.5v.2h1.5v5.5h.6v-5.5h1.5v-.2ZM627.6,1114.2h-2.1v-2.9h1.8v-.2h-1.8v-2.3h2v-.2h-2.5v5.7h2.6v-.2ZM630.5,1111.4c.4,0,.7-.2,1-.4.2-.2.4-.5.4-.9,0-.9-.7-1.4-2-1.4-.6,0-.9,0-1,0v5.7h.5v-5.5h.4c1,0,1.5.4,1.5,1.2s-.4,1.1-1.2,1.1-.2,0-.3,0l1.8,3.1h.6l-1.7-3ZM637.1,1108.7h-.2v4.6l-3.5-4.7v5.7h.2v-4.6l3.5,4.7v-5.7ZM640.2,1108.6l-2.2,5.7h.2s1.8-4.8,1.8-4.8l.9,2.2h-1.2v.2h1.3l.9,2.4h.6l-2.2-5.7ZM646.4,1114.2h-2.1v-5.5h-.6v5.7h2.6v-.2ZM651.5,1111.4c.4,0,.7-.2,1-.4.2-.2.4-.5.4-.9,0-.9-.7-1.4-2-1.4-.6,0-.9,0-1,0v5.7h.5v-5.5h.4c1,0,1.5.4,1.5,1.2s-.4,1.1-1.2,1.1-.2,0-.3,0l1.8,3.1h.6l-1.7-3ZM655,1108.7h-.6v5.6h.6v-5.6ZM660.4,1108.7h-.2v4.6l-3.5-4.7v5.7h.2v-4.6l3.5,4.7v-5.7ZM666,1111.6h-.5v2.2c-.3.3-.7.4-1.2.4s-1-.3-1.4-.8c-.4-.5-.6-1.2-.6-1.9s.2-1.4.5-1.9c.3-.5.8-.8,1.3-.8s1.1.2,1.5.7l.2-.2c-.4-.4-1-.6-1.7-.6s-1.3.3-1.7.9c-.5.6-.7,1.2-.7,2s.3,1.4.8,2c.5.6,1.1.9,1.8.9s1.3-.3,1.7-.9v-2Z"/>
  <path fill="#e60012" d="M311.2,1031.7h-66.3v-2.4h66.3v2.4ZM243.9,985.7c-.9,1.3-2,2.6-3.2,3.7s-2.7,2.2-4.4,3.2v.6h2.6v8.6c0,1.7,0,2.7.2,3.1.2.7.8,1.3,1.6,1.9.9.5,1.9.9,3.2.9,2.6,0,4.4-1.1,5.5-3.3l-.6-.4c-.8,1.1-1.6,1.7-2.6,1.7s-.5,0-.7-.2c-.2-.2-.4-.4-.5-.7-.1-.2-.2-.9-.2-1.8v-9.8h4.6v-1.7h-4.6v-5.8h-.7ZM262.7,991.1c-.3.4-.5.6-.7.7-.2,0-.4.1-.6.1s-.5,0-.9-.2c-1-.4-2-.6-3-.6-1.9,0-3.5.5-4.5,1.5-1,1-1.5,2.1-1.5,3.3s.5,2.1,1.4,3,2,1.5,4.1,2.7c1.5.8,2.4,1.4,2.8,1.8.4.4.6.9.6,1.4s-.2.9-.6,1.2-1,.5-1.6.5c-1,0-2-.4-3.1-1.1s-1.9-1.9-2.6-3.3h-.7l.3,5.7h.7c.3-.5.7-.9,1.2-.9s.4,0,.9.2c1.6.5,2.8.7,3.7.7s2.3-.2,3.3-.7c1-.4,1.8-1.1,2.3-1.9.5-.9.8-1.7.8-2.6s-.3-1.8-1-2.6-2-1.8-4-2.9c-2.1-1.1-3.3-1.9-3.7-2.4-.3-.3-.4-.5-.4-.9s.2-.8.6-1.1.9-.5,1.5-.5c.9,0,1.8.3,2.7.9s1.8,1.7,2.6,3.3h.7l-.3-5.4h-.8ZM267.8,991.6v.6c.9,0,1.4.3,1.7.5s.4,1,.4,2.3v8.9c0,1.2-.1,1.9-.4,2.2-.4.4-.9.5-1.8.7v.6h10v-.6c-.9,0-1.4-.3-1.7-.6-.2-.4-.4-1.1-.4-2.2v-8.5c.7-.9,1.5-1.5,2.1-1.8.5-.2,1-.4,1.5-.4s.7.1,1,.3.5.5.7.9c.1.4.2,1.3.2,2.7v6.8c0,.9,0,1.5-.2,1.8-.1.3-.3.5-.6.7s-.7.3-1.3.3v.6h10.1v-.6c-.9,0-1.5-.3-1.8-.7-.2-.3-.4-1-.4-2.1v-8.5c.6-.7,1.2-1.2,1.8-1.6s1.2-.5,1.8-.5.7.1,1,.3.5.5.7.9c.1.4.2,1.3.2,2.7v6.8c0,1.1-.1,1.8-.4,2.1-.4.4-1,.7-1.8.7v.6h10v-.6c-.9,0-1.4-.3-1.7-.5s-.4-1-.4-2.3v-6.5c0-1.7-.2-2.9-.5-3.7s-.9-1.4-1.6-1.9c-.8-.5-1.9-.7-3.2-.7s-2.2.2-3.2.7c-1,.4-2.1,1.2-3.2,2.2-.5-1-1.1-1.7-1.9-2.2s-1.9-.7-3.2-.7-2.1.2-3,.5c-.9.4-1.9,1-3,2v-2.1h-7.9.2ZM316.9,1004.8c-.6.2-1.3.4-1.9.4-1,0-1.9-.2-2.7-.7-1-.7-1.8-1.7-2.4-3-.6-1.3-.9-2.8-.9-4.3s.4-3.2,1.1-4c.5-.5,1-.9,1.7-.9s.8.1,1.1.4.5.8.6,1.5c.1,1.2.4,1.9,1,2.4.5.4,1.2.7,2,.7s1.4-.2,1.9-.5c.5-.4.7-.9.7-1.5,0-1-.6-1.9-1.8-2.7-1.2-.9-2.8-1.2-4.8-1.2-3,0-5.4,1-7.1,3-1.4,1.6-2.1,3.5-2.1,5.7s.8,4.1,2.3,5.8c1.6,1.6,3.7,2.4,6.2,2.4s3-.4,4.4-1c1.3-.7,2.5-1.7,3.4-3.1l-.7-.4c-.9.7-1.6,1.2-2.2,1.5v-.2Z"/>
</svg>