<?xml version="1.0" encoding="UTF-8"?>
<svg id="_圖層_1" data-name="圖層_1" xmlns="http://www.w3.org/2000/svg" version="1.1" xmlns:xlink="http://www.w3.org/1999/xlink" viewBox="0 0 750 1280">
  <!-- Generator: Adobe Illustrator 30.0.0, SVG Export Plug-In . SVG Version: 2.1.1 Build 123)  -->
  <defs>
    <radialGradient id="_未命名漸層" data-name="未命名漸層" cx="559.1" cy="285.3" fx="559.1" fy="285.3" r="23.5" gradientTransform="translate(0 3749.9) scale(1 -10)" gradientUnits="userSpaceOnUse">
      <stop offset="0" stop-color="#fff" stop-opacity="0"/>
      <stop offset="1" stop-color="#fff"/>
    </radialGradient>
    <linearGradient id="_未命名漸層_2" data-name="未命名漸層 2" x1="534.5" y1="375.4" x2="583.4" y2="375.4" gradientTransform="translate(0 1280) scale(1 -1)" gradientUnits="userSpaceOnUse">
      <stop offset="0" stop-color="#000"/>
      <stop offset=".5" stop-color="#fff"/>
      <stop offset="1" stop-color="#000"/>
    </linearGradient>
    <linearGradient id="_未命名漸層_3" data-name="未命名漸層 3" x1="128.5" y1="493.5" x2="128.5" y2="397.1" gradientTransform="translate(0 1280) scale(1 -1)" gradientUnits="userSpaceOnUse">
      <stop offset="0" stop-color="#fff"/>
      <stop offset=".2" stop-color="#000"/>
      <stop offset=".4" stop-color="#000"/>
      <stop offset=".7" stop-color="#000"/>
      <stop offset="1" stop-color="#000"/>
    </linearGradient>
    <linearGradient id="_未命名漸層_4" data-name="未命名漸層 4" x1="439.1" y1="418.2" x2="439.1" y2="317.3" gradientTransform="translate(0 1280) scale(1 -1)" gradientUnits="userSpaceOnUse">
      <stop offset="0" stop-color="#fff"/>
      <stop offset=".2" stop-color="#000"/>
      <stop offset=".4" stop-color="#000"/>
      <stop offset=".7" stop-color="#000"/>
      <stop offset="1" stop-color="#000"/>
    </linearGradient>
    <linearGradient id="_未命名漸層_5" data-name="未命名漸層 5" x1="466.1" y1="168.4" x2="466.1" y2="95.6" gradientTransform="translate(0 1280) scale(1 -1)" gradientUnits="userSpaceOnUse">
      <stop offset="0" stop-color="#fff"/>
      <stop offset=".2" stop-color="#000"/>
      <stop offset=".4" stop-color="#000"/>
      <stop offset=".7" stop-color="#000"/>
      <stop offset="1" stop-color="#000"/>
    </linearGradient>
    <linearGradient id="_未命名漸層_6" data-name="未命名漸層 6" x1="641.3" y1="190.8" x2="641.3" y2="113" gradientTransform="translate(0 1280) scale(1 -1)" gradientUnits="userSpaceOnUse">
      <stop offset="0" stop-color="#fff"/>
      <stop offset=".2" stop-color="#000"/>
      <stop offset=".4" stop-color="#000"/>
      <stop offset=".7" stop-color="#000"/>
      <stop offset="1" stop-color="#000"/>
    </linearGradient>
    <linearGradient id="_未命名漸層_7" data-name="未命名漸層 7" x1="279.3" y1="303.9" x2="279.3" y2="203.1" gradientTransform="translate(0 1280) scale(1 -1)" gradientUnits="userSpaceOnUse">
      <stop offset="0" stop-color="#fff"/>
      <stop offset=".2" stop-color="#000"/>
      <stop offset=".4" stop-color="#000"/>
      <stop offset=".7" stop-color="#000"/>
      <stop offset="1" stop-color="#000"/>
    </linearGradient>
    <linearGradient id="_未命名漸層_8" data-name="未命名漸層 8" x1="337.3" y1="122" x2="337.3" y2="59.6" gradientTransform="translate(0 1280) scale(1 -1)" gradientUnits="userSpaceOnUse">
      <stop offset="0" stop-color="#fff"/>
      <stop offset=".2" stop-color="#000"/>
      <stop offset=".4" stop-color="#000"/>
      <stop offset=".7" stop-color="#000"/>
      <stop offset="1" stop-color="#000"/>
    </linearGradient>
    <linearGradient id="_未命名漸層_9" data-name="未命名漸層 9" x1="583.9" y1="87.1" x2="583.9" y2="32.4" gradientTransform="translate(0 1280) scale(1 -1)" gradientUnits="userSpaceOnUse">
      <stop offset="0" stop-color="#fff"/>
      <stop offset=".2" stop-color="#000"/>
      <stop offset=".4" stop-color="#000"/>
      <stop offset=".7" stop-color="#000"/>
      <stop offset="1" stop-color="#000"/>
    </linearGradient>
  </defs>
  <path id="lo" d="M534.6,1117.5c2.2-2.9,2.6-2.8,2.6-2.8l.2-76.5,6.8-5.8,35.7,7-.2,9.6-.8.9v82.4l.4,2.2s2.2,1.6,4.1,3.1v-465.9h-48.9v445.7h.1Z" fill="url(#_未命名漸層)"/>
  <path id="lo1" data-name="lo" d="M534.6,1117.5c2.2-2.9,2.6-2.8,2.6-2.8l.2-76.5,6.8-5.8,35.7,7-.2,9.6-.8.9v82.4l.4,2.2s2.2,1.6,4.1,3.1v-465.9h-48.9v445.7h.1Z" fill="url(#_未命名漸層_2)"/>
  <path d="M70.2,855c47.4-20.7,92.9,7.9,134.9,28.1v-111.2H52v92.8c4.7-3.1,13.1-7.1,18.2-9.7h0Z" fill="url(#_未命名漸層_3)"/>
  <rect x="393.6" y="846.5" width="90.9" height="116.4" fill="url(#_未命名漸層_4)"/>
  <rect x="420.6" y="1100.6" width="90.9" height="84" fill="url(#_未命名漸層_5)"/>
  <rect x="595.8" y="1077.4" width="90.9" height="89.8" fill="url(#_未命名漸層_6)"/>
  <rect x="233.8" y="960.8" width="90.9" height="116.4" fill="url(#_未命名漸層_7)"/>
  <rect x="291.9" y="1148.5" width="90.9" height="72.1" fill="url(#_未命名漸層_8)"/>
  <rect x="528.1" y="1184.5" width="111.6" height="63.2" fill="url(#_未命名漸層_9)"/>
  <path d="M589.7,769.7l-4.8-2.6-1.4,2.5h-11.5v-7.7h12.6v-23c.2-.5.7-.5.7-.5l-4.8-2.6-1.1,2.4h-19.6c-2.6,0-4.6-2.1-5.1-2.9,0,0-.2,0-.2,0v3.5h0v21.8c0,.7.5,1.2,1.2,1.2h10.9v7.7h-11.5c-2.1-.6-3.2-2-3.6-2.7-.5-.5,0,2.9-.2,2.9h0v35.3h5.1v-33.3h10.2v20.9c-4.9.9-8.1.7-8.1.7v4.5c13.5-1,19.7-8.9,19.7-8.9-.6.3-1.1.5-1.7.8h0c0,0-.4-.7-.4-.7.4,1.4-3.7,1.9-4.6,2.4v-19.7h11.5c-.7,17.2,4.8,35.8-11.3,48-.2,0,0,.4.2.3,21.1-11.1,15.8-29.4,16.4-49.6,0-.7.8-.7.8-.7h.5ZM579.6,759.7h-7.5v-7.9h6.6v-2.2h-6.6v-9.3h7.5v19.3h0ZM566.9,740.3v9.3h-7v-9.3h7ZM561.4,759.7c-1.2,0-1.4-.9-1.4-1.1v-6.8h7v7.9h-5.6ZM542.9,738.6h-4.7c-3.6,0-5.3-3.4-5.2-3.4v3.4h0v66.9h5.1v-11.3c9-8.9,11.3-24.3,4.1-35,3.1-6.5,5.6-11,6.1-19.8h0c0-.8.8-.8.8-.8l-4.8-2.6-1.5,2.5h0ZM542.5,749.4c-.3,3.2-1.9,11-3.2,15.1,6.6,10.5,1.6,22.9-1.2,28.2v-52h4.9c0,2.7,0,5.6-.6,8.7h0ZM535,667.7h0v57.5c0,.7.5,1.2,1.2,1.2h46.6v-57.5h0c0-.8.8-.8.8-.8l-4.8-2.6-1.1,2.3h-34.7c6.9-2.6,9.1-12.7,9.1-12.7l-5.6-5.3s1.3,15-6.6,18c-2.6,0-4.5-2.1-4.9-2.9-.5-.5,0,2.8,0,2.8h.2ZM540,669.9h37.5v54.3h-35.9c-1.4,0-1.6-.9-1.6-1.2v-53.2h0ZM402,868.8c.8-.6,1.8-1.7,2.4-2.6v-3.8h-2.2v-.8h3.6v4.5c2.8,2.8,8.5,1.1,11.9,1.1l-.6,1.7c-3.3,0-10.7.9-11.9-2.5-.6,1.2-1.4,2.5-2.2,3.4l-1.1-1.1h.1ZM402.5,857.6l.3-.5c1,.5,2.3,1.2,3.2,2.1l-1.1,1.2c-.6-.8-1.6-2-2.4-2.8ZM403,854.2l.3-.5c.9.4,2.3,1.1,3.2,1.9l-1.1,1.2c-.7-.8-1.5-1.8-2.4-2.6h0ZM411.2,865.4h-4.3v-.8h4.3v-1.1h-3.4v-4.6h3.4v-1h-3.9v-.8h3.9v-1.3h1.5v1.3h3.8v.8h-3.8v1h3.4v4.6h-3.4v1.1h4.5v.8h-4.5v1.8h-1.5v-1.8ZM407,854.5h9.9v2.3h-1.5v-1.6h-7v1.6h-1.5v-2.3h.1ZM411.2,860.9v-1.1h-2v1.1h2ZM411.2,862.9v-1.3h-2v1.3h2ZM414.7,860.9v-1.1h-2v1.1h2ZM414.7,862.9v-1.3h-2v1.3h2ZM436.4,857.7c-.6,6.7,1.3,14.3-4.8,10.6l.2-.6c2.1.5,2.4.3,2.5-.7.2-1.2.4-4.7.4-8.5h-1.5c-.2,5.8-1,9-4.2,11.3l-.4-.5c.6-.6,1.1-1.3,1.6-2.1-2.5,1-5.3,1.6-8.1,2l-.4-1.6c1.2,0,2.5-.2,3.7-.3v-1.5h-3.4v-.8h3.4v-1.3h-3v-5.2h3v-1.2h-3.7v-.8h3.7v-1.1c-1.1,0-2.3.2-3.4.2v-.6c2.9-.4,5.3-1,7-1.6l1.1,1.2c-1,.3-2,.5-3.1.6v1.3h3.6v.8h-3.6v1.2h3v5.2h-3v1.3h3.2v.8h-3.2v1.3c1.1,0,2.1-.3,3.1-.5l.2.6c1-2.1,1.4-4.7,1.5-8.6h-1.5v-.8h1.5v-4.1h1.6v4.1h3.1-.1ZM424,860.7h1.5v-1.4h-1.5v1.4ZM425.5,863v-1.5h-1.5v1.5h1.5ZM427,859.4v1.4h1.6v-1.4h-1.6ZM428.6,861.5h-1.6v1.5h1.6v-1.5ZM441.6,863.5l-.4-.5c2.2-2.1,3.7-4.6,4.6-8.3l1.8.7c-1.1,3.2-3.3,6.3-6,8.1ZM455.7,868.5l-1.8,1c-.3-.8-.7-1.6-1.1-2.5-2.8.9-6.8,1.6-9.6,1.9l-.5-2h2.1c1.2-2,2.3-4.8,3-7.2l2,.8c-1,2.3-2.6,4.8-4,6.4,2.3,0,4.7-.3,6.6-.6-.5-.9-1-1.8-1.5-2.7l.5-.4c1.8,1.7,3.4,3.6,4.3,5.3ZM457.1,861.5l-1.4,2c-2.2-1.6-3.9-4.2-4.4-8h-2.8v-.8h3.4c.6,3.5,2.7,5.6,5.2,6.8h0ZM475.6,854.4v15.2h-1.5v-1h-10.6v1.1h-1.5v-15.3h13.6ZM474.1,855.2h-10.6v12.7h10.6v-12.7ZM464.1,865.3l-.2-.6c1.2-.5,2.4-1.1,3.4-1.9h-2.1v-2.8h7.1v2.8h-3.2c-.4.3-.8.6-1.2.9v1.8c.7-.2,1.3-.4,1.8-.5l.2.6c-1.4.8-3.8,1.6-5,1.9l-.5-1.3c.6,0,1.3-.2,2-.4v-1.4c-.9.4-1.8.6-2.4.8h.1ZM473.5,859.3h-9.6v-.8h4v-1h-3.3v-.8h3.3v-1.1h1.5v1.1h3.4v.8h-3.4v1h4v.8h.1ZM466.7,862.1h4.2v-1.3h-4.2v1.3ZM473.7,863.5c-.6.5-1.3,1-1.9,1.3.7.4,1.4.9,2,1.3l-1,1.2c-1.2-1.2-2.3-2.3-3.9-3.4l.3-.5c.7.3,1.3.6,2,1,.5-.5,1.1-1.2,1.5-1.8l1.1.8h-.1ZM71.7,789.7h-6.8v-.9h6.8v-2.5h-5.5v-.9h5.5v-6.3h1.7v6.3h5.5v.9h-5.5v2.5h6.8v.9h-6.8v5.4h-1.7v-5.4ZM66.5,780.3l.5-.4c1.2,1,2.7,2.7,3.7,4.1l-1.6,1c-.7-1.6-1.8-3.5-2.6-4.7h0ZM74.3,784.4c.7-1,1.8-2.8,2.6-4.6l1.7.9c-1.1,1.6-2.8,3.3-3.8,4.1,0,0-.5-.4-.5-.4ZM86.7,783.1c0,5.8-.5,10.1-2.7,12.1l-.4-.4c2.2-2.8,1.5-10.2,1.6-15h12.8v3.4h-11.3ZM86.7,780.5v1.8h9.6v-1.8h-9.6ZM98.7,789.3v.8h-3.4v4.9h-1.6v-4.9h-2.7c-.4,3-1.9,4.3-4,5.1l-.3-.5c1.9-1.1,2.6-2.6,2.8-4.6h-2.7v-.8h2.8v-2.5h-2.3v-.8h3c-.4-.8-1-1.8-1.5-2.3l.4-.5c.8.5,1.8,1.3,2.6,2.2l-.8.6h2.6c.3-.8.6-2.1.7-2.8l1.7.6c-.3.7-.9,1.6-1.6,2.3h3.7v.8h-2.9v2.5h3.5ZM93.8,786.8h-2.5v2.5h2.6v-2.5h0ZM116.5,782.6v12.3h-1.5v-1.8h-10.2v1.9h-1.5v-12.3h1.5v9.7h4.3v-13.3h1.6v13.3h4.3v-9.7h1.5,0ZM134.3,781.9v13.1h-1.6v-1.4h-8.3v1.5h-1.6v-13.1h3.9c.4-1,.7-2,1-3.2l2.1.8c-.7,1-1.5,1.8-2.1,2.4h6.6ZM124.4,782.7v2.7h8.3v-2.7s-8.3,0-8.3,0ZM124.4,786.2v2.8h8.3v-2.8s-8.3,0-8.3,0ZM132.7,792.8v-3h-8.3v3h8.3ZM148.5,784.1h-1.9c-1.1,3.4-3.4,5.5-6.6,6.9l-.3-.6c3.1-1.7,5.4-4.6,5.8-8.6h-2.2c-.1.3-.3.6-.4.9.6.3,1.3.8,2,1.4l-1,1c-.3-.6-.9-1.3-1.3-1.8-.3.5-.6,1-1,1.4.7.4,1.4.9,2,1.6l-1.1,1c-.4-.7-.9-1.5-1.4-2.1-.4.4-.8.9-1.2,1.3l-.4-.4c1.8-2.2,2.6-4.8,3-7.4l1.7.4c-.1.6-.3,1.2-.5,1.8h1.8l.4-.3,1.5.6c0,.7-.2,1.3-.4,2h1.8c.1-1.2.2-2.6.2-4.3h1.6c0,1.7,0,3.1-.2,4.3h4v.8h-3.5c.7,2.4,2.5,4.1,4.5,5.1l-1.2,1.7c-2.4-1.6-3.4-4.2-3.9-6.8h0c-.7,3.6-2.4,5.4-5.6,6.6l-.3-.6c2.6-1.4,3.8-3,4.3-6.1l-.2.2ZM142.2,790.8l.6.2c-.3,1.7-1.2,3.3-1.9,4.2l-1.4-1.1c.9-.7,2.1-1.9,2.7-3.3h0ZM145,791c.7,1,1.4,2.6,1.8,3.6l-1.6.5c-.2-1-.4-2.7-.7-3.9l.6-.2h-.1ZM148.4,790.7c.9.9,1.9,2.4,2.5,3.5l-1.6.8c-.3-1-.9-2.7-1.4-4l.5-.3ZM152.1,782.8c-.3-.9-.7-2.1-1.1-3.1l.5-.3c.7.6,1.6,1.9,2,2.7l-1.4.7h0ZM154.9,794l-1.6.9c-.4-1-1.1-2.8-1.8-4l.5-.3c1,.9,2.3,2.3,2.9,3.4h0ZM158.3,788.8l-.4-.5c2.2-2.1,3.7-4.6,4.6-8.3l1.8.7c-1.1,3.2-3.3,6.3-6,8.1h0ZM172.4,793.8l-1.8,1c-.3-.8-.7-1.6-1.1-2.5-2.8.9-6.8,1.6-9.6,1.9l-.5-2h2.1c1.2-2,2.3-4.8,3-7.2l2,.8c-1,2.3-2.6,4.8-4,6.4,2.3,0,4.7-.3,6.6-.6-.5-.9-1-1.8-1.5-2.7l.5-.4c1.8,1.7,3.4,3.6,4.3,5.3ZM173.8,786.9l-1.4,2c-2.2-1.6-3.9-4.2-4.4-8h-2.8v-.8h3.4c.6,3.5,2.7,5.6,5.2,6.8ZM191.3,779.7v15.2h-1.5v-1h-10.6v1.1h-1.5v-15.3h13.6ZM189.7,780.5h-10.6v12.7h10.6v-12.7ZM179.7,790.7l-.2-.6c1.2-.5,2.4-1.1,3.4-1.9h-2.1v-2.8h7.1v2.8h-3.2c-.4.3-.8.6-1.2.9v1.8c.7-.2,1.3-.4,1.8-.5l.2.6c-1.4.8-3.8,1.6-5,1.9l-.5-1.3c.6,0,1.3-.2,2-.4v-1.4c-.9.4-1.8.6-2.4.8h0ZM189.2,784.7h-9.5v-.8h4v-1h-3.3v-.8h3.3v-1.1h1.5v1.1h3.4v.8h-3.4v1h4v.8ZM182.3,787.5h4.2v-1.3h-4.2v1.3ZM189.4,788.9c-.6.5-1.3,1-1.9,1.3.7.4,1.4.9,2,1.3l-1,1.2c-1.2-1.2-2.3-2.3-3.9-3.4l.3-.5c.7.3,1.3.6,2,1,.5-.5,1.1-1.2,1.5-1.8l1.1.8h-.1ZM315.6,1169.9v.9h-14.7v-.9h6.6v-4.4h-5v-.9h5v-3.8h-3.5c-.8,1.4-1.7,2.7-2.7,3.6l-.5-.4c1.4-1.9,2.4-4.5,2.9-7.6l1.8.5c-.3,1.1-.6,2.1-1.1,3.1h3.1v-4.3h1.6v4.3h5.3v.8h-5.3v3.8h4.9v.9h-4.9v4.4h6.5ZM322.5,1166.8l.6.2c-.2,1.5-.9,3.1-1.6,4.1l-1.3-1.1c1.1-.9,1.8-1.8,2.3-3.1h0ZM320.4,1157.9h1.6c.4-.6.7-1.2,1.1-2.4l1.5.5c-.7.9-1.2,1.5-1.9,2h3.5c-.2-.4-.4-.8-.7-1.1l.5-.4c.8.7,1.4,1.3,2.1,2.3l-1.2.8c-.2-.4-.3-.7-.5-1.1-2.4.5-4.4.7-5.7.8l-.3-1.5h0ZM325.9,1164.3v-.6h-3.3v2.7h-1.4v-6.6h6.1v5.1c0,1.4-1.4,2.1-3.5.5l.2-.6c1.7.4,1.9.4,1.9-.5h0ZM322.6,1160.5v.8h3.3v-.8h-3.3ZM325.9,1163v-.9h-3.3v.9h3.3ZM332,1167.9c2.2,5-2.8,3.3-5.6,3.6-3.6.2-2.3-2.5-2.6-4.7h1.5v2.3c0,.8.2,1,1.2,1.1h4.1c.8,0,.9-.3.8-2.2h.6ZM326.9,1166.3c1,.3,2.3,1,3.2,1.6l-1.1,1.3c-.7-.8-1.7-1.9-2.4-2.4l.3-.5ZM328.3,1164.2v-3h1.4v2.2c1.1-.4,2.1-1.1,3.1-2l1.2,1.1c-1.2.6-3,1.1-4.4,1.4-.1,1.7,2.1,1,3.2,1,1,0,1.2-.3,1.1-1.7h.6c.7,1.8.6,2.8-1.6,3-1.8,0-4.9.8-4.7-2.1h0ZM328.4,1158.5v-2.8h1.4v2.3c1-.5,2.1-1.1,3-1.9l1.2,1.1c-1.2.6-2.9,1.1-4.2,1.4-.2,1.6,2,.9,3,1,.9,0,1-.4,1-1.6h.6c1.3,3.5-1.7,2.8-3.7,2.9-1.9,0-2.2-.3-2.2-2.3h0ZM335.6,1169.8l-1.5.9c-.6-1.5-1.1-2.5-1.8-3.6l.5-.4c1.1.9,2,1.8,2.8,3.1ZM339.9,1165.5l-.4-.5c2.2-2.1,3.7-4.6,4.6-8.3l1.8.7c-1.1,3.2-3.3,6.3-6,8.1h0ZM354,1170.4l-1.8,1c-.3-.8-.7-1.6-1.1-2.5-2.8.9-6.8,1.6-9.6,1.9l-.5-2h2.1c1.2-2,2.3-4.8,3-7.2l2,.8c-1,2.3-2.6,4.8-4,6.4,2.3,0,4.7-.3,6.6-.6-.5-.9-1-1.8-1.5-2.7l.5-.4c1.8,1.7,3.4,3.6,4.3,5.3h0ZM355.4,1163.5l-1.4,2c-2.2-1.6-3.9-4.2-4.4-8h-2.8v-.8h3.4c.6,3.5,2.7,5.6,5.2,6.8h0ZM373.9,1156.4v15.2h-1.5v-1h-10.6v1.1h-1.5v-15.3h13.6ZM372.4,1157.2h-10.6v12.7h10.6v-12.7ZM362.4,1167.3l-.2-.6c1.2-.5,2.4-1.1,3.4-1.9h-2.1v-2.8h7.1v2.8h-3.2c-.4.3-.8.6-1.2.9v1.8c.7-.2,1.3-.4,1.8-.5l.2.6c-1.4.8-3.8,1.6-5,1.9l-.5-1.3c.6,0,1.3-.2,2-.4v-1.4c-.9.4-1.8.6-2.4.8h.1ZM371.8,1161.3h-9.5v-.8h4v-1h-3.3v-.8h3.3v-1.1h1.5v1.1h3.4v.8h-3.4v1h4v.8ZM364.9,1164.1h4.2v-1.3h-4.2v1.3ZM372,1165.5c-.6.5-1.3,1-1.9,1.3.7.4,1.4.9,2,1.3l-1,1.2c-1.2-1.2-2.3-2.3-3.9-3.4l.3-.5c.7.3,1.3.6,2,1,.5-.5,1.1-1.2,1.5-1.8l1.1.8h-.1ZM431.5,1114.8c-.8-1-1.9-2.1-2.6-2.9l.3-.5c1,.4,2.4,1.2,3.4,2l-1.1,1.4h0ZM432.4,1116c-.3,2.4-.9,5.5-1.3,6.9l-1.7-.7c.8-1.6,1.7-4.4,2.4-6.4l.6.2ZM432.3,1111.1c-.8-1.1-1.7-2.1-2.5-2.9l.4-.5c.8.4,2.1,1.1,3.3,2.1l-1.2,1.3h0ZM434.5,1120.1l.6.2c-.2,1.6-.8,2.9-1.5,3.8l-1.3-1c.8-.6,1.6-1.4,2.3-3h-.1ZM437.3,1117.4c.6.8,1,1.6,1.3,2.4l-1.2.4c0-.4-.1-.7-.2-1.1-1.6.6-2.8.8-3.9.9l-.3-1.5h1.5c.4-.4.9-1,1.3-1.7-.8.2-1.7.4-2.3.5l-.3-1.4h.9c.4-.7.9-1.7,1.3-2.7h-1.1v-4.7h9v4.7h-7.7l1.2.5c-.6.9-1.3,1.7-1.9,2.2h1.5c.3-.5.6-1.1.8-1.6l1.5.6c-1.1,1.7-2.3,2.7-3.2,3.4h1.8c0-.3-.1-.6-.2-.9l.5-.2-.3.2ZM435.6,1110.6h6.1v-1.2h-6.1v1.2ZM435.6,1112.6h6.1v-1.2h-6.1v1.2ZM436.8,1120.2c.7,1.1,1.2,2.3,1.6,3.3l-1.6.4c0-1-.2-2.3-.5-3.6l.6-.2h-.1ZM442.9,1119c-1.3.4-3.2.8-4,.9l-.3-1.4h1.2c.4-.4.8-.9,1.2-1.6-.8.2-1.7.4-2.3.4l-.2-1.4h.8c.4-.7.8-1.6,1.1-2.6l1.4.5c-.6.9-1.2,1.6-1.7,2.1h1.5c.3-.5.6-1,.8-1.5l1.4.7c-.7,1.2-2.1,2.4-3.1,3.2.7,0,1.4,0,2,0,0-.3-.2-.6-.3-.9l.5-.2c.7.8,1.2,1.6,1.5,2.4l-1.2.5c0-.4-.2-.8-.3-1.2v.2ZM439.6,1120.1c.8,1,1.5,2.1,1.9,3.1l-1.6.6c-.2-1-.5-2.2-.9-3.4l.6-.3h0ZM444.6,1123l-1.5.8c-.3-1.1-.8-2.4-1.4-3.5l.5-.4c1,.9,1.9,2.1,2.4,3h0ZM454.6,1117.6l.3.6c-1.5,1.2-3.7,2.4-5.7,3.3l-.7-1.7c.6,0,1.5-.4,2.5-.8v-5.8h-2.3v-.8h2.3v-4.2h1.5v4.2h2.1v.8h-2.1v5.2c.7-.3,1.4-.6,2.1-.9h0ZM462.2,1123.2c-9.2.6-6.4-1.3-6.9-8.5l-1.7.6-.3-.7c.7-.2,1.3-.5,2-.7v-4.3h1.5v3.7c.6-.2,1.1-.4,1.7-.7v-4.8h1.4v4.2c.5-.2,1.1-.4,1.6-.7l.3-.4,1.7.4c-.2,1.7-1,5.5-1.6,6.9h-.6c.2-1.6.5-5.2.5-6.1l-1.8.7v6.6h-1.4v-6c-.6.2-1.1.4-1.7.7v6.5c0,.9.4,1.1,1.3,1.2,1.5,0,2.5,0,4,0,.9,0,1.1-.4,1.1-4.3h.7c.8,4.7.7,5.6-1.7,5.7h-.1ZM468.5,1117.5l-.4-.5c2.2-2.1,3.7-4.6,4.6-8.3l1.8.7c-1.1,3.2-3.3,6.3-6,8.1h0ZM482.7,1122.5l-1.8,1c-.3-.8-.7-1.6-1.1-2.5-2.8.9-6.8,1.6-9.6,1.9l-.5-2h2.1c1.2-2,2.3-4.8,3-7.2l2,.8c-1,2.3-2.6,4.8-4,6.4,2.3,0,4.7-.3,6.6-.6-.5-.9-1-1.8-1.5-2.7l.5-.4c1.8,1.7,3.4,3.6,4.3,5.3h0ZM484.1,1115.6l-1.4,2c-2.2-1.6-3.9-4.2-4.4-8h-2.8v-.8h3.4c.6,3.5,2.7,5.6,5.2,6.8h0ZM502.6,1108.4v15.2h-1.5v-1h-10.6v1.1h-1.5v-15.3h13.6ZM501,1109.2h-10.6v12.7h10.6v-12.7ZM491,1119.4l-.2-.6c1.2-.5,2.4-1.1,3.4-1.9h-2.1v-2.8h7.1v2.8h-3.2c-.4.3-.8.6-1.2.9v1.8c.7-.2,1.3-.4,1.8-.5l.2.6c-1.4.8-3.8,1.6-5,1.9l-.5-1.3c.6,0,1.3-.2,2-.4v-1.4c-.9.4-1.8.6-2.4.8h.1ZM500.5,1113.4h-9.6v-.8h4v-1h-3.3v-.8h3.3v-1.1h1.5v1.1h3.4v.8h-3.4v1h4v.8h.1ZM493.6,1116.2h4.2v-1.3h-4.2v1.3ZM500.7,1117.6c-.6.5-1.3,1-1.9,1.3.7.4,1.4.9,2,1.3l-1,1.2c-1.2-1.2-2.3-2.3-3.9-3.4l.3-.5c.7.3,1.3.6,2,1,.5-.5,1.1-1.2,1.5-1.8l1.1.8h-.1ZM610.7,1091.6c-.9,3.3-2.8,6.1-6.2,7.9l-.3-.5c3-2.3,4.1-4.6,4.6-6.9h-3.8v-.8h3.6l.5-.4,1.6.7h0ZM619.7,1097.4l-1.4,1.9c-2.5-1.7-4.1-4-5.2-7.5v6.7c0,2-1.7,2.8-4.9.8l.2-.6c2.8.6,3.1.4,3.1-.5v-9.3h-4.4v-.9h6.1c-.2,1.4.5,3,1.1,4.1.8-.7,1.8-1.8,2.8-3.4l1.6,1.3c-1.4,1.2-2.9,2.2-4.1,2.7,1.4,2.4,3.4,3.7,5.2,4.7h0ZM613.7,1087.4c-1.4-.9-3.1-1.8-4.8-2.5l.2-.6c1.6.2,4.3.9,5.4,1.5l-.8,1.7h0ZM625.5,1087.6c.2,1.9.2,3.9,0,5.3l-1.7-.6c.5-1.2,1.1-2.9,1.2-4.8h.6ZM626.2,1084.6h1.5v16h-1.5v-16ZM628.7,1091.3c0-1.1-.4-2.6-.7-3.8l.6-.2c.6,1,1.3,2.2,1.7,3.5l-1.5.5h0ZM639.3,1098.9v.8h-11v-.8h6.4c.5-2.4,1.2-6.2,1.6-9.1h-3.9c-.5,2.4-1.1,4.9-1.7,6.9l-1.5-.3c.8-2.8,1.7-6.8,2.3-10h-2.6v-.8h10.1v.8h-6c-.2.8-.3,1.7-.5,2.6h3.7l.4-.3,1.6.5c-.6,3.7-1.3,7.2-1.8,9.7h3.1-.2ZM632,1093.8c.8.4,2,1.2,2.9,2l-1.2,1.1c-.7-.9-1.3-1.7-2.1-2.6l.4-.6h0ZM635.4,1092.8l-1.1,1.1c-.7-1-1.3-1.8-2-2.6l.4-.5c.8.5,1.9,1.2,2.7,2.1h0ZM659.2,1097.6l-.5,2c-14.6,2.4-10-10-13.6.6l-1.7-.8c1.8-3,2.8-6.4,4.8-3.5,2.4-1.6,5.2-4.3,6.5-6.8h-10.5v-.9h6.1c-.9-1.2-1.8-2.3-2.6-3.3l.4-.5c1.2.6,2.9,1.8,3.9,2.9l-1,.9h3.7l.8-.5,1.8,1.1c-2.5,3.7-5.4,6-8.7,7.7,1.8,2.2,7.7,1.9,10.4,1.2h.2ZM669.1,1095c-1.2.9-3.6,2.1-5.4,2.8l-.6-1.7c.7,0,1.5-.3,2.3-.5v-4.2h-1.8v-.8h1.8v-4h-2v-.8h5.4v.8h-2v4h1.8v.8h-1.8v3.8c.8-.2,1.6-.5,2-.7l.3.6h0ZM678.8,1098.9l-.9,1.6c-2-.9-3.7-2.4-4.2-5.9h-.3c-.3.4-.7.8-1.2,1.1v2.6c.7-.2,1.4-.4,2-.6l.3.6c-1.7,1.1-3.6,1.8-5.2,2.2l-.6-1.6c.7,0,1.4-.2,2.1-.3v-2c-1.2.7-2.5,1.2-3.5,1.5l-.2-.6c1.5-.5,3.4-1.6,4.5-2.9h-2.2v-3h8.1v3h-3.2c.2.9.5,1.5.9,2.1.7-.5,1.5-1.2,2-1.9l1.2,1c-.8.6-1.9,1.1-2.8,1.5.8.8,1.8,1.3,3.2,1.7h0ZM668.7,1089.8h9.8v.8h-9.8v-.8ZM677.8,1088.9h-8.7v-3.7h8.7v3.7ZM671.6,1086h-1.1v2.2h1.1v-2.2ZM670.9,1093.8h5.2v-1.5h-5.2v1.5ZM674,1086h-1.1v2.2h1.1v-2.2ZM676.4,1086h-1.2v2.2h1.2v-2.2ZM551.2,1205.9v.9h-14.7v-.9h6.6v-4.4h-5v-.9h5v-3.8h-3.5c-.8,1.4-1.7,2.7-2.7,3.6l-.5-.4c1.4-1.9,2.4-4.5,2.9-7.6l1.8.5c-.3,1.1-.6,2.1-1.1,3.1h3.1v-4.3h1.6v4.3h5.3v.8h-5.3v3.8h4.9v.9h-4.9v4.4h6.5ZM558.1,1202.9l.6.2c-.2,1.5-.9,3.1-1.6,4.1l-1.3-1.1c1.1-.9,1.8-1.8,2.3-3.1h0ZM555.9,1193.9h1.6c.4-.6.7-1.2,1.1-2.4l1.5.5c-.7.9-1.2,1.5-1.9,2h3.5c-.2-.4-.4-.8-.7-1.1l.5-.4c.8.7,1.4,1.3,2.1,2.3l-1.2.8c-.2-.4-.3-.7-.5-1.1-2.4.5-4.4.7-5.7.8l-.3-1.5h0ZM561.4,1200.4v-.6h-3.3v2.7h-1.4v-6.6h6.1v5.1c0,1.4-1.4,2.1-3.5.5l.2-.6c1.7.4,1.9.4,1.9-.5ZM558.2,1196.6v.8h3.3v-.8h-3.3ZM561.4,1199.1v-.9h-3.3v.9h3.3ZM567.6,1203.9c2.2,5-2.8,3.3-5.6,3.6-3.6.2-2.3-2.5-2.6-4.7h1.5v2.3c0,.8.2,1,1.2,1.1h4.1c.8,0,.9-.3.8-2.2h.6ZM562.4,1202.3c1,.3,2.3,1,3.2,1.6l-1.1,1.3c-.7-.8-1.7-1.9-2.4-2.4l.3-.5ZM563.9,1200.2v-3h1.4v2.2c1.1-.4,2.1-1.1,3.1-2l1.2,1.1c-1.2.6-3,1.1-4.4,1.4,0,1.7,2.1,1,3.2,1,1,0,1.2-.3,1.1-1.7h.6c.7,1.8.6,2.8-1.6,3-1.8,0-4.9.8-4.7-2.1h.1ZM564,1194.5v-2.8h1.4v2.3c1-.5,2.1-1.1,3-1.9l1.2,1.1c-1.2.6-2.9,1.1-4.2,1.4-.2,1.6,2,.9,3,1,.9,0,1-.4,1-1.6h.6c1.3,3.5-1.7,2.8-3.7,2.9-1.9,0-2.2-.3-2.2-2.3h0ZM571.1,1205.8l-1.5.9c-.6-1.5-1.1-2.5-1.8-3.6l.5-.4c1.1.9,2,1.8,2.8,3.1ZM575.5,1195.4c1,.5,2.1,1.2,3.2,2.2l-1.2,1.3c-.7-1-1.6-2-2.4-2.9l.4-.5h0ZM577.9,1199.7l.6.2c-.3,2.2-.9,5.3-1.4,7l-1.7-.7c.9-1.8,1.8-4.3,2.5-6.5h0ZM578.4,1195c-.7-1.1-1.4-2-2.1-3l.4-.5c1,.5,2.2,1.4,3,2.3l-1.3,1.2h0ZM584.5,1204.9h-3.8v1.6h-1.5v-6.9h1.8v-3h-2.3v-.8h2.3v-4h1.6v4h2.4v.8h-2.4v3h1.9v5.4h0ZM583,1200.3h-2.4v3.9h2.4v-3.9ZM589.8,1192.4v13.6c0,1.7-1.5,2.2-3.9.8l.2-.6c2,.4,2.1.3,2.1-.6v-4.5h-1.6c-.2,3.2-1,5.1-3.1,6.8l-.4-.4c2.9-2.2,2-10.7,2.2-15h4.5ZM588.3,1200.3v-3.4h-1.5v3.4h1.5ZM586.8,1193.2v3h1.5v-3h-1.5ZM595.1,1201.5l-.4-.5c2.2-2.1,3.7-4.6,4.6-8.3l1.8.7c-1.1,3.2-3.3,6.3-6,8.1h0ZM609.2,1206.5l-1.8,1c-.3-.8-.7-1.6-1.1-2.5-2.8.9-6.8,1.6-9.6,1.9l-.5-2h2.1c1.2-2,2.3-4.8,3-7.2l2,.8c-1,2.3-2.6,4.8-4,6.4,2.3,0,4.7-.3,6.6-.6-.5-.9-1-1.8-1.5-2.7l.5-.4c1.8,1.7,3.4,3.6,4.3,5.3h0ZM610.6,1199.5l-1.4,2c-2.2-1.6-3.9-4.2-4.4-8h-2.8v-.8h3.4c.6,3.5,2.7,5.6,5.2,6.8ZM629.1,1192.4v15.2h-1.5v-1h-10.6v1.1h-1.5v-15.3h13.6ZM627.6,1193.2h-10.6v12.7h10.6v-12.7ZM617.6,1203.3l-.2-.6c1.2-.5,2.4-1.1,3.4-1.9h-2.1v-2.8h7.1v2.8h-3.2c-.4.3-.8.6-1.2.9v1.8c.7-.2,1.3-.4,1.8-.5l.2.6c-1.4.8-3.8,1.6-5,1.9l-.5-1.3c.6,0,1.3-.2,2-.4v-1.4c-.9.4-1.8.6-2.4.8h.1ZM627,1197.3h-9.6v-.8h4v-1h-3.3v-.8h3.3v-1.1h1.5v1.1h3.4v.8h-3.4v1h4v.8h0ZM620.2,1200.1h4.2v-1.3h-4.2v1.3ZM627.2,1201.6c-.6.5-1.3,1-1.9,1.3.7.4,1.4.9,2,1.3l-1,1.2c-1.2-1.2-2.3-2.3-3.9-3.4l.3-.5c.7.3,1.3.6,2,1,.5-.5,1.1-1.2,1.5-1.8l1.1.8h0Z"/>
  <path d="M576.4,698.8h-36.4v-2.2h31.6l1.1-2.2,3.7,2.2v2.2h0ZM573.9,783.7s-.2,0,0,0c1.5,2.2,2.9,4.6,3.5,7.2.2.7.3,1.4.3,2.1,0,1.3-.7,2.6,0,3.9.5,1.3,3.1,2.4,3.9.7,2.7-5.3-5.2-12.3-7.4-14.1h-.1ZM417.6,880.7c-.2-.3-.6-.7-1.2-1-.7-.4-1-.8-1-1.3s.1-.4.3-.6c.2-.2.4-.2.7-.2s.5,0,.7.2c.2,0,.3.2.4.4l.2-.2c-.2-.2-.4-.4-.8-.5h-.5c-.4,0-.7,0-1,.3s-.4.5-.4.8c0,.7.4,1.3,1.2,1.8.8.4,1.2.9,1.2,1.5s-.1.6-.3.8c-.2.2-.5.3-.8.3s-.9-.2-1.2-.5l-.2.3c.4.3.9.5,1.4.5s.8,0,1.1-.4c.3-.3.5-.6.5-1.1s0-.7-.3-1h0ZM420.4,877.4h-1.3v5.6h.5v-5.5h.6c1.1,0,1.6.4,1.6,1.4s-.1.7-.4,1-.6.4-1.1.4h-.2v.2h.3c.5,0,.9,0,1.3-.4.4-.3.5-.7.5-1.1,0-1-.7-1.5-2-1.5h.2ZM428.4,878.2c-.5-.6-1.2-.8-2-.8s-1.5.3-2,.8-.8,1.2-.8,2,.3,1.5.8,2c.5.6,1.2.8,2,.8s1.5-.3,2-.8.8-1.2.8-2-.3-1.5-.8-2ZM428,882.1c-.4.5-1,.8-1.6.8s-1.2-.3-1.6-.8-.6-1.2-.6-1.9.2-1.4.6-1.9,1-.8,1.6-.8,1.2.3,1.6.8.6,1.2.6,1.9-.2,1.4-.6,1.9ZM432.1,880.1c.4,0,.7-.2,1-.4.2-.2.4-.5.4-.9,0-.9-.7-1.4-2-1.4h-1v5.7h.5v-5.5h.4c1,0,1.5.4,1.5,1.2s-.4,1.1-1.2,1.1-.2,0-.3,0l1.8,3.1h.6l-1.7-3h0ZM438.1,877.4h-3.5v.2h1.5v5.5h.6v-5.5h1.5v-.2h-.1ZM441.6,880.7c-.2-.3-.6-.7-1.2-1-.7-.4-1-.8-1-1.3s.1-.4.3-.6c.2-.2.4-.2.7-.2s.5,0,.7.2c.2,0,.3.2.4.4l.2-.2c-.2-.2-.4-.4-.8-.5h-.5c-.4,0-.7,0-1,.3s-.4.5-.4.8c0,.7.4,1.3,1.2,1.8.8.4,1.2.9,1.2,1.5s-.1.6-.3.8c-.2.2-.5.3-.8.3s-.9-.2-1.2-.5l-.2.3c.4.3.9.5,1.4.5s.8,0,1.1-.4c.3-.3.5-.6.5-1.1s0-.7-.3-1h0ZM446.7,877.4h-1.3v5.6h.5v-5.5h.6c1.1,0,1.6.4,1.6,1.4s-.1.7-.4,1-.6.4-1.1.4h-.2v.2h.3c.5,0,.9,0,1.3-.4.4-.3.5-.7.5-1.1,0-1-.7-1.5-2-1.5h.2ZM451.5,877.3l-2.2,5.7h.2l1.8-4.8.9,2.2h-1.2v.2h1.3l.9,2.4h.6l-2.2-5.7h0ZM456.7,880.1c.4,0,.7-.2,1-.4.2-.2.4-.5.4-.9,0-.9-.7-1.4-2-1.4h-1v5.7h.5v-5.5h.4c1,0,1.5.4,1.5,1.2s-.4,1.1-1.2,1.1-.2,0-.3,0l1.8,3.1h.6l-1.7-3h0ZM460.2,877.4h-.6v5.7h.6v-5.7ZM460.9,879.9l2.1-2.5h-.2l-2.4,2.7,2.2,2.9h.7l-2.4-3.2h0ZM107.7,803.3h-.2v4.6l-3.5-4.7v5.7h.2v-4.6l3.5,4.7v-5.7ZM110.9,803.2l-2.2,5.7h.2l1.8-4.8.9,2.2h-1.2v.2h1.3l.9,2.4h.6l-2.2-5.7h-.1ZM116.9,803.2h-3.5v.2h1.5v5.5h.6v-5.5h1.5v-.2h0ZM121.8,803.3h-.6v3.9c0,1.1-.5,1.7-1.4,1.7s-1.4-.6-1.4-1.7v-3.9h-.6v3.9c0,.6.2,1,.6,1.4.4.3.8.5,1.3.5s1-.2,1.3-.5c.4-.3.6-.8.6-1.4v-3.9h.2ZM124.9,805.9c.4,0,.7-.2,1-.4.2-.2.4-.5.4-.9,0-.9-.7-1.4-2-1.4h-1v5.7h.5v-5.5h.4c1,0,1.5.4,1.5,1.2s-.4,1.1-1.2,1.1-.2,0-.3,0l1.8,3.1h.6l-1.7-3h0ZM130.5,808.7h-2.1v-2.9h1.8v-.2h-1.8v-2.3h2v-.2h-2.5v5.7h2.6v-.2h0ZM135.3,803.2h-1.3v5.6h.5v-5.5h.6c1.1,0,1.6.4,1.6,1.4s-.1.7-.4,1c-.3.3-.6.4-1.1.4h-.2v.2h.3c.5,0,.9,0,1.3-.4.4-.3.5-.7.5-1.1,0-1-.7-1.5-2-1.5h.2ZM140.1,803.2l-2.2,5.7h.2l1.9-4.8.9,2.2h-1.2v.2h1.3l.9,2.4h.6l-2.2-5.7h-.2ZM145.3,805.9c.4,0,.7-.2,1-.4.2-.2.4-.5.4-.9,0-.9-.7-1.4-2-1.4h-1v5.7h.5v-5.5h.4c1,0,1.5.4,1.5,1.2s-.4,1.1-1.2,1.1-.2,0-.3,0l1.8,3.1h.6l-1.7-3h0ZM148.8,803.3h-.6v5.7h.6v-5.7ZM149.5,805.8l2.1-2.5h-.2l-2.4,2.7,2.2,2.9h.7l-2.4-3.2h0ZM443.9,1131.8l-1.3,4.5-1.5-4.6-1.4,4.5-1.3-4.4h-.6l1.6,5.7,1.4-4.6,1.6,4.6,1.7-5.7h-.2ZM447.8,1137.3h-2.1v-2.9h1.8v-.2h-1.8v-2.3h2v-.2h-2.5v5.7h2.6v-.2h0ZM452.4,1131.8h-3.5v.2h1.5v5.5h.6v-5.5h1.5v-.2h-.1ZM456.4,1137.3h-2.1v-5.5h-.6v5.7h2.6v-.2h.1ZM459.3,1131.7l-2.2,5.7h.2l1.8-4.8.9,2.2h-1.2v.2h1.3l.9,2.4h.6l-2.2-5.7h0ZM466.5,1131.8h-.2v4.6l-3.5-4.7v5.7h.2v-4.6l3.5,4.7v-5.7ZM471,1132.3c-.5-.3-1.1-.5-1.8-.5h-1.4v5.6h1.4c.6,0,1.2-.2,1.8-.5.8-.5,1.1-1.3,1.1-2.3s-.4-1.8-1.1-2.3h0ZM470.7,1136.8c-.5.3-1.1.5-1.8.5h-.5v-5.3h.6c.7,0,1.2.2,1.7.5.6.5,1,1.2,1,2.1s-.3,1.7-.9,2.2h-.1ZM477.7,1131.8h-1.3v5.6h.5v-5.5h.6c1.1,0,1.6.4,1.6,1.4s-.1.7-.4,1-.6.4-1.1.4h-.2v.2h.3c.5,0,.9,0,1.3-.4s.5-.7.5-1.1c0-1-.7-1.5-2-1.5h.2ZM482.5,1131.7l-2.2,5.7h.2l1.8-4.8.9,2.2h-1.2v.2h1.3l.9,2.4h.6l-2.2-5.7h0ZM487.7,1134.5c.4,0,.7-.2,1-.4.2-.2.4-.5.4-.9,0-.9-.7-1.4-2-1.4h-1v5.7h.5v-5.5h.4c1,0,1.5.4,1.5,1.2s-.4,1.1-1.2,1.1-.2,0-.3,0l1.8,3.1h.6l-1.7-3h0ZM491.2,1131.8h-.6v5.7h.6v-5.7ZM491.9,1134.3l2.1-2.5h-.2l-2.4,2.7,2.2,2.9h.7l-2.4-3.2h0ZM305,1184.4h-2.1v-2.9h1.8v-.2h-1.8v-2.3h2v-.2h-2.5v5.7h2.6v-.2h0ZM310.2,1183.6c-.3.6-.8.9-1.5.9s-1-.3-1.4-.8-.6-1.2-.6-1.9.2-1.4.5-1.9.8-.8,1.3-.8,1,.2,1.4.6l.2-.3c-.4-.4-1-.6-1.7-.6s-1.3.3-1.7.9c-.5.6-.7,1.2-.7,2s.3,1.4.8,2,1.1.9,1.8.9,1.3-.3,1.7-.8l-.2-.2h.1ZM316.7,1179.7c-.5-.6-1.2-.8-2-.8s-1.5.3-2,.8-.8,1.2-.8,2,.3,1.5.8,2c.5.6,1.2.8,2,.8s1.5-.3,2-.8.8-1.2.8-2-.3-1.5-.8-2ZM316.3,1183.7c-.4.5-1,.8-1.6.8s-1.2-.3-1.6-.8-.6-1.2-.6-1.9.2-1.4.6-1.9,1-.8,1.6-.8,1.2.3,1.6.8.6,1.2.6,1.9-.2,1.4-.6,1.9ZM321.4,1184.4h-2.1v-5.5h-.6v5.7h2.6v-.2h.1ZM327.4,1179.7c-.5-.6-1.2-.8-2-.8s-1.5.3-2,.8-.8,1.2-.8,2,.3,1.5.8,2c.5.6,1.2.8,2,.8s1.5-.3,2-.8.8-1.2.8-2-.3-1.5-.8-2ZM327,1183.7c-.4.5-1,.8-1.6.8s-1.2-.3-1.6-.8-.6-1.2-.6-1.9.2-1.4.6-1.9,1-.8,1.6-.8,1.2.3,1.6.8.6,1.2.6,1.9-.2,1.4-.6,1.9ZM333.7,1181.8h-.5v2.2c-.3.3-.7.4-1.2.4s-1-.3-1.4-.8-.6-1.2-.6-1.9.2-1.4.5-1.9.8-.8,1.3-.8,1.1.2,1.5.7l.2-.2c-.4-.4-1-.6-1.7-.6s-1.3.3-1.7.9c-.5.6-.7,1.2-.7,2s.3,1.4.8,2,1.1.9,1.8.9,1.3-.3,1.7-.9v-2h0ZM335.8,1178.9h-.6v5.6h.6v-5.6ZM341.5,1183.6c-.3.6-.8.9-1.5.9s-1-.3-1.4-.8-.6-1.2-.6-1.9.2-1.4.5-1.9.8-.8,1.3-.8,1,.2,1.4.6l.2-.3c-.4-.4-1-.6-1.7-.6s-1.3.3-1.7.9c-.5.6-.7,1.2-.7,2s.3,1.4.8,2,1.1.9,1.8.9,1.3-.3,1.7-.8l-.2-.2h.1ZM344.9,1178.8l-2.2,5.7h.2l1.8-4.8.9,2.2h-1.2v.2h1.3l.9,2.4h.6l-2.2-5.7h0ZM351,1184.4h-2.1v-5.5h-.6v5.7h2.6v-.2h.1ZM355.7,1178.9h-1.3v5.6h.5v-5.5h.6c1.1,0,1.6.4,1.6,1.4s-.1.7-.4,1-.6.4-1.1.4h-.2v.2h.3c.5,0,.9,0,1.3-.4s.5-.7.5-1.1c0-1-.7-1.5-2-1.5h.2ZM360.5,1178.8l-2.2,5.7h.2l1.8-4.8.9,2.2h-1.2v.2h1.3l.9,2.4h.6l-2.2-5.7h0ZM365.7,1181.6c.4,0,.7-.2,1-.4.2-.2.4-.5.4-.9,0-.9-.7-1.4-2-1.4h-1v5.7h.5v-5.5h.4c1,0,1.5.4,1.5,1.2s-.4,1.1-1.2,1.1-.2,0-.3,0l1.8,3.1h.6l-1.7-3h0ZM369.2,1178.9h-.6v5.7h.6v-5.7ZM370,1181.4l2.1-2.5h-.2l-2.4,2.7,2.2,2.9h.7l-2.4-3.2h0ZM558,1221.8h-2.1v-2.9h1.8v-.2h-1.8v-2.3h2v-.2h-2.5v5.7h2.6v-.2h0ZM563.2,1221c-.3.6-.8.9-1.5.9s-1-.3-1.4-.8-.6-1.2-.6-1.9.2-1.4.5-1.9.8-.8,1.3-.8,1,.2,1.4.6l.2-.3c-.4-.4-1-.6-1.7-.6s-1.3.3-1.7.9c-.5.6-.7,1.2-.7,2s.3,1.4.8,2,1.1.9,1.8.9,1.3-.3,1.7-.8l-.2-.2h.1ZM569.7,1217.1c-.5-.6-1.2-.8-2-.8s-1.5.3-2,.8-.8,1.2-.8,2,.3,1.5.8,2c.5.6,1.2.8,2,.8s1.5-.3,2-.8.8-1.2.8-2-.3-1.5-.8-2ZM569.3,1221.1c-.4.5-1,.8-1.6.8s-1.2-.3-1.6-.8c-.4-.5-.6-1.2-.6-1.9s.2-1.4.6-1.9c.4-.5,1-.8,1.6-.8s1.2.3,1.6.8c.4.5.6,1.2.6,1.9s-.2,1.4-.6,1.9ZM576.7,1221.8h-2.1v-5.5h-.6v5.7h2.6v-.2h0ZM579.6,1216.2l-2.2,5.7h.2l1.8-4.8.9,2.2h-1.2v.2h1.3l.9,2.4h.6l-2.2-5.7h0ZM583.7,1216.3h-.6v5.7h.6v-5.7ZM584.4,1218.8l2.1-2.5h-.2l-2.4,2.7,2.2,2.9h.7l-2.4-3.2h0ZM590.6,1221.8h-2.1v-2.9h1.8v-.2h-1.8v-2.3h2v-.2h-2.5v5.7h2.6v-.2h0ZM595.4,1216.3h-1.3v5.6h.5v-5.5h.6c1.1,0,1.6.4,1.6,1.4s0,.7-.4,1c-.3.3-.6.4-1.1.4h-.2v.2h.3c.5,0,.9,0,1.3-.4.4-.3.5-.7.5-1.1,0-1-.7-1.5-2-1.5h.2ZM600.2,1216.2l-2.2,5.7h.2l1.8-4.8.9,2.2h-1.2v.2h1.3l.9,2.4h.6l-2.2-5.7h0ZM605.4,1219c.4,0,.7-.2,1-.4.2-.2.4-.5.4-.9,0-.9-.7-1.4-2-1.4h-1v5.7h.5v-5.5h.4c1,0,1.5.4,1.5,1.2s-.4,1.1-1.2,1.1-.2,0-.3,0l1.8,3.1h.6l-1.7-3h0ZM608.9,1216.3h-.6v5.7h.6v-5.7ZM609.6,1218.8l2.1-2.5h-.2l-2.4,2.7,2.2,2.9h.7l-2.4-3.2h0ZM618.8,1114.2h-2.1v-2.9h1.8v-.2h-1.8v-2.3h2v-.2h-2.5v5.7h2.6v-.2h0ZM623.6,1108.7h-3.5v.2h1.5v5.5h.6v-5.5h1.5v-.2h0ZM627.6,1114.2h-2.1v-2.9h1.8v-.2h-1.8v-2.3h2v-.2h-2.5v5.7h2.6v-.2h0ZM630.5,1111.4c.4,0,.7-.2,1-.4.2-.2.4-.5.4-.9,0-.9-.7-1.4-2-1.4h-1v5.7h.5v-5.5h.4c1,0,1.5.4,1.5,1.2s-.4,1.1-1.2,1.1-.2,0-.3,0l1.8,3.1h.6l-1.7-3h0ZM637.1,1108.7h-.2v4.6l-3.5-4.7v5.7h.2v-4.6l3.5,4.7v-5.7ZM640.2,1108.6l-2.2,5.7h.2l1.8-4.8.9,2.2h-1.2v.2h1.3l.9,2.4h.6l-2.2-5.7h0ZM646.4,1114.2h-2.1v-5.5h-.6v5.7h2.6v-.2h0ZM651.5,1111.4c.4,0,.7-.2,1-.4.2-.2.4-.5.4-.9,0-.9-.7-1.4-2-1.4h-1v5.7h.5v-5.5h.4c1,0,1.5.4,1.5,1.2s-.4,1.1-1.2,1.1-.2,0-.3,0l1.8,3.1h.6l-1.7-3h0ZM655,1108.7h-.6v5.6h.6v-5.6ZM660.4,1108.7h-.2v4.6l-3.5-4.7v5.7h.2v-4.6l3.5,4.7v-5.7ZM666,1111.6h-.5v2.2c-.3.3-.7.4-1.2.4s-1-.3-1.4-.8-.6-1.2-.6-1.9.2-1.4.5-1.9.8-.8,1.3-.8,1.1.2,1.5.7l.2-.2c-.4-.4-1-.6-1.7-.6s-1.3.3-1.7.9c-.5.6-.7,1.2-.7,2s.3,1.4.8,2,1.1.9,1.8.9,1.3-.3,1.7-.9v-2h0Z" fill="#aa0c24"/>
  <path d="M246.4,969.7v5.8h4.6v1.7h-4.6v9.7c0,.9,0,1.5.2,1.8.1.3.3.5.5.6.3.2.5.2.7.2.9,0,1.7-.6,2.5-1.7l.6.4c-1.1,2.2-2.9,3.2-5.5,3.2s-2.3-.3-3.1-.8c-.8-.6-1.4-1.2-1.6-1.9-.1-.4-.2-1.4-.2-3.1v-8.5h-2.5v-.6c1.7-1,3.2-2.1,4.4-3.2,1.2-1.1,2.3-2.3,3.2-3.7h.7ZM265.1,975l.3,5.4h-.7c-.8-1.6-1.7-2.7-2.6-3.3-.9-.6-1.8-.9-2.7-.9s-1.1.2-1.5.5c-.4.3-.6.7-.6,1.1s.1.6.4.9c.4.5,1.7,1.3,3.7,2.4,2,1.1,3.4,2.1,4,2.9.6.8,1,1.7,1,2.6s-.3,1.7-.8,2.6c-.5.8-1.3,1.5-2.3,1.9-1,.5-2.1.7-3.3.7s-2.2-.2-3.7-.7c-.4-.1-.7-.2-.8-.2-.5,0-.8.3-1.1.8h-.7l-.3-5.7h.7c.6,1.5,1.5,2.6,2.6,3.3s2.1,1.1,3.1,1.1,1.2-.2,1.6-.5.6-.7.6-1.2-.2-1-.6-1.4c-.4-.4-1.3-1-2.8-1.8-2.1-1.2-3.5-2.1-4.1-2.7-.9-.9-1.4-1.9-1.4-3.1s.5-2.3,1.5-3.3c1-1,2.5-1.5,4.5-1.5s2.1.2,3,.6c.4.2.7.3.9.3s.4,0,.6-.1c.2,0,.4-.3.7-.7h.7ZM277.4,975.5v2.1c1.1-.9,2-1.6,3-2,.9-.4,1.9-.6,3-.6s2.3.2,3.1.7c.8.5,1.5,1.2,1.9,2.2,1.1-1,2.2-1.7,3.2-2.2,1-.4,2.1-.7,3.2-.7s2.4.2,3.2.7c.8.5,1.3,1.1,1.7,1.9.3.8.5,2,.5,3.7v6.5c0,1.2.1,2,.4,2.3.3.3.8.5,1.7.6v.6h-10v-.6c.8,0,1.4-.3,1.7-.7.2-.3.4-1,.4-2.1v-6.8c0-1.4,0-2.3-.2-2.7-.1-.4-.4-.7-.7-.9-.3-.2-.6-.3-1-.3-.6,0-1.2.2-1.8.5-.6.4-1.2.9-1.8,1.6v8.5c0,1.1.1,1.9.4,2.1.3.4.9.6,1.8.7v.6h-10v-.6c.5,0,1-.1,1.3-.3.3-.2.5-.4.6-.7.1-.3.2-.9.2-1.8v-6.8c0-1.4,0-2.3-.2-2.7-.1-.4-.4-.6-.7-.8-.3-.2-.7-.3-1-.3-.6,0-1.1.1-1.5.4-.6.3-1.3.9-2.1,1.8v8.5c0,1.1.1,1.8.4,2.2.3.4.8.6,1.7.6v.6h-10v-.6c.8,0,1.4-.3,1.7-.6.2-.2.4-1,.4-2.2v-8.9c0-1.2-.1-1.9-.4-2.2-.3-.3-.8-.5-1.7-.6v-.6h7.9ZM320.6,987.2l.6.4c-.9,1.4-2,2.4-3.4,3.1-1.4.7-2.8,1-4.3,1-2.6,0-4.6-.8-6.2-2.4-1.5-1.6-2.3-3.5-2.3-5.7s.7-4,2.1-5.7c1.7-2,4-3,7-3s3.6.4,4.8,1.2c1.2.8,1.8,1.7,1.8,2.7s-.2,1.2-.7,1.5c-.5.4-1.1.6-1.9.6s-1.5-.2-2-.7-.9-1.2-1-2.3c0-.7-.3-1.2-.6-1.5-.3-.3-.7-.4-1.1-.4-.7,0-1.2.3-1.7.9-.7.9-1.1,2.2-1.1,4s.3,2.9.9,4.3c.6,1.4,1.4,2.4,2.4,3,.8.5,1.7.7,2.7.7s1.3-.1,1.9-.4c.6-.3,1.3-.7,2.2-1.5ZM247.1,996.9c-.2.1-.3.3-.5.4,0,.3,1,1.4,1.1,1.8-1.6,0-3.2.1-4.9.2.9-1.2,2.2-2.1,2.9-3.4-.7-.2-1.3-.5-2-.7-.3,1-1.5,3.6-2.1,4.2,0,0-1.6,0-1.9,0,.1.6.3,1.2.4,1.7.6.1,1.9-.1,2.6-.3,1.9-.3,3.8-.4,5.4-.9.3.5.8,1.1.9,1.7.5-.4,1-.7,1.5-1.1-.7-1.1-2.4-2.9-3.5-3.5ZM319.4,997.4v-.8h-4.2l.3-.7c-.5-.5-2.2-.6-3.1-.7h0c0,.2,0,.4-.1.6.6.3,1.2.6,1.8.8-1.8,0-3.6,0-5.4,0,0,3.4.4,7.9-.7,10.3.2.1.4.2.5.3,1.8-1.3,1.7-6.5,1.7-9.8h9.2ZM256.2,1002s0,0,0,0c-.6-.5-.9-1.2-1.6-1.6v-.8h1v.3h7v-.8h-2.7v-.7h2v-.7h-2v-.6h2.4v-.8h-2.4v-1h-1.6v1h-2.3s0,0,0,0c-.4-.4-.7-.8-1.1-1.1-1,.6-2.3,1.2-3.6,1.5,0,.2,0,.4,0,.6.5.1,1.1-.1,1.6-.2v1.7h-1.7v.8h1.4c-.1,1.7-.9,3.6-1.7,4.9.2.1.3.3.5.4.7-.6.9-1.5,1.4-2.3h0c0,1.5,0,3.1,0,4.7h1.5c0-1.9,0-3.8,0-5.7h0c.2.4.4.7.5,1.1.3-.2.6-.5.9-.7ZM254.7,996.8c.5-.1.9-.3,1.4-.4v.8h2.3v.6h-2v.7h2v.7h-2.5v-.3h-1.2v-2ZM291.6,997.8h3.4v-.8h-5.1l.5-1.3c-.6-.1-1.1-.2-1.7-.3h0c0,.6-.4,1.1-.6,1.6h-3.4v.8h3c-.6,1.2-2.2,3-3.6,3.4,0,.2.2.4.3.7.7-.3,1.4-.5,2-.9.3-.2.6-.5,1-.7,0,0,0,0,0,0,0,0,0,.2,0,.2h4.8v-.6c.8.6,1.5,1.4,2.6,1.7.3-.6.6-1.1.8-1.7-1.3-.2-3.4-1.3-4.1-2.1ZM292.1,999.7h-4.1c.5-.6,1.1-1.2,1.5-1.9h1.2c.2.3.4.7.6,1,.2.2.3.4.5.6,0,0,.2.2.3.3ZM303.2,1000.9s0,0,0,0c1.4,0,2.9,0,4.3,0v-.9h-4.6v-4.6h-1.7v4.6h-4.6v.9h3.7c-.6,1.4-1.5,2.8-2.6,3.7-.5.4-1,.8-1.5,1.2.1.2.2.4.3.6,1.5-.6,2.9-1.8,3.8-3,.3-.4.6-.8.8-1.2h0c0,1.7,0,3.4,0,5.1h1.7v-5.4h0c.5,1.5,2.6,3.5,3.9,4.2.4-.6.7-1.1,1.1-1.7-.4-.2-.9-.4-1.3-.6-1-.6-2.9-1.9-3.4-2.9ZM306.6,996.7c-.6-.3-1.1-.6-1.7-.9-.3.9-.7,1.7-1.1,2.5-.2.3-.4.6-.6.9,0,0,0,0,0,0,.2.2.3.3.5.5.8-.2,2.5-2.3,2.9-3ZM265.3,998h3c0,1,0,1.9,0,2.9h1.5v-2.9h3.1v1.9h1.5v-2.6c-1.5,0-3,0-4.5,0v-.6h3.8v-.8h-9.2v.8h3.7v.6h-4.5v2.6h1.5v-1.9ZM280,1004c.9-1.2,1.8-2.4,2.2-4.1.5-2.3-1.4-4.4-3.7-4-.9.2-1.5.6-2.1,1v2.3h0c.3-.7,1.1-1.4,1.9-1.6,1.5-.4,2.5.9,2.2,2.4-.4,1.8-2.3,3.9-3.3,5.2-.3.4-.6.8-1,1.2,0,0,0,.2,0,.3h6.8v-1.7h-3.8c.3-.3.5-.6.8-1ZM299.2,999.9c.5-.3,1-.6,1.5-.9,0-.1-.4-.7-.6-.8-.4-.6-1.5-1.9-2.2-2.2-.2.1-.4.3-.5.4.6,1.1,1.4,2.2,1.7,3.5,0,0,0,0,0,0ZM318.1,1004.3c.5-1.1.9-2.5.8-4.1h.5v-.7h-2.3c.1-.5.3-1.1.3-1.7-.4,0-.9,0-1.3-.1,0,1.2-.3,3.4-.8,4.2h0c0-.4,0-.8,0-1.2h-1.8v-2.9h-1.4v2.9h-1.8v6.6h1.2v-5.9h2.6v3.1c0,.5,0,1.1,0,1.4-.3.1-.8,0-1.2,0,0,.2,0,.4-.1.6.3.1.5.2.8.3.7.2,1.5,0,1.7-.5.3-.6.1-3.1,0-4,.1,0,.3.2.4.2.1-.2.3-.4.4-.6h0c.1.6.2,1.1.4,1.7,0,.3.2.5.3.8-.1.7-1.4,2.1-2,2.4,0,.2.2.4.2.6,0,0,0,0,0,0,.7-.6,1.8-.9,2.2-1.8h0c.3.6.8,1.2,1.4,1.7h0c.3-.4.7-.8,1-1.2h0c-.7-.5-1.2-1.1-1.7-1.7ZM317.4,1002.9h0c-.2-.1-.7-1.7-.7-2,0-.2.2-.5.3-.7.3,0,.5,0,.8,0,0,.9,0,2.1-.3,2.7ZM314.3,1000.4c.6-.5,1.2-1.3,1.5-2.1-.4-.2-.8-.3-1.2-.5-.1.8-.5,1.6-.8,2.2.2.1.3.2.5.3ZM312.1,999.9c.1-.2-1-1.9-1.2-2-.2,0-.3.2-.5.2.2.7.5,1.5.7,2.2.3-.1.7-.3,1-.4ZM268,998.6h-2.4v.7h2.4v-.7ZM270.2,998.6v.7h2.4v-.7h-2.4ZM270.2,1000.6h2.4v-.7h-2.4v.7ZM265.7,1000.6h2.4v-.7h-2.4v.7ZM262.1,1005v-4.6h-5.8v4.6h1.3c-.4.6-1.8,1.6-2.5,1.8,0,.2.1.4.2.5.3,0,.6-.1.8-.2.8-.2,1.5-.5,2.1-.9.3-.2.5-.4.8-.5,0,0,0,0,0-.1-.3-.2-.6-.4-.8-.6h1.5c0,.2-.2.4-.2.6,1,.4,1.8,1.3,2.7,1.7,0,0,0,0,0,0l.8-1.3c-.9-.3-1.8-.9-2.9-1,.6,0,1.3,0,1.9,0ZM257.8,1001.2h2.8v.6h-2.8v-.6ZM257.8,1002.4h2.8v.6h-2.8v-.6ZM257.8,1004.3v-.7h2.8v.7h-2.8ZM274.6,1003.9c0,0-.5,0-.7,0,0,.8,0,1.7-.6,1.8-.6.1-3,.1-3.4-.1-.1-.1-.2-.4-.1-.7h3.4v-3.6h-8.5v4.3h1.5v-.7h2c0,.7,0,1.5.4,1.8.6.4,1.7.2,2.6.3h1.4c1.7,0,2.5-.3,2.2-2.1,0-.3-.1-.6-.2-.9ZM269.9,1002h2v.7h-2v-.7ZM269.9,1003.4h2v.7h-2v-.7ZM268.3,1004.1h-2v-.7h2v.7ZM268.3,1002.7h-2v-.7h2v.7ZM294.2,1002.5v-.8c-2.9,0-5.9,0-8.8,0v.8h3.7c0,.9.2,2.7-.1,3.4-.5.2-1.2,0-1.7,0,0,.2,0,.5-.1.7.4.2.8.3,1.2.5,3,.9,2.5-2.1,2.4-4.6h3.4ZM314,1001.8h-1.9v3.4h1.9v-3.4ZM313.2,1004.5h-.4v-2h.4v2ZM241,1007.3h1.7v-.9h4.8v.9h1.7v-5.4h-8.1c0,1.8,0,3.6,0,5.4ZM242.7,1002.6h4.8v2.9h-4.8v-2.9ZM288.5,1003.6c-.5-.3-1-.5-1.4-.8-.5.9-1.8,2.9-2.7,3.3,0,0,0,0,0,0,.1.2.2.4.3.5,0,0,0,0,0,0,1.5-.6,2.9-1.8,3.8-3.1ZM291.6,1003c-.1.2-.3.3-.4.5h0c.7.9,1.5,1.5,2.1,2.4.2.2.4.5.5.7,0,0,0,0,0,0,.4-.4.8-.8,1.2-1.2-.8-.8-1.7-1.4-2.7-1.9-.3-.1-.5-.4-.8-.4Z" fill="#b21e25"/>
</svg>