<svg width="415" height="33" viewBox="0 0 415 33" fill="none" xmlns="http://www.w3.org/2000/svg">
<path d="M4.86189 28.32H24.5669V30.875H4.86189V28.32ZM3.53189 18.03H26.0019V32.695H23.2019V20.55H6.19189V32.765H3.53189V18.03ZM18.2319 5.955L20.2969 4.555C21.4402 5.55833 22.6186 6.66667 23.8319 7.88C25.0452 9.09333 26.1652 10.3067 27.1919 11.52C28.2186 12.7333 29.0352 13.83 29.6419 14.81L27.4019 16.42C26.8186 15.44 26.0252 14.3317 25.0219 13.095C24.0419 11.8583 22.9452 10.6217 21.7319 9.385C20.5419 8.125 19.3752 6.98167 18.2319 5.955ZM1.67689 15.09C1.65356 14.9033 1.58356 14.6583 1.46689 14.355C1.35022 14.0283 1.23356 13.7017 1.11689 13.375C1.02356 13.025 0.918558 12.7333 0.801892 12.5C1.19856 12.43 1.63023 12.2083 2.09689 11.835C2.56356 11.4617 3.08856 10.995 3.67189 10.435C3.97523 10.1317 4.44189 9.65333 5.07189 9C5.70189 8.34667 6.40189 7.565 7.17189 6.655C7.94189 5.745 8.72356 4.765 9.51689 3.715C10.3336 2.64166 11.0919 1.55667 11.7919 0.459999L14.4169 1.615C13.2969 3.155 12.1186 4.66 10.8819 6.13C9.66856 7.57667 8.42023 8.94167 7.13689 10.225C5.87689 11.485 4.62856 12.6283 3.39189 13.655V13.76C3.39189 13.76 3.31023 13.8067 3.14689 13.9C2.98356 13.97 2.77356 14.075 2.51689 14.215C2.28356 14.355 2.08522 14.5067 1.92189 14.67C1.75856 14.81 1.67689 14.95 1.67689 15.09ZM1.67689 15.09L1.64189 13.025L3.60189 12.01L25.9669 10.995C25.9902 11.345 26.0252 11.7533 26.0719 12.22C26.1419 12.6867 26.2002 13.06 26.2469 13.34C22.7469 13.5267 19.7252 13.69 17.1819 13.83C14.6619 13.97 12.5386 14.0867 10.8119 14.18C9.08523 14.2733 7.67356 14.3667 6.57689 14.46C5.48023 14.53 4.61689 14.6 3.98689 14.67C3.35689 14.7167 2.86689 14.775 2.51689 14.845C2.19023 14.915 1.91023 14.9967 1.67689 15.09ZM38.7419 3.505H41.2969V32.73H38.7419V3.505ZM33.3169 10.33H45.2519V12.78H33.3169V10.33ZM38.9169 11.415L40.5619 12.08C40.2119 13.3167 39.7802 14.6 39.2669 15.93C38.7769 17.26 38.2286 18.5783 37.6219 19.885C37.0386 21.1683 36.4086 22.3817 35.7319 23.525C35.0786 24.645 34.4252 25.6017 33.7719 26.395C33.6086 26.045 33.3986 25.6367 33.1419 25.17C32.8852 24.7033 32.6402 24.3067 32.4069 23.98C33.0369 23.28 33.6669 22.44 34.2969 21.46C34.9269 20.48 35.5336 19.4183 36.1169 18.275C36.7236 17.1317 37.2602 15.9767 37.7269 14.81C38.1936 13.62 38.5902 12.4883 38.9169 11.415ZM43.8869 1.09L45.7069 3.12C44.6802 3.54 43.5019 3.925 42.1719 4.275C40.8419 4.60167 39.4652 4.89333 38.0419 5.15C36.6186 5.38333 35.2419 5.58167 33.9119 5.745C33.8652 5.465 33.7602 5.12666 33.5969 4.73C33.4336 4.33333 33.2819 3.995 33.1419 3.715C34.4019 3.505 35.6969 3.27167 37.0269 3.015C38.3802 2.75833 39.6519 2.46666 40.8419 2.14C42.0552 1.81333 43.0702 1.46333 43.8869 1.09ZM41.0519 14.775C41.2619 14.9617 41.5886 15.2883 42.0319 15.755C42.4986 16.1983 43.0002 16.6883 43.5369 17.225C44.0736 17.7617 44.5636 18.2633 45.0069 18.73C45.4502 19.1967 45.7536 19.535 45.9169 19.745L44.3419 21.81C44.1319 21.46 43.8286 21.0167 43.4319 20.48C43.0586 19.92 42.6386 19.3483 42.1719 18.765C41.7052 18.1583 41.2619 17.5983 40.8419 17.085C40.4452 16.5483 40.1069 16.1283 39.8269 15.825L41.0519 14.775ZM53.6869 0.599999H56.2769V11.24H53.6869V0.599999ZM46.1619 2.525H64.2919V4.345H46.1619V2.525ZM46.9669 6.13H63.3819V7.845H46.9669V6.13ZM45.1119 9.7H65.1319V11.555H45.1119V9.7ZM49.8369 19.08V21.355H60.6519V19.08H49.8369ZM49.8369 23.07V25.38H60.6519V23.07H49.8369ZM49.8369 15.125V17.365H60.6519V15.125H49.8369ZM47.4219 13.305H63.1369V27.2H47.4219V13.305ZM56.9419 28.775L58.7269 27.445C59.5202 27.8883 60.3252 28.355 61.1419 28.845C61.9586 29.335 62.7402 29.8133 63.4869 30.28C64.2569 30.7467 64.9102 31.1667 65.4469 31.54L63.1369 32.835C62.6469 32.485 62.0636 32.0767 61.3869 31.61C60.7102 31.1433 59.9869 30.6533 59.2169 30.14C58.4469 29.65 57.6886 29.195 56.9419 28.775ZM51.3769 27.34L53.6169 28.67C52.9169 29.23 52.0886 29.7783 51.1319 30.315C50.1986 30.875 49.2186 31.3767 48.1919 31.82C47.1886 32.2633 46.2086 32.6367 45.2519 32.94C45.0419 32.6833 44.7619 32.3917 44.4119 32.065C44.0852 31.7383 43.7936 31.4583 43.5369 31.225C44.4936 30.945 45.4736 30.5833 46.4769 30.14C47.4802 29.72 48.4136 29.2767 49.2769 28.81C50.1402 28.32 50.8402 27.83 51.3769 27.34ZM72.8319 21.6H93.8319V23.35H72.8319V21.6ZM72.9019 17.26H95.3369V27.69H72.9019V25.765H92.7469V19.185H72.9019V17.26ZM81.8619 18.205H84.4169V28.775C84.4169 29.3583 84.5802 29.7433 84.9069 29.93C85.2336 30.1167 85.9452 30.21 87.0419 30.21C87.2519 30.21 87.6019 30.21 88.0919 30.21C88.6052 30.21 89.1886 30.21 89.8419 30.21C90.4952 30.21 91.1486 30.21 91.8019 30.21C92.4786 30.21 93.0852 30.21 93.6219 30.21C94.1819 30.21 94.6019 30.21 94.8819 30.21C95.5119 30.21 95.9786 30.1167 96.2819 29.93C96.6086 29.72 96.8419 29.3233 96.9819 28.74C97.1219 28.1333 97.2152 27.2467 97.2619 26.08C97.5419 26.2667 97.9036 26.4417 98.3469 26.605C98.7902 26.7683 99.1869 26.885 99.5369 26.955C99.4202 28.3783 99.2219 29.475 98.9419 30.245C98.6619 31.015 98.2186 31.5517 97.6119 31.855C97.0052 32.1817 96.1536 32.345 95.0569 32.345C94.8702 32.345 94.4969 32.345 93.9369 32.345C93.4002 32.345 92.7702 32.345 92.0469 32.345C91.3236 32.345 90.6002 32.345 89.8769 32.345C89.1769 32.345 88.5469 32.345 87.9869 32.345C87.4502 32.345 87.0886 32.345 86.9019 32.345C85.6186 32.345 84.6036 32.24 83.8569 32.03C83.1102 31.8433 82.5852 31.4817 82.2819 30.945C82.0019 30.4317 81.8619 29.7083 81.8619 28.775V18.205ZM71.5719 17.26H74.0919V29.51H71.5719V17.26ZM70.0669 2H96.6319V3.89H70.0669V2ZM81.9669 2.49H84.5219V15.965H81.9669V2.49ZM68.5269 6.095H98.2769V13.655H95.6519V7.985H71.0469V13.655H68.5269V6.095ZM71.6769 14.075C72.7736 13.935 74.0452 13.76 75.4919 13.55C76.9386 13.34 78.4436 13.1183 80.0069 12.885L80.1119 14.53C78.7586 14.8333 77.4286 15.1133 76.1219 15.37C74.8152 15.6267 73.5902 15.8717 72.4469 16.105L71.6769 14.075ZM72.5519 10.085L73.3219 8.65C74.0919 8.79 74.8969 8.965 75.7369 9.175C76.5769 9.36167 77.3819 9.57167 78.1519 9.805C78.9452 10.0383 79.5986 10.2717 80.1119 10.505L79.3419 12.115C78.8286 11.8817 78.1869 11.6367 77.4169 11.38C76.6469 11.1233 75.8302 10.8783 74.9669 10.645C74.1269 10.4117 73.3219 10.225 72.5519 10.085ZM93.0969 8.475L94.2869 10.015C93.6102 10.295 92.8636 10.5633 92.0469 10.82C91.2536 11.0533 90.4486 11.275 89.6319 11.485C88.8152 11.6717 88.0686 11.835 87.3919 11.975L86.4469 10.645C87.1236 10.4817 87.8702 10.2717 88.6869 10.015C89.5036 9.75833 90.2969 9.49 91.0669 9.21C91.8602 8.93 92.5369 8.685 93.0969 8.475ZM85.9919 14.285L86.6219 12.675C87.5319 12.7683 88.4886 12.9083 89.4919 13.095C90.5186 13.2817 91.4986 13.4917 92.4319 13.725C93.3886 13.9583 94.1819 14.18 94.8119 14.39L94.2519 16.21C93.5986 15.9767 92.7936 15.7433 91.8369 15.51C90.9036 15.2533 89.9236 15.02 88.8969 14.81C87.8936 14.5767 86.9252 14.4017 85.9919 14.285ZM107.272 11.03H127.957V12.71H107.272V11.03ZM109.302 7.18H126.102V8.86H109.302V7.18ZM116.337 5.255H118.752V12.01H116.337V5.255ZM115.952 18.275L117.807 18.975C117.037 19.6283 116.08 20.2583 114.937 20.865C113.794 21.4717 112.604 22.0083 111.367 22.475C110.13 22.9417 108.929 23.35 107.762 23.7C107.669 23.56 107.54 23.3967 107.377 23.21C107.214 23.0233 107.039 22.8367 106.852 22.65C106.689 22.44 106.537 22.265 106.397 22.125C107.564 21.845 108.742 21.5183 109.932 21.145C111.122 20.7483 112.242 20.3167 113.292 19.85C114.365 19.36 115.252 18.835 115.952 18.275ZM126.172 20.025L127.852 21.075C127.082 21.635 126.23 22.1717 125.297 22.685C124.364 23.175 123.5 23.595 122.707 23.945L121.307 23C121.844 22.7433 122.404 22.44 122.987 22.09C123.594 21.74 124.177 21.39 124.737 21.04C125.297 20.6667 125.775 20.3283 126.172 20.025ZM111.752 15.44V17.89H123.547V15.44H111.752ZM109.512 14.005H125.892V19.29H109.512V14.005ZM103.037 2.14H132.297V32.8H129.707V4.52H105.522V32.8H103.037V2.14ZM104.577 28.95H131.142V31.33H104.577V28.95ZM116.792 20.97L118.402 19.99C119.499 20.5967 120.642 21.285 121.832 22.055C123.045 22.8017 124.189 23.56 125.262 24.33C126.359 25.0767 127.269 25.765 127.992 26.395L126.242 27.55C125.565 26.9433 124.69 26.255 123.617 25.485C122.567 24.6917 121.435 23.91 120.222 23.14C119.032 22.3467 117.889 21.6233 116.792 20.97ZM110.877 28.565L110.807 26.955L111.752 26.185L118.787 24.47C118.787 24.7267 118.787 25.0183 118.787 25.345C118.787 25.6717 118.799 25.94 118.822 26.15C117.189 26.5933 115.882 26.955 114.902 27.235C113.922 27.515 113.152 27.7483 112.592 27.935C112.055 28.0983 111.67 28.2267 111.437 28.32C111.204 28.4133 111.017 28.495 110.877 28.565ZM110.877 28.565C110.83 28.3317 110.725 28.0517 110.562 27.725C110.422 27.375 110.294 27.1067 110.177 26.92C110.434 26.8267 110.714 26.6517 111.017 26.395C111.344 26.115 111.507 25.6717 111.507 25.065V20.83L113.537 20.865V26.815C113.537 26.815 113.397 26.8733 113.117 26.99C112.86 27.1067 112.557 27.2583 112.207 27.445C111.857 27.6083 111.542 27.795 111.262 28.005C111.005 28.215 110.877 28.4017 110.877 28.565ZM149.622 8.72V12.78H157.637V8.72H149.622ZM147.137 6.83H160.262V14.67H147.137V6.83ZM145.527 18.975V24.155H150.217V18.975H145.527ZM143.322 17.015H152.492V26.045H143.322V17.015ZM157.147 18.975V24.155H162.012V18.975H157.147ZM154.872 17.015H164.357V26.045H154.872V17.015ZM136.532 2.21H166.072V4.59H136.532V2.21ZM137.967 2.385H140.522V24.47C140.522 25.4733 140.685 26.29 141.012 26.92C141.362 27.5267 141.91 27.9817 142.657 28.285C143.404 28.565 144.419 28.705 145.702 28.705C146.075 28.705 146.659 28.705 147.452 28.705C148.269 28.705 149.202 28.705 150.252 28.705C151.302 28.705 152.387 28.705 153.507 28.705C154.65 28.705 155.747 28.705 156.797 28.705C157.87 28.705 158.827 28.705 159.667 28.705C160.507 28.705 161.125 28.705 161.522 28.705C162.175 28.705 162.864 28.6933 163.587 28.67C164.334 28.6233 165.045 28.5767 165.722 28.53C166.422 28.4833 166.982 28.4133 167.402 28.32C167.425 28.5533 167.46 28.8333 167.507 29.16C167.554 29.4867 167.6 29.8017 167.647 30.105C167.717 30.4083 167.775 30.665 167.822 30.875C167.495 30.945 167.005 31.0033 166.352 31.05C165.699 31.0967 164.952 31.12 164.112 31.12C163.272 31.1433 162.397 31.155 161.487 31.155C161.067 31.155 160.425 31.155 159.562 31.155C158.699 31.155 157.719 31.155 156.622 31.155C155.525 31.155 154.405 31.155 153.262 31.155C152.119 31.155 151.022 31.155 149.972 31.155C148.945 31.155 148.07 31.155 147.347 31.155C146.647 31.155 146.18 31.155 145.947 31.155C144.15 31.155 142.657 30.9333 141.467 30.49C140.3 30.07 139.425 29.3583 138.842 28.355C138.259 27.3517 137.967 25.9983 137.967 24.295V2.385ZM181.039 2.455L183.419 1.51C183.979 2.32667 184.527 3.20167 185.064 4.135C185.624 5.06833 186.126 5.99 186.569 6.9C187.036 7.78667 187.374 8.58 187.584 9.28L185.064 10.365C184.854 9.665 184.539 8.86 184.119 7.95C183.699 7.04 183.221 6.10667 182.684 5.15C182.147 4.17 181.599 3.27167 181.039 2.455ZM203.159 1.405L205.924 2.385C205.457 3.27167 204.944 4.205 204.384 5.185C203.847 6.165 203.299 7.09833 202.739 7.985C202.202 8.87167 201.677 9.665 201.164 10.365L198.854 9.455C199.344 8.755 199.846 7.93833 200.359 7.005C200.896 6.04833 201.409 5.08 201.899 4.1C202.389 3.12 202.809 2.22166 203.159 1.405ZM180.024 11.94H207.044V14.53H180.024V11.94ZM177.749 20.165H209.074V22.79H177.749V20.165ZM191.924 0.564999H194.654V32.73H191.924V0.564999ZM212.119 23.665H243.129V25.765H212.119V23.665ZM221.044 3.82H242.884V5.745H221.044V3.82ZM233.084 21.775H235.639V29.825C235.639 30.5017 235.546 31.0267 235.359 31.4C235.172 31.7733 234.799 32.0533 234.239 32.24C233.679 32.4267 232.932 32.5317 231.999 32.555C231.089 32.6017 229.911 32.625 228.464 32.625C228.417 32.275 228.301 31.89 228.114 31.47C227.951 31.05 227.776 30.6767 227.589 30.35C228.336 30.3733 229.036 30.385 229.689 30.385C230.342 30.385 230.902 30.385 231.369 30.385C231.859 30.385 232.197 30.385 232.384 30.385C232.664 30.3617 232.851 30.3033 232.944 30.21C233.037 30.14 233.084 30 233.084 29.79V21.775ZM218.664 27.235L220.484 25.765C221.371 26.3717 222.269 27.095 223.179 27.935C224.112 28.7517 224.824 29.4867 225.314 30.14L223.389 31.785C223.086 31.3183 222.677 30.8167 222.164 30.28C221.651 29.7433 221.091 29.2067 220.484 28.67C219.877 28.1333 219.271 27.655 218.664 27.235ZM225.314 1.16L227.414 0.529998C227.811 0.973332 228.184 1.49833 228.534 2.105C228.907 2.68833 229.176 3.20167 229.339 3.645L227.099 4.415C226.959 3.94833 226.714 3.41167 226.364 2.805C226.037 2.19833 225.687 1.65 225.314 1.16ZM225.629 11.87V13.48H237.809V11.87H225.629ZM225.629 14.88V16.56H237.809V14.88H225.629ZM225.629 8.93V10.47H237.809V8.93H225.629ZM223.389 7.495H240.119V17.995H223.389V7.495ZM230.599 4.485L233.224 4.73C232.944 5.38333 232.641 6.025 232.314 6.655C232.011 7.26167 231.731 7.79833 231.474 8.265L229.374 7.915C229.607 7.40166 229.841 6.81833 230.074 6.165C230.307 5.51166 230.482 4.95167 230.599 4.485ZM236.374 0.599999L238.859 1.125C238.439 1.80166 238.007 2.46667 237.564 3.12C237.121 3.75 236.712 4.29833 236.339 4.765L234.274 4.24C234.624 3.72667 234.997 3.12 235.394 2.42C235.814 1.72 236.141 1.11333 236.374 0.599999ZM214.394 1.23L216.564 0.669998C217.031 1.18333 217.474 1.76667 217.894 2.42C218.337 3.05 218.687 3.59833 218.944 4.065L216.669 4.765C216.436 4.29833 216.097 3.72666 215.654 3.05C215.234 2.37333 214.814 1.76667 214.394 1.23ZM212.609 5.395H219.609V7.53H212.609V5.395ZM219.049 15.37C219.609 16.56 220.367 17.435 221.324 17.995C222.281 18.555 223.482 18.9283 224.929 19.115C226.399 19.2783 228.172 19.36 230.249 19.36C231.649 19.36 233.154 19.3483 234.764 19.325C236.397 19.2783 238.007 19.22 239.594 19.15C241.204 19.08 242.639 18.9867 243.899 18.87C243.736 19.15 243.584 19.5233 243.444 19.99C243.304 20.4567 243.199 20.8533 243.129 21.18C241.939 21.2267 240.621 21.285 239.174 21.355C237.727 21.4017 236.246 21.4367 234.729 21.46C233.212 21.4833 231.742 21.495 230.319 21.495C227.846 21.495 225.792 21.3667 224.159 21.11C222.526 20.8533 221.184 20.3517 220.134 19.605C219.107 18.835 218.256 17.68 217.579 16.14L219.049 15.37ZM219.154 11.135H219.994L220.414 11.03L221.394 11.73C220.671 14.1567 219.597 16.2567 218.174 18.03C216.774 19.8033 215.234 21.2033 213.554 22.23C213.484 22.0433 213.367 21.8333 213.204 21.6C213.041 21.3433 212.866 21.11 212.679 20.9C212.492 20.6667 212.317 20.4917 212.154 20.375C213.717 19.5117 215.129 18.3217 216.389 16.805C217.672 15.265 218.594 13.5033 219.154 11.52V11.135ZM213.274 13.76V11.73L214.534 11.135H219.819L219.784 13.27H215.304C214.884 13.27 214.476 13.3167 214.079 13.41C213.682 13.5033 213.414 13.62 213.274 13.76ZM213.274 13.76C213.227 13.5733 213.146 13.34 213.029 13.06C212.912 12.7567 212.796 12.4767 212.679 12.22C212.562 11.94 212.457 11.7183 212.364 11.555C212.574 11.5083 212.819 11.4267 213.099 11.31C213.402 11.17 213.706 10.96 214.009 10.68C214.242 10.47 214.581 10.155 215.024 9.735C215.467 9.29166 215.946 8.81333 216.459 8.3C216.972 7.76333 217.451 7.25 217.894 6.76C218.361 6.27 218.722 5.86166 218.979 5.535V5.43L219.749 5.115L221.324 6.025C220.834 6.585 220.216 7.25 219.469 8.02C218.722 8.76667 217.964 9.525 217.194 10.295C216.424 11.0417 215.724 11.695 215.094 12.255C215.094 12.255 215.001 12.3017 214.814 12.395C214.651 12.4883 214.441 12.6167 214.184 12.78C213.927 12.92 213.706 13.0833 213.519 13.27C213.356 13.4333 213.274 13.5967 213.274 13.76ZM260.244 15.79H277.779V17.785H260.244V15.79ZM259.824 30.07H278.094V32.1H259.824V30.07ZM265.354 0.599999H267.489V4.695H265.354V0.599999ZM270.044 0.599999H272.214V4.695H270.044V0.599999ZM263.044 9.49V12.045H274.734V9.49H263.044ZM263.044 5.185V7.705H274.734V5.185H263.044ZM260.979 3.295H276.869V13.935H260.979V3.295ZM264.269 21.25V24.19H273.614V21.25H264.269ZM261.924 19.465H276.064V25.975H261.924V19.465ZM272.144 26.045L274.524 26.745C274.127 27.5383 273.707 28.3433 273.264 29.16C272.844 29.9533 272.459 30.63 272.109 31.19L270.359 30.56C270.662 29.93 270.977 29.1833 271.304 28.32C271.654 27.4333 271.934 26.675 272.144 26.045ZM263.674 26.745L265.704 26.15C266.007 26.8267 266.311 27.5617 266.614 28.355C266.917 29.1483 267.151 29.825 267.314 30.385L265.179 31.12C265.039 30.5367 264.817 29.8367 264.514 29.02C264.234 28.18 263.954 27.4217 263.674 26.745ZM265.704 4.24H267.489V13.13H265.704V4.24ZM270.149 4.24H271.934V13.13H270.149V4.24ZM249.079 15.825H257.164V17.68H249.079V15.825ZM255.834 15.825H258.074V30.105C258.074 30.665 258.004 31.1083 257.864 31.435C257.724 31.7617 257.456 32.0183 257.059 32.205C256.686 32.3917 256.184 32.4967 255.554 32.52C254.924 32.5667 254.107 32.59 253.104 32.59C253.057 32.31 252.964 31.9717 252.824 31.575C252.684 31.1783 252.532 30.84 252.369 30.56C253.069 30.5833 253.687 30.595 254.224 30.595C254.784 30.595 255.146 30.5833 255.309 30.56C255.659 30.56 255.834 30.3967 255.834 30.07V15.825ZM247.784 1.825H258.179V12.465H255.939V3.82H249.919V12.465H247.784V1.825ZM246.349 11.555H259.684V16.63H257.584V13.515H248.344V16.63H246.349V11.555ZM252.089 6.095H257.374V7.775H253.664V12.325H252.089V6.095ZM248.064 15.825H250.269V22.405C250.269 23.455 250.211 24.61 250.094 25.87C249.977 27.1067 249.744 28.3433 249.394 29.58C249.067 30.8167 248.554 31.925 247.854 32.905C247.737 32.765 247.562 32.6017 247.329 32.415C247.119 32.2283 246.886 32.0533 246.629 31.89C246.396 31.7267 246.186 31.5983 245.999 31.505C246.629 30.6183 247.084 29.65 247.364 28.6C247.667 27.5267 247.854 26.4533 247.924 25.38C248.017 24.3067 248.064 23.3033 248.064 22.37V15.825ZM250.129 26.465C250.992 26.0917 252.007 25.6133 253.174 25.03C254.364 24.4233 255.589 23.7933 256.849 23.14L257.304 24.575C256.231 25.2283 255.169 25.8817 254.119 26.535C253.069 27.1883 252.066 27.795 251.109 28.355L250.129 26.465ZM250.514 20.235L251.704 18.975C252.427 19.4417 253.139 19.9433 253.839 20.48C254.562 20.9933 255.134 21.46 255.554 21.88L254.224 23.315C253.851 22.895 253.302 22.3933 252.579 21.81C251.856 21.2033 251.167 20.6783 250.514 20.235ZM298.639 1.02H301.264V27.795C301.264 28.635 301.369 29.1833 301.579 29.44C301.789 29.6967 302.267 29.825 303.014 29.825C303.201 29.825 303.539 29.825 304.029 29.825C304.519 29.825 305.056 29.825 305.639 29.825C306.246 29.825 306.806 29.825 307.319 29.825C307.832 29.825 308.194 29.825 308.404 29.825C308.824 29.825 309.139 29.7083 309.349 29.475C309.582 29.2417 309.746 28.8217 309.839 28.215C309.932 27.585 310.002 26.7217 310.049 25.625C310.376 25.835 310.761 26.045 311.204 26.255C311.671 26.465 312.102 26.6167 312.499 26.71C312.382 28.0867 312.196 29.1833 311.939 30C311.682 30.84 311.286 31.435 310.749 31.785C310.236 32.1583 309.501 32.345 308.544 32.345C308.404 32.345 308.136 32.345 307.739 32.345C307.366 32.345 306.922 32.345 306.409 32.345C305.896 32.345 305.382 32.345 304.869 32.345C304.356 32.345 303.901 32.345 303.504 32.345C303.131 32.345 302.874 32.345 302.734 32.345C301.684 32.345 300.856 32.2167 300.249 31.96C299.642 31.7267 299.222 31.2717 298.989 30.595C298.756 29.9183 298.639 28.985 298.639 27.795V1.02ZM280.404 20.83C281.337 20.4567 282.422 20.0133 283.659 19.5C284.896 18.9867 286.202 18.4267 287.579 17.82C288.979 17.2133 290.367 16.6067 291.744 16L292.269 18.24C290.449 19.15 288.606 20.06 286.739 20.97C284.872 21.8567 283.181 22.6617 281.664 23.385L280.404 20.83ZM290.869 1.02H293.459V14.495C293.459 16.385 293.331 18.2167 293.074 19.99C292.817 21.74 292.316 23.4083 291.569 24.995C290.822 26.5817 289.702 28.0517 288.209 29.405C286.716 30.7583 284.744 31.96 282.294 33.01C282.177 32.8 282.026 32.555 281.839 32.275C281.676 31.995 281.489 31.7267 281.279 31.47C281.069 31.2133 280.871 31.0033 280.684 30.84C282.947 29.8833 284.756 28.81 286.109 27.62C287.462 26.4067 288.477 25.1 289.154 23.7C289.854 22.3 290.309 20.83 290.519 19.29C290.752 17.7267 290.869 16.1167 290.869 14.46V1.02ZM281.699 4.975L283.904 3.82C284.604 4.66 285.304 5.58167 286.004 6.585C286.727 7.565 287.381 8.545 287.964 9.525C288.547 10.4817 289.002 11.345 289.329 12.115L286.949 13.48C286.669 12.71 286.237 11.835 285.654 10.855C285.094 9.85167 284.464 8.83667 283.764 7.81C283.087 6.78333 282.399 5.83833 281.699 4.975ZM300.424 16.875L301.999 15.02C303.189 15.6033 304.426 16.2917 305.709 17.085C307.016 17.855 308.252 18.6483 309.419 19.465C310.586 20.2583 311.531 20.9933 312.254 21.67L310.539 23.84C309.839 23.14 308.917 22.3817 307.774 21.565C306.654 20.725 305.441 19.8967 304.134 19.08C302.851 18.2633 301.614 17.5283 300.424 16.875ZM308.194 3.47L310.784 4.8C310.177 5.75667 309.512 6.76 308.789 7.81C308.089 8.86 307.377 9.86333 306.654 10.82C305.954 11.7767 305.277 12.6283 304.624 13.375L302.629 12.22C303.236 11.45 303.889 10.5633 304.589 9.56C305.289 8.55667 305.954 7.51833 306.584 6.445C307.237 5.37167 307.774 4.38 308.194 3.47ZM333.499 14.705H336.159V28.215C336.159 28.845 336.264 29.2533 336.474 29.44C336.684 29.6033 337.127 29.685 337.804 29.685C337.967 29.685 338.247 29.685 338.644 29.685C339.064 29.685 339.519 29.685 340.009 29.685C340.499 29.685 340.954 29.685 341.374 29.685C341.817 29.685 342.144 29.685 342.354 29.685C342.844 29.685 343.206 29.5333 343.439 29.23C343.672 28.9033 343.836 28.2967 343.929 27.41C344.046 26.5 344.116 25.1467 344.139 23.35C344.372 23.5133 344.629 23.6767 344.909 23.84C345.189 23.98 345.481 24.1083 345.784 24.225C346.111 24.3417 346.391 24.435 346.624 24.505C346.531 26.5117 346.356 28.075 346.099 29.195C345.866 30.2917 345.469 31.0617 344.909 31.505C344.372 31.9483 343.591 32.17 342.564 32.17C342.401 32.17 342.074 32.17 341.584 32.17C341.094 32.17 340.569 32.17 340.009 32.17C339.449 32.17 338.924 32.17 338.434 32.17C337.967 32.17 337.652 32.17 337.489 32.17C336.462 32.17 335.646 32.0533 335.039 31.82C334.456 31.5867 334.047 31.1783 333.814 30.595C333.604 30.035 333.499 29.2533 333.499 28.25V14.705ZM315.159 13.13H346.064V15.72H315.159V13.13ZM318.239 3.33H343.089V5.85H318.239V3.33ZM324.119 15.125H326.919C326.756 17.085 326.511 18.94 326.184 20.69C325.857 22.44 325.321 24.0733 324.574 25.59C323.851 27.0833 322.824 28.4367 321.494 29.65C320.187 30.8633 318.496 31.8783 316.419 32.695C316.279 32.3917 316.046 32.03 315.719 31.61C315.392 31.2133 315.077 30.8983 314.774 30.665C316.687 29.9417 318.227 29.0433 319.394 27.97C320.584 26.8967 321.494 25.695 322.124 24.365C322.777 23.0117 323.244 21.565 323.524 20.025C323.804 18.4617 324.002 16.8283 324.119 15.125ZM351.174 11.17H362.619V13.27H351.174V11.17ZM351.174 15.79H362.549V17.855H351.174V15.79ZM349.634 6.55H364.124V8.72H349.634V6.55ZM352.574 20.445H362.619V30.665H352.574V28.46H360.309V22.65H352.574V20.445ZM351.454 20.445H353.729V32.345H351.454V20.445ZM353.764 1.51L355.829 0.459999C356.342 1.16 356.844 1.93 357.334 2.77C357.847 3.61 358.244 4.345 358.524 4.975L356.389 6.2C356.132 5.57 355.747 4.81167 355.234 3.925C354.744 3.015 354.254 2.21 353.764 1.51ZM364.054 12.71H380.819V15.3H364.054V12.71ZM370.914 1.23H373.609V32.8H370.914V1.23ZM397.829 20.585H400.314V27.62H397.829V20.585ZM383.514 29.93H414.944V31.785H383.514V29.93ZM383.584 6.165H414.839V7.845H383.584V6.165ZM383.514 16.7H414.979V18.52H383.514V16.7ZM386.209 13.2H412.424V14.845H386.209V13.2ZM387.294 2.735H411.024V11.415H387.084V9.77H408.399V4.38H387.294V2.735ZM397.724 0.564999H400.384V17.4H397.724V0.564999ZM390.059 24.89V26.745H408.434V24.89H390.059ZM390.059 21.6V23.385H408.434V21.6H390.059ZM387.504 20.06H411.094V28.285H387.504V20.06Z" fill="black"/>
</svg>
