<svg width="206" height="80" viewBox="0 0 206 80" fill="none" xmlns="http://www.w3.org/2000/svg">
<path d="M33.225 30.315H59.51L61.75 27.515C61.75 27.515 61.8783 27.62 62.135 27.83C62.415 28.04 62.765 28.3083 63.185 28.635C63.6283 28.9617 64.0833 29.3117 64.55 29.685C65.0167 30.0583 65.4367 30.42 65.81 30.77C65.7167 31.1433 65.39 31.33 64.83 31.33H33.54L33.225 30.315ZM37.32 18.94H56.535L58.705 16.21C58.705 16.21 58.8333 16.315 59.09 16.525C59.3467 16.735 59.685 17.0033 60.105 17.33C60.525 17.6333 60.9567 17.9717 61.4 18.345C61.8667 18.695 62.2867 19.0333 62.66 19.36C62.59 19.7333 62.275 19.92 61.715 19.92H37.6L37.32 18.94ZM39.42 9H57.725L59.895 6.375C59.895 6.375 60.0233 6.46833 60.28 6.655C60.5367 6.84167 60.8633 7.09833 61.26 7.425C61.6567 7.72833 62.0767 8.055 62.52 8.405C62.9867 8.755 63.4183 9.105 63.815 9.455C63.7217 9.82833 63.395 10.015 62.835 10.015H38.895L39.42 9ZM47.575 0.564999L52.475 1.055C52.4283 1.28833 52.3117 1.49833 52.125 1.685C51.9617 1.84833 51.6467 1.965 51.18 2.035V30.84H47.575V0.564999ZM40.015 1.65L44.985 3.19C44.915 3.37667 44.7633 3.54 44.53 3.68C44.32 3.82 44.005 3.89 43.585 3.89C42.395 7.04 40.925 9.84 39.175 12.29C37.4483 14.74 35.5233 16.77 33.4 18.38L32.945 18.065C33.9017 16.7583 34.8233 15.23 35.71 13.48C36.62 11.73 37.4483 9.85167 38.195 7.845C38.9417 5.815 39.5483 3.75 40.015 1.65ZM96.435 12.71C96.435 12.71 96.5283 12.8033 96.715 12.99C96.925 13.1533 97.1933 13.375 97.52 13.655C97.8467 13.9117 98.185 14.2033 98.535 14.53C98.885 14.8333 99.2 15.125 99.48 15.405C99.3867 15.7783 99.0833 15.965 98.57 15.965H87.65L87.37 14.95H94.72L96.435 12.71ZM95.875 2.525C95.875 2.525 95.98 2.61833 96.19 2.805C96.4 2.96833 96.6567 3.19 96.96 3.47C97.2867 3.72667 97.625 4.01833 97.975 4.345C98.325 4.64833 98.64 4.94 98.92 5.22C98.85 5.59333 98.5583 5.78 98.045 5.78H87.615L87.335 4.765H94.195L95.875 2.525ZM70.955 9.42V8.405L74.385 9.77H73.86V14.075C73.86 14.7983 73.8017 15.5567 73.685 16.35C73.5917 17.1433 73.37 17.9367 73.02 18.73C72.6933 19.5233 72.18 20.2817 71.48 21.005C70.8033 21.705 69.8933 22.3467 68.75 22.93L68.4 22.51C69.1933 21.7167 69.765 20.865 70.115 19.955C70.4883 19.0217 70.7217 18.065 70.815 17.085C70.9083 16.0817 70.955 15.09 70.955 14.11V9.77V9.42ZM72.915 16.455C73.6617 16.385 74.5483 16.28 75.575 16.14C76.625 15.9767 77.71 15.7783 78.83 15.545C79.9733 15.2883 81.07 15.0083 82.12 14.705L82.225 15.195C81.2917 15.755 80.23 16.35 79.04 16.98C77.8733 17.61 76.5317 18.2283 75.015 18.835C74.875 19.2783 74.6183 19.5583 74.245 19.675L72.915 16.455ZM73.09 12.5C74.21 12.1033 75.19 11.8933 76.03 11.87C76.8933 11.8233 77.605 11.9167 78.165 12.15C78.725 12.36 79.145 12.64 79.425 12.99C79.7283 13.34 79.8917 13.69 79.915 14.04C79.9617 14.3667 79.88 14.635 79.67 14.845C79.46 15.055 79.1217 15.1367 78.655 15.09C78.0017 14.6233 77.2083 14.215 76.275 13.865C75.3417 13.4917 74.2567 13.235 73.02 13.095L73.09 12.5ZM82.68 9.77V10.785H72.005L71.69 9.77H82.68ZM79.985 2.14C79.8917 2.35 79.6817 2.51333 79.355 2.63C79.0283 2.74667 78.5733 2.7 77.99 2.49L79.11 2.28C78.5033 2.77 77.7217 3.28333 76.765 3.82C75.8083 4.33333 74.805 4.82333 73.755 5.29C72.705 5.73333 71.7133 6.10667 70.78 6.41V6.025H72.355C72.285 6.98166 72.0983 7.71666 71.795 8.23C71.515 8.74333 71.2 9.08167 70.85 9.245L69.345 5.605C69.345 5.605 69.45 5.58167 69.66 5.535C69.8933 5.465 70.0917 5.40667 70.255 5.36C70.9083 5.08 71.5967 4.63667 72.32 4.03C73.0433 3.4 73.7083 2.74666 74.315 2.07C74.9217 1.39333 75.3767 0.833333 75.68 0.389999L79.985 2.14ZM69.835 5.92C70.675 5.94333 71.795 5.94333 73.195 5.92C74.6183 5.89667 76.2167 5.86167 77.99 5.815C79.7633 5.76833 81.5717 5.71 83.415 5.64V6.235C82.085 6.515 80.3233 6.88833 78.13 7.355C75.96 7.79833 73.5683 8.23 70.955 8.65L69.835 5.92ZM90.415 11.975C90.345 12.465 89.995 12.745 89.365 12.815V18.66C89.365 18.87 89.4233 19.0217 89.54 19.115C89.68 19.185 90.0183 19.22 90.555 19.22H93.565C94.1483 19.22 94.685 19.22 95.175 19.22C95.6883 19.22 96.05 19.2083 96.26 19.185C96.6333 19.185 96.89 19.1033 97.03 18.94C97.1933 18.7767 97.3683 18.4967 97.555 18.1C97.765 17.7033 97.9633 17.2483 98.15 16.735H98.535L98.64 18.94C99.1067 19.1033 99.4217 19.2783 99.585 19.465C99.7483 19.6283 99.83 19.85 99.83 20.13C99.83 20.55 99.6433 20.8883 99.27 21.145C98.92 21.4017 98.2667 21.5883 97.31 21.705C96.3767 21.7983 95.035 21.845 93.285 21.845H89.855C88.8517 21.845 88.0933 21.7633 87.58 21.6C87.0667 21.4367 86.7167 21.1683 86.53 20.795C86.3667 20.3983 86.285 19.8617 86.285 19.185V11.59L90.415 11.975ZM80.545 9.77L81.945 8.125L85.27 10.61C85.1767 10.7267 84.99 10.855 84.71 10.995C84.4533 11.135 84.15 11.24 83.8 11.31V19.08C83.8 19.71 83.7183 20.2583 83.555 20.725C83.3917 21.1683 83.0417 21.53 82.505 21.81C81.9917 22.0667 81.1983 22.2417 80.125 22.335C80.1017 21.985 80.055 21.6583 79.985 21.355C79.915 21.0517 79.7867 20.8067 79.6 20.62C79.4133 20.4567 79.1567 20.305 78.83 20.165C78.5267 20.025 78.0717 19.9083 77.465 19.815V19.325C77.465 19.325 77.5817 19.3367 77.815 19.36C78.0483 19.3833 78.3283 19.4067 78.655 19.43C78.9817 19.43 79.2967 19.4417 79.6 19.465C79.9267 19.4883 80.16 19.5 80.3 19.5C80.5333 19.5 80.685 19.4533 80.755 19.36C80.8483 19.2433 80.895 19.08 80.895 18.87V9.77H80.545ZM90.24 1.125C90.1933 1.59166 89.855 1.88333 89.225 2V8.09C89.225 8.32333 89.2833 8.48666 89.4 8.58C89.54 8.65 89.8667 8.685 90.38 8.685H93.25C93.8333 8.685 94.3583 8.685 94.825 8.685C95.2917 8.685 95.6417 8.67333 95.875 8.65C96.015 8.65 96.1667 8.65 96.33 8.65C96.4933 8.62667 96.6217 8.60333 96.715 8.58C96.855 8.58 96.995 8.56833 97.135 8.545C97.2983 8.49833 97.4383 8.45167 97.555 8.405H97.905L98.045 8.44C98.5117 8.60333 98.8383 8.76667 99.025 8.93C99.2117 9.07 99.305 9.28 99.305 9.56C99.305 9.98 99.13 10.3067 98.78 10.54C98.43 10.75 97.8 10.9017 96.89 10.995C95.98 11.065 94.6617 11.1 92.935 11.1H89.68C88.7 11.1 87.9533 11.0183 87.44 10.855C86.95 10.6917 86.6117 10.435 86.425 10.085C86.2617 9.71167 86.18 9.19833 86.18 8.545V0.739999L90.24 1.125ZM79.67 2.98C81.0233 3.21333 82.0967 3.55167 82.89 3.995C83.7067 4.415 84.3017 4.88167 84.675 5.395C85.0483 5.885 85.2467 6.36333 85.27 6.83C85.3167 7.29667 85.2233 7.69333 84.99 8.02C84.7567 8.32333 84.4417 8.51 84.045 8.58C83.6483 8.65 83.2167 8.53333 82.75 8.23C82.6333 7.62333 82.3883 7.01667 82.015 6.41C81.665 5.78 81.245 5.19667 80.755 4.66C80.2883 4.1 79.8217 3.63333 79.355 3.26L79.67 2.98ZM80.895 23.175C80.8717 23.385 80.7667 23.5717 80.58 23.735C80.4167 23.8983 80.16 24.0033 79.81 24.05V29.02C79.81 29.2533 79.8917 29.4167 80.055 29.51C80.2417 29.58 80.6967 29.615 81.42 29.615H86.04C86.9267 29.615 87.72 29.615 88.42 29.615C89.1433 29.5917 89.6567 29.5683 89.96 29.545C90.24 29.5217 90.4383 29.4867 90.555 29.44C90.695 29.37 90.8233 29.2533 90.94 29.09C91.1267 28.7867 91.3367 28.3083 91.57 27.655C91.8033 27.0017 92.0717 26.2083 92.375 25.275H92.76L92.865 29.16C93.4017 29.3467 93.7517 29.545 93.915 29.755C94.1017 29.9417 94.195 30.1867 94.195 30.49C94.195 30.84 94.0783 31.1317 93.845 31.365C93.6117 31.5983 93.1917 31.7733 92.585 31.89C91.9783 32.03 91.1267 32.1233 90.03 32.17C88.9333 32.2167 87.51 32.24 85.76 32.24H80.965C79.7283 32.24 78.7833 32.1583 78.13 31.995C77.5 31.855 77.0683 31.575 76.835 31.155C76.6017 30.7583 76.485 30.1867 76.485 29.44V22.79L80.895 23.175ZM73.58 23.245C73.93 24.5283 74.0233 25.6717 73.86 26.675C73.72 27.6783 73.4283 28.5183 72.985 29.195C72.5417 29.8483 72.0633 30.315 71.55 30.595C71.0367 30.875 70.4883 30.9683 69.905 30.875C69.3217 30.805 68.9367 30.525 68.75 30.035C68.5867 29.545 68.6333 29.1133 68.89 28.74C69.1467 28.3433 69.4967 28.04 69.94 27.83C70.4067 27.62 70.8733 27.2933 71.34 26.85C71.8067 26.3833 72.1917 25.8467 72.495 25.24C72.8217 24.61 72.9967 23.9333 73.02 23.21L73.58 23.245ZM93.81 23.42C95.3033 23.7933 96.505 24.26 97.415 24.82C98.3483 25.38 99.025 25.975 99.445 26.605C99.865 27.2117 100.098 27.8067 100.145 28.39C100.192 28.95 100.087 29.4167 99.83 29.79C99.5733 30.1633 99.2233 30.385 98.78 30.455C98.3367 30.525 97.8467 30.3733 97.31 30C97.2167 29.2533 96.96 28.495 96.54 27.725C96.1433 26.9317 95.665 26.185 95.105 25.485C94.5683 24.785 94.02 24.19 93.46 23.7L93.81 23.42ZM82.96 22.16C84.36 22.37 85.48 22.685 86.32 23.105C87.1833 23.5017 87.8133 23.945 88.21 24.435C88.63 24.925 88.8633 25.4033 88.91 25.87C88.9567 26.3367 88.875 26.7333 88.665 27.06C88.455 27.3633 88.14 27.55 87.72 27.62C87.3233 27.6667 86.8917 27.55 86.425 27.27C86.2617 26.6867 85.97 26.1033 85.55 25.52C85.1533 24.9133 84.6867 24.3417 84.15 23.805C83.6367 23.2683 83.135 22.8133 82.645 22.44L82.96 22.16ZM127.795 22.615C129.358 22.9417 130.642 23.385 131.645 23.945C132.648 24.505 133.407 25.1 133.92 25.73C134.433 26.36 134.748 26.9667 134.865 27.55C134.982 28.1333 134.947 28.6233 134.76 29.02C134.597 29.4167 134.305 29.6733 133.885 29.79C133.488 29.8833 133.045 29.7433 132.555 29.37C132.205 28.74 131.785 28.04 131.295 27.27C130.805 26.5 130.245 25.7417 129.615 24.995C128.985 24.225 128.285 23.5483 127.515 22.965L127.795 22.615ZM124.715 1.37C124.668 1.60333 124.517 1.81333 124.26 2C124.027 2.16333 123.63 2.22167 123.07 2.175L123.525 1.545C123.362 2.05833 123.128 2.71167 122.825 3.505C122.522 4.275 122.195 5.09167 121.845 5.955C121.495 6.795 121.157 7.61167 120.83 8.405C120.503 9.19833 120.212 9.875 119.955 10.435H120.235L118.87 11.835L115.895 9.525C116.175 9.33833 116.525 9.16333 116.945 9C117.388 8.81333 117.785 8.685 118.135 8.615L116.945 9.805C117.225 9.26833 117.54 8.60333 117.89 7.81C118.24 6.99333 118.59 6.14167 118.94 5.255C119.29 4.345 119.605 3.48167 119.885 2.665C120.188 1.84833 120.422 1.16 120.585 0.599999L124.715 1.37ZM135.215 17.75C135.122 17.89 134.982 17.9833 134.795 18.03C134.608 18.0767 134.34 18.0533 133.99 17.96C133.523 18.2633 132.94 18.625 132.24 19.045C131.54 19.465 130.817 19.885 130.07 20.305C129.323 20.725 128.658 21.11 128.075 21.46L127.76 21.11C128.18 20.55 128.635 19.92 129.125 19.22C129.615 18.4967 130.093 17.7733 130.56 17.05C131.027 16.3267 131.412 15.72 131.715 15.23L135.215 17.75ZM116.21 15.895C117.563 16.1517 118.648 16.49 119.465 16.91C120.282 17.33 120.877 17.7967 121.25 18.31C121.647 18.8 121.857 19.2783 121.88 19.745C121.927 20.2117 121.833 20.6083 121.6 20.935C121.39 21.2383 121.087 21.425 120.69 21.495C120.293 21.5417 119.862 21.425 119.395 21.145C119.232 20.585 118.963 20.0017 118.59 19.395C118.217 18.765 117.785 18.17 117.295 17.61C116.828 17.05 116.35 16.5717 115.86 16.175L116.21 15.895ZM114.145 26.57C114.612 26.36 115.265 26.0683 116.105 25.695C116.968 25.2983 117.925 24.8433 118.975 24.33C120.025 23.7933 121.098 23.245 122.195 22.685L122.37 23.07C121.81 23.7 121.087 24.505 120.2 25.485C119.337 26.465 118.31 27.585 117.12 28.845C117.097 29.335 116.91 29.6733 116.56 29.86L114.145 26.57ZM126.675 29.055C126.675 29.7783 126.582 30.4083 126.395 30.945C126.208 31.505 125.823 31.9483 125.24 32.275C124.68 32.625 123.805 32.8467 122.615 32.94C122.592 32.4967 122.533 32.1 122.44 31.75C122.347 31.4 122.207 31.12 122.02 30.91C121.81 30.6767 121.507 30.4783 121.11 30.315C120.737 30.1517 120.188 30.0233 119.465 29.93V29.405C119.465 29.405 119.605 29.4167 119.885 29.44C120.188 29.4633 120.538 29.4867 120.935 29.51C121.355 29.5333 121.752 29.5567 122.125 29.58C122.498 29.6033 122.755 29.615 122.895 29.615C123.198 29.615 123.385 29.5683 123.455 29.475C123.548 29.3583 123.595 29.195 123.595 28.985V13.55H126.675V29.055ZM128.565 4.065L130.035 2.525L133.01 5.08C132.777 5.31333 132.345 5.45333 131.715 5.5L128.95 13.9H125.625L128.915 4.065H128.565ZM129.055 9.42V10.435H119.43L119.64 9.42H129.055ZM130.245 4.065V5.08H121.005L121.215 4.065H130.245ZM132.59 10.96C132.59 10.96 132.695 11.0533 132.905 11.24C133.138 11.4267 133.418 11.6717 133.745 11.975C134.095 12.2783 134.457 12.605 134.83 12.955C135.203 13.2817 135.53 13.5967 135.81 13.9C135.717 14.2733 135.413 14.46 134.9 14.46H115.23L114.95 13.445H130.875L132.59 10.96ZM116.28 8.545C116.163 8.73167 115.93 8.86 115.58 8.93C115.23 9 114.787 8.895 114.25 8.615L115.265 8.405C114.775 9.19833 114.133 10.0967 113.34 11.1C112.57 12.08 111.718 13.095 110.785 14.145C109.852 15.1717 108.872 16.1633 107.845 17.12C106.842 18.0767 105.862 18.9167 104.905 19.64L104.87 19.22H106.41C106.317 20.1533 106.095 20.8883 105.745 21.425C105.418 21.9383 105.057 22.265 104.66 22.405L103.4 18.73C103.4 18.73 103.54 18.695 103.82 18.625C104.123 18.555 104.357 18.45 104.52 18.31C105.243 17.68 106.002 16.8633 106.795 15.86C107.588 14.8333 108.358 13.7367 109.105 12.57C109.875 11.38 110.563 10.2133 111.17 9.07C111.8 7.92667 112.29 6.92333 112.64 6.06L116.28 8.545ZM113.06 2.49C112.967 2.7 112.757 2.86333 112.43 2.98C112.103 3.09667 111.648 3.03833 111.065 2.805L112.115 2.595C111.602 3.45833 110.948 4.43833 110.155 5.535C109.362 6.60833 108.51 7.65833 107.6 8.685C106.713 9.68833 105.85 10.5517 105.01 11.275L104.975 10.89H106.585C106.515 11.7767 106.328 12.4883 106.025 13.025C105.745 13.5617 105.418 13.9 105.045 14.04L103.575 10.4C103.575 10.4 103.692 10.3767 103.925 10.33C104.158 10.26 104.345 10.1667 104.485 10.05C104.905 9.58333 105.337 8.95333 105.78 8.16C106.247 7.36667 106.69 6.50333 107.11 5.57C107.553 4.63667 107.938 3.72667 108.265 2.84C108.592 1.95333 108.848 1.18333 109.035 0.529998L113.06 2.49ZM106.725 23.105C107.238 24.9483 107.402 26.5233 107.215 27.83C107.028 29.1367 106.667 30.1167 106.13 30.77C105.897 31.05 105.593 31.2483 105.22 31.365C104.847 31.505 104.473 31.5283 104.1 31.435C103.75 31.365 103.482 31.1783 103.295 30.875C103.062 30.4317 103.027 30 103.19 29.58C103.353 29.16 103.633 28.7867 104.03 28.46C104.38 28.1567 104.718 27.725 105.045 27.165C105.372 26.5817 105.64 25.94 105.85 25.24C106.083 24.5167 106.188 23.805 106.165 23.105H106.725ZM111.415 21.985C112.605 22.5683 113.492 23.1983 114.075 23.875C114.682 24.5283 115.043 25.1583 115.16 25.765C115.3 26.3483 115.265 26.85 115.055 27.27C114.868 27.69 114.577 27.9467 114.18 28.04C113.807 28.11 113.398 27.9583 112.955 27.585C112.932 26.6983 112.71 25.7533 112.29 24.75C111.87 23.7233 111.427 22.8717 110.96 22.195L111.415 21.985ZM108.86 22.615C109.793 23.5717 110.447 24.505 110.82 25.415C111.217 26.3017 111.403 27.1067 111.38 27.83C111.38 28.5533 111.24 29.1367 110.96 29.58C110.703 30 110.365 30.2333 109.945 30.28C109.548 30.35 109.163 30.1517 108.79 29.685C108.953 28.5417 108.977 27.34 108.86 26.08C108.743 24.82 108.568 23.7117 108.335 22.755L108.86 22.615ZM111.59 14.53C112.687 15.16 113.538 15.825 114.145 16.525C114.752 17.2017 115.16 17.855 115.37 18.485C115.58 19.115 115.638 19.675 115.545 20.165C115.475 20.655 115.3 21.04 115.02 21.32C114.74 21.6 114.402 21.7283 114.005 21.705C113.632 21.6817 113.247 21.4717 112.85 21.075C112.873 20.3983 112.792 19.675 112.605 18.905C112.442 18.135 112.22 17.3883 111.94 16.665C111.683 15.9417 111.415 15.2883 111.135 14.705L111.59 14.53ZM104.1 18.835C104.73 18.8117 105.57 18.7767 106.62 18.73C107.693 18.66 108.895 18.5783 110.225 18.485C111.578 18.3917 112.955 18.2983 114.355 18.205L114.425 18.73C113.795 18.94 112.99 19.22 112.01 19.57C111.053 19.92 109.98 20.2933 108.79 20.69C107.6 21.0633 106.363 21.4367 105.08 21.81L104.1 18.835ZM103.995 10.54C104.508 10.5633 105.197 10.5867 106.06 10.61C106.923 10.61 107.88 10.61 108.93 10.61C109.98 10.5867 111.03 10.5633 112.08 10.54L112.115 11.065C111.462 11.3217 110.493 11.695 109.21 12.185C107.95 12.6517 106.608 13.1067 105.185 13.55L103.995 10.54ZM152.925 0.179998C154.302 0.203332 155.398 0.378333 156.215 0.705C157.032 1.00833 157.627 1.38166 158 1.825C158.373 2.245 158.56 2.68833 158.56 3.155C158.56 3.59833 158.42 3.98333 158.14 4.31C157.883 4.63667 157.522 4.84667 157.055 4.94C156.588 5.01 156.087 4.89333 155.55 4.59C155.34 3.84333 154.943 3.085 154.36 2.315C153.777 1.545 153.193 0.914998 152.61 0.424999L152.925 0.179998ZM141.165 4.485V3.365L145.05 4.835H144.49V13.97C144.49 15.4867 144.443 17.085 144.35 18.765C144.257 20.4217 144.012 22.1017 143.615 23.805C143.218 25.5083 142.612 27.1533 141.795 28.74C140.978 30.3267 139.847 31.7967 138.4 33.15L137.98 32.835C138.96 30.9917 139.672 29.02 140.115 26.92C140.582 24.7967 140.873 22.6383 140.99 20.445C141.107 18.2517 141.165 16.105 141.165 14.005V4.835V4.485ZM167.345 2.245C167.345 2.245 167.462 2.35 167.695 2.56C167.928 2.74667 168.232 3.00333 168.605 3.33C168.978 3.63333 169.363 3.96 169.76 4.31C170.18 4.66 170.553 4.98667 170.88 5.29C170.81 5.66333 170.507 5.85 169.97 5.85H143.055V4.835H165.385L167.345 2.245ZM149.005 6.235C150.148 6.35167 151.035 6.57333 151.665 6.9C152.318 7.20333 152.773 7.55333 153.03 7.95C153.31 8.34667 153.427 8.73167 153.38 9.105C153.357 9.47833 153.217 9.79333 152.96 10.05C152.703 10.3067 152.377 10.4583 151.98 10.505C151.583 10.5283 151.163 10.4 150.72 10.12C150.603 9.49 150.335 8.83667 149.915 8.16C149.495 7.46 149.075 6.9 148.655 6.48L149.005 6.235ZM155.865 10.61V11.625H147.605V10.61H155.865ZM146.1 9.28L149.39 10.61H148.97V12.71C148.97 12.71 148.737 12.71 148.27 12.71C147.827 12.71 147.103 12.71 146.1 12.71V10.61V9.28ZM145.26 28.74C145.82 28.53 146.602 28.2383 147.605 27.865C148.632 27.4683 149.775 27.0133 151.035 26.5C152.318 25.9867 153.625 25.45 154.955 24.89L155.13 25.345C154.617 25.765 153.94 26.3017 153.1 26.955C152.283 27.6083 151.362 28.32 150.335 29.09C149.308 29.86 148.212 30.6533 147.045 31.47L145.26 28.74ZM148.305 11.485L148.97 11.905V28.705L146.45 29.72L147.78 28.6C147.967 29.2533 148.002 29.825 147.885 30.315C147.792 30.805 147.628 31.2017 147.395 31.505C147.162 31.8317 146.928 32.065 146.695 32.205L144.735 28.635C145.342 28.3317 145.715 28.0867 145.855 27.9C146.018 27.69 146.1 27.41 146.1 27.06V11.485H148.305ZM162.34 31.855C162.34 31.9717 162.223 32.1117 161.99 32.275C161.78 32.4617 161.488 32.6133 161.115 32.73C160.765 32.87 160.357 32.94 159.89 32.94H159.4V9.21V7.81L162.515 9.21H167.765V10.225H162.34V31.855ZM165.91 9.21L167.66 7.53L170.775 10.575C170.542 10.855 170.028 10.995 169.235 10.995C168.908 11.6017 168.5 12.325 168.01 13.165C167.543 13.9817 167.053 14.81 166.54 15.65C166.027 16.4667 165.537 17.1783 165.07 17.785C166.843 18.835 168.115 20.0017 168.885 21.285C169.678 22.545 170.075 23.8167 170.075 25.1C170.075 26.5933 169.725 27.725 169.025 28.495C168.348 29.265 167.135 29.685 165.385 29.755C165.385 29.3583 165.35 28.9267 165.28 28.46C165.21 27.9933 165.105 27.6667 164.965 27.48C164.825 27.3167 164.615 27.1883 164.335 27.095C164.078 26.9783 163.763 26.885 163.39 26.815V26.325C163.717 26.325 164.125 26.325 164.615 26.325C165.105 26.325 165.467 26.325 165.7 26.325C166.05 26.325 166.318 26.2667 166.505 26.15C166.715 26.01 166.867 25.8 166.96 25.52C167.077 25.24 167.135 24.8433 167.135 24.33C167.135 23.21 166.902 22.1133 166.435 21.04C165.968 19.9667 165.222 18.9167 164.195 17.89C164.428 17.1433 164.673 16.245 164.93 15.195C165.21 14.1217 165.467 13.0483 165.7 11.975C165.957 10.8783 166.155 9.95667 166.295 9.21H165.91ZM152.295 22.09C153.695 22.8133 154.803 23.5717 155.62 24.365C156.437 25.1583 157.02 25.9283 157.37 26.675C157.743 27.3983 157.918 28.075 157.895 28.705C157.895 29.3117 157.755 29.79 157.475 30.14C157.195 30.5133 156.845 30.7117 156.425 30.735C156.005 30.7817 155.55 30.595 155.06 30.175C154.99 29.3117 154.792 28.4133 154.465 27.48C154.138 26.5233 153.742 25.6017 153.275 24.715C152.808 23.805 152.342 23 151.875 22.3L152.295 22.09ZM155.62 19.255V20.27H147.36V19.255H155.62ZM155.62 14.88V15.895H147.36V14.88H155.62ZM154.01 10.61L155.445 9.105L158.49 11.415C158.28 11.6717 157.86 11.87 157.23 12.01V20.69C157.23 20.76 157.09 20.865 156.81 21.005C156.553 21.1217 156.238 21.2383 155.865 21.355C155.492 21.4483 155.142 21.495 154.815 21.495H154.29V10.61H154.01ZM18.7 51.31C19.9833 51.4033 20.9517 51.625 21.605 51.975C22.2817 52.3017 22.7133 52.6867 22.9 53.13C23.0867 53.55 23.0983 53.935 22.935 54.285C22.795 54.635 22.5267 54.88 22.13 55.02C21.7567 55.1367 21.3367 55.055 20.87 54.775C20.6833 54.1917 20.3333 53.6083 19.82 53.025C19.33 52.4183 18.8517 51.94 18.385 51.59L18.7 51.31ZM20.87 58.415L24.72 59.99C24.6267 60.2 24.4633 60.3633 24.23 60.48C24.02 60.5967 23.7167 60.6317 23.32 60.585C22.41 63.105 21.2783 65.2983 19.925 67.165C18.5717 69.0317 17.0433 70.6183 15.34 71.925C13.6367 73.2317 11.7583 74.305 9.705 75.145L9.355 74.69C11.0817 73.64 12.6917 72.3333 14.185 70.77C15.6783 69.2067 16.9967 67.3867 18.14 65.31C19.3067 63.2333 20.2167 60.935 20.87 58.415ZM4.105 55.965H20.695L22.2 54.04C22.2 54.04 22.3633 54.1683 22.69 54.425C23.0167 54.6817 23.39 54.9967 23.81 55.37C24.2533 55.72 24.65 56.07 25 56.42C24.9067 56.7933 24.6033 56.98 24.09 56.98H4.385L4.105 55.965ZM14.15 51.275L18.21 52.01C18.1867 52.22 18.0817 52.4067 17.895 52.57C17.7083 52.7333 17.4283 52.8267 17.055 52.85C17.055 54.5767 17.1133 56.3033 17.23 58.03C17.37 59.7567 17.6033 61.425 17.93 63.035C18.28 64.6217 18.77 66.0917 19.4 67.445C20.03 68.775 20.8467 69.9183 21.85 70.875C22.06 71.1083 22.2233 71.2133 22.34 71.19C22.4567 71.1667 22.5733 71.0267 22.69 70.77C22.8767 70.3967 23.0867 69.895 23.32 69.265C23.5767 68.6117 23.81 67.9817 24.02 67.375L24.44 67.445L23.915 72.1C24.3583 72.8233 24.615 73.3717 24.685 73.745C24.7783 74.1183 24.7317 74.4217 24.545 74.655C24.2183 75.0283 23.7867 75.1917 23.25 75.145C22.7367 75.0983 22.2117 74.9233 21.675 74.62C21.1617 74.2933 20.7067 73.9433 20.31 73.57C18.63 71.8667 17.3583 69.8717 16.495 67.585C15.6317 65.2983 15.025 62.7783 14.675 60.025C14.3483 57.2483 14.1733 54.3317 14.15 51.275ZM3.965 69.615C4.61833 69.545 5.49333 69.4283 6.59 69.265C7.71 69.0783 8.97 68.8683 10.37 68.635C11.77 68.4017 13.1933 68.1567 14.64 67.9L14.745 68.355C13.8583 68.8217 12.7383 69.3817 11.385 70.035C10.0317 70.6883 8.42167 71.4233 6.555 72.24C6.415 72.6833 6.15833 72.9633 5.785 73.08L3.965 69.615ZM5.645 59.605V58.52L8.2 59.605H12.26V60.62H8.06V66.85C8.06 66.8967 7.955 66.99 7.745 67.13C7.535 67.2467 7.26667 67.3517 6.94 67.445C6.63667 67.5383 6.32167 67.585 5.995 67.585H5.645V59.605ZM6.52 64.82H12.155V65.835H6.52V64.82ZM10.895 59.605H10.615L11.805 58.38L14.43 60.305C14.3367 60.3983 14.1967 60.5033 14.01 60.62C13.8233 60.7133 13.6017 60.7833 13.345 60.83V66.08C13.345 66.1733 13.2167 66.29 12.96 66.43C12.7267 66.5467 12.4583 66.6633 12.155 66.78C11.8517 66.8733 11.56 66.92 11.28 66.92H10.895V59.605ZM1.935 76.405H27.205V77.385H1.935V76.405ZM25.77 49.7H25.42L27.065 47.845L30.46 50.54C30.18 50.8667 29.6783 51.1117 28.955 51.275V78.61C28.955 78.7033 28.815 78.8317 28.535 78.995C28.255 79.1817 27.905 79.345 27.485 79.485C27.065 79.6483 26.6567 79.73 26.26 79.73H25.77V49.7ZM0.0450002 49.7V48.195L3.44 49.7H27.24V50.68H3.16V78.75C3.16 78.8667 3.03167 79.03 2.775 79.24C2.54167 79.45 2.22667 79.625 1.83 79.765C1.45667 79.905 1.03667 79.975 0.57 79.975H0.0450002V49.7ZM46.49 47.425C47.8667 47.4483 48.9517 47.6117 49.745 47.915C50.5383 48.2183 51.0983 48.5917 51.425 49.035C51.775 49.4783 51.9383 49.9333 51.915 50.4C51.8917 50.8433 51.7283 51.2283 51.425 51.555C51.145 51.8817 50.7717 52.08 50.305 52.15C49.8383 52.22 49.3367 52.0917 48.8 51.765C48.6833 50.995 48.3683 50.2367 47.855 49.49C47.365 48.72 46.8167 48.1133 46.21 47.67L46.49 47.425ZM60.525 52.15L62.345 50.33L65.6 53.41C65.46 53.5267 65.285 53.6083 65.075 53.655C64.8883 53.7017 64.62 53.7367 64.27 53.76C63.8033 54.2733 63.2083 54.8333 62.485 55.44C61.785 56.0233 61.12 56.5133 60.49 56.91L60.14 56.665C60.2333 56.245 60.3267 55.755 60.42 55.195C60.5367 54.635 60.6417 54.0867 60.735 53.55C60.8283 52.99 60.8867 52.5233 60.91 52.15H60.525ZM37.88 50.33C38.3233 51.6133 38.5217 52.7567 38.475 53.76C38.4283 54.7633 38.2183 55.6033 37.845 56.28C37.495 56.9567 37.075 57.4583 36.585 57.785C36.2583 57.995 35.8967 58.1233 35.5 58.17C35.1033 58.2167 34.73 58.1583 34.38 57.995C34.0533 57.8317 33.8083 57.575 33.645 57.225C33.4583 56.7117 33.4933 56.2567 33.75 55.86C34.0067 55.44 34.3683 55.1133 34.835 54.88C35.2783 54.6467 35.6867 54.3083 36.06 53.865C36.4567 53.3983 36.7717 52.8617 37.005 52.255C37.2617 51.6483 37.3667 51.0067 37.32 50.33H37.88ZM62.31 52.15V53.165H37.355V52.15H62.31ZM63.22 62.055C63.08 62.2183 62.9167 62.3233 62.73 62.37C62.5433 62.3933 62.2633 62.3467 61.89 62.23C60.9567 62.72 59.8367 63.2217 58.53 63.735C57.2233 64.2483 55.8467 64.7383 54.4 65.205C52.9533 65.6717 51.53 66.08 50.13 66.43L49.815 65.975C50.9583 65.345 52.1483 64.6333 53.385 63.84C54.6217 63.0233 55.7767 62.2067 56.85 61.39C57.9467 60.55 58.845 59.8033 59.545 59.15L63.22 62.055ZM53.455 64.05C54.1083 65.87 55.0533 67.4567 56.29 68.81C57.55 70.1633 58.9967 71.3067 60.63 72.24C62.2633 73.15 63.9783 73.8967 65.775 74.48L65.705 74.865C64.3283 75.0983 63.395 76.0433 62.905 77.7C61.2483 76.79 59.7667 75.7167 58.46 74.48C57.1533 73.2433 56.0333 71.7967 55.1 70.14C54.19 68.46 53.4667 66.5233 52.93 64.33L53.455 64.05ZM51.635 69.475C50.305 70.6883 48.695 71.855 46.805 72.975C44.9383 74.0717 42.9083 75.0517 40.715 75.915C38.5217 76.7783 36.305 77.4783 34.065 78.015L33.82 77.455C35.8733 76.7083 37.8917 75.7517 39.875 74.585C41.8817 73.4183 43.725 72.1233 45.405 70.7C47.085 69.2533 48.45 67.7717 49.5 66.255L51.635 69.475ZM49.43 64.995C48.2867 65.8583 46.91 66.7333 45.3 67.62C43.7133 68.5067 42.0217 69.3233 40.225 70.07C38.4283 70.8167 36.6433 71.435 34.87 71.925L34.66 71.435C36.2467 70.7117 37.8333 69.8367 39.42 68.81C41.03 67.7833 42.5233 66.675 43.9 65.485C45.3 64.2717 46.4433 63.0933 47.33 61.95L49.43 64.995ZM45.895 60.34C47.435 61.3667 48.695 62.5567 49.675 63.91C50.6783 65.24 51.425 66.6283 51.915 68.075C52.4283 69.5217 52.7317 70.9333 52.825 72.31C52.9183 73.6867 52.8367 74.9233 52.58 76.02C52.3233 77.1167 51.9267 77.98 51.39 78.61C50.97 79.1 50.375 79.45 49.605 79.66C48.835 79.8933 47.89 79.9983 46.77 79.975C46.7467 79.0417 46.4783 78.3417 45.965 77.875C45.755 77.665 45.3817 77.455 44.845 77.245C44.3083 77.0583 43.7017 76.895 43.025 76.755L42.99 76.265C43.48 76.3117 44.0283 76.3583 44.635 76.405C45.265 76.4517 45.86 76.4867 46.42 76.51C46.98 76.5333 47.4 76.545 47.68 76.545C47.9367 76.545 48.1467 76.5217 48.31 76.475C48.4733 76.4283 48.6017 76.335 48.695 76.195C49.0217 75.7517 49.2667 75.0983 49.43 74.235C49.5933 73.3717 49.6517 72.38 49.605 71.26C49.5583 70.1167 49.3833 68.9267 49.08 67.69C48.8 66.43 48.3567 65.1933 47.75 63.98C47.1667 62.7667 46.42 61.6583 45.51 60.655L45.895 60.34ZM51.215 57.715C50.0483 58.9283 48.6133 60.06 46.91 61.11C45.23 62.16 43.3983 63.0933 41.415 63.91C39.4317 64.7033 37.39 65.3917 35.29 65.975L35.01 65.485C36.62 64.785 38.16 63.98 39.63 63.07C41.1233 62.1367 42.5 61.1683 43.76 60.165C45.0433 59.1617 46.14 58.1583 47.05 57.155H51.215V57.715ZM57.655 54.775C57.655 54.775 57.76 54.8683 57.97 55.055C58.2033 55.2417 58.495 55.475 58.845 55.755C59.2183 56.035 59.6033 56.35 60 56.7C60.42 57.0267 60.7933 57.33 61.12 57.61C61.0967 57.7967 60.9917 57.9367 60.805 58.03C60.6417 58.1233 60.4317 58.17 60.175 58.17H38.72L38.44 57.155H55.73L57.655 54.775ZM73.65 53.55V51.975L77.36 53.55H94.265V54.565H77.08V78.61C77.08 78.75 76.94 78.9133 76.66 79.1C76.4033 79.31 76.0533 79.485 75.61 79.625C75.19 79.7883 74.7233 79.87 74.21 79.87H73.65V53.55ZM92.305 53.55H91.955L93.705 51.555L97.345 54.46C97.2283 54.6 97.03 54.74 96.75 54.88C96.4933 55.02 96.1783 55.1367 95.805 55.23V78.645C95.805 78.7383 95.6417 78.8783 95.315 79.065C95.0117 79.2517 94.6267 79.415 94.16 79.555C93.7167 79.7183 93.285 79.8 92.865 79.8H92.305V53.55ZM75.225 60.97H94.055V61.95H75.225V60.97ZM75.225 68.565H94.055V69.545H75.225V68.565ZM75.225 76.265H94.055V77.28H75.225V76.265ZM82.4 47.46L87.72 48.335C87.6733 48.545 87.545 48.7317 87.335 48.895C87.125 49.035 86.8217 49.1167 86.425 49.14C85.8883 49.91 85.2117 50.7733 84.395 51.73C83.5783 52.6633 82.7383 53.5033 81.875 54.25H81.14C81.3267 53.5967 81.5017 52.8733 81.665 52.08C81.8283 51.2867 81.9683 50.4817 82.085 49.665C82.225 48.8483 82.33 48.1133 82.4 47.46ZM125.275 58.73C127.398 59.64 129.137 60.5967 130.49 61.6C131.867 62.58 132.917 63.56 133.64 64.54C134.363 65.4967 134.83 66.3717 135.04 67.165C135.25 67.9583 135.25 68.6233 135.04 69.16C134.853 69.6733 134.538 69.9883 134.095 70.105C133.652 70.1983 133.127 70.035 132.52 69.615C132.263 68.7517 131.867 67.8417 131.33 66.885C130.817 65.9283 130.198 64.9833 129.475 64.05C128.752 63.0933 127.993 62.1833 127.2 61.32C126.407 60.4567 125.637 59.6867 124.89 59.01L125.275 58.73ZM104.345 63.7C104.952 63.5833 105.698 63.42 106.585 63.21C107.495 62.9767 108.463 62.6967 109.49 62.37C110.517 62.0433 111.532 61.705 112.535 61.355L112.71 61.775C111.963 62.3583 111.065 63.0233 110.015 63.77C108.988 64.5167 107.822 65.2983 106.515 66.115C106.398 66.5583 106.153 66.85 105.78 66.99L104.345 63.7ZM128.215 49.56C129.452 49.8167 130.408 50.155 131.085 50.575C131.785 50.995 132.275 51.4383 132.555 51.905C132.835 52.3717 132.94 52.815 132.87 53.235C132.823 53.6317 132.66 53.9583 132.38 54.215C132.1 54.4717 131.762 54.6117 131.365 54.635C130.968 54.635 130.537 54.4717 130.07 54.145C129.953 53.4217 129.673 52.6517 129.23 51.835C128.81 51.0183 128.355 50.33 127.865 49.77L128.215 49.56ZM108.755 55.615C110.342 55.895 111.578 56.2917 112.465 56.805C113.375 57.295 113.993 57.82 114.32 58.38C114.647 58.9167 114.752 59.4183 114.635 59.885C114.542 60.3283 114.297 60.6317 113.9 60.795C113.527 60.9583 113.072 60.9 112.535 60.62C112.325 60.06 111.987 59.4883 111.52 58.905C111.077 58.3217 110.575 57.7733 110.015 57.26C109.478 56.7233 108.942 56.28 108.405 55.93L108.755 55.615ZM128.215 70.875C130.012 71.4117 131.458 72.0417 132.555 72.765C133.652 73.4883 134.457 74.2467 134.97 75.04C135.507 75.81 135.81 76.5333 135.88 77.21C135.95 77.91 135.845 78.4817 135.565 78.925C135.285 79.3917 134.9 79.6717 134.41 79.765C133.92 79.8583 133.383 79.6833 132.8 79.24C132.637 78.3067 132.298 77.35 131.785 76.37C131.272 75.3667 130.665 74.41 129.965 73.5C129.288 72.59 128.588 71.8083 127.865 71.155L128.215 70.875ZM121.11 71.225C122.557 71.855 123.7 72.5433 124.54 73.29C125.403 74.0367 126.01 74.7833 126.36 75.53C126.71 76.2767 126.873 76.9533 126.85 77.56C126.827 78.1667 126.652 78.6567 126.325 79.03C126.022 79.4033 125.637 79.59 125.17 79.59C124.703 79.6133 124.225 79.4033 123.735 78.96C123.665 78.12 123.478 77.245 123.175 76.335C122.872 75.425 122.498 74.55 122.055 73.71C121.635 72.8467 121.192 72.0883 120.725 71.435L121.11 71.225ZM113.83 71.365C114.997 72.1817 115.883 72.9983 116.49 73.815C117.097 74.6083 117.493 75.3783 117.68 76.125C117.89 76.8483 117.937 77.4783 117.82 78.015C117.703 78.575 117.482 79.0067 117.155 79.31C116.828 79.6133 116.443 79.7417 116 79.695C115.58 79.6483 115.16 79.38 114.74 78.89C114.787 78.0967 114.752 77.2683 114.635 76.405C114.518 75.5183 114.343 74.655 114.11 73.815C113.9 72.975 113.667 72.2167 113.41 71.54L113.83 71.365ZM128.18 47.985C128.133 48.2183 128.028 48.4283 127.865 48.615C127.702 48.7783 127.398 48.8833 126.955 48.93V53.725C126.932 55.3117 126.78 56.9217 126.5 58.555C126.22 60.1883 125.683 61.775 124.89 63.315C124.097 64.855 122.942 66.2783 121.425 67.585C119.908 68.8683 117.913 69.965 115.44 70.875L115.125 70.455C116.992 69.3817 118.497 68.1917 119.64 66.885C120.783 65.555 121.635 64.155 122.195 62.685C122.778 61.215 123.163 59.7217 123.35 58.205C123.56 56.665 123.665 55.1367 123.665 53.62V47.565L128.18 47.985ZM116.105 53.06L117.89 51.31L120.935 54.04C120.748 54.2967 120.293 54.46 119.57 54.53C118.963 57.05 118.077 59.4183 116.91 61.635C115.767 63.8517 114.203 65.8233 112.22 67.55C110.237 69.2767 107.67 70.6883 104.52 71.785L104.24 71.295C106.783 70.0117 108.883 68.4483 110.54 66.605C112.197 64.7617 113.503 62.6967 114.46 60.41C115.417 58.1 116.093 55.65 116.49 53.06H116.105ZM117.855 53.06V54.075H109.735L109.98 53.06H117.855ZM114.32 49.175C114.25 49.385 114.098 49.56 113.865 49.7C113.655 49.8167 113.352 49.8633 112.955 49.84C111.952 52.5233 110.692 54.8567 109.175 56.84C107.682 58.8233 106.002 60.4567 104.135 61.74L103.715 61.39C104.578 60.34 105.407 59.1033 106.2 57.68C106.993 56.2333 107.693 54.67 108.3 52.99C108.93 51.31 109.432 49.5717 109.805 47.775L114.32 49.175ZM109.14 71.155C109.443 72.5317 109.513 73.7683 109.35 74.865C109.187 75.9617 108.883 76.8833 108.44 77.63C108.02 78.4 107.553 78.9833 107.04 79.38C106.69 79.66 106.293 79.835 105.85 79.905C105.407 79.975 104.987 79.94 104.59 79.8C104.193 79.66 103.902 79.3917 103.715 78.995C103.505 78.505 103.517 78.0267 103.75 77.56C103.983 77.0933 104.345 76.72 104.835 76.44C105.325 76.16 105.838 75.7517 106.375 75.215C106.912 74.6783 107.39 74.06 107.81 73.36C108.23 72.66 108.498 71.9133 108.615 71.12L109.14 71.155ZM132.275 54.565C132.275 54.565 132.45 54.7167 132.8 55.02C133.15 55.3 133.582 55.65 134.095 56.07C134.608 56.4667 135.052 56.8633 135.425 57.26C135.332 57.6333 135.028 57.82 134.515 57.82H119.395L119.115 56.805H130.56L132.275 54.565ZM156.25 61.565C156.157 61.7983 155.935 61.985 155.585 62.125C155.235 62.2417 154.757 62.2067 154.15 62.02L155.165 61.67C154.582 62.7667 153.847 63.98 152.96 65.31C152.073 66.6167 151.093 67.9467 150.02 69.3C148.947 70.6533 147.85 71.9367 146.73 73.15C145.61 74.3633 144.525 75.425 143.475 76.335L143.405 75.915H145.33C145.213 77.0117 144.98 77.875 144.63 78.505C144.28 79.1583 143.86 79.5783 143.37 79.765L141.795 75.32C141.795 75.32 141.877 75.2967 142.04 75.25C142.227 75.2033 142.413 75.145 142.6 75.075C142.81 74.9817 142.973 74.8883 143.09 74.795C143.65 74.1883 144.245 73.4183 144.875 72.485C145.528 71.5517 146.17 70.525 146.8 69.405C147.453 68.285 148.06 67.1417 148.62 65.975C149.203 64.785 149.717 63.6417 150.16 62.545C150.627 61.425 150.988 60.4333 151.245 59.57L156.25 61.565ZM142.495 75.53C143.545 75.4833 144.875 75.4017 146.485 75.285C148.118 75.145 149.95 74.97 151.98 74.76C154.01 74.55 156.145 74.3283 158.385 74.095C160.648 73.8383 162.912 73.5583 165.175 73.255L165.245 73.78C162.842 74.5267 159.82 75.355 156.18 76.265C152.563 77.1517 148.445 78.0383 143.825 78.925L142.495 75.53ZM157.37 49.07L158.63 47.145L162.025 49.49C161.815 49.7467 161.453 49.945 160.94 50.085C160.45 50.2017 159.878 50.2833 159.225 50.33C159.738 52.0333 160.532 53.6667 161.605 55.23C162.678 56.77 163.997 58.1583 165.56 59.395C167.123 60.6083 168.908 61.6 170.915 62.37L170.845 62.755C170.122 62.9883 169.48 63.3967 168.92 63.98C168.383 64.5633 168.01 65.205 167.8 65.905C165.093 64.155 162.958 61.915 161.395 59.185C159.832 56.4317 158.758 53.2467 158.175 49.63V49.07H157.37ZM158.98 49.07V50.085H154.395L154.08 49.07H158.98ZM152.05 51.415C151.98 51.6017 151.828 51.7533 151.595 51.87C151.362 51.9867 151.047 52.0333 150.65 52.01C149.133 55.2533 147.325 58.0183 145.225 60.305C143.148 62.5683 140.85 64.4117 138.33 65.835L137.91 65.485C139.147 64.295 140.36 62.8833 141.55 61.25C142.74 59.5933 143.825 57.7617 144.805 55.755C145.808 53.7483 146.625 51.66 147.255 49.49L152.05 51.415ZM158.595 66.71C160.392 67.62 161.885 68.5767 163.075 69.58C164.288 70.56 165.245 71.54 165.945 72.52C166.645 73.5 167.135 74.4217 167.415 75.285C167.695 76.1483 167.8 76.9183 167.73 77.595C167.683 78.2717 167.508 78.7967 167.205 79.17C166.902 79.5667 166.505 79.7767 166.015 79.8C165.525 79.8233 164.988 79.6133 164.405 79.17C164.242 78.1433 163.95 77.0933 163.53 76.02C163.11 74.9233 162.608 73.8383 162.025 72.765C161.465 71.6683 160.847 70.63 160.17 69.65C159.517 68.6467 158.852 67.7367 158.175 66.92L158.595 66.71ZM189.045 67.83C191.098 68.2967 192.778 68.8217 194.085 69.405C195.392 69.9883 196.383 70.5833 197.06 71.19C197.76 71.7967 198.215 72.38 198.425 72.94C198.635 73.4767 198.67 73.9317 198.53 74.305C198.39 74.6783 198.122 74.9233 197.725 75.04C197.352 75.1333 196.932 75.0633 196.465 74.83C196.115 74.27 195.567 73.6283 194.82 72.905C194.097 72.1583 193.222 71.3883 192.195 70.595C191.168 69.8017 190.037 69.055 188.8 68.355L189.045 67.83ZM186.805 67.76V70.49H184.075V69.125L186.805 67.76ZM183.76 73.15C184.227 73.0333 184.868 72.87 185.685 72.66C186.502 72.45 187.412 72.205 188.415 71.925C189.442 71.6217 190.492 71.3183 191.565 71.015L191.705 71.54C191.238 71.7967 190.632 72.1467 189.885 72.59C189.138 73.0333 188.31 73.5117 187.4 74.025C186.513 74.5383 185.592 75.04 184.635 75.53L183.76 73.15ZM186.175 69.475L186.805 69.86V73.255L184.46 74.13L185.265 73.22C185.522 73.9667 185.533 74.5733 185.3 75.04C185.067 75.5067 184.822 75.81 184.565 75.95L182.885 73.605C183.398 73.255 183.725 72.9867 183.865 72.8C184.005 72.6133 184.075 72.4033 184.075 72.17V69.475H186.175ZM199.09 68.53C198.997 68.6467 198.857 68.7167 198.67 68.74C198.483 68.7633 198.238 68.7167 197.935 68.6C197.562 68.7633 197.083 68.9617 196.5 69.195C195.94 69.4283 195.368 69.65 194.785 69.86C194.202 70.07 193.677 70.2683 193.21 70.455L192.895 70.105C193.268 69.7783 193.677 69.3817 194.12 68.915C194.587 68.425 195.03 67.935 195.45 67.445C195.87 66.955 196.232 66.535 196.535 66.185L199.09 68.53ZM190.305 65.975C189.068 67.3517 187.458 68.53 185.475 69.51C183.515 70.4667 181.392 71.2483 179.105 71.855L178.79 71.295C180.563 70.5717 182.185 69.7083 183.655 68.705C185.148 67.6783 186.373 66.5817 187.33 65.415H190.305V65.975ZM197.025 55.93C197.025 55.93 197.188 56.0583 197.515 56.315C197.865 56.5717 198.273 56.8983 198.74 57.295C199.207 57.6683 199.627 58.03 200 58.38C199.907 58.7533 199.603 58.94 199.09 58.94H179.7L179.42 57.925H195.38L197.025 55.93ZM195.485 52.535C195.485 52.535 195.648 52.6633 195.975 52.92C196.302 53.1767 196.687 53.4917 197.13 53.865C197.573 54.215 197.993 54.565 198.39 54.915C198.297 55.2883 197.993 55.475 197.48 55.475H181.205L180.925 54.46H193.91L195.485 52.535ZM191.74 51.765C191.717 51.975 191.635 52.15 191.495 52.29C191.355 52.43 191.11 52.5233 190.76 52.57V58.38H187.715V51.38L191.74 51.765ZM184.81 66.675C184.81 66.7683 184.682 66.885 184.425 67.025C184.192 67.1417 183.888 67.2583 183.515 67.375C183.142 67.4683 182.768 67.515 182.395 67.515H181.975V61.04V59.78L184.985 61.04H195.31V62.055H184.81V66.675ZM193.77 61.04L195.135 59.64L197.97 61.775C197.877 61.8683 197.737 61.9733 197.55 62.09C197.387 62.2067 197.177 62.2767 196.92 62.3V66.255C196.92 66.325 196.78 66.43 196.5 66.57C196.22 66.6867 195.893 66.7917 195.52 66.885C195.17 66.9783 194.832 67.025 194.505 67.025H194.05V61.04H193.77ZM195.205 65.31V66.325H183.48V65.31H195.205ZM178.685 78.645C178.685 78.785 178.557 78.96 178.3 79.17C178.043 79.38 177.705 79.555 177.285 79.695C176.888 79.8583 176.445 79.94 175.955 79.94H175.395V49.525V47.95L178.965 49.525H201.47V50.54H178.685V78.645ZM200.14 49.525L201.855 47.635L205.32 50.4C205.203 50.5633 205.017 50.7033 204.76 50.82C204.503 50.9367 204.2 51.03 203.85 51.1V78.54C203.85 78.6333 203.698 78.7733 203.395 78.96C203.092 79.1467 202.718 79.31 202.275 79.45C201.855 79.6133 201.435 79.695 201.015 79.695H200.49V49.525H200.14ZM201.61 76.23V77.245H177.25V76.23H201.61Z" fill="#C30C24"/>
</svg>
