<svg width="815" height="76" viewBox="0 0 815 76" fill="none" xmlns="http://www.w3.org/2000/svg">
<path d="M1.18281 69.2491H61.2628L66.3828 62.8491C66.3828 62.8491 66.6761 63.0891 67.2628 63.5691C67.9028 64.0491 68.7028 64.6624 69.6628 65.4091C70.6761 66.1557 71.7161 66.9557 72.7828 67.8091C73.8495 68.6624 74.8095 69.4891 75.6628 70.2891C75.4495 71.1424 74.7028 71.5691 73.4228 71.5691H1.90281L1.18281 69.2491ZM10.5428 43.2491H54.4628L59.4228 37.0091C59.4228 37.0091 59.7161 37.2491 60.3028 37.7291C60.8895 38.2091 61.6628 38.8224 62.6228 39.5691C63.5828 40.2624 64.5695 41.0357 65.5828 41.8891C66.6495 42.6891 67.6095 43.4624 68.4628 44.2091C68.3028 45.0624 67.5828 45.4891 66.3028 45.4891H11.1828L10.5428 43.2491ZM15.3428 20.5291H57.1828L62.1428 14.5291C62.1428 14.5291 62.4361 14.7424 63.0228 15.169C63.6095 15.5957 64.3561 16.1824 65.2628 16.929C66.1695 17.6224 67.1295 18.3691 68.1428 19.169C69.2095 19.969 70.1961 20.769 71.1028 21.5691C70.8895 22.4224 70.1428 22.849 68.8628 22.849H14.1428L15.3428 20.5291ZM33.9828 1.24905L45.1828 2.36905C45.0761 2.90238 44.8095 3.38238 44.3828 3.80905C44.0095 4.18238 43.2895 4.44905 42.2228 4.60905V70.4491H33.9828V1.24905ZM16.7028 3.72905L28.0628 7.24905C27.9028 7.67572 27.5561 8.04905 27.0228 8.36905C26.5428 8.68905 25.8228 8.84905 24.8628 8.84905C22.1428 16.0491 18.7828 22.4491 14.7828 28.049C10.8361 33.6491 6.43615 38.2891 1.58281 41.9691L0.542813 41.2491C2.72948 38.2624 4.83615 34.7691 6.86281 30.7691C8.94281 26.769 10.8361 22.4757 12.5428 17.8891C14.2495 13.2491 15.6361 8.52905 16.7028 3.72905ZM145.663 29.0091C145.663 29.0091 145.876 29.2224 146.303 29.6491C146.783 30.0224 147.396 30.5291 148.143 31.1691C148.889 31.7557 149.663 32.4224 150.463 33.1691C151.263 33.8624 151.983 34.5291 152.623 35.1691C152.409 36.0224 151.716 36.4491 150.543 36.4491H125.583L124.943 34.1291H141.743L145.663 29.0091ZM144.383 5.72905C144.383 5.72905 144.623 5.94238 145.103 6.36905C145.583 6.74238 146.169 7.24905 146.863 7.88905C147.609 8.47572 148.383 9.14238 149.183 9.88905C149.983 10.5824 150.703 11.2491 151.343 11.8891C151.183 12.7424 150.516 13.1691 149.343 13.1691H125.503L124.863 10.8491H140.543L144.383 5.72905ZM87.4228 21.4891V19.169L95.2628 22.2891H94.0628V32.1291C94.0628 33.7824 93.9295 35.5157 93.6628 37.3291C93.4495 39.1424 92.9428 40.9557 92.1428 42.7691C91.3961 44.5824 90.2228 46.3157 88.6228 47.9691C87.0761 49.5691 84.9961 51.0357 82.3828 52.3691L81.5828 51.4091C83.3961 49.5957 84.7028 47.6491 85.5028 45.5691C86.3561 43.4357 86.8895 41.2491 87.1028 39.0091C87.3161 36.7157 87.4228 34.4491 87.4228 32.2091V22.2891V21.4891ZM91.9028 37.5691C93.6095 37.4091 95.6361 37.1691 97.9828 36.8491C100.383 36.4757 102.863 36.0224 105.423 35.4891C108.036 34.9024 110.543 34.2624 112.943 33.5691L113.183 34.6891C111.049 35.9691 108.623 37.3291 105.903 38.7691C103.236 40.2091 100.169 41.6224 96.7028 43.0091C96.3828 44.0224 95.7961 44.6624 94.9428 44.9291L91.9028 37.5691ZM92.3028 28.5291C94.8628 27.6224 97.1028 27.1424 99.0228 27.0891C100.996 26.9824 102.623 27.1957 103.903 27.729C105.183 28.209 106.143 28.849 106.783 29.6491C107.476 30.4491 107.849 31.2491 107.903 32.0491C108.009 32.7957 107.823 33.4091 107.343 33.8891C106.863 34.3691 106.089 34.5557 105.023 34.4491C103.529 33.3824 101.716 32.4491 99.5828 31.6491C97.4495 30.7957 94.9695 30.2091 92.1428 29.8891L92.3028 28.5291ZM114.223 22.2891V24.6091H89.8228L89.1028 22.2891H114.223ZM108.063 4.84905C107.849 5.32905 107.369 5.70238 106.623 5.96905C105.876 6.23572 104.836 6.12905 103.503 5.64905L106.063 5.16905C104.676 6.28905 102.889 7.46238 100.703 8.68905C98.5161 9.86238 96.2228 10.9824 93.8228 12.0491C91.4228 13.0624 89.1561 13.9157 87.0228 14.6091V13.729H90.6228C90.4628 15.9157 90.0361 17.5957 89.3428 18.769C88.7028 19.9424 87.9828 20.7157 87.1828 21.089L83.7428 12.7691C83.7428 12.7691 83.9828 12.7157 84.4628 12.609C84.9961 12.449 85.4495 12.3157 85.8228 12.209C87.3161 11.5691 88.8895 10.5557 90.5428 9.16905C92.1961 7.72905 93.7161 6.23572 95.1028 4.68905C96.4895 3.14238 97.5295 1.86238 98.2228 0.849051L108.063 4.84905ZM84.8628 13.4891C86.7828 13.5424 89.3428 13.5424 92.5428 13.4891C95.7961 13.4357 99.4495 13.3557 103.503 13.249C107.556 13.1424 111.689 13.0091 115.903 12.849V14.2091C112.863 14.849 108.836 15.7024 103.823 16.7691C98.8628 17.7824 93.3961 18.7691 87.4228 19.7291L84.8628 13.4891ZM131.903 27.329C131.743 28.4491 130.943 29.0891 129.503 29.2491V42.6091C129.503 43.0891 129.636 43.4357 129.903 43.6491C130.223 43.8091 130.996 43.8891 132.223 43.8891H139.103C140.436 43.8891 141.663 43.8891 142.783 43.8891C143.956 43.8891 144.783 43.8624 145.263 43.8091C146.116 43.8091 146.703 43.6224 147.023 43.2491C147.396 42.8757 147.796 42.2357 148.223 41.3291C148.703 40.4224 149.156 39.3824 149.583 38.2091H150.463L150.703 43.2491C151.769 43.6224 152.489 44.0224 152.863 44.4491C153.236 44.8224 153.423 45.3291 153.423 45.9691C153.423 46.9291 152.996 47.7024 152.143 48.2891C151.343 48.8757 149.849 49.3024 147.663 49.5691C145.529 49.7824 142.463 49.8891 138.463 49.8891H130.623C128.329 49.8891 126.596 49.7024 125.423 49.3291C124.249 48.9557 123.449 48.3424 123.023 47.4891C122.649 46.5824 122.463 45.3557 122.463 43.8091V26.4491L131.903 27.329ZM109.343 22.2891L112.543 18.5291L120.143 24.2091C119.929 24.4757 119.503 24.7691 118.863 25.089C118.276 25.4091 117.583 25.6491 116.783 25.809V43.5691C116.783 45.0091 116.596 46.2624 116.223 47.3291C115.849 48.3424 115.049 49.1691 113.823 49.8091C112.649 50.3957 110.836 50.7957 108.383 51.0091C108.329 50.2091 108.223 49.4624 108.063 48.7691C107.903 48.0757 107.609 47.5157 107.183 47.0891C106.756 46.7157 106.169 46.3691 105.423 46.0491C104.729 45.7291 103.689 45.4624 102.303 45.2491V44.1291C102.303 44.1291 102.569 44.1557 103.103 44.2091C103.636 44.2624 104.276 44.3157 105.023 44.3691C105.769 44.3691 106.489 44.3957 107.183 44.4491C107.929 44.5024 108.463 44.5291 108.783 44.5291C109.316 44.5291 109.663 44.4224 109.823 44.2091C110.036 43.9424 110.143 43.5691 110.143 43.0891V22.2891H109.343ZM131.503 2.52905C131.396 3.59571 130.623 4.26238 129.183 4.52905V18.449C129.183 18.9824 129.316 19.3557 129.583 19.569C129.903 19.7291 130.649 19.8091 131.823 19.8091H138.383C139.716 19.8091 140.916 19.8091 141.983 19.8091C143.049 19.8091 143.849 19.7824 144.383 19.7291C144.703 19.7291 145.049 19.7291 145.423 19.7291C145.796 19.6757 146.089 19.6224 146.303 19.569C146.623 19.569 146.943 19.5424 147.263 19.489C147.636 19.3824 147.956 19.2757 148.223 19.169H149.023L149.343 19.249C150.409 19.6224 151.156 19.9957 151.583 20.369C152.009 20.6891 152.223 21.1691 152.223 21.809C152.223 22.769 151.823 23.5157 151.023 24.049C150.223 24.529 148.783 24.8757 146.703 25.089C144.623 25.2491 141.609 25.3291 137.663 25.3291H130.223C127.983 25.3291 126.276 25.1424 125.103 24.769C123.983 24.3957 123.209 23.8091 122.783 23.0091C122.409 22.1557 122.223 20.9824 122.223 19.489V1.64905L131.503 2.52905ZM107.343 6.76905C110.436 7.30238 112.889 8.07572 114.703 9.08905C116.569 10.0491 117.929 11.1157 118.783 12.2891C119.636 13.4091 120.089 14.5024 120.143 15.569C120.249 16.6357 120.036 17.5424 119.503 18.2891C118.969 18.9824 118.249 19.4091 117.343 19.569C116.436 19.7291 115.449 19.4624 114.383 18.769C114.116 17.3824 113.556 15.9957 112.703 14.6091C111.903 13.1691 110.943 11.8357 109.823 10.609C108.756 9.32905 107.689 8.26238 106.623 7.40905L107.343 6.76905ZM110.143 52.9291C110.089 53.4091 109.849 53.8357 109.423 54.2091C109.049 54.5824 108.463 54.8224 107.663 54.9291V66.2891C107.663 66.8224 107.849 67.1957 108.223 67.4091C108.649 67.5691 109.689 67.6491 111.343 67.6491H121.903C123.929 67.6491 125.743 67.6491 127.343 67.6491C128.996 67.5957 130.169 67.5424 130.863 67.4891C131.503 67.4357 131.956 67.3557 132.223 67.2491C132.543 67.0891 132.836 66.8224 133.103 66.4491C133.529 65.7557 134.009 64.6624 134.543 63.1691C135.076 61.6757 135.689 59.8624 136.383 57.7291H137.263L137.503 66.6091C138.729 67.0357 139.529 67.4891 139.903 67.9691C140.329 68.3957 140.543 68.9557 140.543 69.6491C140.543 70.4491 140.276 71.1157 139.743 71.6491C139.209 72.1824 138.249 72.5824 136.863 72.8491C135.476 73.1691 133.529 73.3824 131.023 73.4891C128.516 73.5957 125.263 73.6491 121.263 73.6491H110.303C107.476 73.6491 105.316 73.4624 103.823 73.0891C102.383 72.7691 101.396 72.1291 100.863 71.1691C100.329 70.2624 100.063 68.9557 100.063 67.2491V52.0491L110.143 52.9291ZM93.4228 53.0891C94.2228 56.0224 94.4361 58.6357 94.0628 60.9291C93.7428 63.2224 93.0761 65.1424 92.0628 66.6891C91.0495 68.1824 89.9561 69.2491 88.7828 69.8891C87.6095 70.5291 86.3561 70.7424 85.0228 70.5291C83.6895 70.3691 82.8095 69.7291 82.3828 68.6091C82.0095 67.4891 82.1161 66.5024 82.7028 65.6491C83.2895 64.7424 84.0895 64.0491 85.1028 63.5691C86.1695 63.0891 87.2361 62.3424 88.3028 61.3291C89.3695 60.2624 90.2495 59.0357 90.9428 57.6491C91.6895 56.2091 92.0895 54.6624 92.1428 53.0091L93.4228 53.0891ZM139.663 53.4891C143.076 54.3424 145.823 55.4091 147.903 56.6891C150.036 57.9691 151.583 59.3291 152.543 60.7691C153.503 62.1557 154.036 63.5157 154.143 64.8491C154.249 66.1291 154.009 67.1957 153.423 68.0491C152.836 68.9024 152.036 69.4091 151.023 69.5691C150.009 69.7291 148.889 69.3824 147.663 68.5291C147.449 66.8224 146.863 65.0891 145.903 63.3291C144.996 61.5157 143.903 59.8091 142.623 58.2091C141.396 56.6091 140.143 55.2491 138.863 54.1291L139.663 53.4891ZM114.863 50.6091C118.063 51.0891 120.623 51.8091 122.543 52.7691C124.516 53.6757 125.956 54.6891 126.863 55.8091C127.823 56.9291 128.356 58.0224 128.463 59.0891C128.569 60.1557 128.383 61.0624 127.903 61.8091C127.423 62.5024 126.703 62.9291 125.743 63.0891C124.836 63.1957 123.849 62.9291 122.783 62.2891C122.409 60.9557 121.743 59.6224 120.783 58.2891C119.876 56.9024 118.809 55.5957 117.583 54.3691C116.409 53.1424 115.263 52.1024 114.143 51.2491L114.863 50.6091ZM217.343 51.6491C220.916 52.3957 223.849 53.4091 226.143 54.6891C228.436 55.9691 230.169 57.3291 231.343 58.7691C232.516 60.2091 233.236 61.5957 233.503 62.9291C233.769 64.2624 233.689 65.3824 233.263 66.2891C232.889 67.1957 232.223 67.7824 231.263 68.0491C230.356 68.2624 229.343 67.9424 228.223 67.0891C227.423 65.6491 226.463 64.0491 225.343 62.2891C224.223 60.5291 222.943 58.7957 221.503 57.0891C220.063 55.3291 218.463 53.7824 216.703 52.4491L217.343 51.6491ZM210.303 3.08905C210.196 3.62238 209.849 4.10238 209.263 4.52905C208.729 4.90238 207.823 5.03572 206.543 4.92905L207.583 3.48905C207.209 4.66238 206.676 6.15572 205.983 7.96905C205.289 9.72905 204.543 11.5957 203.743 13.569C202.943 15.4891 202.169 17.3557 201.423 19.169C200.676 20.9824 200.009 22.5291 199.423 23.8091H200.063L196.943 27.009L190.143 21.729C190.783 21.3024 191.583 20.9024 192.543 20.5291C193.556 20.1024 194.463 19.8091 195.263 19.6491L192.543 22.3691C193.183 21.1424 193.903 19.6224 194.703 17.8091C195.503 15.9424 196.303 13.9957 197.103 11.9691C197.903 9.88905 198.623 7.91572 199.263 6.04905C199.956 4.18238 200.489 2.60905 200.863 1.32905L210.303 3.08905ZM234.303 40.5291C234.089 40.8491 233.769 41.0624 233.343 41.1691C232.916 41.2757 232.303 41.2224 231.503 41.0091C230.436 41.7024 229.103 42.5291 227.503 43.4891C225.903 44.4491 224.249 45.4091 222.543 46.3691C220.836 47.3291 219.316 48.2091 217.983 49.0091L217.263 48.2091C218.223 46.9291 219.263 45.4891 220.383 43.8891C221.503 42.2357 222.596 40.5824 223.663 38.9291C224.729 37.2757 225.609 35.8891 226.303 34.7691L234.303 40.5291ZM190.863 36.2891C193.956 36.8757 196.436 37.6491 198.303 38.6091C200.169 39.5691 201.529 40.6357 202.383 41.8091C203.289 42.9291 203.769 44.0224 203.823 45.0891C203.929 46.1557 203.716 47.0624 203.183 47.8091C202.703 48.5024 202.009 48.9291 201.103 49.0891C200.196 49.1957 199.209 48.9291 198.143 48.2891C197.769 47.0091 197.156 45.6757 196.303 44.2891C195.449 42.8491 194.463 41.4891 193.343 40.2091C192.276 38.9291 191.183 37.8357 190.063 36.9291L190.863 36.2891ZM186.143 60.6891C187.209 60.2091 188.703 59.5424 190.623 58.6891C192.596 57.7824 194.783 56.7424 197.183 55.5691C199.583 54.3424 202.036 53.0891 204.543 51.8091L204.943 52.6891C203.663 54.1291 202.009 55.9691 199.983 58.2091C198.009 60.4491 195.663 63.0091 192.943 65.8891C192.889 67.0091 192.463 67.7824 191.663 68.2091L186.143 60.6891ZM214.783 66.3691C214.783 68.0224 214.569 69.4624 214.143 70.6891C213.716 71.9691 212.836 72.9824 211.503 73.7291C210.223 74.5291 208.223 75.0357 205.503 75.2491C205.449 74.2357 205.316 73.3291 205.103 72.5291C204.889 71.7291 204.569 71.0891 204.143 70.6091C203.663 70.0757 202.969 69.6224 202.063 69.2491C201.209 68.8757 199.956 68.5824 198.303 68.3691V67.1691C198.303 67.1691 198.623 67.1957 199.263 67.2491C199.956 67.3024 200.756 67.3557 201.663 67.4091C202.623 67.4624 203.529 67.5157 204.383 67.5691C205.236 67.6224 205.823 67.6491 206.143 67.6491C206.836 67.6491 207.263 67.5424 207.423 67.3291C207.636 67.0624 207.743 66.6891 207.743 66.2091V30.9291H214.783V66.3691ZM219.103 9.24905L222.463 5.72905L229.263 11.5691C228.729 12.1024 227.743 12.4224 226.303 12.529L219.983 31.7291H212.383L219.903 9.24905H219.103ZM220.223 21.4891V23.8091H198.223L198.703 21.4891H220.223ZM222.943 9.24905V11.5691H201.823L202.303 9.24905H222.943ZM228.303 25.0091C228.303 25.0091 228.543 25.2224 229.023 25.6491C229.556 26.0757 230.196 26.6357 230.943 27.329C231.743 28.0224 232.569 28.7691 233.423 29.5691C234.276 30.3157 235.023 31.0357 235.663 31.7291C235.449 32.5824 234.756 33.009 233.583 33.009H188.623L187.983 30.6891H224.383L228.303 25.0091ZM191.023 19.489C190.756 19.9157 190.223 20.2091 189.423 20.369C188.623 20.529 187.609 20.2891 186.383 19.6491L188.703 19.169C187.583 20.9824 186.116 23.0357 184.303 25.3291C182.543 27.5691 180.596 29.8891 178.463 32.2891C176.329 34.6357 174.089 36.9024 171.743 39.0891C169.449 41.2757 167.209 43.1957 165.023 44.8491L164.943 43.8891H168.463C168.249 46.0224 167.743 47.7024 166.943 48.9291C166.196 50.1024 165.369 50.8491 164.463 51.1691L161.583 42.7691C161.583 42.7691 161.903 42.6891 162.543 42.5291C163.236 42.3691 163.769 42.1291 164.143 41.8091C165.796 40.3691 167.529 38.5024 169.343 36.2091C171.156 33.8624 172.916 31.3557 174.623 28.6891C176.383 25.9691 177.956 23.3024 179.343 20.689C180.783 18.0757 181.903 15.7824 182.703 13.8091L191.023 19.489ZM183.663 5.64905C183.449 6.12905 182.969 6.50239 182.223 6.76905C181.476 7.03572 180.436 6.90238 179.103 6.36905L181.503 5.88905C180.329 7.86238 178.836 10.1024 177.023 12.609C175.209 15.0624 173.263 17.4624 171.183 19.8091C169.156 22.1024 167.183 24.0757 165.263 25.7291L165.183 24.8491H168.863C168.703 26.8757 168.276 28.5024 167.583 29.7291C166.943 30.9557 166.196 31.7291 165.343 32.0491L161.983 23.7291C161.983 23.7291 162.249 23.6757 162.783 23.569C163.316 23.4091 163.743 23.1957 164.063 22.929C165.023 21.8624 166.009 20.4224 167.023 18.6091C168.089 16.7957 169.103 14.8224 170.063 12.6891C171.076 10.5557 171.956 8.47572 172.703 6.44905C173.449 4.42238 174.036 2.66238 174.463 1.16905L183.663 5.64905ZM169.183 52.7691C170.356 56.9824 170.729 60.5824 170.303 63.5691C169.876 66.5557 169.049 68.7957 167.823 70.2891C167.289 70.9291 166.596 71.3824 165.743 71.6491C164.889 71.9691 164.036 72.0224 163.183 71.8091C162.383 71.6491 161.769 71.2224 161.343 70.5291C160.809 69.5157 160.729 68.5291 161.103 67.5691C161.476 66.6091 162.116 65.7557 163.023 65.0091C163.823 64.3157 164.596 63.3291 165.343 62.0491C166.089 60.7157 166.703 59.2491 167.183 57.6491C167.716 55.9957 167.956 54.3691 167.903 52.7691H169.183ZM179.903 50.2091C182.623 51.5424 184.649 52.9824 185.983 54.5291C187.369 56.0224 188.196 57.4624 188.463 58.8491C188.783 60.1824 188.703 61.3291 188.223 62.2891C187.796 63.2491 187.129 63.8357 186.223 64.0491C185.369 64.2091 184.436 63.8624 183.423 63.0091C183.369 60.9824 182.863 58.8224 181.903 56.5291C180.943 54.1824 179.929 52.2357 178.863 50.6891L179.903 50.2091ZM174.063 51.6491C176.196 53.8357 177.689 55.9691 178.543 58.0491C179.449 60.0757 179.876 61.9157 179.823 63.5691C179.823 65.2224 179.503 66.5557 178.863 67.5691C178.276 68.5291 177.503 69.0624 176.543 69.1691C175.636 69.3291 174.756 68.8757 173.903 67.8091C174.276 65.1957 174.329 62.4491 174.063 59.5691C173.796 56.6891 173.396 54.1557 172.863 51.9691L174.063 51.6491ZM180.303 33.1691C182.809 34.6091 184.756 36.1291 186.143 37.7291C187.529 39.2757 188.463 40.7691 188.943 42.2091C189.423 43.6491 189.556 44.9291 189.343 46.0491C189.183 47.1691 188.783 48.0491 188.143 48.6891C187.503 49.3291 186.729 49.6224 185.823 49.5691C184.969 49.5157 184.089 49.0357 183.183 48.1291C183.236 46.5824 183.049 44.9291 182.623 43.1691C182.249 41.4091 181.743 39.7024 181.103 38.0491C180.516 36.3957 179.903 34.9024 179.263 33.5691L180.303 33.1691ZM163.183 43.0091C164.623 42.9557 166.543 42.8757 168.943 42.7691C171.396 42.6091 174.143 42.4224 177.183 42.2091C180.276 41.9957 183.423 41.7824 186.623 41.5691L186.783 42.7691C185.343 43.2491 183.503 43.8891 181.263 44.6891C179.076 45.4891 176.623 46.3424 173.903 47.2491C171.183 48.1024 168.356 48.9557 165.423 49.8091L163.183 43.0091ZM162.943 24.049C164.116 24.1024 165.689 24.1557 167.663 24.2091C169.636 24.2091 171.823 24.2091 174.223 24.2091C176.623 24.1557 179.023 24.1024 181.423 24.049L181.503 25.2491C180.009 25.8357 177.796 26.6891 174.863 27.8091C171.983 28.8757 168.916 29.9157 165.663 30.9291L162.943 24.049ZM274.783 0.369048C277.929 0.422384 280.436 0.822385 282.303 1.56905C284.169 2.26238 285.529 3.11571 286.383 4.12905C287.236 5.08905 287.663 6.10238 287.663 7.16905C287.663 8.18238 287.343 9.06238 286.703 9.80905C286.116 10.5557 285.289 11.0357 284.223 11.2491C283.156 11.409 282.009 11.1424 280.783 10.4491C280.303 8.74238 279.396 7.00905 278.063 5.24905C276.729 3.48905 275.396 2.04905 274.063 0.92905L274.783 0.369048ZM247.903 10.2091V7.64905L256.783 11.009H255.503V31.8891C255.503 35.3557 255.396 39.0091 255.183 42.8491C254.969 46.6357 254.409 50.4757 253.503 54.3691C252.596 58.2624 251.209 62.0224 249.343 65.6491C247.476 69.2757 244.889 72.6357 241.583 75.7291L240.623 75.0091C242.863 70.7957 244.489 66.2891 245.503 61.4891C246.569 56.6357 247.236 51.7024 247.503 46.6891C247.769 41.6757 247.903 36.7691 247.903 31.9691V11.009V10.2091ZM307.743 5.08905C307.743 5.08905 308.009 5.32905 308.543 5.80905C309.076 6.23572 309.769 6.82238 310.623 7.56905C311.476 8.26238 312.356 9.00905 313.263 9.80905C314.223 10.609 315.076 11.3557 315.823 12.0491C315.663 12.9024 314.969 13.329 313.743 13.329H252.223V11.009H303.263L307.743 5.08905ZM265.823 14.2091C268.436 14.4757 270.463 14.9824 271.903 15.7291C273.396 16.4224 274.436 17.2224 275.023 18.129C275.663 19.0357 275.929 19.9157 275.823 20.7691C275.769 21.6224 275.449 22.3424 274.863 22.929C274.276 23.5157 273.529 23.8624 272.623 23.969C271.716 24.0224 270.756 23.729 269.743 23.0891C269.476 21.6491 268.863 20.1557 267.903 18.6091C266.943 17.0091 265.983 15.729 265.023 14.769L265.823 14.2091ZM281.503 24.2091V26.529H262.623V24.2091H281.503ZM259.183 21.1691L266.703 24.2091H265.743V29.0091C265.743 29.0091 265.209 29.0091 264.143 29.0091C263.129 29.0091 261.476 29.0091 259.183 29.0091V24.2091V21.1691ZM257.263 65.6491C258.543 65.1691 260.329 64.5024 262.623 63.6491C264.969 62.7424 267.583 61.7024 270.463 60.5291C273.396 59.3557 276.383 58.1291 279.423 56.8491L279.823 57.8891C278.649 58.8491 277.103 60.0757 275.183 61.5691C273.316 63.0624 271.209 64.6891 268.863 66.4491C266.516 68.2091 264.009 70.0224 261.343 71.8891L257.263 65.6491ZM264.223 26.209L265.743 27.1691V65.5691L259.983 67.8891L263.023 65.3291C263.449 66.8224 263.529 68.1291 263.263 69.2491C263.049 70.3691 262.676 71.2757 262.143 71.9691C261.609 72.7157 261.076 73.2491 260.543 73.5691L256.063 65.4091C257.449 64.7157 258.303 64.1557 258.623 63.7291C258.996 63.2491 259.183 62.6091 259.183 61.8091V26.209H264.223ZM296.303 72.7691C296.303 73.0357 296.036 73.3557 295.503 73.7291C295.023 74.1557 294.356 74.5024 293.503 74.7691C292.703 75.0891 291.769 75.2491 290.703 75.2491H289.583V21.009V17.8091L296.703 21.009H308.703V23.3291H296.303V72.7691ZM304.463 21.009L308.463 17.1691L315.583 24.1291C315.049 24.7691 313.876 25.089 312.063 25.089C311.316 26.4757 310.383 28.1291 309.263 30.049C308.196 31.9157 307.076 33.8091 305.903 35.7291C304.729 37.5957 303.609 39.2224 302.543 40.6091C306.596 43.0091 309.503 45.6757 311.263 48.6091C313.076 51.4891 313.983 54.3957 313.983 57.3291C313.983 60.7424 313.183 63.3291 311.583 65.0891C310.036 66.8491 307.263 67.8091 303.263 67.9691C303.263 67.0624 303.183 66.0757 303.023 65.0091C302.863 63.9424 302.623 63.1957 302.303 62.7691C301.983 62.3957 301.503 62.1024 300.863 61.8891C300.276 61.6224 299.556 61.4091 298.703 61.2491V60.1291C299.449 60.1291 300.383 60.1291 301.503 60.1291C302.623 60.1291 303.449 60.1291 303.983 60.1291C304.783 60.1291 305.396 59.9957 305.823 59.7291C306.303 59.4091 306.649 58.9291 306.863 58.2891C307.129 57.6491 307.263 56.7424 307.263 55.5691C307.263 53.0091 306.729 50.5024 305.663 48.0491C304.596 45.5957 302.889 43.1957 300.543 40.8491C301.076 39.1424 301.636 37.0891 302.223 34.6891C302.863 32.2357 303.449 29.7824 303.983 27.329C304.569 24.8224 305.023 22.7157 305.343 21.009H304.463ZM273.343 50.4491C276.543 52.1024 279.076 53.8357 280.943 55.6491C282.809 57.4624 284.143 59.2224 284.943 60.9291C285.796 62.5824 286.196 64.1291 286.143 65.5691C286.143 66.9557 285.823 68.0491 285.183 68.8491C284.543 69.7024 283.743 70.1557 282.783 70.2091C281.823 70.3157 280.783 69.8891 279.663 68.9291C279.503 66.9557 279.049 64.9024 278.303 62.7691C277.556 60.5824 276.649 58.4757 275.583 56.4491C274.516 54.3691 273.449 52.5291 272.383 50.9291L273.343 50.4491ZM280.943 43.9691V46.2891H262.063V43.9691H280.943ZM280.943 33.9691V36.2891H262.063V33.9691H280.943ZM277.263 24.2091L280.543 20.7691L287.503 26.0491C287.023 26.6357 286.063 27.0891 284.623 27.4091V47.2491C284.623 47.4091 284.303 47.6491 283.663 47.9691C283.076 48.2357 282.356 48.5024 281.503 48.7691C280.649 48.9824 279.849 49.0891 279.103 49.0891H277.903V24.2091H277.263ZM388.217 9.80905C391.151 10.0224 393.364 10.5291 394.857 11.3291C396.404 12.0757 397.391 12.9557 397.817 13.969C398.244 14.929 398.271 15.809 397.897 16.609C397.577 17.4091 396.964 17.9691 396.057 18.2891C395.204 18.5557 394.244 18.3691 393.177 17.729C392.751 16.3957 391.951 15.0624 390.777 13.729C389.657 12.3424 388.564 11.2491 387.497 10.4491L388.217 9.80905ZM393.177 26.0491L401.977 29.6491C401.764 30.1291 401.391 30.5024 400.857 30.7691C400.377 31.0357 399.684 31.1157 398.777 31.0091C396.697 36.7691 394.111 41.7824 391.017 46.0491C387.924 50.3157 384.431 53.9424 380.537 56.9291C376.644 59.9157 372.351 62.3691 367.657 64.2891L366.857 63.2491C370.804 60.8491 374.484 57.8624 377.897 54.2891C381.311 50.7157 384.324 46.5557 386.937 41.8091C389.604 37.0624 391.684 31.8091 393.177 26.0491ZM354.857 20.4491H392.777L396.217 16.0491C396.217 16.0491 396.591 16.3424 397.337 16.929C398.084 17.5157 398.937 18.2357 399.897 19.0891C400.911 19.889 401.817 20.6891 402.617 21.4891C402.404 22.3424 401.711 22.7691 400.537 22.7691H355.497L354.857 20.4491ZM377.817 9.72905L387.097 11.409C387.044 11.889 386.804 12.3157 386.377 12.6891C385.951 13.0624 385.311 13.2757 384.457 13.329C384.457 17.2757 384.591 21.2224 384.857 25.169C385.177 29.1157 385.711 32.9291 386.457 36.6091C387.257 40.2357 388.377 43.5957 389.817 46.6891C391.257 49.7291 393.124 52.3424 395.417 54.5291C395.897 55.0624 396.271 55.3024 396.537 55.2491C396.804 55.1957 397.071 54.8757 397.337 54.2891C397.764 53.4357 398.244 52.2891 398.777 50.8491C399.364 49.3557 399.897 47.9157 400.377 46.5291L401.337 46.6891L400.137 57.3291C401.151 58.9824 401.737 60.2357 401.897 61.0891C402.111 61.9424 402.004 62.6357 401.577 63.1691C400.831 64.0224 399.844 64.3957 398.617 64.2891C397.444 64.1824 396.244 63.7824 395.017 63.0891C393.844 62.3424 392.804 61.5424 391.897 60.6891C388.057 56.7957 385.151 52.2357 383.177 47.0091C381.204 41.7824 379.817 36.0224 379.017 29.7291C378.271 23.3824 377.871 16.7157 377.817 9.72905ZM354.537 51.6491C356.031 51.4891 358.031 51.2224 360.537 50.8491C363.097 50.4224 365.977 49.9424 369.177 49.4091C372.377 48.8757 375.631 48.3157 378.937 47.7291L379.177 48.7691C377.151 49.8357 374.591 51.1157 371.497 52.6091C368.404 54.1024 364.724 55.7824 360.457 57.6491C360.137 58.6624 359.551 59.3024 358.697 59.5691L354.537 51.6491ZM358.377 28.7691V26.2891L364.217 28.7691H373.497V31.0891H363.897V45.3291C363.897 45.4357 363.657 45.6491 363.177 45.9691C362.697 46.2357 362.084 46.4757 361.337 46.6891C360.644 46.9024 359.924 47.0091 359.177 47.0091H358.377V28.7691ZM360.377 40.6891H373.257V43.0091H360.377V40.6891ZM370.377 28.7691H369.737L372.457 25.9691L378.457 30.3691C378.244 30.5824 377.924 30.8224 377.497 31.0891C377.071 31.3024 376.564 31.4624 375.977 31.5691V43.5691C375.977 43.7824 375.684 44.0491 375.097 44.3691C374.564 44.6357 373.951 44.9024 373.257 45.1691C372.564 45.3824 371.897 45.4891 371.257 45.4891H370.377V28.7691ZM349.897 67.1691H407.657V69.4091H349.897V67.1691ZM404.377 6.12905H403.577L407.337 1.88905L415.097 8.04905C414.457 8.79572 413.311 9.35572 411.657 9.72905V72.2091C411.657 72.4224 411.337 72.7157 410.697 73.0891C410.057 73.5157 409.257 73.8891 408.297 74.2091C407.337 74.5824 406.404 74.7691 405.497 74.7691H404.377V6.12905ZM345.577 6.12905V2.68905L353.337 6.12905H407.737V8.36905H352.697V72.5291C352.697 72.7957 352.404 73.1691 351.817 73.6491C351.284 74.1291 350.564 74.5291 349.657 74.8491C348.804 75.1691 347.844 75.3291 346.777 75.3291H345.577V6.12905ZM451.737 0.92905C454.884 0.982383 457.364 1.35572 459.177 2.04905C460.991 2.74238 462.271 3.59572 463.017 4.60905C463.817 5.62238 464.191 6.66238 464.137 7.72905C464.084 8.74238 463.711 9.62238 463.017 10.369C462.377 11.1157 461.524 11.569 460.457 11.729C459.391 11.8891 458.244 11.5957 457.017 10.8491C456.751 9.08905 456.031 7.35572 454.857 5.64905C453.737 3.88905 452.484 2.50238 451.097 1.48905L451.737 0.92905ZM483.817 11.729L487.977 7.56905L495.417 14.6091C495.097 14.8757 494.697 15.0624 494.217 15.169C493.791 15.2757 493.177 15.3557 492.377 15.409C491.311 16.5824 489.951 17.8624 488.297 19.249C486.697 20.5824 485.177 21.7024 483.737 22.6091L482.937 22.0491C483.151 21.089 483.364 19.9691 483.577 18.6891C483.844 17.4091 484.084 16.1557 484.297 14.9291C484.511 13.6491 484.644 12.5824 484.697 11.729H483.817ZM432.057 7.56905C433.071 10.5024 433.524 13.1157 433.417 15.409C433.311 17.7024 432.831 19.6224 431.977 21.1691C431.177 22.7157 430.217 23.8624 429.097 24.6091C428.351 25.0891 427.524 25.3824 426.617 25.489C425.711 25.5957 424.857 25.4624 424.057 25.089C423.311 24.7157 422.751 24.1291 422.377 23.3291C421.951 22.1557 422.031 21.1157 422.617 20.2091C423.204 19.249 424.031 18.5024 425.097 17.9691C426.111 17.4357 427.044 16.6624 427.897 15.6491C428.804 14.5824 429.524 13.3557 430.057 11.9691C430.644 10.5824 430.884 9.11572 430.777 7.56905H432.057ZM487.897 11.729V14.049H430.857V11.729H487.897ZM489.977 34.3691C489.657 34.7424 489.284 34.9824 488.857 35.0891C488.431 35.1424 487.791 35.0357 486.937 34.7691C484.804 35.8891 482.244 37.0357 479.257 38.2091C476.271 39.3824 473.124 40.5024 469.817 41.5691C466.511 42.6357 463.257 43.5691 460.057 44.3691L459.337 43.3291C461.951 41.8891 464.671 40.2624 467.497 38.4491C470.324 36.5824 472.964 34.7157 475.417 32.8491C477.924 30.9291 479.977 29.2224 481.577 27.729L489.977 34.3691ZM467.657 38.9291C469.151 43.0891 471.311 46.7157 474.137 49.8091C477.017 52.9024 480.324 55.5157 484.057 57.6491C487.791 59.7291 491.711 61.4357 495.817 62.7691L495.657 63.6491C492.511 64.1824 490.377 66.3424 489.257 70.1291C485.471 68.0491 482.084 65.5957 479.097 62.7691C476.111 59.9424 473.551 56.6357 471.417 52.8491C469.337 49.0091 467.684 44.5824 466.457 39.5691L467.657 38.9291ZM463.497 51.3291C460.457 54.1024 456.777 56.7691 452.457 59.3291C448.191 61.8357 443.551 64.0757 438.537 66.0491C433.524 68.0224 428.457 69.6224 423.337 70.8491L422.777 69.5691C427.471 67.8624 432.084 65.6757 436.617 63.0091C441.204 60.3424 445.417 57.3824 449.257 54.1291C453.097 50.8224 456.217 47.4357 458.617 43.9691L463.497 51.3291ZM458.457 41.0891C455.844 43.0624 452.697 45.0624 449.017 47.0891C445.391 49.1157 441.524 50.9824 437.417 52.6891C433.311 54.3957 429.231 55.8091 425.177 56.9291L424.697 55.8091C428.324 54.1557 431.951 52.1557 435.577 49.8091C439.257 47.4624 442.671 44.9291 445.817 42.2091C449.017 39.4357 451.631 36.7424 453.657 34.1291L458.457 41.0891ZM450.377 30.4491C453.897 32.7957 456.777 35.5157 459.017 38.6091C461.311 41.6491 463.017 44.8224 464.137 48.1291C465.311 51.4357 466.004 54.6624 466.217 57.8091C466.431 60.9557 466.244 63.7824 465.657 66.2891C465.071 68.7957 464.164 70.7691 462.937 72.2091C461.977 73.3291 460.617 74.1291 458.857 74.6091C457.097 75.1424 454.937 75.3824 452.377 75.3291C452.324 73.1957 451.711 71.5957 450.537 70.5291C450.057 70.0491 449.204 69.5691 447.977 69.0891C446.751 68.6624 445.364 68.2891 443.817 67.9691L443.737 66.8491C444.857 66.9557 446.111 67.0624 447.497 67.1691C448.937 67.2757 450.297 67.3557 451.577 67.4091C452.857 67.4624 453.817 67.4891 454.457 67.4891C455.044 67.4891 455.524 67.4357 455.897 67.3291C456.271 67.2224 456.564 67.0091 456.777 66.6891C457.524 65.6757 458.084 64.1824 458.457 62.2091C458.831 60.2357 458.964 57.9691 458.857 55.4091C458.751 52.7957 458.351 50.0757 457.657 47.2491C457.017 44.3691 456.004 41.5424 454.617 38.7691C453.284 35.9957 451.577 33.4624 449.497 31.1691L450.377 30.4491ZM462.537 24.4491C459.871 27.2224 456.591 29.8091 452.697 32.2091C448.857 34.6091 444.671 36.7424 440.137 38.6091C435.604 40.4224 430.937 41.9957 426.137 43.3291L425.497 42.2091C429.177 40.6091 432.697 38.7691 436.057 36.6891C439.471 34.5557 442.617 32.3424 445.497 30.049C448.431 27.7557 450.937 25.4624 453.017 23.1691H462.537V24.4491ZM477.257 17.729C477.257 17.729 477.497 17.9424 477.977 18.3691C478.511 18.7957 479.177 19.3291 479.977 19.969C480.831 20.609 481.711 21.3291 482.617 22.129C483.577 22.8757 484.431 23.569 485.177 24.2091C485.124 24.6357 484.884 24.9557 484.457 25.169C484.084 25.3824 483.604 25.489 483.017 25.489H433.977L433.337 23.1691H472.857L477.257 17.729ZM513.817 14.9291V11.3291L522.297 14.9291H560.937V17.2491H521.657V72.2091C521.657 72.5291 521.337 72.9024 520.697 73.3291C520.111 73.8091 519.311 74.2091 518.297 74.5291C517.337 74.9024 516.271 75.0891 515.097 75.0891H513.817V14.9291ZM556.457 14.9291H555.657L559.657 10.369L567.977 17.009C567.711 17.3291 567.257 17.6491 566.617 17.9691C566.031 18.289 565.311 18.5557 564.457 18.769V72.2891C564.457 72.5024 564.084 72.8224 563.337 73.2491C562.644 73.6757 561.764 74.0491 560.697 74.3691C559.684 74.7424 558.697 74.9291 557.737 74.9291H556.457V14.9291ZM517.417 31.8891H560.457V34.1291H517.417V31.8891ZM517.417 49.2491H560.457V51.4891H517.417V49.2491ZM517.417 66.8491H560.457V69.1691H517.417V66.8491ZM533.817 1.00905L545.977 3.00905C545.871 3.48905 545.577 3.91572 545.097 4.28905C544.617 4.60905 543.924 4.79572 543.017 4.84905C541.791 6.60905 540.244 8.58238 538.377 10.769C536.511 12.9024 534.591 14.8224 532.617 16.529H530.937C531.364 15.0357 531.764 13.3824 532.137 11.5691C532.511 9.75572 532.831 7.91572 533.097 6.04905C533.417 4.18238 533.657 2.50238 533.817 1.00905ZM631.817 26.7691C636.671 28.8491 640.644 31.0357 643.737 33.3291C646.884 35.5691 649.284 37.8091 650.937 40.0491C652.591 42.2357 653.657 44.2357 654.137 46.0491C654.617 47.8624 654.617 49.3824 654.137 50.6091C653.711 51.7824 652.991 52.5024 651.977 52.7691C650.964 52.9824 649.764 52.6091 648.377 51.6491C647.791 49.6757 646.884 47.5957 645.657 45.4091C644.484 43.2224 643.071 41.0624 641.417 38.9291C639.764 36.7424 638.031 34.6624 636.217 32.6891C634.404 30.7157 632.644 28.9557 630.937 27.4091L631.817 26.7691ZM583.977 38.1291C585.364 37.8624 587.071 37.4891 589.097 37.0091C591.177 36.4757 593.391 35.8357 595.737 35.0891C598.084 34.3424 600.404 33.5691 602.697 32.7691L603.097 33.7291C601.391 35.0624 599.337 36.5824 596.937 38.2891C594.591 39.9957 591.924 41.7824 588.937 43.6491C588.671 44.6624 588.111 45.3291 587.257 45.6491L583.977 38.1291ZM638.537 5.80905C641.364 6.39572 643.551 7.16905 645.097 8.12905C646.697 9.08905 647.817 10.1024 648.457 11.1691C649.097 12.2357 649.337 13.2491 649.177 14.2091C649.071 15.1157 648.697 15.8624 648.057 16.4491C647.417 17.0357 646.644 17.3557 645.737 17.409C644.831 17.409 643.844 17.0357 642.777 16.289C642.511 14.6357 641.871 12.8757 640.857 11.009C639.897 9.14238 638.857 7.56905 637.737 6.28905L638.537 5.80905ZM594.057 19.6491C597.684 20.2891 600.511 21.1957 602.537 22.3691C604.617 23.489 606.031 24.689 606.777 25.9691C607.524 27.1957 607.764 28.3424 607.497 29.4091C607.284 30.4224 606.724 31.1157 605.817 31.4891C604.964 31.8624 603.924 31.7291 602.697 31.0891C602.217 29.8091 601.444 28.5024 600.377 27.1691C599.364 25.8357 598.217 24.5824 596.937 23.4091C595.711 22.1824 594.484 21.1691 593.257 20.369L594.057 19.6491ZM638.537 54.5291C642.644 55.7557 645.951 57.1957 648.457 58.8491C650.964 60.5024 652.804 62.2357 653.977 64.0491C655.204 65.8091 655.897 67.4624 656.057 69.0091C656.217 70.6091 655.977 71.9157 655.337 72.9291C654.697 73.9957 653.817 74.6357 652.697 74.8491C651.577 75.0624 650.351 74.6624 649.017 73.6491C648.644 71.5157 647.871 69.3291 646.697 67.0891C645.524 64.7957 644.137 62.6091 642.537 60.5291C640.991 58.4491 639.391 56.6624 637.737 55.1691L638.537 54.5291ZM622.297 55.3291C625.604 56.7691 628.217 58.3424 630.137 60.0491C632.111 61.7557 633.497 63.4624 634.297 65.1691C635.097 66.8757 635.471 68.4224 635.417 69.8091C635.364 71.1957 634.964 72.3157 634.217 73.1691C633.524 74.0224 632.644 74.4491 631.577 74.4491C630.511 74.5024 629.417 74.0224 628.297 73.0091C628.137 71.0891 627.711 69.0891 627.017 67.0091C626.324 64.9291 625.471 62.9291 624.457 61.0091C623.497 59.0357 622.484 57.3024 621.417 55.8091L622.297 55.3291ZM605.657 55.6491C608.324 57.5157 610.351 59.3824 611.737 61.2491C613.124 63.0624 614.031 64.8224 614.457 66.5291C614.937 68.1824 615.044 69.6224 614.777 70.8491C614.511 72.1291 614.004 73.1157 613.257 73.8091C612.511 74.5024 611.631 74.7957 610.617 74.6891C609.657 74.5824 608.697 73.9691 607.737 72.8491C607.844 71.0357 607.764 69.1424 607.497 67.1691C607.231 65.1424 606.831 63.1691 606.297 61.2491C605.817 59.3291 605.284 57.5957 604.697 56.0491L605.657 55.6491ZM638.457 2.20905C638.351 2.74238 638.111 3.22238 637.737 3.64905C637.364 4.02238 636.671 4.26238 635.657 4.36905V15.3291C635.604 18.9557 635.257 22.6357 634.617 26.3691C633.977 30.1024 632.751 33.7291 630.937 37.2491C629.124 40.7691 626.484 44.0224 623.017 47.0091C619.551 49.9424 614.991 52.4491 609.337 54.5291L608.617 53.5691C612.884 51.1157 616.324 48.3957 618.937 45.4091C621.551 42.3691 623.497 39.1691 624.777 35.8091C626.111 32.4491 626.991 29.0357 627.417 25.5691C627.897 22.0491 628.137 18.5557 628.137 15.089V1.24905L638.457 2.20905ZM610.857 13.8091L614.937 9.80905L621.897 16.0491C621.471 16.6357 620.431 17.0091 618.777 17.1691C617.391 22.9291 615.364 28.3424 612.697 33.4091C610.084 38.4757 606.511 42.9824 601.977 46.9291C597.444 50.8757 591.577 54.1024 584.377 56.6091L583.737 55.4891C589.551 52.5557 594.351 48.9824 598.137 44.7691C601.924 40.5557 604.911 35.8357 607.097 30.609C609.284 25.3291 610.831 19.7291 611.737 13.8091H610.857ZM614.857 13.8091V16.1291H596.297L596.857 13.8091H614.857ZM606.777 4.92905C606.617 5.40905 606.271 5.80905 605.737 6.12905C605.257 6.39572 604.564 6.50238 603.657 6.44905C601.364 12.5824 598.484 17.9157 595.017 22.449C591.604 26.9824 587.764 30.7157 583.497 33.6491L582.537 32.8491C584.511 30.4491 586.404 27.6224 588.217 24.369C590.031 21.0624 591.631 17.4891 593.017 13.649C594.457 9.80905 595.604 5.83572 596.457 1.72905L606.777 4.92905ZM594.937 55.1691C595.631 58.3157 595.791 61.1424 595.417 63.6491C595.044 66.1557 594.351 68.2624 593.337 69.9691C592.377 71.7291 591.311 73.0624 590.137 73.9691C589.337 74.6091 588.431 75.0091 587.417 75.1691C586.404 75.3291 585.444 75.2491 584.537 74.9291C583.631 74.6091 582.964 73.9957 582.537 73.0891C582.057 71.9691 582.084 70.8757 582.617 69.8091C583.151 68.7424 583.977 67.8891 585.097 67.2491C586.217 66.6091 587.391 65.6757 588.617 64.4491C589.844 63.2224 590.937 61.8091 591.897 60.2091C592.857 58.6091 593.471 56.9024 593.737 55.0891L594.937 55.1691ZM647.817 17.2491C647.817 17.2491 648.217 17.5957 649.017 18.2891C649.817 18.929 650.804 19.729 651.977 20.689C653.151 21.5957 654.164 22.5024 655.017 23.4091C654.804 24.2624 654.111 24.689 652.937 24.689H618.377L617.737 22.3691H643.897L647.817 17.2491ZM702.617 33.2491C702.404 33.7824 701.897 34.2091 701.097 34.5291C700.297 34.7957 699.204 34.7157 697.817 34.2891L700.137 33.4891C698.804 35.9957 697.124 38.7691 695.097 41.8091C693.071 44.7957 690.831 47.8357 688.377 50.9291C685.924 54.0224 683.417 56.9557 680.857 59.7291C678.297 62.5024 675.817 64.9291 673.417 67.0091L673.257 66.0491H677.657C677.391 68.5557 676.857 70.5291 676.057 71.9691C675.257 73.4624 674.297 74.4224 673.177 74.8491L669.577 64.6891C669.577 64.6891 669.764 64.6357 670.137 64.5291C670.564 64.4224 670.991 64.2891 671.417 64.1291C671.897 63.9157 672.271 63.7024 672.537 63.4891C673.817 62.1024 675.177 60.3424 676.617 58.2091C678.111 56.0757 679.577 53.7291 681.017 51.1691C682.511 48.6091 683.897 45.9957 685.177 43.3291C686.511 40.6091 687.684 37.9957 688.697 35.4891C689.764 32.9291 690.591 30.6624 691.177 28.6891L702.617 33.2491ZM671.177 65.1691C673.577 65.0624 676.617 64.8757 680.297 64.6091C684.031 64.2891 688.217 63.8891 692.857 63.4091C697.497 62.9291 702.377 62.4224 707.497 61.8891C712.671 61.3024 717.844 60.6624 723.017 59.9691L723.177 61.1691C717.684 62.8757 710.777 64.7691 702.457 66.8491C694.191 68.8757 684.777 70.9024 674.217 72.9291L671.177 65.1691ZM705.177 4.68905L708.057 0.289049L715.817 5.64905C715.337 6.23572 714.511 6.68905 713.337 7.00905C712.217 7.27571 710.911 7.46238 709.417 7.56905C710.591 11.4624 712.404 15.1957 714.857 18.769C717.311 22.289 720.324 25.4624 723.897 28.2891C727.471 31.0624 731.551 33.3291 736.137 35.0891L735.977 35.9691C734.324 36.5024 732.857 37.4357 731.577 38.7691C730.351 40.1024 729.497 41.5691 729.017 43.1691C722.831 39.1691 717.951 34.0491 714.377 27.8091C710.804 21.5157 708.351 14.2357 707.017 5.96905V4.68905H705.177ZM708.857 4.68905V7.00905H698.377L697.657 4.68905H708.857ZM693.017 10.0491C692.857 10.4757 692.511 10.8224 691.977 11.089C691.444 11.3557 690.724 11.4624 689.817 11.409C686.351 18.8224 682.217 25.1424 677.417 30.3691C672.671 35.5424 667.417 39.7557 661.657 43.0091L660.697 42.2091C663.524 39.4891 666.297 36.2624 669.017 32.5291C671.737 28.7424 674.217 24.5557 676.457 19.969C678.751 15.3824 680.617 10.6091 682.057 5.64905L693.017 10.0491ZM707.977 45.0091C712.084 47.0891 715.497 49.2757 718.217 51.5691C720.991 53.8091 723.177 56.0491 724.777 58.2891C726.377 60.5291 727.497 62.6357 728.137 64.6091C728.777 66.5824 729.017 68.3424 728.857 69.8891C728.751 71.4357 728.351 72.6357 727.657 73.4891C726.964 74.3957 726.057 74.8757 724.937 74.9291C723.817 74.9824 722.591 74.5024 721.257 73.4891C720.884 71.1424 720.217 68.7424 719.257 66.2891C718.297 63.7824 717.151 61.3024 715.817 58.8491C714.537 56.3424 713.124 53.9691 711.577 51.7291C710.084 49.4357 708.564 47.3557 707.017 45.4891L707.977 45.0091ZM777.577 47.5691C782.271 48.6357 786.111 49.8357 789.097 51.1691C792.084 52.5024 794.351 53.8624 795.897 55.2491C797.497 56.6357 798.537 57.9691 799.017 59.2491C799.497 60.4757 799.577 61.5157 799.257 62.3691C798.937 63.2224 798.324 63.7824 797.417 64.0491C796.564 64.2624 795.604 64.1024 794.537 63.5691C793.737 62.2891 792.484 60.8224 790.777 59.1691C789.124 57.4624 787.124 55.7024 784.777 53.8891C782.431 52.0757 779.844 50.3691 777.017 48.7691L777.577 47.5691ZM772.457 47.4091V53.6491H766.217V50.5291L772.457 47.4091ZM765.497 59.7291C766.564 59.4624 768.031 59.0891 769.897 58.6091C771.764 58.1291 773.844 57.5691 776.137 56.9291C778.484 56.2357 780.884 55.5424 783.337 54.8491L783.657 56.0491C782.591 56.6357 781.204 57.4357 779.497 58.4491C777.791 59.4624 775.897 60.5557 773.817 61.7291C771.791 62.9024 769.684 64.0491 767.497 65.1691L765.497 59.7291ZM771.017 51.3291L772.457 52.2091V59.9691L767.097 61.9691L768.937 59.8891C769.524 61.5957 769.551 62.9824 769.017 64.0491C768.484 65.1157 767.924 65.8091 767.337 66.1291L763.497 60.7691C764.671 59.9691 765.417 59.3557 765.737 58.9291C766.057 58.5024 766.217 58.0224 766.217 57.4891V51.3291H771.017ZM800.537 49.1691C800.324 49.4357 800.004 49.5957 799.577 49.6491C799.151 49.7024 798.591 49.5957 797.897 49.3291C797.044 49.7024 795.951 50.1557 794.617 50.6891C793.337 51.2224 792.031 51.7291 790.697 52.2091C789.364 52.6891 788.164 53.1424 787.097 53.5691L786.377 52.7691C787.231 52.0224 788.164 51.1157 789.177 50.0491C790.244 48.9291 791.257 47.8091 792.217 46.6891C793.177 45.5691 794.004 44.6091 794.697 43.8091L800.537 49.1691ZM780.457 43.3291C777.631 46.4757 773.951 49.1691 769.417 51.4091C764.937 53.5957 760.084 55.3824 754.857 56.7691L754.137 55.4891C758.191 53.8357 761.897 51.8624 765.257 49.5691C768.671 47.2224 771.471 44.7157 773.657 42.0491H780.457V43.3291ZM795.817 20.369C795.817 20.369 796.191 20.6624 796.937 21.2491C797.737 21.8357 798.671 22.5824 799.737 23.4891C800.804 24.3424 801.764 25.169 802.617 25.9691C802.404 26.8224 801.711 27.2491 800.537 27.2491H756.217L755.577 24.9291H792.057L795.817 20.369ZM792.297 12.609C792.297 12.609 792.671 12.9024 793.417 13.4891C794.164 14.0757 795.044 14.7957 796.057 15.6491C797.071 16.4491 798.031 17.2491 798.937 18.049C798.724 18.9024 798.031 19.3291 796.857 19.3291H759.657L759.017 17.009H788.697L792.297 12.609ZM783.737 10.8491C783.684 11.3291 783.497 11.7291 783.177 12.0491C782.857 12.369 782.297 12.5824 781.497 12.6891V25.9691H774.537V9.96905L783.737 10.8491ZM767.897 44.9291C767.897 45.1424 767.604 45.4091 767.017 45.7291C766.484 45.9957 765.791 46.2624 764.937 46.5291C764.084 46.7424 763.231 46.8491 762.377 46.8491H761.417V32.0491V29.1691L768.297 32.0491H791.897V34.3691H767.897V44.9291ZM788.377 32.0491L791.497 28.8491L797.977 33.7291C797.764 33.9424 797.444 34.1824 797.017 34.4491C796.644 34.7157 796.164 34.8757 795.577 34.9291V43.9691C795.577 44.1291 795.257 44.3691 794.617 44.6891C793.977 44.9557 793.231 45.1957 792.377 45.4091C791.577 45.6224 790.804 45.7291 790.057 45.7291H789.017V32.0491H788.377ZM791.657 41.8091V44.1291H764.857V41.8091H791.657ZM753.897 72.2891C753.897 72.6091 753.604 73.0091 753.017 73.4891C752.431 73.9691 751.657 74.3691 750.697 74.6891C749.791 75.0624 748.777 75.2491 747.657 75.2491H746.377V5.72905V2.12905L754.537 5.72905H805.977V8.04905H753.897V72.2891ZM802.937 5.72905L806.857 1.40905L814.777 7.72905C814.511 8.10238 814.084 8.42238 813.497 8.68905C812.911 8.95572 812.217 9.16905 811.417 9.32905V72.0491C811.417 72.2624 811.071 72.5824 810.377 73.0091C809.684 73.4357 808.831 73.8091 807.817 74.1291C806.857 74.5024 805.897 74.6891 804.937 74.6891H803.737V5.72905H802.937ZM806.297 66.7691V69.0891H750.617V66.7691H806.297Z" fill="#C30C24"/>
</svg>
