<svg width="814" height="77" viewBox="0 0 814 77" fill="none" xmlns="http://www.w3.org/2000/svg">
<path d="M30.5028 1.4C33.6495 1.45333 36.1295 1.82666 37.9428 2.52C39.7561 3.21333 41.0361 4.06667 41.7828 5.08C42.5828 6.09333 42.9561 7.13333 42.9028 8.2C42.8495 9.21333 42.4761 10.0933 41.7828 10.84C41.1428 11.5867 40.2895 12.04 39.2228 12.2C38.1561 12.36 37.0095 12.0667 35.7828 11.32C35.5161 9.56 34.7961 7.82667 33.6228 6.12C32.5028 4.36 31.2495 2.97333 29.8628 1.96L30.5028 1.4ZM62.5828 12.2L66.7428 8.04L74.1828 15.08C73.8628 15.3467 73.4628 15.5333 72.9828 15.64C72.5561 15.7467 71.9428 15.8267 71.1428 15.88C70.0762 17.0533 68.7162 18.3333 67.0628 19.72C65.4628 21.0533 63.9428 22.1733 62.5028 23.08L61.7028 22.52C61.9161 21.56 62.1295 20.44 62.3428 19.16C62.6095 17.88 62.8495 16.6267 63.0628 15.4C63.2761 14.12 63.4095 13.0533 63.4628 12.2H62.5828ZM10.8228 8.04C11.8361 10.9733 12.2895 13.5867 12.1828 15.88C12.0761 18.1733 11.5961 20.0933 10.7428 21.64C9.94281 23.1867 8.98281 24.3333 7.86281 25.08C7.11615 25.56 6.28948 25.8533 5.38281 25.96C4.47615 26.0667 3.62281 25.9333 2.82281 25.56C2.07615 25.1867 1.51615 24.6 1.14281 23.8C0.716146 22.6267 0.796146 21.5867 1.38281 20.68C1.96948 19.72 2.79615 18.9733 3.86281 18.44C4.87615 17.9067 5.80948 17.1333 6.66281 16.12C7.56948 15.0533 8.28948 13.8267 8.82281 12.44C9.40948 11.0533 9.64948 9.58666 9.54281 8.04H10.8228ZM66.6628 12.2V14.52H9.62281V12.2H66.6628ZM68.7428 34.84C68.4228 35.2133 68.0495 35.4533 67.6228 35.56C67.1961 35.6133 66.5562 35.5067 65.7028 35.24C63.5695 36.36 61.0095 37.5067 58.0228 38.68C55.0361 39.8533 51.8895 40.9733 48.5828 42.04C45.2761 43.1067 42.0228 44.04 38.8228 44.84L38.1028 43.8C40.7161 42.36 43.4361 40.7333 46.2628 38.92C49.0895 37.0533 51.7295 35.1867 54.1828 33.32C56.6895 31.4 58.7428 29.6933 60.3428 28.2L68.7428 34.84ZM46.4228 39.4C47.9161 43.56 50.0761 47.1867 52.9028 50.28C55.7828 53.3733 59.0895 55.9867 62.8228 58.12C66.5562 60.2 70.4762 61.9067 74.5828 63.24L74.4228 64.12C71.2761 64.6533 69.1428 66.8133 68.0228 70.6C64.2361 68.52 60.8495 66.0667 57.8628 63.24C54.8761 60.4133 52.3161 57.1067 50.1828 53.32C48.1028 49.48 46.4495 45.0533 45.2228 40.04L46.4228 39.4ZM42.2628 51.8C39.2228 54.5733 35.5428 57.24 31.2228 59.8C26.9561 62.3067 22.3161 64.5467 17.3028 66.52C12.2895 68.4933 7.22281 70.0933 2.10281 71.32L1.54281 70.04C6.23615 68.3333 10.8495 66.1467 15.3828 63.48C19.9695 60.8133 24.1828 57.8533 28.0228 54.6C31.8628 51.2933 34.9828 47.9067 37.3828 44.44L42.2628 51.8ZM37.2228 41.56C34.6095 43.5333 31.4628 45.5333 27.7828 47.56C24.1561 49.5867 20.2895 51.4533 16.1828 53.16C12.0761 54.8667 7.99615 56.28 3.94281 57.4L3.46281 56.28C7.08948 54.6267 10.7161 52.6267 14.3428 50.28C18.0228 47.9333 21.4361 45.4 24.5828 42.68C27.7828 39.9067 30.3961 37.2133 32.4228 34.6L37.2228 41.56ZM29.1428 30.92C32.6628 33.2667 35.5428 35.9867 37.7828 39.08C40.0761 42.12 41.7828 45.2933 42.9028 48.6C44.0761 51.9067 44.7695 55.1333 44.9828 58.28C45.1961 61.4267 45.0095 64.2533 44.4228 66.76C43.8361 69.2667 42.9295 71.24 41.7028 72.68C40.7428 73.8 39.3828 74.6 37.6228 75.08C35.8628 75.6133 33.7028 75.8533 31.1428 75.8C31.0895 73.6667 30.4761 72.0667 29.3028 71C28.8228 70.52 27.9695 70.04 26.7428 69.56C25.5161 69.1333 24.1295 68.76 22.5828 68.44L22.5028 67.32C23.6228 67.4267 24.8761 67.5333 26.2628 67.64C27.7028 67.7467 29.0628 67.8267 30.3428 67.88C31.6228 67.9333 32.5828 67.96 33.2228 67.96C33.8095 67.96 34.2895 67.9067 34.6628 67.8C35.0361 67.6933 35.3295 67.48 35.5428 67.16C36.2895 66.1467 36.8495 64.6533 37.2228 62.68C37.5961 60.7067 37.7295 58.44 37.6228 55.88C37.5161 53.2667 37.1161 50.5467 36.4228 47.72C35.7828 44.84 34.7695 42.0133 33.3828 39.24C32.0495 36.4667 30.3428 33.9333 28.2628 31.64L29.1428 30.92ZM41.3028 24.92C38.6361 27.6933 35.3561 30.28 31.4628 32.68C27.6228 35.08 23.4361 37.2133 18.9028 39.08C14.3695 40.8933 9.70281 42.4667 4.90281 43.8L4.26281 42.68C7.94281 41.08 11.4628 39.24 14.8228 37.16C18.2361 35.0267 21.3828 32.8133 24.2628 30.52C27.1961 28.2267 29.7028 25.9333 31.7828 23.64H41.3028V24.92ZM56.0228 18.2C56.0228 18.2 56.2628 18.4133 56.7428 18.84C57.2761 19.2667 57.9428 19.8 58.7428 20.44C59.5961 21.08 60.4761 21.8 61.3828 22.6C62.3428 23.3467 63.1961 24.04 63.9428 24.68C63.8895 25.1067 63.6495 25.4267 63.2228 25.64C62.8495 25.8533 62.3695 25.96 61.7828 25.96H12.7428L12.1028 23.64H51.6228L56.0228 18.2ZM110.103 27.32V29.64H91.0628V27.32H110.103ZM87.0628 26.52V24.04L95.5428 27.32H94.3428V46.52C94.3428 49.0267 94.2095 51.6133 93.9428 54.28C93.7295 56.8933 93.1961 59.48 92.3428 62.04C91.5428 64.6 90.2628 67.0533 88.5028 69.4C86.7961 71.7467 84.4495 73.88 81.4628 75.8L80.5028 75C82.5828 72.3867 84.0761 69.5333 84.9828 66.44C85.8895 63.3467 86.4495 60.12 86.6628 56.76C86.9295 53.4 87.0628 49.9867 87.0628 46.52V27.32V26.52ZM111.303 52.12V54.44H90.4228V52.12H111.303ZM111.303 39.32V41.64H90.4228V39.32H111.303ZM97.2228 1.8C100.636 2.33333 103.329 3.13333 105.303 4.2C107.329 5.26666 108.769 6.44 109.623 7.72C110.529 9 110.956 10.2533 110.903 11.48C110.903 12.6533 110.556 13.6667 109.863 14.52C109.223 15.32 108.343 15.8 107.223 15.96C106.156 16.0667 105.009 15.6933 103.783 14.84C103.516 13.3467 103.009 11.8533 102.263 10.36C101.516 8.81333 100.636 7.34666 99.6228 5.96C98.6095 4.52 97.5695 3.32 96.5028 2.35999L97.2228 1.8ZM140.743 4.44C140.583 4.92 140.236 5.32 139.703 5.64C139.223 5.90666 138.529 6.04 137.623 6.04C136.503 7.26666 135.143 8.62666 133.543 10.12C131.943 11.56 130.263 13 128.503 14.44C126.796 15.88 125.089 17.1867 123.383 18.36H122.103C123.009 16.76 123.916 15 124.823 13.08C125.729 11.1067 126.583 9.10666 127.383 7.08C128.236 5 128.929 3.13333 129.463 1.48L140.743 4.44ZM149.863 24.84C149.756 25.3733 149.489 25.8267 149.063 26.2C148.636 26.5733 147.943 26.8133 146.983 26.92V66.52C146.983 68.28 146.743 69.8 146.263 71.08C145.836 72.4133 144.876 73.4533 143.383 74.2C141.943 74.9467 139.703 75.4533 136.663 75.72C136.556 74.6 136.343 73.6133 136.023 72.76C135.756 71.96 135.329 71.2667 134.743 70.68C134.103 70.1467 133.249 69.6667 132.183 69.24C131.116 68.8133 129.596 68.4667 127.623 68.2V67.08C127.623 67.08 128.076 67.1067 128.983 67.16C129.889 67.2133 130.929 67.2933 132.103 67.4C133.329 67.4533 134.503 67.5067 135.623 67.56C136.743 67.6133 137.489 67.64 137.863 67.64C138.556 67.64 139.036 67.5333 139.303 67.32C139.569 67.0533 139.703 66.6533 139.703 66.12V23.8L149.863 24.84ZM106.343 27.32L109.863 23.24L117.783 29.32C117.569 29.5867 117.143 29.88 116.503 30.2C115.916 30.52 115.223 30.7333 114.423 30.84V66.6C114.423 68.3067 114.209 69.7733 113.783 71C113.409 72.2267 112.583 73.1867 111.303 73.88C110.023 74.6267 108.023 75.1333 105.303 75.4C105.249 74.28 105.143 73.2933 104.983 72.44C104.823 71.64 104.529 70.9733 104.103 70.44C103.676 69.9067 103.089 69.4267 102.343 69C101.596 68.6267 100.529 68.3333 99.1428 68.12V66.92C99.1428 66.92 99.4095 66.9467 99.9428 67C100.476 67.0533 101.116 67.1067 101.863 67.16C102.663 67.2133 103.409 67.2667 104.103 67.32C104.849 67.32 105.383 67.32 105.703 67.32C106.289 67.32 106.663 67.1867 106.823 66.92C107.036 66.6533 107.143 66.3067 107.143 65.88V27.32H106.343ZM133.223 27.16C133.169 27.6933 132.929 28.1733 132.503 28.6C132.076 28.9733 131.329 29.2133 130.263 29.32V59.8C130.263 60.0133 129.969 60.28 129.383 60.6C128.796 60.8667 128.049 61.1333 127.143 61.4C126.289 61.6133 125.409 61.72 124.503 61.72H123.223V26.2L133.223 27.16ZM146.023 10.76C146.023 10.76 146.316 11 146.903 11.48C147.489 11.9067 148.236 12.4933 149.143 13.24C150.049 13.9333 151.009 14.7067 152.023 15.56C153.036 16.36 153.943 17.1333 154.743 17.88C154.529 18.7333 153.809 19.16 152.583 19.16H80.8228L80.1828 16.84H141.143L146.023 10.76ZM165.063 33.8V31.48L173.143 34.6H171.943V48.76C171.943 50.8933 171.836 53.1333 171.623 55.48C171.409 57.8267 170.956 60.2 170.263 62.6C169.623 64.9467 168.556 67.2133 167.063 69.4C165.623 71.5867 163.649 73.5867 161.143 75.4L160.263 74.52C161.809 72.0133 162.929 69.3467 163.623 66.52C164.316 63.64 164.716 60.7067 164.823 57.72C164.983 54.7333 165.063 51.7733 165.063 48.84V34.6V33.8ZM169.383 42.52C173.489 42.1467 176.796 42.2 179.303 42.68C181.809 43.1067 183.649 43.8 184.823 44.76C185.996 45.6667 186.636 46.6 186.743 47.56C186.903 48.4667 186.663 49.2133 186.023 49.8C185.383 50.3333 184.503 50.4667 183.383 50.2C182.209 49.24 180.343 48.12 177.783 46.84C175.223 45.56 172.343 44.52 169.143 43.72L169.383 42.52ZM170.583 55.4C171.756 55.1867 173.436 54.8933 175.623 54.52C177.809 54.0933 180.289 53.5867 183.063 53C185.836 52.4133 188.636 51.8 191.463 51.16L191.783 52.36C189.863 53.2667 187.516 54.4133 184.743 55.8C182.023 57.1867 178.849 58.7333 175.223 60.44C174.849 61.4533 174.236 62.0667 173.383 62.28L170.583 55.4ZM226.583 13.48C226.583 13.48 226.849 13.72 227.383 14.2C227.969 14.6267 228.689 15.1867 229.543 15.88C230.396 16.5733 231.276 17.32 232.183 18.12C233.089 18.8667 233.916 19.5867 234.663 20.28C234.449 21.1333 233.729 21.56 232.503 21.56H206.263V19.24H222.183L226.583 13.48ZM218.343 4.12C218.183 4.6 217.863 5 217.383 5.31999C216.903 5.64 216.209 5.82666 215.303 5.88C214.289 10.6267 213.009 15.16 211.463 19.48C209.969 23.7467 208.236 27.72 206.263 31.4C204.289 35.0267 202.023 38.2533 199.463 41.08L198.423 40.36C199.809 37.0533 201.089 33.2933 202.263 29.08C203.436 24.8133 204.449 20.3333 205.303 15.64C206.209 10.9467 206.849 6.28 207.223 1.63999L218.343 4.12ZM229.303 19.24C228.716 25.3733 227.756 31.24 226.423 36.84C225.089 42.3867 223.169 47.5333 220.663 52.28C218.156 57.0267 214.876 61.3733 210.823 65.32C206.769 69.2133 201.703 72.6267 195.623 75.56L194.903 74.68C199.596 71.2133 203.543 67.4533 206.743 63.4C209.943 59.2933 212.503 54.8933 214.423 50.2C216.396 45.5067 217.863 40.5733 218.823 35.4C219.836 30.2267 220.476 24.84 220.743 19.24H229.303ZM206.823 20.36C207.569 25.96 208.636 31.2133 210.023 36.12C211.463 40.9733 213.303 45.48 215.543 49.64C217.836 53.8 220.609 57.5067 223.863 60.76C227.169 63.96 231.036 66.68 235.463 68.92L235.223 69.72C233.463 70.04 231.996 70.68 230.823 71.64C229.703 72.6533 228.903 74.04 228.423 75.8C223.303 72.12 219.196 67.5867 216.103 62.2C213.063 56.8133 210.743 50.76 209.143 44.04C207.596 37.32 206.449 30.12 205.703 22.44L206.823 20.36ZM187.863 34.6L191.063 30.92L198.503 36.44C198.289 36.7067 197.916 36.9733 197.383 37.24C196.903 37.5067 196.343 37.6933 195.703 37.8V65.8C195.703 67.4533 195.489 68.8933 195.063 70.12C194.689 71.4 193.863 72.4133 192.583 73.16C191.356 73.9067 189.409 74.4133 186.743 74.68C186.689 73.56 186.556 72.5467 186.343 71.64C186.129 70.7333 185.809 70.04 185.383 69.56C184.956 68.9733 184.343 68.4933 183.543 68.12C182.743 67.6933 181.649 67.3733 180.263 67.16V65.96C180.263 65.96 180.556 65.9867 181.143 66.04C181.729 66.04 182.423 66.0933 183.223 66.2C184.023 66.2533 184.796 66.3067 185.543 66.36C186.289 66.36 186.823 66.36 187.143 66.36C187.729 66.36 188.103 66.2533 188.263 66.04C188.476 65.7733 188.583 65.4 188.583 64.92V34.6H187.863ZM192.503 34.6V36.92H169.143V34.6H192.503ZM196.743 21.24C196.743 21.24 197.116 21.56 197.863 22.2C198.609 22.84 199.489 23.6133 200.503 24.52C201.569 25.4267 202.476 26.3067 203.223 27.16C203.009 28.0133 202.343 28.44 201.223 28.44H160.743L160.103 26.12H193.223L196.743 21.24ZM195.143 7.56C195.143 7.56 195.489 7.88 196.183 8.52C196.929 9.10666 197.783 9.85333 198.743 10.76C199.703 11.6667 200.583 12.52 201.383 13.32C201.169 14.1733 200.476 14.6 199.303 14.6H162.743L162.103 12.28H191.623L195.143 7.56ZM194.023 2.35999C193.969 2.89333 193.729 3.34666 193.303 3.72C192.929 4.04 192.289 4.25333 191.383 4.36V27.72H184.503V1.48L194.023 2.35999ZM178.823 2.35999C178.769 2.84 178.556 3.26666 178.183 3.64C177.863 3.96 177.249 4.17333 176.343 4.28V27.72H169.543V1.48L178.823 2.35999ZM306.663 4.76C306.663 4.76 307.089 5.10666 307.943 5.8C308.796 6.44 309.809 7.24 310.983 8.2C312.156 9.16 313.223 10.0933 314.183 11C313.969 11.8533 313.276 12.28 312.103 12.28H283.543V9.96H302.583L306.663 4.76ZM271.383 5.16C271.383 5.16 271.756 5.48 272.503 6.12C273.249 6.76 274.156 7.53333 275.223 8.44C276.289 9.34667 277.249 10.2 278.103 11C277.943 11.8533 277.249 12.28 276.023 12.28H252.583V9.96H267.703L271.383 5.16ZM289.943 13.96C292.609 14.2267 294.716 14.7333 296.263 15.48C297.863 16.2267 298.983 17.08 299.623 18.04C300.316 18.9467 300.609 19.8533 300.503 20.76C300.449 21.6667 300.129 22.4133 299.543 23C298.956 23.5867 298.209 23.9333 297.303 24.04C296.396 24.0933 295.463 23.7733 294.503 23.08C294.236 21.5333 293.569 19.96 292.503 18.36C291.489 16.76 290.369 15.48 289.143 14.52L289.943 13.96ZM293.783 4.52C293.623 4.94666 293.276 5.32 292.743 5.64C292.263 5.90666 291.596 6.01333 290.743 5.96C288.929 9.21333 286.796 12.1467 284.343 14.76C281.943 17.32 279.436 19.4267 276.823 21.08L275.783 20.44C277.329 18.0933 278.796 15.1867 280.183 11.72C281.623 8.2 282.769 4.6 283.623 0.919999L293.783 4.52ZM258.583 14.04C261.143 14.4133 263.143 15 264.583 15.8C266.023 16.5467 267.036 17.4 267.623 18.36C268.209 19.2667 268.449 20.1467 268.343 21C268.289 21.8 267.969 22.4933 267.383 23.08C266.849 23.6133 266.129 23.9067 265.223 23.96C264.369 24.0133 263.489 23.6933 262.583 23C262.369 21.5067 261.783 19.9867 260.823 18.44C259.863 16.84 258.849 15.56 257.783 14.6L258.583 14.04ZM262.663 4.2C262.503 4.68 262.156 5.05333 261.623 5.31999C261.143 5.58666 260.449 5.72 259.543 5.72C257.196 10.04 254.476 13.88 251.383 17.24C248.289 20.5467 245.036 23.2667 241.623 25.4L240.663 24.52C242.903 21.8 245.089 18.3333 247.223 14.12C249.356 9.85333 251.089 5.45333 252.423 0.919999L262.663 4.2ZM280.343 43.8C281.783 46.7333 283.703 49.4 286.103 51.8C288.503 54.1467 291.223 56.2267 294.263 58.04C297.303 59.8 300.529 61.32 303.943 62.6C307.356 63.88 310.796 64.92 314.263 65.72L314.103 66.6C312.556 66.92 311.249 67.6667 310.183 68.84C309.116 69.96 308.343 71.4533 307.863 73.32C303.489 71.5067 299.436 69.2933 295.703 66.68C291.969 64.0667 288.689 60.9467 285.863 57.32C283.089 53.64 280.849 49.3733 279.143 44.52L280.343 43.8ZM283.943 22.12C283.889 22.6533 283.649 23.1333 283.223 23.56C282.849 23.9333 282.103 24.2 280.983 24.36V73.32C280.983 73.5867 280.689 73.9067 280.103 74.28C279.516 74.6533 278.743 74.9733 277.783 75.24C276.876 75.56 275.916 75.72 274.903 75.72H273.463V21.08L283.943 22.12ZM279.063 50.84C276.396 54.04 273.089 57.1067 269.143 60.04C265.249 62.9733 260.929 65.6133 256.183 67.96C251.436 70.3067 246.503 72.2 241.383 73.64L240.823 72.44C245.463 70.4667 249.916 67.96 254.183 64.92C258.503 61.88 262.396 58.4667 265.863 54.68C269.383 50.84 272.183 46.8133 274.263 42.6L279.063 50.84ZM257.543 54.68C257.543 54.8933 257.223 55.1867 256.583 55.56C255.943 55.9333 255.143 56.28 254.183 56.6C253.223 56.8667 252.209 57 251.143 57H250.103V36.68V33.4L258.183 36.68H301.703V39H257.543V54.68ZM297.463 36.68L300.903 32.68L309.063 38.68C308.849 38.9467 308.423 39.24 307.783 39.56C307.196 39.88 306.503 40.12 305.703 40.28V48.76C305.703 50.2533 305.489 51.56 305.063 52.68C304.636 53.8 303.729 54.7067 302.343 55.4C301.009 56.04 298.929 56.4667 296.103 56.68C295.996 55.7733 295.836 54.9467 295.623 54.2C295.463 53.4 295.143 52.7867 294.663 52.36C294.183 51.9333 293.516 51.5333 292.663 51.16C291.809 50.7333 290.583 50.4133 288.983 50.2V49.08C288.983 49.08 289.303 49.1067 289.943 49.16C290.583 49.2133 291.356 49.2667 292.263 49.32C293.169 49.32 294.049 49.3467 294.903 49.4C295.756 49.4533 296.369 49.48 296.743 49.48C297.329 49.48 297.729 49.3733 297.943 49.16C298.156 48.9467 298.263 48.6 298.263 48.12V36.68H297.463ZM305.143 21.72C305.143 21.72 305.409 21.96 305.943 22.44C306.476 22.8667 307.169 23.4267 308.023 24.12C308.876 24.8133 309.756 25.56 310.663 26.36C311.569 27.1067 312.396 27.8533 313.143 28.6C312.929 29.4533 312.209 29.88 310.983 29.88H244.263L243.543 27.56H300.743L305.143 21.72ZM340.417 69.72H400.497L405.617 63.32C405.617 63.32 405.911 63.56 406.497 64.04C407.137 64.52 407.937 65.1333 408.897 65.88C409.911 66.6267 410.951 67.4267 412.017 68.28C413.084 69.1333 414.044 69.96 414.897 70.76C414.684 71.6133 413.937 72.04 412.657 72.04H341.137L340.417 69.72ZM349.777 43.72H393.697L398.657 37.48C398.657 37.48 398.951 37.72 399.537 38.2C400.124 38.68 400.897 39.2933 401.857 40.04C402.817 40.7333 403.804 41.5067 404.817 42.36C405.884 43.16 406.844 43.9333 407.697 44.68C407.537 45.5333 406.817 45.96 405.537 45.96H350.417L349.777 43.72ZM354.577 21H396.417L401.377 15C401.377 15 401.671 15.2133 402.257 15.64C402.844 16.0667 403.591 16.6533 404.497 17.4C405.404 18.0933 406.364 18.84 407.377 19.64C408.444 20.44 409.431 21.24 410.337 22.04C410.124 22.8933 409.377 23.32 408.097 23.32H353.377L354.577 21ZM373.217 1.72L384.417 2.84C384.311 3.37333 384.044 3.85333 383.617 4.28C383.244 4.65333 382.524 4.92 381.457 5.08V70.92H373.217V1.72ZM355.937 4.2L367.297 7.72C367.137 8.14666 366.791 8.52 366.257 8.84C365.777 9.16 365.057 9.32 364.097 9.32C361.377 16.52 358.017 22.92 354.017 28.52C350.071 34.12 345.671 38.76 340.817 42.44L339.777 41.72C341.964 38.7333 344.071 35.24 346.097 31.24C348.177 27.24 350.071 22.9467 351.777 18.36C353.484 13.72 354.871 9 355.937 4.2ZM484.897 29.48C484.897 29.48 485.111 29.6933 485.537 30.12C486.017 30.4933 486.631 31 487.377 31.64C488.124 32.2267 488.897 32.8933 489.697 33.64C490.497 34.3333 491.217 35 491.857 35.64C491.644 36.4933 490.951 36.92 489.777 36.92H464.817L464.177 34.6H480.977L484.897 29.48ZM483.617 6.2C483.617 6.2 483.857 6.41333 484.337 6.84C484.817 7.21333 485.404 7.72 486.097 8.36C486.844 8.94666 487.617 9.61333 488.417 10.36C489.217 11.0533 489.937 11.72 490.577 12.36C490.417 13.2133 489.751 13.64 488.577 13.64H464.737L464.097 11.32H479.777L483.617 6.2ZM426.657 21.96V19.64L434.497 22.76H433.297V32.6C433.297 34.2533 433.164 35.9867 432.897 37.8C432.684 39.6133 432.177 41.4267 431.377 43.24C430.631 45.0533 429.457 46.7867 427.857 48.44C426.311 50.04 424.231 51.5067 421.617 52.84L420.817 51.88C422.631 50.0667 423.937 48.12 424.737 46.04C425.591 43.9067 426.124 41.72 426.337 39.48C426.551 37.1867 426.657 34.92 426.657 32.68V22.76V21.96ZM431.137 38.04C432.844 37.88 434.871 37.64 437.217 37.32C439.617 36.9467 442.097 36.4933 444.657 35.96C447.271 35.3733 449.777 34.7333 452.177 34.04L452.417 35.16C450.284 36.44 447.857 37.8 445.137 39.24C442.471 40.68 439.404 42.0933 435.937 43.48C435.617 44.4933 435.031 45.1333 434.177 45.4L431.137 38.04ZM431.537 29C434.097 28.0933 436.337 27.6133 438.257 27.56C440.231 27.4533 441.857 27.6667 443.137 28.2C444.417 28.68 445.377 29.32 446.017 30.12C446.711 30.92 447.084 31.72 447.137 32.52C447.244 33.2667 447.057 33.88 446.577 34.36C446.097 34.84 445.324 35.0267 444.257 34.92C442.764 33.8533 440.951 32.92 438.817 32.12C436.684 31.2667 434.204 30.68 431.377 30.36L431.537 29ZM453.457 22.76V25.08H429.057L428.337 22.76H453.457ZM447.297 5.31999C447.084 5.8 446.604 6.17333 445.857 6.43999C445.111 6.70666 444.071 6.6 442.737 6.12L445.297 5.64C443.911 6.76 442.124 7.93333 439.937 9.16C437.751 10.3333 435.457 11.4533 433.057 12.52C430.657 13.5333 428.391 14.3867 426.257 15.08V14.2H429.857C429.697 16.3867 429.271 18.0667 428.577 19.24C427.937 20.4133 427.217 21.1867 426.417 21.56L422.977 13.24C422.977 13.24 423.217 13.1867 423.697 13.08C424.231 12.92 424.684 12.7867 425.057 12.68C426.551 12.04 428.124 11.0267 429.777 9.64C431.431 8.2 432.951 6.70666 434.337 5.16C435.724 3.61333 436.764 2.33333 437.457 1.32L447.297 5.31999ZM424.097 13.96C426.017 14.0133 428.577 14.0133 431.777 13.96C435.031 13.9067 438.684 13.8267 442.737 13.72C446.791 13.6133 450.924 13.48 455.137 13.32V14.68C452.097 15.32 448.071 16.1733 443.057 17.24C438.097 18.2533 432.631 19.24 426.657 20.2L424.097 13.96ZM471.137 27.8C470.977 28.92 470.177 29.56 468.737 29.72V43.08C468.737 43.56 468.871 43.9067 469.137 44.12C469.457 44.28 470.231 44.36 471.457 44.36H478.337C479.671 44.36 480.897 44.36 482.017 44.36C483.191 44.36 484.017 44.3333 484.497 44.28C485.351 44.28 485.937 44.0933 486.257 43.72C486.631 43.3467 487.031 42.7067 487.457 41.8C487.937 40.8933 488.391 39.8533 488.817 38.68H489.697L489.937 43.72C491.004 44.0933 491.724 44.4933 492.097 44.92C492.471 45.2933 492.657 45.8 492.657 46.44C492.657 47.4 492.231 48.1733 491.377 48.76C490.577 49.3467 489.084 49.7733 486.897 50.04C484.764 50.2533 481.697 50.36 477.697 50.36H469.857C467.564 50.36 465.831 50.1733 464.657 49.8C463.484 49.4267 462.684 48.8133 462.257 47.96C461.884 47.0533 461.697 45.8267 461.697 44.28V26.92L471.137 27.8ZM448.577 22.76L451.777 19L459.377 24.68C459.164 24.9467 458.737 25.24 458.097 25.56C457.511 25.88 456.817 26.12 456.017 26.28V44.04C456.017 45.48 455.831 46.7333 455.457 47.8C455.084 48.8133 454.284 49.64 453.057 50.28C451.884 50.8667 450.071 51.2667 447.617 51.48C447.564 50.68 447.457 49.9333 447.297 49.24C447.137 48.5467 446.844 47.9867 446.417 47.56C445.991 47.1867 445.404 46.84 444.657 46.52C443.964 46.2 442.924 45.9333 441.537 45.72V44.6C441.537 44.6 441.804 44.6267 442.337 44.68C442.871 44.7333 443.511 44.7867 444.257 44.84C445.004 44.84 445.724 44.8667 446.417 44.92C447.164 44.9733 447.697 45 448.017 45C448.551 45 448.897 44.8933 449.057 44.68C449.271 44.4133 449.377 44.04 449.377 43.56V22.76H448.577ZM470.737 3C470.631 4.06666 469.857 4.73333 468.417 5V18.92C468.417 19.4533 468.551 19.8267 468.817 20.04C469.137 20.2 469.884 20.28 471.057 20.28H477.617C478.951 20.28 480.151 20.28 481.217 20.28C482.284 20.28 483.084 20.2533 483.617 20.2C483.937 20.2 484.284 20.2 484.657 20.2C485.031 20.1467 485.324 20.0933 485.537 20.04C485.857 20.04 486.177 20.0133 486.497 19.96C486.871 19.8533 487.191 19.7467 487.457 19.64H488.257L488.577 19.72C489.644 20.0933 490.391 20.4667 490.817 20.84C491.244 21.16 491.457 21.64 491.457 22.28C491.457 23.24 491.057 23.9867 490.257 24.52C489.457 25 488.017 25.3467 485.937 25.56C483.857 25.72 480.844 25.8 476.897 25.8H469.457C467.217 25.8 465.511 25.6133 464.337 25.24C463.217 24.8667 462.444 24.28 462.017 23.48C461.644 22.6267 461.457 21.4533 461.457 19.96V2.12L470.737 3ZM446.577 7.24C449.671 7.77333 452.124 8.54666 453.937 9.56C455.804 10.52 457.164 11.5867 458.017 12.76C458.871 13.88 459.324 14.9733 459.377 16.04C459.484 17.1067 459.271 18.0133 458.737 18.76C458.204 19.4533 457.484 19.88 456.577 20.04C455.671 20.2 454.684 19.9333 453.617 19.24C453.351 17.8533 452.791 16.4667 451.937 15.08C451.137 13.64 450.177 12.3067 449.057 11.08C447.991 9.8 446.924 8.73333 445.857 7.88L446.577 7.24ZM449.377 53.4C449.324 53.88 449.084 54.3067 448.657 54.68C448.284 55.0533 447.697 55.2933 446.897 55.4V66.76C446.897 67.2933 447.084 67.6667 447.457 67.88C447.884 68.04 448.924 68.12 450.577 68.12H461.137C463.164 68.12 464.977 68.12 466.577 68.12C468.231 68.0667 469.404 68.0133 470.097 67.96C470.737 67.9067 471.191 67.8267 471.457 67.72C471.777 67.56 472.071 67.2933 472.337 66.92C472.764 66.2267 473.244 65.1333 473.777 63.64C474.311 62.1467 474.924 60.3333 475.617 58.2H476.497L476.737 67.08C477.964 67.5067 478.764 67.96 479.137 68.44C479.564 68.8667 479.777 69.4267 479.777 70.12C479.777 70.92 479.511 71.5867 478.977 72.12C478.444 72.6533 477.484 73.0533 476.097 73.32C474.711 73.64 472.764 73.8533 470.257 73.96C467.751 74.0667 464.497 74.12 460.497 74.12H449.537C446.711 74.12 444.551 73.9333 443.057 73.56C441.617 73.24 440.631 72.6 440.097 71.64C439.564 70.7333 439.297 69.4267 439.297 67.72V52.52L449.377 53.4ZM432.657 53.56C433.457 56.4933 433.671 59.1067 433.297 61.4C432.977 63.6933 432.311 65.6133 431.297 67.16C430.284 68.6533 429.191 69.72 428.017 70.36C426.844 71 425.591 71.2133 424.257 71C422.924 70.84 422.044 70.2 421.617 69.08C421.244 67.96 421.351 66.9733 421.937 66.12C422.524 65.2133 423.324 64.52 424.337 64.04C425.404 63.56 426.471 62.8133 427.537 61.8C428.604 60.7333 429.484 59.5067 430.177 58.12C430.924 56.68 431.324 55.1333 431.377 53.48L432.657 53.56ZM478.897 53.96C482.311 54.8133 485.057 55.88 487.137 57.16C489.271 58.44 490.817 59.8 491.777 61.24C492.737 62.6267 493.271 63.9867 493.377 65.32C493.484 66.6 493.244 67.6667 492.657 68.52C492.071 69.3733 491.271 69.88 490.257 70.04C489.244 70.2 488.124 69.8533 486.897 69C486.684 67.2933 486.097 65.56 485.137 63.8C484.231 61.9867 483.137 60.28 481.857 58.68C480.631 57.08 479.377 55.72 478.097 54.6L478.897 53.96ZM454.097 51.08C457.297 51.56 459.857 52.28 461.777 53.24C463.751 54.1467 465.191 55.16 466.097 56.28C467.057 57.4 467.591 58.4933 467.697 59.56C467.804 60.6267 467.617 61.5333 467.137 62.28C466.657 62.9733 465.937 63.4 464.977 63.56C464.071 63.6667 463.084 63.4 462.017 62.76C461.644 61.4267 460.977 60.0933 460.017 58.76C459.111 57.3733 458.044 56.0667 456.817 54.84C455.644 53.6133 454.497 52.5733 453.377 51.72L454.097 51.08ZM556.577 52.12C560.151 52.8667 563.084 53.88 565.377 55.16C567.671 56.44 569.404 57.8 570.577 59.24C571.751 60.68 572.471 62.0667 572.737 63.4C573.004 64.7333 572.924 65.8533 572.497 66.76C572.124 67.6667 571.457 68.2533 570.497 68.52C569.591 68.7333 568.577 68.4133 567.457 67.56C566.657 66.12 565.697 64.52 564.577 62.76C563.457 61 562.177 59.2667 560.737 57.56C559.297 55.8 557.697 54.2533 555.937 52.92L556.577 52.12ZM549.537 3.56C549.431 4.09333 549.084 4.57333 548.497 5C547.964 5.37333 547.057 5.50666 545.777 5.4L546.817 3.96C546.444 5.13333 545.911 6.62667 545.217 8.44C544.524 10.2 543.777 12.0667 542.977 14.04C542.177 15.96 541.404 17.8267 540.657 19.64C539.911 21.4533 539.244 23 538.657 24.28H539.297L536.177 27.48L529.377 22.2C530.017 21.7733 530.817 21.3733 531.777 21C532.791 20.5733 533.697 20.28 534.497 20.12L531.777 22.84C532.417 21.6133 533.137 20.0933 533.937 18.28C534.737 16.4133 535.537 14.4667 536.337 12.44C537.137 10.36 537.857 8.38666 538.497 6.52C539.191 4.65333 539.724 3.08 540.097 1.8L549.537 3.56ZM573.537 41C573.324 41.32 573.004 41.5333 572.577 41.64C572.151 41.7467 571.537 41.6933 570.737 41.48C569.671 42.1733 568.337 43 566.737 43.96C565.137 44.92 563.484 45.88 561.777 46.84C560.071 47.8 558.551 48.68 557.217 49.48L556.497 48.68C557.457 47.4 558.497 45.96 559.617 44.36C560.737 42.7067 561.831 41.0533 562.897 39.4C563.964 37.7467 564.844 36.36 565.537 35.24L573.537 41ZM530.097 36.76C533.191 37.3467 535.671 38.12 537.537 39.08C539.404 40.04 540.764 41.1067 541.617 42.28C542.524 43.4 543.004 44.4933 543.057 45.56C543.164 46.6267 542.951 47.5333 542.417 48.28C541.937 48.9733 541.244 49.4 540.337 49.56C539.431 49.6667 538.444 49.4 537.377 48.76C537.004 47.48 536.391 46.1467 535.537 44.76C534.684 43.32 533.697 41.96 532.577 40.68C531.511 39.4 530.417 38.3067 529.297 37.4L530.097 36.76ZM525.377 61.16C526.444 60.68 527.937 60.0133 529.857 59.16C531.831 58.2533 534.017 57.2133 536.417 56.04C538.817 54.8133 541.271 53.56 543.777 52.28L544.177 53.16C542.897 54.6 541.244 56.44 539.217 58.68C537.244 60.92 534.897 63.48 532.177 66.36C532.124 67.48 531.697 68.2533 530.897 68.68L525.377 61.16ZM554.017 66.84C554.017 68.4933 553.804 69.9333 553.377 71.16C552.951 72.44 552.071 73.4533 550.737 74.2C549.457 75 547.457 75.5067 544.737 75.72C544.684 74.7067 544.551 73.8 544.337 73C544.124 72.2 543.804 71.56 543.377 71.08C542.897 70.5467 542.204 70.0933 541.297 69.72C540.444 69.3467 539.191 69.0533 537.537 68.84V67.64C537.537 67.64 537.857 67.6667 538.497 67.72C539.191 67.7733 539.991 67.8267 540.897 67.88C541.857 67.9333 542.764 67.9867 543.617 68.04C544.471 68.0933 545.057 68.12 545.377 68.12C546.071 68.12 546.497 68.0133 546.657 67.8C546.871 67.5333 546.977 67.16 546.977 66.68V31.4H554.017V66.84ZM558.337 9.72L561.697 6.2L568.497 12.04C567.964 12.5733 566.977 12.8933 565.537 13L559.217 32.2H551.617L559.137 9.72H558.337ZM559.457 21.96V24.28H537.457L537.937 21.96H559.457ZM562.177 9.72V12.04H541.057L541.537 9.72H562.177ZM567.537 25.48C567.537 25.48 567.777 25.6933 568.257 26.12C568.791 26.5467 569.431 27.1067 570.177 27.8C570.977 28.4933 571.804 29.24 572.657 30.04C573.511 30.7867 574.257 31.5067 574.897 32.2C574.684 33.0533 573.991 33.48 572.817 33.48H527.857L527.217 31.16H563.617L567.537 25.48ZM530.257 19.96C529.991 20.3867 529.457 20.68 528.657 20.84C527.857 21 526.844 20.76 525.617 20.12L527.937 19.64C526.817 21.4533 525.351 23.5067 523.537 25.8C521.777 28.04 519.831 30.36 517.697 32.76C515.564 35.1067 513.324 37.3733 510.977 39.56C508.684 41.7467 506.444 43.6667 504.257 45.32L504.177 44.36H507.697C507.484 46.4933 506.977 48.1733 506.177 49.4C505.431 50.5733 504.604 51.32 503.697 51.64L500.817 43.24C500.817 43.24 501.137 43.16 501.777 43C502.471 42.84 503.004 42.6 503.377 42.28C505.031 40.84 506.764 38.9733 508.577 36.68C510.391 34.3333 512.151 31.8267 513.857 29.16C515.617 26.44 517.191 23.7733 518.577 21.16C520.017 18.5467 521.137 16.2533 521.937 14.28L530.257 19.96ZM522.897 6.12C522.684 6.6 522.204 6.97333 521.457 7.24C520.711 7.50667 519.671 7.37333 518.337 6.84L520.737 6.36C519.564 8.33333 518.071 10.5733 516.257 13.08C514.444 15.5333 512.497 17.9333 510.417 20.28C508.391 22.5733 506.417 24.5467 504.497 26.2L504.417 25.32H508.097C507.937 27.3467 507.511 28.9733 506.817 30.2C506.177 31.4267 505.431 32.2 504.577 32.52L501.217 24.2C501.217 24.2 501.484 24.1467 502.017 24.04C502.551 23.88 502.977 23.6667 503.297 23.4C504.257 22.3333 505.244 20.8933 506.257 19.08C507.324 17.2667 508.337 15.2933 509.297 13.16C510.311 11.0267 511.191 8.94666 511.937 6.92C512.684 4.89333 513.271 3.13333 513.697 1.63999L522.897 6.12ZM508.417 53.24C509.591 57.4533 509.964 61.0533 509.537 64.04C509.111 67.0267 508.284 69.2667 507.057 70.76C506.524 71.4 505.831 71.8533 504.977 72.12C504.124 72.44 503.271 72.4933 502.417 72.28C501.617 72.12 501.004 71.6933 500.577 71C500.044 69.9867 499.964 69 500.337 68.04C500.711 67.08 501.351 66.2267 502.257 65.48C503.057 64.7867 503.831 63.8 504.577 62.52C505.324 61.1867 505.937 59.72 506.417 58.12C506.951 56.4667 507.191 54.84 507.137 53.24H508.417ZM519.137 50.68C521.857 52.0133 523.884 53.4533 525.217 55C526.604 56.4933 527.431 57.9333 527.697 59.32C528.017 60.6533 527.937 61.8 527.457 62.76C527.031 63.72 526.364 64.3067 525.457 64.52C524.604 64.68 523.671 64.3333 522.657 63.48C522.604 61.4533 522.097 59.2933 521.137 57C520.177 54.6533 519.164 52.7067 518.097 51.16L519.137 50.68ZM513.297 52.12C515.431 54.3067 516.924 56.44 517.777 58.52C518.684 60.5467 519.111 62.3867 519.057 64.04C519.057 65.6933 518.737 67.0267 518.097 68.04C517.511 69 516.737 69.5333 515.777 69.64C514.871 69.8 513.991 69.3467 513.137 68.28C513.511 65.6667 513.564 62.92 513.297 60.04C513.031 57.16 512.631 54.6267 512.097 52.44L513.297 52.12ZM519.537 33.64C522.044 35.08 523.991 36.6 525.377 38.2C526.764 39.7467 527.697 41.24 528.177 42.68C528.657 44.12 528.791 45.4 528.577 46.52C528.417 47.64 528.017 48.52 527.377 49.16C526.737 49.8 525.964 50.0933 525.057 50.04C524.204 49.9867 523.324 49.5067 522.417 48.6C522.471 47.0533 522.284 45.4 521.857 43.64C521.484 41.88 520.977 40.1733 520.337 38.52C519.751 36.8667 519.137 35.3733 518.497 34.04L519.537 33.64ZM502.417 43.48C503.857 43.4267 505.777 43.3467 508.177 43.24C510.631 43.08 513.377 42.8933 516.417 42.68C519.511 42.4667 522.657 42.2533 525.857 42.04L526.017 43.24C524.577 43.72 522.737 44.36 520.497 45.16C518.311 45.96 515.857 46.8133 513.137 47.72C510.417 48.5733 507.591 49.4267 504.657 50.28L502.417 43.48ZM502.177 24.52C503.351 24.5733 504.924 24.6267 506.897 24.68C508.871 24.68 511.057 24.68 513.457 24.68C515.857 24.6267 518.257 24.5733 520.657 24.52L520.737 25.72C519.244 26.3067 517.031 27.16 514.097 28.28C511.217 29.3467 508.151 30.3867 504.897 31.4L502.177 24.52ZM614.017 0.839995C617.164 0.893331 619.671 1.29333 621.537 2.04C623.404 2.73333 624.764 3.58666 625.617 4.59999C626.471 5.56 626.897 6.57333 626.897 7.64C626.897 8.65333 626.577 9.53333 625.937 10.28C625.351 11.0267 624.524 11.5067 623.457 11.72C622.391 11.88 621.244 11.6133 620.017 10.92C619.537 9.21333 618.631 7.48 617.297 5.72C615.964 3.96 614.631 2.52 613.297 1.4L614.017 0.839995ZM587.137 10.68V8.12L596.017 11.48H594.737V32.36C594.737 35.8267 594.631 39.48 594.417 43.32C594.204 47.1067 593.644 50.9467 592.737 54.84C591.831 58.7333 590.444 62.4933 588.577 66.12C586.711 69.7467 584.124 73.1067 580.817 76.2L579.857 75.48C582.097 71.2667 583.724 66.76 584.737 61.96C585.804 57.1067 586.471 52.1733 586.737 47.16C587.004 42.1467 587.137 37.24 587.137 32.44V11.48V10.68ZM646.977 5.56C646.977 5.56 647.244 5.8 647.777 6.28C648.311 6.70666 649.004 7.29333 649.857 8.04C650.711 8.73333 651.591 9.48 652.497 10.28C653.457 11.08 654.311 11.8267 655.057 12.52C654.897 13.3733 654.204 13.8 652.977 13.8H591.457V11.48H642.497L646.977 5.56ZM605.057 14.68C607.671 14.9467 609.697 15.4533 611.137 16.2C612.631 16.8933 613.671 17.6933 614.257 18.6C614.897 19.5067 615.164 20.3867 615.057 21.24C615.004 22.0933 614.684 22.8133 614.097 23.4C613.511 23.9867 612.764 24.3333 611.857 24.44C610.951 24.4933 609.991 24.2 608.977 23.56C608.711 22.12 608.097 20.6267 607.137 19.08C606.177 17.48 605.217 16.2 604.257 15.24L605.057 14.68ZM620.737 24.68V27H601.857V24.68H620.737ZM598.417 21.64L605.937 24.68H604.977V29.48C604.977 29.48 604.444 29.48 603.377 29.48C602.364 29.48 600.711 29.48 598.417 29.48V24.68V21.64ZM596.497 66.12C597.777 65.64 599.564 64.9733 601.857 64.12C604.204 63.2133 606.817 62.1733 609.697 61C612.631 59.8267 615.617 58.6 618.657 57.32L619.057 58.36C617.884 59.32 616.337 60.5467 614.417 62.04C612.551 63.5333 610.444 65.16 608.097 66.92C605.751 68.68 603.244 70.4933 600.577 72.36L596.497 66.12ZM603.457 26.68L604.977 27.64V66.04L599.217 68.36L602.257 65.8C602.684 67.2933 602.764 68.6 602.497 69.72C602.284 70.84 601.911 71.7467 601.377 72.44C600.844 73.1867 600.311 73.72 599.777 74.04L595.297 65.88C596.684 65.1867 597.537 64.6267 597.857 64.2C598.231 63.72 598.417 63.08 598.417 62.28V26.68H603.457ZM635.537 73.24C635.537 73.5067 635.271 73.8267 634.737 74.2C634.257 74.6267 633.591 74.9733 632.737 75.24C631.937 75.56 631.004 75.72 629.937 75.72H628.817V21.48V18.28L635.937 21.48H647.937V23.8H635.537V73.24ZM643.697 21.48L647.697 17.64L654.817 24.6C654.284 25.24 653.111 25.56 651.297 25.56C650.551 26.9467 649.617 28.6 648.497 30.52C647.431 32.3867 646.311 34.28 645.137 36.2C643.964 38.0667 642.844 39.6933 641.777 41.08C645.831 43.48 648.737 46.1467 650.497 49.08C652.311 51.96 653.217 54.8667 653.217 57.8C653.217 61.2133 652.417 63.8 650.817 65.56C649.271 67.32 646.497 68.28 642.497 68.44C642.497 67.5333 642.417 66.5467 642.257 65.48C642.097 64.4133 641.857 63.6667 641.537 63.24C641.217 62.8667 640.737 62.5733 640.097 62.36C639.511 62.0933 638.791 61.88 637.937 61.72V60.6C638.684 60.6 639.617 60.6 640.737 60.6C641.857 60.6 642.684 60.6 643.217 60.6C644.017 60.6 644.631 60.4667 645.057 60.2C645.537 59.88 645.884 59.4 646.097 58.76C646.364 58.12 646.497 57.2133 646.497 56.04C646.497 53.48 645.964 50.9733 644.897 48.52C643.831 46.0667 642.124 43.6667 639.777 41.32C640.311 39.6133 640.871 37.56 641.457 35.16C642.097 32.7067 642.684 30.2533 643.217 27.8C643.804 25.2933 644.257 23.1867 644.577 21.48H643.697ZM612.577 50.92C615.777 52.5733 618.311 54.3067 620.177 56.12C622.044 57.9333 623.377 59.6933 624.177 61.4C625.031 63.0533 625.431 64.6 625.377 66.04C625.377 67.4267 625.057 68.52 624.417 69.32C623.777 70.1733 622.977 70.6267 622.017 70.68C621.057 70.7867 620.017 70.36 618.897 69.4C618.737 67.4267 618.284 65.3733 617.537 63.24C616.791 61.0533 615.884 58.9467 614.817 56.92C613.751 54.84 612.684 53 611.617 51.4L612.577 50.92ZM620.177 44.44V46.76H601.297V44.44H620.177ZM620.177 34.44V36.76H601.297V34.44H620.177ZM616.497 24.68L619.777 21.24L626.737 26.52C626.257 27.1067 625.297 27.56 623.857 27.88V47.72C623.857 47.88 623.537 48.12 622.897 48.44C622.311 48.7067 621.591 48.9733 620.737 49.24C619.884 49.4533 619.084 49.56 618.337 49.56H617.137V24.68H616.497ZM701.617 33.72C701.404 34.2533 700.897 34.68 700.097 35C699.297 35.2667 698.204 35.1867 696.817 34.76L699.137 33.96C697.804 36.4667 696.124 39.24 694.097 42.28C692.071 45.2667 689.831 48.3067 687.377 51.4C684.924 54.4933 682.417 57.4267 679.857 60.2C677.297 62.9733 674.817 65.4 672.417 67.48L672.257 66.52H676.657C676.391 69.0267 675.857 71 675.057 72.44C674.257 73.9333 673.297 74.8933 672.177 75.32L668.577 65.16C668.577 65.16 668.764 65.1067 669.137 65C669.564 64.8933 669.991 64.76 670.417 64.6C670.897 64.3867 671.271 64.1733 671.537 63.96C672.817 62.5733 674.177 60.8133 675.617 58.68C677.111 56.5467 678.577 54.2 680.017 51.64C681.511 49.08 682.897 46.4667 684.177 43.8C685.511 41.08 686.684 38.4667 687.697 35.96C688.764 33.4 689.591 31.1333 690.177 29.16L701.617 33.72ZM670.177 65.64C672.577 65.5333 675.617 65.3467 679.297 65.08C683.031 64.76 687.217 64.36 691.857 63.88C696.497 63.4 701.377 62.8933 706.497 62.36C711.671 61.7733 716.844 61.1333 722.017 60.44L722.177 61.64C716.684 63.3467 709.777 65.24 701.457 67.32C693.191 69.3467 683.777 71.3733 673.217 73.4L670.177 65.64ZM704.177 5.16L707.057 0.759996L714.817 6.12C714.337 6.70666 713.511 7.16 712.337 7.48C711.217 7.74666 709.911 7.93333 708.417 8.04C709.591 11.9333 711.404 15.6667 713.857 19.24C716.311 22.76 719.324 25.9333 722.897 28.76C726.471 31.5333 730.551 33.8 735.137 35.56L734.977 36.44C733.324 36.9733 731.857 37.9067 730.577 39.24C729.351 40.5733 728.497 42.04 728.017 43.64C721.831 39.64 716.951 34.52 713.377 28.28C709.804 21.9867 707.351 14.7067 706.017 6.43999V5.16H704.177ZM707.857 5.16V7.48H697.377L696.657 5.16H707.857ZM692.017 10.52C691.857 10.9467 691.511 11.2933 690.977 11.56C690.444 11.8267 689.724 11.9333 688.817 11.88C685.351 19.2933 681.217 25.6133 676.417 30.84C671.671 36.0133 666.417 40.2267 660.657 43.48L659.697 42.68C662.524 39.96 665.297 36.7333 668.017 33C670.737 29.2133 673.217 25.0267 675.457 20.44C677.751 15.8533 679.617 11.08 681.057 6.12L692.017 10.52ZM706.977 45.48C711.084 47.56 714.497 49.7467 717.217 52.04C719.991 54.28 722.177 56.52 723.777 58.76C725.377 61 726.497 63.1067 727.137 65.08C727.777 67.0533 728.017 68.8133 727.857 70.36C727.751 71.9067 727.351 73.1067 726.657 73.96C725.964 74.8667 725.057 75.3467 723.937 75.4C722.817 75.4533 721.591 74.9733 720.257 73.96C719.884 71.6133 719.217 69.2133 718.257 66.76C717.297 64.2533 716.151 61.7733 714.817 59.32C713.537 56.8133 712.124 54.44 710.577 52.2C709.084 49.9067 707.564 47.8267 706.017 45.96L706.977 45.48ZM776.577 48.04C781.271 49.1067 785.111 50.3067 788.097 51.64C791.084 52.9733 793.351 54.3333 794.897 55.72C796.497 57.1067 797.537 58.44 798.017 59.72C798.497 60.9467 798.577 61.9867 798.257 62.84C797.937 63.6933 797.324 64.2533 796.417 64.52C795.564 64.7333 794.604 64.5733 793.537 64.04C792.737 62.76 791.484 61.2933 789.777 59.64C788.124 57.9333 786.124 56.1733 783.777 54.36C781.431 52.5467 778.844 50.84 776.017 49.24L776.577 48.04ZM771.457 47.88V54.12H765.217V51L771.457 47.88ZM764.497 60.2C765.564 59.9333 767.031 59.56 768.897 59.08C770.764 58.6 772.844 58.04 775.137 57.4C777.484 56.7067 779.884 56.0133 782.337 55.32L782.657 56.52C781.591 57.1067 780.204 57.9067 778.497 58.92C776.791 59.9333 774.897 61.0267 772.817 62.2C770.791 63.3733 768.684 64.52 766.497 65.64L764.497 60.2ZM770.017 51.8L771.457 52.68V60.44L766.097 62.44L767.937 60.36C768.524 62.0667 768.551 63.4533 768.017 64.52C767.484 65.5867 766.924 66.28 766.337 66.6L762.497 61.24C763.671 60.44 764.417 59.8267 764.737 59.4C765.057 58.9733 765.217 58.4933 765.217 57.96V51.8H770.017ZM799.537 49.64C799.324 49.9067 799.004 50.0667 798.577 50.12C798.151 50.1733 797.591 50.0667 796.897 49.8C796.044 50.1733 794.951 50.6267 793.617 51.16C792.337 51.6933 791.031 52.2 789.697 52.68C788.364 53.16 787.164 53.6133 786.097 54.04L785.377 53.24C786.231 52.4933 787.164 51.5867 788.177 50.52C789.244 49.4 790.257 48.28 791.217 47.16C792.177 46.04 793.004 45.08 793.697 44.28L799.537 49.64ZM779.457 43.8C776.631 46.9467 772.951 49.64 768.417 51.88C763.937 54.0667 759.084 55.8533 753.857 57.24L753.137 55.96C757.191 54.3067 760.897 52.3333 764.257 50.04C767.671 47.6933 770.471 45.1867 772.657 42.52H779.457V43.8ZM794.817 20.84C794.817 20.84 795.191 21.1333 795.937 21.72C796.737 22.3067 797.671 23.0533 798.737 23.96C799.804 24.8133 800.764 25.64 801.617 26.44C801.404 27.2933 800.711 27.72 799.537 27.72H755.217L754.577 25.4H791.057L794.817 20.84ZM791.297 13.08C791.297 13.08 791.671 13.3733 792.417 13.96C793.164 14.5467 794.044 15.2667 795.057 16.12C796.071 16.92 797.031 17.72 797.937 18.52C797.724 19.3733 797.031 19.8 795.857 19.8H758.657L758.017 17.48H787.697L791.297 13.08ZM782.737 11.32C782.684 11.8 782.497 12.2 782.177 12.52C781.857 12.84 781.297 13.0533 780.497 13.16V26.44H773.537V10.44L782.737 11.32ZM766.897 45.4C766.897 45.6133 766.604 45.88 766.017 46.2C765.484 46.4667 764.791 46.7333 763.937 47C763.084 47.2133 762.231 47.32 761.377 47.32H760.417V32.52V29.64L767.297 32.52H790.897V34.84H766.897V45.4ZM787.377 32.52L790.497 29.32L796.977 34.2C796.764 34.4133 796.444 34.6533 796.017 34.92C795.644 35.1867 795.164 35.3467 794.577 35.4V44.44C794.577 44.6 794.257 44.84 793.617 45.16C792.977 45.4267 792.231 45.6667 791.377 45.88C790.577 46.0933 789.804 46.2 789.057 46.2H788.017V32.52H787.377ZM790.657 42.28V44.6H763.857V42.28H790.657ZM752.897 72.76C752.897 73.08 752.604 73.48 752.017 73.96C751.431 74.44 750.657 74.84 749.697 75.16C748.791 75.5333 747.777 75.72 746.657 75.72H745.377V6.2V2.6L753.537 6.2H804.977V8.52H752.897V72.76ZM801.937 6.2L805.857 1.88L813.777 8.2C813.511 8.57333 813.084 8.89333 812.497 9.16C811.911 9.42666 811.217 9.64 810.417 9.8V72.52C810.417 72.7333 810.071 73.0533 809.377 73.48C808.684 73.9067 807.831 74.28 806.817 74.6C805.857 74.9733 804.897 75.16 803.937 75.16H802.737V6.2H801.937ZM805.297 67.24V69.56H749.617V67.24H805.297Z" fill="white"/>
</svg>
