<svg width="255" height="289" viewBox="0 0 255 289" fill="none" xmlns="http://www.w3.org/2000/svg">
<path d="M254.689 0H0V289H254.689V0Z" fill="url(#paint0_linear_2163_702)"/>
<path d="M51.2798 164.678V165.644H29.1846V164.678H39.5843V160.009H31.7219V159.043H39.5843V155.135H40.9128V159.043H48.8297V160.009H40.9128V164.678H51.2798ZM38.3646 145.885H30.2518V144.886H50.1691V145.885H40.0307C38.724 148.545 36.7529 151.324 35.0432 153.267C38.9853 153.061 43.7224 152.659 46.619 152.225C45.5954 150.868 44.5173 149.543 43.7006 148.621L44.158 148.11C46.2052 149.826 48.993 152.931 50.4304 154.983L49.1563 155.873C48.699 155.08 47.9476 154.006 47.1309 152.909C43.2432 153.799 35.5115 154.668 31.5368 154.896L31.1774 153.387C32.0268 153.387 32.996 153.332 34.0414 153.311C35.6531 151.194 37.2974 148.338 38.3646 145.885Z" fill="black"/>
<path d="M77.8726 146.959V152.268H76.6202V147.85H58.1295V152.268H56.8445V146.959H67.9302C66.7541 145.917 64.99 144.506 63.8575 143.713L64.1624 143.127C65.6216 143.768 67.7015 145.016 69.0845 146.058L68.4203 146.949H77.8726V146.959ZM62.1804 159.239H75.1937V167.077H73.9414V165.188H62.1913V167.305H60.9064V150.586H73.68V156.199H62.1804V159.239ZM62.1804 155.308H72.4277V151.508H62.1804V155.308ZM62.1804 160.161V164.276H73.9305V160.161H62.1804Z" fill="black"/>
<path d="M84.7984 159.597L85.4409 159.651C85.4192 162.333 84.9836 164.71 84.1886 166.599L82.8274 165.991C83.7966 164.254 84.4717 162.213 84.7984 159.607V159.597ZM89.6444 153.777C90.5155 155.156 91.463 157.1 91.953 158.522L90.7442 158.978C90.5918 158.391 90.3631 157.729 90.1344 157.034C87.7822 157.751 85.2994 158.261 83.5026 158.489L83.1214 157.089L84.6351 157.013C85.8656 155.46 86.9655 153.614 88.0109 151.573C86.4755 151.953 84.8856 152.214 83.6115 152.366L83.3501 151.009H84.45C85.4954 148.837 86.6497 145.906 87.3466 143.431L88.7079 143.843C87.7604 146.34 86.323 149.228 85.2231 150.987C86.3012 150.933 87.3684 150.889 88.4247 150.781C88.991 149.663 89.5246 148.479 90.0364 147.285L91.2669 147.817C89.6008 151.421 87.4555 154.765 85.5825 156.926C86.9873 156.796 88.4792 156.589 89.9057 156.34C89.6226 155.525 89.3177 154.733 89.0345 154.07L89.6444 153.766V153.777ZM87.2595 159.314C87.7713 161.258 88.2832 163.907 88.4356 165.666L87.0744 165.818C87.0744 164.102 86.813 161.453 86.5844 159.434L87.2486 159.303L87.2595 159.314ZM89.285 158.804C90.1562 160.411 91.158 162.68 91.6916 164.265L90.4393 164.699C90.0255 163.114 89.285 160.671 88.697 159.054L89.285 158.793V158.804ZM104.694 144.918V165.112C104.694 166.773 103.496 167.794 98.574 166.284L98.7264 165.644C102.952 166.284 103.442 165.948 103.442 164.721V145.83H93.6627V167.175H92.4321V144.918H104.694ZM94.4032 151.476H98.8571C99.4669 149.945 100.033 148.11 100.393 146.579L101.601 147.013C101.035 148.544 100.393 150.021 99.6085 151.486H102.549V152.333H97.7354C98.4215 153.256 99.1184 154.483 99.554 155.525L98.4542 155.96C98.073 154.863 97.5068 153.484 97.0712 152.594L97.485 152.333H94.4141V151.486L94.4032 151.476ZM98.7809 162.658C96.3524 162.658 95.9931 162.072 95.9931 160.281V156.839H94.6319V155.992H102.418V156.839H97.1474V160.183C97.1474 161.355 97.4305 161.583 99.1184 161.616C100.425 161.638 101.111 161.518 101.71 160.954L102.353 161.768C101.503 162.582 100.719 162.691 98.7918 162.658H98.7809ZM97.7354 150.694L96.6029 151.052C96.3198 149.749 95.8406 148.295 95.3724 146.937L95.9822 146.677C96.7554 147.98 97.289 149.337 97.7246 150.683L97.7354 150.694Z" fill="black"/>
<path d="M130.938 167.001C128.706 166.436 126.92 164.265 125.668 161.127C123.566 163.679 121.061 165.622 118.263 166.74L117.936 166.1C120.647 164.699 123.163 162.55 125.21 159.846C124.241 156.915 123.675 153.289 123.566 149.38V148.892H110.4V147.969H123.533C123.511 146.46 123.479 144.875 123.479 143.496H124.764C124.764 144.853 124.785 146.46 124.818 147.969H129.196C128.477 146.818 127.399 145.157 126.452 143.887L126.985 143.431C128.183 144.527 129.577 146.167 130.394 147.263L129.392 147.98H132.8V148.903H124.84V149.337C124.916 152.529 125.352 155.775 126.147 158.5C127.508 156.383 128.608 153.984 129.327 151.302L130.612 151.79C129.686 154.83 128.303 157.61 126.615 159.933C127.639 162.821 129.12 164.992 131.014 165.655C131.886 165.959 132.06 164.71 131.94 159.401H132.626C133.574 165.861 132.702 167.468 130.938 167.012V167.001ZM122.433 160.726C119.798 162.159 114.647 164.07 110.836 165.068L110.4 163.69C114.212 162.897 119.264 161.236 122.205 160.063L122.433 160.726ZM113.809 158.652V160.335H112.556V151.736H120.854V158.652H113.809ZM113.809 152.626V157.762H119.569V152.626H113.809Z" fill="black"/>
<path d="M139.824 146.102V164.808H149.745V166.1H138.278V146.102H139.824Z" fill="black"/>
<path d="M154.982 146.102V148.501H153.556V146.102H154.982ZM154.982 152.931V166.1H153.556V152.931H154.982Z" fill="black"/>
<path d="M162.028 152.93V155.221H162.083C163.183 153.528 164.631 152.67 166.428 152.67C167.92 152.67 169.118 153.148 170 154.103C170.882 155.058 171.339 156.383 171.339 158.066V166.1H169.934V158.598C169.934 155.558 168.736 154.049 166.352 154.049C164.598 154.049 163.161 154.993 162.028 156.872V166.1H160.624V152.93H162.028Z" fill="black"/>
<path d="M188.055 159.021H177.644C177.612 159.249 177.601 159.477 177.601 159.705C177.601 161.171 178.123 162.42 179.18 163.44C180.236 164.461 181.477 164.971 182.915 164.971C184.592 164.971 186.225 164.32 187.826 163.006V164.591C186.312 165.753 184.625 166.339 182.741 166.339C180.857 166.339 179.267 165.677 178.014 164.363C176.773 163.049 176.152 161.367 176.152 159.336C176.152 157.306 176.73 155.808 177.873 154.548C179.016 153.289 180.465 152.648 182.207 152.648C183.841 152.648 185.224 153.224 186.356 154.364C187.489 155.504 188.055 157.056 188.055 159.011V159.021ZM177.84 157.892H186.4C185.899 155.33 184.505 154.038 182.218 154.038C181.14 154.038 180.203 154.375 179.408 155.048C178.624 155.721 178.091 156.665 177.84 157.892Z" fill="black"/>
<path d="M207.242 151.291H209.039L206.6 162.788C206.48 163.288 206.426 163.646 206.426 163.863C206.426 164.297 206.654 164.504 207.123 164.504C208.266 164.504 209.497 163.722 210.792 162.148C212.088 160.574 212.731 158.608 212.731 156.242C212.731 153.603 211.914 151.41 210.281 149.651C208.647 147.893 206.262 147.013 203.148 147.013C200.033 147.013 197.224 148.088 195.122 150.238C193.031 152.387 191.975 155.134 191.975 158.478C191.975 161.822 193.02 164.46 195.1 166.512C197.191 168.564 199.914 169.585 203.279 169.585C207.482 169.585 210.694 168.097 212.927 165.123H214.386C213.308 166.947 211.773 168.336 209.791 169.313C207.809 170.28 205.631 170.768 203.246 170.768C199.522 170.768 196.505 169.628 194.207 167.359C191.91 165.09 190.755 162.115 190.755 158.446C190.755 154.776 191.877 151.899 194.109 149.478C196.342 147.057 199.413 145.852 203.3 145.852C206.633 145.852 209.235 146.85 211.108 148.848C212.981 150.846 213.918 153.321 213.918 156.252C213.918 158.934 213.112 161.192 211.511 163.049C209.91 164.895 208.244 165.817 206.513 165.817C205.359 165.817 204.781 165.285 204.781 164.211C204.781 163.928 204.825 163.592 204.901 163.223L204.847 163.168C203.377 164.938 201.754 165.817 199.99 165.817C198.574 165.817 197.387 165.242 196.44 164.102C195.492 162.962 195.024 161.518 195.024 159.781C195.024 157.447 195.743 155.384 197.191 153.614C198.64 151.845 200.371 150.954 202.407 150.954C204.444 150.954 205.816 151.877 206.698 153.712H206.752L207.221 151.313L207.242 151.291ZM200.534 164.417C202.026 164.417 203.322 163.516 204.422 161.703C205.522 159.89 206.066 158.076 206.066 156.242C206.066 155.069 205.718 154.103 205.021 153.332C204.324 152.572 203.453 152.192 202.386 152.192C200.763 152.192 199.434 153.017 198.4 154.657C197.376 156.296 196.854 158.033 196.854 159.857C196.854 161.171 197.202 162.267 197.899 163.125C198.596 163.983 199.478 164.417 200.523 164.417H200.534Z" fill="black"/>
<path d="M50.1689 202.058C47.893 203.589 43.9945 205.348 41.871 206.216L41.3047 204.913C42.2739 204.631 43.7331 204.121 45.2468 203.513V194.936H41.6096V194.045H45.2468V187.303H46.4773V194.045H49.8858V194.936H46.4773V203.002C47.6752 202.492 48.8295 201.96 49.7769 201.472L50.158 202.058H50.1689ZM54.013 205.956L55.1673 206.802C53.022 208.485 49.5591 210.146 46.902 210.939L46.6189 210.298C49.2106 209.278 52.3251 207.465 54.0239 205.956H54.013ZM55.6791 190.691H49.178V189.8H55.8098C55.9405 188.856 56.0385 187.89 56.1474 186.967L57.3997 187.119C57.3017 187.987 57.171 188.91 57.0186 189.8H63.7267V190.691H56.8879L56.4523 193.014H61.6467V204.631H64.4127V205.521H48.5137V204.631H51.1272V193.014H55.3524C55.4505 192.298 55.5811 191.505 55.69 190.691H55.6791ZM60.3944 193.904H52.3578V195.772H60.3944V193.904ZM60.3944 196.64H52.3578V198.627H60.3944V196.64ZM60.3944 199.496H52.3578V201.591H60.3944V199.496ZM60.3944 202.46H52.3578V204.631H60.3944V202.46ZM64.8483 209.614L63.9553 210.863C62.4199 209.658 59.349 207.725 57.3235 206.705L57.6611 206.064C59.7628 206.781 63.1604 208.442 64.8592 209.614H64.8483Z" fill="black"/>
<path d="M76.9032 201.591H89.9382C89.8075 204.88 89.5789 207.204 89.2522 208.898C88.9146 210.787 87.5643 211.449 82.849 209.788L83.0232 209.147C87.096 209.994 87.7929 209.788 88.0434 208.376C88.3048 207.074 88.5008 205.087 88.6097 202.503H76.0647C74.453 204.11 72.3295 205.434 69.9229 206.411L69.5962 205.803C72.8958 204.218 75.3569 202.079 76.6854 199.778H73.0482V193.014L74.257 193.426C75.8142 192.97 77.8942 192.178 78.9723 191.461L79.8652 192.406C78.4604 193.09 75.9994 193.763 74.3114 194.067V195.858H79.3316V196.705H74.3114V198.898H86.1704V196.705H81.3353V195.858H86.1704V193.763H81.074V192.916H87.4227V199.789H78.1555C77.7962 200.429 77.3824 201.037 76.925 201.602L76.9032 201.591ZM90.1887 190.05V194.718H88.9581V190.94H71.4692V194.718H70.2387V190.05H80.8344C79.5821 189.181 78.1664 188.335 76.9141 187.651L77.219 186.988C78.6782 187.499 80.6275 188.313 82.0323 189.214L81.4987 190.061H90.1778L90.1887 190.05ZM75.1826 204.218L75.7925 204.446C75.3569 206.335 74.3114 208.713 73.2551 210.038L72.1335 209.245C73.364 208.018 74.5401 205.923 75.1826 204.218ZM78.0575 204.251C78.5476 205.879 78.9831 208.007 79.1574 209.408L77.7962 209.538C77.7962 208.138 77.6219 206.064 77.4368 204.381L78.0466 204.251H78.0575ZM83.045 207.996L81.8689 208.528C81.4551 207.171 80.8671 205.488 80.2028 204.034L80.7908 203.697C81.7165 205.098 82.5332 206.704 83.045 207.986V207.996ZM86.4753 206.466L85.4299 207.204C84.8418 206.053 84.0251 204.674 83.1212 203.426L83.6331 202.991C84.7329 204.142 85.7348 205.336 86.4753 206.466Z" fill="black"/>
<path d="M102.189 204.067H107.286V204.99H102.189V210.885H100.937V204.99H95.9167V204.067H100.937V200.745H96.6137V199.822H99.4559C98.9441 198.649 98.0511 196.858 97.4631 195.816L97.9967 195.479C98.8679 196.445 100.066 198.215 100.665 199.388L99.8153 199.822H102.32C103.006 198.595 103.801 196.858 104.291 195.588L105.521 196.174C104.933 197.27 104.008 198.725 103.137 199.822H106.491V200.745H102.189V204.067ZM107.188 195.284H95.9712V194.361H100.882V191.527H96.7117V190.604H100.882V187.206H102.135V190.604H106.512V191.527H102.135V194.361H107.177V195.284H107.188ZM118.785 209.256L117.99 210.538C116.585 209.669 115.246 208.594 114.07 207.172C113.025 208.605 111.761 209.756 110.259 210.744L109.845 210.158C111.282 209.061 112.458 207.812 113.406 206.303C112.077 204.414 111.021 201.993 110.487 198.769H109.257V210.896H108.004V188.639H116.792C116.792 190.604 116.771 192.417 116.716 194.024C116.618 195.837 115.355 196.424 111.01 195.229L111.141 194.567C115.006 195.099 115.388 194.871 115.442 193.72C115.496 192.472 115.518 190.963 115.518 189.529H109.268V197.9H115.562L116.074 197.564L117.304 197.976C116.847 201.472 115.997 204.056 114.767 206.119C115.965 207.422 117.326 208.42 118.785 209.256ZM114.015 205.218C114.887 203.459 115.529 201.363 115.889 198.758H111.173C111.783 201.515 112.763 203.578 114.015 205.218Z" fill="black"/>
<path d="M128.891 187.402C128.531 189.312 127.998 191.353 127.301 193.329V210.82H126.092V196.239C125.297 197.9 124.372 199.431 123.25 200.712L122.716 200.278C124.818 197.314 126.713 192.113 127.584 187.108L128.891 187.412V187.402ZM129.555 191.31H130.677V207.595H129.555V191.31ZM144.071 202.97L145.204 203.687C142.645 207.367 136.906 210.201 131.276 210.755L131.145 210.092C136.829 209.202 141.828 206.238 144.082 202.97H144.071ZM145.944 197.998L145.487 199.301C142.873 198.693 140.575 197.716 138.648 196.293C137.004 197.694 134.782 198.921 131.831 199.735L131.581 199.073C134.172 198.258 136.263 197.086 137.853 195.631C136.568 194.513 135.501 193.177 134.651 191.571C133.965 192.895 133.116 194.1 132.223 195.045L131.711 194.665C133.17 192.721 134.455 189.844 135.087 187.108L136.339 187.445C136.132 188.205 135.849 188.998 135.523 189.79H144.692V190.68H142.361C141.795 192.396 140.88 194.079 139.388 195.577C141.207 196.728 143.352 197.466 145.944 197.998ZM132.223 206.141C136.034 205.218 139.574 202.873 141.566 200.343L142.645 201.081C140.085 204.251 136.034 206.141 132.397 206.77L132.223 206.13V206.141ZM132.735 202.742L132.528 202.156C135.294 201.342 137.701 199.702 139.062 198.041L140.085 198.725C138.267 200.788 135.479 202.145 132.735 202.731V202.742ZM138.517 194.958C139.693 193.677 140.565 192.222 141.076 190.669H135.109C135.087 190.745 135.033 190.821 135.011 190.897C135.98 192.613 137.134 193.905 138.517 194.958Z" fill="black"/>
<path d="M173.158 208.865L172.341 210.244C167.68 208.735 163.662 204.707 162.301 198.095H161.048C160.308 199.343 159.284 200.494 158.13 201.515V208.072C160.384 207.66 162.638 207.182 164.043 206.791L164.228 207.475C161.593 208.474 155.571 209.853 152.729 210.287L152.369 208.908C153.6 208.778 155.211 208.55 156.899 208.268V202.503C154.852 204.034 152.5 205.239 150.213 206.075L149.93 205.434C153.72 203.751 157.302 201.374 159.556 198.084H150.954V197.194H160.939V194.414H152.925V193.524H160.939V190.918H151.727V189.996H160.939V187.184H162.192V189.996H171.437V190.918H162.192V193.524H170.435V194.414H162.192V197.194H172.385V198.084H162.987C163.444 199.875 164.217 201.602 165.295 203.165C166.548 202.242 168.159 200.766 169.423 199.387L170.501 200.277C169.041 201.58 167.07 202.98 165.709 203.751C167.452 206.02 169.913 207.866 173.158 208.854V208.865Z" fill="black"/>
<path d="M188.077 206.184H177.219V205.261H188.077V202.992H180.65V194.697H196.81V202.992H189.362V205.261H200.219V206.184H189.362V210.678H188.077V206.184ZM179.321 188.161H187.358V192.808H179.321V188.161ZM186.182 191.939V189.008H180.497V191.939H186.182ZM188.077 198.356V195.598H181.902V198.356H188.077ZM188.077 202.101V199.246H181.902V202.101H188.077ZM195.525 198.356V195.598H189.351V198.356H195.525ZM195.525 202.101V199.246H189.351V202.101H195.525ZM190.048 188.161H198.16V192.808H190.048V188.161ZM196.963 191.939V189.008H191.224V191.939H196.963Z" fill="black"/>
<path d="M129.152 103.173H126.201V74.1522H123.925V73.2402H129.152V103.184V103.173Z" fill="#BB7430"/>
<path d="M119.918 62.2423C119.918 62.948 119.645 63.5234 119.112 63.9577C118.633 64.3485 118.056 64.544 117.402 64.544C116.564 64.544 115.823 64.2943 115.181 63.8057L115.453 63.3931C116.03 63.9468 116.683 64.2183 117.402 64.2183C117.936 64.2183 118.371 64.0554 118.709 63.7406C119.047 63.4257 119.21 62.9914 119.21 62.4377C119.21 61.4932 118.6 60.6789 117.37 60.0058C115.987 59.2349 115.333 58.3121 115.388 57.2156C115.42 56.6619 115.649 56.2167 116.095 55.8802C116.52 55.5545 117.043 55.3916 117.674 55.3916C117.947 55.4025 118.197 55.4459 118.426 55.511C118.992 55.6522 119.406 55.9127 119.667 56.271L119.341 56.5967C119.199 56.3904 118.992 56.195 118.742 56.0322C118.393 55.8042 118.034 55.6847 117.653 55.6847C117.217 55.6847 116.847 55.8042 116.542 56.0539C116.237 56.2927 116.074 56.6076 116.041 56.9876C115.987 57.7367 116.509 58.4315 117.62 59.0829C118.524 59.6041 119.145 60.1469 119.504 60.6898C119.787 61.124 119.929 61.6452 119.929 62.2315L119.918 62.2423Z" fill="#BB7430"/>
<path d="M126.56 55.7392H124.197V64.4573H123.315V55.7392H120.93V55.4678H126.56V55.7392Z" fill="#BB7430"/>
<path d="M132.223 64.4465H128.031V55.457H132.071V55.7285H128.902V59.3655H131.755V59.6369H128.902V64.1643H132.223V64.4357V64.4465Z" fill="#BB7430"/>
<path d="M139.868 57.8998C139.868 58.5838 139.574 59.1701 138.997 59.6478C138.409 60.1255 137.723 60.3535 136.917 60.3426C136.732 60.3426 136.59 60.3426 136.47 60.3426V60.0712H136.732C137.45 60.0712 138.017 59.8541 138.43 59.4198C138.812 59.0289 139.008 58.5187 139.008 57.889C139.008 56.4233 138.169 55.7067 136.492 55.7284H135.599V64.4574H134.739V55.4787C135.174 55.4787 135.839 55.4679 136.753 55.4679C138.844 55.457 139.879 56.2713 139.879 57.9107L139.868 57.8998Z" fill="#BB7430"/>
<defs>
<linearGradient id="paint0_linear_2163_702" x1="0" y1="144.505" x2="254.689" y2="144.505" gradientUnits="userSpaceOnUse">
<stop stop-color="white" stop-opacity="0"/>
<stop offset="0.03" stop-color="white" stop-opacity="0.05"/>
<stop offset="0.19" stop-color="white" stop-opacity="0.3"/>
<stop offset="0.34" stop-color="white" stop-opacity="0.51"/>
<stop offset="0.5" stop-color="white" stop-opacity="0.69"/>
<stop offset="0.64" stop-color="white" stop-opacity="0.82"/>
<stop offset="0.78" stop-color="white" stop-opacity="0.92"/>
<stop offset="0.9" stop-color="white" stop-opacity="0.98"/>
<stop offset="1" stop-color="white"/>
</linearGradient>
</defs>
</svg>
