<svg xmlns="http://www.w3.org/2000/svg" viewBox="0 0 255 289">
  <path d="M51.3,164.7v1h-22.1v-1h10.4v-4.7h-7.9v-1h7.9v-3.9h1.3v3.9h7.9v1h-7.9v4.7h10.4ZM38.4,145.9h-8.1v-1h19.9v1h-10.1c-1.3,2.7-3.3,5.4-5,7.4,3.9-.2,8.7-.6,11.6-1-1-1.4-2.1-2.7-2.9-3.6l.5-.5c2,1.7,4.8,4.8,6.3,6.9l-1.3.9c-.5-.8-1.2-1.9-2-3-3.9.9-11.6,1.8-15.6,2l-.4-1.5c.8,0,1.8,0,2.9,0,1.6-2.1,3.3-5,4.3-7.4ZM77.9,147v5.3h-1.3v-4.4h-18.5v4.4h-1.3v-5.3h11.1c-1.2-1-2.9-2.5-4.1-3.2l.3-.6c1.5.6,3.5,1.9,4.9,2.9l-.7.9h9.5ZM62.2,159.2h13v7.8h-1.3v-1.9h-11.8v2.1h-1.3v-16.7h12.8v5.6h-11.5v3ZM62.2,155.3h10.2v-3.8h-10.2v3.8ZM62.2,160.2v4.1h11.8v-4.1h-11.8ZM84.8,159.6h.6c0,2.7-.5,5.1-1.3,7l-1.4-.6c1-1.7,1.6-3.8,2-6.4ZM89.6,153.8c.9,1.4,1.8,3.3,2.3,4.7l-1.2.5c-.2-.6-.4-1.2-.6-1.9-2.4.7-4.8,1.2-6.6,1.5l-.4-1.4h1.5c1.2-1.6,2.3-3.5,3.4-5.5-1.5.4-3.1.6-4.4.8l-.3-1.4h1.1c1-2.2,2.2-5.1,2.9-7.6l1.4.4c-.9,2.5-2.4,5.4-3.5,7.1,1.1,0,2.1,0,3.2-.2.6-1.1,1.1-2.3,1.6-3.5l1.2.5c-1.7,3.6-3.8,6.9-5.7,9.1,1.4-.1,2.9-.3,4.3-.6-.3-.8-.6-1.6-.9-2.3l.6-.3h0ZM87.3,159.3c.5,1.9,1,4.6,1.2,6.4l-1.4.2c0-1.7-.3-4.4-.5-6.4h.7c0-.1,0-.1,0-.1ZM89.3,158.8c.9,1.6,1.9,3.9,2.4,5.5l-1.3.4c-.4-1.6-1.2-4-1.7-5.6l.6-.3h0ZM104.7,144.9v20.2c0,1.7-1.2,2.7-6.1,1.2l.2-.6c4.2.6,4.7.3,4.7-.9v-18.9h-9.8v21.3h-1.2v-22.3h12.3ZM94.4,151.5h4.5c.6-1.5,1.2-3.4,1.5-4.9l1.2.4c-.6,1.5-1.2,3-2,4.5h2.9v.8h-4.8c.7.9,1.4,2.2,1.8,3.2l-1.1.4c-.4-1.1-.9-2.5-1.4-3.4l.4-.3h-3.1v-.8h0ZM98.8,162.7c-2.4,0-2.8-.6-2.8-2.4v-3.4h-1.4v-.8h7.8v.8h-5.3v3.3c0,1.2.3,1.4,2,1.4,1.3,0,2,0,2.6-.7l.6.8c-.8.8-1.6.9-3.6.9ZM97.7,150.7l-1.1.4c-.3-1.3-.8-2.8-1.2-4.1l.6-.3c.8,1.3,1.3,2.7,1.7,4h0ZM130.9,167c-2.2-.6-4-2.7-5.3-5.9-2.1,2.6-4.6,4.5-7.4,5.6l-.3-.6c2.7-1.4,5.2-3.6,7.3-6.3-1-3-1.6-7-1.6-11h-13.2v-.9h13.1c0-1.5,0-3.1,0-4.5h1.3c0,1.4,0,3,0,4.5h4.4c-.7-1.2-1.8-2.8-2.7-4.1l.5-.5c1.2,1.1,2.6,2.7,3.4,3.8l-1,.7h3.4v.9h-8c0,3.3.5,6.8,1.3,9.6,1.4-2.1,2.5-4.5,3.2-7.2l1.3.5c-.9,3-2.3,5.8-4,8.1,1,2.9,2.5,5.1,4.4,5.7.9.3,1-.9.9-6.3h.7c.9,6.5,0,8.1-1.7,7.6h0ZM122.4,160.7c-2.6,1.4-7.8,3.3-11.6,4.3l-.4-1.4c3.8-.8,8.9-2.5,11.8-3.6l.2.7ZM113.8,158.7v1.7h-1.3v-8.6h8.3v6.9h-7ZM113.8,152.6v5.1h5.8v-5.1h-5.8ZM139.8,146.1v18.7h9.9v1.3h-11.5v-20h1.5ZM155,146.1v2.4h-1.4v-2.4h1.4ZM155,152.9v13.2h-1.4v-13.2h1.4ZM162,152.9v2.3h0c1.7-2.9,5.8-3.4,7.9-1.1,2.2,2,1.1,9.3,1.3,12h-1.4v-7.5c.3-5.6-5.7-5.9-7.9-1.7v9.2h-1.4v-13.2h1.4ZM188.1,159h-10.4c-.7,5.7,6.4,7.8,10.2,4v1.6c-7.1,5.7-15.5-3.2-10-10,3.6-4.1,10.6-1.1,10.2,4.5ZM177.8,157.9h8.6c-.6-5.3-7.9-4.9-8.6,0ZM207.2,151.3h1.8l-2.4,11.5c-.9,3.2,2.8,1.4,4.2-.6,7.4-10.9-6.6-20.5-15.7-11.9-4.1,3.9-4.3,12.4,0,16.3,4.4,4.6,14.3,3.9,17.8-1.4h1.5c-3.8,6.6-15.1,7.5-20.2,2.2-4.6-4.3-4.5-13.5,0-17.9,6.2-6.9,20.4-3.8,19.8,6.8.9,7-9.9,13.5-9,7h0c-3.5,4.8-10.1,2.3-9.8-3.4-.7-6,8-12.8,11.7-6.1h0l.5-2.4h0ZM200.5,164.4c5-.1,8.5-11.8,1.9-12.2-5.5-.1-8.3,11.6-1.9,12.2ZM50.2,202.1c-2.3,1.5-6.2,3.3-8.3,4.2l-.6-1.3c1-.3,2.4-.8,3.9-1.4v-8.6h-3.6v-.9h3.6v-6.7h1.2v6.7h3.4v.9h-3.4v8.1c1.2-.5,2.4-1,3.3-1.5l.4.6h0ZM54,206l1.2.8c-2.1,1.7-5.6,3.3-8.3,4.1l-.3-.6c2.6-1,5.7-2.8,7.4-4.3h0ZM55.7,190.7h-6.5v-.9h6.6c.1-.9.2-1.9.3-2.8l1.3.2c0,.9-.2,1.8-.4,2.7h6.7v.9h-6.8l-.4,2.3h5.2v11.6h2.8v.9h-15.9v-.9h2.6v-11.6h4.2c0-.7.2-1.5.3-2.3h0ZM60.4,193.9h-8v1.9h8v-1.9ZM60.4,196.6h-8v2h8v-2ZM60.4,199.5h-8v2.1h8v-2.1ZM60.4,202.5h-8v2.2h8v-2.2ZM64.8,209.6l-.9,1.2c-1.5-1.2-4.6-3.1-6.6-4.2l.3-.6c2.1.7,5.5,2.4,7.2,3.6h0ZM76.9,201.6h13c-.9,6,1.6,11.3-7.1,8.2l.2-.6c4.1.8,4.8.6,5-.8.3-1.3.5-3.3.6-5.9h-12.5c-1.6,1.6-3.7,2.9-6.1,3.9l-.3-.6c3.3-1.6,5.8-3.7,7.1-6h-3.6v-6.8l1.2.4c1.6-.5,3.6-1.2,4.7-2l.9.9c-1.4.7-3.9,1.4-5.6,1.7v1.8h5v.8h-5v2.2h11.9v-2.2h-4.8v-.8h4.8v-2.1h-5.1v-.8h6.3v6.9h-9.3c-.4.6-.8,1.2-1.2,1.8h0ZM90.2,190.1v4.7h-1.2v-3.8h-17.5v3.8h-1.2v-4.7h10.6c-1.3-.9-2.7-1.7-3.9-2.4l.3-.7c1.5.5,3.4,1.3,4.8,2.2l-.5.8h8.7ZM75.2,204.2l.6.2c-.4,1.9-1.5,4.3-2.5,5.6l-1.1-.8c1.2-1.2,2.4-3.3,3-5ZM78.1,204.3c.5,1.6.9,3.8,1.1,5.2h-1.4c0-1.3-.2-3.3-.4-5,0,0,.6-.1.6-.1ZM83,208l-1.2.5c-.4-1.4-1-3-1.7-4.5l.6-.3c.9,1.4,1.8,3,2.3,4.3ZM86.5,206.5l-1,.7c-.6-1.2-1.4-2.5-2.3-3.8l.5-.4c1.1,1.2,2.1,2.3,2.8,3.5ZM102.2,204.1h5.1v.9h-5.1v5.9h-1.3v-5.9h-5v-.9h5v-3.3h-4.3v-.9h2.8c-.5-1.2-1.4-3-2-4l.5-.3c.9,1,2.1,2.7,2.7,3.9l-.8.4h2.5c.7-1.2,1.5-3,2-4.2l1.2.6c-.6,1.1-1.5,2.6-2.4,3.6h3.4v.9h-4.3v3.3ZM107.2,195.3h-11.2v-.9h4.9v-2.8h-4.2v-.9h4.2v-3.4h1.3v3.4h4.4v.9h-4.4v2.8h5v.9h0ZM118.8,209.3l-.8,1.3c-1.4-.9-2.7-1.9-3.9-3.4-1,1.4-2.3,2.6-3.8,3.6l-.4-.6c1.4-1.1,2.6-2.3,3.6-3.9-1.3-1.9-2.4-4.3-2.9-7.5h-1.2v12.1h-1.3v-22.3h8.8c-.4,4.5,2,8.9-5.8,6.6v-.7c4,.5,4.4.3,4.4-.8,0-1.2,0-2.8,0-4.2h-6.2v8.4h6.3l.5-.3,1.2.4c-.5,3.5-1.3,6.1-2.5,8.1,1.2,1.3,2.6,2.3,4,3.1ZM114,205.2c.9-1.8,1.5-3.9,1.9-6.5h-4.7c.6,2.8,1.6,4.8,2.8,6.5ZM128.9,187.4c-.4,1.9-.9,4-1.6,5.9v17.5h-1.2v-14.6c-.8,1.7-1.7,3.2-2.8,4.5l-.5-.4c2.1-3,4-8.2,4.9-13.2l1.3.3h0ZM129.6,191.3h1.1v16.3h-1.1v-16.3ZM144.1,203l1.1.7c-2.6,3.7-8.3,6.5-13.9,7.1v-.7c5.6-.9,10.6-3.9,12.8-7.1h0ZM145.9,198l-.5,1.3c-2.6-.6-4.9-1.6-6.8-3-1.6,1.4-3.9,2.6-6.8,3.4l-.2-.7c2.6-.8,4.7-2,6.3-3.4-1.3-1.1-2.4-2.5-3.2-4.1-.7,1.3-1.5,2.5-2.4,3.5l-.5-.4c1.5-1.9,2.7-4.8,3.4-7.6l1.3.3c-.2.8-.5,1.6-.8,2.3h9.2v.9h-2.3c-.6,1.7-1.5,3.4-3,4.9,1.8,1.2,4,1.9,6.6,2.4ZM132.2,206.1c3.8-.9,7.4-3.3,9.3-5.8l1.1.7c-2.6,3.2-6.6,5.1-10.2,5.7l-.2-.6h0ZM132.7,202.7l-.2-.6c2.8-.8,5.2-2.5,6.5-4.1l1,.7c-1.8,2.1-4.6,3.4-7.4,4h0ZM138.5,195c1.2-1.3,2-2.7,2.6-4.3h-6c0,0,0,.2,0,.2,1,1.7,2.1,3,3.5,4.1ZM173.2,208.9l-.8,1.4c-4.7-1.5-8.7-5.5-10-12.1h-1.3c-.7,1.2-1.8,2.4-2.9,3.4v6.6c2.3-.4,4.5-.9,5.9-1.3l.2.7c-2.6,1-8.7,2.4-11.5,2.8l-.4-1.4c1.2-.1,2.8-.4,4.5-.6v-5.8c-2,1.5-4.4,2.7-6.7,3.6l-.3-.6c3.8-1.7,7.4-4.1,9.6-7.4h-8.6v-.9h10v-2.8h-8v-.9h8v-2.6h-9.2v-.9h9.2v-2.8h1.3v2.8h9.2v.9h-9.2v2.6h8.2v.9h-8.2v2.8h10.2v.9h-9.4c.5,1.8,1.2,3.5,2.3,5.1,1.3-.9,2.9-2.4,4.1-3.8l1.1.9c-1.5,1.3-3.4,2.7-4.8,3.5,1.7,2.3,4.2,4.1,7.4,5.1h0ZM188.1,206.2h-10.9v-.9h10.9v-2.3h-7.4v-8.3h16.2v8.3h-7.4v2.3h10.9v.9h-10.9v4.5h-1.3v-4.5ZM179.3,188.2h8v4.6h-8v-4.6ZM186.2,191.9v-2.9h-5.7v2.9h5.7ZM188.1,198.4v-2.8h-6.2v2.8h6.2ZM188.1,202.1v-2.9h-6.2v2.9h6.2ZM195.5,198.4v-2.8h-6.2v2.8h6.2ZM195.5,202.1v-2.9h-6.2v2.9h6.2ZM190,188.2h8.1v4.6h-8.1v-4.6ZM197,191.9v-2.9h-5.7v2.9h5.7Z"/>
  <path  fill="#bb7430" d="M129.2,103.2h-3v-29h-2.3v-.9h5.2v29.9h0ZM119.9,62.2c0,2.4-3.2,2.9-4.7,1.6l.3-.4c3,2.6,5.7-1.6,1.9-3.4-4.3-2.2-.7-6.5,2.3-3.7l-.3.3c-.8-1.2-3.1-1.3-3.3.4,0,2.1,4.3,2.8,3.9,5.2h0ZM126.6,55.7h-2.4v8.7h-.9v-8.7h-2.4v-.3h5.6v.3ZM132.2,64.4h-4.2v-9h4v.3h-3.2v3.6h2.9v.3h-2.9v4.5h3.3v.3ZM139.9,57.9c0,1.7-1.9,2.6-3.4,2.4v-.3c3.2.4,3.5-4.7,0-4.3,0,0-.9,0-.9,0v8.7h-.9v-9c1.9-.1,5.4-.2,5.1,2.4h0Z"/>
</svg>