<svg xmlns="http://www.w3.org/2000/svg" viewBox="0 0 255 289">
  <path d="M36.5,149.1h8.8v-5.7h1.3v5.7h8.7v17.9h-1.3v-2.6h-16.3v2.7h-1.3v-18ZM45.2,156v-6h-7.5v6h7.5ZM45.2,163.5v-6.6h-7.5v6.6h7.5ZM54,156v-6h-7.4v6h7.4ZM54,163.5v-6.6h-7.4v6.6h7.4ZM83.6,157.1v.9h-16.6v1.1h-1.3v-9.4c-1.2,1.5-2.4,2.9-3.7,3.9l-.5-.5c2.4-2.4,4.6-5.7,6.3-9.9l1.3.6c-.5,1.2-1.1,2.4-1.9,3.6h7.6c-.8-1.1-2.1-2.7-3.1-3.7l.4-.5c1.2.9,3,2.4,4,3.4l-.8.8h8v.9h-8.3v2.2h6.7v.9h-6.7v2.3h6.8v.9h-6.8v2.4h8.6,0ZM65.3,160.1h16.2v6.9h-1.3v-1.4h-13.7v1.6h-1.3v-7.1h0ZM66.6,161.1v3.7h13.7v-3.7h-13.7ZM73.8,148.3h-6.7v2.2h6.7v-2.2ZM73.8,151.5h-6.7v2.3h6.7v-2.3ZM67,157.1h6.7v-2.4h-6.7v2.4ZM90.9,144.5h6.8v20.3c0,2.1-1.4,2.9-5.7,1.4l.2-.6c3.8.6,4.3.4,4.3-1v-7.2h-4.4c-.1,4.6-.7,7.5-2.9,9.9l-.5-.4c2.2-3.3,2.2-6.6,2.2-13.8v-8.5ZM96.5,156.5v-5.2h-4.4v1.4c0,1.4,0,2.7,0,3.8h4.4ZM92.1,145.4v5h4.4v-5h-4.4ZM111.7,165.7l-.9,1.3c-1.2-.8-2.6-1.9-3.9-3.6-1.3,1.6-2.8,2.9-4.6,3.8l-.3-.6c1.6-.9,3-2.3,4.2-4.1-1.3-1.8-2.3-4.3-3-7.6h-1.8v12.4h-1.3v-22.6h9.6c0,2.4,0,4.2-.2,5.5-.2,1.9-1.5,2.5-5.9.9l.2-.7c3.9.8,4.3.5,4.4-.5,0-1.1.2-2.7.2-4.4h-7v8.5h7.4l.5-.4,1.3.5c-.5,3.2-1.5,6-3,8.2,1.4,1.6,2.8,2.6,4.1,3.3h0ZM106.8,161.4c1.2-1.9,2-4.2,2.3-6.6h-5.1c.6,2.8,1.7,5,2.9,6.6ZM126.7,162.5h-10.9v-.9h10.9v-2.3h-7.4v-8.3h16.2v8.3h-7.4v2.3h10.9v.9h-10.9v4.5h-1.3v-4.5ZM117.9,144.5h8v4.6h-8v-4.6ZM124.8,148.3v-2.9h-5.7v2.9h5.7ZM126.7,154.7v-2.8h-6.2v2.8h6.2ZM126.7,158.4v-2.9h-6.2v2.9h6.2ZM134.2,154.7v-2.8h-6.2v2.8h6.2ZM134.2,158.4v-2.9h-6.2v2.9h6.2ZM128.7,144.5h8.1v4.6h-8.1v-4.6ZM135.6,148.3v-2.9h-5.7v2.9h5.7ZM148.3,149.5v17.8h-1.3v-15.3c-1.1,2-2.4,3.7-3.7,5l-.5-.5c2.5-3.2,5-8.1,6.1-13.2l1.4.4c-.6,2.1-1.2,4-2,5.7ZM165.9,164.8v.9h-16.3v-.9h9.2c.7-2.6,2-8.2,2.5-12.9l1.5.3c-.7,4.8-2.1,9.7-3.3,12.6h6.3ZM165.2,150.4h-15.1v-.9h15.1v.9ZM152,152.3l.7-.2c1.5,3.6,2.6,8.1,2.9,10.8l-1.5.2c-.3-3-1.2-7.4-2.1-10.8ZM157.5,149.1c-.5-1.5-1.7-3.9-2.4-5.5l.6-.4c1.2,1.4,2.4,3.6,3.1,5.1l-1.3.7h0ZM172.4,159.4h.7c-.2,2.7-.8,5.5-1.5,7.2l-1.3-.6c.9-1.9,1.7-4.1,2.1-6.6ZM177.8,153.1c.9,1.2,2.1,3.1,2.8,4.6l-1.2.6c-.2-.6-.5-1.3-.8-2-2.2.8-5.9,1.7-7.8,2l-.3-1.4c.4,0,.9,0,1.5-.2,1-1.2,2.5-3.1,3.8-5.3-1.6.4-3.6.8-4.8.9l-.3-1.3c.4,0,.9,0,1.4,0,.9-2,2-5.1,2.8-7.7l1.3.4c-.9,2.4-2.2,5.5-3.3,7.3,1.2,0,2.5-.2,3.5-.3.7-1.1,1.3-2.3,1.9-3.6l1.2.7c-1.7,3.3-4.4,6.8-6.3,8.8,1.8-.3,3.8-.6,5.2-.9-.4-.8-.8-1.6-1.1-2.2l.5-.4h0ZM175.2,158.9c.5,1.6,1.4,4.7,1.6,6.2l-1.4.3c-.2-1.7-.6-4.6-.9-6.3l.7-.2h0ZM177.5,158.2c.8,1.1,2.2,3.8,2.8,5.2l-1.3.6c-.5-1.5-1.6-4.3-2.1-5.5l.5-.3h0ZM190.5,166.2c-1.9.1-4.2.1-6.1,0-2.5-.2-3.1-.5-3.1-3.1v-10.7h8.5v-7h-9.6v-.9h10.9v11.3h-1.3v-2.6h-7.3v9.9c0,1.5.5,1.7,2,1.8,1.7.1,4,0,5.8,0,1.6-.1,1.7-.4,1.7-5.4h.7c.7,5.6.6,6.4-2.2,6.6h0ZM206.4,163l.2.7c-2.2.9-6.2,2.1-8.8,2.5l-.3-1.4c1.2-.1,2.7-.4,4.2-.7v-8.6h-3.9v-.9h3.9v-3h-2.8v-.7c-.5.5-1,1-1.5,1.4l-.4-.5c2.1-2.1,4.1-5.6,5.2-8.5l1.3.5c-.1.3-.2.7-.4,1,1.3,1,3.3,3,4.2,4.1l-1,.8c-.8-1.1-2.5-3.1-3.5-4.3-.9,1.8-2.2,3.7-3.6,5.3h6.8v.9h-2.9v3.1h3.7v.9h-3.7v8.3c1.3-.3,2.6-.6,3.5-.9h0ZM200.5,162.2l-1.2.2c-.2-1.6-.6-3.9-1-5.4l.6-.2c.6,1.5,1.3,3.8,1.6,5.3h0ZM203.9,161.9c.5-1.4,1.1-3.8,1.3-5.3l1.2.4c-.4,1.5-1.2,3.9-1.9,5.1l-.6-.2h0ZM218.9,163.7c-1.5-1.5-3.8-3.3-5.5-4.6v5.8c0,1.9-.8,2.9-5.9,1.3l.2-.6c3.9.5,4.5.3,4.5-1v-5.4c-1.4,1.3-3.5,2.8-5.3,3.7l-.6-1.2c1.9-.8,4.1-2.1,5.9-3.4v-4.9h-6.1v-.9h7.9c.2-.7.4-1.4.5-2.1h-5.4c-.2.5-.3.9-.5,1.3l-1.1-.2c.8-2.3,1.7-5.3,2.3-7.9l1.2.2c-.1.5-.3,1.1-.4,1.7h4.6l.4-.3,1.2.5c-.4,2.2-1,4.7-1.6,6.9h4.4v.9h-6.1v4.9c.2,0,.5.3.7.4,1.2-1.1,2.5-2.7,3.4-4.1l1.1.8c-1,1.2-2.6,2.7-3.9,3.6,1.8,1,3.8,2.4,5.1,3.5l-.9,1.2h0ZM210.7,158l-1,.7c-.7-1.3-1.7-2.9-2.5-4l.5-.5c1,1,2.4,2.6,3.1,3.7h0ZM214.8,149.4c.3-1.2.5-2.3.6-3.1h-5c-.3,1-.6,2.1-.9,3.1h5.3ZM57.3,208.6v1h-22.7v-1h8v-14.9h-7.2v-.9h7.1c-.8-1.6-2.4-4-3.3-5.3l.5-.5c1.3,1.2,3.2,3.6,4.2,5.2l-.8.5h4.4c1-1.5,2.2-4.1,2.9-5.8l1.4.6c-.9,1.7-2.3,3.8-3.4,5.2h7.9v.9h-7.3v14.9h8.2ZM40.6,204.7l-1.5.4c-.5-2.6-1.5-6.3-2.4-8.8l.6-.3c1.3,2.5,2.6,6,3.3,8.8ZM47.9,193.7h-3.9v14.9h3.9v-14.9ZM50.3,204.9c1.2-2.3,2.6-5.9,3.4-8.7l1.4.6c-1,2.8-2.8,6.4-4.2,8.5l-.6-.4ZM71.1,198.6c-.9.5-2.4,1.2-3.9,1.9v8.3c0,1.6-1.3,2.4-5.2,1.2v-.6c3.5.5,4,.3,4-1.1v-7.3c-1.5.6-3,1.2-4.1,1.5l-.5-1.4c1.3-.3,2.9-.8,4.6-1.3v-5.8h-4.1v-.9h4.1v-6h1.3v6h3.5v.9h-3.5v5.3c1.4-.5,2.7-1,3.6-1.4l.3.6h0ZM81.2,197.3c-1.7.1-4.6.2-6.4,0-2.5-.2-3.1-.6-3.1-2.8v-7.3h1.3v4.8c2.6-.8,6.2-2.5,8.2-4l1.1,1c-2.4,1.5-6.5,3-9.3,3.6v1.6c0,1.4.3,1.6,2,1.8,1.5.1,4.2.1,5.9,0,1.6-.1,1.8-.4,1.7-4.4h.7c.6,4.5.3,5.4-2.1,5.6ZM71.9,199.5h11.2v11.2h-1.3v-1.7h-8.7v1.8h-1.3v-11.3ZM73.1,203.7h8.7v-3.3h-8.7v3.3ZM73.1,208h8.7v-3.4h-8.7v3.4ZM92.7,197.8c-1-1.2-2.9-3.2-4-4.2l.4-.6c1.3.8,3.5,2.6,4.6,3.6l-1,1.1h0ZM93.9,199.6c-.6,3.4-1.9,8.1-2.7,10.5l-1.4-.6c1.2-2.6,2.6-7,3.5-10.2l.7.2ZM94,192c-.9-1.2-2.6-3-3.8-4.2l.4-.5c1.4.9,3.3,2.5,4.5,3.8l-1.1,1h0ZM97.8,196.1c0,6.3-.6,11.3-3.5,14.7l-.5-.4c2.2-3.2,2.7-7.6,2.7-14.2v-6.7l1.2.4c3.8-.5,8.1-1.7,10.5-2.8l1.2,1.1c-2.4,1-8.2,2.2-11.7,2.5v5.5ZM101.8,194.7v12.8c1.7-.4,3.4-.8,4.5-1.1l.2.7c-2.1.9-6.6,2.2-8.5,2.5l-.4-1.4c.7,0,1.8-.2,2.9-.4v-14l1.2.4c2.4-.5,5.6-1.7,7.4-2.8l1.1,1c-1,.5-2.7,1.1-4.4,1.6.2,2.5.5,4.7.9,6.6.9-1,2.2-2.4,3.1-3.9l1.1.9c-1.2,1.4-2.9,2.9-4,3.8.8,3.2,2.1,5.8,4.2,8l-1.1,1.1c-3.4-3.9-4.6-9.1-4.9-16.4-1.2.3-2.3.6-3.3.7ZM138.9,203.8v.9h-5.6v4.1c0,1.9-1.5,2.5-6,1.2l.2-.7c4.2.6,4.6.4,4.6-.9v-3.7h-16.1v-.9h16.1v-2.1h1.3v2.1h5.6ZM126.7,190.3h-10v-.9h10v-2.2h1.3v2.2h9.9v.9h-9.9v1.8h7.5v6.3h-7.5v2.3c2.7,0,5.2-.2,6.9-.4-.4-.5-.8-1-1.2-1.4l.5-.5c1.2.9,2.5,2.1,3.5,3.4l-1,.8c-.3-.4-.8-1-1.3-1.7-4.4.7-14.2,1.2-18.4,1l-.2-1.2c2.7,0,6.3,0,9.8,0v-2.4h-7.4v-6.3h7.4v-1.8h0ZM120.5,194.8h6.2v-1.8h-6.2v1.8ZM126.7,197.5v-1.9h-6.2v1.9h6.2ZM121.6,205.1c1.4.7,3.2,1.9,4.4,3l-.9,1c-.9-1-2.7-2.5-3.9-3.4l.4-.6ZM128,194.8h6.3v-1.8h-6.3v1.8ZM128,197.5h6.3v-1.9h-6.3v1.9ZM151.8,206.2l1.3.8c-2.6,1.7-6.6,3.2-9.7,3.9l-.2-.7c3.1-.9,6.2-2.4,8.5-4.1h0ZM162.8,205.7h-16.5v-10.5h16.5v10.5ZM147.5,196.1v2.1h14v-2.1h-14ZM147.5,199.1v2.3h14v-2.3h-14ZM161.5,204.7v-2.5h-14v2.5h14ZM161.4,193.1h-13.8v-4.9h13.8v4.9ZM160.2,189.1h-11.2v3.1h11.2v-3.1ZM165.9,209.5l-.7,1.4c-2.3-1.3-6-3-8.7-4l.3-.6c2.9.7,6.7,2,9.2,3.2h0ZM170.5,210.6l-.5-.4c2.5-3.6,2.3-8.9,2.3-13.2v-6.1l1.2.5h7.1v-4.4h1.3v1.8h7.8v.9h-7.8v1.7h8.5l.5-.3,1.4.8c-.7,1.3-1.5,2.6-2.5,3.5l-.6-.4c.5-.8,1-2,1.3-2.8h-17.1v4.4c0,4.6.1,10.2-3,13.9h0ZM193.1,208.8l-.4,1.5c-1.8.1-5,.1-7.1,0-2.9-.2-5.1-1.3-6.7-3-1.5,1.5-3.5,2.7-6.3,3.6l-.2-.6c2.5-.9,4.5-2.1,5.9-3.7-.8-1.1-1.4-2.3-1.8-3.7-.6,1.3-1.3,2.5-2.1,3.4l-.5-.4c1.4-2,2.4-5,2.9-7.9l1.2.2c-.2.8-.4,1.6-.6,2.5h3.3l.4-.3,1.2.6c-.5,2.2-1.3,4.2-2.7,5.8,1.5,1.5,3.5,2.3,5.9,2.4,1.7,0,5.2,0,7.7-.2h0ZM179.5,196.2v-.4c-1.6.1-3.2.3-4.6.4v-.8c1.3,0,3-.2,4.6-.4v-2.1h1.2v2c2.6-.3,5.3-.5,7.4-.8v.9c-2,.3-4.8.5-7.5.8v.3c0,1.2.3,1.5,1.3,1.6,1.8.1,3.7.2,5.6,0,.9,0,1.4-.3,2-.7l.7.9c-.5.5-1.4.9-2.6,1-2.1.1-3.9.1-5.7,0-2.1-.1-2.5-.8-2.5-2.5h0ZM178.8,205.8c1-1.3,1.6-2.8,2-4.5h-3.8c0,.2-.1.3-.2.5.5,1.6,1.2,2.9,2,4ZM187.6,205.4v-4.4h-3v1.3c0,2.1-.5,4-2.9,5.4l-.4-.5c1.8-1.4,2.1-2.9,2.1-4.9v-2h5.3v4.6c0,1.1.1,1.3,1.4,1.3s1-.5,1-3.3h.6c.5,3.6.5,4.4-1.7,4.4s-2.5-.3-2.5-1.8h0ZM206.5,202.6c-2.4,1.8-6.3,3.8-8.8,4.7l-.6-1.3c1.2-.4,2.6-1,4.1-1.6v-7.5h-3.4v-.9h3.4v-6.1h-3.7v-.9h8.6v.9h-3.6v6.1h3.3v.9h-3.3v6.9c1.4-.6,2.7-1.3,3.7-1.9l.4.6h0ZM220.4,208.9v.9h-15.9v-.9h7.7v-4.4h-5.6v-.9h5.6v-4h-4v1.7h-1.3v-12.9h11.9v12.8h-1.3v-1.6h-4.1v4h5.6v.9h-5.6v4.4h6.9ZM212.2,189.3h-4.1v4.2h4.1v-4.2ZM212.2,194.3h-4.1v4.4h4.1v-4.4ZM213.5,193.5h4.1v-4.2h-4.1v4.2ZM213.5,198.7h4.1v-4.4h-4.1v4.4Z"/>
  <path fill="#bb7430" d="M128.3,103.2h-17.9c3.6-3.1,6.7-6.9,9.4-11.5,2.6-4.6,3.9-8.6,3.9-11.9s-1.8-6.1-5.2-6.1-4.3,1-6.1,3l-.8-1.1c1.9-1.9,4.2-2.9,6.9-2.9s4.9.6,6.4,1.9c1.4,1.2,2.1,2.8,2.1,5s-1.1,5.4-3.4,9.2c-2.4,4.1-5.5,8.2-9.3,12.1h14.1v2.2h0ZM111.8,62.2c0,.7-.3,1.3-.8,1.7-.5.4-1.1.6-1.7.6s-1.6-.2-2.2-.7l.3-.4c.6.6,1.2.8,2,.8s1-.2,1.3-.5c.3-.3.5-.7.5-1.3,0-.9-.6-1.8-1.8-2.4-1.4-.8-2-1.7-2-2.8,0-.6.3-1,.7-1.3.4-.3.9-.5,1.6-.5.3,0,.5,0,.8.1.6.1,1,.4,1.2.8l-.3.3c-.1-.2-.3-.4-.6-.6-.3-.2-.7-.3-1.1-.3s-.8.1-1.1.4c-.3.2-.5.6-.5.9,0,.7.5,1.4,1.6,2.1.9.5,1.5,1.1,1.9,1.6.3.4.4,1,.4,1.5h0ZM118.4,55.7h-2.4v8.7h-.9v-8.7h-2.4v-.3h5.6v.3ZM124.1,64.4h-4.2v-9h4v.3h-3.2v3.6h2.9v.3h-2.9v4.5h3.3v.3h0ZM131.7,57.9c0,.7-.3,1.3-.9,1.7-.6.5-1.3.7-2.1.7h-.4v-.3h.3c.7,0,1.3-.2,1.7-.7.4-.4.6-.9.6-1.5,0-1.5-.8-2.2-2.5-2.2h-.9v8.7h-.9v-9c.4,0,1.1,0,2,0,2.1,0,3.1.8,3.1,2.4h0Z"/>
</svg>