<svg width="255" height="289" viewBox="0 0 255 289" fill="none" xmlns="http://www.w3.org/2000/svg">
<path d="M254.689 0H0V289H254.689V0Z" fill="url(#paint0_linear_2163_703)"/>
<path d="M36.4915 149.13H45.2468V143.463H46.5754V149.13H55.2545V167.001H54.0022V164.417H37.7438V167.098H36.4915V149.13ZM45.2468 156.046V150.02H37.7438V156.046H45.2468ZM45.2468 163.505V156.947H37.7438V163.505H45.2468ZM54.0022 156.046V150.02H46.5754V156.046H54.0022ZM54.0022 163.505V156.947H46.5754V163.505H54.0022Z" fill="black"/>
<path d="M83.6438 157.099V157.989H67.0261V159.108H65.7738V149.738C64.6195 151.269 63.3671 152.648 62.1148 153.647L61.6575 153.115C64.0097 150.737 66.2638 147.393 67.9626 143.213L69.2912 143.778C68.8338 144.929 68.1586 146.177 67.3963 147.404H74.9538C74.1589 146.286 72.8303 144.722 71.8067 143.702L72.2205 143.191C73.451 144.06 75.2696 145.569 76.1844 146.633L75.335 147.404H83.3716V148.327H75.0301V150.574H81.7599V151.497H75.0301V153.766H81.8144V154.689H75.0301V157.11H83.6547L83.6438 157.099ZM65.3164 160.139H81.553V167.055H80.3007V165.676H66.5796V167.229H65.3273V160.128L65.3164 160.139ZM66.5688 161.051V164.753H80.2898V161.051H66.5688ZM73.7669 148.316H67.037V150.563H73.7669V148.316ZM73.7669 151.486H67.037V153.755H73.7669V151.486ZM67.0261 157.099H73.756V154.678H67.0261V157.099Z" fill="black"/>
<path d="M90.9073 144.462H97.746V164.808C97.746 166.903 96.3848 167.696 92.0071 166.187L92.1596 165.546C96.0037 166.187 96.4828 165.904 96.4828 164.504V157.327H92.0834C91.9527 161.974 91.4191 164.786 89.2194 167.261L88.6858 166.827C90.8855 163.483 90.9073 160.194 90.9073 152.985V144.462ZM96.4937 156.459V151.247H92.1378V152.626C92.1378 154.027 92.1378 155.308 92.1161 156.459H96.4937ZM92.1378 145.385V150.39H96.4937V145.385H92.1378ZM111.652 165.676L110.781 166.979C109.605 166.165 108.168 165.036 106.839 163.331C105.587 164.916 104.051 166.187 102.276 167.109L101.939 166.501C103.528 165.557 104.988 164.156 106.186 162.441C104.933 160.606 103.855 158.152 103.234 154.885H101.438V167.24H100.185V144.592H109.757C109.757 146.97 109.681 148.75 109.583 150.129C109.409 152.04 108.048 152.605 103.692 151.019L103.866 150.357C107.754 151.15 108.168 150.867 108.266 149.847C108.364 148.75 108.418 147.187 108.418 145.461H101.427V153.983H108.799L109.256 153.625L110.531 154.135C110.073 157.306 109.017 160.085 107.514 162.354C108.875 163.939 110.356 164.96 111.609 165.676H111.652ZM106.839 161.442C107.993 159.499 108.81 157.251 109.093 154.885H103.975C104.585 157.696 105.641 159.835 106.839 161.442Z" fill="black"/>
<path d="M126.702 162.539H115.845V161.616H126.702V159.347H119.275V151.052H135.436V159.347H127.987V161.616H138.844V162.539H127.987V167.034H126.702V162.539ZM117.947 144.517H125.983V149.163H117.947V144.517ZM124.807 148.295V145.363H119.123V148.295H124.807ZM126.702 154.7V151.943H120.528V154.7H126.702ZM126.702 158.446V155.591H120.528V158.446H126.702ZM134.151 154.7V151.943H127.976V154.7H134.151ZM134.151 158.446V155.591H127.976V158.446H134.151ZM128.673 144.517H136.786V149.163H128.673V144.517ZM135.588 148.295V145.363H129.849V148.295H135.588Z" fill="black"/>
<path d="M148.285 149.543V167.316H147.033V152.051C145.9 154.038 144.648 155.731 143.32 157.056L142.83 156.567C145.291 153.397 147.828 148.446 148.928 143.365L150.311 143.8C149.745 145.862 149.08 147.806 148.285 149.543ZM165.85 164.829V165.774H149.516V164.829H158.761C159.426 162.278 160.787 156.632 161.266 151.942L162.801 152.246C162.061 157.023 160.7 161.92 159.524 164.829H165.85ZM165.175 150.379H150.071V149.434H165.175V150.379ZM151.999 152.344L152.663 152.138C154.122 155.688 155.298 160.259 155.603 162.94L154.122 163.19C153.861 160.15 152.924 155.818 151.999 152.344ZM157.498 149.109C156.964 147.654 155.832 145.178 155.091 143.648L155.679 143.268C156.834 144.646 158.108 146.894 158.827 148.403L157.498 149.119V149.109Z" fill="black"/>
<path d="M172.373 159.369L173.038 159.499C172.885 162.029 172.265 164.83 171.557 166.567L170.25 165.926C171.176 164.037 171.938 161.812 172.373 159.369ZM177.797 153.061C178.744 154.234 179.866 156.123 180.617 157.654L179.419 158.24C179.19 157.632 178.907 156.959 178.624 156.275C176.424 157.089 172.766 157.957 170.838 158.261L170.5 156.883C170.936 156.861 171.448 156.807 172.036 156.731C173.081 155.558 174.519 153.669 175.88 151.476C174.323 151.888 172.319 152.268 171.045 152.42L170.762 151.118C171.176 151.118 171.633 151.096 172.145 151.042C173.07 149.022 174.138 145.982 174.911 143.312L176.218 143.746C175.325 146.167 173.985 149.207 172.885 151.02C174.083 150.922 175.368 150.792 176.37 150.683C177.034 149.565 177.677 148.36 178.265 147.133L179.441 147.795C177.72 151.085 175.041 154.635 173.092 156.579C174.889 156.318 176.882 155.971 178.341 155.656C177.96 154.809 177.568 154.027 177.263 153.408L177.797 153.05V153.061ZM175.237 158.935C175.771 160.563 176.62 163.636 176.882 165.112L175.477 165.394C175.292 163.733 174.889 160.824 174.584 159.087L175.248 158.935H175.237ZM177.47 158.175C178.232 159.304 179.67 161.975 180.29 163.332L179.038 163.94C178.526 162.463 177.448 159.651 176.936 158.446L177.47 158.164V158.175ZM190.527 166.241C188.632 166.372 186.323 166.372 184.407 166.263C181.924 166.111 181.314 165.807 181.336 163.201V152.507H189.884V145.537H180.258V144.647H191.137V155.96H189.884V153.408H182.61V163.343C182.588 164.852 183.067 165.004 184.635 165.101C186.378 165.232 188.632 165.177 190.396 165.08C192.029 164.949 192.117 164.667 192.084 159.64H192.748C193.434 165.232 193.336 166.046 190.516 166.252L190.527 166.241Z" fill="black"/>
<path d="M206.448 163.049L206.622 163.711C204.444 164.655 200.404 165.861 197.79 166.24L197.485 164.883C198.716 164.753 200.197 164.503 201.689 164.189V155.612H197.823V154.721H201.689V151.681H198.846V150.997C198.356 151.508 197.877 151.964 197.387 152.355L196.952 151.866C199.075 149.792 201.046 146.275 202.103 143.387L203.387 143.843C203.257 144.179 203.137 144.505 202.952 144.863C204.28 145.906 206.251 147.849 207.123 148.978L206.121 149.771C205.359 148.674 203.638 146.655 202.669 145.482C201.776 147.241 200.491 149.184 199.053 150.769H205.838V151.66H202.919V154.721H206.578V155.612H202.919V163.939C204.248 163.657 205.511 163.331 206.458 163.049H206.448ZM200.502 162.202L199.271 162.43C199.064 160.877 198.629 158.554 198.302 157.045L198.912 156.86C199.522 158.337 200.219 160.66 200.502 162.191V162.202ZM203.856 161.898C204.313 160.519 204.934 158.12 205.184 156.643L206.36 157.001C205.979 158.478 205.13 160.855 204.487 162.137L203.845 161.909L203.856 161.898ZM218.938 163.657C217.424 162.18 215.148 160.367 213.461 159.086V164.905C213.461 166.794 212.666 167.76 207.569 166.208L207.722 165.6C211.664 166.132 212.23 165.937 212.23 164.579V159.162C210.847 160.486 208.723 161.941 206.959 162.864L206.35 161.67C208.299 160.877 210.499 159.596 212.241 158.272V153.375H206.099V152.452H214.038C214.223 151.79 214.397 151.052 214.571 150.335H209.148C208.996 150.791 208.843 151.225 208.691 151.638L207.591 151.41C208.408 149.087 209.279 146.123 209.921 143.517L211.076 143.745C210.945 144.277 210.814 144.863 210.64 145.46H215.279L215.66 145.124L216.869 145.58C216.433 147.773 215.845 150.248 215.225 152.452H219.624V153.375H213.482V158.272C213.711 158.369 213.94 158.532 214.201 158.652C215.377 157.555 216.706 155.948 217.609 154.591L218.731 155.405C217.762 156.556 216.118 158.109 214.811 159.01C216.608 160.052 218.6 161.409 219.885 162.506L218.96 163.657H218.938ZM210.749 158.044L209.704 158.76C208.985 157.436 207.961 155.85 207.199 154.776L207.689 154.32C208.734 155.286 210.041 156.904 210.76 158.044H210.749ZM214.767 149.434C215.05 148.261 215.257 147.132 215.41 146.318H210.39C210.106 147.36 209.78 148.435 209.442 149.434H214.767Z" fill="black"/>
<path d="M57.3344 208.594V209.56H34.6184V208.594H42.655V193.709H35.4569V192.765H42.6006C41.7512 191.158 40.2158 188.78 39.2683 187.477L39.8019 187.021C41.1305 188.248 43.0035 190.626 44.0054 192.233L43.2104 192.765H47.6099C48.5791 191.256 49.8314 188.704 50.5501 186.945L51.9331 187.586C51.0402 189.247 49.6571 191.364 48.5028 192.765H56.4414V193.709H49.1235V208.594H57.3235H57.3344ZM40.6404 204.685L39.1594 205.044C38.7021 202.46 37.6458 198.768 36.731 196.206L37.3408 195.902C38.5932 198.378 39.9326 201.906 40.6404 204.685ZM47.8603 193.709H43.94V208.594H47.8603V193.709ZM50.3105 204.935C51.5411 202.612 52.9023 199.04 53.6863 196.206L55.1238 196.793C54.1002 199.572 52.3034 203.198 50.8986 205.293L50.3105 204.935Z" fill="black"/>
<path d="M71.099 198.562C70.1516 199.094 68.7468 199.789 67.2332 200.451V208.8C67.2332 210.407 65.9046 211.221 61.9843 209.972L62.115 209.332C65.4472 209.788 65.9809 209.592 65.9809 208.257V200.983C64.4999 201.591 63.0297 202.155 61.8863 202.492L61.429 201.113C62.6813 200.831 64.3474 200.342 65.9917 199.789V194.024H61.919V193.133H65.9917V187.162H67.2441V193.133H70.7723V194.024H67.2441V199.354C68.6488 198.844 69.9338 198.356 70.8268 197.954L71.1099 198.562H71.099ZM81.2374 197.281C79.5168 197.411 76.5983 197.433 74.856 197.281C72.3187 197.074 71.7851 196.64 71.7851 194.523V187.195H73.0701V191.993C75.7054 191.147 79.2663 189.518 81.2592 188.042L82.3917 189.062C79.9633 190.517 75.8578 192.048 73.0701 192.71V194.339C73.0701 195.772 73.3314 195.967 75.0629 196.13C76.5439 196.26 79.2881 196.26 80.976 196.108C82.5332 195.978 82.7402 195.674 82.7184 191.668H83.3826C84.0251 196.184 83.7202 197.107 81.2374 197.281ZM71.8722 199.474H83.0342V210.678H81.7818V208.941H73.1245V210.754H71.8722V199.474ZM73.1245 203.665H81.7818V200.375H73.1245V203.665ZM73.1245 208.029H81.7818V204.587H73.1245V208.029Z" fill="black"/>
<path d="M92.7041 197.769C91.7023 196.596 89.7857 194.599 88.6858 193.578L89.0996 193.014C90.3846 193.828 92.6387 195.598 93.7386 196.662L92.715 197.758L92.7041 197.769ZM93.9129 199.55C93.303 202.915 92.0398 207.671 91.1686 210.07L89.7639 209.484C90.9182 206.878 92.323 202.513 93.2486 199.322L93.9129 199.55ZM93.9564 191.971C93.009 190.766 91.3647 188.964 90.145 187.737L90.5588 187.205C91.9636 188.128 93.8584 189.702 95.0454 190.983L93.9673 191.982L93.9564 191.971ZM97.8223 196.108C97.8223 202.437 97.2125 207.388 94.3376 210.786L93.8039 210.352C96.0037 207.182 96.5482 202.796 96.5482 196.162V189.496L97.7787 189.93C101.59 189.42 105.892 188.248 108.298 187.097L109.474 188.193C107.046 189.192 101.307 190.365 97.8223 190.647V196.108ZM101.797 194.697V207.464C103.485 207.106 105.205 206.704 106.251 206.389L106.48 207.052C104.356 207.996 99.8478 209.277 98.0292 209.549L97.6698 208.148C98.4103 208.094 99.4666 207.92 100.566 207.714V193.676L101.721 194.034C104.149 193.502 107.296 192.319 109.093 191.222L110.226 192.221C109.224 192.731 107.558 193.318 105.794 193.806C106 196.303 106.284 198.475 106.687 200.418C107.634 199.419 108.843 197.997 109.834 196.542L110.934 197.432C109.757 198.79 108.07 200.364 106.893 201.232C107.688 204.446 108.995 206.997 111.14 209.277L110.041 210.374C106.687 206.498 105.478 201.232 105.097 193.98C103.942 194.284 102.788 194.545 101.797 194.697Z" fill="black"/>
<path d="M138.887 203.762V204.685H133.279V208.746C133.279 210.689 131.798 211.243 127.235 209.951L127.388 209.289C131.559 209.875 131.994 209.647 131.994 208.398V204.696H115.91V203.773H131.994V201.71H133.279V203.773H138.887V203.762ZM126.702 190.289H116.716V189.399H126.702V187.151H127.987V189.399H137.918V190.289H127.987V192.08H135.512V198.388H127.987V200.733C130.677 200.657 133.159 200.527 134.924 200.375C134.488 199.843 134.074 199.333 133.726 198.942L134.183 198.486C135.392 199.376 136.688 200.625 137.69 201.884L136.72 202.698C136.416 202.264 135.947 201.656 135.468 201.016C131.112 201.678 121.279 202.242 117.086 202.058L116.912 200.809C119.602 200.885 123.239 200.885 126.724 200.788V198.388H119.275V192.08H126.724V190.289H126.702ZM120.484 194.751H126.702V192.96H120.484V194.751ZM126.702 197.487V195.598H120.484V197.487H126.702ZM121.584 205.087C122.945 205.771 124.807 206.998 126.016 208.073L125.123 209.093C124.197 208.127 122.411 206.596 121.203 205.652L121.584 205.087ZM127.987 194.751H134.281V192.96H127.987V194.751ZM127.987 197.487H134.281V195.598H127.987V197.487Z" fill="black"/>
<path d="M151.835 206.216L153.164 207.063C150.529 208.8 146.587 210.309 143.505 210.972L143.276 210.309C146.347 209.386 149.494 207.888 151.825 206.227L151.835 206.216ZM162.78 205.652H146.26V195.186H162.78V205.652ZM147.534 196.108V198.226H161.516V196.108H147.534ZM147.534 199.094V201.363H161.516V199.094H147.534ZM161.516 204.74V202.243H147.534V204.74H161.516ZM161.44 193.123H147.686V188.248H161.44V193.123ZM160.188 189.138H148.95V192.233H160.188V189.138ZM165.927 209.462L165.186 210.82C162.856 209.495 159.142 207.856 156.507 206.857L156.769 206.216C159.665 206.933 163.422 208.236 165.938 209.462H165.927Z" fill="black"/>
<path d="M170.479 210.635L169.945 210.2C172.428 206.552 172.221 201.319 172.221 196.998V190.897L173.419 191.407H180.563V186.988H181.815V188.823H189.623V189.692H181.815V191.407H190.363L190.897 191.103L192.258 191.95C191.594 193.231 190.723 194.534 189.797 195.446L189.231 195.066C189.721 194.252 190.276 193.079 190.516 192.308H173.462V196.727C173.462 201.319 173.593 206.911 170.468 210.645L170.479 210.635ZM193.064 208.767L192.628 210.244C190.832 210.374 187.608 210.374 185.506 210.244C182.566 210.059 180.388 208.941 178.853 207.258C177.394 208.735 175.368 209.94 172.548 210.808L172.341 210.2C174.845 209.31 176.795 208.051 178.199 206.476C177.426 205.38 176.816 204.131 176.403 202.753C175.815 204.077 175.096 205.282 174.334 206.172L173.8 205.738C175.183 203.751 176.207 200.766 176.697 197.823L177.927 198.051C177.775 198.822 177.546 199.658 177.285 200.505H180.617L181.031 200.201L182.185 200.787C181.652 202.981 180.857 204.946 179.474 206.585C180.987 208.062 182.926 208.854 185.419 209.006C187.162 209.104 190.668 209.06 193.075 208.778L193.064 208.767ZM179.517 196.206V195.848C177.873 195.978 176.294 196.13 174.911 196.228L174.813 195.381C176.218 195.283 177.862 195.153 179.528 195.001V192.884H180.704V194.87C183.339 194.61 186.029 194.338 188.153 194.078L188.251 194.946C186.105 195.207 183.361 195.478 180.693 195.706V195.989C180.693 197.139 180.976 197.465 182.022 197.541C183.862 197.671 185.703 197.693 187.63 197.519C188.577 197.443 189.067 197.259 189.655 196.781L190.32 197.671C189.808 198.203 188.937 198.562 187.706 198.638C185.637 198.768 183.786 198.768 182 198.659C179.931 198.529 179.517 197.867 179.517 196.184V196.206ZM178.777 205.803C179.746 204.5 180.388 202.991 180.748 201.309H176.98C176.925 201.493 176.849 201.645 176.806 201.819C177.296 203.426 177.96 204.728 178.777 205.803ZM187.608 205.402V201.015H184.635V202.318C184.635 204.435 184.145 206.324 181.771 207.703L181.39 207.171C183.231 205.738 183.492 204.262 183.492 202.242V200.201H188.763V204.826C188.763 205.901 188.893 206.129 190.146 206.129C191.398 206.129 191.191 205.673 191.169 202.785H191.812C192.302 206.411 192.323 207.171 190.146 207.171C188.12 207.171 187.608 206.889 187.608 205.412V205.402Z" fill="black"/>
<path d="M206.545 202.612C204.139 204.447 200.218 206.39 197.79 207.357L197.18 206.075C198.334 205.695 199.794 205.109 201.253 204.469V197.01H197.844V196.141H201.253V190.018H197.518V189.128H206.121V190.018H202.516V196.141H205.848V197.01H202.516V203.904C203.921 203.263 205.228 202.58 206.175 202.015L206.556 202.601L206.545 202.612ZM220.375 208.877V209.767H204.498V208.877H212.154V204.436H206.545V203.513H212.154V199.529H208.135V201.266H206.883V188.4H218.785V201.168H217.533V199.54H213.46V203.524H219.09V204.447H213.46V208.887H220.375V208.877ZM212.154 189.291H208.103V193.481H212.154V189.291ZM212.154 194.296H208.103V198.66H212.154V194.296ZM213.46 193.481H217.533V189.291H213.46V193.481ZM213.46 198.66H217.533V194.296H213.46V198.66Z" fill="black"/>
<path d="M128.335 103.173L110.476 103.195C114.092 100.111 117.206 96.2572 119.841 91.6538C122.466 87.0505 123.784 83.0986 123.784 79.7981C123.784 75.7593 122.03 73.7399 118.535 73.7399C116.291 73.7399 114.266 74.7388 112.458 76.7364L111.609 75.6507C113.482 73.7182 115.791 72.752 118.535 72.752C121.279 72.752 123.457 73.3925 124.927 74.6628C126.31 75.857 127.007 77.5073 127.007 79.6352C127.007 81.9043 125.874 84.9877 123.598 88.8745C121.214 93.0109 118.11 97.0497 114.277 100.991H128.335V103.184V103.173Z" fill="#BB7430"/>
<path d="M111.772 62.2423C111.772 62.948 111.5 63.5234 110.966 63.9577C110.487 64.3485 109.91 64.544 109.257 64.544C108.418 64.544 107.678 64.2943 107.035 63.8057L107.307 63.3931C107.885 63.9468 108.538 64.2183 109.257 64.2183C109.79 64.2183 110.226 64.0554 110.563 63.7406C110.901 63.4257 111.064 62.9914 111.064 62.4377C111.064 61.4932 110.455 60.6789 109.224 60.0058C107.841 59.2349 107.188 58.3121 107.242 57.2156C107.275 56.6619 107.503 56.2167 107.95 55.8802C108.375 55.5545 108.897 55.3916 109.529 55.3916C109.801 55.4025 110.052 55.4459 110.28 55.511C110.847 55.6522 111.26 55.9127 111.522 56.271L111.195 56.5967C111.053 56.3904 110.847 56.195 110.596 56.0322C110.248 55.8042 109.888 55.6847 109.507 55.6847C109.072 55.6847 108.701 55.8042 108.396 56.0539C108.091 56.2927 107.928 56.6076 107.895 56.9876C107.841 57.7367 108.364 58.4315 109.474 59.0829C110.378 59.6041 110.999 60.1469 111.358 60.6898C111.642 61.124 111.783 61.6452 111.783 62.2315L111.772 62.2423Z" fill="#BB7430"/>
<path d="M118.426 55.7392H116.063V64.4573H115.181V55.7392H112.796V55.4678H118.426V55.7392Z" fill="#BB7430"/>
<path d="M124.078 64.4465H119.885V55.457H123.925V55.7285H120.756V59.3655H123.609V59.6369H120.756V64.1643H124.078V64.4357V64.4465Z" fill="#BB7430"/>
<path d="M131.722 57.8998C131.722 58.5838 131.428 59.1701 130.851 59.6478C130.263 60.1255 129.577 60.3535 128.771 60.3426C128.586 60.3426 128.444 60.3426 128.324 60.3426V60.0712H128.586C129.305 60.0712 129.871 59.8541 130.285 59.4198C130.666 59.0289 130.862 58.5187 130.862 57.889C130.862 56.4233 130.023 55.7067 128.346 55.7284H127.453V64.4574H126.593V55.4787C127.029 55.4787 127.693 55.4679 128.608 55.4679C130.698 55.457 131.733 56.2713 131.733 57.9107L131.722 57.8998Z" fill="#BB7430"/>
<defs>
<linearGradient id="paint0_linear_2163_703" x1="0" y1="0" x2="254.678" y2="0" gradientUnits="userSpaceOnUse">
<stop stop-color="white" stop-opacity="0"/>
<stop offset="0.03" stop-color="white" stop-opacity="0.05"/>
<stop offset="0.19" stop-color="white" stop-opacity="0.3"/>
<stop offset="0.34" stop-color="white" stop-opacity="0.51"/>
<stop offset="0.5" stop-color="white" stop-opacity="0.69"/>
<stop offset="0.64" stop-color="white" stop-opacity="0.82"/>
<stop offset="0.78" stop-color="white" stop-opacity="0.92"/>
<stop offset="0.9" stop-color="white" stop-opacity="0.98"/>
<stop offset="1" stop-color="white"/>
</linearGradient>
</defs>
</svg>
