<svg width="255" height="289" viewBox="0 0 255 289" fill="none" xmlns="http://www.w3.org/2000/svg">
<path d="M254.689 0H0V289H254.689V0Z" fill="url(#paint0_linear_2163_704)"/>
<path d="M51.4866 160.421H56.583V161.344H51.4866V167.239H50.2343V161.344H45.2141V160.421H50.2343V157.099H45.9111V156.176H48.7533C48.2415 155.004 47.3485 153.212 46.7605 152.17L47.2941 151.834C48.1653 152.8 49.374 154.569 49.9621 155.742L49.1127 156.176H51.6173C52.3033 154.949 53.0983 153.212 53.5883 151.942L54.8189 152.528C54.2308 153.625 53.3052 155.08 52.434 156.176H55.7881V157.099H51.4866V160.421ZM56.4741 151.638H45.2577V150.715H50.169V147.882H45.9982V146.959H50.169V143.561H51.4213V146.959H55.799V147.882H51.4213V150.715H56.4632V151.638H56.4741ZM68.0717 165.6L67.2767 166.881C65.8719 166.013 64.5325 164.938 63.3564 163.516C62.311 164.949 61.0478 166.099 59.545 167.087L59.1312 166.501C60.5687 165.405 61.7448 164.156 62.6922 162.647C61.3636 160.758 60.3073 158.337 59.7737 155.112H58.5432V167.239H57.2909V144.983H66.068C66.068 146.948 66.0462 148.761 65.9917 150.368C65.8937 152.181 64.6305 152.767 60.2855 151.573L60.4162 150.911C64.2821 151.443 64.6632 151.215 64.7177 150.064C64.7721 148.815 64.7939 147.306 64.7939 145.873H58.5432V154.244H64.8374L65.3493 153.907L66.5798 154.32C66.1224 157.816 65.273 160.4 64.0425 162.462C65.2513 163.765 66.6016 164.764 68.0608 165.6H68.0717ZM63.3128 161.561C64.184 159.802 64.8266 157.707 65.1859 155.101H60.4706C61.0805 157.859 62.0605 159.922 63.3128 161.561Z" fill="black"/>
<path d="M78.1774 143.745C77.818 145.656 77.2844 147.697 76.5875 149.673V167.164H75.3787V152.583C74.5838 154.244 73.669 155.775 72.5365 157.056L72.0029 156.622C74.1046 153.658 75.9994 148.457 76.8706 143.452L78.1774 143.756V143.745ZM78.8525 147.654H79.9742V163.939H78.8525V147.654ZM93.3686 159.314L94.4902 160.031C91.9311 163.711 86.1922 166.545 80.5622 167.098L80.4316 166.436C86.116 165.546 91.1035 162.582 93.3686 159.314ZM95.2307 154.342L94.7733 155.644C92.1598 155.036 89.8512 154.059 87.9346 152.637C86.3012 154.038 84.0688 155.264 81.1285 156.079L80.878 155.416C83.4589 154.602 85.5606 153.43 87.1505 151.975C85.8655 150.857 84.7983 149.521 83.9489 147.914C83.2629 149.239 82.4135 150.444 81.5205 151.389L81.0087 151.009C82.4679 149.065 83.7529 146.188 84.3846 143.452L85.6368 143.789C85.4299 144.56 85.1468 145.341 84.8201 146.134H93.9893V147.024H91.6589C91.0926 148.739 90.1779 150.422 88.686 151.921C90.5046 153.071 92.6498 153.81 95.2416 154.342H95.2307ZM81.5096 162.484C85.3211 161.561 88.8602 159.216 90.8531 156.687L91.9311 157.425C89.372 160.595 85.3211 162.484 81.6839 163.114L81.5096 162.473V162.484ZM82.0215 159.086L81.8146 158.5C84.5806 157.686 86.9872 156.046 88.3484 154.385L89.3721 155.08C87.5535 157.143 84.7657 158.5 82.0215 159.086ZM87.8148 151.302C88.9909 150.021 89.8621 148.566 90.3739 147.013H84.4064C84.3846 147.089 84.3301 147.165 84.3083 147.241C85.2775 148.957 86.4318 150.249 87.8148 151.302Z" fill="black"/>
<path d="M109.126 145.841V157.175H111.925V158.381H109.126V166.1H107.634V158.381H98.4868V157.892L108.571 145.841H109.126ZM107.634 157.175V148.74L100.567 157.175H107.634Z" fill="black"/>
<path d="M119.188 155.688C117.435 154.505 116.564 153.006 116.564 151.182C116.564 149.738 117.086 148.49 118.143 147.437C119.199 146.384 120.44 145.852 121.867 145.852C123.294 145.852 124.589 146.373 125.646 147.415C126.702 148.457 127.225 149.706 127.225 151.161C127.225 153.039 126.375 154.548 124.666 155.699C126.637 156.882 127.617 158.532 127.617 160.65C127.617 162.256 127.072 163.603 125.972 164.71C124.873 165.807 123.533 166.36 121.943 166.36C120.353 166.36 118.97 165.817 117.86 164.732C116.749 163.646 116.183 162.321 116.183 160.769C116.183 158.598 117.184 156.904 119.188 155.699V155.688ZM126.125 160.563C126.125 159.423 125.711 158.456 124.884 157.653C124.056 156.85 123.043 156.448 121.856 156.448C120.669 156.448 119.711 156.86 118.894 157.696C118.077 158.532 117.675 159.531 117.675 160.693C117.675 161.855 118.088 162.864 118.905 163.7C119.733 164.525 120.734 164.949 121.932 164.949C123.13 164.949 124.154 164.536 124.938 163.7C125.722 162.864 126.114 161.822 126.114 160.552L126.125 160.563ZM118.067 151.15C118.067 152.235 118.437 153.158 119.177 153.907C119.918 154.657 120.832 155.037 121.911 155.037C122.989 155.037 123.903 154.657 124.622 153.907C125.341 153.158 125.7 152.214 125.7 151.074C125.7 150.021 125.33 149.109 124.579 148.36C123.827 147.61 122.923 147.23 121.856 147.23C120.789 147.23 119.907 147.61 119.166 148.37C118.426 149.13 118.067 150.053 118.067 151.139V151.15Z" fill="black"/>
<path d="M132.332 161.974C134.717 158.837 136.688 154.212 137.766 149.521L139.28 149.977C137.973 154.754 135.697 159.445 132.909 162.43L132.343 161.974H132.332ZM137.352 165.492C142.83 166.187 143.472 166.057 143.472 164.374V143.518H144.833V164.884C144.833 166.979 143.832 167.924 137.232 166.187L137.363 165.492H137.352ZM148.057 149.673L148.667 149.293C150.943 152.181 154.253 157.816 155.451 160.726L153.937 161.41C152.837 158.424 150.017 152.833 148.046 149.663L148.057 149.673Z" fill="black"/>
<path d="M160.667 145.504H167.223V163.548H165.992V161.301H161.898V164.189H160.667V145.504ZM166.003 152.756V146.394H161.909V152.756H166.003ZM166.003 160.389V153.603H161.909V160.389H166.003ZM172.809 165.654C176.653 166.262 177.525 166.11 177.525 164.656V157.436H168.181V156.513H177.525V153.549H178.81V156.513H182.697V157.436H178.81V165.068C178.81 167.055 177.045 167.772 172.668 166.295L172.82 165.654H172.809ZM168.41 152.018H174.508V148.142H169.183V147.252H174.508V143.55H175.793V147.252H181.292V148.142H175.793V152.018H182.044V152.941H168.421V152.018H168.41ZM170.022 158.728L170.479 158.293C171.601 159.292 173.114 160.997 174.214 162.484L173.114 163.255C172.167 161.746 170.936 159.933 170.022 158.739V158.728Z" fill="black"/>
<path d="M207.373 149.521V164.808C207.373 166.697 206.524 167.848 199.925 166.263L200.055 165.622C205.435 166.208 206.045 165.959 206.045 164.417V150.455H199.108C200.284 154.928 202.691 158.033 205.838 160.161L204.945 161.41C201.515 158.913 199.162 154.82 198.444 151.606C197.703 155.102 194.556 159.803 191.126 161.898L190.69 161.29C193.946 158.815 196.353 154.83 197.42 150.466H190.255V167.164H188.926V149.521H197.834C197.681 148.295 197.474 146.503 197.42 145.559H191.148V144.636H198.313C198.367 146.427 198.563 148.034 198.879 149.51H207.384L207.373 149.521Z" fill="black"/>
<path d="M84.7439 189.594H82.8491V210.862H81.673V203.795C79.8327 204.924 77.3498 206.02 75.7599 206.574L75.248 205.271C75.8143 205.119 76.4241 204.935 77.0884 204.739V189.605H75.4985V188.736H84.7439V189.605V189.594ZM78.2645 193.426H81.673V189.594H78.2645V193.426ZM78.2645 198.377H81.673V194.241H78.2645V198.377ZM81.673 202.969V199.213H78.2645V204.316C79.4624 203.903 80.6712 203.425 81.673 202.959V202.969ZM88.9691 194.729C89.5789 195.902 90.0145 197.107 90.3739 198.334L89.3503 198.616C89.2523 198.106 89.1216 197.595 88.9909 197.085C87.4337 197.617 85.5062 198.106 84.047 198.334L83.742 197.139L84.8637 197.063C85.7567 195.967 86.6605 194.642 87.5317 193.187C86.2467 193.567 84.9181 193.85 83.9489 193.98L83.6985 192.775C84.0252 192.775 84.3845 192.775 84.7766 192.753C85.626 190.994 86.2903 189.181 86.8456 187.184L88 187.596C87.2595 189.463 86.5407 191.168 85.5715 192.699L87.9782 192.438C88.4355 191.646 88.8711 190.81 89.2631 189.985L90.363 190.549C89.0018 193.025 87.3683 195.25 85.7784 196.955C86.8565 196.824 87.9237 196.672 88.8493 196.499C88.7186 195.988 88.5662 195.478 88.4138 194.968L88.98 194.74L88.9691 194.729ZM88.6315 199.343H89.8076V201.764C89.8076 206.433 89.6552 209.06 84.5043 210.928L84.1994 210.32C87.1397 209.017 88.1415 207.714 88.4791 205.521H85.7676V206.997H84.635V199.897H85.7676V204.641H88.5553C88.6316 203.795 88.6315 202.85 88.6315 201.754V199.332V199.343ZM96.1673 197.183C94.5774 197.747 92.5518 198.182 91.0164 198.388L90.7333 197.215C91.0164 197.215 91.2995 197.194 91.5827 197.161C92.4321 196.086 93.2705 194.762 94.0873 193.329C92.8023 193.665 91.4955 193.915 90.5481 194.013L90.2977 192.84C90.5808 192.84 90.8857 192.84 91.1906 192.818C92.0074 191.059 92.6717 189.062 93.1835 187.097L94.3922 187.509C93.7279 189.301 92.8785 191.266 91.9638 192.797C92.8132 192.742 93.7061 192.666 94.5011 192.569C94.9911 191.7 95.4267 190.777 95.8079 189.887L96.8859 190.451C95.8405 192.623 94.1744 195.174 92.4756 197.085C93.7062 196.955 94.9584 196.781 95.9821 196.596C95.8078 195.988 95.6228 195.37 95.4159 194.805L95.9821 194.545C96.5919 195.619 97.2127 197.15 97.5394 198.377L96.4939 198.659C96.4177 198.203 96.287 197.693 96.1673 197.183ZM95.6445 199.68H96.7444V207.008H95.6445V205.532H92.7043V210.841H91.55V199.354H92.7043V204.685H95.6445V199.68Z" fill="black"/>
<path d="M110.956 207.182C108.701 208.615 105.554 209.94 102.658 210.656L102.429 210.016C105.14 209.147 108.244 207.595 109.986 206.314L110.956 207.182ZM114.615 205.369V209.147C114.615 210.624 113.82 211.568 109.213 210.189L109.398 209.549C113.112 210.157 113.417 209.961 113.417 208.735V205.488C110.368 205.792 107.275 205.999 104.585 206.02L104.324 204.815C105.293 204.837 106.273 204.87 107.297 204.837C109.779 204.023 112.208 203.002 114.31 201.927C111.903 202.286 109.159 202.568 106.807 202.644L106.578 201.515C107.188 201.536 107.83 201.536 108.495 201.536C109.54 200.972 111.086 200.06 112.208 199.235H104.759V200.44H103.681V196.814H104.759V198.497H108.113V196.173H102.451V195.402H108.113V194.436H103.736V190.169H108.113V189.149H102.56V188.41H108.113V187.086H109.213V188.41H114.8V189.149H109.213V190.169H113.493V194.436H109.213V195.402H114.952V196.173H109.213V198.497H112.415V196.781H113.515V199.05L113.929 199.354C112.981 200.017 111.108 200.907 109.703 201.493C111.783 201.439 113.907 201.287 115.747 201.113C116.694 200.581 117.544 200.017 118.252 199.506L119.297 200.32C116.793 201.949 113.275 203.512 109.257 204.783C113.221 204.652 117.272 204.294 120.604 203.892C119.961 203.252 119.319 202.666 118.84 202.231L119.199 201.743C120.604 202.687 122.804 204.446 123.991 205.619L123.141 206.542C122.684 205.977 121.932 205.217 121.17 204.424C119.199 204.761 116.945 205.065 114.615 205.315V205.369ZM108.113 190.897H104.814V191.993H108.113V190.897ZM108.113 192.634H104.814V193.785H108.113V192.634ZM109.213 191.993H112.415V190.897H109.213V191.993ZM109.213 193.785H112.415V192.634H109.213V193.785ZM113.743 192.656C115.693 191.787 115.823 190.636 115.823 189.54V188.009H121.323V190.408C121.323 191.331 121.584 191.407 122.989 191.407C123.838 191.407 124.274 191.331 124.807 190.994L125.188 191.809C124.502 192.243 123.751 192.341 122.292 192.319C120.571 192.265 120.223 192.037 120.223 190.842V188.801H116.967C116.967 190.918 116.455 192.352 113.994 193.22L113.733 192.656H113.743ZM119.635 197.02C121.116 197.867 122.891 198.399 124.753 198.681L124.317 199.81C122.292 199.376 120.397 198.659 118.807 197.509C117.522 198.225 115.987 198.79 114.201 199.137L114.026 198.497C115.66 198.117 117.021 197.574 118.121 196.966C117.195 196.173 116.433 195.229 115.812 194.078H114.527V193.34H121.29L121.824 193.166L122.793 193.828C122.107 195.001 121.05 196.097 119.613 197.02H119.635ZM118.84 196.542C119.94 195.804 120.756 194.957 121.323 194.089H116.488C117.097 195.087 117.925 195.88 118.84 196.542ZM116.999 206.27C119.842 207.117 122.303 208.137 124.579 209.353L123.914 210.526C122.096 209.375 119.515 207.975 116.771 206.878L116.999 206.27Z" fill="black"/>
<path d="M134.608 193.275V210.939H133.356V195.728C132.31 197.596 131.08 199.279 129.697 200.712L129.207 200.201C131.82 196.781 134.15 192.08 135.25 187.032L136.655 187.412C136.143 189.475 135.446 191.44 134.608 193.286V193.275ZM152.402 208.485V209.375H136.013V208.485H143.592V200.777H137.287V199.887H143.592V193.763H136.503V192.873H151.792V193.763H144.899V199.887H151.117V200.777H144.899V208.485H152.402ZM144.104 192.558C143.516 191.125 142.263 188.856 141.392 187.379L141.958 186.967C143.113 188.215 144.55 190.332 145.367 191.82L144.115 192.558H144.104Z" fill="black"/>
<path d="M177.002 193.654V202.057H175.717V200.266H161.963C161.658 205.325 160.558 208.463 158.021 210.96L157.488 210.472C159.709 207.714 160.711 204.707 160.711 197.476V189.409L162.039 189.789V189.811C167.136 189.561 172.515 188.508 175.456 187.281L176.708 188.4C173.528 189.496 167.027 190.441 162.039 190.495V193.633H176.991L177.002 193.654ZM175.728 199.376V194.577H162.05V197.161C162.05 197.932 162.05 198.67 161.996 199.387H175.717L175.728 199.376Z" fill="black"/>
<path d="M136.024 95.0412C136.024 97.5383 135.109 99.6011 133.269 101.24C131.494 102.836 129.326 103.629 126.756 103.629C125.254 103.629 123.751 103.325 122.226 102.717C120.713 102.109 119.515 101.306 118.644 100.307L119.711 99.2211C121.747 101.555 124.045 102.717 126.604 102.717C128.608 102.717 130.187 101.924 131.352 100.35C132.419 98.9388 132.953 97.1691 132.953 95.0629C132.953 92.6527 132.278 90.7527 130.916 89.3739C129.675 88.1145 127.998 87.4088 125.885 87.2459C125.613 87.2459 125.548 87.2459 125.689 87.2459V86.1602C127.53 86.1277 128.989 85.4545 130.067 84.13C131.069 82.8923 131.57 81.3289 131.57 79.4398C131.57 77.7353 131.036 76.3456 129.969 75.2708C128.902 74.1959 127.595 73.6639 126.049 73.6639C123.707 73.6639 121.747 74.6736 120.168 76.6821L119.243 75.7919C120.985 73.7616 123.294 72.752 126.168 72.752C128.619 72.752 130.644 73.3599 132.245 74.5868C133.911 75.8462 134.739 77.4639 134.739 79.4615C134.739 80.8403 134.183 82.2083 133.083 83.5546C131.973 84.9008 130.622 85.8997 129 86.5619C131.036 87.1265 132.691 88.1579 133.987 89.6453C135.348 91.2195 136.024 93.0218 136.024 95.052V95.0412Z" fill="#BB7430"/>
<path d="M119.112 62.2423C119.112 62.948 118.84 63.5234 118.306 63.9577C117.827 64.3485 117.25 64.544 116.596 64.544C115.758 64.544 115.017 64.2943 114.375 63.8057L114.647 63.3931C115.224 63.9468 115.878 64.2183 116.596 64.2183C117.13 64.2183 117.565 64.0554 117.903 63.7406C118.241 63.4257 118.404 62.9914 118.404 62.4377C118.404 61.4932 117.794 60.6789 116.564 60.0058C115.181 59.2349 114.527 58.3121 114.582 57.2156C114.614 56.6619 114.843 56.2167 115.29 55.8802C115.714 55.5545 116.237 55.3916 116.869 55.3916C117.141 55.4025 117.391 55.4459 117.62 55.511C118.186 55.6522 118.589 55.9127 118.861 56.271L118.535 56.5967C118.393 56.3904 118.186 56.195 117.936 56.0322C117.587 55.8042 117.228 55.6847 116.847 55.6847C116.411 55.6847 116.041 55.8042 115.736 56.0539C115.431 56.2927 115.268 56.6076 115.235 56.9876C115.181 57.7367 115.703 58.4315 116.814 59.0829C117.718 59.6041 118.339 60.1469 118.698 60.6898C118.981 61.124 119.123 61.6452 119.123 62.2315L119.112 62.2423Z" fill="#BB7430"/>
<path d="M125.765 55.7392H123.402V64.4573H122.52V55.7392H120.135V55.4678H125.765V55.7392Z" fill="#BB7430"/>
<path d="M131.417 64.4465H127.225V55.457H131.265V55.7285H128.096V59.3655H130.949V59.6369H128.096V64.1643H131.417V64.4357V64.4465Z" fill="#BB7430"/>
<path d="M139.062 57.8998C139.062 58.5838 138.768 59.1701 138.191 59.6478C137.603 60.1255 136.917 60.3535 136.111 60.3426C135.937 60.3426 135.784 60.3426 135.664 60.3426V60.0712H135.926C136.644 60.0712 137.211 59.8541 137.624 59.4198C138.006 59.0289 138.202 58.5187 138.202 57.889C138.202 56.4233 137.363 55.7067 135.686 55.7284H134.793V64.4574H133.933V55.4787C134.358 55.4787 135.033 55.4679 135.947 55.4679C138.027 55.457 139.073 56.2713 139.073 57.9107L139.062 57.8998Z" fill="#BB7430"/>
<defs>
<linearGradient id="paint0_linear_2163_704" x1="0" y1="0" x2="254.678" y2="0" gradientUnits="userSpaceOnUse">
<stop stop-color="white" stop-opacity="0"/>
<stop offset="0.03" stop-color="white" stop-opacity="0.05"/>
<stop offset="0.19" stop-color="white" stop-opacity="0.3"/>
<stop offset="0.34" stop-color="white" stop-opacity="0.51"/>
<stop offset="0.5" stop-color="white" stop-opacity="0.69"/>
<stop offset="0.64" stop-color="white" stop-opacity="0.82"/>
<stop offset="0.78" stop-color="white" stop-opacity="0.92"/>
<stop offset="0.9" stop-color="white" stop-opacity="0.98"/>
<stop offset="1" stop-color="white"/>
</linearGradient>
</defs>
</svg>
