<svg xmlns="http://www.w3.org/2000/svg" viewBox="0 0 255 289">
  <path d="M51.5,160.4h5.1v.9h-5.1v5.9h-1.3v-5.9h-5v-.9h5v-3.3h-4.3v-.9h2.8c-.5-1.2-1.4-3-2-4l.5-.3c.9,1,2.1,2.7,2.7,3.9l-.8.4h2.5c.7-1.2,1.5-3,2-4.2l1.2.6c-.6,1.1-1.5,2.6-2.4,3.6h3.4v.9h-4.3v3.3ZM56.5,151.6h-11.2v-.9h4.9v-2.8h-4.2v-.9h4.2v-3.4h1.3v3.4h4.4v.9h-4.4v2.8h5v.9h0ZM68.1,165.6l-.8,1.3c-1.4-.9-2.7-1.9-3.9-3.4-1,1.4-2.3,2.6-3.8,3.6l-.4-.6c1.4-1.1,2.6-2.3,3.6-3.9-1.3-1.9-2.4-4.3-2.9-7.5h-1.2v12.1h-1.3v-22.3h8.8c0,2,0,3.8,0,5.4,0,1.8-1.4,2.4-5.7,1.2v-.7c4,.5,4.4.3,4.4-.8,0-1.2,0-2.8,0-4.2h-6.3v8.4h6.3l.5-.3,1.2.4c-.5,3.5-1.3,6.1-2.5,8.1,1.2,1.3,2.6,2.3,4,3.1h0ZM63.3,161.6c.9-1.8,1.5-3.9,1.9-6.5h-4.7c.6,2.8,1.6,4.8,2.8,6.5ZM78.2,143.7c-.4,1.9-.9,4-1.6,5.9v17.5h-1.2v-14.6c-.8,1.7-1.7,3.2-2.8,4.5l-.5-.4c2.1-3,4-8.2,4.9-13.2l1.3.3h0ZM78.9,147.7h1.1v16.3h-1.1v-16.3ZM93.4,159.3l1.1.7c-2.6,3.7-8.3,6.5-13.9,7.1v-.7c5.6-.9,10.5-3.9,12.8-7.1ZM95.2,154.3l-.5,1.3c-2.6-.6-4.9-1.6-6.8-3-1.6,1.4-3.9,2.6-6.8,3.4l-.3-.7c2.6-.8,4.7-2,6.3-3.4-1.3-1.1-2.4-2.5-3.2-4.1-.7,1.3-1.5,2.5-2.4,3.5l-.5-.4c1.5-1.9,2.7-4.8,3.4-7.6l1.3.3c-.2.8-.5,1.6-.8,2.3h9.2v.9h-2.3c-.6,1.7-1.5,3.4-3,4.9,1.8,1.1,4,1.9,6.6,2.4h0ZM81.5,162.5c3.8-.9,7.4-3.3,9.3-5.8l1.1.7c-2.6,3.2-6.6,5.1-10.2,5.7l-.2-.6h0ZM82,159.1l-.2-.6c2.8-.8,5.2-2.5,6.5-4.1l1,.7c-1.8,2.1-4.6,3.4-7.4,4ZM87.8,151.3c1.2-1.3,2-2.7,2.6-4.3h-6c0,0,0,.2,0,.2,1,1.7,2.1,3,3.5,4.1ZM109.1,145.8v11.3h2.8v1.2h-2.8v7.7h-1.5v-7.7h-9.1v-.5l10.1-12.1h.6ZM107.6,157.2v-8.4l-7.1,8.4h7.1ZM119.2,155.7c-1.8-1.2-2.6-2.7-2.6-4.5s.5-2.7,1.6-3.7c1.1-1.1,2.3-1.6,3.7-1.6s2.7.5,3.8,1.6c1.1,1,1.6,2.3,1.6,3.7s-.8,3.4-2.6,4.5c2,1.2,3,2.8,3,5s-.5,3-1.6,4.1c-1.1,1.1-2.4,1.6-4,1.6s-3-.5-4.1-1.6c-1.1-1.1-1.7-2.4-1.7-4s1-3.9,3-5.1h0ZM126.1,160.6c0-1.1-.4-2.1-1.2-2.9-.8-.8-1.8-1.2-3-1.2s-2.1.4-3,1.2c-.8.8-1.2,1.8-1.2,3s.4,2.2,1.2,3c.8.8,1.8,1.2,3,1.2s2.2-.4,3-1.2c.8-.8,1.2-1.9,1.2-3.1h0ZM118.1,151.1c0,1.1.4,2,1.1,2.8.7.8,1.7,1.1,2.7,1.1s2-.4,2.7-1.1c.7-.7,1.1-1.7,1.1-2.8s-.4-2-1.1-2.7c-.8-.8-1.7-1.1-2.7-1.1s-1.9.4-2.7,1.1c-.7.8-1.1,1.7-1.1,2.8h0ZM132.3,162c2.4-3.1,4.4-7.8,5.4-12.5l1.5.5c-1.3,4.8-3.6,9.5-6.4,12.5l-.6-.5h0ZM137.4,165.5c5.5.7,6.1.6,6.1-1.1v-20.9h1.4v21.4c0,2.1-1,3-7.6,1.3v-.7c.1,0,.1,0,.1,0ZM148.1,149.7l.6-.4c2.3,2.9,5.6,8.5,6.8,11.4l-1.5.7c-1.1-3-3.9-8.6-5.9-11.7h0ZM160.7,145.5h6.6v18h-1.2v-2.2h-4.1v2.9h-1.2v-18.7ZM166,152.8v-6.4h-4.1v6.4h4.1ZM166,160.4v-6.8h-4.1v6.8h4.1ZM172.8,165.7c3.8.6,4.7.5,4.7-1v-7.2h-9.3v-.9h9.3v-3h1.3v3h3.9v.9h-3.9v7.6c0,2-1.8,2.7-6.1,1.2l.2-.6h0ZM168.4,152h6.1v-3.9h-5.3v-.9h5.3v-3.7h1.3v3.7h5.5v.9h-5.5v3.9h6.3v.9h-13.6v-.9h0ZM170,158.7l.5-.4c1.1,1,2.6,2.7,3.7,4.2l-1.1.8c-.9-1.5-2.2-3.3-3.1-4.5h0ZM207.4,149.5v15.3c0,1.9-.8,3-7.4,1.5v-.6c5.5.6,6.1.3,6.1-1.2v-14h-6.9c1.2,4.5,3.6,7.6,6.7,9.7l-.9,1.2c-3.4-2.5-5.8-6.6-6.5-9.8-.7,3.5-3.9,8.2-7.3,10.3l-.4-.6c3.3-2.5,5.7-6.5,6.7-10.8h-7.2v16.7h-1.3v-17.6h8.9c-.2-1.2-.4-3-.4-4h-6.3v-.9h7.2c0,1.8.2,3.4.6,4.9h8.5,0ZM84.7,189.6h-1.9v21.3h-1.2v-7.1c-1.8,1.1-4.3,2.2-5.9,2.8l-.5-1.3c.6-.2,1.2-.3,1.8-.5v-15.1h-1.6v-.9h9.2v.9h0ZM78.3,193.4h3.4v-3.8h-3.4v3.8ZM78.3,198.4h3.4v-4.1h-3.4v4.1ZM81.7,203v-3.8h-3.4v5.1c1.2-.4,2.4-.9,3.4-1.4h0ZM89,194.7c.6,1.2,1,2.4,1.4,3.6l-1,.3c0-.5-.2-1-.4-1.5-1.6.5-3.5,1-4.9,1.2l-.3-1.2h1.1c.9-1.2,1.8-2.5,2.7-4-1.3.4-2.6.7-3.6.8l-.3-1.2c.3,0,.7,0,1.1,0,.8-1.8,1.5-3.6,2.1-5.6l1.2.4c-.7,1.9-1.5,3.6-2.4,5.1l2.4-.3c.5-.8.9-1.6,1.3-2.5l1.1.6c-1.4,2.5-3,4.7-4.6,6.4,1.1-.1,2.1-.3,3.1-.5-.1-.5-.3-1-.4-1.5l.6-.2h0ZM88.6,199.3h1.2v2.4c0,4.7-.2,7.3-5.3,9.2l-.3-.6c2.9-1.3,3.9-2.6,4.3-4.8h-2.7v1.5h-1.1v-7.1h1.1v4.7h2.8c0-.8,0-1.8,0-2.9v-2.4h0ZM96.2,197.2c-1.6.6-3.6,1-5.2,1.2l-.3-1.2c.3,0,.6,0,.8,0,.8-1.1,1.7-2.4,2.5-3.8-1.3.3-2.6.6-3.5.7l-.3-1.2c.3,0,.6,0,.9,0,.8-1.8,1.5-3.8,2-5.7l1.2.4c-.7,1.8-1.5,3.8-2.4,5.3.8,0,1.7-.1,2.5-.2.5-.9.9-1.8,1.3-2.7l1.1.6c-1,2.2-2.7,4.7-4.4,6.6,1.2-.1,2.5-.3,3.5-.5-.2-.6-.4-1.2-.6-1.8l.6-.3c.6,1.1,1.2,2.6,1.6,3.8l-1,.3c0-.5-.2-1-.3-1.5ZM95.6,199.7h1.1v7.3h-1.1v-1.5h-2.9v5.3h-1.2v-11.5h1.2v5.3h2.9v-5ZM111,207.2c-2.3,1.4-5.4,2.8-8.3,3.5l-.2-.6c2.7-.9,5.8-2.4,7.6-3.7l1,.9ZM114.6,205.4v3.8c0,1.5-.8,2.4-5.4,1l.2-.6c3.7.6,4,.4,4-.8v-3.2c-3,.3-6.1.5-8.8.5l-.3-1.2c1,0,1.9,0,3,0,2.5-.8,4.9-1.8,7-2.9-2.4.4-5.2.6-7.5.7l-.2-1.1c.6,0,1.3,0,1.9,0,1-.6,2.6-1.5,3.7-2.3h-7.4v1.2h-1.1v-3.6h1.1v1.7h3.4v-2.3h-5.7v-.8h5.7v-1h-4.4v-4.3h4.4v-1h-5.6v-.7h5.6v-1.3h1.1v1.3h5.6v.7h-5.6v1h4.3v4.3h-4.3v1h5.7v.8h-5.7v2.3h3.2v-1.7h1.1v2.3l.4.3c-.9.7-2.8,1.6-4.2,2.1,2.1,0,4.2-.2,6-.4.9-.5,1.8-1.1,2.5-1.6l1,.8c-2.5,1.6-6,3.2-10,4.5,4-.1,8-.5,11.3-.9-.6-.6-1.3-1.2-1.8-1.7l.4-.5c1.4.9,3.6,2.7,4.8,3.9l-.8.9c-.5-.6-1.2-1.3-2-2.1-2,.3-4.2.6-6.6.9h0ZM108.1,190.9h-3.3v1.1h3.3v-1.1ZM108.1,192.6h-3.3v1.2h3.3v-1.2ZM109.2,192h3.2v-1.1h-3.2v1.1ZM109.2,193.8h3.2v-1.2h-3.2v1.2ZM113.7,192.7c2-.9,2.1-2,2.1-3.1v-1.5h5.5v2.4c0,.9.3,1,1.7,1s1.3,0,1.8-.4l.4.8c-.7.4-1.4.5-2.9.5-1.7,0-2.1-.3-2.1-1.5v-2h-3.3c0,2.1-.5,3.6-3,4.4l-.3-.6h0ZM119.6,197c1.5.8,3.3,1.4,5.1,1.7l-.4,1.1c-2-.4-3.9-1.2-5.5-2.3-1.3.7-2.8,1.3-4.6,1.6l-.2-.6c1.6-.4,3-.9,4.1-1.5-.9-.8-1.7-1.7-2.3-2.9h-1.3v-.7h6.8l.5-.2,1,.7c-.7,1.2-1.7,2.3-3.2,3.2h0ZM118.8,196.5c1.1-.7,1.9-1.6,2.5-2.5h-4.8c.6,1,1.4,1.8,2.4,2.5ZM117,206.3c2.8.8,5.3,1.9,7.6,3.1l-.7,1.2c-1.8-1.2-4.4-2.6-7.1-3.6l.2-.6ZM134.6,193.3v17.7h-1.3v-15.2c-1,1.9-2.3,3.6-3.7,5l-.5-.5c2.6-3.4,4.9-8.1,6-13.2l1.4.4c-.5,2.1-1.2,4-2,5.9h0ZM152.4,208.5v.9h-16.4v-.9h7.6v-7.7h-6.3v-.9h6.3v-6.1h-7.1v-.9h15.3v.9h-6.9v6.1h6.2v.9h-6.2v7.7h7.5ZM144.1,192.6c-.6-1.4-1.8-3.7-2.7-5.2l.6-.4c1.2,1.2,2.6,3.4,3.4,4.9l-1.3.7h0ZM177,193.7v8.4h-1.3v-1.8h-13.8c-.3,5.1-1.4,8.2-3.9,10.7l-.5-.5c2.2-2.8,3.2-5.8,3.2-13v-8.1l1.3.4h0c5.1-.2,10.5-1.3,13.4-2.5l1.3,1.1c-3.2,1.1-9.7,2-14.7,2.1v3.1h15ZM175.7,199.4v-4.8h-13.7v2.6c0,.8,0,1.5,0,2.2h13.7Z"/>
  <path fill="#bb7430" d="M136,95c0,2.5-.9,4.6-2.8,6.2-1.8,1.6-3.9,2.4-6.5,2.4s-3-.3-4.5-.9c-1.5-.6-2.7-1.4-3.6-2.4l1.1-1.1c2,2.3,4.3,3.5,6.9,3.5s3.6-.8,4.7-2.4c1.1-1.4,1.6-3.2,1.6-5.3s-.7-4.3-2-5.7c-1.2-1.3-2.9-2-5-2.1-.3,0-.3,0-.2,0v-1.1c1.8,0,3.3-.7,4.4-2,1-1.2,1.5-2.8,1.5-4.7s-.5-3.1-1.6-4.2c-1.1-1.1-2.4-1.6-3.9-1.6-2.3,0-4.3,1-5.9,3l-.9-.9c1.7-2,4.1-3,6.9-3s4.5.6,6.1,1.8c1.7,1.3,2.5,2.9,2.5,4.9s-.6,2.7-1.7,4.1c-1.1,1.3-2.5,2.3-4.1,3,2,.6,3.7,1.6,5,3.1,1.4,1.6,2,3.4,2,5.4h0ZM119.1,62.2c0,.7-.3,1.3-.8,1.7-.5.4-1.1.6-1.7.6s-1.6-.2-2.2-.7l.3-.4c.6.6,1.2.8,1.9.8s1-.2,1.3-.5c.3-.3.5-.7.5-1.3,0-.9-.6-1.8-1.8-2.4-1.4-.8-2-1.7-2-2.8,0-.6.3-1,.7-1.3.4-.3.9-.5,1.6-.5.3,0,.5,0,.8.1.6.1,1,.4,1.2.8l-.3.3c-.1-.2-.3-.4-.6-.6-.3-.2-.7-.3-1.1-.3s-.8.1-1.1.4c-.3.2-.5.6-.5.9,0,.7.5,1.4,1.6,2.1.9.5,1.5,1.1,1.9,1.6.3.4.4,1,.4,1.5h0ZM125.8,55.7h-2.4v8.7h-.9v-8.7h-2.4v-.3h5.6v.3ZM131.4,64.4h-4.2v-9h4v.3h-3.2v3.6h2.9v.3h-2.9v4.5h3.3v.3h0ZM139.1,57.9c0,.7-.3,1.3-.9,1.7-.6.5-1.3.7-2.1.7h-.4v-.3h.3c.7,0,1.3-.2,1.7-.7.4-.4.6-.9.6-1.5,0-1.5-.8-2.2-2.5-2.2h-.9v8.7h-.9v-9c.4,0,1.1,0,2,0,2.1,0,3.1.8,3.1,2.4h0Z"/>
</svg>