<svg xmlns="http://www.w3.org/2000/svg" viewBox="0 0 255 289">
  <path d="M73.7,161.5h-5.4v5.8h-1.3v-5.8h-5.3v-.9h5.3v-3.3h-4.8v-.9h3.4c-.5-1-1.5-2.6-2.1-3.6l.6-.4c.8.8,2.2,2.5,2.7,3.5l-1,.6h2.9c.6-1.1,1.4-2.9,1.8-4.1l1.3.6c-.7,1.2-1.5,2.6-2.2,3.5h3.7v.9h-4.9v3.3h5.4v.9h0ZM73,151.8h-11.1v-.9h5v-3.2h-4.4v-.9h4.4v-3.3h1.3v3.3h4.2v.9h-4.2v3.2h4.8v.9ZM83.1,167.1c-2.6-.5-2.6-7.8-2.6-13.8v-3.1h-3.5v1c0,2-.1,3.8-.3,5.3,1.4,1.2,2.6,2.5,3.2,3.2l-1.1,1.1c-.5-.8-1.4-1.8-2.4-2.9-1.1,5.9-3.7,8.3-5.3,9.3l-.5-.5c1.9-1.6,4-3.9,4.8-9.9-.8-.8-1.6-1.7-2.4-2.4l.5-.6c.7.5,1.4,1,2.1,1.7.1-1.3.2-2.7.2-4.3v-1h-2.5v-.9h2.5v-5.6h1.3v5.6h4.7v3.9c0,5.1.1,11.7,1.5,12.3.5.2.6-.4.6-5.2h.6c.6,5.6.3,7.1-1.3,6.8ZM97.4,149.1c-.6,1.3-1.6,2.9-2.9,4.5v13.7h-1.3v-12.2c-1.4,1.6-3,3-4.6,4l-.4-.6c3.1-2.3,6.2-6.5,7.9-10.1l1.3.7h0ZM89.3,151.8l-.4-.6c2.3-1.8,4.8-4.9,6.3-7.9l1.2.7c-1.7,3-4.7,6.3-7.1,7.8h0ZM111.7,152.7h-5v12.1c0,2.3-.9,3.2-7,1.7v-.7c4.7.5,5.7.5,5.7-1.2v-11.9h-7v-.9h13.3v.9h0ZM110.5,146.4h-10.7v-.9h10.7v.9ZM118.2,159.6h.6c0,2.9-.7,5.1-1.6,7l-1.3-.6c1-1.7,1.8-3.7,2.3-6.3h0ZM123,153.7c1,1.3,2,3.2,2.6,4.6l-1.2.5c-.2-.6-.5-1.3-.7-2-2.5.8-5.5,1.4-7.4,1.6l-.3-1.4c.5,0,.9,0,1.5,0,1.3-1.5,2.7-3.4,4-5.5-1.6.4-3.4.8-4.8.9l-.3-1.3c.4,0,.8,0,1.2,0,1-2.1,2.3-5,3-7.6l1.3.5c-1,2.5-2.5,5.4-3.5,7.1,1.2,0,2.5-.2,3.6-.4.6-1.1,1.2-2.3,1.7-3.4l1.2.6c-1.8,3.5-4.4,7-6.3,9.1,1.6-.2,3.3-.4,4.8-.7-.3-.8-.7-1.5-1-2.2l.5-.3h0ZM120.8,159.4c.6,1.9,1.1,4.5,1.2,6.3l-1.4.2c0-1.7-.2-4.4-.5-6.4h.6ZM123,158.7c.9,1.5,2.1,3.8,2.6,5.4l-1.3.5c-.4-1.6-1.3-4.1-1.9-5.6l.6-.2h0ZM138.8,164.9h-11v2.2h-1.3v-16c-.7,1.2-1.5,2.2-2.3,3.1l-.5-.5c2-2.6,3.7-6.6,4.6-10.4l1.4.4c-.4,1.5-1,3.2-1.8,4.8h10.6v.9h-4.9v3.8h4.1v.9h-4.1v4.1h4.2v.9h-4.2v4.7h5.2v.9ZM132.4,149.5h-4.5v3.8h4.5v-3.8ZM132.4,154.2h-4.5v4.1h4.5v-4.1ZM127.9,164h4.5v-4.7h-4.5v4.7ZM132.8,148.5c-.4-1.4-1.1-3.6-1.7-4.9l.6-.3c.9,1.3,1.8,3.2,2.4,4.6l-1.3.5h0ZM148.9,143.7c-.4,1.9-.9,4-1.6,5.9v17.5h-1.2v-14.6c-.8,1.7-1.7,3.2-2.8,4.5l-.5-.4c2.1-3,4-8.2,4.9-13.2l1.3.3h0ZM149.6,147.7h1.1v16.3h-1.1v-16.3ZM164.1,159.3l1.1.7c-2.6,3.7-8.3,6.5-13.9,7.1v-.7c5.6-.9,10.5-3.9,12.8-7.1h0ZM166,154.3l-.5,1.3c-2.6-.6-4.9-1.6-6.8-3-1.6,1.4-3.9,2.6-6.8,3.4l-.3-.7c2.6-.8,4.7-2,6.3-3.4-1.3-1.1-2.4-2.5-3.2-4.1-.7,1.3-1.5,2.5-2.4,3.5l-.5-.4c1.5-1.9,2.7-4.8,3.4-7.6l1.3.3c-.2.8-.5,1.6-.8,2.3h9.2v.9h-2.3c-.6,1.7-1.5,3.4-3,4.9,1.8,1.1,4,1.9,6.6,2.4ZM152.3,162.5c3.8-.9,7.4-3.3,9.3-5.8l1.1.7c-2.6,3.2-6.6,5.1-10.2,5.7l-.2-.6h0ZM152.8,159.1l-.2-.6c2.8-.8,5.2-2.5,6.5-4.1l1,.7c-1.8,2.1-4.6,3.4-7.4,4ZM158.6,151.3c1.2-1.3,2-2.7,2.6-4.3h-6c0,0,0,.2,0,.2,1,1.7,2.1,3,3.5,4.1ZM193,164.9v1h-22.7v-1h8v-14.9h-7.2v-.9h7.1c-.9-1.6-2.4-4-3.3-5.3l.5-.5c1.3,1.2,3.2,3.6,4.2,5.2l-.8.5h4.4c1-1.5,2.2-4.1,2.9-5.8l1.4.6c-.9,1.7-2.3,3.8-3.4,5.2h7.9v.9h-7.3v14.9h8.2ZM176.3,161l-1.5.4c-.5-2.6-1.5-6.3-2.4-8.8l.6-.3c1.3,2.5,2.6,6,3.3,8.8ZM183.5,150.1h-3.9v14.9h3.9v-14.9ZM186,161.3c1.2-2.3,2.6-5.9,3.4-8.7l1.4.6c-1,2.8-2.8,6.4-4.2,8.5l-.6-.4ZM57.3,195.2c-2,1.2-5.5,2.7-8,3.5l-.6-1.3c.7-.2,1.4-.4,2.2-.6v-7.5l1.2.4c1.9-.7,4.1-1.8,5.4-2.8l1,1c-1.5.9-4.2,2-6.4,2.5v6c1.8-.6,3.6-1.3,4.9-2-.4-1-.8-1.9-1.2-2.7l.6-.4c1,1.4,2.3,3.6,3,5.4l-1.2.5c-.2-.7-.5-1.5-.8-2.2h0ZM51.4,199.5h16.2v11.3h-1.2v-1.5h-13.8v1.5h-1.2v-11.3h0ZM52.7,203.7h6.2v-3.4h-6.2v3.4ZM52.7,208.3h6.2v-3.7h-6.2v3.7ZM68.8,188.8c-.1,3.8-.3,6-.5,7.7-.2,1.8-1.8,2.4-5.5.8l.2-.6c3.3.7,3.9.6,4-.7.2-1.3.3-3.6.4-6.3h-3.7c-.2,4.4-1.4,7.4-5.6,9.4l-.4-.6c3.4-1.9,4.5-4.4,4.7-8.8h-2.9v-.9h9.2ZM60.1,203.7h6.3v-3.4h-6.3v3.4ZM60.1,208.3h6.3v-3.7h-6.3v3.7ZM80.9,197.1v13.8h-1.3v-12.1c-1.3,1.5-2.7,2.8-4.2,3.8l-.4-.6c3.1-2.4,5.6-5.9,7.4-10h-6.6v-.9h7c.5-1.3,1-2.7,1.4-4.1l1.4.4c-.4,1.2-.8,2.5-1.3,3.7h13.6v.9h-14c-.8,1.8-1.8,3.6-2.9,5.1ZM98.1,202.8h-6.8v6.2c0,1.7-1.5,2.4-6.8.8l.2-.7c4.7.7,5.3.5,5.3-.8v-5.6h-7.5v-.9h7.5v-2.8l1,.2c1-1,2.1-2.3,2.8-3.4h-9.2v-.9h9.1l.7-.4,1.4,1c-1.4,1.9-3,3.3-4.5,4.3v1.9h6.8v.9h0ZM104.5,203h.7c-.2,2.7-.8,5.5-1.5,7.2l-1.3-.6c.9-1.9,1.7-4.1,2.1-6.6ZM110,196.7c.9,1.2,2.1,3.1,2.8,4.6l-1.2.6c-.2-.6-.5-1.3-.8-2-2.2.8-5.9,1.7-7.8,2l-.3-1.4c.4,0,.9,0,1.5-.2,1-1.2,2.5-3.1,3.8-5.3-1.6.4-3.6.8-4.8.9l-.3-1.3c.4,0,.9,0,1.4,0,.9-2,2-5.1,2.8-7.7l1.3.4c-.9,2.4-2.2,5.5-3.3,7.3,1.2,0,2.5-.2,3.5-.3.7-1.1,1.3-2.3,1.9-3.6l1.2.7c-1.7,3.3-4.4,6.8-6.3,8.8,1.8-.3,3.8-.6,5.2-.9-.4-.8-.8-1.6-1.1-2.2l.5-.4h0ZM107.4,202.6c.5,1.6,1.4,4.7,1.6,6.2l-1.4.3c-.2-1.7-.6-4.6-.9-6.3l.7-.2ZM109.6,201.8c.8,1.1,2.2,3.8,2.8,5.2l-1.3.6c-.5-1.5-1.6-4.3-2.1-5.5l.5-.3h0ZM122.7,209.9c-1.9.1-4.2.1-6.1,0-2.5-.2-3.1-.5-3.1-3.1v-10.7h8.5v-7h-9.6v-.9h10.9v11.3h-1.3v-2.6h-7.3v9.9c0,1.5.5,1.7,2,1.8,1.7.1,4,0,5.8,0,1.6-.1,1.7-.4,1.7-5.4h.7c.7,5.6.6,6.4-2.2,6.6h0ZM138.6,206.7l.2.7c-2.2.9-6.2,2.1-8.8,2.5l-.3-1.4c1.2-.1,2.7-.4,4.2-.7v-8.6h-3.9v-.9h3.9v-3h-2.8v-.7c-.5.5-1,1-1.5,1.4l-.4-.5c2.1-2.1,4.1-5.6,5.2-8.5l1.3.5c-.1.3-.2.7-.4,1,1.3,1,3.3,3,4.2,4.1l-1,.8c-.8-1.1-2.5-3.1-3.5-4.3-.9,1.8-2.2,3.7-3.6,5.3h6.8v.9h-2.9v3.1h3.7v.9h-3.7v8.3c1.3-.3,2.6-.6,3.5-.9h0ZM132.7,205.9l-1.2.2c-.2-1.6-.6-3.9-1-5.4l.6-.2c.6,1.5,1.3,3.8,1.6,5.3h0ZM136,205.6c.5-1.4,1.1-3.8,1.3-5.3l1.2.4c-.4,1.5-1.2,3.9-1.9,5.1l-.6-.2h0ZM151.1,207.3c-1.5-1.5-3.8-3.3-5.5-4.6v5.8c0,1.9-.8,2.9-5.9,1.3l.2-.6c3.9.5,4.5.3,4.5-1v-5.4c-1.4,1.3-3.5,2.8-5.3,3.7l-.6-1.2c1.9-.8,4.1-2.1,5.9-3.4v-4.9h-6.1v-.9h7.9c.2-.7.4-1.4.5-2.1h-5.4c-.2.5-.3.9-.5,1.3l-1.1-.2c.8-2.3,1.7-5.3,2.3-7.9l1.2.2c-.1.5-.3,1.1-.4,1.7h4.6l.4-.3,1.2.5c-.4,2.2-1,4.7-1.6,6.9h4.4v.9h-6.1v4.9c.2,0,.5.3.7.4,1.2-1.1,2.5-2.7,3.4-4.1l1.1.8c-1,1.2-2.6,2.7-3.9,3.6,1.8,1,3.8,2.4,5.1,3.5l-.9,1.2h0ZM142.9,201.7l-1,.7c-.7-1.3-1.7-2.9-2.5-4l.5-.5c1,1,2.4,2.6,3.1,3.7h0ZM146.9,193.1c.3-1.2.5-2.3.6-3.1h-5c-.3,1-.6,2.1-.9,3.1h5.3ZM165.5,206.7l1.1,1c-2.8,1.6-6.4,2.7-9.5,3.1l-.2-.7c3-.7,5.9-1.8,8.5-3.4ZM158.1,197.4l-.8-1c1.8-1.2,3.9-3,5.3-4.5l.5.4c-1.3,1.7-3.3,3.7-5,5.1h0ZM162.3,190.7c-1.6-1.1-3.3-1.9-4.5-2.6l.2-.6c1.4.4,3.3,1.1,5,2l-.7,1.1ZM160.4,197.2h15.3v9.3h-15.3v-9.3ZM161.7,199.9h12.8v-1.9h-12.8v1.9ZM161.7,202.7h12.8v-1.9h-12.8v1.9ZM161.7,205.6h12.8v-2h-12.8v2ZM164,193.5l-.5-.4c1.5-1.6,2.6-3.6,3.4-6.1l1.2.4c-.2.6-.5,1.2-.8,1.8h8.6l.6-.3,1.2.8c-.8,1.3-2,2.8-3.1,3.7l-.5-.4c.9-1,1.5-1.9,1.9-2.9h-4.2c-.1.5-.3,1-.5,1.5,2,2.7,4.6,3.7,7.9,4.3l-.5,1.3c-2.9-.6-5.9-2-7.8-4.9-1.5,2.8-4.6,4.1-7.9,4.6l-.2-.6c3.6-.7,6.9-2.5,7.7-6.1h-3.7c-.8,1.4-1.8,2.6-2.9,3.5h0ZM179.3,209.4l-.6,1.4c-2.3-1-6.2-2.4-8.9-3.3l.2-.7c2.7.5,6.7,1.6,9.3,2.6h0ZM190.4,198.5v12.4h-1.3v-11.5c-1.2,3.1-3.1,5.9-5,8l-.5-.4c1.9-2.3,4.1-6.2,5.1-10.2h-4.2v-.9h4.6v-8.7h1.3v8.7h4.1v.9h-4.1v.8c1.4,1.2,3.1,3.1,4.2,4.4l-1.1.9c-.7-1.2-2.1-3-3.1-4.4ZM186.6,194.8c-.4-1.5-1.2-3.8-1.8-5.3l.6-.3c.9,1.5,1.9,3.6,2.5,5.1l-1.2.4h0ZM191.9,194.9l-.5-.3c.6-1.2,1.5-3.5,2.1-5.4l1.2.5c-.7,1.9-1.9,4.1-2.7,5.2ZM203.5,202.6v8.2h-1.3v-7.9c-3.1.8-6.2,1.5-8.8,2l-.2-.9c2.7-.5,5.9-1.2,9-2v-14.8h1.3v14.5c1.1-.3,2.1-.5,3.1-.8l.2.9c-1.1.3-2.2.6-3.4.9ZM198.8,201c-.8-1.3-2.7-3.6-3.8-5l.4-.5c1.3,1.1,3.5,3.3,4.4,4.5l-1,.9ZM199.3,194.9c-.7-1.3-2.5-3.9-3.6-5.3l.4-.5c1.3,1.1,3.4,3.6,4.2,4.9l-1.1.8h0Z"/>
  <path fill="#bb7430" d="M138.1,96.4h-4v6.8h-3v-6.8h-13.3l16.2-23.6v22.2h4v1.4ZM131.1,95v-16.2l-11.2,16.2h11.2ZM119.7,62.2c0,.7-.3,1.3-.8,1.7-.5.4-1.1.6-1.7.6s-1.6-.2-2.2-.7l.3-.4c.6.6,1.2.8,1.9.8s1-.2,1.3-.5c.3-.3.5-.7.5-1.3,0-.9-.6-1.8-1.8-2.4-1.4-.8-2-1.7-2-2.8,0-.6.3-1,.7-1.3.4-.3.9-.5,1.6-.5.3,0,.5,0,.8.1.6.1,1,.4,1.2.8l-.3.3c-.1-.2-.3-.4-.6-.6-.3-.2-.7-.3-1.1-.3s-.8.1-1.1.4c-.3.2-.5.6-.5.9,0,.7.5,1.4,1.6,2.1.9.5,1.5,1.1,1.9,1.6.3.4.4,1,.4,1.5h0ZM126.4,55.7h-2.4v8.7h-.9v-8.7h-2.4v-.3h5.6v.3ZM132,64.4h-4.2v-9h4v.3h-3.2v3.6h2.9v.3h-2.9v4.5h3.3v.3h0ZM139.7,57.9c0,.7-.3,1.3-.9,1.7-.6.5-1.3.7-2.1.7h-.4v-.3h.3c.7,0,1.3-.2,1.7-.7.4-.4.6-.9.6-1.5,0-1.5-.8-2.2-2.5-2.2h-.9v8.7h-.9v-9c.4,0,1.1,0,2,0,2.1,0,3.1.8,3.1,2.4h0Z"/>
</svg>