<svg width="255" height="289" viewBox="0 0 255 289" fill="none" xmlns="http://www.w3.org/2000/svg">
<path d="M254.689 0H0V289H254.689V0Z" fill="url(#paint0_linear_2163_705)"/>
<path d="M73.7451 161.486H68.3221V167.283H67.0697V161.486H61.7229V160.595H67.0697V157.327H62.2347V156.437H65.5887C65.0551 155.471 64.1077 153.832 63.4652 152.789L64.0315 152.355C64.8482 153.202 66.1877 154.852 66.7431 155.829L65.7739 156.437H68.6706C69.2368 155.341 70.0535 153.582 70.4891 152.322L71.7741 152.909C71.1098 154.136 70.2931 155.46 69.5526 156.437H73.2116V157.327H68.3439V160.595H73.7669V161.486H73.7451ZM73.0482 151.79H61.9624V150.9H66.9827V147.687H62.605V146.796H66.9827V143.528H68.2349V146.796H72.482V147.687H68.2349V150.9H73.0482V151.79ZM83.0886 167.055C80.5295 166.567 80.4533 159.271 80.4533 153.3V150.184H77.0012V151.226C77.0012 153.213 76.8705 154.982 76.6745 156.535C78.0357 157.762 79.2336 159.01 79.8979 159.781L78.798 160.856C78.2862 160.085 77.4367 159.043 76.4458 157.946C75.3241 163.896 72.7868 166.198 71.1425 167.262L70.6525 166.73C72.6018 165.123 74.649 162.854 75.4113 156.85C74.6164 156.035 73.7669 155.189 72.9829 154.472L73.4403 153.908C74.1045 154.364 74.845 154.95 75.5637 155.569C75.6944 154.266 75.738 152.833 75.738 151.226V150.184H73.2334V149.293H75.738V143.648H76.9903V149.293H81.7273V153.224C81.6729 158.305 81.858 164.938 83.1865 165.524C83.6766 165.698 83.7746 165.09 83.7746 160.291H84.4171C85.0051 165.883 84.7002 167.359 83.0886 167.055Z" fill="black"/>
<path d="M97.4196 149.108C96.8097 150.411 95.7861 152.018 94.5229 153.625V167.337H93.2379V155.156C91.8332 156.708 90.2432 158.141 88.6315 159.108L88.2722 158.5C91.3976 156.198 94.4902 152.04 96.1564 148.446L97.4087 149.108H97.4196ZM89.3285 151.758L88.8929 151.193C91.2016 149.358 93.7062 146.297 95.1981 143.278L96.4286 143.962C94.7407 146.97 91.7134 150.238 89.3394 151.747L89.3285 151.758ZM111.685 152.68H106.665V164.753C106.665 167.098 105.772 167.923 99.7064 166.469L99.8371 165.785C104.443 166.295 105.369 166.241 105.369 164.59V152.691H98.3997V151.801H111.685V152.691V152.68ZM110.476 146.449H99.7718V145.558H110.476V146.449Z" fill="black"/>
<path d="M118.153 159.629L118.796 159.727C118.698 162.484 118.077 164.753 117.239 166.599L115.91 165.959C116.934 164.276 117.729 162.256 118.164 159.629H118.153ZM123.021 153.701C124.023 155.026 125.047 156.871 125.635 158.272L124.48 158.782C124.273 158.196 124.023 157.501 123.74 156.795C121.279 157.566 118.262 158.152 116.389 158.38L116.106 157.023C116.564 157.023 117.054 157.002 117.565 156.947C118.894 155.417 120.31 153.506 121.584 151.432C119.994 151.845 118.153 152.203 116.77 152.377L116.509 151.052C116.89 151.052 117.304 151.03 117.718 150.998C118.72 148.902 119.972 145.993 120.691 143.441L121.976 143.897C121.007 146.427 119.515 149.261 118.469 150.965C119.678 150.889 120.93 150.737 122.052 150.607C122.694 149.489 123.282 148.338 123.794 147.187L125.025 147.773C123.228 151.302 120.669 154.765 118.676 156.839C120.244 156.687 121.954 156.459 123.489 156.177C123.152 155.406 122.792 154.667 122.488 154.027L123.021 153.69V153.701ZM120.821 159.39C121.431 161.301 121.899 163.939 122.052 165.72L120.669 165.872C120.669 164.156 120.462 161.431 120.179 159.488L120.821 159.39ZM122.967 158.706C123.892 160.183 125.036 162.506 125.602 164.091L124.317 164.601C123.903 163.016 123.065 160.519 122.368 158.956L122.956 158.706H122.967ZM138.844 164.884H127.889V167.055H126.637V151.074C125.918 152.246 125.155 153.321 124.306 154.211L123.816 153.723C125.787 151.171 127.508 147.133 128.422 143.354L129.784 143.789C129.37 145.265 128.76 146.959 127.965 148.588H138.593V149.51H133.65V153.31H137.798V154.233H133.65V158.37H137.853V159.292H133.65V163.993H138.844V164.884ZM132.419 149.521H127.889V153.321H132.419V149.521ZM132.419 154.233H127.889V158.37H132.419V154.233ZM127.889 163.993H132.419V159.292H127.889V163.993ZM132.833 148.544C132.452 147.187 131.733 144.972 131.145 143.691L131.711 143.387C132.582 144.69 133.551 146.557 134.096 148.034L132.844 148.544H132.833Z" fill="black"/>
<path d="M148.928 143.745C148.569 145.656 148.035 147.697 147.338 149.673V167.164H146.129V152.583C145.334 154.244 144.409 155.775 143.287 157.056L142.753 156.622C144.855 153.658 146.75 148.457 147.621 143.452L148.928 143.756V143.745ZM149.592 147.654H150.725V163.939H149.592V147.654ZM164.108 159.314L165.23 160.031C162.671 163.711 156.932 166.545 151.302 167.098L151.171 166.436C156.856 165.546 161.843 162.582 164.097 159.314H164.108ZM165.981 154.342L165.524 155.644C162.91 155.036 160.613 154.059 158.685 152.637C157.052 154.038 154.819 155.264 151.879 156.079L151.618 155.416C154.199 154.602 156.3 153.43 157.89 151.975C156.605 150.857 155.538 149.521 154.689 147.914C154.003 149.239 153.153 150.444 152.26 151.389L151.748 151.009C153.208 149.065 154.493 146.188 155.124 143.452L156.376 143.789C156.17 144.56 155.886 145.341 155.56 146.134H164.729V147.024H162.399C161.832 148.739 160.917 150.422 159.426 151.921C161.244 153.071 163.389 153.81 165.981 154.342ZM152.26 162.484C156.072 161.561 159.611 159.216 161.604 156.687L162.682 157.425C160.123 160.595 156.072 162.484 152.445 163.114L152.271 162.473L152.26 162.484ZM152.772 159.086L152.565 158.5C155.331 157.686 157.738 156.046 159.099 154.385L160.123 155.08C158.304 157.143 155.516 158.5 152.772 159.086ZM158.554 151.302C159.731 150.021 160.602 148.566 161.113 147.013H155.146C155.124 147.089 155.07 147.165 155.048 147.241C156.017 148.957 157.171 150.249 158.554 151.302Z" fill="black"/>
<path d="M193.009 164.938V165.904H170.293V164.938H178.33V150.053H171.132V149.108H178.276C177.426 147.502 175.891 145.124 174.943 143.821L175.477 143.365C176.805 144.592 178.679 146.97 179.68 148.576L178.885 149.108H183.285C184.254 147.599 185.517 145.048 186.225 143.289L187.608 143.93C186.715 145.591 185.332 147.708 184.178 149.108H192.116V150.053H184.799V164.938H192.988H193.009ZM176.315 161.029L174.834 161.388C174.377 158.804 173.321 155.112 172.406 152.55L173.016 152.246C174.268 154.721 175.608 158.25 176.315 161.029ZM183.535 150.053H179.615V164.938H183.535V150.053ZM185.996 161.279C187.227 158.956 188.588 155.384 189.372 152.55L190.81 153.136C189.786 155.916 187.989 159.542 186.584 161.637L185.996 161.279Z" fill="black"/>
<path d="M57.2799 195.24C55.2326 196.467 51.8024 197.976 49.2651 198.79L48.677 197.509C49.3413 197.357 50.0818 197.151 50.8332 196.923V189.464L52.042 189.844C53.915 189.182 56.1365 188.085 57.465 187.032L58.5105 188.031C57.0295 188.921 54.2852 190.018 52.0855 190.506V196.532C53.8823 195.924 55.6683 195.207 57.0295 194.567C56.6157 193.601 56.1801 192.656 55.7989 191.885L56.3652 191.527C57.3889 192.928 58.6194 195.153 59.3163 196.89L58.0858 197.422C57.8788 196.706 57.5957 195.967 57.2908 195.229L57.2799 195.24ZM51.443 199.474H67.647V210.733H66.4382V209.256H52.6627V210.765H51.4321V199.485L51.443 199.474ZM52.6736 203.741H58.8916V200.375H52.6736V203.741ZM52.6736 208.333H58.8916V204.631H52.6736V208.333ZM68.7577 188.78C68.627 192.58 68.4746 194.751 68.2677 196.489C68.039 198.28 66.5035 198.866 62.7901 197.303L63.0188 196.662C66.2966 197.379 66.8846 197.249 67.0589 195.946C67.244 194.621 67.3965 192.374 67.4401 189.692H63.7049C63.5198 194.111 62.3001 197.118 58.0967 199.083L57.7373 198.519C61.1131 196.63 62.2674 194.133 62.4525 189.681H59.5559V188.758H68.7468L68.7577 188.78ZM60.1221 203.741H66.4491V200.375H60.1221V203.741ZM60.1221 208.333H66.4491V204.631H60.1221V208.333Z" fill="black"/>
<path d="M80.9107 197.107V210.895H79.6583V198.747C78.406 200.256 76.9904 201.558 75.4549 202.546L75.0193 201.982C78.0902 199.583 80.5731 196.054 82.3699 191.972H75.738V191.082H82.7292C83.2628 189.757 83.7311 188.378 84.1123 186.967L85.4735 187.379C85.1141 188.628 84.6785 189.876 84.1885 191.082H97.7898V191.972H83.8073C82.9906 193.785 82.0105 195.522 80.9107 197.107ZM98.1382 202.796H91.3539V208.974C91.3539 210.711 89.8729 211.373 84.5696 209.821L84.7221 209.126C89.3829 209.842 90.0689 209.658 90.0689 208.355V202.785H82.5441V201.862H90.0689V199.051L91.0925 199.3C92.138 198.28 93.1943 197.031 93.8586 195.935H84.6676V195.044H93.7279L94.3922 194.686L95.7969 195.652C94.4357 197.52 92.7805 198.996 91.3431 199.995V201.862H98.1273V202.785L98.1382 202.796Z" fill="black"/>
<path d="M104.53 203.024L105.195 203.154C105.042 205.684 104.432 208.485 103.714 210.222L102.407 209.582C103.333 207.693 104.095 205.467 104.53 203.024ZM109.964 196.716C110.912 197.889 112.044 199.778 112.785 201.309L111.576 201.895C111.347 201.287 111.064 200.614 110.781 199.93C108.581 200.744 104.922 201.613 102.995 201.917L102.657 200.538C103.093 200.516 103.605 200.462 104.193 200.386C105.238 199.213 106.676 197.324 108.037 195.131C106.48 195.544 104.476 195.924 103.202 196.076L102.919 194.773C103.333 194.773 103.79 194.751 104.302 194.697C105.227 192.678 106.295 189.638 107.068 186.967L108.375 187.401C107.482 189.822 106.142 192.862 105.042 194.675C106.251 194.577 107.525 194.447 108.527 194.339C109.191 193.22 109.834 192.015 110.422 190.788L111.598 191.451C109.877 194.74 107.188 198.291 105.249 200.234C107.046 199.973 109.039 199.626 110.498 199.311C110.117 198.464 109.736 197.683 109.42 197.064L109.954 196.705L109.964 196.716ZM107.405 202.59C107.939 204.218 108.788 207.291 109.039 208.767L107.634 209.05C107.46 207.389 107.046 204.479 106.741 202.742L107.405 202.59ZM109.627 201.819C110.4 202.948 111.827 205.619 112.447 206.976L111.195 207.584C110.683 206.108 109.605 203.296 109.093 202.09L109.627 201.808V201.819ZM122.695 209.897C120.8 210.027 118.491 210.027 116.575 209.918C114.092 209.766 113.482 209.462 113.504 206.857V196.163H122.052V189.192H112.426V188.302H123.304V199.615H122.052V197.064H114.778V206.998C114.756 208.507 115.235 208.659 116.803 208.757C118.546 208.887 120.8 208.833 122.564 208.735C124.197 208.605 124.274 208.322 124.252 203.296H124.916C125.602 208.887 125.504 209.701 122.695 209.907V209.897Z" fill="black"/>
<path d="M138.615 206.705L138.79 207.367C136.612 208.312 132.572 209.517 129.958 209.897L129.653 208.54C130.884 208.409 132.365 208.16 133.857 207.845V199.268H129.991V198.378H133.857V195.338H131.014V194.654C130.524 195.164 130.045 195.62 129.555 196.011L129.12 195.522C131.243 193.449 133.214 189.931 134.27 187.043L135.555 187.499C135.425 187.836 135.305 188.161 135.12 188.52C136.448 189.562 138.419 191.505 139.291 192.634L138.289 193.427C137.516 192.33 135.806 190.311 134.837 189.138C133.944 190.897 132.659 192.841 131.232 194.426H138.017V195.316H135.098V198.378H138.757V199.268H135.098V207.595C136.427 207.313 137.679 206.987 138.626 206.705H138.615ZM132.67 205.858L131.439 206.086C131.232 204.533 130.797 202.21 130.47 200.701L131.08 200.516C131.69 201.993 132.386 204.316 132.67 205.847V205.858ZM136.024 205.554C136.481 204.175 137.102 201.776 137.352 200.299L138.528 200.658C138.147 202.134 137.298 204.512 136.655 205.793L136.013 205.565L136.024 205.554ZM151.106 207.313C149.592 205.836 147.316 204.023 145.628 202.742V208.561C145.628 210.45 144.834 211.417 139.737 209.864L139.89 209.256C143.832 209.788 144.398 209.593 144.398 208.236V202.818C143.015 204.143 140.891 205.597 139.127 206.52L138.517 205.326C140.467 204.533 142.666 203.252 144.409 201.928V197.031H138.267V196.108H146.206C146.391 195.446 146.565 194.708 146.739 193.991H141.305C141.153 194.447 141 194.882 140.848 195.294L139.748 195.066C140.565 192.743 141.436 189.779 142.078 187.173L143.233 187.401C143.102 187.933 142.982 188.52 142.797 189.117H147.436L147.817 188.78L149.026 189.236C148.59 191.429 148.002 193.905 147.382 196.108H151.792V197.031H145.65V201.928C145.879 202.026 146.108 202.188 146.369 202.308C147.545 201.211 148.874 199.604 149.777 198.247L150.91 199.062C149.941 200.212 148.296 201.765 146.99 202.666C148.786 203.708 150.779 205.065 152.064 206.162L151.139 207.313H151.106ZM142.917 201.7L141.871 202.416C141.153 201.092 140.129 199.507 139.367 198.432L139.857 197.976C140.902 198.942 142.209 200.56 142.928 201.7H142.917ZM146.935 193.09C147.218 191.918 147.425 190.789 147.578 189.974H142.558C142.274 191.017 141.948 192.091 141.61 193.09H146.935Z" fill="black"/>
<path d="M165.546 206.673L166.646 207.639C163.803 209.246 160.264 210.32 157.171 210.755L157.019 210.092C160.035 209.408 162.91 208.279 165.546 206.673ZM158.119 197.433L157.324 196.413C159.164 195.186 161.19 193.449 162.671 191.896L163.128 192.331C161.821 194.046 159.829 196.054 158.108 197.433H158.119ZM162.344 190.745C160.711 189.671 159.088 188.835 157.814 188.194L158.043 187.586C159.426 187.999 161.342 188.715 163.008 189.627L162.344 190.745ZM160.417 197.184H175.673V206.499H160.417V197.184ZM161.68 199.93H174.432V198.063H161.68V199.93ZM161.68 202.666H174.432V200.799H161.68V202.666ZM161.68 205.576H174.432V203.557H161.68V205.576ZM163.956 193.481L163.466 193.047C164.947 191.495 166.079 189.399 166.896 186.924L168.105 187.304C167.876 187.89 167.615 188.498 167.31 189.095H175.913L176.501 188.813L177.731 189.627C176.882 190.952 175.684 192.461 174.584 193.308L174.094 192.873C174.944 191.875 175.553 190.93 176.043 189.964H171.796C171.666 190.496 171.513 191.006 171.306 191.495C173.277 194.176 175.913 195.219 179.245 195.761L178.733 197.064C175.869 196.5 172.82 195.099 170.98 192.135C169.444 194.893 166.341 196.25 163.041 196.706L162.834 196.065C166.471 195.327 169.716 193.612 170.511 189.964H166.82C166.003 191.343 164.979 192.591 163.956 193.492V193.481ZM179.289 209.43L178.679 210.787C176.348 209.767 172.482 208.366 169.793 207.519L170 206.835C172.744 207.367 176.653 208.421 179.299 209.441L179.289 209.43Z" fill="black"/>
<path d="M190.374 198.454V210.831H189.122V199.29C187.946 202.427 185.996 205.239 184.134 207.335L183.623 206.901C185.496 204.599 187.695 200.701 188.741 196.662H184.537V195.794H189.122V187.108H190.374V195.794H194.469V196.662H190.374V197.509C191.779 198.736 193.521 200.593 194.545 201.95L193.467 202.818C192.748 201.613 191.398 199.811 190.374 198.454ZM186.606 194.752C186.193 193.243 185.398 190.973 184.788 189.464L185.354 189.182C186.247 190.637 187.271 192.787 187.815 194.317L186.617 194.752H186.606ZM191.888 194.86L191.354 194.556C191.942 193.384 192.89 191.028 193.423 189.171L194.599 189.627C193.859 191.571 192.683 193.764 191.888 194.86ZM203.507 202.59V210.787H202.222V202.894C199.151 203.665 196.026 204.371 193.412 204.859L193.184 203.991C195.873 203.481 199.042 202.742 202.222 201.95V187.174H203.507V201.646C204.585 201.364 205.631 201.114 206.654 200.832L206.861 201.722C205.783 202.004 204.662 202.286 203.507 202.59ZM198.77 200.984C197.975 199.713 196.102 197.336 194.981 196L195.416 195.544C196.723 196.619 198.923 198.888 199.816 200.093L198.77 200.984ZM199.282 194.882C198.563 193.557 196.777 190.973 195.721 189.627L196.157 189.171C197.463 190.3 199.565 192.797 200.382 194.046L199.282 194.893V194.882Z" fill="black"/>
<path d="M138.082 96.3658H134.041V103.173H131.09V96.3658H117.827L134.041 72.7412V94.987H138.082V96.3658ZM131.09 94.9979V78.8102L119.918 94.9979H131.09Z" fill="#BB7430"/>
<path d="M119.743 62.2423C119.743 62.948 119.471 63.5234 118.938 63.9577C118.458 64.3485 117.881 64.544 117.228 64.544C116.389 64.544 115.649 64.2943 115.006 63.8057L115.279 63.3931C115.856 63.9468 116.509 64.2183 117.228 64.2183C117.761 64.2183 118.197 64.0554 118.535 63.7406C118.872 63.4257 119.036 62.9914 119.036 62.4377C119.036 61.4932 118.426 60.6789 117.195 60.0058C115.812 59.2349 115.159 58.3121 115.213 57.2156C115.246 56.6619 115.475 56.2167 115.921 55.8802C116.346 55.5545 116.868 55.3916 117.5 55.3916C117.772 55.4025 118.023 55.4459 118.251 55.511C118.818 55.6522 119.232 55.9127 119.493 56.271L119.166 56.5967C119.025 56.3904 118.829 56.195 118.567 56.0322C118.219 55.8042 117.859 55.6847 117.478 55.6847C117.043 55.6847 116.672 55.8042 116.368 56.0539C116.063 56.2927 115.899 56.6076 115.867 56.9876C115.812 57.7367 116.335 58.4315 117.446 59.0829C118.349 59.6041 118.97 60.1469 119.33 60.6898C119.613 61.124 119.754 61.6452 119.754 62.2315L119.743 62.2423Z" fill="#BB7430"/>
<path d="M126.397 55.7392H124.034V64.4573H123.152V55.7392H120.767V55.4678H126.397V55.7392Z" fill="#BB7430"/>
<path d="M132.049 64.4465H127.856V55.457H131.897V55.7285H128.728V59.3655H131.581V59.6369H128.728V64.1643H132.049V64.4357V64.4465Z" fill="#BB7430"/>
<path d="M139.693 57.8998C139.693 58.5838 139.399 59.1701 138.822 59.6478C138.234 60.1255 137.548 60.3535 136.742 60.3426C136.568 60.3426 136.416 60.3426 136.296 60.3426V60.0712H136.557C137.276 60.0712 137.842 59.8541 138.256 59.4198C138.637 59.0289 138.833 58.5187 138.833 57.889C138.833 56.4233 137.995 55.7067 136.318 55.7284H135.425V64.4574H134.564V55.4787C135 55.4787 135.664 55.4679 136.579 55.4679C138.67 55.457 139.704 56.2713 139.704 57.9107L139.693 57.8998Z" fill="#BB7430"/>
<defs>
<linearGradient id="paint0_linear_2163_705" x1="0" y1="0" x2="254.689" y2="0" gradientUnits="userSpaceOnUse">
<stop stop-color="white" stop-opacity="0"/>
<stop offset="0.03" stop-color="white" stop-opacity="0.05"/>
<stop offset="0.19" stop-color="white" stop-opacity="0.3"/>
<stop offset="0.34" stop-color="white" stop-opacity="0.51"/>
<stop offset="0.5" stop-color="white" stop-opacity="0.69"/>
<stop offset="0.64" stop-color="white" stop-opacity="0.82"/>
<stop offset="0.78" stop-color="white" stop-opacity="0.92"/>
<stop offset="0.9" stop-color="white" stop-opacity="0.98"/>
<stop offset="1" stop-color="white"/>
</linearGradient>
</defs>
</svg>
