<svg width="255" height="289" viewBox="0 0 255 289" fill="none" xmlns="http://www.w3.org/2000/svg">
<path d="M254.689 0H0V289H254.689V0Z" fill="url(#paint0_linear_2163_706)"/>
<path d="M21.2352 147.893L20.7996 147.361C23.3913 144.94 25.689 141.184 26.8651 137.579L28.3244 138.035C27.9977 138.904 27.5295 139.902 26.9632 140.923H42.8404V141.846H26.4296C25.1011 144.039 23.3369 146.286 21.2352 147.893ZM39.8457 156.655H43.2978V157.523H39.7368C39.6606 158.164 39.6061 158.772 39.5299 159.336C39.2249 161.714 37.7113 162.55 32.1249 160.769L32.31 160.129C37.1232 160.9 38.0163 160.813 38.2776 158.848L38.43 157.523H25.2207L24.8614 159.336L23.6091 159.184C24.0991 157.013 24.6327 154.179 25.1228 151.324H21.3876V150.434H25.2534C25.6128 148.393 25.9178 146.373 26.1465 144.56H40.7713C40.6733 146.601 40.5427 148.588 40.412 150.434H43.8423L43.8641 151.324H40.3357C40.1832 153.267 39.9982 155.08 39.8457 156.655ZM38.539 156.655C38.7132 155.124 38.8765 153.289 39.029 151.324H26.3751C26.0375 153.159 25.7108 155.026 25.4059 156.655H38.539ZM26.5385 150.423H39.1051C39.2358 148.816 39.3339 147.133 39.4101 145.45H27.3007C27.0938 146.927 26.8107 148.664 26.5276 150.423H26.5385ZM35.675 154.657L35.0107 155.83C33.7802 155.015 30.6874 153.408 29.1955 152.714L29.4025 152.073C31.0142 152.529 34.2702 153.832 35.675 154.657ZM35.5443 148.479L34.88 149.63C33.6822 148.762 31.3517 147.557 29.8598 146.851L30.1103 146.189C31.6676 146.677 34.2049 147.698 35.5334 148.49L35.5443 148.479Z" fill="black"/>
<path d="M66.8306 139.5V159.336C66.8306 161.453 65.2189 162.375 59.5562 160.66L59.6869 159.976C64.6526 160.747 65.5021 160.508 65.5021 158.858V152.072H54.1876C53.8283 156.458 52.7284 159.455 49.8099 161.876L49.3198 161.344C52.9788 157.848 53.0333 152.127 53.0333 146.742V139.522H66.8306V139.5ZM65.5021 151.139V146.166H54.3618V146.959C54.3618 148.49 54.34 149.868 54.2638 151.149H65.5021V151.139ZM54.3618 140.445V145.265H65.5021V140.445H54.3618Z" fill="black"/>
<path d="M81.521 154.971H86.6174V155.894H81.521V161.789H80.2687V155.894H75.2485V154.971H80.2687V151.649H75.9455V150.726H78.7877C78.2759 149.554 77.383 147.762 76.7949 146.72L77.3285 146.383C78.1997 147.35 79.4084 149.119 79.9964 150.292L79.147 150.726H81.6517C82.3378 149.499 83.1326 147.762 83.6227 146.492L84.8532 147.078C84.2652 148.175 83.3396 149.63 82.4684 150.726H85.8224V151.649H81.521V154.971ZM86.5085 146.188H75.2921V145.265H80.2034V142.431H76.0326V141.509H80.2034V138.11H81.4556V141.509H85.8333V142.431H81.4556V145.265H86.4976V146.188H86.5085ZM98.117 160.15L97.322 161.431C95.9173 160.562 94.5779 159.488 93.4018 158.065C92.3564 159.498 91.0931 160.649 89.5904 161.637L89.1765 161.051C90.614 159.954 91.79 158.706 92.7374 157.197C91.4088 155.308 90.3526 152.887 89.819 149.662H88.5885V161.789H87.3361V139.533H96.1133C96.1133 141.498 96.0914 143.311 96.037 144.918C95.939 146.731 94.6758 147.317 90.3308 146.123L90.4615 145.46C94.3273 145.992 94.7085 145.764 94.763 144.614C94.8174 143.365 94.8392 141.856 94.8392 140.423H88.5885V148.794H94.8828L95.3945 148.457L96.6251 148.87C96.1677 152.365 95.3184 154.949 94.0878 157.012C95.2966 158.315 96.6469 159.314 98.1061 160.15H98.117ZM93.3473 156.111C94.2184 154.352 94.8609 152.257 95.2203 149.651H90.5051C91.1149 152.409 92.0949 154.472 93.3473 156.111Z" fill="black"/>
<path d="M108.222 138.295C107.863 140.206 107.329 142.247 106.632 144.223V161.713H105.424V147.133C104.629 148.794 103.714 150.325 102.581 151.606L102.048 151.171C104.15 148.207 106.044 143.007 106.916 138.002L108.222 138.306V138.295ZM108.887 142.204H110.008V158.489H108.887V142.204ZM123.403 153.864L124.524 154.58C121.965 158.261 116.226 161.095 110.596 161.648L110.466 160.986C116.15 160.096 121.138 157.132 123.403 153.864ZM125.276 148.891L124.818 150.194C122.205 149.586 119.896 148.609 117.98 147.187C116.346 148.587 114.114 149.814 111.173 150.629L110.923 149.966C113.504 149.152 115.606 147.979 117.196 146.525C115.911 145.406 114.843 144.071 113.994 142.464C113.308 143.789 112.458 144.994 111.565 145.938L111.054 145.558C112.513 143.615 113.798 140.738 114.429 138.002L115.682 138.339C115.475 139.109 115.192 139.891 114.865 140.684H124.034V141.574H121.704C121.138 143.289 120.223 144.972 118.731 146.47C120.55 147.621 122.706 148.359 125.287 148.891H125.276ZM111.555 157.034C115.366 156.111 118.905 153.766 120.898 151.237L121.976 151.975C119.417 155.145 115.366 157.034 111.729 157.664L111.555 157.023V157.034ZM112.066 153.636L111.86 153.05C114.626 152.235 117.032 150.596 118.393 148.935L119.417 149.63C117.598 151.693 114.811 153.05 112.066 153.636ZM117.849 145.851C119.025 144.57 119.896 143.116 120.408 141.563H114.44C114.419 141.639 114.364 141.715 114.342 141.791C115.312 143.506 116.466 144.798 117.849 145.851Z" fill="black"/>
<path d="M133.204 148.327H147.545C147.284 152.898 146.772 158.109 146.467 159.662C146.108 161.605 144.474 162.289 138.627 160.509L138.779 159.846C144.311 160.737 144.975 160.563 145.204 159.108C145.487 157.425 145.923 153.007 146.13 149.304H139.476C138.986 154.765 136.884 159.521 130.361 161.888L130.056 161.247C135.795 158.641 137.636 154.407 138.148 149.304H133.16V148.382C132.158 149.38 130.982 150.292 129.599 151.085L129.24 150.499C133.313 147.643 135.382 143.887 136.59 139.544L137.973 139.957C137.124 142.79 135.697 145.83 133.215 148.327H133.204ZM152.533 148.946L151.683 150.379C147.741 148.11 145.411 145.2 144.355 140.043H139.443V139.077H144.997C145.814 143.42 147.97 146.764 152.522 148.957L152.533 148.946Z" fill="black"/>
<path d="M162.747 147.176V161.605H161.495V147.817C160.417 150.727 158.402 154.277 156.91 155.938L156.399 155.482C157.956 153.419 160.526 148.36 161.364 144.451H157.139V143.561H161.495V138.176H162.747V143.561H166.689V144.451H162.747V146.21C164.032 147.437 165.666 149.218 166.537 150.423L165.535 151.237C164.74 149.934 163.586 148.349 162.747 147.176ZM179.42 146.514V147.437H175.575V161.779H174.323V147.437H168.791V147.567C168.791 153.213 168.454 158.413 164.74 161.736L164.25 161.247C166.962 158.337 167.473 154.071 167.506 147.763V140.304L168.737 140.814C171.122 140.358 174.704 139.153 176.828 137.959L177.753 139.056C175.194 140.282 171.296 141.249 168.791 141.553V146.503H179.42V146.514Z" fill="black"/>
<path d="M188.883 147.057V161.735H187.652V147.926C186.803 150.781 185.529 153.669 184.091 155.634L183.525 155.2C185.039 152.703 186.596 148.664 187.391 144.549H183.982V143.659H187.641V138.089H188.872V143.659H192.128V144.549H188.872V145.852C190.004 147.328 191.093 148.913 191.866 150.499L190.712 151.085C190.179 149.76 189.536 148.349 188.872 147.057H188.883ZM194.981 157.013C194.055 158.978 192.596 160.454 190.374 161.583L190.048 160.997C192.531 159.466 193.968 157.425 194.611 154.005L195.917 154.266C195.765 155.004 195.558 155.666 195.308 156.307C196.484 157.121 197.714 158.142 198.531 159.043L197.583 159.988C196.919 159.065 195.917 157.946 194.992 157.024L194.981 157.013ZM206.916 145.624L206.175 146.981C203.279 145.602 200.393 142.953 198.542 139.935C197.54 141.77 196.135 143.485 194.6 144.864H202.691V145.754H194.295V145.114C193.195 146.058 192.041 146.851 190.886 147.415L190.527 146.829C193.674 144.94 196.495 141.694 197.954 137.97L199.282 138.404C199.152 138.686 199.054 138.969 198.901 139.251C200.872 142.008 203.638 144.234 206.916 145.635V145.624ZM197.54 153.408H192.389V148.002H197.54V153.408ZM196.407 148.87H193.543V152.551H196.407V148.87ZM206.067 160.433L204.989 161.377C204.117 160.096 202.811 158.544 201.58 157.295C200.709 159.13 199.402 160.563 197.583 161.659L197.202 161.095C199.326 159.488 200.633 157.469 201.275 154.027L202.604 154.255C202.418 155.124 202.168 155.916 201.863 156.654C203.268 157.675 204.989 159.238 206.067 160.433ZM204.629 153.408H199.326V148.002H204.629V153.408ZM203.475 148.87H200.48V152.551H203.475V148.87Z" fill="black"/>
<path d="M218.764 152.333C218.154 151.128 217.098 149.401 216.281 148.023V161.854H215.029V148.576C214.158 151.312 212.622 154.472 211.239 156.263L210.706 155.829C212.089 153.733 214.158 148.88 214.931 144.831H211.315V143.94H215.029V137.991H216.281V143.94H220.201V144.831H216.281V146.872C217.403 148.153 219.025 150.292 219.842 151.692L218.764 152.333ZM233.999 160.79L232.899 161.789C231.745 160.237 229.926 158.217 228.336 156.708C226.006 158.804 223.087 160.638 219.472 161.865L219.189 161.225C225.407 158.825 229.861 154.482 232.322 149.173L233.552 149.836C232.507 151.985 230.939 154.2 228.87 156.198C230.71 157.577 232.736 159.39 233.988 160.79H233.999ZM224.492 143.224H219.374V142.301H227.16C226.191 141.053 224.808 139.391 223.784 138.371L224.22 137.839C225.625 138.838 227.269 140.39 228.369 141.595L227.596 142.312H233.814V143.235H226.006C225.004 145.102 223.577 147.447 222.445 148.848C224.394 148.826 226.365 148.717 227.922 148.587C228.586 147.567 229.153 146.492 229.643 145.374L230.928 145.906C228.88 150.346 224.906 154.711 219.581 157.11L219.243 156.502C222.521 154.765 225.309 152.344 227.356 149.434C225.08 149.868 222.238 150.118 220.114 150.227L219.853 148.869H221.519C222.412 147.512 223.828 144.918 224.492 143.224Z" fill="black"/>
<path d="M21.7142 183.59H34.2919V184.481H27.8888C27.6819 185.859 27.3225 187.26 26.7889 188.639H31.1448L31.5804 188.281L33.0396 188.791C31.8635 196.271 28.8144 202.036 21.3331 205.532L20.9956 204.924C27.8888 201.146 30.4696 195.761 31.3625 189.529H26.4187C26.0049 190.495 25.5256 191.418 24.9812 192.308C26.1137 193.231 27.4096 194.502 28.2808 195.598L27.1264 196.543C26.4839 195.5 25.4604 194.046 24.5348 192.971C23.6854 194.274 22.7161 195.446 21.6381 196.391L21.1479 195.88C23.9139 192.895 25.8087 188.574 26.4512 184.47H21.6924V183.579L21.7142 183.59ZM36.753 199.007H35.5443V184.557H36.753V199.007ZM42.3613 181.799V202.959C42.3613 205.109 41.1088 205.814 35.5768 204.36L35.7075 203.719C40.6732 204.305 41.0871 204.023 41.0871 202.698V181.788H42.372L42.3613 181.799Z" fill="black"/>
<path d="M59.4257 184.502H52.0534V183.481H60.5583C60.4821 192.134 64.141 199.799 71.2847 203.806L70.2393 205.391C65.1429 202.535 61.1791 196.325 60.199 189.073C59.0447 195.402 54.7431 202.014 48.242 205.358L47.8608 204.718C53.8829 201.07 58.7179 194.382 59.4366 184.502H59.4257Z" fill="black"/>
<path d="M75.303 196.217L74.8892 195.652C78.3739 192.819 80.8785 188.66 82.3377 183.373L83.7751 183.905C82.2179 189.04 79.2124 193.709 75.303 196.206V196.217ZM90.0258 195.609C92.3017 198.008 94.8935 201.428 96.3201 203.936L94.9153 204.75C94.3817 203.676 93.6631 202.427 92.8681 201.124C88.6647 202.297 81.5537 203.372 77.6116 203.676L77.2521 202.123C78.0144 202.101 78.9183 202.047 79.8657 201.971C81.8368 199.311 84.2651 194.512 85.3976 190.691L86.9113 191.223C85.6046 194.947 83.0238 199.311 80.8894 201.895C84.7553 201.591 89.4161 201.005 92.4325 200.44C91.4633 198.909 90.407 197.379 89.4596 196.076L90.0258 195.62V195.609ZM98.4219 194.306L97.4745 195.783C93.7066 193.535 90.9951 189.757 89.9714 184.166H85.6482V183.275H90.6139C91.6157 188.53 94.3055 192.189 98.4219 194.306Z" fill="black"/>
<path d="M122.847 183.308V202.937C122.847 204.902 121.638 206.281 114.887 204.164L115.039 203.501C120.952 204.424 121.573 204.142 121.573 202.372V184.198H103.387V183.308H122.847ZM118.437 188.584H104.433V187.694H118.437V188.584ZM114.985 198.779H107.351V201.026H106.099V191.917H116.237V200.44H114.985V198.779ZM114.985 197.878V192.797H107.351V197.878H114.985Z" fill="black"/>
<path d="M134.619 190.712V205.391H133.388V191.581C132.539 194.436 131.265 197.324 129.828 199.289L129.261 198.855C130.775 196.358 132.332 192.319 133.127 188.204H129.719V187.314H133.378V181.744H134.608V187.314H137.864V188.204H134.608V189.507C135.73 190.984 136.83 192.569 137.603 194.154L136.448 194.74C135.915 193.416 135.272 192.004 134.608 190.712H134.619ZM140.706 200.668C139.781 202.633 138.322 204.11 136.1 205.239L135.762 204.653C138.245 203.122 139.683 201.081 140.325 197.661L141.632 197.921C141.479 198.659 141.273 199.322 141.022 199.962C142.198 200.777 143.429 201.797 144.246 202.698L143.298 203.643C142.634 202.72 141.632 201.602 140.706 200.679V200.668ZM152.641 189.279L151.901 190.636C149.004 189.257 146.119 186.608 144.267 183.59C143.265 185.425 141.861 187.14 140.325 188.519H148.416V189.409H140.02V188.769C138.92 189.713 137.766 190.506 136.612 191.071L136.252 190.484C139.4 188.595 142.22 185.349 143.679 181.625L145.008 182.059C144.877 182.342 144.779 182.624 144.627 182.906C146.598 185.664 149.364 187.879 152.641 189.29V189.279ZM143.265 197.064H138.115V191.657H143.265V197.064ZM142.144 192.514H139.28V196.195H142.144V192.514ZM151.792 204.088L150.714 205.033C149.843 203.751 148.536 202.199 147.306 200.95C146.434 202.785 145.128 204.218 143.309 205.315L142.928 204.75C145.051 203.143 146.358 201.124 147.001 197.682L148.329 197.91C148.155 198.779 147.894 199.571 147.589 200.31C148.994 201.33 150.714 202.894 151.792 204.088ZM150.366 197.064H145.062V191.657H150.366V197.064ZM149.211 192.514H146.217V196.195H149.211V192.514Z" fill="black"/>
<path d="M161.854 186.315H166.668V187.238H156.605V186.315H161.517C160.983 185.089 160.036 183.123 159.339 181.897L159.927 181.517C160.82 182.559 162.072 184.557 162.769 185.881L161.843 186.315H161.854ZM157.499 189.942H165.339V190.788H157.499V189.942ZM157.499 193.416H165.339V194.263H157.499V193.416ZM157.782 196.988H165.154V204.848H164V203.22H158.958V205.13H157.782V196.988ZM158.958 202.351H163.978V197.856H158.958V202.351ZM179.594 189.073H176.392V203.372C176.392 205.489 174.65 206.053 169.739 204.37L169.891 203.73C174.094 204.501 175.14 204.446 175.14 202.959V189.073H166.711V188.183H175.14V181.669H176.392V188.183H179.594V189.073ZM170.784 198.215C170.098 196.608 168.552 193.698 167.561 191.961L168.072 191.548C169.379 193.155 171.296 196.043 171.993 197.552L170.795 198.215H170.784Z" fill="black"/>
<path d="M192.781 186.88H183.743V185.957H188.229C187.543 184.654 186.487 182.895 185.823 181.896L186.334 181.44C187.304 182.439 188.796 184.22 189.514 185.371L188.643 185.957H192.792V186.88H192.781ZM184.734 190.321V189.475H191.779V190.321H184.734ZM191.801 193.72H184.734V192.873H191.801V193.72ZM191.594 202.525H186.04V204.772H184.864V196.401H191.594V202.525ZM190.418 197.248H186.04V201.667H190.418V197.248ZM206.96 202.481L206.088 203.762C203.736 202.286 201.199 199.419 199.794 196.51V205.293H198.564V196.738C197.202 199.115 194.6 202.199 191.594 203.882L191.213 203.317C194.186 201.254 196.876 197.726 198.106 195.077H191.932V194.186H198.564V191.841H193.75V182.884H204.586V191.841H199.794V194.186H206.426V195.077H199.925C201.003 197.194 203.279 200.255 206.97 202.481H206.96ZM194.981 186.847H198.564V183.786H194.981V186.847ZM198.564 190.94V187.727H194.981V190.94H198.564ZM199.794 186.847H203.355V183.786H199.794V186.847ZM199.794 190.94H203.355V187.727H199.794V190.94Z" fill="black"/>
<path d="M233.836 202.861L233.476 204.392C229.915 204.729 225.254 204.805 221.977 204.523C219.548 204.316 215.955 203.752 213.962 199.387C213.602 201.656 212.829 203.6 211.348 205.467L210.836 205.055C212.633 202.297 213.036 199.485 213.091 194.512L214.321 194.588C214.299 195.891 214.245 197.086 214.136 198.215C214.855 199.821 215.748 200.918 216.695 201.689V193.166H211.196V192.276H222.586V193.166H217.947V196.488H222.173V197.379H217.947V202.481C219.309 203.165 220.659 203.328 221.683 203.372C225.548 203.632 230.155 203.35 233.814 202.861H233.836ZM220.833 190.3H212.84V182.798H220.833V190.3ZM219.603 183.688H214.071V185.99H219.603V183.688ZM219.603 186.88H214.071V189.377H219.603V186.88ZM225.592 198.063L226.714 198.834C224.917 200.343 222.717 201.569 220.877 202.199L220.594 201.635C222.412 200.766 224.329 199.333 225.592 198.063ZM227.029 184.122H222.118V183.276H233.128V184.122H228.369C227.955 185.143 227.52 185.936 227.04 186.728H231.647V197.4H223.196V186.728H226.322C226.605 185.914 226.855 184.937 227.04 184.122H227.029ZM230.482 187.564H224.34V189.909H230.482V187.564ZM230.482 190.756H224.34V193.155H230.482V190.756ZM230.482 193.98H224.34V196.564H230.482V193.98ZM228.467 197.954C229.948 198.562 232.158 199.821 233.509 200.788L232.714 201.863C231.636 200.864 229.567 199.463 228.151 198.54L228.456 197.954H228.467Z" fill="black"/>
<path d="M138.409 93.6948C138.409 96.5284 137.44 98.8952 135.49 100.784C133.541 102.684 131.156 103.629 128.314 103.629C125.472 103.629 122.956 102.532 121.105 100.328L122.172 99.3186C123.806 101.544 125.777 102.652 128.107 102.652C130.22 102.652 131.973 101.794 133.356 100.089C134.739 98.3849 135.436 96.257 135.436 93.7165C135.436 91.176 134.706 89.0806 133.236 87.5172C131.886 86.0732 130.231 85.3458 128.303 85.3458C125.755 85.3458 123.686 86.0732 122.107 87.5172L123.588 73.2295H136.438V75.4226H124.383L123.337 85.4544C124.938 84.5098 126.833 84.0321 129.022 84.0321C131.766 84.0321 134.02 84.9332 135.773 86.7463C137.527 88.5594 138.409 90.872 138.409 93.6839V93.6948Z" fill="#BB7430"/>
<path d="M121.65 62.2423C121.65 62.948 121.377 63.5234 120.844 63.9577C120.354 64.3485 119.788 64.544 119.134 64.544C118.296 64.544 117.555 64.2943 116.913 63.8057L117.185 63.3931C117.762 63.9468 118.415 64.2183 119.134 64.2183C119.668 64.2183 120.103 64.0554 120.441 63.7406C120.778 63.4257 120.942 62.9914 120.942 62.4377C120.942 61.4932 120.332 60.6789 119.101 60.0058C117.718 59.2349 117.065 58.3121 117.119 57.2156C117.152 56.6619 117.381 56.2167 117.827 55.8802C118.252 55.5545 118.775 55.3916 119.406 55.3916C119.679 55.4025 119.929 55.4459 120.158 55.511C120.724 55.6522 121.138 55.9127 121.399 56.271L121.072 56.5967C120.931 56.3904 120.724 56.195 120.474 56.0322C120.125 55.8042 119.766 55.6847 119.385 55.6847C118.949 55.6847 118.579 55.8042 118.274 56.0539C117.969 56.2927 117.806 56.6076 117.773 56.9876C117.718 57.7367 118.241 58.4315 119.352 59.0829C120.256 59.6041 120.876 60.1469 121.236 60.6898C121.519 61.124 121.661 61.6452 121.661 62.2315L121.65 62.2423Z" fill="#BB7430"/>
<path d="M128.303 55.7392H125.94V64.4573H125.058V55.7392H122.673V55.4678H128.303V55.7392Z" fill="#BB7430"/>
<path d="M133.955 64.4465H129.762V55.457H133.802V55.7285H130.633V59.3655H133.487V59.6369H130.633V64.1643H133.955V64.4357V64.4465Z" fill="#BB7430"/>
<path d="M141.599 57.8998C141.599 58.5838 141.305 59.1701 140.728 59.6478C140.14 60.1255 139.454 60.3535 138.648 60.3426C138.474 60.3426 138.321 60.3426 138.202 60.3426V60.0712H138.463C139.182 60.0712 139.748 59.8541 140.162 59.4198C140.543 59.0289 140.739 58.5187 140.739 57.889C140.739 56.4233 139.9 55.7067 138.223 55.7284H137.331V64.4574H136.47V55.4787C136.906 55.4787 137.57 55.4679 138.485 55.4679C140.576 55.457 141.61 56.2713 141.61 57.9107L141.599 57.8998Z" fill="#BB7430"/>
<defs>
<linearGradient id="paint0_linear_2163_706" x1="0" y1="0" x2="254.689" y2="0" gradientUnits="userSpaceOnUse">
<stop stop-color="white" stop-opacity="0"/>
<stop offset="0.03" stop-color="white" stop-opacity="0.05"/>
<stop offset="0.19" stop-color="white" stop-opacity="0.3"/>
<stop offset="0.34" stop-color="white" stop-opacity="0.51"/>
<stop offset="0.5" stop-color="white" stop-opacity="0.69"/>
<stop offset="0.64" stop-color="white" stop-opacity="0.82"/>
<stop offset="0.78" stop-color="white" stop-opacity="0.92"/>
<stop offset="0.9" stop-color="white" stop-opacity="0.98"/>
<stop offset="1" stop-color="white"/>
</linearGradient>
</defs>
</svg>
