<svg xmlns="http://www.w3.org/2000/svg" viewBox="0 0 255 289">
  <path d="M21.2,147.9l-.4-.5c2.6-2.4,4.9-6.2,6.1-9.8l1.5.5c-.3.9-.8,1.9-1.4,2.9h15.9v.9h-16.4c-1.3,2.2-3.1,4.4-5.2,6ZM39.8,156.7h3.5v.9h-3.6c0,.6-.1,1.2-.2,1.8-.3,2.4-1.8,3.2-7.4,1.4l.2-.6c4.8.8,5.7.7,6-1.3l.2-1.3h-13.2l-.4,1.8-1.3-.2c.5-2.2,1-5,1.5-7.9h-3.7v-.9h3.9c.4-2,.7-4.1.9-5.9h14.6c0,2-.2,4-.4,5.9h3.4v.9s-3.5,0-3.5,0c-.2,1.9-.3,3.8-.5,5.3ZM38.5,156.7c.2-1.5.3-3.4.5-5.3h-12.7c-.3,1.8-.7,3.7-1,5.3h13.1ZM26.5,150.4h12.6c.1-1.6.2-3.3.3-5h-12.1c-.2,1.5-.5,3.2-.8,5h0ZM35.7,154.7l-.7,1.2c-1.2-.8-4.3-2.4-5.8-3.1l.2-.6c1.6.5,4.9,1.8,6.3,2.6ZM35.5,148.5l-.7,1.2c-1.2-.9-3.5-2.1-5-2.8l.3-.7c1.6.5,4.1,1.5,5.4,2.3h0ZM66.8,139.5v19.8c0,2.1-1.6,3-7.3,1.3v-.7c5.1.8,5.9.5,5.9-1.1v-6.8h-11.3c-.4,4.4-1.5,7.4-4.4,9.8l-.5-.5c3.7-3.5,3.7-9.2,3.7-14.6v-7.2h13.8ZM65.5,151.1v-5h-11.1v.8c0,1.5,0,2.9,0,4.2h11.2ZM54.4,140.4v4.8h11.1v-4.8h-11.1ZM81.5,155h5.1v.9h-5.1v5.9h-1.3v-5.9h-5v-.9h5v-3.3h-4.3v-.9h2.8c-.5-1.2-1.4-3-2-4l.5-.3c.9,1,2.1,2.7,2.7,3.9l-.8.4h2.5c.7-1.2,1.5-3,2-4.2l1.2.6c-.6,1.1-1.5,2.6-2.4,3.6h3.4v.9h-4.3v3.3ZM86.5,146.2h-11.2v-.9h4.9v-2.8h-4.2v-.9h4.2v-3.4h1.3v3.4h4.4v.9h-4.4v2.8h5v.9h0ZM98.1,160.1l-.8,1.3c-1.4-.9-2.7-1.9-3.9-3.4-1,1.4-2.3,2.6-3.8,3.6l-.4-.6c1.4-1.1,2.6-2.3,3.6-3.9-1.3-1.9-2.4-4.3-2.9-7.5h-1.2v12.1h-1.3v-22.3h8.8c0,2,0,3.8,0,5.4,0,1.8-1.4,2.4-5.7,1.2v-.7c4,.5,4.4.3,4.4-.8,0-1.2,0-2.8,0-4.2h-6.3v8.4h6.3l.5-.3,1.2.4c-.5,3.5-1.3,6.1-2.5,8.1,1.2,1.3,2.6,2.3,4,3.1h0ZM93.3,156.1c.9-1.8,1.5-3.9,1.9-6.5h-4.7c.6,2.8,1.6,4.8,2.8,6.5ZM108.2,138.3c-.4,1.9-.9,4-1.6,5.9v17.5h-1.2v-14.6c-.8,1.7-1.7,3.2-2.8,4.5l-.5-.4c2.1-3,4-8.2,4.9-13.2l1.3.3h0ZM108.9,142.2h1.1v16.3h-1.1v-16.3ZM123.4,153.9l1.1.7c-2.6,3.7-8.3,6.5-13.9,7.1v-.7c5.6-.9,10.5-3.9,12.8-7.1ZM125.3,148.9l-.5,1.3c-2.6-.6-4.9-1.6-6.8-3-1.6,1.4-3.9,2.6-6.8,3.4l-.2-.7c2.6-.8,4.7-2,6.3-3.4-1.3-1.1-2.4-2.5-3.2-4.1-.7,1.3-1.5,2.5-2.4,3.5l-.5-.4c1.5-1.9,2.7-4.8,3.4-7.6l1.3.3c-.2.8-.5,1.6-.8,2.3h9.2v.9h-2.3c-.6,1.7-1.5,3.4-3,4.9,1.8,1.2,4,1.9,6.6,2.4h0ZM111.6,157c3.8-.9,7.3-3.3,9.3-5.8l1.1.7c-2.6,3.2-6.6,5.1-10.2,5.7l-.2-.6h0ZM112.1,153.6l-.2-.6c2.8-.8,5.2-2.5,6.5-4.1l1,.7c-1.8,2.1-4.6,3.4-7.4,4ZM117.8,145.9c1.2-1.3,2-2.7,2.6-4.3h-6c0,0,0,.2,0,.2,1,1.7,2.1,3,3.5,4.1ZM133.2,148.3h14.3c-.3,4.6-.8,9.8-1.1,11.3-.4,1.9-2,2.6-7.8.8l.2-.7c5.5.9,6.2.7,6.4-.7.3-1.7.7-6.1.9-9.8h-6.7c-.5,5.5-2.6,10.2-9.1,12.6l-.3-.6c5.7-2.6,7.6-6.8,8.1-11.9h-5v-.9c-1,1-2.2,1.9-3.6,2.7l-.4-.6c4.1-2.9,6.1-6.6,7.3-11l1.4.4c-.8,2.8-2.3,5.9-4.8,8.4h0ZM152.5,148.9l-.9,1.4c-3.9-2.3-6.3-5.2-7.3-10.3h-4.9v-1h5.6c.8,4.3,3,7.7,7.5,9.9h0ZM162.7,147.2v14.4h-1.3v-13.8c-1.1,2.9-3.1,6.5-4.6,8.1l-.5-.5c1.6-2.1,4.1-7.1,5-11h-4.2v-.9h4.4v-5.4h1.3v5.4h3.9v.9h-3.9v1.8c1.3,1.2,2.9,3,3.8,4.2l-1,.8c-.8-1.3-1.9-2.9-2.8-4.1ZM179.4,146.5v.9h-3.8v14.3h-1.3v-14.3h-5.5c0,5.8-.3,11-4.1,14.3l-.5-.5c2.7-2.9,3.2-7.2,3.3-13.5v-7.5l1.2.5c2.4-.5,6-1.7,8.1-2.9l.9,1.1c-2.6,1.2-6.5,2.2-9,2.5v5h10.6ZM188.9,147.1v14.7h-1.2v-13.8c-.8,2.9-2.1,5.7-3.6,7.7l-.6-.4c1.5-2.5,3.1-6.5,3.9-10.7h-3.4v-.9h3.7v-5.6h1.2v5.6h3.3v.9h-3.3v1.3c1.1,1.5,2.2,3.1,3,4.6l-1.2.6c-.5-1.3-1.2-2.7-1.8-4h0ZM195,157c-.9,2-2.4,3.4-4.6,4.6l-.3-.6c2.5-1.5,3.9-3.6,4.6-7l1.3.3c-.2.7-.4,1.4-.6,2,1.2.8,2.4,1.8,3.2,2.7l-.9.9c-.7-.9-1.7-2-2.6-3h0ZM206.9,145.6l-.7,1.4c-2.9-1.4-5.8-4-7.6-7-1,1.8-2.4,3.6-3.9,4.9h8.1v.9h-8.4v-.6c-1.1.9-2.3,1.7-3.4,2.3l-.4-.6c3.1-1.9,6-5.1,7.4-8.9l1.3.4c-.1.3-.2.6-.4.8,2,2.8,4.7,5,8,6.4h0ZM197.5,153.4h-5.2v-5.4h5.2v5.4ZM196.4,148.9h-2.9v3.7h2.9v-3.7ZM206.1,160.4l-1.1.9c-.9-1.3-2.2-2.8-3.4-4.1-.9,1.8-2.2,3.3-4,4.4l-.4-.6c2.1-1.6,3.4-3.6,4.1-7.1l1.3.2c-.2.9-.4,1.7-.7,2.4,1.4,1,3.1,2.6,4.2,3.8ZM204.6,153.4h-5.3v-5.4h5.3v5.4ZM203.5,148.9h-3v3.7h3v-3.7ZM218.8,152.3c-.6-1.2-1.7-2.9-2.5-4.3v13.8h-1.3v-13.3c-.9,2.7-2.4,5.9-3.8,7.7l-.5-.4c1.4-2.1,3.5-6.9,4.2-11h-3.6v-.9h3.7v-5.9h1.3v5.9h3.9v.9h-3.9v2c1.1,1.3,2.7,3.4,3.6,4.8l-1.1.6ZM234,160.8l-1.1,1c-1.2-1.6-3-3.6-4.6-5.1-2.3,2.1-5.2,3.9-8.9,5.2l-.3-.6c6.2-2.4,10.7-6.7,13.1-12.1l1.2.7c-1,2.1-2.6,4.4-4.7,6.4,1.8,1.4,3.9,3.2,5.1,4.6h0ZM224.5,143.2h-5.1v-.9h7.8c-1-1.2-2.4-2.9-3.4-3.9l.4-.5c1.4,1,3,2.6,4.1,3.8l-.8.7h6.2v.9h-7.8c-1,1.9-2.4,4.2-3.6,5.6,1.9,0,3.9-.1,5.5-.3.7-1,1.2-2.1,1.7-3.2l1.3.5c-2,4.4-6,8.8-11.3,11.2l-.3-.6c3.3-1.7,6.1-4.2,8.1-7.1-2.3.4-5.1.7-7.2.8l-.3-1.4h1.7c.9-1.4,2.3-4,3-5.6ZM21.7,183.6h12.6v.9h-6.4c-.2,1.4-.6,2.8-1.1,4.2h4.4l.4-.4,1.5.5c-1.2,7.5-4.2,13.2-11.7,16.7l-.3-.6c6.9-3.8,9.5-9.2,10.4-15.4h-4.9c-.4,1-.9,1.9-1.4,2.8,1.1.9,2.4,2.2,3.3,3.3l-1.2.9c-.6-1-1.7-2.5-2.6-3.6-.8,1.3-1.8,2.5-2.9,3.4l-.5-.5c2.8-3,4.7-7.3,5.3-11.4h-4.8v-.9h0ZM36.8,199h-1.2v-14.4h1.2v14.4ZM42.4,181.8v21.2c0,2.1-1.3,2.9-6.8,1.4v-.6c5.1.6,5.5.3,5.5-1v-20.9h1.3,0ZM59.4,184.5h-7.4v-1h8.5c0,8.7,3.6,16.3,10.7,20.3l-1,1.6c-5.1-2.9-9.1-9.1-10-16.3-1.2,6.3-5.5,12.9-12,16.3l-.4-.6c6-3.6,10.9-10.3,11.6-20.2h0ZM75.3,196.2l-.4-.6c3.5-2.8,6-7,7.4-12.3l1.4.5c-1.6,5.1-4.6,9.8-8.5,12.3h0ZM90,195.6c2.3,2.4,4.9,5.8,6.3,8.3l-1.4.8c-.5-1.1-1.3-2.3-2-3.6-4.2,1.2-11.3,2.2-15.3,2.6l-.4-1.6c.8,0,1.7,0,2.6-.2,2-2.7,4.4-7.5,5.5-11.3l1.5.5c-1.3,3.7-3.9,8.1-6,10.7,3.9-.3,8.5-.9,11.5-1.5-1-1.5-2-3.1-3-4.4l.6-.5h0ZM98.4,194.3l-.9,1.5c-3.8-2.2-6.5-6-7.5-11.6h-4.3v-.9h5c1,5.3,3.7,8.9,7.8,11ZM122.8,183.3v19.6c0,2-1.2,3.3-8,1.2l.2-.7c5.9.9,6.5.6,6.5-1.1v-18.2h-18.2v-.9h19.5ZM118.4,188.6h-14v-.9h14v.9ZM115,198.8h-7.6v2.2h-1.3v-9.1h10.1v8.5h-1.3v-1.7ZM115,197.9v-5.1h-7.6v5.1h7.6ZM134.6,190.7v14.7h-1.2v-13.8c-.8,2.9-2.1,5.7-3.6,7.7l-.6-.4c1.5-2.5,3.1-6.5,3.9-10.7h-3.4v-.9h3.7v-5.6h1.2v5.6h3.3v.9h-3.3v1.3c1.1,1.5,2.2,3.1,3,4.6l-1.2.6c-.5-1.3-1.2-2.7-1.8-4h0ZM140.7,200.7c-.9,2-2.4,3.4-4.6,4.6l-.3-.6c2.5-1.5,3.9-3.6,4.6-7l1.3.3c-.2.7-.4,1.4-.6,2,1.2.8,2.4,1.8,3.2,2.7l-.9.9c-.7-.9-1.7-2-2.6-3h0ZM152.6,189.3l-.7,1.4c-2.9-1.4-5.8-4-7.6-7-1,1.8-2.4,3.6-3.9,4.9h8.1v.9h-8.4v-.6c-1.1.9-2.3,1.7-3.4,2.3l-.4-.6c3.1-1.9,6-5.1,7.4-8.9l1.3.4c-.1.3-.2.6-.4.8,2,2.8,4.7,5,8,6.4h0ZM143.3,197.1h-5.1v-5.4h5.1v5.4ZM142.1,192.5h-2.9v3.7h2.9v-3.7ZM151.8,204.1l-1.1.9c-.9-1.3-2.2-2.8-3.4-4.1-.9,1.8-2.2,3.3-4,4.4l-.4-.6c2.1-1.6,3.4-3.6,4.1-7.1l1.3.2c-.2.9-.4,1.7-.7,2.4,1.4,1,3.1,2.6,4.2,3.8ZM150.4,197.1h-5.3v-5.4h5.3v5.4ZM149.2,192.5h-3v3.7h3v-3.7ZM161.9,186.3h4.8v.9h-10.1v-.9h4.9c-.5-1.2-1.5-3.2-2.2-4.4l.6-.4c.9,1,2.1,3,2.8,4.4l-.9.4h0ZM157.5,189.9h7.8v.8h-7.8v-.8ZM157.5,193.4h7.8v.8h-7.8v-.8ZM157.8,197h7.4v7.9h-1.2v-1.6h-5v1.9h-1.2v-8.1ZM159,202.4h5v-4.5h-5v4.5ZM179.6,189.1h-3.2v14.3c0,2.1-1.7,2.7-6.7,1l.2-.6c4.2.8,5.2.7,5.2-.8v-13.9h-8.4v-.9h8.4v-6.5h1.3v6.5h3.2v.9ZM170.8,198.2c-.7-1.6-2.2-4.5-3.2-6.3l.5-.4c1.3,1.6,3.2,4.5,3.9,6l-1.2.7h0ZM192.8,186.9h-9v-.9h4.5c-.7-1.3-1.7-3.1-2.4-4.1l.5-.5c1,1,2.5,2.8,3.2,3.9l-.9.6h4.1v.9h0ZM184.7,190.3v-.8h7v.8h-7ZM191.8,193.7h-7.1v-.8h7.1v.8ZM191.6,202.5h-5.6v2.2h-1.2v-8.4h6.7v6.1ZM190.4,197.2h-4.4v4.4h4.4v-4.4ZM207,202.5l-.9,1.3c-2.4-1.5-4.9-4.3-6.3-7.3v8.8h-1.2v-8.6c-1.4,2.4-4,5.5-7,7.1l-.4-.6c3-2.1,5.7-5.6,6.9-8.2h-6.2v-.9h6.6v-2.3h-4.8v-9h10.8v9h-4.8v2.3h6.6v.9h-6.5c1.1,2.1,3.4,5.2,7,7.4h0ZM195,186.8h3.6v-3.1h-3.6v3.1ZM198.6,190.9v-3.2h-3.6v3.2h3.6ZM199.8,186.8h3.6v-3.1h-3.6v3.1ZM199.8,190.9h3.6v-3.2h-3.6v3.2ZM233.8,202.9l-.4,1.5c-3.6.3-8.2.4-11.5.1-2.4-.2-6-.8-8-5.1-.4,2.3-1.1,4.2-2.6,6.1l-.5-.4c1.8-2.8,2.2-5.6,2.3-10.5h1.2c0,1.4,0,2.6-.2,3.7.7,1.6,1.6,2.7,2.6,3.5v-8.5h-5.5v-.9h11.4v.9h-4.6v3.3h4.2v.9h-4.2v5.1c1.4.7,2.7.8,3.7.9,3.9.3,8.5,0,12.1-.5h0ZM220.8,190.3h-8v-7.5h8v7.5ZM219.6,183.7h-5.5v2.3h5.5v-2.3ZM219.6,186.9h-5.5v2.5h5.5v-2.5ZM225.6,198.1l1.1.8c-1.8,1.5-4,2.7-5.8,3.4l-.3-.6c1.8-.9,3.7-2.3,5-3.6ZM227,184.1h-4.9v-.8h11v.8h-4.8c-.4,1-.8,1.8-1.3,2.6h4.6v10.7h-8.5v-10.7h3.1c.3-.8.5-1.8.7-2.6h0ZM230.5,187.6h-6.1v2.3h6.1v-2.3ZM230.5,190.8h-6.1v2.4h6.1v-2.4ZM230.5,194h-6.1v2.6h6.1v-2.6ZM228.5,198c1.5.6,3.7,1.9,5,2.8l-.8,1.1c-1.1-1-3.1-2.4-4.6-3.3l.3-.6h0Z"/>
  <path fill="#bb7430" d="M138.4,93.7c0,2.8-1,5.2-2.9,7.1-1.9,1.9-4.3,2.8-7.2,2.8s-5.4-1.1-7.2-3.3l1.1-1c1.6,2.2,3.6,3.3,5.9,3.3s3.9-.9,5.2-2.6c1.4-1.7,2.1-3.8,2.1-6.4s-.7-4.6-2.2-6.2c-1.3-1.4-3-2.2-4.9-2.2s-4.6.7-6.2,2.2l1.5-14.3h12.9v2.2h-12.1l-1,10c1.6-.9,3.5-1.4,5.7-1.4s5,.9,6.8,2.7c1.8,1.8,2.6,4.1,2.6,6.9h0ZM121.7,62.2c0,.7-.3,1.3-.8,1.7-.5.4-1.1.6-1.7.6s-1.6-.2-2.2-.7l.3-.4c.6.6,1.2.8,1.9.8s1-.2,1.3-.5c.3-.3.5-.7.5-1.3,0-.9-.6-1.8-1.8-2.4-1.4-.8-2-1.7-2-2.8,0-.6.3-1,.7-1.3.4-.3.9-.5,1.6-.5.3,0,.5,0,.8.1.6.1,1,.4,1.2.8l-.3.3c-.1-.2-.3-.4-.6-.6-.3-.2-.7-.3-1.1-.3s-.8.1-1.1.4c-.3.2-.5.6-.5.9,0,.7.5,1.4,1.6,2.1.9.5,1.5,1.1,1.9,1.6.3.4.4,1,.4,1.5h0ZM128.3,55.7h-2.4v8.7h-.9v-8.7h-2.4v-.3h5.6v.3ZM134,64.4h-4.2v-9h4v.3h-3.2v3.6h2.9v.3h-2.9v4.5h3.3v.3h0ZM141.6,57.9c0,.7-.3,1.3-.9,1.7-.6.5-1.3.7-2.1.7h-.4v-.3h.3c.7,0,1.3-.2,1.7-.7.4-.4.6-.9.6-1.5,0-1.5-.8-2.2-2.5-2.2h-.9v8.7h-.9v-9c.4,0,1.1,0,2,0,2.1,0,3.1.8,3.1,2.4h0Z"/>
</svg>