<svg width="737" height="76" viewBox="0 0 737 76" fill="none" xmlns="http://www.w3.org/2000/svg">
<path d="M30.7028 15.36H38.9428L41.8228 11.6C41.8228 11.6 42.1161 11.8667 42.7028 12.4C43.3428 12.88 44.0628 13.4933 44.8628 14.24C45.7161 14.9333 46.4628 15.6533 47.1028 16.4C46.9428 17.2533 46.2761 17.68 45.1028 17.68H31.3428L30.7028 15.36ZM54.9428 5.92H64.9428V8.24H55.6628L54.9428 5.92ZM54.8628 21.28H65.6628V23.52H55.5828L54.8628 21.28ZM54.5428 36.8H65.3428V39.12H55.2628L54.5428 36.8ZM32.2228 24V22L36.6228 24H42.4628V26.32H36.3028V45.36C36.3028 45.5733 35.9295 45.8667 35.1828 46.24C34.4895 46.56 33.7161 46.72 32.8628 46.72H32.2228V24ZM40.1428 24H39.5828L41.8228 21.84L46.3828 25.44C46.2228 25.6 45.9561 25.7867 45.5828 26C45.2095 26.16 44.7828 26.2933 44.3028 26.4V43.68C44.3028 43.9467 43.8761 44.2933 43.0228 44.72C42.2228 45.0933 41.4761 45.28 40.7828 45.28H40.1428V24ZM34.3028 39.44H42.6228V41.76H34.3028V39.44ZM26.7028 5.68H49.5828V7.92H26.7028V5.68ZM61.9028 5.92H61.1028L64.3028 2L71.4228 8C71.1028 8.26666 70.7295 8.50666 70.3028 8.72C69.8761 8.88 69.2628 9.01333 68.4628 9.12L67.5028 53.36H60.8628L61.9028 5.92ZM7.66281 4.64L17.1028 7.84C16.8895 8.53333 15.9828 8.98667 14.3828 9.2L15.3428 53.52H8.70281L7.66281 4.64ZM10.9428 21.28H16.0628L18.7028 16.96C18.7028 16.96 18.9961 17.2533 19.5828 17.84C20.1695 18.4267 20.8361 19.1467 21.5828 20C22.3828 20.8 23.0495 21.5733 23.5828 22.32C23.3695 23.12 22.7295 23.52 21.6628 23.52H10.9428V21.28ZM11.1028 36.8H16.0628L18.7028 32.4C18.7028 32.4 18.9961 32.6933 19.5828 33.28C20.1695 33.8667 20.8361 34.5867 21.5828 35.44C22.3828 36.2933 23.0495 37.0933 23.5828 37.84C23.4228 38.6933 22.7828 39.12 21.6628 39.12H11.1028V36.8ZM18.7828 0.319999L25.0228 6.24C24.4895 6.77333 23.6895 6.8 22.6228 6.32C21.5028 6.85333 19.8495 7.49333 17.6628 8.24C15.5295 8.93333 13.5028 9.52 11.5828 10L11.0228 9.28C11.8228 8.48 12.7295 7.52 13.7428 6.4C14.8095 5.22666 15.7961 4.08 16.7028 2.96C17.6095 1.84 18.3028 0.959997 18.7828 0.319999ZM0.702813 52.48H67.5828L71.0228 47.36C71.0228 47.36 71.3695 47.7067 72.0628 48.4C72.8095 49.04 73.6628 49.84 74.6228 50.8C75.5828 51.76 76.4095 52.6667 77.1028 53.52C76.9428 54.3733 76.2762 54.8 75.1028 54.8H1.34281L0.702813 52.48ZM46.7028 58.08C52.3028 58.8267 56.9161 59.7867 60.5428 60.96C64.2228 62.08 67.0495 63.28 69.0228 64.56C70.9961 65.84 72.3028 67.0933 72.9428 68.32C73.6361 69.6 73.8761 70.72 73.6628 71.68C73.4495 72.6933 72.8895 73.4667 71.9828 74C71.1295 74.5867 70.1428 74.8267 69.0228 74.72C67.9028 74.6133 66.8361 74.08 65.8228 73.12C64.1695 70.9867 61.7161 68.6667 58.4628 66.16C55.2628 63.6 51.1828 61.28 46.2228 59.2L46.7028 58.08ZM24.3028 56.16L34.6228 61.68C34.3561 62.1067 33.8761 62.4267 33.1828 62.64C32.4895 62.8 31.5295 62.7733 30.3028 62.56C28.1695 64.1067 25.5561 65.6533 22.4628 67.2C19.4228 68.7467 16.0895 70.16 12.4628 71.44C8.88948 72.7733 5.23615 73.8667 1.50281 74.72L1.10281 73.68C4.14281 72.24 7.15615 70.5067 10.1428 68.48C13.1828 66.5067 15.9295 64.4533 18.3828 62.32C20.8895 60.1333 22.8628 58.08 24.3028 56.16ZM23.4228 5.68V2.88L29.9028 5.68H29.3428V53.52H23.4228V5.68ZM47.2628 5.68H46.6228L49.6628 2.47999L55.6628 7.27999C55.2361 7.81333 54.4095 8.21333 53.1828 8.48V53.52H47.2628V5.68ZM95.4228 54.24C97.4495 57.6 99.9295 60.1067 102.863 61.76C105.849 63.36 109.476 64.4267 113.743 64.96C118.009 65.44 123.183 65.68 129.263 65.68C130.756 65.68 132.623 65.68 134.863 65.68C137.156 65.68 139.583 65.68 142.143 65.68C144.756 65.68 147.236 65.68 149.583 65.68C151.929 65.6267 153.903 65.6 155.503 65.6V66.64C154.169 66.8533 153.183 67.4933 152.543 68.56C151.903 69.68 151.529 70.9333 151.423 72.32C150.196 72.32 148.596 72.32 146.623 72.32C144.703 72.32 142.623 72.32 140.383 72.32C138.143 72.32 136.009 72.32 133.983 72.32C131.956 72.32 130.276 72.32 128.943 72.32C124.249 72.32 120.089 72.08 116.463 71.6C112.889 71.12 109.743 70.24 107.023 68.96C104.303 67.7333 101.929 65.9733 99.9028 63.68C97.8761 61.3867 96.0628 58.4533 94.4628 54.88L95.4228 54.24ZM147.343 45.36C147.343 45.36 147.609 45.5733 148.143 46C148.729 46.4267 149.449 46.9867 150.303 47.68C151.209 48.32 152.116 49.04 153.023 49.84C153.983 50.5867 154.836 51.3067 155.583 52C155.476 52.8533 154.783 53.28 153.503 53.28H105.343L104.703 50.96H142.863L147.343 45.36ZM146.063 4.24C146.063 4.24 146.329 4.45333 146.863 4.88C147.396 5.30666 148.089 5.84 148.943 6.48C149.796 7.12 150.703 7.84 151.663 8.64C152.623 9.38666 153.503 10.1067 154.303 10.8C154.089 11.6533 153.343 12.08 152.063 12.08H105.503L104.863 9.76H141.503L146.063 4.24ZM135.183 1.44C135.076 1.97333 134.809 2.45333 134.383 2.88C134.009 3.25333 133.289 3.52 132.223 3.68V61.52C132.223 61.7867 131.929 62.1333 131.343 62.56C130.756 62.9867 130.009 63.36 129.103 63.68C128.249 63.9467 127.369 64.08 126.463 64.08H125.103V0.399998L135.183 1.44ZM116.623 44.32C116.623 44.5333 116.329 44.8267 115.743 45.2C115.156 45.5733 114.409 45.92 113.503 46.24C112.596 46.5067 111.636 46.64 110.623 46.64H109.583V18.72V15.6L117.103 18.72H145.183V21.04H116.623V44.32ZM143.663 29.36V31.68H112.063V29.36H143.663ZM143.823 40.32V42.64H112.223V40.32H143.823ZM139.663 18.72L143.343 14.72L151.103 20.72C150.889 21.04 150.489 21.36 149.903 21.68C149.316 21.9467 148.596 22.16 147.743 22.32V43.12C147.743 43.3333 147.396 43.6267 146.703 44C146.063 44.32 145.263 44.6133 144.303 44.88C143.396 45.1467 142.516 45.28 141.663 45.28H140.463V18.72H139.663ZM102.623 21.68C102.036 22.7467 101.263 24.08 100.303 25.68C99.3961 27.2267 98.3828 28.8533 97.2628 30.56C96.1428 32.2667 95.0761 33.92 94.0628 35.52C93.0495 37.0667 92.1428 38.4 91.3428 39.52H91.9828L89.3428 41.84L83.2628 37.12C83.8495 36.7467 84.5961 36.4 85.5028 36.08C86.4628 35.7067 87.2895 35.4667 87.9828 35.36L85.1028 37.52C85.9561 36.4533 86.9161 35.12 87.9828 33.52C89.0495 31.8667 90.1161 30.1333 91.1828 28.32C92.3028 26.5067 93.3428 24.7733 94.3028 23.12C95.2628 21.4667 96.0361 20.0533 96.6228 18.88L102.623 21.68ZM95.6628 18.88L99.1028 15.36L106.143 21.68C105.716 22.1067 105.023 22.4267 104.063 22.64C103.156 22.8533 102.116 22.96 100.943 22.96C99.8228 22.96 98.7028 22.88 97.5828 22.72L96.6228 18.88H95.6628ZM97.9028 37.28L101.903 33.28L108.943 39.36C108.463 39.9467 107.396 40.32 105.743 40.48C104.623 44.5333 103.023 48.5867 100.943 52.64C98.9161 56.6933 96.3561 60.5333 93.2628 64.16C90.1695 67.7867 86.4628 70.9333 82.1428 73.6L81.3428 72.64C84.4895 69.6 87.2095 66.1333 89.5028 62.24C91.8495 58.3467 93.7695 54.24 95.2628 49.92C96.8095 45.6 97.9561 41.3867 98.7028 37.28H97.9028ZM98.9428 18.88V21.2H83.1828L82.4628 18.88H98.9428ZM101.343 37.28V39.6H88.8628L89.7428 37.28H101.343ZM85.6628 1.52C88.8628 2.10666 91.4228 2.93333 93.3428 4C95.2628 5.06666 96.6495 6.24 97.5028 7.52C98.3561 8.74666 98.7561 9.94666 98.7028 11.12C98.7028 12.24 98.3828 13.2 97.7428 14C97.1028 14.7467 96.2761 15.2 95.2628 15.36C94.2495 15.4667 93.1561 15.0933 91.9828 14.24C91.7161 12.8 91.2095 11.3333 90.4628 9.84C89.7161 8.34666 88.8361 6.93333 87.8228 5.6C86.8628 4.21333 85.8761 3.01333 84.8628 2L85.6628 1.52ZM191.263 31.52H204.623V33.84H191.263V31.52ZM219.903 3.76C222.676 3.86666 224.889 4.24 226.543 4.88C228.196 5.52 229.369 6.29333 230.063 7.2C230.809 8.10666 231.183 9.01333 231.183 9.92C231.183 10.8267 230.889 11.6267 230.303 12.32C229.769 12.96 229.049 13.36 228.143 13.52C227.236 13.6267 226.249 13.36 225.183 12.72C224.756 11.1733 223.929 9.62666 222.703 8.08C221.529 6.53333 220.356 5.28 219.183 4.31999L219.903 3.76ZM190.943 16.8H224.143L228.303 11.6C228.303 11.6 228.729 11.9467 229.583 12.64C230.436 13.28 231.449 14.08 232.623 15.04C233.849 16 234.943 16.9333 235.903 17.84C235.689 18.6933 234.969 19.12 233.743 19.12H190.943V16.8ZM210.623 1.35999L220.783 2.47999C220.729 3.01333 220.489 3.49333 220.063 3.92C219.689 4.34666 218.969 4.61333 217.903 4.72C217.796 10.1067 217.849 15.52 218.063 20.96C218.276 26.4 218.756 31.68 219.503 36.8C220.303 41.92 221.476 46.64 223.023 50.96C224.569 55.2267 226.623 58.9333 229.183 62.08C229.663 62.7733 230.036 63.12 230.303 63.12C230.569 63.0667 230.889 62.64 231.263 61.84C231.796 60.88 232.409 59.5467 233.103 57.84C233.796 56.1333 234.409 54.48 234.943 52.88L235.903 53.04L234.303 66.08C235.316 68.2667 235.903 69.9467 236.063 71.12C236.276 72.3467 236.089 73.2 235.503 73.68C234.649 74.32 233.716 74.5867 232.703 74.48C231.743 74.4267 230.729 74.1333 229.663 73.6C228.649 73.0667 227.663 72.3733 226.703 71.52C225.796 70.72 225.023 69.8667 224.383 68.96C221.449 64.96 219.076 60.48 217.263 55.52C215.449 50.5067 214.063 45.12 213.103 39.36C212.143 33.6 211.476 27.5467 211.103 21.2C210.783 14.8 210.623 8.18666 210.623 1.35999ZM161.263 23.2H177.583L181.263 17.6C181.263 17.6 181.636 17.9733 182.383 18.72C183.129 19.4133 184.009 20.2933 185.023 21.36C186.036 22.3733 186.916 23.3333 187.663 24.24C187.449 25.0933 186.756 25.52 185.583 25.52H161.903L161.263 23.2ZM169.743 2L179.983 3.04C179.929 3.57333 179.689 4.05333 179.263 4.48C178.836 4.85333 178.089 5.09333 177.023 5.2V50.64L169.743 52.88V2ZM160.383 52.8C161.876 52.4267 164.009 51.84 166.783 51.04C169.556 50.1867 172.676 49.2 176.143 48.08C179.663 46.96 183.236 45.7867 186.863 44.56L187.183 45.52C184.996 47.1733 182.196 49.2 178.783 51.6C175.369 54 171.316 56.6667 166.623 59.6C166.516 60.1333 166.303 60.5867 165.983 60.96C165.663 61.3333 165.263 61.6267 164.783 61.84L160.383 52.8ZM186.703 16.8V16V13.6L195.023 16.8H193.743V34.72C193.743 37.9733 193.556 41.3867 193.183 44.96C192.809 48.5333 191.983 52.1067 190.703 55.68C189.476 59.2533 187.583 62.64 185.023 65.84C182.516 69.04 179.129 71.9467 174.863 74.56L173.903 73.68C177.636 70 180.409 66.0267 182.223 61.76C184.036 57.4933 185.236 53.0667 185.823 48.48C186.409 43.8933 186.703 39.3333 186.703 34.8V16.8ZM201.663 31.52H200.863L204.303 27.92L211.103 33.52C210.889 33.7867 210.516 34.0533 209.983 34.32C209.503 34.5333 208.889 34.6933 208.143 34.8C208.036 39.8667 207.876 44.08 207.663 47.44C207.449 50.8 207.103 53.4667 206.623 55.44C206.143 57.4133 205.423 58.8267 204.463 59.68C203.663 60.3733 202.703 60.88 201.583 61.2C200.516 61.4667 199.343 61.6267 198.063 61.68C198.063 60.9333 197.983 60.2133 197.823 59.52C197.663 58.7733 197.369 58.1867 196.943 57.76C196.569 57.28 195.903 56.8533 194.943 56.48C194.036 56.0533 193.049 55.7333 191.983 55.52V54.32C192.676 54.3733 193.449 54.4267 194.303 54.48C195.156 54.5333 195.956 54.5867 196.703 54.64C197.449 54.6933 198.009 54.72 198.383 54.72C198.969 54.72 199.423 54.5333 199.743 54.16C200.329 53.4133 200.756 51.2533 201.023 47.68C201.289 44.0533 201.503 38.6667 201.663 31.52ZM226.143 25.92L235.583 29.04C235.423 29.52 235.103 29.8667 234.623 30.08C234.196 30.2933 233.449 30.3733 232.383 30.32C230.143 37.7867 227.423 44.2933 224.223 49.84C221.076 55.3333 217.236 60.0533 212.703 64C208.223 67.9467 202.863 71.3333 196.623 74.16L195.903 72.88C201.183 69.5733 205.743 65.7867 209.583 61.52C213.476 57.2 216.756 52.1333 219.423 46.32C222.143 40.5067 224.383 33.7067 226.143 25.92ZM271.097 6.48V5.68V3.2L279.897 6.48H278.697V31.04C278.697 34.72 278.537 38.5067 278.217 42.4C277.951 46.24 277.284 50.0533 276.217 53.84C275.151 57.6267 273.524 61.28 271.337 64.8C269.151 68.2667 266.137 71.44 262.297 74.32L261.257 73.6C264.244 69.6 266.431 65.28 267.817 60.64C269.204 56 270.084 51.2 270.457 46.24C270.884 41.2267 271.097 36.1867 271.097 31.12V6.48ZM275.337 25.2H323.417V27.52H275.337V25.2ZM275.337 6.48H323.897V8.8H275.337V6.48ZM274.937 44.4H323.417V46.72H274.937V44.4ZM320.537 6.48H319.657L323.417 2L331.817 8.56C331.551 8.93333 331.097 9.28 330.457 9.6C329.817 9.92 329.044 10.1867 328.137 10.4V64.64C328.137 66.4533 327.897 68 327.417 69.28C326.991 70.6133 326.031 71.68 324.537 72.48C323.044 73.28 320.724 73.84 317.577 74.16C317.471 72.9333 317.284 71.8667 317.017 70.96C316.751 70.0533 316.351 69.3067 315.817 68.72C315.177 68.1333 314.351 67.6267 313.337 67.2C312.324 66.7733 310.831 66.4267 308.857 66.16V64.96C308.857 64.96 309.284 64.9867 310.137 65.04C310.991 65.0933 311.977 65.1733 313.097 65.28C314.271 65.3333 315.391 65.4133 316.457 65.52C317.524 65.5733 318.244 65.6 318.617 65.6C319.364 65.6 319.871 65.4667 320.137 65.2C320.404 64.88 320.537 64.4267 320.537 63.84V6.48ZM295.017 6.96H302.537V71.6C302.537 71.8667 301.977 72.2933 300.857 72.88C299.791 73.52 298.271 73.84 296.297 73.84H295.017V6.96ZM390.777 0.159996H416.057V3.2H393.977V51.76H390.777V0.159996ZM453.497 1.28C457.711 3.04 461.124 4.96 463.737 7.04C466.351 9.06666 468.271 11.0933 469.497 13.12C470.777 15.1467 471.497 17.0133 471.657 18.72C471.871 20.3733 471.657 21.76 471.017 22.88C470.377 23.9467 469.471 24.56 468.297 24.72C467.177 24.88 465.924 24.4533 464.537 23.44C464.004 21.04 463.097 18.56 461.817 16C460.537 13.3867 459.071 10.8533 457.417 8.39999C455.817 5.94666 454.217 3.76 452.617 1.84L453.497 1.28ZM452.057 15.92C452.004 16.4533 451.764 16.9333 451.337 17.36C450.911 17.7333 450.217 17.9733 449.257 18.08V60.8C449.257 61.8133 449.577 62.5333 450.217 62.96C450.857 63.3333 452.137 63.52 454.057 63.52H464.537C466.671 63.52 468.511 63.4933 470.057 63.44C471.657 63.3867 472.857 63.3333 473.657 63.28C474.351 63.2267 474.857 63.0933 475.177 62.88C475.551 62.6667 475.871 62.3467 476.137 61.92C476.564 61.0667 477.097 59.4933 477.737 57.2C478.431 54.8533 479.151 52.1067 479.897 48.96H480.857L481.097 62.48C482.377 62.96 483.231 63.44 483.657 63.92C484.084 64.4 484.297 65.04 484.297 65.84C484.297 66.8 484.004 67.6 483.417 68.24C482.884 68.9333 481.871 69.4933 480.377 69.92C478.884 70.3467 476.804 70.64 474.137 70.8C471.524 71.0133 468.137 71.12 463.977 71.12H453.097C450.217 71.12 447.924 70.9067 446.217 70.48C444.564 70.0533 443.391 69.2267 442.697 68C442.004 66.8267 441.657 65.1467 441.657 62.96V14.88L452.057 15.92ZM479.177 26.16C482.857 28.56 485.844 30.9867 488.137 33.44C490.431 35.8933 492.191 38.2667 493.417 40.56C494.644 42.8533 495.417 45.0133 495.737 47.04C496.057 49.0133 496.031 50.7467 495.657 52.24C495.337 53.68 494.777 54.8 493.977 55.6C493.231 56.4 492.351 56.7733 491.337 56.72C490.324 56.6133 489.364 55.9467 488.457 54.72C488.191 52.2133 487.684 49.3333 486.937 46.08C486.191 42.7733 485.124 39.44 483.737 36.08C482.404 32.6667 480.617 29.5733 478.377 26.8L479.177 26.16ZM432.217 24.64C433.871 29.3867 434.751 33.68 434.857 37.52C434.964 41.3067 434.617 44.5867 433.817 47.36C433.017 50.08 432.031 52.2667 430.857 53.92C430.111 55.04 429.204 55.8933 428.137 56.48C427.124 57.0667 426.111 57.3333 425.097 57.28C424.084 57.2267 423.231 56.8533 422.537 56.16C421.684 55.2533 421.337 54.2133 421.497 53.04C421.711 51.8667 422.244 50.7733 423.097 49.76C424.484 48.4267 425.791 46.5067 427.017 44C428.244 41.44 429.231 38.5067 429.977 35.2C430.724 31.84 431.071 28.3467 431.017 24.72L432.217 24.64ZM526.457 75.04H501.177V72H523.257V23.44H526.457V75.04ZM595.657 54.24C597.684 57.6 600.164 60.1067 603.097 61.76C606.084 63.36 609.711 64.4267 613.977 64.96C618.244 65.44 623.417 65.68 629.497 65.68C630.991 65.68 632.857 65.68 635.097 65.68C637.391 65.68 639.817 65.68 642.377 65.68C644.991 65.68 647.471 65.68 649.817 65.68C652.164 65.6267 654.137 65.6 655.737 65.6V66.64C654.404 66.8533 653.417 67.4933 652.777 68.56C652.137 69.68 651.764 70.9333 651.657 72.32C650.431 72.32 648.831 72.32 646.857 72.32C644.937 72.32 642.857 72.32 640.617 72.32C638.377 72.32 636.244 72.32 634.217 72.32C632.191 72.32 630.511 72.32 629.177 72.32C624.484 72.32 620.324 72.08 616.697 71.6C613.124 71.12 609.977 70.24 607.257 68.96C604.537 67.7333 602.164 65.9733 600.137 63.68C598.111 61.3867 596.297 58.4533 594.697 54.88L595.657 54.24ZM647.577 45.36C647.577 45.36 647.844 45.5733 648.377 46C648.964 46.4267 649.684 46.9867 650.537 47.68C651.444 48.32 652.351 49.04 653.257 49.84C654.217 50.5867 655.071 51.3067 655.817 52C655.711 52.8533 655.017 53.28 653.737 53.28H605.577L604.937 50.96H643.097L647.577 45.36ZM646.297 4.24C646.297 4.24 646.564 4.45333 647.097 4.88C647.631 5.30666 648.324 5.84 649.177 6.48C650.031 7.12 650.937 7.84 651.897 8.64C652.857 9.38666 653.737 10.1067 654.537 10.8C654.324 11.6533 653.577 12.08 652.297 12.08H605.737L605.097 9.76H641.737L646.297 4.24ZM635.417 1.44C635.311 1.97333 635.044 2.45333 634.617 2.88C634.244 3.25333 633.524 3.52 632.457 3.68V61.52C632.457 61.7867 632.164 62.1333 631.577 62.56C630.991 62.9867 630.244 63.36 629.337 63.68C628.484 63.9467 627.604 64.08 626.697 64.08H625.337V0.399998L635.417 1.44ZM616.857 44.32C616.857 44.5333 616.564 44.8267 615.977 45.2C615.391 45.5733 614.644 45.92 613.737 46.24C612.831 46.5067 611.871 46.64 610.857 46.64H609.817V18.72V15.6L617.337 18.72H645.417V21.04H616.857V44.32ZM643.897 29.36V31.68H612.297V29.36H643.897ZM644.057 40.32V42.64H612.457V40.32H644.057ZM639.897 18.72L643.577 14.72L651.337 20.72C651.124 21.04 650.724 21.36 650.137 21.68C649.551 21.9467 648.831 22.16 647.977 22.32V43.12C647.977 43.3333 647.631 43.6267 646.937 44C646.297 44.32 645.497 44.6133 644.537 44.88C643.631 45.1467 642.751 45.28 641.897 45.28H640.697V18.72H639.897ZM602.857 21.68C602.271 22.7467 601.497 24.08 600.537 25.68C599.631 27.2267 598.617 28.8533 597.497 30.56C596.377 32.2667 595.311 33.92 594.297 35.52C593.284 37.0667 592.377 38.4 591.577 39.52H592.217L589.577 41.84L583.497 37.12C584.084 36.7467 584.831 36.4 585.737 36.08C586.697 35.7067 587.524 35.4667 588.217 35.36L585.337 37.52C586.191 36.4533 587.151 35.12 588.217 33.52C589.284 31.8667 590.351 30.1333 591.417 28.32C592.537 26.5067 593.577 24.7733 594.537 23.12C595.497 21.4667 596.271 20.0533 596.857 18.88L602.857 21.68ZM595.897 18.88L599.337 15.36L606.377 21.68C605.951 22.1067 605.257 22.4267 604.297 22.64C603.391 22.8533 602.351 22.96 601.177 22.96C600.057 22.96 598.937 22.88 597.817 22.72L596.857 18.88H595.897ZM598.137 37.28L602.137 33.28L609.177 39.36C608.697 39.9467 607.631 40.32 605.977 40.48C604.857 44.5333 603.257 48.5867 601.177 52.64C599.151 56.6933 596.591 60.5333 593.497 64.16C590.404 67.7867 586.697 70.9333 582.377 73.6L581.577 72.64C584.724 69.6 587.444 66.1333 589.737 62.24C592.084 58.3467 594.004 54.24 595.497 49.92C597.044 45.6 598.191 41.3867 598.937 37.28H598.137ZM599.177 18.88V21.2H583.417L582.697 18.88H599.177ZM601.577 37.28V39.6H589.097L589.977 37.28H601.577ZM585.897 1.52C589.097 2.10666 591.657 2.93333 593.577 4C595.497 5.06666 596.884 6.24 597.737 7.52C598.591 8.74666 598.991 9.94666 598.937 11.12C598.937 12.24 598.617 13.2 597.977 14C597.337 14.7467 596.511 15.2 595.497 15.36C594.484 15.4667 593.391 15.0933 592.217 14.24C591.951 12.8 591.444 11.3333 590.697 9.84C589.951 8.34666 589.071 6.93333 588.057 5.6C587.097 4.21333 586.111 3.01333 585.097 2L585.897 1.52ZM691.497 31.52H704.857V33.84H691.497V31.52ZM720.137 3.76C722.911 3.86666 725.124 4.24 726.777 4.88C728.431 5.52 729.604 6.29333 730.297 7.2C731.044 8.10666 731.417 9.01333 731.417 9.92C731.417 10.8267 731.124 11.6267 730.537 12.32C730.004 12.96 729.284 13.36 728.377 13.52C727.471 13.6267 726.484 13.36 725.417 12.72C724.991 11.1733 724.164 9.62666 722.937 8.08C721.764 6.53333 720.591 5.28 719.417 4.31999L720.137 3.76ZM691.177 16.8H724.377L728.537 11.6C728.537 11.6 728.964 11.9467 729.817 12.64C730.671 13.28 731.684 14.08 732.857 15.04C734.084 16 735.177 16.9333 736.137 17.84C735.924 18.6933 735.204 19.12 733.977 19.12H691.177V16.8ZM710.857 1.35999L721.017 2.47999C720.964 3.01333 720.724 3.49333 720.297 3.92C719.924 4.34666 719.204 4.61333 718.137 4.72C718.031 10.1067 718.084 15.52 718.297 20.96C718.511 26.4 718.991 31.68 719.737 36.8C720.537 41.92 721.711 46.64 723.257 50.96C724.804 55.2267 726.857 58.9333 729.417 62.08C729.897 62.7733 730.271 63.12 730.537 63.12C730.804 63.0667 731.124 62.64 731.497 61.84C732.031 60.88 732.644 59.5467 733.337 57.84C734.031 56.1333 734.644 54.48 735.177 52.88L736.137 53.04L734.537 66.08C735.551 68.2667 736.137 69.9467 736.297 71.12C736.511 72.3467 736.324 73.2 735.737 73.68C734.884 74.32 733.951 74.5867 732.937 74.48C731.977 74.4267 730.964 74.1333 729.897 73.6C728.884 73.0667 727.897 72.3733 726.937 71.52C726.031 70.72 725.257 69.8667 724.617 68.96C721.684 64.96 719.311 60.48 717.497 55.52C715.684 50.5067 714.297 45.12 713.337 39.36C712.377 33.6 711.711 27.5467 711.337 21.2C711.017 14.8 710.857 8.18666 710.857 1.35999ZM661.497 23.2H677.817L681.497 17.6C681.497 17.6 681.871 17.9733 682.617 18.72C683.364 19.4133 684.244 20.2933 685.257 21.36C686.271 22.3733 687.151 23.3333 687.897 24.24C687.684 25.0933 686.991 25.52 685.817 25.52H662.137L661.497 23.2ZM669.977 2L680.217 3.04C680.164 3.57333 679.924 4.05333 679.497 4.48C679.071 4.85333 678.324 5.09333 677.257 5.2V50.64L669.977 52.88V2ZM660.617 52.8C662.111 52.4267 664.244 51.84 667.017 51.04C669.791 50.1867 672.911 49.2 676.377 48.08C679.897 46.96 683.471 45.7867 687.097 44.56L687.417 45.52C685.231 47.1733 682.431 49.2 679.017 51.6C675.604 54 671.551 56.6667 666.857 59.6C666.751 60.1333 666.537 60.5867 666.217 60.96C665.897 61.3333 665.497 61.6267 665.017 61.84L660.617 52.8ZM686.937 16.8V16V13.6L695.257 16.8H693.977V34.72C693.977 37.9733 693.791 41.3867 693.417 44.96C693.044 48.5333 692.217 52.1067 690.937 55.68C689.711 59.2533 687.817 62.64 685.257 65.84C682.751 69.04 679.364 71.9467 675.097 74.56L674.137 73.68C677.871 70 680.644 66.0267 682.457 61.76C684.271 57.4933 685.471 53.0667 686.057 48.48C686.644 43.8933 686.937 39.3333 686.937 34.8V16.8ZM701.897 31.52H701.097L704.537 27.92L711.337 33.52C711.124 33.7867 710.751 34.0533 710.217 34.32C709.737 34.5333 709.124 34.6933 708.377 34.8C708.271 39.8667 708.111 44.08 707.897 47.44C707.684 50.8 707.337 53.4667 706.857 55.44C706.377 57.4133 705.657 58.8267 704.697 59.68C703.897 60.3733 702.937 60.88 701.817 61.2C700.751 61.4667 699.577 61.6267 698.297 61.68C698.297 60.9333 698.217 60.2133 698.057 59.52C697.897 58.7733 697.604 58.1867 697.177 57.76C696.804 57.28 696.137 56.8533 695.177 56.48C694.271 56.0533 693.284 55.7333 692.217 55.52V54.32C692.911 54.3733 693.684 54.4267 694.537 54.48C695.391 54.5333 696.191 54.5867 696.937 54.64C697.684 54.6933 698.244 54.72 698.617 54.72C699.204 54.72 699.657 54.5333 699.977 54.16C700.564 53.4133 700.991 51.2533 701.257 47.68C701.524 44.0533 701.737 38.6667 701.897 31.52ZM726.377 25.92L735.817 29.04C735.657 29.52 735.337 29.8667 734.857 30.08C734.431 30.2933 733.684 30.3733 732.617 30.32C730.377 37.7867 727.657 44.2933 724.457 49.84C721.311 55.3333 717.471 60.0533 712.937 64C708.457 67.9467 703.097 71.3333 696.857 74.16L696.137 72.88C701.417 69.5733 705.977 65.7867 709.817 61.52C713.711 57.2 716.991 52.1333 719.657 46.32C722.377 40.5067 724.617 33.7067 726.377 25.92Z" fill="#004552"/>
</svg>
