<svg width="812" height="76" viewBox="0 0 812 76" fill="none" xmlns="http://www.w3.org/2000/svg">
<path d="M39.5842 68.4787H32.6703L11.7175 32.0621C12.7379 32.1324 13.7231 32.1676 14.6731 32.1676C23.9971 32.1676 28.6592 27.7871 28.6592 19.026C28.6592 9.35003 22.8008 4.60003 11.0842 4.77595L6.80916 4.82873V68.426H0.47583V2.98151C1.46102 2.91114 5.27861 2.87595 11.9286 2.87595C27.3045 2.73521 34.9925 8.03058 34.9925 18.7621C34.9925 22.9843 33.6203 26.45 30.8758 29.1593C28.1314 31.8334 24.4018 33.4519 19.6869 34.0148L39.5842 68.4787ZM91.6457 68.426L52.6957 68.4787C60.5772 61.7232 67.3855 53.3139 73.1207 43.251C78.8559 33.1528 81.7235 24.4973 81.7235 17.2843C81.7235 8.4528 77.9059 4.03706 70.2707 4.03706C65.38 4.03706 60.9642 6.21854 57.0235 10.5815L55.1763 8.20651C59.2578 3.98429 64.2892 1.87318 70.2707 1.87318C76.3578 1.87318 81.0022 3.26299 84.2041 6.04262C87.23 8.64632 88.743 12.2704 88.743 16.9148C88.743 21.876 86.2624 28.6139 81.3013 37.1287C76.0939 46.1713 69.3207 55.0028 60.9818 63.6232H91.6457V68.426ZM147.31 35.651C147.31 45.925 145.129 54.1935 140.766 60.4565C136.614 66.438 131.371 69.4287 125.038 69.4287C118.669 69.4287 113.409 66.438 109.257 60.4565C104.93 54.1935 102.766 45.925 102.766 35.651C102.766 25.3417 104.93 17.0556 109.257 10.7926C113.409 4.84633 118.669 1.87318 125.038 1.87318C131.371 1.87318 136.614 4.84633 140.766 10.7926C145.129 17.0556 147.31 25.3417 147.31 35.651ZM140.66 35.651C140.66 26.0806 139.13 18.3574 136.069 12.4815C133.148 6.8167 129.471 3.98429 125.038 3.98429C120.569 3.98429 116.875 6.8167 113.955 12.4815C110.929 18.3574 109.416 26.0806 109.416 35.651C109.416 45.1861 110.929 52.9093 113.955 58.8204C116.875 64.4852 120.569 67.3176 125.038 67.3176C129.471 67.3176 133.148 64.4852 136.069 58.8204C139.13 52.9093 140.66 45.1861 140.66 35.651Z" fill="#991F25"/>
<path d="M178.928 28.8548H222.768L225.888 24.1348C225.888 24.1348 226.208 24.4548 226.848 25.0948C227.541 25.7348 228.341 26.5082 229.248 27.4148C230.155 28.2682 230.928 29.0948 231.568 29.8948C231.408 30.7482 230.741 31.1748 229.568 31.1748H179.568L178.928 28.8548ZM180.128 9.73484H217.088L221.568 3.97484C221.568 3.97484 221.835 4.21484 222.368 4.69484C222.901 5.12151 223.568 5.68151 224.368 6.37484C225.221 7.01484 226.101 7.73484 227.008 8.53484C227.915 9.33484 228.741 10.0815 229.488 10.7748C229.275 11.6282 228.555 12.0548 227.328 12.0548H180.768L180.128 9.73484ZM198.928 1.01484L209.088 1.97484C209.035 2.50817 208.821 2.98817 208.448 3.41484C208.075 3.78817 207.381 4.05484 206.368 4.21484V69.7348L198.928 66.8548V1.01484ZM184.208 18.7748H217.888V21.0948H184.928L184.208 18.7748ZM183.568 39.5748H218.448V41.8948H184.288L183.568 39.5748ZM215.248 18.7748H214.528L217.968 15.0948L225.168 20.6148C224.955 20.8282 224.581 21.0948 224.048 21.4148C223.568 21.6815 222.981 21.8948 222.288 22.0548V42.6948C222.288 42.8548 221.968 43.1215 221.328 43.4948C220.688 43.8148 219.915 44.1348 219.008 44.4548C218.101 44.7215 217.248 44.8548 216.448 44.8548H215.248V18.7748ZM202.688 51.6548H213.568L217.808 46.1348C217.808 46.1348 218.075 46.3482 218.608 46.7748C219.141 47.2015 219.808 47.7615 220.608 48.4548C221.408 49.0948 222.235 49.7882 223.088 50.5348C223.995 51.2815 224.795 52.0015 225.488 52.6948C225.275 53.4948 224.555 53.8948 223.328 53.8948H202.688V51.6548ZM184.128 45.4148L194.528 47.2548C194.261 48.4282 193.301 49.0415 191.648 49.0948C190.315 55.7082 188.235 61.0948 185.408 65.2548C182.581 69.4148 178.928 72.6948 174.448 75.0948L173.488 74.2148C176.581 70.8015 179.061 66.6948 180.928 61.8948C182.848 57.0415 183.915 51.5482 184.128 45.4148ZM188.608 53.7348C190.208 57.0948 192.181 59.6548 194.528 61.4148C196.875 63.1215 199.728 64.2682 203.088 64.8548C206.448 65.4415 210.421 65.7348 215.008 65.7348C216.235 65.7348 217.861 65.7348 219.888 65.7348C221.968 65.7348 224.048 65.7348 226.128 65.7348C228.261 65.6815 230.021 65.6548 231.408 65.6548V66.6948C230.235 66.9615 229.355 67.6548 228.768 68.7748C228.181 69.9482 227.915 71.3082 227.968 72.8548C227.008 72.8548 225.675 72.8548 223.968 72.8548C222.261 72.8548 220.528 72.8548 218.768 72.8548C217.061 72.8548 215.675 72.8548 214.608 72.8548C209.755 72.8548 205.595 72.3215 202.128 71.2548C198.661 70.2415 195.755 68.4015 193.408 65.7348C191.115 63.0148 189.221 59.1748 187.728 54.2148L188.608 53.7348ZM155.888 19.3348H174.128L177.728 13.5748C177.728 13.5748 177.941 13.8148 178.368 14.2948C178.795 14.7215 179.328 15.2815 179.968 15.9748C180.661 16.6682 181.355 17.4148 182.048 18.2148C182.795 18.9615 183.435 19.6815 183.968 20.3748C183.808 21.2282 183.141 21.6548 181.968 21.6548H156.528L155.888 19.3348ZM165.968 0.614841L176.208 1.65484C176.155 2.18818 175.888 2.66818 175.408 3.09484C174.981 3.46817 174.261 3.73484 173.248 3.89484V65.5748C173.248 67.3882 173.035 68.9348 172.608 70.2148C172.235 71.5482 171.355 72.5882 169.968 73.3348C168.635 74.1348 166.528 74.6948 163.648 75.0148C163.595 73.8415 163.435 72.8015 163.168 71.8948C162.955 70.9882 162.608 70.2415 162.128 69.6548C161.595 69.0682 160.901 68.5882 160.048 68.2148C159.195 67.7882 157.941 67.4415 156.288 67.1748V65.9748C156.288 65.9748 156.635 66.0015 157.328 66.0548C158.021 66.1082 158.848 66.1615 159.808 66.2148C160.768 66.2682 161.675 66.3215 162.528 66.3748C163.381 66.4282 163.995 66.4548 164.368 66.4548C165.008 66.4548 165.435 66.3482 165.648 66.1348C165.861 65.9215 165.968 65.5482 165.968 65.0148V0.614841ZM154.688 41.0148C156.235 40.6948 158.448 40.1615 161.328 39.4148C164.208 38.6148 167.461 37.6815 171.088 36.6148C174.715 35.4948 178.421 34.3748 182.208 33.2548L182.448 34.2148C179.995 35.8148 176.901 37.7882 173.168 40.1348C169.435 42.4815 165.035 45.0682 159.968 47.8948C159.755 48.9615 159.141 49.6548 158.128 49.9748L154.688 41.0148ZM249.408 55.1748C251.328 58.4282 253.675 60.8548 256.448 62.4548C259.275 64.0548 262.715 65.1215 266.768 65.6548C270.821 66.1348 275.675 66.3748 281.328 66.3748C282.981 66.3748 285.061 66.3748 287.568 66.3748C290.075 66.3748 292.741 66.3748 295.568 66.3748C298.395 66.3215 301.088 66.2948 303.648 66.2948C306.261 66.2415 308.421 66.1882 310.128 66.1348V67.1748C308.795 67.4948 307.781 68.1882 307.088 69.2548C306.448 70.3215 306.075 71.5482 305.968 72.9348C304.635 72.9348 302.875 72.9348 300.688 72.9348C298.501 72.9348 296.181 72.9348 293.728 72.9348C291.275 72.9348 288.928 72.9348 286.688 72.9348C284.448 72.9348 282.608 72.9348 281.168 72.9348C276.741 72.9348 272.795 72.6948 269.328 72.2148C265.915 71.7348 262.928 70.8815 260.368 69.6548C257.808 68.4282 255.541 66.6948 253.568 64.4548C251.648 62.2148 249.941 59.3082 248.448 55.7348L249.408 55.1748ZM298.848 5.57484L302.768 1.65484L309.808 8.37484C309.275 8.85484 308.261 9.14817 306.768 9.25484C305.755 10.3215 304.448 11.5482 302.848 12.9348C301.301 14.2682 299.861 15.3882 298.528 16.2948L297.648 15.7348C297.915 14.8282 298.181 13.7615 298.448 12.5348C298.715 11.2548 298.955 10.0015 299.168 8.77484C299.435 7.54817 299.621 6.48151 299.728 5.57484H298.848ZM265.328 1.25484C266.288 3.86817 266.741 6.18817 266.688 8.21484C266.635 10.2415 266.208 11.9482 265.408 13.3348C264.661 14.7215 263.755 15.7082 262.688 16.2948C261.621 16.8815 260.421 17.0682 259.088 16.8548C257.808 16.5882 256.955 15.8682 256.528 14.6948C256.208 13.5215 256.341 12.5082 256.928 11.6548C257.568 10.7482 258.395 10.0548 259.408 9.57484C260.635 8.88151 261.755 7.78817 262.768 6.29484C263.781 4.74817 264.208 3.09484 264.048 1.33484L265.328 1.25484ZM300.208 48.0548C300.208 48.0548 300.635 48.4015 301.488 49.0948C302.395 49.7348 303.461 50.5348 304.688 51.4948C305.915 52.4548 307.008 53.3882 307.968 54.2948C307.808 55.1482 307.088 55.5748 305.808 55.5748H259.568L258.928 53.2548H295.968L300.208 48.0548ZM297.408 12.6148C297.408 12.6148 297.835 12.9348 298.688 13.5748C299.541 14.2148 300.555 14.9882 301.728 15.8948C302.901 16.8015 303.968 17.6815 304.928 18.5348C304.715 19.3882 304.021 19.8148 302.848 19.8148H261.568L260.928 17.4948H293.408L297.408 12.6148ZM288.288 10.8548C288.235 11.3882 287.995 11.8682 287.568 12.2948C287.141 12.6682 286.421 12.9348 285.408 13.0948V63.1748C285.408 63.4415 285.115 63.7615 284.528 64.1348C283.941 64.5082 283.221 64.8282 282.368 65.0948C281.515 65.3615 280.635 65.4948 279.728 65.4948H278.448V9.81484L288.288 10.8548ZM269.968 47.4148C269.968 47.5748 269.675 47.8415 269.088 48.2148C268.501 48.5882 267.781 48.9348 266.928 49.2548C266.075 49.5215 265.168 49.6548 264.208 49.6548H263.168V25.3348V22.2948L270.368 25.3348H297.568V27.6548H269.968V47.4148ZM303.248 5.57484V7.89484H264.288V5.57484H303.248ZM296.928 34.6148V36.9348H266.688V34.6148H296.928ZM296.928 43.8948V46.2148H266.688V43.8948H296.928ZM293.088 25.3348L296.608 21.5748L304.048 27.2548C303.835 27.5748 303.408 27.8948 302.768 28.2148C302.181 28.4815 301.488 28.6948 300.688 28.8548V46.3748C300.688 46.5882 300.368 46.8548 299.728 47.1748C299.088 47.4948 298.315 47.7882 297.408 48.0548C296.555 48.3215 295.755 48.4548 295.008 48.4548H293.888V25.3348H293.088ZM256.048 23.1748C255.461 24.2415 254.715 25.5482 253.808 27.0948C252.901 28.6415 251.915 30.2682 250.848 31.9748C249.835 33.6282 248.821 35.2548 247.808 36.8548C246.795 38.4015 245.915 39.7615 245.168 40.9348H245.808L243.248 43.1748L237.408 38.6148C237.941 38.2415 238.635 37.8948 239.488 37.5748C240.395 37.2015 241.221 36.9615 241.968 36.8548L239.168 39.0948C239.968 37.9748 240.875 36.6148 241.888 35.0148C242.955 33.4148 244.021 31.7082 245.088 29.8948C246.155 28.0815 247.141 26.3482 248.048 24.6948C248.955 23.0415 249.675 21.6282 250.208 20.4548L256.048 23.1748ZM249.168 20.5348L252.528 17.1748L259.248 23.1748C258.821 23.6015 258.155 23.9215 257.248 24.1348C256.395 24.3482 255.435 24.4548 254.368 24.4548C253.301 24.4548 252.208 24.4015 251.088 24.2948L250.208 20.5348H249.168ZM251.488 38.6148L255.568 34.6148L262.528 40.6948C262.101 41.3348 261.061 41.7082 259.408 41.8148C258.288 45.7082 256.715 49.6548 254.688 53.6548C252.715 57.6015 250.235 61.3882 247.248 65.0148C244.315 68.5882 240.875 71.7348 236.928 74.4548L236.048 73.5748C238.875 70.5348 241.381 67.0682 243.568 63.1748C245.755 59.2282 247.595 55.1482 249.088 50.9348C250.581 46.6682 251.648 42.5615 252.288 38.6148H251.488ZM253.488 20.5348V22.8548H236.928L236.208 20.5348H253.488ZM254.048 38.6148V40.9348H242.208L243.168 38.6148H254.048ZM240.928 1.25484C244.075 2.00151 246.581 2.93484 248.448 4.05484C250.315 5.17484 251.648 6.37484 252.448 7.65484C253.248 8.88151 253.621 10.0548 253.568 11.1748C253.568 12.2415 253.248 13.1482 252.608 13.8948C251.968 14.6415 251.141 15.0682 250.128 15.1748C249.168 15.2282 248.128 14.8548 247.008 14.0548C246.795 12.6148 246.315 11.1482 245.568 9.65484C244.875 8.16151 244.048 6.74817 243.088 5.41484C242.128 4.02817 241.141 2.82817 240.128 1.81484L240.928 1.25484ZM376.917 47.6843C376.917 53.8769 374.788 59.0491 370.531 63.201C366.309 67.3528 361.101 69.4287 354.909 69.4287C348.47 69.4287 343.227 67.0185 339.181 62.1982L341.503 59.9815C345.057 64.8371 349.367 67.2648 354.434 67.2648C359.043 67.2648 362.86 65.4 365.886 61.6704C368.912 57.9408 370.425 53.2963 370.425 47.7371C370.425 42.1074 368.824 37.5861 365.623 34.1732C362.667 31.0065 359.078 29.4232 354.856 29.4232C349.297 29.4232 344.793 31.0065 341.345 34.1732L344.564 2.92873H372.589V7.73151H346.306L344.036 29.6871C347.52 27.6111 351.654 26.5732 356.439 26.5732C362.421 26.5732 367.329 28.5611 371.164 32.5371C374.999 36.4778 376.917 41.5269 376.917 47.6843ZM433.77 35.651C433.77 45.925 431.589 54.1935 427.226 60.4565C423.074 66.438 417.831 69.4287 411.498 69.4287C405.129 69.4287 399.869 66.438 395.717 60.4565C391.39 54.1935 389.226 45.925 389.226 35.651C389.226 25.3417 391.39 17.0556 395.717 10.7926C399.869 4.84633 405.129 1.87318 411.498 1.87318C417.831 1.87318 423.074 4.84633 427.226 10.7926C431.589 17.0556 433.77 25.3417 433.77 35.651ZM427.12 35.651C427.12 26.0806 425.59 18.3574 422.529 12.4815C419.608 6.8167 415.931 3.98429 411.498 3.98429C407.029 3.98429 403.335 6.8167 400.415 12.4815C397.389 18.3574 395.876 26.0806 395.876 35.651C395.876 45.1861 397.389 52.9093 400.415 58.8204C403.335 64.4852 407.029 67.3176 411.498 67.3176C415.931 67.3176 419.608 64.4852 422.529 58.8204C425.59 52.9093 427.12 45.1861 427.12 35.651ZM489.898 35.651C489.898 45.925 487.717 54.1935 483.354 60.4565C479.202 66.438 473.959 69.4287 467.626 69.4287C461.257 69.4287 455.997 66.438 451.845 60.4565C447.518 54.1935 445.354 45.925 445.354 35.651C445.354 25.3417 447.518 17.0556 451.845 10.7926C455.997 4.84633 461.257 1.87318 467.626 1.87318C473.959 1.87318 479.202 4.84633 483.354 10.7926C487.717 17.0556 489.898 25.3417 489.898 35.651ZM483.248 35.651C483.248 26.0806 481.718 18.3574 478.656 12.4815C475.736 6.8167 472.059 3.98429 467.626 3.98429C463.157 3.98429 459.463 6.8167 456.543 12.4815C453.517 18.3574 452.004 26.0806 452.004 35.651C452.004 45.1861 453.517 52.9093 456.543 58.8204C459.463 64.4852 463.157 67.3176 467.626 67.3176C472.059 67.3176 475.736 64.4852 478.656 58.8204C481.718 52.9093 483.248 45.1861 483.248 35.651ZM525.436 44.4548C523.676 47.3882 521.463 50.4282 518.796 53.5748C516.129 56.7215 513.116 59.7348 509.756 62.6148C506.396 65.4415 502.823 67.8682 499.036 69.8948L498.316 69.1748C500.449 67.2015 502.556 64.9348 504.636 62.3748C506.716 59.8148 508.636 57.1215 510.396 54.2948C512.156 51.4682 513.703 48.7215 515.036 46.0548C516.423 43.3348 517.489 40.8548 518.236 38.6148L528.956 42.9348C528.743 43.4148 528.396 43.7882 527.916 44.0548C527.436 44.3215 526.609 44.4548 525.436 44.4548ZM544.476 39.9748C549.809 42.1082 554.156 44.3748 557.516 46.7748C560.876 49.1215 563.463 51.4148 565.276 53.6548C567.143 55.8948 568.343 57.9748 568.876 59.8948C569.409 61.7615 569.436 63.3082 568.956 64.5348C568.476 65.7615 567.649 66.5348 566.476 66.8548C565.356 67.1215 564.049 66.7482 562.556 65.7348C561.703 63.7082 560.556 61.6015 559.116 59.4148C557.729 57.1748 556.156 54.9348 554.396 52.6948C552.636 50.4548 550.796 48.3215 548.876 46.2948C547.009 44.2148 545.249 42.3215 543.596 40.6148L544.476 39.9748ZM567.756 9.81484C567.543 10.2415 567.143 10.5882 566.556 10.8548C565.969 11.0682 565.249 11.0948 564.396 10.9348C561.676 14.2948 558.663 17.3882 555.356 20.2148C552.103 23.0415 548.876 25.3615 545.676 27.1748L544.716 26.4548C546.103 24.6948 547.516 22.6682 548.956 20.3748C550.449 18.0282 551.916 15.4948 553.356 12.7748C554.796 10.0548 556.103 7.33484 557.276 4.61484L567.756 9.81484ZM506.476 6.13484C510.636 7.68151 514.023 9.38817 516.636 11.2548C519.249 13.1215 521.196 14.9615 522.476 16.7748C523.756 18.5882 524.503 20.2682 524.716 21.8148C524.983 23.3082 524.849 24.5615 524.316 25.5748C523.836 26.5882 523.063 27.2015 521.996 27.4148C520.929 27.6282 519.729 27.2548 518.396 26.2948C517.756 24.1615 516.716 21.9215 515.276 19.5748C513.889 17.1748 512.316 14.8548 510.556 12.6148C508.849 10.3748 507.223 8.40151 505.676 6.69484L506.476 6.13484ZM542.476 1.81484C542.423 2.34817 542.183 2.82817 541.756 3.25484C541.383 3.62817 540.663 3.89484 539.596 4.05484V72.3748C539.596 72.6415 539.249 72.9882 538.556 73.4148C537.916 73.8415 537.089 74.2148 536.076 74.5348C535.063 74.8548 534.023 75.0148 532.956 75.0148H531.356V0.69484L542.476 1.81484ZM563.036 25.0948C563.036 25.0948 563.356 25.3615 563.996 25.8948C564.636 26.3748 565.436 27.0148 566.396 27.8148C567.356 28.5615 568.369 29.3882 569.436 30.2948C570.503 31.1482 571.489 31.9482 572.396 32.6948C572.183 33.5482 571.436 33.9748 570.156 33.9748H500.396L499.756 31.6548H557.916L563.036 25.0948ZM622.556 34.6948C622.503 35.2815 622.263 35.7615 621.836 36.1348C621.463 36.5082 620.743 36.7748 619.676 36.9348V56.1348C619.676 56.4548 619.329 56.8548 618.636 57.3348C617.943 57.7615 617.063 58.1615 615.996 58.5348C614.983 58.8548 613.969 59.0148 612.956 59.0148H611.996V33.8948L622.556 34.6948ZM636.396 8.69484C636.396 8.69484 636.689 8.93484 637.276 9.41484C637.863 9.84151 638.609 10.4282 639.516 11.1748C640.476 11.8682 641.463 12.6148 642.476 13.4148C643.489 14.2148 644.423 14.9882 645.276 15.7348C645.063 16.5882 644.316 17.0148 643.036 17.0148H615.516V14.6948H631.596L636.396 8.69484ZM602.636 7.81484C602.583 8.29484 602.369 8.72151 601.996 9.09484C601.623 9.41484 600.956 9.65484 599.996 9.81484V31.2548H592.636V6.85484L602.636 7.81484ZM622.636 1.57484C622.583 2.16151 622.343 2.64151 621.916 3.01484C621.489 3.38817 620.769 3.65484 619.756 3.81484V31.3348H611.996V0.614841L622.636 1.57484ZM644.236 23.7348C644.236 23.7348 644.529 23.9748 645.116 24.4548C645.756 24.8815 646.503 25.4682 647.356 26.2148C648.263 26.9082 649.223 27.6548 650.236 28.4548C651.249 29.2548 652.156 30.0282 652.956 30.7748C652.903 31.2015 652.663 31.5215 652.236 31.7348C651.863 31.9482 651.383 32.0548 650.796 32.0548H579.356L578.636 29.7348H639.516L644.236 23.7348ZM645.836 42.8548C645.569 43.3348 645.143 43.6282 644.556 43.7348C644.023 43.8415 643.223 43.7882 642.156 43.5748C638.103 49.4948 633.809 54.3748 629.276 58.2148C624.796 62.0015 620.023 65.0415 614.956 67.3348C609.889 69.6282 604.476 71.3615 598.716 72.5348C593.009 73.7082 586.849 74.5882 580.236 75.1748L579.996 73.8148C585.916 72.5882 591.543 71.1215 596.876 69.4148C602.263 67.7615 607.276 65.6015 611.916 62.9348C616.609 60.2148 620.983 56.8015 625.036 52.6948C629.089 48.5348 632.743 43.4148 635.996 37.3348L645.836 42.8548ZM606.636 40.7748C606.369 41.1482 606.023 41.4415 605.596 41.6548C605.169 41.8148 604.503 41.8415 603.596 41.7348C601.996 43.7615 600.049 45.8682 597.756 48.0548C595.463 50.2415 592.876 52.3215 589.996 54.2948C587.169 56.2682 584.183 57.9748 581.036 59.4148L580.316 58.4548C582.716 56.4282 584.983 54.1082 587.116 51.4948C589.303 48.8815 591.223 46.1882 592.876 43.4148C594.583 40.6415 595.916 38.1082 596.876 35.8148L606.636 40.7748ZM678.316 17.2548L687.996 22.6948C687.783 23.1215 687.463 23.4148 687.036 23.5748C686.609 23.7348 685.889 23.7348 684.876 23.5748C682.956 26.0282 680.609 28.6948 677.836 31.5748C675.116 34.4548 672.076 37.2815 668.716 40.0548C665.409 42.8282 661.943 45.3348 658.316 47.5748L657.516 46.6948C659.596 44.6148 661.649 42.3215 663.676 39.8148C665.756 37.2548 667.703 34.6415 669.516 31.9748C671.383 29.3082 673.063 26.7215 674.556 24.2148C676.049 21.6548 677.303 19.3348 678.316 17.2548ZM677.516 0.854838L686.796 6.45484C686.583 6.82817 686.236 7.09484 685.756 7.25484C685.276 7.41484 684.583 7.41484 683.676 7.25484C681.916 9.06817 679.783 11.0148 677.276 13.0948C674.769 15.1748 672.023 17.2015 669.036 19.1748C666.103 21.0948 663.089 22.8282 659.996 24.3748L659.196 23.4148C661.596 21.3348 663.969 18.9615 666.316 16.2948C668.663 13.5748 670.823 10.8815 672.796 8.21484C674.769 5.49484 676.343 3.04151 677.516 0.854838ZM670.716 34.5348L673.996 30.2148L680.796 32.8548C680.476 33.6015 679.676 34.0815 678.396 34.2948V72.8548C678.343 73.0682 677.996 73.3348 677.356 73.6548C676.769 74.0282 675.996 74.3482 675.036 74.6148C674.076 74.8815 673.116 75.0148 672.156 75.0148H670.716V34.5348ZM690.636 8.45484H717.996L722.316 2.85484C722.316 2.85484 722.583 3.06817 723.116 3.49484C723.703 3.92151 724.396 4.48151 725.196 5.17484C726.049 5.81484 726.929 6.53484 727.836 7.33484C728.743 8.08151 729.569 8.80151 730.316 9.49484C730.103 10.3482 729.383 10.7748 728.156 10.7748H691.196L690.636 8.45484ZM686.156 26.8548H720.796L725.276 21.0948C725.276 21.0948 725.543 21.3348 726.076 21.8148C726.663 22.2415 727.383 22.8015 728.236 23.4948C729.089 24.1348 729.969 24.8548 730.876 25.6548C731.836 26.4548 732.689 27.2015 733.436 27.8948C733.223 28.7482 732.503 29.1748 731.276 29.1748H686.796L686.156 26.8548ZM711.116 27.2548H718.876V64.3748C718.876 66.1882 718.609 67.8148 718.076 69.2548C717.543 70.6948 716.423 71.8682 714.716 72.7748C713.009 73.6815 710.396 74.2682 706.876 74.5348C706.769 73.2548 706.503 72.1348 706.076 71.1748C705.703 70.2682 705.143 69.5215 704.396 68.9348C703.596 68.3482 702.503 67.8415 701.116 67.4148C699.729 66.9348 697.729 66.5082 695.116 66.1348V65.0148C695.116 65.0148 695.516 65.0415 696.316 65.0948C697.116 65.1482 698.129 65.2282 699.356 65.3348C700.583 65.3882 701.836 65.4682 703.116 65.5748C704.449 65.6282 705.649 65.6815 706.716 65.7348C707.783 65.7882 708.556 65.8148 709.036 65.8148C709.836 65.8148 710.369 65.6815 710.636 65.4148C710.956 65.1482 711.116 64.7215 711.116 64.1348V27.2548ZM782.636 32.8548C786.689 33.9215 789.889 35.1748 792.236 36.6148C794.583 38.0548 796.236 39.5215 797.196 41.0148C798.209 42.4548 798.663 43.7348 798.556 44.8548C798.503 45.9748 798.076 46.7748 797.276 47.2548C796.476 47.6815 795.463 47.6015 794.236 47.0148C793.489 45.5748 792.396 44.0548 790.956 42.4548C789.516 40.8015 787.969 39.2015 786.316 37.6548C784.716 36.0548 783.223 34.6948 781.836 33.5748L782.636 32.8548ZM779.996 40.1348L782.956 37.0948L789.036 41.9748C788.769 42.2415 788.396 42.4815 787.916 42.6948C787.436 42.8548 786.823 42.9882 786.076 43.0948C786.023 46.1882 785.809 48.5082 785.436 50.0548C785.063 51.5482 784.343 52.6682 783.276 53.4148C782.529 53.8948 781.676 54.2415 780.716 54.4548C779.756 54.6682 778.663 54.7482 777.436 54.6948C777.436 54.0548 777.383 53.4415 777.276 52.8548C777.169 52.2682 776.903 51.7882 776.476 51.4148C776.156 51.0415 775.649 50.7482 774.956 50.5348C774.316 50.3215 773.623 50.1348 772.876 49.9748V48.6948C773.676 48.7482 774.609 48.8015 775.676 48.8548C776.743 48.9082 777.569 48.9348 778.156 48.9348C778.956 48.9348 779.516 48.8015 779.836 48.5348C780.103 48.2148 780.316 47.3882 780.476 46.0548C780.636 44.7215 780.743 42.7482 780.796 40.1348H779.996ZM794.236 13.9748C794.023 14.4015 793.649 14.7482 793.116 15.0148C792.636 15.2282 791.996 15.2815 791.196 15.1748C789.916 16.4015 788.529 17.6282 787.036 18.8548C785.543 20.0282 784.156 20.9882 782.876 21.7348L781.676 21.0148C782.423 19.7882 783.196 18.2415 783.996 16.3748C784.849 14.4548 785.676 12.5082 786.476 10.5348L794.236 13.9748ZM757.996 10.2148C760.396 10.9615 762.289 11.8148 763.676 12.7748C765.063 13.7348 766.023 14.7215 766.556 15.7348C767.089 16.7482 767.303 17.7082 767.196 18.6148C767.089 19.4682 766.743 20.1615 766.156 20.6948C765.569 21.2282 764.849 21.4948 763.996 21.4948C763.196 21.4948 762.343 21.1215 761.436 20.3748C761.329 18.7215 760.823 17.0148 759.916 15.2548C759.063 13.4415 758.129 11.9482 757.116 10.7748L757.996 10.2148ZM761.996 38.5348L763.036 37.4948L769.276 40.1348H768.236V56.3748C768.236 56.9615 768.396 57.3348 768.716 57.4948C769.089 57.6548 769.943 57.7348 771.276 57.7348H778.876C780.423 57.7348 781.809 57.7348 783.036 57.7348C784.316 57.7348 785.196 57.7082 785.676 57.6548C786.529 57.6015 787.116 57.3348 787.436 56.8548C787.756 56.3748 788.129 55.4948 788.556 54.2148C788.983 52.9348 789.436 51.4948 789.916 49.8948H790.876L791.116 57.0148C792.076 57.3348 792.716 57.6815 793.036 58.0548C793.356 58.4282 793.516 58.9082 793.516 59.4948C793.516 60.4015 793.116 61.1215 792.316 61.6548C791.516 62.1882 790.023 62.5615 787.836 62.7748C785.649 62.9882 782.476 63.0948 778.316 63.0948H769.996C767.756 63.0948 766.049 62.9348 764.876 62.6148C763.756 62.2415 762.983 61.6548 762.556 60.8548C762.183 60.0548 761.996 58.9348 761.996 57.4948V40.1348V38.5348ZM782.796 40.1348V42.4548H765.756L765.036 40.1348H782.796ZM782.636 10.4548C782.476 11.0415 782.129 11.4948 781.596 11.8148C781.116 12.0815 780.449 12.2148 779.596 12.2148C778.476 16.7482 776.823 21.2548 774.636 25.7348C772.503 30.1615 769.596 34.2948 765.916 38.1348C762.289 41.9748 757.623 45.2548 751.916 47.9748L751.196 47.0948C755.836 43.9482 759.623 40.2415 762.556 35.9748C765.543 31.7082 767.863 27.2015 769.516 22.4548C771.169 17.7082 772.316 13.0415 772.956 8.45484L782.636 10.4548ZM793.596 27.4948C793.596 27.4948 793.943 27.7882 794.636 28.3748C795.383 28.9082 796.263 29.6015 797.276 30.4548C798.289 31.2548 799.196 32.0548 799.996 32.8548C799.783 33.7082 799.089 34.1348 797.916 34.1348H752.876L752.236 31.8148H790.076L793.596 27.4948ZM790.476 18.9348C790.476 18.9348 790.849 19.2015 791.596 19.7348C792.343 20.2682 793.223 20.9348 794.236 21.7348C795.249 22.4815 796.183 23.2282 797.036 23.9748C796.823 24.8282 796.129 25.2548 794.956 25.2548H755.356L754.716 22.9348H786.956L790.476 18.9348ZM750.556 71.8948C750.556 72.2148 750.263 72.6148 749.676 73.0948C749.143 73.5748 748.396 73.9748 747.436 74.2948C746.529 74.6682 745.516 74.8548 744.396 74.8548H743.036V5.25484V1.73484L751.276 5.25484H803.356V7.57484H750.556V71.8948ZM799.676 5.25484L803.596 0.934842L811.516 7.25484C811.249 7.62817 810.823 7.94817 810.236 8.21484C809.649 8.48151 808.956 8.72151 808.156 8.93484V71.6548C808.156 71.8148 807.809 72.1082 807.116 72.5348C806.423 73.0148 805.569 73.4148 804.556 73.7348C803.596 74.0548 802.636 74.2148 801.676 74.2148H800.476V5.25484H799.676ZM803.356 66.4548V68.7748H747.676V66.4548H803.356Z" fill="black"/>
</svg>
