<?xml version="1.0" encoding="UTF-8"?>
<svg id="_圖層_1" data-name="圖層_1" xmlns="http://www.w3.org/2000/svg" version="1.1" xmlns:xlink="http://www.w3.org/1999/xlink" viewBox="0 0 1002 278">
  <!-- Generator: Adobe Illustrator 30.0.0, SVG Export Plug-In . SVG Version: 2.1.1 Build 123)  -->
  <defs>
    <radialGradient id="_未命名漸層_3" data-name="未命名漸層 3" cx="659.4" cy="622.2" fx="659.4" fy="622.2" r="76.7" gradientTransform="translate(-395.5 72.5) rotate(45) scale(1 -1)" gradientUnits="userSpaceOnUse">
      <stop offset=".9" stop-color="#cb1f25"/>
      <stop offset="1" stop-color="#e21f25"/>
    </radialGradient>
    <radialGradient id="_未命名漸層_4" data-name="未命名漸層 4" cx="0" cy="280" fx="0" fy="280" r="56.3" gradientTransform="translate(934.2 378.8) scale(1 -1)" gradientUnits="userSpaceOnUse">
      <stop offset=".8" stop-color="#cfcdcd"/>
      <stop offset="1" stop-color="#f1f1f2"/>
    </radialGradient>
    <linearGradient id="_未命名漸層_5" data-name="未命名漸層 5" x1="0" y1="255" x2="0" y2="305" gradientTransform="translate(934.2 378.8) scale(1 -1)" gradientUnits="userSpaceOnUse">
      <stop offset="0" stop-color="#fff"/>
      <stop offset="1" stop-color="#f1f1f2"/>
    </linearGradient>
    <radialGradient id="_未命名漸層_6" data-name="未命名漸層 6" cx="0" cy="280" fx="0" fy="280" r="56.3" gradientTransform="translate(732.7 378.8) scale(1 -1)" gradientUnits="userSpaceOnUse">
      <stop offset=".8" stop-color="#cfcdcd"/>
      <stop offset="1" stop-color="#f1f1f2"/>
    </radialGradient>
    <linearGradient id="_未命名漸層_7" data-name="未命名漸層 7" x1="0" y1="255" x2="0" y2="305" gradientTransform="translate(732.7 378.8) scale(1 -1)" gradientUnits="userSpaceOnUse">
      <stop offset="0" stop-color="#fff"/>
      <stop offset="1" stop-color="#f1f1f2"/>
    </linearGradient>
    <radialGradient id="_未命名漸層_8" data-name="未命名漸層 8" cx="0" cy="280" fx="0" fy="280" r="56.3" gradientTransform="translate(296.2 378.8) scale(1 -1)" gradientUnits="userSpaceOnUse">
      <stop offset=".8" stop-color="#cfcdcd"/>
      <stop offset="1" stop-color="#f1f1f2"/>
    </radialGradient>
    <linearGradient id="_未命名漸層_9" data-name="未命名漸層 9" x1="0" y1="255" x2="0" y2="305" gradientTransform="translate(296.2 378.8) scale(1 -1)" gradientUnits="userSpaceOnUse">
      <stop offset="0" stop-color="#fff"/>
      <stop offset="1" stop-color="#f1f1f2"/>
    </linearGradient>
    <radialGradient id="_未命名漸層_10" data-name="未命名漸層 10" cx="0" cy="280" fx="0" fy="280" r="56.3" gradientTransform="translate(102 378.8) scale(1 -1)" gradientUnits="userSpaceOnUse">
      <stop offset=".8" stop-color="#cfcdcd"/>
      <stop offset="1" stop-color="#f1f1f2"/>
    </radialGradient>
    <linearGradient id="_未命名漸層_11" data-name="未命名漸層 11" x1="0" y1="255" x2="0" y2="305" gradientTransform="translate(102 378.8) scale(1 -1)" gradientUnits="userSpaceOnUse">
      <stop offset="0" stop-color="#fff"/>
      <stop offset="1" stop-color="#f1f1f2"/>
    </linearGradient>
  </defs>
  <image width="1005" height="196" transform="translate(.6 0)" xlink:href="mrt-1.png" isolation="isolate"/>
  <line x1="95" y1="97.7" x2="909.8" y2="97.7" fill="none" stroke="#ff1f25" stroke-width="6.3"/>
  <line x1="95" y1="101.7" x2="909.8" y2="101.7" fill="none" stroke="#fff" stroke-width="6.3"/>
  <g>
    <circle cx="510.8" cy="98.8" r="76.7" fill="url(#_未命名漸層_3)"/>
    <circle cx="510.8" cy="98.8" r="65.2" fill="#e21f25"/>
  </g>
  <g id="oo">
    <circle cx="934.2" cy="98.8" r="56.3" fill="url(#_未命名漸層_4)"/>
    <circle cx="934.2" cy="98.8" r="47.9" fill="url(#_未命名漸層_5)"/>
  </g>
  <g id="oo1" data-name="oo">
    <circle cx="732.7" cy="98.8" r="56.3" fill="url(#_未命名漸層_6)"/>
    <circle cx="732.7" cy="98.8" r="47.9" fill="url(#_未命名漸層_7)"/>
  </g>
  <g id="oo2" data-name="oo">
    <circle cx="296.2" cy="98.8" r="56.3" fill="url(#_未命名漸層_8)"/>
    <circle cx="296.2" cy="98.8" r="47.9" fill="url(#_未命名漸層_9)"/>
  </g>
  <g id="oo3" data-name="oo">
    <circle cx="102" cy="98.8" r="56.3" fill="url(#_未命名漸層_10)"/>
    <circle cx="102" cy="98.8" r="47.9" fill="url(#_未命名漸層_11)"/>
  </g>
  <path d="M468.5,121.8v-40.9h10.3c4.1,0,7.4,1,9.9,3.1,2.4,2.1,3.6,4.8,3.6,8.3s-.6,4.4-1.8,6.2c-1.2,1.7-2.9,3-5.1,3.9,1.3.9,2.6,2,3.8,3.5,1.2,1.5,3,4.1,5.3,7.8,1.4,2.3,2.6,4.1,3.4,5.2l2.2,2.9h-7l-1.8-2.7s-.2-.3-.4-.5l-1.1-1.6-1.8-3-2-3.2c-1.2-1.7-2.3-3-3.3-4s-1.9-1.7-2.7-2.1c-.8-.4-2.2-.7-4.1-.7h-1.5v17.8h-5.9ZM476.1,85.8h-1.8v12.9h2.2c3,0,5-.3,6.1-.8s2-1.3,2.6-2.3.9-2.2.9-3.5-.3-2.5-1-3.5-1.6-1.8-2.9-2.2c-1.2-.4-3.3-.6-6.2-.6h0ZM512.4,116.1h15.6v5.7h-25.9v-.4l2.5-2.9c3.8-4.8,6.9-8.8,9.2-12.1s3.8-5.8,4.5-7.5,1-3.4,1-5-.7-4.2-2-5.5-3-2.1-5.2-2.1-3.3.5-4.8,1.4c-1.6,1-3,2.3-4.3,4.1v-7.4c3.2-2.6,6.5-3.9,9.8-3.9s6.5,1.2,8.8,3.6,3.5,5.4,3.5,9.1-.3,3.4-.9,5.3c-.6,1.9-1.6,4-3.1,6.4s-4,5.7-7.5,9.9l-1.3,1.5v-.2ZM542.9,80.3c3.7,0,6.8,2,9.3,5.9,2.4,3.9,3.7,8.9,3.7,15s-1.2,11.3-3.7,15.1c-2.4,3.9-5.6,5.8-9.5,5.8s-7.1-1.9-9.5-5.7c-2.4-3.8-3.6-8.9-3.6-15.1s1.2-11.3,3.7-15.2c2.5-3.9,5.7-5.8,9.7-5.8h-.1ZM543,85.9h-.3c-2.2,0-4,1.4-5.3,4.1-1.3,2.8-2,6.5-2,11.2s.6,8.6,1.9,11.4c1.3,2.8,3.1,4.1,5.3,4.1s4.1-1.4,5.4-4.1c1.3-2.8,2-6.5,2-11.2s-.6-8.5-1.9-11.3c-1.3-2.8-3-4.2-5.1-4.2h0Z" fill="#fff"/>
  <path d="M266.9,115.7v-30c4.2,0,11.7-.8,14.8,2.3,4.4,3.5,3.3,11.7-2.4,13.5,4.3,2.8,7.3,10.1,10.8,14.3h-5.1c-1.1-1.7-2.7-3.9-3.7-5.7-2.4-3.9-4.9-8.1-10-7.3v13.1h-4.3v-.2ZM272.5,89.3h-1.3v9.5c10.5,1.9,12.3-10.3,1.3-9.5ZM296.3,85.6h4.3v30h-4.3v-30ZM320.3,85.5l.4-.3,2.6,3.3c-4.4,2.9-7.5,6.1-9.2,11,13.6-7,18.9,16,4.1,16.5-16.5-1.9-8.5-24.9,2.1-30.5ZM313.2,104c-1.7,5.2,4,10.9,8.5,6.7,4.7-5.6-3.5-11.4-8.5-6.7ZM73.2,115.7v-30c4.2,0,11.7-.8,14.8,2.3,4.4,3.5,3.3,11.7-2.4,13.5,4.3,2.8,7.3,10.1,10.8,14.3h-5.1c-1.1-1.7-2.7-3.9-3.7-5.7-2.4-3.9-4.9-8.1-10-7.3v13.1h-4.3v-.2ZM78.8,89.3h-1.3v9.5c10.5,1.9,12.3-10.3,1.3-9.5ZM102.6,85.6h4.3v30h-4.3v-30ZM127.8,85.2h1.8v16.8h3.4v3.7h-3.4v9.9h-4.2v-9.9h-12.7v-1.8s15.1-18.7,15.1-18.7ZM125.4,102.1v-8.7l-6.9,8.7h6.9ZM700,115.7v-30c4.2,0,11.7-.8,14.8,2.3,4.4,3.5,3.3,11.7-2.4,13.5,4.3,2.8,7.3,10.1,10.8,14.3h-5.1c-1.1-1.7-2.7-3.9-3.7-5.7-2.4-3.9-4.9-8.1-10-7.3v13.1h-4.3v-.2ZM705.5,89.3h-1.3v9.5c10.5,1.9,12.3-10.3,1.3-9.5ZM733.9,111.5h11.4v4.1h-19v-.3c4.5-5.3,9.4-11.5,11.8-16.5,3.9-8.7-6.5-12.8-11.2-5.2v-5.5c6.1-5.7,16.5-2.3,16.2,6.4-.3,6.8-4.5,11.1-9.3,17h0ZM755.9,111.5h11.4v4.1h-19v-.3c4.5-5.3,9.4-11.5,11.8-16.5,3.9-8.7-6.5-12.8-11.2-5.2v-5.5c6.1-5.7,16.5-2.3,16.2,6.4-.4,6.8-4.5,11.1-9.3,17h0ZM902.8,115.7v-30c4.2,0,11.7-.8,14.8,2.3,4.4,3.5,3.2,11.7-2.4,13.5,4.3,2.8,7.3,10.1,10.8,14.3h-5.1c-1.1-1.7-2.7-3.9-3.7-5.7-2.4-3.9-4.9-8.1-10-7.3v13.1h-4.3v-.2ZM908.4,89.3h-1.3v9.5c10.5,1.9,12.3-10.3,1.3-9.5ZM935.9,111.5h11.4v4.1h-19v-.3c4.5-5.3,9.4-11.5,11.8-16.5,3.9-8.7-6.5-12.8-11.2-5.2v-5.5c6.1-5.7,16.5-2.3,16.2,6.4-.4,6.8-4.5,11.1-9.3,17h0ZM962.7,85.2h1.8v16.8h3.4v3.7h-3.4v9.9h-4.2v-9.9h-12.7v-1.8l15.1-18.7h0ZM960.3,102.1v-8.7l-6.9,8.7h6.9Z" fill="#b91f25"/>
  <path d="M715.8,274.1h8.6v3.1h-14.3v-.2l1.4-1.6c2.1-2.6,3.8-4.9,5.1-6.7,1.3-1.8,2.1-3.2,2.5-4.2s.6-1.9.6-2.8-.4-2.3-1.1-3.1c-.7-.8-1.7-1.2-2.9-1.2s-1.8.3-2.7.8-1.7,1.3-2.4,2.3v-4.1c1.8-1.4,3.6-2.2,5.4-2.2s3.6.7,4.9,2,1.9,3,1.9,5-.2,1.9-.5,2.9-.9,2.2-1.7,3.6-2.2,3.2-4.1,5.5l-.7.8h0ZM741.2,270.5l.3.9c-2.2,1.3-7.3,3.1-10.7,4.1l-.7-2.5c1.7-.2,4.1-.6,6.3-1.1.7-2.9,1.5-7.6,1.9-11.5l2.3.5c-.6,3.8-1.9,7.9-3,10.7,1.3-.3,2.5-.7,3.6-1h0ZM742.4,259.5h-11.8v-1.2h11.8v1.2ZM732.1,261l.8-.2c1.3,3,2.5,6.8,2.8,9.7l-2.2.4c-.2-2.8-.8-7-1.4-9.9h0ZM735.6,258.1c-.4-1.7-1-3.7-1.7-5.4l.9-.4c1.2,1.5,2.3,3.5,2.9,5l-2.1.7h0ZM748.2,260.1v5.9h5.5v11.9h-2.1v-2.2h-7.7v2.3h-2.1v-12h4.2v-13.4h2.1v6.4h6.8v1.2h-6.8,0ZM744,267.1v7.4h7.7v-7.4h-7.7ZM914.5,254.6h10v2.9h-7.1v5.7h.7c2.2,0,4,.7,5.4,2s2.1,3,2.1,5.1-.7,3.9-2.1,5.2c-1.4,1.3-3.2,2-5.4,2s-3.6-.4-5.3-1.3v-3.3c1.6,1.1,3.2,1.6,4.8,1.6s2.5-.4,3.4-1.2c.9-.8,1.4-1.8,1.4-2.9s-.5-2.2-1.5-3-2.3-1.2-3.8-1.2-2.2.1-2.6.3v-11.8h0ZM942.1,270.5l.3.9c-2.2,1.3-7.3,3.1-10.7,4.1l-.7-2.5c1.7-.2,4.1-.6,6.3-1.1.7-2.9,1.5-7.6,1.9-11.5l2.3.5c-.6,3.8-1.9,7.9-3,10.7,1.3-.3,2.5-.7,3.6-1h0ZM943.3,259.5h-11.8v-1.2h11.8v1.2ZM932.9,261l.8-.2c1.3,3,2.5,6.8,2.8,9.7l-2.2.4c-.2-2.8-.8-7-1.4-9.9h0ZM936.5,258.1c-.4-1.7-1-3.7-1.7-5.4l.9-.4c1.2,1.5,2.3,3.5,2.9,5l-2.1.7h0ZM949.1,260.1v5.9h5.5v11.9h-2.1v-2.2h-7.7v2.3h-2.1v-12h4.2v-13.4h2.1v6.4h6.8v1.2h-6.8,0ZM944.9,267.1v7.4h7.7v-7.4h-7.7ZM284.8,254.3h1.3v12.7h2.5v2.8h-2.5v7.5h-3.2v-7.5h-9.6v-1.4l11.4-14h.1ZM283,267v-6.6l-5.2,6.6h5.2ZM304,270.5l.3.9c-2.2,1.3-7.3,3.1-10.7,4.1l-.7-2.5c1.7-.2,4.1-.6,6.3-1.1.7-2.9,1.5-7.6,1.9-11.5l2.3.5c-.6,3.8-1.9,7.9-3,10.7,1.3-.3,2.5-.7,3.6-1h0ZM305.2,259.5h-11.8v-1.2h11.8v1.2ZM294.9,261l.8-.2c1.3,3,2.5,6.8,2.8,9.7l-2.2.4c-.2-2.8-.8-7-1.4-9.9h0ZM298.4,258.1c-.4-1.7-1-3.7-1.7-5.4l.9-.4c1.2,1.5,2.3,3.5,2.9,5l-2.1.7h0ZM311,260.1v5.9h5.5v11.9h-2.1v-2.2h-7.7v2.3h-2.1v-12h4.2v-13.4h2.1v6.4h6.8v1.2h-6.8.1ZM306.8,267.1v7.4h7.7v-7.4h-7.7ZM89.1,254.6l.3-.2,2,2.5c-1.7,1.1-3.2,2.3-4.3,3.6-1.1,1.3-2,2.9-2.6,4.7,1.2-.6,2.4-.9,3.6-.9,1.8,0,3.3.6,4.5,1.9s1.8,2.8,1.8,4.6-.7,3.5-2,4.8-2.9,2-4.8,2-3.8-.7-5.2-2.2c-1.3-1.5-2-3.4-2-5.9s.3-3.6,1-5.4,1.6-3.5,2.9-5c1.3-1.6,2.9-3,4.8-4.4h0ZM83.7,268.4c0,.5,0,1.1,0,1.7,0,1.3.4,2.3,1.1,3.1.7.8,1.7,1.2,2.8,1.2s1.9-.4,2.6-1.1,1-1.6,1-2.7-.4-2-1.1-2.6c-.7-.7-1.7-1-2.8-1s-1.2,0-1.6.3c-.5.2-1.1.5-1.8,1h0ZM109.9,270.5l.3.9c-2.2,1.3-7.3,3.1-10.7,4.1l-.7-2.5c1.7-.2,4.1-.6,6.3-1.1.7-2.9,1.5-7.6,1.9-11.5l2.3.5c-.6,3.8-1.9,7.9-3,10.7,1.3-.3,2.5-.7,3.6-1h0ZM111,259.5h-11.8v-1.2h11.8v1.2ZM100.7,261l.8-.2c1.3,3,2.5,6.8,2.8,9.7l-2.2.4c-.2-2.8-.8-7-1.4-9.9ZM104.3,258.1c-.4-1.7-1-3.7-1.7-5.4l.9-.4c1.2,1.5,2.3,3.5,2.9,5l-2.1.7h0ZM116.9,260.1v5.9h5.5v11.9h-2.1v-2.2h-7.7v2.3h-2.1v-12h4.2v-13.4h2.1v6.4h6.8v1.2h-6.8,0ZM112.6,267.1v7.4h7.7v-7.4h-7.7ZM493.7,224.5l2.8,1.7v1.6h-27.5v-1.6h23.9l.8-1.7h0ZM544.5,232.5s-.2,0,0,.1c1.2,1.7,2.2,3.5,2.7,5.5,0,.5.2,1.1.2,1.6,0,1-.5,2,0,3,.4,1,2.3,1.8,3,.5,2-4-3.9-9.3-5.6-10.7h-.2Z" fill="#991f25"/>
  <path d="M497.5,204.3h-26.3c5.2-1.9,6.9-9.6,6.9-9.6l-4.2-4s1,11.3-5,13.6h-.3c-2-.3-3-1.6-3.4-2.2h-.2v2.1h.2v43.4c0,.5.4.9.9.9h35.2v-43.5h0c0-.6.6-.6.6-.6l-3.6-2-.8,1.7v.2ZM470.2,247c-1.1,0-1.2-.7-1.2-.9v-40.2h28.4v41.1h-27.2,0ZM556.5,221.9l-3.6-2-1,1.9h-8.7v-5.8h9.5v-17.3c0-.4.6-.4.6-.4l-3.6-2-.8,1.8h-15.2c-2-.3-3.1-1.6-3.4-2.2h-.2v2.6h0v16.5c0,.5.4.9.9.9h8.3v5.8h-8.7c-1.6-.4-2.4-1.5-2.7-2.1h-.2v2.2h0v26.7h3.9v-25.2h7.7v15.8c-3.7.7-6.1.5-6.1.5v3.4c10.2-.8,14.9-6.8,14.9-6.8-.4.2-.9.4-1.3.6h0c0-.1-.3-.5-.3-.5.2.4-.2.7-.3.7-1.1.4-2.1.8-3.1,1.1v-14.9h8.7c0,6.2,0,13.2.2,19.2,0,1.7-.3,4.3-1.4,7.3-.3.9-1.1,2.7-2.5,4.7-1.6,2.3-3.3,3.9-4.9,5.2,0,.1,0,.3.2.2,2.9-1.5,7.9-4.7,10.6-10.8,1.2-2.6,1.6-5.1,1.8-7v-19.6c0-.6.6-.6.6-.6h0ZM548.8,214.3h-5.6v-6h5v-1.6h-5v-7h5.6v14.6ZM539.3,199.6v7h-5.3v-7h5.3ZM535,214.3c-.9,0-1-.7-1-.8v-5.1h5.3v6h-4.3ZM521.1,198.3h-3.7c-2.8-.2-3.9-2.6-3.9-2.6v2.6h0v50.6h3.9v-8.5c2.5-2.2,4.3-6.3,5.5-9.6,1.9-5.5.5-12-2.3-16.7v-.2c.6-1.2,1.1-2.4,1.5-3.2,1.5-2.9,2.8-7,3.1-11.7h0c0-.6.6-.6.6-.6l-3.6-2-1.1,1.9h0ZM520.8,206.5c0,.9-.3,2.3-.8,4.8,0,.7-.4,1.8-.6,3l-1,3.7c5,7.9,1.2,17.3-.9,21.3v-39.3h3.7c0,2,0,4.3-.4,6.6h0ZM243.2,201.9c-.7,2.6-1.6,5-2.8,7.4h16.7v1.6h-8.5v11.2h11.4v1.7h-25.6v-1.7h11.5v-11.2h-6.4c-2.1,3.6-4.8,6.8-8.5,9.4l-.7-.9c5.2-4.7,8.4-10.6,10.1-17.5h-8.9v-1.7h9.3c.4-2,.8-4.1,1-6.2l2.9.3c-.2,2-.5,4-1,5.9h16.5v1.7h-17ZM265.7,204.7l-.3-1.1c5.6-1.4,6.4-3.7,6.5-9.6h2.5c0,2.4-.3,4.4-1,6,1.7.6,3.9,1.6,5.4,2.6l-1.4,1.9c-1.2-1.1-3-2.5-4.6-3.5-1.2,1.9-3.4,3.1-7.2,3.6h.1ZM292.7,205.3v5.8h-2.4v-4.4h-22.2v4.5h-2.4v-5.9h27ZM268.9,200.3c-.7-1.5-1.7-3.2-2.6-4.5l.8-.7c1.3,1.1,2.7,2.5,3.6,3.9l-1.8,1.3ZM278.5,217.1h12v7.9h-2.5v-1.6h-17.3v1.6h-2.5v-7.9h8.8c.2-.8.4-1.8.6-2.6h-7.1v-5.8h17.5v5.8h-7.6c-.6.9-1.2,1.9-1.9,2.6ZM288.1,218.4h-17.3v3.6h17.3v-3.6ZM272.9,213.2h12.7v-3.2h-12.7v3.2ZM275.4,200l-.7-.8c1.1-1.2,2-2.7,2.7-4.1l1.9,1.3c-1,1.2-2.5,2.7-3.9,3.6ZM284.3,194.1h2.5c0,2.5-.2,4.5-.8,6,2.1.7,4.5,1.8,5.9,2.7l-1.4,1.9c-1.2-1.1-3.3-2.5-5-3.6-1.1,1.9-3.1,3.1-6.6,3.8l-.3-1c5.5-1.7,5.6-4.3,5.6-9.8h0ZM282.2,200.2c-.7-1.5-1.6-3.1-2.4-4.2l.7-.7c1.2.9,2.5,2.2,3.5,3.6l-1.8,1.3h0ZM287.6,200l-.7-.8c1-.8,2.3-2.3,3.3-4l1.8,1.5c-1.2,1.2-3,2.5-4.4,3.2h0ZM327.7,198.4v1.4h-29.1v-1.4h15c-1.7-1.1-4-2.5-5.7-3.5l.4-1c2.2.5,5.6,1.6,7.4,2.6l-1.1,1.9h13.2,0ZM300.4,209.8h25.4v12c0,3.2-2.5,4.1-8.5,2l.2-1.1c5.1.7,5.7.5,5.7-1.5v-10h-20.3v13.8h-2.6v-15.1h0ZM321,201.7v6h-16.1v-6h16.1ZM316.9,221.3v-1.8h-7.4v2.3h-2.4v-8.3h12.2v7.9h-2.4ZM318.6,203.1h-11.3v3.2h11.3v-3.2ZM316.9,218.1v-3.5h-7.4v3.5h7.4ZM343.6,219.3c-2.4,1.3-7.7,3.4-10.9,4.2l-.6-2.5c1.3-.2,2.9-.5,4.6-.9v-10.3h-4.1v-1.4h4.1v-3.9h-2.7v-.3c-.5.5-1,.9-1.5,1.4l-.6-.7c2.5-3.1,4.2-6.8,5.3-11l2.5.8c-.2.5-.4,1-.6,1.4,1.5,1.3,3.1,2.9,4.4,4.5l-1.8,1.4c-.9-1.7-2.1-3.4-3.1-4.8-1,2.2-2.2,4.2-3.7,5.9h6.8v1.4h-2.8v3.9h3.8v1.4h-3.8v9.7c1.7-.4,3.2-.9,4.4-1.3l.3,1h0ZM335.6,217.8l-2.1.4c-.1-2.1-.5-4.4-.8-6.6l1-.3c.9,2.1,1.5,4.5,1.9,6.5h0ZM340.9,211l1.9.6c-.5,1.9-1.3,4.1-2.3,6l-.9-.3c.5-2.1,1-4.5,1.3-6.3ZM353.3,219.3c-3.2,1.5-6.9,2.7-10.3,3.4l-.6-2.2c1.5-.2,3.1-.4,4.6-.7v-3.4h-3.4v-1.3h3.4v-2.5h-3.6v-1.2h9.5v1.2h-3.7v2.5h3.4v1.3h-3.4v2.9c1.3-.3,2.6-.6,3.8-1l.3,1h0ZM360,224.7c-2-.4-3.3-2.4-4.2-5.1-1.7,2.1-4,3.8-7.1,5.1l-.5-1c3.2-1.8,5.4-3.9,6.9-6.3-1.1-4.6-1.3-10.2-1.3-14.2h-11.1v-1.4h4.4v-3.1h-3.6v-1.3h3.6v-3.1h2.2v3.1h3.5v1.3h-3.5v3.1h4.6v-7.4h2.2v7.4h5.8v1.4h-5.8c0,3.3.2,7.4.7,11,1-2.5,1.6-5.3,2.2-8.7l2.2.5c-.9,4.6-2,8.3-3.8,11.4.6,2.4,1.4,4.1,2.5,4.6.7.3.8-1.1.8-6h1.1c1.1,6.5.5,9.2-1.7,8.8h-.1ZM352.4,204.7v5.1h-8.7v-5.1h8.7ZM350.5,206h-4.9v2.6h4.9v-2.6ZM359.1,200.9c-.8-2-1.5-3.7-2.3-5.2l.9-.6c1.2,1.2,2.4,2.9,3.3,4.7l-1.9,1.1ZM6.8,208.4c-1.1-1.7-3.1-4.2-4.3-5.7l.7-.9c1.8,1.1,4.3,3.1,5.6,4.6l-2,2h0ZM8.6,210.5c-.7,4.6-2,10.3-2.8,13.2l-2.8-1.1c1.4-3.2,3.3-8.4,4.5-12.4l1.1.3ZM7.8,200.5c-1.1-1.8-2.8-4.3-4-5.8l.7-.7c1.7,1.2,4.2,3.3,5.3,4.9l-2,1.7h0ZM32.5,222.3l-1.3,2.7c-3.2-.5-7.8-2.4-10.1-7.3h-.3c-1.9,4.7-6.2,6.5-12,7.4l-.3-1.1c5.3-1.2,8.2-3,9.7-6.3h-8.5v-1.4h9c.2-.7.4-1.6.5-2.4h-8.3v-1.4h8.5v-2.2h-7.2v-5.8h7.2v-2.1h-4.6v-4.1h-4.3v-1.4h4.3v-3h2.4v3h6.9v-3h2.4v3h5.1v1.4h-5.1v4.1h-4.6v2.1h7.5v5.8h-7.5v2.2h8.8v1.4h-8.9c0,.9-.3,1.7-.5,2.4h10.7v1.4h-9.6c2.2,3,6.3,4.1,10.1,4.6h0ZM14.8,209.1h4.8v-3.2h-4.8v3.2ZM17.3,201.1h6.9v-2.7h-6.9v2.7ZM22,205.9v3.2h5v-3.2h-5ZM44,208.4c1.6,1.1,3.5,2.5,5,4l-1.9,1.9c-1.1-1.6-2.1-3-3.1-4.2v15.1h-2.4v-14c-1.5,1.5-3.2,2.8-5,3.9l-.6-.9c4.1-3.2,7.2-7.5,8.7-12h-8.1v-1.4h8.1l.7-.6,2.4,1.3c-1.1,2.7-2.4,4.9-3.9,6.9h.1ZM42.2,200.1c-.8-1.6-1.9-3.8-3-5.5l.8-.7c1.7,1.3,3.4,3.3,4.4,4.8l-2.2,1.5h0ZM64.7,199.7v17.9h-2.4v-2.6h-4.2v10.2h-2.5v-10.2h-4.1v2.9h-2.4v-18.2h6.5v-5.5h2.5v5.5h6.6ZM55.7,201.1h-4.1v5.3h4.1v-5.3ZM55.7,207.7h-4.1v5.9h4.1v-5.9ZM62.3,201.1h-4.2v5.3h4.2v-5.3ZM62.3,207.7h-4.2v5.9h4.2v-5.9ZM70.7,221.9h5.4v-23.7h-4.7v-1.7h27.1v1.7h-19.7v6h16.3v10.4h-16.3v7.3h20.7v1.7h-28.8v-1.7ZM92.3,213.2v-7.6h-13.5v7.6h13.5ZM104.7,210.5l-.6-.9c3.2-2.1,5.6-5.4,6.9-11.4l2.5.6c-.3.9-.6,1.7-.9,2.5,1.4,2.2,2.9,3.4,4.9,4.1v-8.5h-11.5v-1.4h23.5l.9-.5,2.4,1.4c-1,1.5-2.7,3.5-3.9,4.4l-.9-.6c.5-.8,1.4-2.4,1.6-3.2h-9.6v4h8v1.4h-8v3.7c1.1.1,2.4.2,3.9.2,3.3,0,7.3-.2,10-.5l-.7,2.6c-2.4.2-5.8.3-8.7.2-6.7-.2-9.8-1.1-12.5-5.8-1.8,3.8-4.2,6.2-7.4,7.9v-.2ZM133.9,223.7l-2,1.9c-.6-.8-1.6-2-2.6-3.2-4.7.8-16.3,1.8-23.9,2l-.4-2.6h12.6v-3.9h-9.5v-6.7h9.5v-2.5h2.5v2.5h9.6v6.7h-9.6v3.9c3.2-.1,6-.3,8.1-.5-.7-.8-1.5-1.6-2.2-2.3l.7-.9c2.5,1.5,5.5,4,7.2,5.7h0ZM117.6,216.4v-4h-7.1v4h7.1ZM120.1,212.5v4h7.1v-4h-7.1ZM154.4,197.8c-.6,1.9-1.6,4.2-2.5,5.9h11.5v21.3h-2.7v-2.9h-15.5v2.9h-2.7v-21.3h7.9c.3-1.6.6-4.1.8-5.9h-13v-1.5h29.2v1.5h-13.1.1ZM160.7,205.1h-15.5v6.6h15.5v-6.6ZM160.7,213.1h-15.5v7.5h15.5v-7.5ZM172.4,204.1l-.5-1c3.7-2.3,6.9-5.4,9.2-9.4l2.7,1.1c-.9,1.4-2,2.7-3.3,3.9v7.4h-2.4v-5.3c-1.7,1.3-3.7,2.5-5.7,3.4h0ZM182.8,219.5l2.1,1.9c-2.9,1.8-7.8,3.4-12.4,4l-.3-1c4.3-1.2,7.7-2.9,10.6-4.9h0ZM176.5,207h20.8v12.3h-20.8v-12.3ZM179,210.6h15.8v-2.3h-15.8v2.3ZM179,214.2h15.8v-2.3h-15.8v2.3ZM179,217.9h15.8v-2.4h-15.8v2.4ZM186.2,201.5v-7.2h2.5v4.7c3.1-1.2,6.4-2.8,8.7-4.7l2.2,1.8c-3.3,1.8-7.5,3.3-10.9,4v.8c0,1.4.3,2,2.3,2.1,1.1,0,3.8.2,5.7,0,2.4-.2,2.6-.7,2.7-4.5h1.1c.9,5.3.8,6.5-3.5,6.7h-6.6c-3.4-.3-4.3-.9-4.3-3.6h.1ZM201,222.7l-1.3,2.5c-2.9-1.4-7.6-3.3-11-4.4l.3-1.1c3.5.5,8.4,1.6,12,3ZM634.2,221.9l-.8-.6c2.9-4.9,3-8.9,3-19v-7.5h14.4c-1.9-1.1-3.9-2.2-5.7-3l.3-1.1c2.3.4,5.4,1.3,7.5,2.2l-1,1.8h10.8v1.4h-23.8v7c0,5.3.2,13.4-4.7,18.8ZM648.2,213.9c-2.3,1.8-6.2,3.9-8.7,4.9l-1-2.5c2.8-.7,6.7-2,9.2-3.3l.5.9ZM663.3,217.5l-1.3,2.6c-2.9-1.4-7.6-4.1-10.5-9.2v8.1c0,2.9-3.1,3.7-8.5,1.3l.2-1c5.2.7,5.8.5,5.8-1.4v-10h-7.7v-1.4h7.7v-2.4h-9.1v-1.4h9.1v-2.3h-7.5v-1.4h7.5v-2.4h2.5v2.4h7.4v3.7h3.6v1.4h-3.6v3.8h-7.4v.7c1,1.7,2.2,3.1,3.6,4.3,1.3-1,2.7-2.2,4.1-4.1l2,1.7c-1.7,1.4-3.5,2.5-5,3.2,2.5,1.8,5.1,2.9,7.1,3.7ZM646.1,211.1l-1.4,2c-1.5-1.3-3.3-2.5-4.7-3.4l.4-.9c1.7.4,4,1.4,5.6,2.4ZM651.5,202.8h4.9v-2.3h-4.9v2.3ZM651.5,206.6h4.9v-2.4h-4.9v2.4ZM674.2,202.2c1.3,1.3,2.6,2.8,4,4.7l-1.8,1.4c-.8-1.5-1.5-2.8-2.2-4.1v17.5h-2.3v-15.7c-1.1,3.3-2.8,6.4-4,8.2l-.9-.7c1.7-3.2,3.6-7.8,4.6-14.1h-4v-1.4h4.3v-6.9h2.3v6.9h3.4v1.4h-3.4v2.8ZM697.5,202.6l-1.2,2.5c-1.6-.7-3-1.6-4.4-2.8v4.1h-10v-3.9c-1.3,1-2.7,1.8-4.4,2.5l-.6-.9c3-1.7,5.1-3.4,6.6-5.9h-5.5v-1.4h6.3c.3-.7.6-1.3.9-2.1-2.3.2-4.6.4-6.5.4l-.2-1.1c4.9-.5,10.7-1.5,14.2-3l2,1.9c-1.9.6-4.2,1-6.7,1.4-.3.8-.6,1.6-1,2.4h9.4v1.4h-6.5c2.6,2.7,5.2,3.6,7.6,4.5ZM678.4,207.7h17.3v11.2c0,3.5-3.2,3.6-7.7,1.9l.2-1c4.3.5,5.1.4,5.1-1.6v-9.1h-12.5v12.6h-2.4v-14ZM689.1,216.5h-4.3v1.8h-2.1v-7.5h8.6v7.2h-2.1v-1.5ZM683.9,200.7h6.5c-.7-.8-1.3-1.6-1.8-2.6h-2.6c-.6.9-1.3,1.8-2.2,2.6ZM689.7,202.1h-5.8v2.9h5.8v-2.9ZM689.1,215.2v-3.1h-4.3v3.1h4.3ZM729.2,192.4v29.2h-2.5v-1.8h-21.5v1.9h-2.5v-29.3h26.4ZM726.7,193.7h-21.5v24.7h21.5v-24.7ZM706.9,215.5l-.8-2.3c3.4-.6,7.7-1.9,10.3-2.9l.4,1c-2.5,1.5-6.8,3.3-9.9,4.2ZM716.5,200.2h-10.4v-1.4h10.3c0-1.4,0-2.8,0-4.2h2.3c0,1.4,0,2.8,0,4.2h3.5c-.7-1.3-1.7-3-2.3-4.1l.9-.6c1.1.9,2.6,2.6,3.4,3.8l-1.4,1h3v1.4h-7c.2,3,.5,5.9,1,8.2,1-1.9,1.8-4.1,2.3-6.6l2.2.8c-.9,3.2-2.1,6-3.7,8.3.7,1.8,1.5,3,2.6,3.4.7.3.8-1.1.8-5.3h1.1c1.2,6.7.2,8.3-1.9,7.9-1.9-.4-3.2-1.9-4.2-4-1.8,1.9-4,3.4-6.7,4.7l-.5-1c2.7-1.6,4.8-3.4,6.5-5.6-1-3-1.5-6.8-1.7-10.8ZM707.3,209.7v-7.2h7.9v7.2h-7.9ZM709.4,208.5h3.6v-4.6h-3.6v4.6ZM742.5,209.8c0-2.1-.8-4.1-2.4-7,.6-1.9,1.5-5.8,1.9-8.7h-3.1v27.7h-2.4v-29.7l2.4.7h2.9l.7-.5,2.4,1.1c-1.3,4.1-2.7,7.7-3.7,9.3,2.2,2.7,3.4,5.2,3.6,7.8.3,4-1.8,5.2-5.3,3.2l.3-1.1c2.7.5,3,.2,2.8-2.8ZM742.7,220.2l-.7-.9c2.2-1.8,4.8-5,6.2-8l2.5,1.3c-2,2.9-5.5,6-8,7.6ZM742.6,201.8c2.3-3.1,3.8-7.1,4.7-11.1l2.3.6c-.3.9-.6,1.8-.9,2.7h2.6l.7-.5,2.1,1c-.9,3.8-2.4,7-4.5,9.6h9.4v1.4h-9.7v-.9c-1.2,1.4-2.6,2.6-4.1,3.6l-.6-.9c1.4-1.2,2.7-2.6,3.7-4.2-.8-1-1.9-2.2-2.8-3.1-.7.9-1.4,1.8-2.2,2.5l-.7-.7ZM755.4,218.6c0,3.5-2.9,4.3-7.9,1.2l.4-1c4.4,1.1,5,1,5-.8v-7.9h-7.4v-1.4h17.7v1.4h-7.9v8.5ZM749.3,201.4c.3-.6.6-1.2.8-1.7-.9-.8-2-1.7-3-2.3-.3.6-.7,1.2-1.1,1.8,1,.6,2.3,1.5,3.2,2.3ZM748.2,195.3c-.2.4-.4.8-.5,1.2,1,.4,2.2,1,3.2,1.5.3-.9.5-1.8.7-2.7h-3.3ZM753.9,191.1l1.1-.2c.7,3.5,1.8,6.2,3.3,8.2,1.1-1.4,1.9-2.9,2.6-4.5h-4.4v-1.3s4.3,0,4.3,0l.7-.5,2.3,1.4c-1.9,3.1-3.2,4.5-4.8,5.8,1.7,2.1,3.7,3.5,5.8,4.7l-1.7,2.5c-4.5-3.1-7.8-7.4-9.1-16.1ZM765,218l-2.2,1.9c-1-1.7-3.6-5.3-5.7-7.7l.8-.8c2.6,2,5.7,4.8,7.1,6.6ZM797.9,214.6h-12.4v4.2c0,2.8-2.4,3.9-8.4,1.3l.3-1.1c5.2.8,5.6.6,5.6-1.3v-3.2h-13.7v-1.4h13.7v-2.4l1.9.3c1.3-.7,2.8-1.7,3.8-2.6h-14.3v-1.4h14.9l.9-.4,2.3,1.9c-2.2,1.6-5,2.7-6.9,3.3v1.1h12.4v1.4ZM772.2,210h-2.5v-5.9h3c-.1-3.7-.3-7.6-.5-11.3l2.2.4c1.3-.5,2.6-1.3,3.9-2.5l1.5,1.7c-1.4.8-3.6,1.5-5.3,1.8v2h4.7v1.4h-4.6c0,.9,0,1.8.1,2.7h4.7v1.4h-4.7c0,.8,0,1.6,0,2.5h5.1l-.4-.8c1.2-.7,2.2-1.5,3-2.4-.7-.6-1.5-1.1-2.3-1.7l.5-.9c1,.4,1.9.9,2.8,1.4.6-.7,1.1-1.5,1.6-2.3l1.8,1.3c-.5.6-1.1,1.3-1.9,2,.8.5,1.5,1.1,2.2,1.7l-1.5,1.6h6.2c0-.8,0-1.6.1-2.4h-4.7v-1.4h4.8c0-.9,0-1.7.1-2.6h-4.7v-1.4h4.7v-2.7c0,0-5,0-5,0v-1.4h4.8l.6-.6,2.1.5c-.2,3.8-.4,8-.7,11.8h3.1v5.8h-2.5v-4.4h-22.7v4.5ZM782.7,194.2c-.8-.7-1.5-1.4-2.2-2l.5-.9c.8.4,1.7,1,2.7,1.6.5-.7.9-1.5,1.3-2.2l1.9,1.1c-.5.7-1.1,1.5-1.7,2.2.7.6,1.4,1.2,2.1,1.7l-1.6,1.6c-.4-.6-1.1-1.3-1.8-2-1.1,1-2.3,1.9-3.4,2.5l-.6-.8c1.1-.9,2.1-1.8,2.9-2.8ZM780.3,204.1h5.5c-.6-.8-1.3-1.5-2-2.1-1.1.9-2.3,1.6-3.5,2.1ZM810.8,203.8v18.1h-2.5v-16c-1.1,3.1-3.2,7.1-5,9.2l-.9-.7c1.8-3,4.4-8.9,5.4-14.3h-4.8v-1.4h5.2v-7.6h2.5v7.6h4.3v1.4h-4.3v1.8c1.1,1.2,2.4,2.9,3.4,4.4,1.6-1.9,3.4-4.8,4.5-7.5l2.5,1.2c-1.5,2.6-4.5,5.8-6.4,7.2.2.4.4.7.6,1l-2.2,1.2c-.5-1.4-1.6-3.7-2.5-5.6ZM832.7,219.1l-1.6,2.8c-3.6-1.4-6.3-3.3-8.3-5.8-2.6,2.7-6,4.8-10.1,6.1l-.4-1c3.9-1.7,6.9-3.8,9.2-6.8-1.8-2.6-3-5.7-3.8-8.9l1-.5c1.2,3.1,2.5,5.6,4,7.6,1.4-2.3,2.4-4.9,3-8l2.6,1c-.9,3.3-2.2,6.2-4.1,8.7,2.2,2.1,4.8,3.5,8.4,4.7ZM831.9,197.9h-17.7v-1.4h8.8c-1.2-1.5-2.8-3.5-4.2-4.9l.7-.9c1.9,1.1,4.3,2.7,5.8,4.2l-1.5,1.6h8.2v1.4ZM832.4,205.1l-2.1,1.8c-1.9-2.7-3.9-5.2-5.8-7.2l.6-.8c2.2,1.3,5.2,3.7,7.4,6.2ZM892.5,192.5v26.6c0,2.7-2.9,3.8-8.8.6l.3-1.1c5.3,1.3,5.9,1.1,5.9-.9v-23.8h-20v27.9h-2.5v-29.3h25.1ZM875.1,215.1v2.6h-2.4v-11.9h2.4v8h3.5v-10.6h-7.4v-1.4h9.6c1-1.8,2.6-5.2,3.1-7l2.8,1.1c-1,1.7-2.9,4.2-4.5,5.9h6.4v1.4h-7.6v10.6h3.4v-8h2.4v11.1h-2.4v-1.8h-9.4ZM878.5,200l-2.3,1.3c-.6-1.6-1.8-4.2-2.8-5.9l.9-.7c1.6,1.4,3.3,3.6,4.2,5.3ZM926.3,198v23.5h-2.5v-3.4h-20.2v3.6h-2.5v-23.6h2.5v18.6h8.7v-25.5h2.6v25.5h8.8v-18.7h2.5ZM962,195.2v1.4h-29.1v-1.4h14.9c-1.7-1.1-4-2.5-5.7-3.5l.4-1c2.2.5,5.6,1.6,7.4,2.6l-1.1,1.9h13.1ZM934.8,206.6h25.3v12c0,3.2-2.5,4.1-8.5,2l.2-1.1c5.1.7,5.7.5,5.7-1.5v-9.9h-20.2v13.7h-2.6v-15.1ZM955.3,198.6v6h-16v-6h16ZM951.2,218.1v-1.8h-7.4v2.3h-2.4v-8.3h12.2v7.9h-2.4ZM952.9,199.9h-11.3v3.2h11.3v-3.2ZM951.2,214.9v-3.4h-7.4v3.4h7.4ZM985.1,208.1v2.2h7.4v11.5h-2.4v-1.3h-17.8v1.4h-2.4v-11.6h7.5v-2.2h-10.7v-1.4h28.9v1.4h-10.4ZM968.5,193.4h-1.1v-1.3h14.8v1.3h-8.3l1.5.6c-.2.4-.4.8-.7,1.2h6.1v1.1h-3.4c0,.7,0,1.4-.1,2.1h3.9v1.1h-4.1c0,.2,0,.3-.2.5,1.2.5,2.6,1.3,3.8,2.2l-1.2,1.5c-.9-1-2-2-3-2.7-.8,1.4-2.2,2.4-4.7,2.9l-.4-.8c2.3-1,3.3-1.9,3.7-3.6h-3.7v-1.1h3.8c0-.6,0-1.3,0-2.1h-1.5c-.6.7-1.2,1.4-1.9,2l-.7-.6c.9-1.2,1.6-2.6,2.2-4.2h-3v8.9c0,1.2,0,1.6,1.4,1.7,2.2.2,4.4.2,6.5,0,1.5,0,2.1-.3,2.9-.9l.9,1.3c-1,.9-2.1,1.1-3.6,1.2-2.2.2-4.6.2-6.8,0-2.9-.2-3.3-1-3.3-3.4v-8.8ZM972.3,211.7v4.9h17.8v-1.3h-3.7c-3.1,0-3.3-.7-3.3-2.6v-1h-3.6c-.4,2.1-1.6,3.7-5.9,4.3l-.3-1c2.7-.8,3.6-1.7,3.9-3.3h-4.9ZM990.1,219.2v-1.5h-17.8v1.5h17.8ZM983.1,208.1h-3.5v2.2h3.5v-2.2ZM981.2,197.7c2-1.1,2.1-2.6,2.1-4.1v-1.4h7.4v2.7c0,.7.2.9,1.3.9.8,0,1.5-.1,2-.7l.9,1.4c-.7.8-2.1,1-3.2,1-2.4,0-2.9-.5-2.9-2v-2.1h-3.4c0,2.2-.8,4-3.2,5h7.6l.6-.4,1.9,1.1c-.8,1.6-1.8,2.9-3,4,1.4.4,3.1.7,5.4.9l-.8,2c-2.7-.3-4.6-.8-6.2-1.7-1.6,1-3.5,1.7-5.7,2l-.3-.9c2-.5,3.5-1.2,4.7-2-1.2-1.1-2.1-2.4-2.8-4h-1.4v-1.1l-.5.2-.4-.8ZM989.7,199.4h-5.1c.8,1.3,1.7,2.3,3,3,1-.9,1.7-2,2.1-3ZM985.1,211.7v.6c0,1,.2,1.4,1.8,1.4h3.2v-2h-5ZM911,232.6c0-2.5.9-5.1,2.7-7.2h.7c-1.6,2.3-2.2,4.8-2.1,7.2,0,2.5.5,4.9,2.2,7.2h-.7c-1.9-1.9-2.8-4.7-2.8-7.2ZM918.4,231.1h8.4c-.2,3.2-.4,5.7-.6,6.6-.3,1.4-1.4,2-4.7.6v-.5c3,.5,3.4.5,3.5-.4.2-1.2.4-3,.5-5.5h-3.4c-.3,2.6-1.3,5.9-5.6,7.4l-.2-.5c3.5-1.7,4.3-4.7,4.6-7h-2.7v-.5c-.6.5-1.3,1-2.1,1.5l-.3-.4c2.3-1.8,3.4-4,4.1-6.6l1.3.4c-.5,1.6-1.3,3.3-2.8,4.9ZM929.8,231.2l-.8,1.4c-2.3-1.3-3.7-3.4-4.3-6.2h-2.8v-.8h3.3c.5,2.4,1.9,4.4,4.6,5.6ZM935.4,233.7c0-1-.5-2.4-1.3-3.5.4-.9.8-2.5,1-3.7h-1.7v12.6h-1.1v-13.5l1.1.3h1.6l.3-.2,1.1.5c-.7,1.9-1.3,3.2-1.9,4,1.1,1.1,1.9,2.5,1.9,3.8,0,2-1.3,2.4-2.8,1.3v-.5c1.5.3,1.8.2,1.8-1.1ZM943.2,238.8c-1.8,0-2.3,0-2.3-1.6v-4.3h-1.2c-.1,3.2-1.5,5.4-4.5,6.4l-.2-.5c2.6-1.3,3.5-3.3,3.5-5.9h-1.9v-.6h7.9v.6h-2.5v4.1c0,.7.1.7,1.2.7s1.1-.2,1-2.6h.5c.6,2.8.5,3.6-1.6,3.6ZM940.3,227.3c-.6-.8-1.1-1.5-1.7-2.1l.3-.4c.7.4,1.6,1,2.4,1.9l-.6.6h3.8v2.7h-1.1v-2.1h-6.2v2.1h-1.1v-2.7h4.1ZM937.8,230.4v-.6h5.3v.6h-5.3ZM946.6,239.8c1.7-2.3,2.2-4.7,2.2-7.2,0-2.3-.5-4.9-2.1-7.2h.7c1.8,2,2.7,4.7,2.7,7.2s-.9,5.3-2.8,7.2h-.7ZM647.4,235.1c0-2.5.9-5.1,2.7-7.2h.7c-1.6,2.3-2.2,4.8-2.1,7.2,0,2.5.5,4.9,2.2,7.2h-.7c-1.9-1.9-2.8-4.7-2.8-7.2ZM662.4,229.8h-7.1v-.6h3.5c-.5-.5-1.1-1-1.6-1.4l.3-.4c.6.3,1.7.8,2.2,1.2l-.5.6h3.2v.6ZM668.7,239.8v.7h-4.7v1.2h-1.1v-8.8c-.2.4-.5.8-.7,1.2l-.4-.2v.6h-2.3c0,.4-.2.8-.3,1.1h3v4.9c0,1-.8,1.8-3.1.7v-.5c1.8.3,2.1.1,2.1-.5v-3.9h-2.2c-.2.8-.5,1.5-.8,2,.6,0,1.1-.2,1.6-.2-.1-.4-.2-.8-.3-1.2l.4-.2c.5.8,1,1.9,1.2,2.7l-.9.3c0-.4-.1-.7-.2-1.1-.9.4-2,.8-2.9.9l-.3-1.1h.9c.2-.6.3-1.3.5-2.1h-1.6v5.5h-1.1v-6.1h2.8c0-.4.1-.8.1-1.1h-2.5v-3.9h1v3.3h3.9v-3.3h1v3.3c.8-1.8,1.3-3.4,1.7-6.2l1.1.3c-.2,1.1-.4,2-.7,2.9h4.7v.6h-2v2.1h1.6v.6h-1.6v2.4h1.6v.6h-1.6v2.8h2.1ZM658.5,231.8c-.4-.4-.9-.8-1.2-1.2l.3-.3c.4.3.9.6,1.4.9.3-.4.5-.9.7-1.3l.9.4c-.2.4-.5.9-.9,1.3.5.4.9.8,1.2,1.2l-.7.7c-.2-.4-.6-.8-1-1.3-.5.5-1.1,1-1.5,1.3l-.3-.4c.4-.4.9-.9,1.3-1.5ZM665.5,231.3h-1.5v2.1h1.5v-2.1ZM665.5,234h-1.5v2.4h1.5v-2.4ZM665.5,237.1h-1.5v2.8h1.5v-2.8ZM665.9,230.4c-.2-.6-.5-1.9-.8-2.7l.4-.2c.6.7,1.2,1.9,1.5,2.6l-1.1.4ZM671.9,241.2v-12.8h3.2c1.3,0,2.3.3,3.1,1,.8.6,1.1,1.5,1.1,2.6s-.2,1.4-.6,1.9-.9,1-1.6,1.2c.4.3.8.6,1.2,1.1.4.5.9,1.3,1.7,2.4.4.7.8,1.3,1.1,1.6l.7.9h-2.2l-.6-.8s0,0-.1-.2l-.4-.5-.6-.9-.6-1c-.4-.5-.7-.9-1-1.3-.3-.3-.6-.5-.9-.7-.3-.1-.7-.2-1.3-.2h-.5v5.6h-1.8ZM674.3,229.9h-.6v4h.7c.9,0,1.6,0,1.9-.2.3-.2.6-.4.8-.7.2-.3.3-.7.3-1.1s-.1-.8-.3-1.1c-.2-.3-.5-.6-.9-.7s-1-.2-1.9-.2ZM686,239.4h4.9v1.8h-8.1c0-.1.8-1,.8-1,1.2-1.5,2.2-2.8,2.9-3.8.7-1,1.2-1.8,1.4-2.4.2-.5.3-1.1.3-1.6s-.2-1.3-.6-1.7c-.4-.4-1-.7-1.6-.7s-1,.2-1.5.5c-.5.3-.9.7-1.3,1.3v-2.3c1-.8,2-1.2,3.1-1.2s2,.4,2.8,1.1c.7.7,1.1,1.7,1.1,2.8s0,1.1-.3,1.6c-.2.6-.5,1.3-1,2-.5.8-1.2,1.8-2.3,3.1l-.4.5ZM695.8,239.4h4.9v1.8h-8.1c0-.1.8-1,.8-1,1.2-1.5,2.2-2.8,2.9-3.8.7-1,1.2-1.8,1.4-2.4.2-.5.3-1.1.3-1.6s-.2-1.3-.6-1.7c-.4-.4-1-.7-1.6-.7s-1,.2-1.5.5c-.5.3-.9.7-1.3,1.3v-2.3c1-.8,2-1.2,3.1-1.2s2,.4,2.8,1.1c.7.7,1.1,1.7,1.1,2.8s0,1.1-.3,1.6c-.2.6-.5,1.3-1,2-.5.8-1.2,1.8-2.3,3.1l-.4.5ZM708.6,237.4l.2.5c-1.2.7-4,1.7-5.9,2.2l-.4-1.4c1-.1,2.2-.3,3.5-.6.4-1.6.8-4.2,1-6.3l1.3.3c-.3,2.1-1,4.4-1.7,5.9.7-.2,1.4-.4,2-.6ZM709.2,231.3h-6.5v-.6h6.5v.6ZM703.5,232.2h.4c.7,1.5,1.4,3.6,1.6,5.2l-1.2.2c0-1.5-.4-3.9-.8-5.4ZM705.5,230.6c-.2-.9-.6-2.1-.9-3l.5-.2c.6.8,1.3,1.9,1.6,2.8l-1.2.4ZM712.4,231.7v3.2h3v6.5h-1.1v-1.2h-4.2v1.3h-1.1v-6.6h2.3v-7.4h1.2v3.5h3.7v.6h-3.7ZM710.1,235.6v4.1h4.2v-4.1h-4.2ZM731.9,238.7h-6.1v3h-1.2v-3h-6.2v-.6h6.2v-1.5h-4.2v-5.1h4.2v-1.3h-5.3v-.6h5.3v-1.9h1.2v1.9h5.3v.6h-5.3v1.3h4.2v5.1h-4.2v1.5h6.1v.6ZM721.6,233.6h3v-1.5h-3v1.5ZM724.6,235.9v-1.7h-3v1.7h3ZM725.8,232v1.5h3v-1.5h-3ZM728.9,234.2h-3v1.7h3v-1.7ZM740.7,236.4c-.3-.6-.7-1.5-1.1-2.3v7.5h-1.1v-6.9c-.5,1.4-1.2,2.7-2.2,4l-.4-.3c1.1-1.8,1.9-3.8,2.4-6.1h-2.1v-.6h2.3v-2.4c-.8.2-1.6.3-2.3.4v-.5c1.6-.4,3.3-1,4.5-1.8l1,.9c-.6.2-1.4.5-2.1.7v2.6h2.1v.6h-2.1v1c.7.7,1.6,1.8,2.1,2.6l-1,.6ZM749.7,240.2v.6h-8.9v-.6h3.9v-2.4h-3.3v-.6h3.3v-2.1c-1,.1-2,.2-2.9.3v-.5c2.3-.3,4.9-.9,6.1-1.5l1.1.9c-.9.3-2,.5-3.1.7v2.3h3.3v.6h-3.3v2.4h3.8ZM748.4,232.9h-6.2v-4.4h6.2v4.4ZM747.3,229.1h-4v3.1h4v-3.1ZM755.5,237.1c0,1.7-.2,3.4-.6,4.4l-1.2-.5c.5-.9,1-2.4,1.3-3.9h.5ZM758.2,233.4c.7.8,1.5,2,2,2.9l-1,.5c-.1-.4-.3-.9-.6-1.4-1.4.5-3.3,1-4.6,1.2l-.3-1.2c.3,0,.7,0,1,0,.7-.8,1.4-1.7,2.1-2.9-.9.3-1.9.5-2.8.6l-.2-1.1h.9c.6-1.2,1.2-2.9,1.6-4.4l1.2.4c-.6,1.4-1.5,3-2.3,4,.7,0,1.3,0,1.9-.1.3-.6.7-1.3,1-2l1.1.6c-1.1,2-2.7,3.9-3.9,5,1,0,2-.2,2.8-.3-.2-.5-.4-.9-.6-1.2l.4-.3ZM756.8,236.8c.4,1.1.9,2.8,1,3.8l-1.2.2c0-1-.2-2.7-.3-3.9h.5ZM758.1,236.4c.6.7,1.4,2.2,1.8,3.1l-1.1.5c-.3-1-.8-2.4-1.2-3.3l.4-.2ZM766.6,230.5c0,5.2-.2,8.1-.4,9.5-.2,1.7-1.7,2.3-4.9.5l.2-.5c2.7.6,3.4.7,3.6-.5.1-.9.3-3.5.4-8.4h-4.2c-.5.9-1.1,1.9-1.8,2.7l-.4-.3c1.2-1.9,1.8-3.9,2.2-6.1l1.2.3c-.2.8-.5,1.7-.9,2.7h5.1ZM762.8,237.3c-.5-1.3-1.2-2.8-2-4l.4-.3c1,1,2.1,2.4,2.8,3.7l-1.2.6ZM772.4,233.7h.1c.8,0,1.4-.2,1.8-.5.4-.3.6-.8.6-1.4s-.2-1-.6-1.4c-.4-.4-.9-.5-1.6-.5s-1.4.2-2.2.6v-1.8c.7-.4,1.6-.6,2.4-.6s2.1.3,2.8.9c.7.6,1,1.5,1,2.5s-.1,1.2-.4,1.6c-.3.4-.7.8-1.3,1.1.5.2.9.4,1.1.7.2.3.4.6.5,1,.1.4.2.8.2,1.3,0,1.1-.4,2-1.1,2.8-.7.7-1.7,1.1-2.8,1.1s-1.9-.2-2.8-.7v-2c1,.6,1.9.9,2.8.9s1.1-.2,1.5-.6c.4-.4.6-.9.6-1.5s-.2-1-.5-1.3c-.2-.2-.4-.4-.6-.5-.2-.1-.7-.2-1.4-.3h-.2v-1.7ZM782.4,233.6h8.4c-.2,3.2-.4,5.7-.6,6.6-.3,1.4-1.4,2-4.7.6v-.5c3,.5,3.4.5,3.5-.4.2-1.2.4-3,.5-5.5h-3.4c-.3,2.6-1.3,5.9-5.6,7.4l-.2-.5c3.5-1.7,4.3-4.7,4.6-7h-2.7v-.5c-.6.5-1.3,1-2.1,1.5l-.3-.4c2.3-1.8,3.4-4,4.1-6.6l1.3.4c-.5,1.6-1.3,3.3-2.8,4.9ZM793.8,233.7l-.8,1.4c-2.3-1.3-3.7-3.4-4.3-6.2h-2.8v-.8h3.3c.5,2.4,1.9,4.4,4.6,5.6ZM802.9,239.2c-1,.6-3.5,1.6-5,1.9l-.4-1.3c.6,0,1.4-.2,2.2-.3v-4.9h-2.1v-.6h2.1v-1.8h-1.4c-.2.1-.4.3-.6.5l-.3-.3c1.2-1.4,2-3,2.5-4.9l1.2.4c0,.2-.1.4-.2.5.7.6,1.6,1.4,2.1,2.1l-.9.7c-.4-.8-1-1.7-1.4-2.4-.5,1-1.1,1.9-1.8,2.7h3.3v.6h-1.5v1.8h2v.6h-2v4.6c.7-.2,1.4-.3,1.9-.5v.4ZM799.3,238.3l-1,.2c0-1-.2-2-.4-3h.4c.5.8.8,1.9,1,2.8ZM801.9,235.2l1,.3c-.3.9-.7,2-1.2,2.8l-.4-.2c.3-.9.5-2.1.7-3ZM811.2,240.5v.6h-8.5v-.6h3.8v-1.2h-3v-.6h3v-1.1h-2.8v-3.9h6.7v3.9h-2.8v1.1h3.1v.6h-3.1v1.2h3.6ZM804.8,229.8h-1.5v-.6h3.6c-.6-.5-1.1-1-1.7-1.4l.2-.4c.7.2,1.7.6,2.5,1.2l-.5.6h3.3v.6h-2.2l.8.3c-.3.7-.8,1.5-1.2,2.1h3v.6h-8.1v-.6h2.3c-.2-.7-.5-1.5-.8-2.1l.3-.2ZM806.4,234.3h-1.7v1h1.7v-1ZM806.4,235.9h-1.7v1h1.7v-1ZM808.2,229.8h-3.3c.6.6,1,1.3,1.4,2.1l-.6.3h1.8c.3-.8.5-1.6.7-2.3ZM807.5,235.2h1.7v-1h-1.7v1ZM807.5,236.9h1.7v-1h-1.7v1ZM814.9,242.3c1.7-2.3,2.2-4.7,2.2-7.2,0-2.3-.5-4.9-2.1-7.2h.7c1.8,2,2.7,4.7,2.7,7.2s-.9,5.3-2.8,7.2h-.7Z"/>
</svg>