
<svg xmlns="http://www.w3.org/2000/svg" version="1.1" xmlns:xlink="http://www.w3.org/1999/xlink" viewBox="0 0 1920 488"
preserveAspectRatio="none"
>
  <defs>
    <linearGradient id="grad" gradientUnits="userSpaceOnUse">
      <stop offset="0" stop-color="#dcdcdc"/>
      <stop offset="1" stop-color="#fff"/>
    </linearGradient>
    
    <linearGradient id="paint0" x1="196" y1="0" x2="766" y2="0" xlink:href="#grad"/>
    <linearGradient id="paint1" x1="766" y1="0" x2="1288" y2="0" xlink:href="#grad"/>
    <linearGradient id="paint2" x1="1288" y1="0" x2="1724" y2="0" xlink:href="#grad"/>
  </defs>
  <rect fill="#f5f5f5" width="1920" height="488"/>
  <path fill="#d9d9d9" d="M1920,175l-96,35.3v-32l-283-64-378,208L197,197.3l-50,3-17-28L0,148.3v339.7h1920"/>
  <rect fill="url(#paint0)" x="196" width="570" height="488"/>
  <rect fill="url(#paint1)" x="766" y="0" width="522" height="488"/>
  <rect fill="url(#paint2)" x="1288" y="0" width="436" height="488"/>
  <path fill="#4d4d4d" d="M405.9,36.4c-.9-1.2-2.4-3-3.3-4.1l.5-.6c1.3.8,3.2,2.3,4.2,3.4l-1.4,1.2ZM407.2,37.9c-.6,3.2-1.6,7.5-2.3,9.6l-1.8-.7c1-2.3,2.5-6.2,3.4-9.1l.8.2ZM406.6,30.8c-.8-1.3-2.1-3-3.1-4.2l.5-.5c1.3.9,3.1,2.4,3.9,3.6l-1.4,1.1ZM425.3,46.7l-.8,1.8c-2.4-.4-5.9-1.6-7.8-5.3h-.3c-1.5,3.4-4.8,4.7-9.1,5.3l-.2-.7c4-.8,6.3-2.1,7.5-4.6h-6.6v-.9h7c.2-.6.3-1.2.4-1.8h-6.4v-1h6.6c0-.5,0-1,0-1.6h-5.5v-4.2h5.5v-1.5h-3.5v-3h-3.4v-.9h3.4v-2.2h1.6v2.2h5.5v-2.2h1.6v2.2h3.9v.9h-3.9v3h-3.5v1.5h5.7v4.2h-5.7v.5c0,.4,0,.8,0,1.1h6.8v1h-6.9c-.1.6-.2,1.2-.4,1.8h8.2v.9h-7.5c1.7,2.3,4.8,3.2,7.7,3.5ZM411.7,37h3.9v-2.3h-3.9v2.3ZM413.7,31.3h5.5v-2h-5.5v2ZM417.3,34.7v2.3h4.1v-2.3h-4.1ZM441.4,39.4l-1.3,1.2c-.8-1.1-1.7-2.2-2.5-3.2v11.1h-1.6v-10.2c-1.2,1.2-2.5,2.1-3.9,3l-.4-.6c3.1-2.3,5.6-5.5,6.8-8.7h-6.3v-.9h6.2l.5-.4,1.6.8c-.8,1.9-1.7,3.6-2.9,5,1.2.8,2.7,2,3.8,3ZM436.4,30.6c-.6-1.2-1.5-2.8-2.3-4.1l.6-.5c1.2.9,2.5,2.5,3.2,3.6l-1.5,1ZM453.4,30.3v12.9h-1.6v-1.9h-3.4v7.4h-1.7v-7.4h-3.4v2.1h-1.6v-13.1h5v-4.1h1.7v4.1h5.1ZM446.7,31.2h-3.4v3.9h3.4v-3.9ZM446.7,36h-3.4v4.3h3.4v-4.3ZM451.8,31.2h-3.4v3.9h3.4v-3.9ZM451.8,36h-3.4v4.3h3.4v-4.3ZM461.5,46.3h4.2v-17.2h-3.7v-1.1h20.8v1.1h-15.3v4.4h12.5v7.4h-12.5v5.4h16v1.1h-22.1v-1.1ZM478.1,40v-5.5h-10.6v5.5h10.6ZM490.9,38l-.4-.6c2.6-1.6,4.4-4.1,5.4-8.3l1.7.4c-.2.6-.4,1.2-.6,1.8,1.1,1.6,2.3,2.6,3.9,3.1v-6.3h-8.9v-.9h18.1l.6-.4,1.6.9c-.8,1.1-1.9,2.5-2.9,3.2l-.6-.4c.4-.6,1.1-1.8,1.3-2.4h-7.6v3h6.2v.9h-6.2v2.8c.9.1,1.9.2,3.1.2,2.5,0,5.6,0,7.6-.3l-.5,1.7c-1.8.1-4.6.2-6.7.1-5.1-.2-7.5-.9-9.5-4.3-1.2,2.6-3,4.5-5.6,5.8ZM513.1,47.6l-1.3,1.2c-.5-.6-1.2-1.4-1.9-2.3-3.6.6-12.6,1.3-18.4,1.4l-.3-1.7c2.7,0,6.3,0,9.7,0v-2.9h-7.3v-4.8h7.3v-1.9h1.7v1.9h7.4v4.8h-7.4v2.9c2.5,0,4.9-.2,6.5-.4-.6-.6-1.2-1.2-1.8-1.7l.5-.6c1.8,1.1,4.1,2.9,5.4,4.2ZM500.9,42.3v-2.9h-5.6v2.9h5.6ZM502.6,39.4v2.9h5.7v-2.9h-5.7ZM532.1,28.8c-.5,1.4-1.2,3.1-1.8,4.4h8.8v15.3h-1.8v-2.1h-12.2v2.1h-1.8v-15.3h6c.3-1.1.5-3,.7-4.4h-10v-1.1h22.3v1.1h-10.1ZM537.3,34.1h-12.2v4.8h12.2v-4.8ZM537.3,39.9h-12.2v5.5h12.2v-5.5ZM549.6,33.4l-.4-.6c2.8-1.7,5.4-4,7.2-6.8l1.8.7c-.7,1-1.6,1.9-2.5,2.8v5.4h-1.6v-4c-1.3,1-2.8,1.9-4.4,2.6ZM557.6,44.6l1.4,1.2c-2.1,1.2-6,2.4-9.4,2.9l-.2-.7c3.2-.8,6.1-2.1,8.2-3.5ZM552.8,35.5h15.7v8.9h-15.7v-8.9ZM554.4,38.1h12.3v-1.7h-12.3v1.7ZM554.4,40.7h12.3v-1.7h-12.3v1.7ZM554.4,43.4h12.3v-1.8h-12.3v1.8ZM560.1,31.5v-5.2h1.7v3.5c2.5-.9,5.2-2.1,6.9-3.4l1.5,1.1c-2.4,1.3-5.8,2.5-8.3,3v.5c0,1.2.2,1.6,1.9,1.7.9,0,3.1.1,4.6,0,1.7-.1,1.9-.5,1.9-3.4h.8c.6,3.8.6,4.6-2.5,4.8-1.4,0-4.1,0-5.2,0-2.6-.2-3.2-.6-3.2-2.6ZM571.5,46.9l-.9,1.6c-2.2-1-6-2.3-8.6-3.1l.2-.7c2.6.4,6.5,1.2,9.3,2.2ZM1433.9,41.4v7.1h-1.7v-6.7c-1.1,1.7-2.9,3.7-5.1,5.1l-.5-.6c2.1-1.7,4.2-4.5,5.2-6.7h-4.4v-.9h4.8v-2.4h1.7v2.4h4.5v.9h-4.5v.8c1.3.8,3,2.2,4.1,3.3l-1.2,1.2c-.8-1.1-1.9-2.4-2.9-3.4ZM1438.9,35.7h-11.9v-.9h3.6c-.5-1.2-1.2-2.8-1.8-3.9l.6-.4c.9.9,2,2.4,2.7,3.6l-1.3.7h3.2c.5-1.3.9-2.9,1.2-4.2l1.7.5c-.6,1.3-1.4,2.8-2.1,3.7h4.1v.9ZM1438.3,30.3h-10.9v-.9h5.4c-.8-1-1.9-1.9-2.8-2.8l.5-.6c1.2.6,2.7,1.5,3.8,2.4l-.8.9h4.8v.9ZM1449.3,35.1h-2.7v13.3h-1.7v-13.3h-3.7v.7c0,5.6-.8,10.1-4,12.9l-.6-.5c2.4-2.7,2.8-6.4,2.8-11.9v-8.2l1.6.5c2-.5,4.1-1.3,5.9-2.4l1.4,1.3c-2.4,1-4.8,1.6-7.3,1.8v4.8h8.1v.9ZM1476.4,47.6c-1.2,0-3.1,0-4.3,0-2.5-.1-3.1-.6-3.1-2.8v-8h-3.3c-.2,6.3-2.9,9.9-9,11.9l-.3-.7c5.5-2.4,7.3-5.6,7.6-11.2h-7.1v-1.1h9.7v-9.5h1.8v9.5h9.8v1.1h-7.4v7.8c0,1.1.2,1.4,1.6,1.5,1.2,0,2.7,0,3.8,0,1.3,0,1.4-.4,1.4-5.1h.8c.7,4.8.9,6.4-1.9,6.6ZM1462.7,34.8c-.9-1.9-2.6-4.7-3.7-6.5l.6-.5c1.5,1.4,3.8,4.1,4.9,5.9l-1.8,1ZM1470.8,35l-.6-.5c1.2-1.7,2.6-4.1,3.5-6.7l2,1c-1.3,2.2-3.3,4.7-4.9,6.2ZM1485.9,45.3h21.9v1.3h-21.9v-1.3ZM1487.7,28.1h18.3v1.3h-18.3v-1.3ZM1489.4,36.1h14.8v1.3h-14.8v-1.3ZM1537.8,45.6l-.7,1.9c-3.1.2-6.6.3-9.8.2-6-.1-8.4-2.1-9.5-5.2-.4,2.5-1.1,4.5-2.5,6l-.7-.4c1.5-2.4,1.9-5.7,1.8-10.9h1.6c0,1.4,0,2.7-.1,3.8.6,1.4,1.2,2.5,2.1,3.2v-9.1h-5v-.9h4.7v-3.4h-4v-.9h4v-3.6h1.6v3.6h4.1v.9h-4.1v3.4h4.5v.9h-4.1v3.5h3.6v.9h-3.6v5.7c1.4.6,3.2.8,5.7.8,4,0,7.9-.2,10.4-.5ZM1526.4,30.7h4.4c0-1.5,0-2.9,0-4.3h1.5c0,1.4,0,2.8,0,4.3h5.1v.9h-5.1c0,2.3.4,4.7.9,6.6.8-1.5,1.4-3.2,1.9-5l1.5.6c-.9,2.4-1.8,4.5-2.9,6.2.5,1.4,1.1,2.3,1.8,2.6.5.2.6-.6.6-3.5h.7c.7,3.4.6,5.8-1.6,5.2-1.1-.3-2-1.4-2.7-2.8-1.2,1.4-2.6,2.5-4.5,3.5l-.4-.6c1.7-1.1,3.2-2.5,4.4-4.2-.8-2.5-1.2-5.7-1.2-8.5h-2.8v8.8c.9-.4,1.7-.9,2.6-1.4l.4.7c-1.9,1.6-4.5,3-6.3,3.7l-.8-1.5c.8-.2,1.6-.5,2.5-.8v-10.4ZM1534.9,30.2c-.4-1.4-.9-2.5-1.4-3.5l.7-.3c.8.9,1.6,2,2.2,3.2l-1.4.6ZM1556.5,28.8c-.5,1.4-1.2,3.1-1.8,4.4h8.8v15.3h-1.8v-2.1h-12.2v2.1h-1.8v-15.3h6c.3-1.1.5-3,.7-4.4h-10v-1.1h22.3v1.1h-10.1ZM1561.7,34.1h-12.2v4.8h12.2v-4.8ZM1561.7,39.9h-12.2v5.5h12.2v-5.5ZM1574,33.4l-.4-.6c2.8-1.7,5.4-4,7.2-6.8l1.8.7c-.7,1-1.6,1.9-2.5,2.8v5.4h-1.6v-4c-1.3,1-2.8,1.9-4.4,2.6ZM1582,44.6l1.4,1.2c-2.1,1.2-6,2.4-9.4,2.9l-.2-.7c3.2-.8,6.1-2.1,8.2-3.5ZM1577.2,35.5h15.7v8.9h-15.7v-8.9ZM1578.8,38.1h12.3v-1.7h-12.3v1.7ZM1578.8,40.7h12.3v-1.7h-12.3v1.7ZM1578.8,43.4h12.3v-1.8h-12.3v1.8ZM1584.6,31.5v-5.2h1.7v3.5c2.5-.9,5.2-2.1,6.9-3.4l1.5,1.1c-2.4,1.3-5.8,2.5-8.3,3v.5c0,1.2.2,1.6,1.9,1.7.9,0,3.1.1,4.6,0,1.7-.1,1.9-.5,1.9-3.4h.8c.6,3.8.6,4.6-2.5,4.8-1.4,0-4.1,0-5.2,0-2.6-.2-3.2-.6-3.2-2.6ZM1595.9,46.9l-.9,1.6c-2.2-1-6-2.3-8.6-3.1l.2-.7c2.6.4,6.5,1.2,9.3,2.2ZM927.7,31.7c-.5,1.9-1.2,3.7-2.2,5.5h12.9v1.1h-6.6v8.2h8.9v1.1h-19.6v-1.1h8.9v-8.2h-5.1c-1.6,2.7-3.7,5-6.5,6.8l-.5-.6c4-3.3,6.5-7.7,7.8-12.7h-6.9v-1.1h7.2c.3-1.5.6-3,.7-4.5l1.9.2c-.2,1.4-.4,2.9-.7,4.3h12.7v1.1h-13ZM948.6,33.9l-.2-.7c4.4-1,5-2.7,5.1-7h1.7c0,1.8-.2,3.2-.7,4.3,1.3.5,3,1.2,4.1,2l-.9,1.2c-.9-.8-2.4-1.8-3.6-2.5-.9,1.4-2.5,2.3-5.4,2.7ZM969.1,34.3v4.2h-1.6v-3.3h-17.2v3.3h-1.6v-4.3h20.5ZM951.1,30.7c-.6-1.1-1.3-2.3-2-3.2l.6-.4c.9.8,2,1.8,2.7,2.8l-1.2.9ZM958.3,42.8h9.1v5.7h-1.6v-1.2h-13.5v1.2h-1.7v-5.7h6.7c.2-.6.4-1.3.5-1.9h-5.4v-4.2h13.2v4.2h-5.9c-.4.7-.8,1.3-1.3,1.9ZM965.8,43.7h-13.5v2.6h13.5v-2.6ZM953.9,40h10v-2.3h-10v2.3ZM955.9,30.4l-.5-.5c.8-.9,1.6-1.9,2.1-3l1.3.8c-.8.9-1.9,2-2.9,2.6ZM962.8,26.2h1.7c0,1.8-.2,3.2-.6,4.4,1.5.5,3.5,1.4,4.6,2l-.9,1.2c-.9-.7-2.6-1.8-4-2.6-.8,1.4-2.3,2.3-4.9,2.8l-.2-.7c4.2-1.2,4.4-3.1,4.4-7.1ZM961.1,30.5c-.6-1.1-1.3-2.2-1.9-3l.5-.5c.9.7,1.8,1.6,2.6,2.7l-1.2.8ZM965.2,30.4l-.5-.5c.7-.6,1.8-1.7,2.6-2.8l1.2,1c-.9.9-2.3,1.8-3.3,2.4ZM999.3,29.3v.9h-22.2v-.9h11.4c-1.2-.9-3-1.9-4.2-2.6l.3-.7c1.6.4,4.1,1.3,5.4,2.1l-.8,1.2h10.1ZM978.6,37.5h19.2v8.7c0,2.1-1.6,2.9-6.3,1.4l.2-.7c3.9.5,4.5.4,4.5-1.1v-7.4h-15.8v10h-1.7v-10.9ZM994.2,31.7v4.3h-12.1v-4.3h12.1ZM991.2,45.9v-1.4h-6.1v1.7h-1.6v-6h9.3v5.7h-1.6ZM992.5,32.6h-8.9v2.4h8.9v-2.4ZM991.2,43.6v-2.6h-6.1v2.6h6.1ZM1015,44.4c-1.9.9-5.9,2.3-8.3,2.9l-.5-1.6c1-.1,2.3-.4,3.5-.6v-7.6h-3.2v-.9h3.2v-2.9h-2.1c-.4.2-.7.6-1.1.9l-.4-.5c1.8-2.1,3.2-4.9,4.1-7.9l1.7.5c-.1.3-.3.7-.4,1,1.1.9,2.4,2.1,3.4,3.3l-1.2.9c-.7-1.2-1.6-2.5-2.5-3.5-.8,1.6-1.7,3.1-2.8,4.4h5.2v.9h-2.2v2.9h3v.9h-3v7.2c1.3-.3,2.6-.7,3.5-1l.2.7ZM1008.8,43.3l-1.4.3c-.1-1.5-.4-3.2-.7-4.8l.7-.2c.6,1.6,1.2,3.3,1.4,4.7ZM1011.9,43c.4-1.5.9-3.2,1.1-4.6l1.3.4c-.4,1.4-1,3-1.7,4.4l-.6-.2ZM1022.3,44.4c-2.4,1-5.4,1.9-7.9,2.3l-.4-1.4c1.2-.1,2.4-.3,3.6-.6v-2.5h-2.7v-.8h2.7v-1.9h-2.8v-.8h7.2v.8h-2.9v1.9h2.7v.8h-2.7v2.2c1-.2,2-.5,3-.8l.2.7ZM1027.4,48.2c-1.5-.3-2.5-1.8-3.2-3.8-1.3,1.6-3.1,2.8-5.5,3.8l-.4-.6c2.5-1.3,4.2-2.8,5.4-4.6-.8-3.3-1-7.3-1-10.3h-8.5v-.9h3.4v-2.3h-2.8v-.9h2.8v-2.3h1.5v2.3h2.7v.9h-2.7v2.3h3.6v-5.4h1.5v5.4h4.5v.9h-4.5c0,2.5.2,5.6.6,8.3.8-1.8,1.4-4,1.8-6.6l1.5.3c-.7,3.3-1.6,6-2.9,8.2.5,1.8,1.1,3.2,2,3.5.6.2.6-.7.6-4.5h.7c.8,4.8.3,6.6-1.3,6.3ZM1021.6,33.8v3.7h-6.6v-3.7h6.6ZM1020.3,34.7h-4v1.9h4v-1.9ZM1026.8,31.1c-.6-1.4-1.2-2.6-1.8-3.7l.6-.4c.8.8,1.8,2.2,2.5,3.4l-1.3.7ZM1045.6,41.9l.3.7c-2,1.1-6.8,2.7-9.9,3.5l-.5-1.9c1.6-.2,3.8-.6,5.8-1.1.7-2.5,1.5-6.7,1.8-10l1.8.3c-.6,3.3-1.7,7-2.7,9.4,1.2-.3,2.4-.6,3.4-1ZM1046.7,32.2h-10.9v-.9h10.9v.9ZM1037.1,33.5l.7-.2c1.1,2.5,2.2,6,2.5,8.4l-1.8.3c-.2-2.4-.9-6.2-1.4-8.5ZM1040.5,31c-.4-1.4-1-3.3-1.5-4.7l.7-.3c1,1.3,2,3.1,2.5,4.4l-1.7.6ZM1051.9,32.8v5.2h5.1v10.3h-1.7v-1.9h-7.3v2.1h-1.7v-10.4h3.9v-11.7h1.7v5.6h6.3v.9h-6.3ZM1047.9,38.9v6.5h7.3v-6.5h-7.3Z"/>
</svg>