<svg width="822" height="57" viewBox="0 0 822 57" fill="none" xmlns="http://www.w3.org/2000/svg">
<g clip-path="url(#clip0_2018_2485)">
<path d="M13.7664 55.7474H0V55.612L2.95806 55.0702C3.32213 54.9799 3.65207 54.8557 3.92512 54.6977C4.19817 54.5397 4.3347 54.1898 4.3347 53.6367V6.56939C4.3347 6.07276 4.19817 5.73415 3.92512 5.57613C3.65207 5.41811 3.32213 5.29395 2.95806 5.20365L0 4.66187V4.52642H13.7664V4.66187L10.8083 5.20365C10.4442 5.29395 10.1143 5.41811 9.84125 5.57613C9.56819 5.73415 9.43167 6.06147 9.43167 6.56939V29.866L28.7046 8.47692C29.0231 8.11573 29.2166 7.72068 29.2848 7.31434C29.3531 6.90801 29.3189 6.50167 29.1824 6.11791C29.0459 5.73415 28.807 5.41811 28.4543 5.1585C28.113 4.91019 27.7034 4.76345 27.2483 4.7183L25.7351 4.65058V4.51514H38.0566V4.7183C36.4524 4.85375 34.8938 5.30524 33.3692 6.08405C31.8561 6.86286 30.5932 7.81098 29.5806 8.95098L16.019 23.9064L36.8165 53.8286C37.0896 54.2349 37.4536 54.551 37.9201 54.7541C38.3752 54.9573 38.7279 55.0815 38.9554 55.1266L41.3674 55.6007V55.7361H27.601V55.6007C28.3291 55.5104 28.9776 55.3975 29.5237 55.2621C30.0243 55.1718 30.4908 55.0815 30.9004 54.9912C31.31 54.9009 31.492 54.8106 31.4465 54.7203L12.6628 27.665L9.43167 31.2882V53.6254C9.43167 54.1221 9.56819 54.472 9.84125 54.6526C10.1143 54.8331 10.4329 54.9686 10.8083 55.0589L13.7664 55.6007V55.7361V55.7474Z" fill="white"/>
<path d="M98.3105 55.5999V55.7354H82.2004V55.5999H83.1675C83.6681 55.5999 84.1459 55.4871 84.5782 55.2613C85.0106 55.0356 85.3746 54.7308 85.6477 54.3358C85.9207 53.952 86.1028 53.5118 86.1938 53.0378C86.2848 52.5637 86.2393 52.0896 86.0573 51.6382L81.9956 39.0079H63.2005L59.1389 51.5704C58.8203 52.575 58.9682 53.5005 59.5826 54.3358C60.2084 55.1823 61.0389 55.5999 62.097 55.5999H62.8592V55.6677H51.9827V55.5999H52.0509C53.4731 55.5999 54.7473 55.1936 55.8737 54.3696C57 53.5457 57.785 52.4847 58.2515 51.1641L73.8041 4.17578H75.5903L91.1542 50.7578C91.6093 52.2138 92.4512 53.3877 93.6686 54.2794C94.886 55.171 96.274 55.6112 97.8326 55.6112H98.3105V55.5999ZM81.7226 38.1162L72.564 11.3431L63.4736 38.1162H81.7226Z" fill="white"/>
<path d="M133.01 56.424C129.29 56.424 125.786 55.7354 122.475 54.3358C119.175 52.9475 116.286 51.0739 113.84 48.7036C111.382 46.3333 109.448 43.5453 108.026 40.3398C106.604 37.1343 105.887 33.7255 105.887 30.1249C105.887 26.5243 106.615 23.0705 108.06 19.8762C109.505 16.6933 111.473 13.9166 113.942 11.5463C116.422 9.17603 119.323 7.30236 122.657 5.91405C125.979 4.52573 129.506 3.82593 133.226 3.82593C136.947 3.82593 140.439 4.52573 143.727 5.91405C147.004 7.30236 149.86 9.18731 152.26 11.5463C154.672 13.9166 156.572 16.6933 157.972 19.8762C159.371 23.0592 160.076 26.4792 160.076 30.1249C160.076 33.7707 159.36 37.123 157.937 40.3398C156.515 43.5453 154.581 46.3446 152.158 48.7036C149.723 51.0739 146.856 52.9475 143.557 54.3358C140.257 55.7242 136.742 56.424 133.021 56.424H133.01ZM133.215 4.71761C129.495 4.71761 126.275 5.39484 123.544 6.73801C120.814 8.08118 118.55 9.8984 116.764 12.201C114.977 14.5036 113.646 17.1899 112.77 20.26C111.894 23.3301 111.462 26.6259 111.462 30.1249C111.462 33.624 111.883 36.9198 112.736 39.9899C113.589 43.06 114.898 45.7463 116.661 48.0489C118.425 50.3515 120.666 52.1687 123.374 53.5119C126.081 54.855 129.29 55.5323 133.01 55.5323C136.73 55.5323 139.927 54.8663 142.612 53.5119C145.297 52.1687 147.527 50.3515 149.291 48.0489C151.054 45.7463 152.363 43.06 153.216 39.9899C154.069 36.9198 154.49 33.624 154.49 30.1249C154.49 26.6259 154.081 23.3301 153.25 20.26C152.42 17.1899 151.134 14.5036 149.393 12.201C147.653 9.8984 145.445 8.08118 142.783 6.73801C140.121 5.39484 136.935 4.71761 133.215 4.71761Z" fill="white"/>
<path d="M216.529 55.7469H202.763V55.6114L205.721 55.0696C206.085 54.9793 206.404 54.8552 206.688 54.6972C206.961 54.5391 207.098 54.1892 207.098 53.6362V27.8902H182.591V53.6362C182.591 54.1328 182.728 54.4827 183.001 54.6633C183.274 54.8439 183.593 54.9793 183.968 55.0696L186.926 55.6114V55.7469H173.16V55.6114L176.118 55.0696C176.482 54.9793 176.812 54.8552 177.085 54.6972C177.358 54.5391 177.494 54.1892 177.494 53.6362V6.56885C177.494 6.07222 177.358 5.7336 177.085 5.57558C176.812 5.41756 176.482 5.2934 176.118 5.20311L173.16 4.66132V4.52588H186.926V4.66132L183.968 5.20311C183.604 5.2934 183.274 5.41756 183.001 5.57558C182.728 5.7336 182.591 6.06093 182.591 6.56885V27.055H207.098V6.56885C207.098 6.07222 206.961 5.7336 206.688 5.57558C206.415 5.41756 206.097 5.2934 205.721 5.20311L202.763 4.66132V4.52588H216.529V4.66132L213.571 5.20311C213.207 5.2934 212.877 5.41756 212.604 5.57558C212.331 5.7336 212.195 6.06093 212.195 6.56885V53.6249C212.195 54.1215 212.331 54.4714 212.604 54.652C212.877 54.8326 213.196 54.9681 213.571 55.0583L216.529 55.6001V55.7356V55.7469Z" fill="white"/>
<path d="M234.221 55.8822C235.052 55.8822 236.064 55.7693 237.282 55.5436C238.499 55.3178 239.671 54.8438 240.797 54.1101C241.924 53.3764 242.879 52.3606 243.687 51.04C244.484 49.7194 244.893 47.9473 244.893 45.7125C244.893 43.7598 244.518 41.9087 243.755 40.1818C242.993 38.4548 242.049 36.7618 240.9 35.1251C239.751 33.4885 238.522 31.8744 237.214 30.2717C235.905 28.6802 234.676 27.0436 233.527 25.3505C232.378 23.6687 231.423 21.8966 230.672 20.0568C229.909 18.217 229.534 16.2418 229.534 14.1537C229.534 12.9234 229.727 11.6931 230.114 10.4628C230.501 9.23246 231.184 8.12632 232.151 7.14434C233.118 6.16236 234.426 5.37226 236.076 4.75147C237.725 4.14197 239.842 3.82593 242.413 3.82593C242.777 3.82593 243.107 3.83721 243.414 3.85979C243.71 3.88236 243.972 3.91622 244.21 3.96137C244.438 4.00652 244.666 4.05167 244.904 4.09682L244.836 4.50316C244.7 4.45801 244.518 4.39028 244.29 4.29999C244.063 4.25484 243.801 4.22098 243.494 4.1984C243.198 4.17583 242.845 4.16454 242.424 4.16454C241.002 4.16454 239.773 4.42415 238.738 4.95464C237.703 5.47385 236.884 6.15108 236.258 6.97504C235.643 7.799 235.177 8.71325 234.881 9.74038C234.585 10.7675 234.437 11.7834 234.437 12.7766C234.437 14.5487 234.813 16.2982 235.575 18.0026C236.337 19.7069 237.293 21.4 238.465 23.0592C239.637 24.7184 240.888 26.4002 242.219 28.082C243.551 29.7638 244.802 31.4681 245.974 33.1725C247.146 34.8768 248.113 36.6376 248.864 38.4323C249.626 40.2269 250.001 42.1119 250.001 44.0645C250.001 46.0172 249.728 47.6087 249.171 48.9519C248.625 50.295 247.919 51.4237 247.066 52.338C246.213 53.2523 245.257 53.9746 244.176 54.5277C243.096 55.0695 242.037 55.4871 241.013 55.758C239.99 56.0289 239.022 56.2095 238.124 56.2998C237.225 56.3901 236.531 56.4352 236.019 56.4352C234.415 56.4352 233.209 56.3337 232.401 56.1305C231.593 55.9273 231.127 55.8032 230.99 55.758L231.195 55.3517C231.423 55.442 231.798 55.5548 232.333 55.6903C232.856 55.8257 233.493 55.8935 234.221 55.8935V55.8822Z" fill="white"/>
<path d="M273.951 5.19182C273.587 5.28212 273.257 5.40627 272.984 5.56429C272.711 5.72231 272.574 6.04964 272.574 6.55756V53.6136C272.574 54.1102 272.711 54.4601 272.984 54.6407C273.257 54.8213 273.575 54.9568 273.951 55.0471L276.909 55.5888V55.7243H263.142V55.5888L266.1 55.0471C266.464 54.9568 266.783 54.8326 267.067 54.6746C267.341 54.5166 267.477 54.1667 267.477 53.6136V6.56885C267.477 6.07222 267.341 5.7336 267.067 5.57558C266.794 5.41756 266.476 5.2934 266.1 5.20311L263.142 4.66132V4.52588H276.909V4.66132L273.951 5.20311V5.19182Z" fill="white"/>
<path d="M320.074 4.51514H331.576V4.65058C331.03 4.69573 330.45 4.8086 329.858 4.9892C329.255 5.16979 328.698 5.40682 328.174 5.71157C327.651 6.00504 327.207 6.3888 326.866 6.84029C326.525 7.29177 326.354 7.84484 326.354 8.47692V42.6318C326.354 44.9569 325.899 46.9886 324.977 48.7494C324.056 50.4989 322.816 51.9662 321.257 53.1514C319.698 54.3365 317.923 55.2395 315.955 55.849C313.987 56.4585 311.916 56.7745 309.755 56.7745C307.411 56.7745 305.215 56.4359 303.145 55.7474C301.074 55.0589 299.254 54.0543 297.672 52.7112C296.091 51.368 294.839 49.7427 293.918 47.8238C292.996 45.9163 292.541 43.7266 292.541 41.266V6.56939C292.541 6.16306 292.37 5.82444 292.029 5.57613C291.688 5.32781 291.278 5.14722 290.823 5.03434C290.368 4.92147 289.89 4.84246 289.412 4.79731C288.934 4.75217 288.525 4.70702 288.206 4.66187V4.52642H301.973V4.66187C301.654 4.70702 301.233 4.75217 300.733 4.79731C300.232 4.84246 299.743 4.92147 299.288 5.03434C298.833 5.14722 298.434 5.32781 298.116 5.57613C297.797 5.82444 297.638 6.15177 297.638 6.56939V43.8621C297.638 45.7244 297.991 47.3836 298.707 48.8171C299.413 50.2506 300.38 51.4696 301.597 52.4741C302.815 53.4787 304.214 54.2236 305.795 54.7316C307.377 55.2282 309.038 55.4878 310.79 55.4878C312.713 55.4878 314.567 55.1943 316.331 54.5961C318.094 54.0092 319.63 53.1401 320.938 52.0001C322.247 50.8601 323.293 49.4943 324.067 47.9029C324.852 46.3114 325.239 44.4829 325.239 42.4399V8.47692C325.239 7.84484 325.068 7.29177 324.727 6.84029C324.386 6.3888 323.953 6.00504 323.453 5.71157C322.952 5.41811 322.383 5.18108 321.769 4.9892C321.155 4.8086 320.586 4.69573 320.085 4.65058V4.51514H320.074Z" fill="white"/>
<path d="M349.336 9.57109V51.9204C349.336 52.7444 349.609 53.399 350.166 53.8956C350.713 54.3923 351.316 54.7873 351.953 55.0582C352.738 55.3743 353.602 55.6 354.569 55.7467V55.9499H343.067V55.7467C344.034 55.6113 344.899 55.3855 345.684 55.0582C346.321 54.7873 346.913 54.4036 347.436 53.8956C347.959 53.399 348.232 52.7331 348.232 51.9204V8.67941C348.232 7.9006 347.971 7.2798 347.436 6.80574C346.913 6.33168 346.321 5.94792 345.684 5.67703C344.899 5.31584 344.034 5.04495 343.067 4.85307V4.6499H352.226L381.897 47.2024V8.61168C381.897 7.78772 381.624 7.13307 381.067 6.63644C380.521 6.1398 379.918 5.74475 379.281 5.47386C378.496 5.20297 377.631 4.9998 376.664 4.86436V4.66119H388.166V4.86436C387.199 4.9998 386.357 5.20297 385.618 5.47386C384.969 5.74475 384.378 6.12852 383.832 6.63644C383.285 7.13307 383.001 7.79901 383.001 8.61168V56.5594H381.829L349.336 9.57109Z" fill="white"/>
<path d="M426.439 4.71817C423.367 4.76332 420.591 5.32768 418.111 6.38867C415.631 7.46095 413.537 9.02986 411.808 11.1067C410.09 13.1835 408.77 15.757 407.849 18.8271C406.927 21.8972 406.472 25.4639 406.472 29.516C406.472 33.5681 407.007 37.2138 408.088 40.4419C409.168 43.6813 410.659 46.4128 412.559 48.6364C414.459 50.8712 416.723 52.5756 419.34 53.7607C421.956 54.9459 424.823 55.5328 427.941 55.5328C429.681 55.5328 431.377 55.3297 433.004 54.9233C434.631 54.517 435.95 53.9865 436.963 53.3544V30.7463C436.963 30.1142 436.838 29.6966 436.587 29.516C436.337 29.3354 436.007 29.2 435.586 29.1097L426.564 27.7439V27.5407H442.06V51.3792C441.229 52.3386 440.148 53.1738 438.829 53.9075C437.68 54.5508 436.223 55.1265 434.46 55.6457C432.696 56.1649 430.523 56.4358 427.952 56.4358C424.277 56.4358 420.807 55.8263 417.519 54.596C414.243 53.3657 411.364 51.5936 408.918 49.2685C406.461 46.9433 404.515 44.1215 403.07 40.8031C401.625 37.4847 400.897 33.7261 400.897 29.5386C400.897 25.351 401.637 21.6602 403.139 18.4772C404.629 15.2942 406.586 12.6192 408.986 10.452C411.398 8.28491 414.117 6.64827 417.144 5.53085C420.17 4.41342 423.242 3.86035 426.371 3.86035C428.02 3.86035 429.659 3.96194 431.297 4.1651C432.924 4.36827 434.392 4.63916 435.7 4.98906C437.008 5.32768 438.078 5.70015 438.897 6.08392C439.727 6.46768 440.137 6.87401 440.137 7.28035L439.796 16.1633H439.523C439.523 15.0685 439.193 13.8607 438.521 12.5402C437.85 11.2196 436.94 9.98926 435.768 8.84926C434.596 7.70926 433.22 6.76114 431.638 5.98233C430.057 5.20352 428.316 4.79718 426.439 4.75203V4.71817Z" fill="white"/>
<path d="M620.624 0V7.69782H631.512V8.62337H620.624V47.9139C620.624 49.336 620.795 50.6341 621.136 51.8079C621.477 52.9818 622.046 53.9299 622.865 54.6523C623.685 55.3747 624.902 55.7358 626.54 55.7358C628.907 55.7358 630.659 55.1038 631.808 53.8509C632.957 52.598 633.731 51.2097 634.129 49.7085L634.55 49.7875C634.379 50.6792 634.095 51.5596 633.708 52.4287C633.31 53.2978 632.775 54.0653 632.104 54.7313C631.432 55.3972 630.591 55.9503 629.578 56.3679C628.565 56.7855 627.325 57 625.869 57C623.116 57 620.977 56.5372 619.464 55.623C617.939 54.6974 616.836 53.5349 616.13 52.1127C615.425 50.6905 615.015 49.1554 614.901 47.5075C614.788 45.8596 614.731 44.3358 614.731 42.9475V8.62337H608.576V7.69782H610.1C611.727 7.69782 613.195 7.38178 614.492 6.73842C615.789 6.09505 616.881 5.3501 617.78 4.48099C618.679 3.61188 619.35 2.75406 619.805 1.88495C620.26 1.01584 620.476 0.39505 620.476 0H620.647H620.624Z" fill="white"/>
<path d="M648.794 16.2425C648.794 15.0687 649.022 13.8948 649.465 12.7322C649.921 11.5584 650.66 10.5199 651.695 9.5944C652.731 8.66886 654.107 7.93519 655.825 7.38212C657.543 6.82905 659.637 6.54688 662.106 6.54688C662.447 6.54688 662.754 6.55816 663.038 6.59202C663.323 6.62588 663.573 6.63717 663.801 6.63717C664.028 6.69361 664.256 6.75004 664.472 6.80648L664.392 7.2241C664.222 7.16767 664.028 7.11123 663.801 7.0548C663.346 6.94192 662.788 6.88549 662.117 6.88549C660.706 6.88549 659.534 7.12252 658.567 7.59658C657.612 8.07064 656.838 8.68014 656.246 9.43638C655.655 10.1926 655.222 11.0504 654.938 12.0324C654.653 13.0144 654.517 13.9738 654.517 14.9219C654.517 16.6489 654.915 18.3306 655.7 19.9447C656.485 21.5588 657.475 23.1841 658.647 24.7982C659.83 26.4122 661.104 28.015 662.492 29.6065C663.869 31.198 665.155 32.812 666.326 34.4599C667.51 36.1079 668.488 37.8122 669.285 39.5617C670.07 41.3225 670.468 43.1172 670.468 44.957C670.468 47.6885 669.853 49.8556 668.613 51.4471C667.373 53.0386 665.928 54.2463 664.267 55.0928C662.606 55.9281 660.979 56.4586 659.375 56.6843C657.771 56.9101 656.599 57.0229 655.871 57.0229C654.301 57.0229 653.129 56.9213 652.367 56.7295C651.604 56.5376 651.172 56.4134 651.058 56.357L651.138 55.9394C651.422 56.0522 651.809 56.1764 652.321 56.3118C652.833 56.4473 653.447 56.5263 654.176 56.5263C654.961 56.5263 655.951 56.4021 657.134 56.1538C658.317 55.9055 659.455 55.4314 660.547 54.7316C661.639 54.0318 662.572 53.0273 663.334 51.718C664.097 50.4087 664.472 48.693 664.472 46.571C664.472 44.6748 664.074 42.9027 663.289 41.2548C662.504 39.6069 661.525 37.9928 660.376 36.4013C659.227 34.8098 657.976 33.2522 656.622 31.7172C655.268 30.1821 654.016 28.6019 652.867 26.9879C651.718 25.3738 650.74 23.6807 649.955 21.9199C649.17 20.1592 648.771 18.2742 648.771 16.2651L648.794 16.2425Z" fill="white"/>
<path d="M702.198 55.7358H685.667V55.5664L689.297 54.9005C689.797 54.7876 690.207 54.6183 690.525 54.4039C690.832 54.1781 690.992 53.6815 690.992 52.9027V10.6324C690.992 9.85357 690.832 9.34565 690.525 9.1312C690.218 8.90545 689.809 8.73615 689.297 8.63456L685.667 7.96862V7.79931H696.885V13.6573C697.272 13.1494 697.886 12.4948 698.694 11.6934C699.502 10.8807 700.526 10.1019 701.732 9.34565C702.938 8.58941 704.349 7.93476 705.953 7.38169C707.557 6.82862 709.366 6.54644 711.391 6.54644C713.701 6.54644 715.726 6.73832 717.466 7.13337C719.207 7.52842 720.686 8.07021 721.892 8.77001C723.098 9.46981 724.099 10.2599 724.884 11.1516C725.669 12.0433 726.284 12.9914 726.739 13.9959C727.08 13.5557 727.638 12.9124 728.423 12.0658C729.208 11.2306 730.22 10.4066 731.46 9.59397C732.7 8.78129 734.145 8.07021 735.806 7.4607C737.467 6.8512 739.367 6.53516 741.495 6.53516C744.76 6.53516 747.445 6.93021 749.55 7.70902C751.655 8.48783 753.327 9.50367 754.567 10.7678C755.807 12.0207 756.672 13.4203 757.184 14.9554C757.685 16.4904 757.946 18.0142 757.946 19.5154L757.867 53.1623C757.924 53.8282 758.106 54.2684 758.413 54.4603C758.72 54.6522 759.107 54.8102 759.551 54.9231L763.259 55.589V55.7583H746.729V55.589L750.358 54.9231C750.858 54.8102 751.268 54.6409 751.587 54.4264C751.894 54.2007 752.053 53.7041 752.053 52.9253V18.8607C752.053 17.4159 751.871 16.0163 751.507 14.6732C751.143 13.33 750.54 12.1674 749.698 11.1629C748.856 10.1583 747.752 9.34565 746.41 8.73615C745.056 8.12664 743.406 7.8106 741.427 7.8106C739.231 7.8106 737.32 8.13793 735.693 8.77001C734.066 9.41337 732.655 10.147 731.472 10.9823C730.288 11.8175 729.344 12.6754 728.65 13.5332C727.945 14.4023 727.456 15.0569 727.171 15.4971C727.399 16.1631 727.547 16.8516 727.638 17.5514C727.717 18.2512 727.763 18.9284 727.763 19.6057V53.1623C727.82 53.8282 728.002 54.2684 728.309 54.4603C728.616 54.6522 728.992 54.8102 729.447 54.9231L733.076 55.589V55.7583H716.545V55.589L720.254 54.9231C720.698 54.8102 721.096 54.6409 721.437 54.4264C721.778 54.2007 721.949 53.7041 721.949 52.9253V18.8607C721.949 17.4159 721.756 16.0163 721.357 14.6732C720.959 13.33 720.345 12.1674 719.503 11.1629C718.661 10.1583 717.557 9.34565 716.215 8.73615C714.861 8.12664 713.2 7.8106 711.232 7.8106C708.979 7.8106 706.999 8.1605 705.281 8.8603C703.564 9.56011 702.119 10.3615 700.935 11.287C699.752 12.2126 698.831 13.1043 698.148 13.9621C697.477 14.8312 697.056 15.4294 696.885 15.7567V53.1736C696.942 53.8395 697.124 54.2797 697.431 54.4716C697.738 54.6635 698.125 54.8215 698.569 54.9344L702.198 55.6003V55.7696V55.7358Z" fill="white"/>
<path d="M805.208 57.0007C801.715 57.0007 798.416 56.4476 795.298 55.3302C792.181 54.2128 789.439 52.5649 787.073 50.3864C784.706 48.208 782.829 45.533 781.418 42.35C780.008 39.167 779.313 35.5213 779.313 31.3902C779.313 27.2591 780.076 23.7375 781.589 20.6336C783.113 17.5409 785.093 14.9449 787.539 12.8455C789.985 10.7573 792.727 9.17713 795.765 8.11614C798.803 7.05515 801.84 6.52466 804.878 6.52466C807.404 6.52466 809.577 6.79555 811.374 7.31476C813.172 7.84525 814.674 8.47733 815.891 9.19971C817.097 9.92208 818.03 10.6557 818.678 11.3781C819.327 12.1005 819.793 12.631 820.066 12.9696C820.408 13.3647 820.442 13.7936 820.192 14.2676C819.941 14.7417 819.395 15.0352 818.542 15.148C818.144 14.4821 817.586 13.7146 816.858 12.8455C816.13 11.9763 815.208 11.1637 814.116 10.3736C813.024 9.59476 811.693 8.92882 810.157 8.36446C808.61 7.81139 806.801 7.52921 804.719 7.52921C802.295 7.52921 799.94 8.07099 797.631 9.16585C795.321 10.2494 793.285 11.8296 791.51 13.8952C789.735 15.9607 788.313 18.489 787.255 21.4688C786.185 24.4486 785.651 27.8122 785.651 31.5482C785.651 35.6793 786.185 39.2799 787.255 42.35C788.324 45.4201 789.758 47.971 791.555 50.0027C793.353 52.0457 795.435 53.5581 797.801 54.5627C800.168 55.5672 802.637 56.0639 805.231 56.0639C808.325 56.0639 810.885 55.5898 812.91 54.6417C814.935 53.6936 816.562 52.6664 817.802 51.549C819.213 50.2623 820.305 48.7837 821.09 47.1132L822.023 47.7001C821.181 49.427 820.021 50.9621 818.565 52.3053C817.268 53.4791 815.561 54.5514 813.422 55.5221C811.283 56.4928 808.553 56.9894 805.242 56.9894L805.208 57.0007Z" fill="white"/>
<path d="M469.889 32.5977H584.309" stroke="white" stroke-width="5.12" stroke-miterlimit="10"/>
</g>
<defs>
<clipPath id="clip0_2018_2485">
<rect width="822" height="57" fill="white"/>
</clipPath>
</defs>
</svg>
