<svg width="520" height="87" viewBox="0 0 520 87" fill="none" xmlns="http://www.w3.org/2000/svg">
<path d="M8.1999 30.455C6.61324 30.455 5.20157 30.1633 3.9649 29.58C2.72824 28.9967 1.7599 28.1917 1.0599 27.165C0.359902 26.1383 0.00990248 24.96 0.00990248 23.63C0.00990248 22.4867 0.231569 21.46 0.674903 20.55C1.14157 19.6167 1.73657 18.8233 2.4599 18.17C3.18324 17.4933 3.9299 16.945 4.6999 16.525V16.385C3.76657 15.7317 2.9499 14.9267 2.2499 13.97C1.57324 12.99 1.2349 11.8233 1.2349 10.47C1.2349 9.16333 1.53824 8.03167 2.1449 7.075C2.7749 6.095 3.6149 5.33667 4.6649 4.8C5.73824 4.24 6.9399 3.96 8.2699 3.96C9.7399 3.96 10.9999 4.25167 12.0499 4.835C13.0999 5.41833 13.9049 6.21167 14.4649 7.215C15.0249 8.21833 15.3049 9.385 15.3049 10.715C15.3049 11.6017 15.1182 12.4417 14.7449 13.235C14.3949 14.0283 13.9632 14.74 13.4499 15.37C12.9366 15.9767 12.4232 16.49 11.9099 16.91V17.085C12.6566 17.505 13.3566 18.0183 14.0099 18.625C14.6632 19.2083 15.1882 19.9317 15.5849 20.795C16.0049 21.635 16.2149 22.65 16.2149 23.84C16.2149 25.0533 15.8766 26.1733 15.1999 27.2C14.5466 28.2033 13.6132 28.9967 12.3999 29.58C11.2099 30.1633 9.8099 30.455 8.1999 30.455ZM9.9499 16.07C10.8132 15.3 11.4666 14.4833 11.9099 13.62C12.3532 12.7333 12.5749 11.8233 12.5749 10.89C12.5749 10.0267 12.3999 9.25667 12.0499 8.58C11.7232 7.90333 11.2332 7.36667 10.5799 6.97C9.92657 6.55 9.1449 6.34 8.2349 6.34C7.0449 6.34 6.0649 6.71333 5.2949 7.46C4.5249 8.20666 4.1399 9.21 4.1399 10.47C4.1399 11.4733 4.40824 12.325 4.9449 13.025C5.5049 13.7017 6.22824 14.285 7.1149 14.775C8.00157 15.2417 8.94657 15.6733 9.9499 16.07ZM8.2349 28.075C9.23824 28.075 10.1016 27.8883 10.8249 27.515C11.5716 27.1417 12.1432 26.6283 12.5399 25.975C12.9599 25.3217 13.1699 24.575 13.1699 23.735C13.1699 22.8717 12.9832 22.1367 12.6099 21.53C12.2366 20.9 11.7349 20.3517 11.1049 19.885C10.4982 19.4183 9.78657 18.9983 8.9699 18.625C8.15324 18.2517 7.2899 17.89 6.3799 17.54C5.35324 18.1933 4.50157 19.0217 3.8249 20.025C3.17157 21.005 2.8449 22.1133 2.8449 23.35C2.8449 24.2367 3.07824 25.0417 3.5449 25.765C4.01157 26.4883 4.65324 27.06 5.4699 27.48C6.3099 27.8767 7.23157 28.075 8.2349 28.075ZM24.744 30C24.8606 27.5733 25.059 25.345 25.339 23.315C25.6423 21.2617 26.074 19.3367 26.634 17.54C27.194 15.72 27.9056 13.9583 28.769 12.255C29.6556 10.5517 30.729 8.825 31.989 7.075H19.529V4.345H35.594V6.27C34.1006 8.20667 32.8756 10.0617 31.919 11.835C30.9856 13.6083 30.2506 15.4167 29.714 17.26C29.2006 19.1033 28.8156 21.0633 28.559 23.14C28.3256 25.1933 28.1623 27.48 28.069 30H24.744ZM39.258 14.075H70.163V16.7H39.258V14.075ZM53.293 0.634998H56.058V32.8H53.293V0.634998ZM65.683 2.315L68.518 3.47C67.958 4.45 67.3514 5.47667 66.698 6.55C66.0447 7.62333 65.3797 8.65 64.703 9.63C64.0264 10.61 63.3964 11.4617 62.813 12.185L60.573 11.135C61.1564 10.365 61.763 9.46667 62.393 8.44C63.023 7.41333 63.6297 6.36333 64.213 5.29C64.7964 4.21667 65.2864 3.225 65.683 2.315ZM41.288 3.645L43.668 2.63C44.368 3.44667 45.0447 4.345 45.698 5.325C46.3514 6.305 46.9347 7.27333 47.448 8.23C47.9847 9.18667 48.393 10.0383 48.673 10.785L46.083 11.94C45.8497 11.1933 45.4764 10.3417 44.963 9.385C44.473 8.42833 43.9014 7.44833 43.248 6.445C42.618 5.44167 41.9647 4.50833 41.288 3.645ZM49.198 18.625L51.473 19.465C50.6564 21.1917 49.653 22.895 48.463 24.575C47.273 26.2317 46.0014 27.76 44.648 29.16C43.318 30.56 41.988 31.7383 40.658 32.695C40.4947 32.485 40.2964 32.24 40.063 31.96C39.8297 31.7033 39.5964 31.4467 39.363 31.19C39.1297 30.9567 38.908 30.7583 38.698 30.595C40.0047 29.7783 41.323 28.7283 42.653 27.445C43.983 26.1617 45.2197 24.7617 46.363 23.245C47.5064 21.705 48.4514 20.165 49.198 18.625ZM57.843 19.815L59.873 18.52C60.923 19.4533 61.973 20.4683 63.023 21.565C64.0964 22.6617 65.123 23.7817 66.103 24.925C67.1064 26.0683 68.0047 27.1767 68.798 28.25C69.6147 29.3 70.268 30.28 70.758 31.19L68.518 32.695C68.028 31.785 67.398 30.7933 66.628 29.72C65.858 28.6467 64.9947 27.5267 64.038 26.36C63.0814 25.1933 62.0664 24.05 60.993 22.93C59.943 21.81 58.893 20.7717 57.843 19.815ZM80.943 21.53H103.973V23.35H80.943V21.53ZM79.088 25.625H105.583V27.515H79.088V25.625ZM100.578 16.525L102.258 18.03C100.998 18.31 99.5514 18.555 97.918 18.765C96.2847 18.975 94.5697 19.15 92.773 19.29C90.9764 19.43 89.1564 19.5467 87.313 19.64C85.493 19.71 83.7197 19.7567 81.993 19.78C81.9697 19.5467 81.9114 19.2667 81.818 18.94C81.7247 18.6133 81.6197 18.345 81.503 18.135C83.1597 18.0883 84.8747 18.03 86.648 17.96C88.4447 17.8667 90.2064 17.75 91.933 17.61C93.6597 17.47 95.2697 17.3067 96.763 17.12C98.2564 16.9333 99.528 16.735 100.578 16.525ZM91.093 18.345H93.683V30.175C93.683 30.875 93.5664 31.4 93.333 31.75C93.123 32.1 92.7264 32.3567 92.143 32.52C91.5597 32.6833 90.778 32.7767 89.798 32.8C88.818 32.8233 87.5697 32.835 86.053 32.835C85.983 32.5317 85.8664 32.1817 85.703 31.785C85.5397 31.4117 85.388 31.0733 85.248 30.77C85.9947 30.7933 86.718 30.805 87.418 30.805C88.118 30.8283 88.7247 30.8283 89.238 30.805C89.7747 30.805 90.1364 30.805 90.323 30.805C90.6264 30.7817 90.8247 30.7233 90.918 30.63C91.0347 30.5367 91.093 30.3617 91.093 30.105V18.345ZM77.758 3.365H105.513V5.605H77.758V3.365ZM76.253 3.365H78.703V14.32C78.703 15.6733 78.6564 17.155 78.563 18.765C78.493 20.3517 78.3414 21.985 78.108 23.665C77.8747 25.345 77.5247 26.9783 77.058 28.565C76.6147 30.1283 76.0197 31.575 75.273 32.905C75.1564 32.7183 74.9697 32.52 74.713 32.31C74.4564 32.1 74.1997 31.9017 73.943 31.715C73.6864 31.5283 73.453 31.3883 73.243 31.295C73.943 30.0583 74.4914 28.7283 74.888 27.305C75.2847 25.8583 75.5764 24.3883 75.763 22.895C75.973 21.3783 76.1014 19.8967 76.148 18.45C76.218 16.98 76.253 15.6033 76.253 14.32V3.365ZM88.608 1.02L91.198 0.389999C91.5014 0.973332 91.8047 1.62667 92.108 2.35C92.4114 3.05 92.6447 3.65667 92.808 4.17L90.078 4.94C89.9614 4.40333 89.7514 3.77333 89.448 3.05C89.168 2.30333 88.888 1.62666 88.608 1.02ZM80.278 7.95H91.128V9.945H80.278V7.95ZM92.108 7.95H104.218V9.945H92.108V7.95ZM84.723 6.095H86.788V17.085H84.723V6.095ZM96.693 6.095H98.758V16.245H96.693V6.095ZM81.118 10.925H82.763V12.395C82.763 13.235 82.6464 14.0983 82.413 14.985C82.1797 15.8483 81.5964 16.6067 80.663 17.26C80.523 17.0733 80.3014 16.8633 79.998 16.63C79.718 16.3967 79.473 16.2217 79.263 16.105C80.0564 15.615 80.558 15.02 80.768 14.32C81.0014 13.5967 81.118 12.9317 81.118 12.325V10.925ZM93.263 10.925H94.873V12.325C94.873 13.1417 94.7797 13.97 94.593 14.81C94.4064 15.6267 93.9747 16.3617 93.298 17.015C93.158 16.8283 92.9364 16.6183 92.633 16.385C92.3297 16.1517 92.0847 15.9767 91.898 15.86C92.458 15.4167 92.8197 14.8567 92.983 14.18C93.1697 13.48 93.263 12.8383 93.263 12.255V10.925ZM88.258 10.995H89.903V14.075C89.903 14.3783 89.9147 14.5883 89.938 14.705C89.9847 14.7983 90.0897 14.845 90.253 14.845C90.323 14.845 90.3697 14.845 90.393 14.845C90.4397 14.845 90.498 14.845 90.568 14.845C90.6847 14.845 90.848 14.8333 91.058 14.81C91.2914 14.7867 91.4897 14.7633 91.653 14.74C91.6764 14.9267 91.688 15.1367 91.688 15.37C91.7114 15.58 91.723 15.79 91.723 16C91.6064 16.0233 91.443 16.0467 91.233 16.07C91.023 16.0933 90.813 16.105 90.603 16.105C90.4864 16.105 90.3697 16.105 90.253 16.105C90.1364 16.105 89.9964 16.105 89.833 16.105C89.1797 16.105 88.748 15.9417 88.538 15.615C88.3514 15.2883 88.258 14.7633 88.258 14.04V10.995ZM100.298 10.89H101.978V14.25C101.978 14.5533 102.001 14.7517 102.048 14.845C102.118 14.9383 102.246 14.985 102.433 14.985C102.55 14.985 102.725 14.985 102.958 14.985C103.215 14.985 103.413 14.985 103.553 14.985C103.716 14.985 103.926 14.985 104.183 14.985C104.44 14.985 104.65 14.9617 104.813 14.915C104.836 15.1017 104.848 15.3117 104.848 15.545C104.871 15.7783 104.895 16 104.918 16.21C104.801 16.2567 104.615 16.2917 104.358 16.315C104.101 16.315 103.845 16.315 103.588 16.315C103.425 16.315 103.168 16.315 102.818 16.315C102.491 16.315 102.235 16.315 102.048 16.315C101.301 16.315 100.823 16.1517 100.613 15.825C100.403 15.4983 100.298 14.9617 100.298 14.215V10.89ZM126.198 15.37C127.341 19.0333 129.15 22.1717 131.623 24.785C134.096 27.3983 137.235 29.2533 141.038 30.35C140.851 30.5367 140.641 30.7583 140.408 31.015C140.175 31.295 139.953 31.5867 139.743 31.89C139.556 32.1933 139.393 32.4617 139.253 32.695C136.64 31.8317 134.33 30.6183 132.323 29.055C130.34 27.4917 128.636 25.6133 127.213 23.42C125.813 21.2267 124.67 18.7533 123.783 16L126.198 15.37ZM110.798 3.295H138.518V5.955H110.798V3.295ZM109.538 14.075H140.023V16.735H109.538V14.075ZM123.118 4.205H125.883V10.12C125.883 11.5667 125.79 13.095 125.603 14.705C125.416 16.2917 125.043 17.9017 124.483 19.535C123.923 21.1683 123.071 22.7783 121.928 24.365C120.808 25.9283 119.303 27.4217 117.413 28.845C115.546 30.2683 113.213 31.5633 110.413 32.73C110.296 32.52 110.133 32.275 109.923 31.995C109.736 31.715 109.526 31.435 109.293 31.155C109.083 30.8983 108.885 30.6883 108.698 30.525C111.335 29.4517 113.528 28.2617 115.278 26.955C117.051 25.6483 118.451 24.2833 119.478 22.86C120.528 21.4367 121.31 19.99 121.823 18.52C122.36 17.05 122.71 15.6033 122.873 14.18C123.036 12.7333 123.118 11.38 123.118 10.12V4.205ZM160.883 8.195H163.438V30.7H160.883V8.195ZM151.153 22.02H173.413V24.365H151.153V22.02ZM148.878 29.58H175.583V31.89H148.878V29.58ZM154.478 8.79L156.858 9.07C156.461 11.5433 155.785 13.76 154.828 15.72C153.871 17.6567 152.646 19.255 151.153 20.515C151.036 20.375 150.85 20.2117 150.593 20.025C150.36 19.8383 150.115 19.6517 149.858 19.465C149.601 19.2783 149.368 19.1267 149.158 19.01C150.628 17.89 151.795 16.455 152.658 14.705C153.521 12.955 154.128 10.9833 154.478 8.79ZM153.673 14.32L155.213 12.815C155.796 13.305 156.415 13.865 157.068 14.495C157.721 15.1017 158.328 15.7083 158.888 16.315C159.471 16.8983 159.938 17.4117 160.288 17.855L158.713 19.605C158.363 19.115 157.908 18.5667 157.348 17.96C156.788 17.3533 156.181 16.7233 155.528 16.07C154.898 15.4167 154.28 14.8333 153.673 14.32ZM168.723 8.79L171.068 9.105C170.648 11.5083 169.948 13.6317 168.968 15.475C167.988 17.3183 166.763 18.8467 165.293 20.06C165.176 19.92 164.99 19.7567 164.733 19.57C164.5 19.36 164.255 19.1617 163.998 18.975C163.765 18.765 163.555 18.6133 163.368 18.52C164.815 17.4467 165.97 16.0817 166.833 14.425C167.72 12.7683 168.35 10.89 168.723 8.79ZM167.498 14.25L169.038 12.78C169.785 13.3633 170.566 14.0167 171.383 14.74C172.2 15.44 172.981 16.14 173.728 16.84C174.475 17.5167 175.081 18.1233 175.548 18.66L173.973 20.34C173.53 19.8033 172.935 19.185 172.188 18.485C171.465 17.7617 170.683 17.0267 169.843 16.28C169.026 15.5333 168.245 14.8567 167.498 14.25ZM147.548 4.31H175.443V6.76H147.548V4.31ZM146.148 4.31H148.738V14.04C148.738 15.3933 148.691 16.875 148.598 18.485C148.528 20.0717 148.376 21.705 148.143 23.385C147.933 25.065 147.606 26.71 147.163 28.32C146.72 29.9067 146.136 31.365 145.413 32.695C145.25 32.5317 145.028 32.3567 144.748 32.17C144.491 31.9833 144.223 31.7967 143.943 31.61C143.663 31.4467 143.406 31.3183 143.173 31.225C143.873 29.965 144.421 28.6117 144.818 27.165C145.215 25.695 145.506 24.19 145.693 22.65C145.88 21.11 145.996 19.605 146.043 18.135C146.113 16.665 146.148 15.3 146.148 14.04V4.31ZM159.028 1.195L161.478 0.354998C162.061 1.10166 162.598 1.93 163.088 2.84C163.601 3.75 163.998 4.54333 164.278 5.22L161.688 6.2C161.455 5.5 161.081 4.68333 160.568 3.75C160.078 2.79333 159.565 1.94167 159.028 1.195ZM196.618 3.4H198.613V14.005H196.618V3.4ZM201.763 3.4H203.758V14.005H201.763V3.4ZM203.828 25.765L205.753 24.68C206.383 25.2633 207.001 25.905 207.608 26.605C208.215 27.2817 208.775 27.9583 209.288 28.635C209.801 29.2883 210.21 29.8833 210.513 30.42L208.483 31.68C208.203 31.1433 207.806 30.525 207.293 29.825C206.78 29.125 206.22 28.425 205.613 27.725C205.03 27.0017 204.435 26.3483 203.828 25.765ZM194.063 24.715L196.408 25.38C195.755 26.57 194.961 27.7367 194.028 28.88C193.118 30.0233 192.196 31.0033 191.263 31.82C191.1 31.68 190.89 31.5167 190.633 31.33C190.4 31.1667 190.155 30.9917 189.898 30.805C189.641 30.6417 189.408 30.5017 189.198 30.385C190.155 29.6617 191.065 28.81 191.928 27.83C192.791 26.8267 193.503 25.7883 194.063 24.715ZM190.458 2.245H210.093V4.415H190.458V2.245ZM192.768 16.805H207.888V18.94H192.768V16.805ZM190.528 21.355H210.303V23.525H190.528V21.355ZM193.468 8.755V12.955H207.188V8.755H193.468ZM191.263 6.725H209.533V14.985H191.263V6.725ZM198.963 22.475H201.343V32.765H198.963V22.475ZM179.223 7.355H190.458V9.805H179.223V7.355ZM184.193 0.599999H186.573V32.765H184.193V0.599999ZM184.018 8.93L185.558 9.56C185.278 10.9367 184.928 12.3717 184.508 13.865C184.088 15.335 183.621 16.7933 183.108 18.24C182.595 19.6867 182.046 21.04 181.463 22.3C180.903 23.5367 180.32 24.5983 179.713 25.485C179.643 25.2283 179.526 24.9483 179.363 24.645C179.2 24.3183 179.025 24.0033 178.838 23.7C178.675 23.3967 178.511 23.14 178.348 22.93C178.931 22.16 179.503 21.2267 180.063 20.13C180.623 19.0333 181.148 17.855 181.638 16.595C182.151 15.3117 182.606 14.0167 183.003 12.71C183.423 11.4033 183.761 10.1433 184.018 8.93ZM186.468 11.485C186.655 11.7183 186.946 12.1383 187.343 12.745C187.763 13.3283 188.195 13.9817 188.638 14.705C189.105 15.405 189.525 16.0583 189.898 16.665C190.295 17.2717 190.575 17.7033 190.738 17.96L189.128 19.815C188.941 19.395 188.673 18.8467 188.323 18.17C187.973 17.4933 187.6 16.7817 187.203 16.035C186.83 15.2883 186.456 14.6 186.083 13.97C185.71 13.34 185.418 12.85 185.208 12.5L186.468 11.485ZM239.165 10.015H253.445V12.465H239.165V10.015ZM221.665 8.16H239.34V10.4H221.665V8.16ZM222.82 15.685H238.255V17.925H222.82V15.685ZM223.73 21.495H237.52V23.7H223.73V21.495ZM247.495 0.705H250.05V29.51C250.05 30.3267 249.934 30.945 249.7 31.365C249.49 31.785 249.129 32.1 248.615 32.31C248.102 32.52 247.402 32.6483 246.515 32.695C245.652 32.765 244.497 32.8 243.05 32.8C243.027 32.5667 242.957 32.2983 242.84 31.995C242.724 31.715 242.607 31.4233 242.49 31.12C242.374 30.8167 242.245 30.5483 242.105 30.315C243.179 30.3383 244.135 30.35 244.975 30.35C245.839 30.35 246.399 30.3383 246.655 30.315C246.982 30.315 247.204 30.2567 247.32 30.14C247.437 30.0233 247.495 29.825 247.495 29.545V0.705ZM240.11 16.035L242.35 15.265C242.864 16.105 243.33 17.0033 243.75 17.96C244.194 18.9167 244.579 19.85 244.905 20.76C245.232 21.67 245.454 22.4867 245.57 23.21L243.19 24.085C243.074 23.3617 242.864 22.545 242.56 21.635C242.257 20.7017 241.895 19.745 241.475 18.765C241.055 17.785 240.6 16.875 240.11 16.035ZM222.12 2.805L223.8 1.72C224.454 2.42 225.095 3.20166 225.725 4.065C226.379 4.905 226.845 5.65167 227.125 6.305L225.375 7.495C225.072 6.84167 224.617 6.07167 224.01 5.185C223.404 4.29833 222.774 3.505 222.12 2.805ZM224.71 11.485L226.6 10.505C227.137 11.0883 227.674 11.7533 228.21 12.5C228.747 13.2467 229.12 13.9117 229.33 14.495L227.37 15.615C227.16 15.0317 226.799 14.355 226.285 13.585C225.772 12.815 225.247 12.115 224.71 11.485ZM227.02 0.634998H229.19V9H227.02V0.634998ZM229.295 16.42H231.745V29.055H229.295V16.42ZM231.85 0.634998H234.02V9H231.85V0.634998ZM221.665 28.775C223.112 28.6117 224.792 28.4133 226.705 28.18C228.619 27.9467 230.649 27.69 232.795 27.41C234.942 27.1067 237.077 26.8267 239.2 26.57L239.27 28.88C237.217 29.16 235.152 29.4517 233.075 29.755C230.999 30.035 229.015 30.3033 227.125 30.56C225.235 30.8167 223.532 31.05 222.015 31.26L221.665 28.775ZM237.24 1.755L239.34 2.91C238.71 3.72667 238.045 4.555 237.345 5.395C236.669 6.235 236.039 6.95833 235.455 7.565L233.81 6.55C234.184 6.13 234.58 5.64 235 5.08C235.444 4.52 235.852 3.94833 236.225 3.365C236.622 2.75833 236.96 2.22166 237.24 1.755ZM234.3 10.61L236.61 11.45C236.12 12.3833 235.619 13.34 235.105 14.32C234.592 15.3 234.102 16.1283 233.635 16.805L231.675 16.07C231.955 15.5567 232.259 14.985 232.585 14.355C232.935 13.725 233.262 13.0833 233.565 12.43C233.869 11.7533 234.114 11.1467 234.3 10.61ZM256.665 4.275H272.45V6.55H256.665V4.275ZM259.185 24.33H286.135V26.5H259.185V24.33ZM257.015 29.755H288.13V31.995H257.015V29.755ZM271.19 19.99H273.85V30.91H271.19V19.99ZM262.895 1.23L265.24 0.564999C265.614 1.265 265.975 2.035 266.325 2.875C266.675 3.715 266.932 4.42667 267.095 5.01L264.68 5.85C264.517 5.22 264.26 4.47333 263.91 3.61C263.584 2.74667 263.245 1.95333 262.895 1.23ZM259.815 5.255H262.23V12.92C262.23 13.4567 262.3 13.83 262.44 14.04C262.58 14.25 262.895 14.355 263.385 14.355C263.572 14.355 263.922 14.355 264.435 14.355C264.949 14.355 265.509 14.355 266.115 14.355C266.722 14.355 267.282 14.355 267.795 14.355C268.309 14.355 268.67 14.355 268.88 14.355C269.254 14.355 269.685 14.3433 270.175 14.32C270.689 14.2733 271.097 14.2267 271.4 14.18C271.447 14.5067 271.494 14.8917 271.54 15.335C271.587 15.7783 271.634 16.14 271.68 16.42C271.424 16.5133 271.039 16.5717 270.525 16.595C270.012 16.6183 269.487 16.63 268.95 16.63C268.717 16.63 268.332 16.63 267.795 16.63C267.259 16.63 266.675 16.63 266.045 16.63C265.415 16.63 264.855 16.63 264.365 16.63C263.875 16.63 263.549 16.63 263.385 16.63C262.452 16.63 261.729 16.5133 261.215 16.28C260.702 16.0233 260.34 15.6267 260.13 15.09C259.92 14.53 259.815 13.7833 259.815 12.85V5.255ZM284.42 17.54L285.75 19.64C284.117 19.9667 282.25 20.2583 280.15 20.515C278.074 20.7483 275.892 20.9583 273.605 21.145C271.319 21.3083 269.009 21.4367 266.675 21.53C264.342 21.6233 262.09 21.6933 259.92 21.74C259.897 21.4133 259.827 21.04 259.71 20.62C259.594 20.2 259.477 19.8617 259.36 19.605C261.53 19.5583 263.77 19.4767 266.08 19.36C268.39 19.2433 270.665 19.1033 272.905 18.94C275.145 18.7533 277.257 18.5433 279.24 18.31C281.224 18.0767 282.95 17.82 284.42 17.54ZM275.46 6.13L276.895 5.045C277.759 5.535 278.657 6.095 279.59 6.725C280.524 7.33167 281.41 7.93833 282.25 8.545C283.114 9.12833 283.825 9.65333 284.385 10.12L282.915 11.38C282.355 10.9133 281.655 10.3767 280.815 9.77C279.975 9.14 279.077 8.51 278.12 7.88C277.187 7.22667 276.3 6.64333 275.46 6.13ZM272.73 8.685L274.375 7.81C275.029 8.41667 275.705 9.09333 276.405 9.84C277.129 10.5867 277.817 11.31 278.47 12.01C279.124 12.71 279.649 13.3167 280.045 13.83L278.295 14.915C277.922 14.3783 277.42 13.7483 276.79 13.025C276.16 12.3017 275.484 11.5667 274.76 10.82C274.06 10.05 273.384 9.33833 272.73 8.685ZM277.385 0.634998L279.94 1.055C279.124 2.68833 278.085 4.33333 276.825 5.99C275.565 7.62333 274.025 9.14 272.205 10.54C271.995 10.26 271.704 9.95667 271.33 9.63C270.98 9.28 270.654 9.02333 270.35 8.86C272.054 7.67 273.489 6.34 274.655 4.87C275.845 3.37666 276.755 1.965 277.385 0.634998ZM286.135 2.945H286.66L287.15 2.875L288.69 3.435C288.06 6.39833 287.034 8.84833 285.61 10.785C284.21 12.7217 282.507 14.2617 280.5 15.405C278.517 16.525 276.3 17.3883 273.85 17.995C273.734 17.6683 273.547 17.3067 273.29 16.91C273.057 16.5133 272.824 16.1867 272.59 15.93C274.807 15.4867 276.837 14.7633 278.68 13.76C280.547 12.7567 282.122 11.415 283.405 9.735C284.712 8.03167 285.622 5.90833 286.135 3.365V2.945ZM277.945 2.945H286.73V5.08H276.055L277.945 2.945ZM293.135 30V27.34H298.875V8.195H294.29V6.165C295.434 5.955 296.425 5.69833 297.265 5.395C298.129 5.09167 298.91 4.74167 299.61 4.345H302.06V27.34H307.205V30H293.135ZM320.004 30.455C318.791 30.455 317.659 30.1983 316.609 29.685C315.559 29.1483 314.649 28.355 313.879 27.305C313.109 26.2317 312.503 24.9017 312.059 23.315C311.639 21.7283 311.429 19.8733 311.429 17.75C311.429 15.2533 311.686 13.1183 312.199 11.345C312.713 9.57167 313.413 8.13667 314.299 7.04C315.186 5.94333 316.201 5.15 317.344 4.66C318.488 4.14667 319.678 3.89 320.914 3.89C322.244 3.89 323.399 4.135 324.379 4.625C325.359 5.115 326.211 5.745 326.934 6.515L325.114 8.475C324.624 7.86833 324.018 7.39 323.294 7.04C322.571 6.69 321.824 6.515 321.054 6.515C319.841 6.515 318.733 6.87667 317.729 7.6C316.726 8.3 315.921 9.46667 315.314 11.1C314.731 12.7333 314.439 14.95 314.439 17.75C314.439 19.9433 314.649 21.7983 315.069 23.315C315.513 24.8317 316.143 25.9867 316.959 26.78C317.799 27.55 318.814 27.935 320.004 27.935C320.844 27.935 321.579 27.69 322.209 27.2C322.863 26.71 323.376 26.0333 323.749 25.17C324.146 24.2833 324.344 23.2683 324.344 22.125C324.344 20.9583 324.169 19.955 323.819 19.115C323.493 18.2517 322.991 17.5983 322.314 17.155C321.638 16.6883 320.774 16.455 319.724 16.455C318.908 16.455 318.021 16.7233 317.064 17.26C316.108 17.7733 315.198 18.6717 314.334 19.955L314.229 17.435C314.766 16.735 315.361 16.14 316.014 15.65C316.668 15.1367 317.356 14.7517 318.079 14.495C318.826 14.215 319.549 14.075 320.249 14.075C321.696 14.075 322.944 14.3783 323.994 14.985C325.068 15.5683 325.896 16.455 326.479 17.645C327.086 18.835 327.389 20.3283 327.389 22.125C327.389 23.7817 327.051 25.24 326.374 26.5C325.698 27.7367 324.799 28.705 323.679 29.405C322.583 30.105 321.358 30.455 320.004 30.455ZM338.088 30.455C336.758 30.455 335.58 30.2917 334.553 29.965C333.55 29.6383 332.663 29.2067 331.893 28.67C331.123 28.1333 330.458 27.55 329.898 26.92L331.543 24.855C332.29 25.625 333.165 26.3133 334.168 26.92C335.195 27.5033 336.432 27.795 337.878 27.795C338.905 27.795 339.803 27.6083 340.573 27.235C341.367 26.8383 341.985 26.29 342.428 25.59C342.872 24.8667 343.093 24.015 343.093 23.035C343.093 22.0083 342.837 21.11 342.323 20.34C341.833 19.57 341.005 18.975 339.838 18.555C338.672 18.1117 337.097 17.89 335.113 17.89V15.44C336.887 15.44 338.287 15.23 339.313 14.81C340.34 14.3667 341.075 13.7717 341.518 13.025C341.985 12.2783 342.218 11.45 342.218 10.54C342.218 9.30333 341.833 8.32333 341.063 7.6C340.293 6.85333 339.232 6.48 337.878 6.48C336.852 6.48 335.883 6.71333 334.973 7.18C334.087 7.64667 333.282 8.24167 332.558 8.965L330.843 6.935C331.823 6.04833 332.885 5.325 334.028 4.765C335.195 4.18167 336.513 3.89 337.983 3.89C339.43 3.89 340.713 4.14667 341.833 4.66C342.977 5.15 343.863 5.87333 344.493 6.83C345.147 7.78666 345.473 8.94167 345.473 10.295C345.473 11.8583 345.053 13.1533 344.213 14.18C343.373 15.2067 342.277 15.965 340.923 16.455V16.63C341.927 16.8633 342.837 17.2717 343.653 17.855C344.47 18.4383 345.123 19.1733 345.613 20.06C346.103 20.9467 346.348 21.9733 346.348 23.14C346.348 24.6567 345.975 25.9633 345.228 27.06C344.482 28.1567 343.49 28.9967 342.253 29.58C341.017 30.1633 339.628 30.455 338.088 30.455ZM369.647 20.41L372.167 19.29C373.124 20.55 374.104 21.9033 375.107 23.35C376.111 24.7733 377.044 26.1617 377.907 27.515C378.794 28.8683 379.517 30.07 380.077 31.12L377.417 32.555C376.904 31.505 376.204 30.2683 375.317 28.845C374.454 27.4217 373.521 25.975 372.517 24.505C371.537 23.035 370.581 21.67 369.647 20.41ZM359.392 1.615L362.227 2.525C361.411 4.43833 360.442 6.31667 359.322 8.16C358.226 10.0033 357.047 11.7183 355.787 13.305C354.527 14.8917 353.232 16.2917 351.902 17.505C351.762 17.3183 351.541 17.0967 351.237 16.84C350.957 16.56 350.666 16.2917 350.362 16.035C350.082 15.755 349.826 15.545 349.592 15.405C350.899 14.285 352.159 13.0017 353.372 11.555C354.609 10.085 355.741 8.51 356.767 6.83C357.794 5.12667 358.669 3.38833 359.392 1.615ZM354.002 31.085C353.932 30.875 353.839 30.595 353.722 30.245C353.606 29.9183 353.477 29.5683 353.337 29.195C353.197 28.8217 353.057 28.5067 352.917 28.25C353.407 28.1333 353.909 27.8067 354.422 27.27C354.959 26.7333 355.554 26.045 356.207 25.205C356.581 24.8083 357.106 24.155 357.782 23.245C358.482 22.3117 359.264 21.2033 360.127 19.92C360.991 18.6367 361.854 17.26 362.717 15.79C363.604 14.32 364.409 12.8383 365.132 11.345L368.072 12.605C366.906 14.6817 365.669 16.735 364.362 18.765C363.056 20.795 361.702 22.7317 360.302 24.575C358.926 26.395 357.537 28.0283 356.137 29.475V29.545C356.137 29.545 356.021 29.6033 355.787 29.72C355.577 29.8133 355.332 29.93 355.052 30.07C354.772 30.2333 354.527 30.3967 354.317 30.56C354.107 30.7467 354.002 30.9217 354.002 31.085ZM354.002 31.085L353.932 28.845L355.857 27.795L376.507 26.605C376.554 27.0017 376.636 27.445 376.752 27.935C376.892 28.425 376.997 28.8217 377.067 29.125C373.777 29.335 370.954 29.5217 368.597 29.685C366.241 29.8483 364.246 29.9767 362.612 30.07C361.002 30.1867 359.684 30.2917 358.657 30.385C357.631 30.4783 356.814 30.56 356.207 30.63C355.601 30.7 355.134 30.77 354.807 30.84C354.481 30.91 354.212 30.9917 354.002 31.085ZM369.787 1.475H372.902C373.486 3.31833 374.244 5.115 375.177 6.865C376.111 8.59167 377.184 10.1667 378.397 11.59C379.611 12.99 380.906 14.145 382.282 15.055C382.072 15.2417 381.839 15.4867 381.582 15.79C381.326 16.07 381.069 16.3617 380.812 16.665C380.579 16.9683 380.381 17.26 380.217 17.54C378.817 16.4667 377.487 15.16 376.227 13.62C374.991 12.08 373.882 10.4 372.902 8.58C371.922 6.76 371.129 4.905 370.522 3.015H369.787V1.475ZM364.362 1.475H372.062V4.17H364.362V1.475ZM396.982 2.245H416.442V4.52H396.982V2.245ZM401.217 15.265V18.66H412.732V15.265H401.217ZM401.217 20.62V24.085H412.732V20.62H401.217ZM401.217 9.945V13.305H412.732V9.945H401.217ZM398.732 7.915H415.322V26.115H398.732V7.915ZM405.487 3.33L408.497 3.75C408.194 4.75333 407.856 5.78 407.482 6.83C407.132 7.88 406.806 8.77833 406.502 9.525L404.122 9.035C404.402 8.24167 404.671 7.30833 404.927 6.235C405.184 5.13833 405.371 4.17 405.487 3.33ZM402.442 26.71L404.717 28.18C403.971 28.7633 403.096 29.3467 402.092 29.93C401.089 30.49 400.039 31.015 398.942 31.505C397.846 31.995 396.784 32.415 395.757 32.765C395.571 32.485 395.314 32.1583 394.987 31.785C394.661 31.435 394.357 31.1433 394.077 30.91C395.104 30.5833 396.142 30.1983 397.192 29.755C398.266 29.2883 399.269 28.7867 400.202 28.25C401.136 27.7133 401.882 27.2 402.442 26.71ZM408.252 28.285L410.247 26.85C411.041 27.2467 411.881 27.7017 412.767 28.215C413.654 28.7283 414.506 29.2533 415.322 29.79C416.139 30.3033 416.816 30.7817 417.352 31.225L415.252 32.835C414.762 32.3917 414.121 31.9017 413.327 31.365C412.534 30.8283 411.694 30.2917 410.807 29.755C409.921 29.195 409.069 28.705 408.252 28.285ZM387.252 27.55L386.972 25.135L388.022 24.12L397.227 20.375C397.251 20.7017 397.297 21.0867 397.367 21.53C397.461 21.9733 397.531 22.335 397.577 22.615C395.454 23.525 393.739 24.2717 392.432 24.855C391.149 25.4383 390.157 25.8933 389.457 26.22C388.781 26.5467 388.279 26.8033 387.952 26.99C387.649 27.1767 387.416 27.3633 387.252 27.55ZM387.602 1.72H390.157V25.03L387.252 27.515C387.159 27.305 387.042 27.06 386.902 26.78C386.762 26.4767 386.599 26.185 386.412 25.905C386.249 25.6017 386.097 25.3567 385.957 25.17C386.284 25.03 386.634 24.7617 387.007 24.365C387.404 23.9683 387.602 23.4433 387.602 22.79V1.72ZM388.967 10.225H397.297V12.5H388.967V10.225ZM423.442 2.455L425.822 1.51C426.382 2.32667 426.931 3.20167 427.467 4.135C428.027 5.06833 428.529 5.99 428.972 6.9C429.439 7.78667 429.777 8.58 429.987 9.28L427.467 10.365C427.257 9.665 426.942 8.86 426.522 7.95C426.102 7.04 425.624 6.10667 425.087 5.15C424.551 4.17 424.002 3.27167 423.442 2.455ZM445.562 1.405L448.327 2.385C447.861 3.27167 447.347 4.205 446.787 5.185C446.251 6.165 445.702 7.09833 445.142 7.985C444.606 8.87167 444.081 9.665 443.567 10.365L441.257 9.455C441.747 8.755 442.249 7.93833 442.762 7.005C443.299 6.04833 443.812 5.08 444.302 4.1C444.792 3.12 445.212 2.22166 445.562 1.405ZM422.427 11.94H449.447V14.53H422.427V11.94ZM420.152 20.165H451.477V22.79H420.152V20.165ZM434.327 0.564999H437.057V32.73H434.327V0.564999ZM458.057 2.28H460.682V13.865C460.682 15.2883 460.636 16.8283 460.542 18.485C460.449 20.1417 460.262 21.8333 459.982 23.56C459.726 25.2633 459.329 26.92 458.792 28.53C458.279 30.1167 457.567 31.5633 456.657 32.87C456.517 32.73 456.307 32.5667 456.027 32.38C455.747 32.1933 455.456 32.0067 455.152 31.82C454.872 31.6333 454.616 31.505 454.382 31.435C455.222 30.175 455.887 28.81 456.377 27.34C456.867 25.8467 457.229 24.3183 457.462 22.755C457.696 21.1917 457.847 19.6517 457.917 18.135C458.011 16.6183 458.057 15.195 458.057 13.865V2.28ZM459.772 2.28H484.552V10.435H459.772V8.125H481.787V4.555H459.772V2.28ZM461.207 22.335H486.442V24.61H461.207V22.335ZM462.117 15.265H485.462V17.505H462.117V15.265ZM477.132 15.93H479.722V32.835H477.132V15.93ZM467.612 16H470.167V21.005C470.167 22.0783 470.086 23.1633 469.922 24.26C469.759 25.3567 469.421 26.4183 468.907 27.445C468.394 28.4717 467.636 29.44 466.632 30.35C465.629 31.26 464.276 32.1 462.572 32.87C462.479 32.66 462.327 32.4383 462.117 32.205C461.907 31.9717 461.686 31.7267 461.452 31.47C461.242 31.2367 461.032 31.05 460.822 30.91C462.362 30.2567 463.576 29.5333 464.462 28.74C465.372 27.9467 466.049 27.1183 466.492 26.255C466.959 25.3683 467.262 24.4817 467.402 23.595C467.542 22.7083 467.612 21.8217 467.612 20.935V16ZM465.477 11.555L467.892 10.82C468.242 11.31 468.616 11.8817 469.012 12.535C469.432 13.165 469.759 13.7017 469.992 14.145L467.542 15.055C467.332 14.5883 467.029 14.0283 466.632 13.375C466.236 12.7217 465.851 12.115 465.477 11.555ZM479.162 10.715L481.927 11.52C481.344 12.43 480.726 13.3633 480.072 14.32C479.442 15.2767 478.859 16.0933 478.322 16.77L476.362 16.035C476.689 15.545 477.027 14.985 477.377 14.355C477.727 13.725 478.066 13.095 478.392 12.465C478.719 11.8117 478.976 11.2283 479.162 10.715ZM504.397 0.984998H507.127V28.705H504.397V0.984998ZM516.857 7.845H519.552V32.66H516.857V7.845ZM492.077 7.88H494.772V27.41H518.222V30.07H492.077V7.88ZM123.995 53.985H126.725V81.705H123.995V53.985ZM136.455 60.845H139.15V85.66H136.455V60.845ZM111.675 60.88H114.37V80.41H137.82V83.07H111.675V60.88ZM159.485 64.135H162.04V73.41H159.485V64.135ZM154.585 56.645H165.785V59.025H153.395L154.585 56.645ZM164.945 56.645H165.575L166.1 56.505L167.815 57.73C167.255 58.6167 166.601 59.5383 165.855 60.495C165.131 61.4283 164.361 62.315 163.545 63.155C162.751 63.9717 161.981 64.695 161.235 65.325C161.048 65.0683 160.791 64.8 160.465 64.52C160.161 64.2167 159.893 63.9717 159.66 63.785C160.336 63.225 161.013 62.56 161.69 61.79C162.366 60.9967 162.985 60.2033 163.545 59.41C164.128 58.6167 164.595 57.8817 164.945 57.205V56.645ZM148.845 63.295H151.4V80.2C151.4 80.9 151.505 81.4367 151.715 81.81C151.948 82.1833 152.391 82.44 153.045 82.58C153.698 82.72 154.666 82.79 155.95 82.79C156.323 82.79 156.953 82.79 157.84 82.79C158.726 82.79 159.741 82.79 160.885 82.79C162.028 82.79 163.171 82.79 164.315 82.79C165.481 82.79 166.543 82.79 167.5 82.79C168.456 82.79 169.168 82.79 169.635 82.79C170.801 82.79 171.665 82.65 172.225 82.37C172.808 82.09 173.216 81.5417 173.45 80.725C173.706 79.9083 173.905 78.73 174.045 77.19C174.395 77.4 174.815 77.5983 175.305 77.785C175.795 77.9717 176.226 78.1 176.6 78.17C176.436 79.5233 176.226 80.6667 175.97 81.6C175.713 82.51 175.34 83.2217 174.85 83.735C174.383 84.2717 173.73 84.645 172.89 84.855C172.05 85.0883 170.976 85.205 169.67 85.205C169.436 85.205 168.97 85.205 168.27 85.205C167.593 85.205 166.776 85.205 165.82 85.205C164.886 85.205 163.895 85.205 162.845 85.205C161.818 85.205 160.826 85.205 159.87 85.205C158.936 85.205 158.131 85.205 157.455 85.205C156.778 85.205 156.335 85.205 156.125 85.205C154.281 85.205 152.823 85.065 151.75 84.785C150.7 84.5283 149.953 84.0267 149.51 83.28C149.066 82.5567 148.845 81.5183 148.845 80.165V63.295ZM155.25 53.495L157.665 54.37C156.755 56.12 155.658 57.8117 154.375 59.445C153.091 61.0783 151.715 62.5833 150.245 63.96C148.775 65.3367 147.27 66.5383 145.73 67.565C145.66 67.3783 145.531 67.1333 145.345 66.83C145.181 66.5267 144.995 66.2117 144.785 65.885C144.598 65.5583 144.423 65.3017 144.26 65.115C145.706 64.2283 147.118 63.1783 148.495 61.965C149.871 60.7517 151.143 59.4333 152.31 58.01C153.476 56.5633 154.456 55.0583 155.25 53.495ZM150.7 63.295H173.03V75.93H170.405V65.78H150.7V63.295ZM150.7 71.835H171.665V74.355H150.7V71.835ZM182.62 62.35H193.54V64.765H182.62V62.35ZM182.585 55.455H195.15V71.975H182.585V69.595H192.525V57.8H182.585V55.455ZM181.29 84.75L181.045 82.37L182.235 81.285L192.455 77.96C192.548 78.31 192.653 78.695 192.77 79.115C192.91 79.535 193.038 79.885 193.155 80.165C190.681 81.0283 188.698 81.7283 187.205 82.265C185.735 82.8017 184.603 83.2217 183.81 83.525C183.016 83.8283 182.445 84.0617 182.095 84.225C181.745 84.4117 181.476 84.5867 181.29 84.75ZM188.92 74.845L191.125 73.76C191.755 74.7167 192.385 75.7433 193.015 76.84C193.645 77.9367 194.228 78.9983 194.765 80.025C195.301 81.0517 195.733 81.9617 196.06 82.755L193.68 84.05C193.376 83.2567 192.956 82.335 192.42 81.285C191.906 80.2117 191.335 79.115 190.705 77.995C190.098 76.8517 189.503 75.8017 188.92 74.845ZM181.29 84.75C181.22 84.4933 181.126 84.19 181.01 83.84C180.893 83.5133 180.753 83.1983 180.59 82.895C180.45 82.5683 180.31 82.3 180.17 82.09C180.473 81.9267 180.8 81.6817 181.15 81.355C181.5 81.005 181.675 80.4917 181.675 79.815V55.455H184.3V82.37C184.3 82.37 184.195 82.4167 183.985 82.51C183.798 82.6033 183.553 82.7433 183.25 82.93C182.946 83.0933 182.643 83.2683 182.34 83.455C182.036 83.665 181.78 83.875 181.57 84.085C181.383 84.3183 181.29 84.54 181.29 84.75ZM207.295 55.665H209.885V75.86C209.885 76.56 209.791 77.12 209.605 77.54C209.441 77.96 209.115 78.275 208.625 78.485C208.135 78.695 207.481 78.835 206.665 78.905C205.848 78.9517 204.798 78.9633 203.515 78.94C203.491 78.59 203.398 78.1817 203.235 77.715C203.095 77.225 202.931 76.7933 202.745 76.42C203.631 76.4433 204.436 76.4667 205.16 76.49C205.906 76.49 206.396 76.4783 206.63 76.455C206.886 76.455 207.061 76.4083 207.155 76.315C207.248 76.2217 207.295 76.0583 207.295 75.825V55.665ZM198.335 55.665H208.73V58.115H200.925V85.8H198.335V55.665ZM221.365 60.6V62.84H239.32V60.6H221.365ZM221.365 56.645V58.85H239.32V56.645H221.365ZM218.845 54.86H241.945V64.66H218.845V54.86ZM214.855 66.865H245.83V69.035H214.855V66.865ZM222.17 72.85V76.175H238.655V72.85H222.17ZM219.65 70.89H241.28V78.1H219.65V70.89ZM229.065 77.015H231.725V83.28C231.725 83.91 231.631 84.3883 231.445 84.715C231.258 85.065 230.896 85.31 230.36 85.45C229.87 85.6133 229.205 85.7067 228.365 85.73C227.525 85.7767 226.486 85.8 225.25 85.8C225.203 85.4733 225.098 85.1117 224.935 84.715C224.795 84.3417 224.631 84.0033 224.445 83.7C225.051 83.7233 225.623 83.735 226.16 83.735C226.72 83.7583 227.21 83.7583 227.63 83.735C228.05 83.735 228.33 83.735 228.47 83.735C228.726 83.7117 228.89 83.665 228.96 83.595C229.03 83.525 229.065 83.3967 229.065 83.21V77.015ZM234.7 80.69L236.38 79.15C237.453 79.5233 238.573 79.9667 239.74 80.48C240.906 80.9933 242.015 81.5183 243.065 82.055C244.138 82.5917 245.036 83.105 245.76 83.595L243.975 85.31C243.298 84.8433 242.435 84.33 241.385 83.77C240.358 83.21 239.25 82.6617 238.06 82.125C236.893 81.565 235.773 81.0867 234.7 80.69ZM223.08 79.01L225.46 79.99C224.69 80.6433 223.78 81.2967 222.73 81.95C221.703 82.58 220.641 83.175 219.545 83.735C218.448 84.295 217.398 84.785 216.395 85.205C216.255 85.0417 216.056 84.8317 215.8 84.575C215.566 84.3417 215.333 84.1083 215.1 83.875C214.866 83.6417 214.645 83.455 214.435 83.315C215.461 82.965 216.5 82.5683 217.55 82.125C218.623 81.6583 219.638 81.1683 220.595 80.655C221.551 80.1183 222.38 79.57 223.08 79.01ZM228.05 65.29L230.36 64.52C230.756 64.9633 231.118 65.4767 231.445 66.06C231.795 66.62 232.051 67.1217 232.215 67.565L229.765 68.475C229.648 68.0317 229.426 67.5067 229.1 66.9C228.773 66.2933 228.423 65.7567 228.05 65.29ZM262.525 76.42L261.755 74.565C263.178 73.9583 264.263 73.2117 265.01 72.325C265.78 71.415 266.165 70.295 266.165 68.965L265.535 66.025L267.425 68.685C267.168 68.9883 266.876 69.1983 266.55 69.315C266.223 69.4083 265.896 69.455 265.57 69.455C264.846 69.455 264.228 69.245 263.715 68.825C263.201 68.405 262.945 67.7867 262.945 66.97C262.945 66.13 263.201 65.5 263.715 65.08C264.251 64.66 264.881 64.45 265.605 64.45C266.585 64.45 267.32 64.8233 267.81 65.57C268.323 66.2933 268.58 67.2617 268.58 68.475C268.58 70.365 268.031 71.9983 266.935 73.375C265.838 74.7517 264.368 75.7667 262.525 76.42ZM289.055 55.98H312.015V85.24H309.215V58.605H291.75V85.415H289.055V55.98ZM290.875 68.09H310.405V70.68H290.875V68.09ZM290.805 80.515H310.44V83.14H290.805V80.515ZM334.485 70.645H337.18V85.8H334.485V70.645ZM328.85 65.815V69.245H342.115V65.815H328.85ZM326.33 63.82H344.775V71.24H326.33V63.82ZM323.215 74.145H346.63V76.525H325.84V84.225H323.215V74.145ZM345.335 74.145H347.995V81.495C347.995 82.1717 347.901 82.6967 347.715 83.07C347.551 83.4667 347.19 83.77 346.63 83.98C346.07 84.1667 345.335 84.2717 344.425 84.295C343.515 84.3417 342.383 84.365 341.03 84.365C340.96 84.015 340.831 83.6183 340.645 83.175C340.481 82.7317 340.306 82.335 340.12 81.985C340.82 82.0083 341.473 82.0317 342.08 82.055C342.71 82.055 343.246 82.055 343.69 82.055C344.133 82.055 344.448 82.055 344.635 82.055C344.915 82.0083 345.101 81.95 345.195 81.88C345.288 81.81 345.335 81.67 345.335 81.46V74.145ZM334.275 53.565H336.935V59.97H334.275V53.565ZM320.905 59.025H350.13V66.55H347.54V61.335H323.425V66.55H320.905V59.025ZM323.775 54.895L326.155 53.915C326.715 54.545 327.263 55.245 327.8 56.015C328.36 56.785 328.791 57.45 329.095 58.01L326.61 59.2C326.353 58.5933 325.945 57.8817 325.385 57.065C324.848 56.2483 324.311 55.525 323.775 54.895ZM344.6 53.88L347.33 54.825C346.746 55.5717 346.14 56.33 345.51 57.1C344.88 57.8467 344.308 58.4883 343.795 59.025L341.625 58.15C341.975 57.7767 342.325 57.3333 342.675 56.82C343.048 56.3067 343.398 55.7933 343.725 55.28C344.075 54.7433 344.366 54.2767 344.6 53.88ZM358.88 66.725H367.56V69.175H358.88V66.725ZM366.545 66.725H369.1C369.1 66.725 369.1 66.795 369.1 66.935C369.1 67.0517 369.088 67.2033 369.065 67.39C369.065 67.5767 369.065 67.7283 369.065 67.845C369.018 70.4583 368.948 72.5817 368.855 74.215C368.785 75.825 368.68 77.05 368.54 77.89C368.423 78.73 368.236 79.3133 367.98 79.64C367.7 79.9667 367.396 80.2 367.07 80.34C366.766 80.48 366.37 80.585 365.88 80.655C365.413 80.7017 364.806 80.725 364.06 80.725C363.313 80.7017 362.508 80.6667 361.645 80.62C361.621 80.2467 361.54 79.8383 361.4 79.395C361.283 78.9283 361.12 78.52 360.91 78.17C361.703 78.2633 362.45 78.3217 363.15 78.345C363.85 78.345 364.34 78.345 364.62 78.345C364.876 78.345 365.086 78.3217 365.25 78.275C365.436 78.2283 365.6 78.1233 365.74 77.96C365.903 77.75 366.031 77.2833 366.125 76.56C366.241 75.8133 366.323 74.6933 366.37 73.2C366.44 71.6833 366.498 69.665 366.545 67.145V66.725ZM376.38 55.35L377.955 53.74C378.701 54.09 379.471 54.51 380.265 55C381.081 55.4667 381.84 55.945 382.54 56.435C383.24 56.9017 383.823 57.3333 384.29 57.73L382.645 59.55C382.201 59.13 381.63 58.675 380.93 58.185C380.23 57.6717 379.483 57.17 378.69 56.68C377.896 56.19 377.126 55.7467 376.38 55.35ZM381.42 64.835L384.045 65.5C382.551 70.0733 380.51 74.04 377.92 77.4C375.33 80.76 372.25 83.5017 368.68 85.625C368.54 85.4383 368.353 85.205 368.12 84.925C367.886 84.6683 367.641 84.4 367.385 84.12C367.151 83.8633 366.941 83.6417 366.755 83.455C370.301 81.5883 373.3 79.08 375.75 75.93C378.2 72.7567 380.09 69.0583 381.42 64.835ZM359.09 59.55H386.18V62.105H359.09V59.55ZM357.375 59.55H360.105V69.42C360.105 70.6567 360.058 71.9983 359.965 73.445C359.871 74.8917 359.696 76.3617 359.44 77.855C359.183 79.3483 358.81 80.8067 358.32 82.23C357.83 83.63 357.176 84.9017 356.36 86.045C356.22 85.8583 356.01 85.6483 355.73 85.415C355.473 85.1817 355.193 84.96 354.89 84.75C354.61 84.54 354.365 84.3883 354.155 84.295C355.135 82.8483 355.846 81.2617 356.29 79.535C356.756 77.8083 357.048 76.07 357.165 74.32C357.305 72.5467 357.375 70.9017 357.375 69.385V59.55ZM371.935 53.635H374.665C374.641 56.8783 374.758 59.9583 375.015 62.875C375.271 65.7917 375.633 68.475 376.1 70.925C376.566 73.3517 377.126 75.4633 377.78 77.26C378.456 79.0333 379.191 80.41 379.985 81.39C380.801 82.37 381.653 82.86 382.54 82.86C383.053 82.86 383.426 82.37 383.66 81.39C383.916 80.3867 384.091 78.7183 384.185 76.385C384.488 76.665 384.85 76.945 385.27 77.225C385.713 77.505 386.11 77.7033 386.46 77.82C386.296 79.8267 386.063 81.39 385.76 82.51C385.48 83.63 385.06 84.4117 384.5 84.855C383.963 85.3217 383.24 85.555 382.33 85.555C381.163 85.555 380.09 85.1583 379.11 84.365C378.13 83.5717 377.255 82.4517 376.485 81.005C375.738 79.5583 375.085 77.855 374.525 75.895C373.965 73.9117 373.486 71.73 373.09 69.35C372.716 66.97 372.436 64.4617 372.25 61.825C372.063 59.165 371.958 56.435 371.935 53.635ZM403.505 64.695H420.34V67.075H403.505V64.695ZM402.35 57.765H421.565V60.18H402.35V57.765ZM402.42 71.31H421.425V73.725H402.42V71.31ZM410.47 53.565H413.095V65.64H410.47V53.565ZM414.67 67.88H417.26V82.72C417.26 83.4433 417.166 83.9917 416.98 84.365C416.793 84.7617 416.455 85.065 415.965 85.275C415.451 85.4617 414.798 85.5783 414.005 85.625C413.235 85.6717 412.266 85.695 411.1 85.695C411.053 85.345 410.936 84.9367 410.75 84.47C410.586 84.0267 410.411 83.6183 410.225 83.245C411.111 83.2683 411.905 83.28 412.605 83.28C413.328 83.3033 413.806 83.3033 414.04 83.28C414.296 83.28 414.46 83.245 414.53 83.175C414.623 83.105 414.67 82.9533 414.67 82.72V67.88ZM404.485 76.14L406.48 75.09C406.97 75.58 407.483 76.1517 408.02 76.805C408.58 77.435 409.093 78.0533 409.56 78.66C410.026 79.2433 410.388 79.7683 410.645 80.235L408.58 81.495C408.323 81.005 407.961 80.4567 407.495 79.85C407.028 79.22 406.526 78.5783 405.99 77.925C405.476 77.2717 404.975 76.6767 404.485 76.14ZM390.765 64.17H401.02V66.27H390.765V64.17ZM390.765 68.79H401.02V70.855H390.765V68.79ZM389.33 59.55H402.21V61.72H389.33V59.55ZM391.92 73.445H401.265V83.665H391.92V81.46H398.92V75.65H391.92V73.445ZM390.765 73.445H393.075V85.345H390.765V73.445ZM393.285 54.51L395.28 53.46C395.816 54.16 396.33 54.93 396.82 55.77C397.333 56.61 397.73 57.345 398.01 57.975L395.875 59.2C395.618 58.57 395.233 57.8117 394.72 56.925C394.23 56.015 393.751 55.21 393.285 54.51Z" fill="white"/>
</svg>
