<svg width="654" height="76" viewBox="0 0 654 76" fill="none" xmlns="http://www.w3.org/2000/svg">
<path d="M30.4628 25.4112C32.8628 25.1446 34.7828 25.1979 36.2228 25.5712C37.7161 25.9446 38.7561 26.4779 39.3428 27.1712C39.9828 27.8646 40.2761 28.6112 40.2228 29.4112C40.2228 30.2112 39.9561 30.9312 39.4228 31.5712C38.9428 32.1579 38.2761 32.5579 37.4228 32.7712C36.5695 32.9312 35.6095 32.7446 34.5428 32.2112C34.2228 31.0379 33.5828 29.8646 32.6228 28.6912C31.7161 27.5179 30.7828 26.6379 29.8228 26.0512L30.4628 25.4112ZM46.0628 58.2112C51.0228 58.5312 55.0495 59.2246 58.1428 60.2912C61.2895 61.3046 63.6628 62.4779 65.2628 63.8112C66.9161 65.1446 67.9295 66.5046 68.3028 67.8912C68.7295 69.2246 68.7028 70.3979 68.2228 71.4113C67.7961 72.4246 67.0495 73.1179 65.9828 73.4913C64.9695 73.8646 63.7961 73.7046 62.4628 73.0113C61.7161 71.7846 60.5428 70.3712 58.9428 68.7713C57.3961 67.1712 55.5028 65.5446 53.2628 63.8912C51.0228 62.1846 48.4895 60.6646 45.6628 59.3312L46.0628 58.2112ZM27.5828 60.8512C27.3695 61.2246 27.0495 61.5179 26.6228 61.7312C26.1961 61.9446 25.5295 61.9712 24.6228 61.8112C23.0228 63.3046 20.9695 64.8246 18.4628 66.3712C16.0095 67.8646 13.3161 69.2246 10.3828 70.4513C7.50281 71.6779 4.54281 72.6646 1.50281 73.4113L0.862813 72.4513C3.20948 71.1179 5.50281 69.5446 7.74281 67.7312C9.98281 65.8646 12.0095 63.9446 13.8228 61.9712C15.6895 59.9979 17.1828 58.1579 18.3028 56.4512L27.5828 60.8512ZM40.2228 66.0512C40.2228 67.7579 39.9828 69.2513 39.5028 70.5313C39.0761 71.8646 38.1428 72.9046 36.7028 73.6513C35.2628 74.4513 33.0761 74.9846 30.1428 75.2513C30.0895 74.1313 29.9561 73.1446 29.7428 72.2913C29.5295 71.4379 29.1561 70.7713 28.6228 70.2913C28.0895 69.7579 27.3428 69.2779 26.3828 68.8513C25.4761 68.4246 24.1161 68.1046 22.3028 67.8912V66.7712C22.3028 66.7712 22.6761 66.7979 23.4228 66.8512C24.1695 66.9046 25.0495 66.9579 26.0628 67.0112C27.0761 67.0646 28.0628 67.1179 29.0228 67.1712C29.9828 67.2246 30.6495 67.2512 31.0228 67.2512C31.6628 67.2512 32.0895 67.1446 32.3028 66.9312C32.5161 66.7179 32.6228 66.3712 32.6228 65.8913V51.8112H40.2228V66.0512ZM65.0228 27.0112C65.0228 27.0112 65.2895 27.2246 65.8228 27.6512C66.3561 28.0246 67.0228 28.5312 67.8228 29.1712C68.6761 29.8112 69.5295 30.5046 70.3828 31.2512C71.2895 31.9979 72.1161 32.7179 72.8628 33.4112C72.6495 34.2646 71.9295 34.6912 70.7028 34.6912H0.942813L0.222813 32.3712H60.7828L65.0228 27.0112ZM22.3028 55.1712C22.3028 55.3846 21.9561 55.6779 21.2628 56.0512C20.6228 56.4246 19.7961 56.7712 18.7828 57.0912C17.7695 57.3579 16.7561 57.4912 15.7428 57.4912H14.7028V40.2112V36.9312L22.7828 40.2112H54.8628V42.5312H22.3028V55.1712ZM50.0628 40.2112L53.7428 36.1312L61.9028 42.2112C61.6361 42.4779 61.2095 42.7712 60.6228 43.0912C60.0361 43.4112 59.3428 43.6512 58.5428 43.8112V54.9312C58.5428 55.0912 58.1695 55.3312 57.4228 55.6512C56.7295 55.9179 55.8761 56.1846 54.8628 56.4512C53.9028 56.6646 52.9961 56.7713 52.1428 56.7713H50.8628V40.2112H50.0628ZM54.3828 51.5712V53.8912H17.5828V51.5712H54.3828ZM20.3028 26.9312C20.3028 27.1446 19.9828 27.4646 19.3428 27.8912C18.7028 28.2646 17.8761 28.6112 16.8628 28.9312C15.9028 29.1979 14.9161 29.3312 13.9028 29.3312H12.7828V5.57125V2.29124L20.8628 5.57125H56.7028V7.89125H20.3028V26.9312ZM52.1428 5.57125L55.9028 1.49125L63.9028 7.57125C63.6895 7.89125 63.2895 8.21125 62.7028 8.53125C62.1161 8.85125 61.4228 9.09125 60.6228 9.25125V26.1312C60.6228 26.2912 60.2495 26.5312 59.5028 26.8512C58.8095 27.1179 57.9561 27.3846 56.9428 27.6512C55.9828 27.9179 55.0761 28.0512 54.2228 28.0512H52.9428V5.57125H52.1428ZM56.3028 22.6112V24.9312H16.7028V22.6112H56.3028ZM56.3028 14.0512V16.3712H16.7028V14.0512H56.3028ZM102.943 35.8112C102.676 36.5579 101.849 37.0646 100.463 37.3312V72.9313C100.463 73.1446 100.143 73.4113 99.5028 73.7313C98.8628 74.1046 98.0628 74.4246 97.1028 74.6913C96.1961 75.0113 95.2361 75.1713 94.2228 75.1713H92.7028V37.4912L95.9828 33.2512L102.943 35.8112ZM131.823 23.8112C131.769 24.3446 131.556 24.7979 131.183 25.1712C130.863 25.4912 130.223 25.7312 129.263 25.8912V69.5713H121.503V22.8512L131.823 23.8112ZM119.583 3.89125C119.423 4.37125 119.129 4.74458 118.703 5.01125C118.276 5.27791 117.529 5.43791 116.463 5.49125C115.023 9.54458 113.209 13.7312 111.023 18.0512C108.889 22.3712 106.329 26.6112 103.343 30.7712C100.356 34.9312 96.8895 38.8246 92.9428 42.4512C88.9961 46.0779 84.5161 49.2512 79.5028 51.9712L78.7028 51.1712C82.7028 47.9179 86.2761 44.2912 89.4228 40.2912C92.6228 36.2379 95.4228 31.9712 97.8228 27.4912C100.276 23.0112 102.356 18.5046 104.063 13.9712C105.769 9.43791 107.103 5.06458 108.063 0.851249L119.583 3.89125ZM144.863 62.2912C144.863 62.2912 145.129 62.5312 145.663 63.0112C146.249 63.4379 146.996 63.9979 147.903 64.6912C148.809 65.3846 149.743 66.1312 150.703 66.9312C151.716 67.7312 152.649 68.5046 153.503 69.2513C153.289 70.1046 152.543 70.5313 151.263 70.5313H102.783L102.143 68.2112H140.143L144.863 62.2912ZM140.063 35.8912C140.063 35.8912 140.329 36.1046 140.863 36.5312C141.449 36.9579 142.169 37.5179 143.023 38.2112C143.876 38.8512 144.756 39.5446 145.663 40.2912C146.569 41.0379 147.396 41.7846 148.143 42.5312C148.089 42.9579 147.876 43.2779 147.503 43.4912C147.129 43.7046 146.649 43.8112 146.063 43.8112H106.303L105.663 41.4912H135.663L140.063 35.8912ZM143.503 10.7712C143.503 10.7712 143.796 11.0112 144.383 11.4912C144.969 11.9712 145.716 12.5846 146.623 13.3312C147.529 14.0246 148.489 14.7979 149.503 15.6512C150.569 16.4512 151.529 17.2246 152.383 17.9712C152.169 18.8246 151.423 19.2512 150.143 19.2512H81.5828L80.8628 16.9312H138.543L143.503 10.7712ZM170.543 21.8112L172.463 22.9312V67.5712H173.023L170.303 71.3313L161.583 66.6112C162.063 66.0779 162.729 65.5179 163.583 64.9312C164.489 64.3446 165.289 63.9179 165.983 63.6512L164.543 66.5312V21.8112H170.543ZM175.503 20.4512C175.396 21.0379 175.129 21.5179 174.703 21.8912C174.276 22.2646 173.529 22.5312 172.463 22.6912V25.4112H164.543V20.6912V19.3312L175.503 20.4512ZM230.943 20.3712C230.836 20.9046 230.569 21.3846 230.143 21.8112C229.769 22.1846 229.049 22.4512 227.983 22.6112V72.7713C227.983 73.0379 227.663 73.3579 227.023 73.7313C226.383 74.1579 225.556 74.5313 224.543 74.8513C223.529 75.1713 222.489 75.3313 221.423 75.3313H219.983V19.2512L230.943 20.3712ZM203.023 3.73125C202.916 4.26458 202.649 4.74458 202.223 5.17125C201.849 5.54458 201.129 5.81125 200.063 5.97124V66.4512H191.983V2.61125L203.023 3.73125ZM223.823 65.2512V67.5712H167.983V65.2512H223.823ZM267.183 53.6512V59.3312H259.743V56.1312L267.183 53.6512ZM268.943 1.01125C271.823 1.17125 274.089 1.59791 275.743 2.29124C277.396 2.98458 278.543 3.78458 279.183 4.69125C279.876 5.59791 280.143 6.50458 279.983 7.41125C279.876 8.26458 279.476 9.01125 278.783 9.65125C278.089 10.2379 277.236 10.5579 276.223 10.6112C275.209 10.6646 274.143 10.3179 273.023 9.57125C272.756 8.18458 272.143 6.74458 271.183 5.25125C270.223 3.70458 269.236 2.47791 268.223 1.57125L268.943 1.01125ZM258.143 68.1312C259.423 67.8646 261.236 67.4646 263.583 66.9312C265.983 66.3446 268.649 65.6779 271.583 64.9312C274.569 64.1312 277.636 63.3046 280.783 62.4512L281.023 63.5712C279.689 64.3179 277.956 65.3046 275.823 66.5312C273.689 67.7046 271.316 68.9846 268.703 70.3713C266.089 71.8113 263.369 73.2779 260.543 74.7713L258.143 68.1312ZM265.343 57.0112L267.183 58.0512V67.1712L259.743 70.1313L262.223 67.4912C262.916 69.5713 262.943 71.2513 262.303 72.5313C261.663 73.8646 260.996 74.7446 260.303 75.1713L255.743 68.3712C257.449 67.3579 258.543 66.6112 259.023 66.1312C259.503 65.5979 259.743 65.0112 259.743 64.3712V57.0112H265.343ZM307.663 55.4912C307.396 55.8646 307.049 56.1312 306.623 56.2912C306.196 56.3979 305.556 56.3446 304.703 56.1312C302.623 57.0912 300.036 58.1046 296.943 59.1712C293.849 60.2379 290.863 61.1446 287.983 61.8912L287.103 60.8512C288.543 59.8912 290.036 58.7446 291.583 57.4112C293.183 56.0779 294.676 54.7446 296.063 53.4112C297.449 52.0779 298.569 50.9046 299.423 49.8912L307.663 55.4912ZM279.903 17.4112V48.5312H272.543V17.4112H279.903ZM297.023 31.5712V33.8912H255.903V31.5712H297.023ZM297.023 23.9712V26.2913H255.903V23.9712H297.023ZM292.783 16.3712L296.303 12.4512L303.983 18.2112C303.769 18.4779 303.396 18.7712 302.863 19.0912C302.329 19.3579 301.716 19.5446 301.023 19.6512V34.9312C301.023 35.0912 300.649 35.3312 299.903 35.6512C299.209 35.9712 298.383 36.2646 297.423 36.5312C296.463 36.7979 295.583 36.9312 294.783 36.9312H293.583V16.3712H292.783ZM259.183 35.9712C259.183 36.1846 258.863 36.4779 258.223 36.8512C257.583 37.2246 256.783 37.5712 255.823 37.8912C254.916 38.1579 253.956 38.2912 252.943 38.2912H251.823V16.3712V13.1712L259.663 16.3712H296.943V18.6912H259.183V35.9712ZM278.063 47.6512C279.449 50.9579 281.263 53.7579 283.503 56.0512C285.796 58.2912 288.463 60.1579 291.503 61.6512C294.543 63.1446 297.929 64.3179 301.663 65.1712C305.396 65.9712 309.369 66.5846 313.583 67.0112V67.8912C312.089 68.3179 310.836 69.1179 309.823 70.2913C308.863 71.4646 308.169 72.9579 307.743 74.7713C303.689 73.8113 300.009 72.6379 296.703 71.2513C293.449 69.8646 290.543 68.1579 287.983 66.1312C285.476 64.1046 283.289 61.6512 281.423 58.7712C279.609 55.8379 278.116 52.3446 276.943 48.2912L278.063 47.6512ZM280.063 48.8512C277.076 51.5179 273.476 53.8646 269.263 55.8912C265.103 57.9179 260.489 59.6512 255.423 61.0912C250.409 62.5312 245.156 63.7046 239.663 64.6112L239.183 63.3312C245.529 61.5712 251.396 59.3046 256.783 56.5312C262.223 53.7579 266.649 50.7712 270.063 47.5712H280.063V48.8512ZM300.463 34.9312C300.463 34.9312 300.889 35.2246 301.743 35.8112C302.596 36.3979 303.609 37.1179 304.783 37.9712C306.009 38.7712 307.103 39.5979 308.063 40.4512C307.903 41.3046 307.209 41.7312 305.983 41.7312H246.383L245.743 39.4112H296.383L300.463 34.9312ZM305.183 42.0512C305.183 42.0512 305.609 42.3446 306.463 42.9312C307.316 43.5179 308.356 44.2646 309.583 45.1712C310.809 46.0246 311.929 46.8779 312.943 47.7312C312.729 48.5846 312.009 49.0112 310.783 49.0112H241.743L241.103 46.6912H300.943L305.183 42.0512ZM303.983 3.97125C303.983 3.97125 304.249 4.21125 304.783 4.69125C305.369 5.11791 306.063 5.67792 306.863 6.37125C307.716 7.06458 308.623 7.81125 309.583 8.61125C310.543 9.41125 311.396 10.1579 312.143 10.8512C311.929 11.7046 311.183 12.1312 309.903 12.1312H241.423L240.783 9.81125H299.583L303.983 3.97125ZM369.737 0.931248C372.884 0.98458 375.364 1.35791 377.177 2.05125C378.991 2.74458 380.271 3.59792 381.017 4.61125C381.817 5.62458 382.191 6.66458 382.137 7.73125C382.084 8.74458 381.711 9.62458 381.017 10.3712C380.377 11.1179 379.524 11.5712 378.457 11.7312C377.391 11.8912 376.244 11.5979 375.017 10.8512C374.751 9.09125 374.031 7.35792 372.857 5.65125C371.737 3.89125 370.484 2.50458 369.097 1.49125L369.737 0.931248ZM401.817 11.7312L405.977 7.57125L413.417 14.6112C413.097 14.8779 412.697 15.0646 412.217 15.1712C411.791 15.2779 411.177 15.3579 410.377 15.4112C409.311 16.5846 407.951 17.8646 406.297 19.2512C404.697 20.5846 403.177 21.7046 401.737 22.6112L400.937 22.0512C401.151 21.0912 401.364 19.9712 401.577 18.6912C401.844 17.4112 402.084 16.1579 402.297 14.9312C402.511 13.6512 402.644 12.5846 402.697 11.7312H401.817ZM350.057 7.57125C351.071 10.5046 351.524 13.1179 351.417 15.4112C351.311 17.7046 350.831 19.6246 349.977 21.1712C349.177 22.7179 348.217 23.8646 347.097 24.6112C346.351 25.0912 345.524 25.3846 344.617 25.4912C343.711 25.5979 342.857 25.4646 342.057 25.0912C341.311 24.7179 340.751 24.1312 340.377 23.3313C339.951 22.1579 340.031 21.1179 340.617 20.2112C341.204 19.2512 342.031 18.5046 343.097 17.9712C344.111 17.4379 345.044 16.6646 345.897 15.6512C346.804 14.5846 347.524 13.3579 348.057 11.9712C348.644 10.5846 348.884 9.11791 348.777 7.57125H350.057ZM405.897 11.7312V14.0512H348.857V11.7312H405.897ZM407.977 34.3712C407.657 34.7446 407.284 34.9846 406.857 35.0912C406.431 35.1446 405.791 35.0379 404.937 34.7712C402.804 35.8912 400.244 37.0379 397.257 38.2112C394.271 39.3846 391.124 40.5046 387.817 41.5712C384.511 42.6379 381.257 43.5712 378.057 44.3712L377.337 43.3312C379.951 41.8912 382.671 40.2646 385.497 38.4512C388.324 36.5846 390.964 34.7179 393.417 32.8512C395.924 30.9312 397.977 29.2246 399.577 27.7312L407.977 34.3712ZM385.657 38.9312C387.151 43.0912 389.311 46.7179 392.137 49.8112C395.017 52.9046 398.324 55.5179 402.057 57.6512C405.791 59.7312 409.711 61.4379 413.817 62.7712L413.657 63.6512C410.511 64.1846 408.377 66.3446 407.257 70.1313C403.471 68.0512 400.084 65.5979 397.097 62.7712C394.111 59.9446 391.551 56.6379 389.417 52.8512C387.337 49.0112 385.684 44.5846 384.457 39.5712L385.657 38.9312ZM381.497 51.3312C378.457 54.1046 374.777 56.7712 370.457 59.3312C366.191 61.8379 361.551 64.0779 356.537 66.0512C351.524 68.0246 346.457 69.6246 341.337 70.8513L340.777 69.5713C345.471 67.8646 350.084 65.6779 354.617 63.0112C359.204 60.3446 363.417 57.3846 367.257 54.1312C371.097 50.8246 374.217 47.4379 376.617 43.9712L381.497 51.3312ZM376.457 41.0912C373.844 43.0646 370.697 45.0646 367.017 47.0912C363.391 49.1179 359.524 50.9846 355.417 52.6912C351.311 54.3979 347.231 55.8112 343.177 56.9312L342.697 55.8112C346.324 54.1579 349.951 52.1579 353.577 49.8112C357.257 47.4646 360.671 44.9312 363.817 42.2112C367.017 39.4379 369.631 36.7446 371.657 34.1312L376.457 41.0912ZM368.377 30.4512C371.897 32.7979 374.777 35.5179 377.017 38.6112C379.311 41.6512 381.017 44.8246 382.137 48.1312C383.311 51.4379 384.004 54.6646 384.217 57.8112C384.431 60.9579 384.244 63.7846 383.657 66.2912C383.071 68.7979 382.164 70.7713 380.937 72.2113C379.977 73.3313 378.617 74.1313 376.857 74.6113C375.097 75.1446 372.937 75.3846 370.377 75.3313C370.324 73.1979 369.711 71.5979 368.537 70.5313C368.057 70.0513 367.204 69.5713 365.977 69.0913C364.751 68.6646 363.364 68.2912 361.817 67.9712L361.737 66.8512C362.857 66.9579 364.111 67.0646 365.497 67.1712C366.937 67.2779 368.297 67.3579 369.577 67.4112C370.857 67.4646 371.817 67.4912 372.457 67.4912C373.044 67.4912 373.524 67.4379 373.897 67.3312C374.271 67.2246 374.564 67.0112 374.777 66.6912C375.524 65.6779 376.084 64.1846 376.457 62.2112C376.831 60.2379 376.964 57.9712 376.857 55.4112C376.751 52.7979 376.351 50.0779 375.657 47.2512C375.017 44.3712 374.004 41.5446 372.617 38.7712C371.284 35.9979 369.577 33.4646 367.497 31.1712L368.377 30.4512ZM380.537 24.4513C377.871 27.2246 374.591 29.8112 370.697 32.2112C366.857 34.6112 362.671 36.7446 358.137 38.6112C353.604 40.4246 348.937 41.9979 344.137 43.3312L343.497 42.2112C347.177 40.6112 350.697 38.7712 354.057 36.6912C357.471 34.5579 360.617 32.3446 363.497 30.0512C366.431 27.7579 368.937 25.4646 371.017 23.1712H380.537V24.4513ZM395.257 17.7312C395.257 17.7312 395.497 17.9446 395.977 18.3712C396.511 18.7979 397.177 19.3312 397.977 19.9712C398.831 20.6112 399.711 21.3312 400.617 22.1312C401.577 22.8779 402.431 23.5712 403.177 24.2112C403.124 24.6379 402.884 24.9579 402.457 25.1712C402.084 25.3846 401.604 25.4912 401.017 25.4912H351.977L351.337 23.1712H390.857L395.257 17.7312ZM443.177 35.8112C442.911 36.5579 442.084 37.0646 440.697 37.3312V72.9313C440.697 73.1446 440.377 73.4113 439.737 73.7313C439.097 74.1046 438.297 74.4246 437.337 74.6913C436.431 75.0113 435.471 75.1713 434.457 75.1713H432.937V37.4912L436.217 33.2512L443.177 35.8112ZM472.057 23.8112C472.004 24.3446 471.791 24.7979 471.417 25.1712C471.097 25.4912 470.457 25.7312 469.497 25.8912V69.5713H461.737V22.8512L472.057 23.8112ZM459.817 3.89125C459.657 4.37125 459.364 4.74458 458.937 5.01125C458.511 5.27791 457.764 5.43791 456.697 5.49125C455.257 9.54458 453.444 13.7312 451.257 18.0512C449.124 22.3712 446.564 26.6112 443.577 30.7712C440.591 34.9312 437.124 38.8246 433.177 42.4512C429.231 46.0779 424.751 49.2512 419.737 51.9712L418.937 51.1712C422.937 47.9179 426.511 44.2912 429.657 40.2912C432.857 36.2379 435.657 31.9712 438.057 27.4912C440.511 23.0112 442.591 18.5046 444.297 13.9712C446.004 9.43791 447.337 5.06458 448.297 0.851249L459.817 3.89125ZM485.097 62.2912C485.097 62.2912 485.364 62.5312 485.897 63.0112C486.484 63.4379 487.231 63.9979 488.137 64.6912C489.044 65.3846 489.977 66.1312 490.937 66.9312C491.951 67.7312 492.884 68.5046 493.737 69.2513C493.524 70.1046 492.777 70.5313 491.497 70.5313H443.017L442.377 68.2112H480.377L485.097 62.2912ZM480.297 35.8912C480.297 35.8912 480.564 36.1046 481.097 36.5312C481.684 36.9579 482.404 37.5179 483.257 38.2112C484.111 38.8512 484.991 39.5446 485.897 40.2912C486.804 41.0379 487.631 41.7846 488.377 42.5312C488.324 42.9579 488.111 43.2779 487.737 43.4912C487.364 43.7046 486.884 43.8112 486.297 43.8112H446.537L445.897 41.4912H475.897L480.297 35.8912ZM483.737 10.7712C483.737 10.7712 484.031 11.0112 484.617 11.4912C485.204 11.9712 485.951 12.5846 486.857 13.3312C487.764 14.0246 488.724 14.7979 489.737 15.6512C490.804 16.4512 491.764 17.2246 492.617 17.9712C492.404 18.8246 491.657 19.2512 490.377 19.2512H421.817L421.097 16.9312H478.777L483.737 10.7712ZM530.697 25.4112C533.097 25.1446 535.017 25.1979 536.457 25.5712C537.951 25.9446 538.991 26.4779 539.577 27.1712C540.217 27.8646 540.511 28.6112 540.457 29.4112C540.457 30.2112 540.191 30.9312 539.657 31.5712C539.177 32.1579 538.511 32.5579 537.657 32.7712C536.804 32.9312 535.844 32.7446 534.777 32.2112C534.457 31.0379 533.817 29.8646 532.857 28.6912C531.951 27.5179 531.017 26.6379 530.057 26.0512L530.697 25.4112ZM546.297 58.2112C551.257 58.5312 555.284 59.2246 558.377 60.2912C561.524 61.3046 563.897 62.4779 565.497 63.8112C567.151 65.1446 568.164 66.5046 568.537 67.8912C568.964 69.2246 568.937 70.3979 568.457 71.4113C568.031 72.4246 567.284 73.1179 566.217 73.4913C565.204 73.8646 564.031 73.7046 562.697 73.0113C561.951 71.7846 560.777 70.3712 559.177 68.7713C557.631 67.1712 555.737 65.5446 553.497 63.8912C551.257 62.1846 548.724 60.6646 545.897 59.3312L546.297 58.2112ZM527.817 60.8512C527.604 61.2246 527.284 61.5179 526.857 61.7312C526.431 61.9446 525.764 61.9712 524.857 61.8112C523.257 63.3046 521.204 64.8246 518.697 66.3712C516.244 67.8646 513.551 69.2246 510.617 70.4513C507.737 71.6779 504.777 72.6646 501.737 73.4113L501.097 72.4513C503.444 71.1179 505.737 69.5446 507.977 67.7312C510.217 65.8646 512.244 63.9446 514.057 61.9712C515.924 59.9979 517.417 58.1579 518.537 56.4512L527.817 60.8512ZM540.457 66.0512C540.457 67.7579 540.217 69.2513 539.737 70.5313C539.311 71.8646 538.377 72.9046 536.937 73.6513C535.497 74.4513 533.311 74.9846 530.377 75.2513C530.324 74.1313 530.191 73.1446 529.977 72.2913C529.764 71.4379 529.391 70.7713 528.857 70.2913C528.324 69.7579 527.577 69.2779 526.617 68.8513C525.711 68.4246 524.351 68.1046 522.537 67.8912V66.7712C522.537 66.7712 522.911 66.7979 523.657 66.8512C524.404 66.9046 525.284 66.9579 526.297 67.0112C527.311 67.0646 528.297 67.1179 529.257 67.1712C530.217 67.2246 530.884 67.2512 531.257 67.2512C531.897 67.2512 532.324 67.1446 532.537 66.9312C532.751 66.7179 532.857 66.3712 532.857 65.8913V51.8112H540.457V66.0512ZM565.257 27.0112C565.257 27.0112 565.524 27.2246 566.057 27.6512C566.591 28.0246 567.257 28.5312 568.057 29.1712C568.911 29.8112 569.764 30.5046 570.617 31.2512C571.524 31.9979 572.351 32.7179 573.097 33.4112C572.884 34.2646 572.164 34.6912 570.937 34.6912H501.177L500.457 32.3712H561.017L565.257 27.0112ZM522.537 55.1712C522.537 55.3846 522.191 55.6779 521.497 56.0512C520.857 56.4246 520.031 56.7712 519.017 57.0912C518.004 57.3579 516.991 57.4912 515.977 57.4912H514.937V40.2112V36.9312L523.017 40.2112H555.097V42.5312H522.537V55.1712ZM550.297 40.2112L553.977 36.1312L562.137 42.2112C561.871 42.4779 561.444 42.7712 560.857 43.0912C560.271 43.4112 559.577 43.6512 558.777 43.8112V54.9312C558.777 55.0912 558.404 55.3312 557.657 55.6512C556.964 55.9179 556.111 56.1846 555.097 56.4512C554.137 56.6646 553.231 56.7713 552.377 56.7713H551.097V40.2112H550.297ZM554.617 51.5712V53.8912H517.817V51.5712H554.617ZM520.537 26.9312C520.537 27.1446 520.217 27.4646 519.577 27.8912C518.937 28.2646 518.111 28.6112 517.097 28.9312C516.137 29.1979 515.151 29.3312 514.137 29.3312H513.017V5.57125V2.29124L521.097 5.57125H556.937V7.89125H520.537V26.9312ZM552.377 5.57125L556.137 1.49125L564.137 7.57125C563.924 7.89125 563.524 8.21125 562.937 8.53125C562.351 8.85125 561.657 9.09125 560.857 9.25125V26.1312C560.857 26.2912 560.484 26.5312 559.737 26.8512C559.044 27.1179 558.191 27.3846 557.177 27.6512C556.217 27.9179 555.311 28.0512 554.457 28.0512H553.177V5.57125H552.377ZM556.537 22.6112V24.9312H516.937V22.6112H556.537ZM556.537 14.0512V16.3712H516.937V14.0512H556.537ZM607.417 53.6512V59.3312H599.977V56.1312L607.417 53.6512ZM609.177 1.01125C612.057 1.17125 614.324 1.59791 615.977 2.29124C617.631 2.98458 618.777 3.78458 619.417 4.69125C620.111 5.59791 620.377 6.50458 620.217 7.41125C620.111 8.26458 619.711 9.01125 619.017 9.65125C618.324 10.2379 617.471 10.5579 616.457 10.6112C615.444 10.6646 614.377 10.3179 613.257 9.57125C612.991 8.18458 612.377 6.74458 611.417 5.25125C610.457 3.70458 609.471 2.47791 608.457 1.57125L609.177 1.01125ZM598.377 68.1312C599.657 67.8646 601.471 67.4646 603.817 66.9312C606.217 66.3446 608.884 65.6779 611.817 64.9312C614.804 64.1312 617.871 63.3046 621.017 62.4512L621.257 63.5712C619.924 64.3179 618.191 65.3046 616.057 66.5312C613.924 67.7046 611.551 68.9846 608.937 70.3713C606.324 71.8113 603.604 73.2779 600.777 74.7713L598.377 68.1312ZM605.577 57.0112L607.417 58.0512V67.1712L599.977 70.1313L602.457 67.4912C603.151 69.5713 603.177 71.2513 602.537 72.5313C601.897 73.8646 601.231 74.7446 600.537 75.1713L595.977 68.3712C597.684 67.3579 598.777 66.6112 599.257 66.1312C599.737 65.5979 599.977 65.0112 599.977 64.3712V57.0112H605.577ZM647.897 55.4912C647.631 55.8646 647.284 56.1312 646.857 56.2912C646.431 56.3979 645.791 56.3446 644.937 56.1312C642.857 57.0912 640.271 58.1046 637.177 59.1712C634.084 60.2379 631.097 61.1446 628.217 61.8912L627.337 60.8512C628.777 59.8912 630.271 58.7446 631.817 57.4112C633.417 56.0779 634.911 54.7446 636.297 53.4112C637.684 52.0779 638.804 50.9046 639.657 49.8912L647.897 55.4912ZM620.137 17.4112V48.5312H612.777V17.4112H620.137ZM637.257 31.5712V33.8912H596.137V31.5712H637.257ZM637.257 23.9712V26.2913H596.137V23.9712H637.257ZM633.017 16.3712L636.537 12.4512L644.217 18.2112C644.004 18.4779 643.631 18.7712 643.097 19.0912C642.564 19.3579 641.951 19.5446 641.257 19.6512V34.9312C641.257 35.0912 640.884 35.3312 640.137 35.6512C639.444 35.9712 638.617 36.2646 637.657 36.5312C636.697 36.7979 635.817 36.9312 635.017 36.9312H633.817V16.3712H633.017ZM599.417 35.9712C599.417 36.1846 599.097 36.4779 598.457 36.8512C597.817 37.2246 597.017 37.5712 596.057 37.8912C595.151 38.1579 594.191 38.2912 593.177 38.2912H592.057V16.3712V13.1712L599.897 16.3712H637.177V18.6912H599.417V35.9712ZM618.297 47.6512C619.684 50.9579 621.497 53.7579 623.737 56.0512C626.031 58.2912 628.697 60.1579 631.737 61.6512C634.777 63.1446 638.164 64.3179 641.897 65.1712C645.631 65.9712 649.604 66.5846 653.817 67.0112V67.8912C652.324 68.3179 651.071 69.1179 650.057 70.2913C649.097 71.4646 648.404 72.9579 647.977 74.7713C643.924 73.8113 640.244 72.6379 636.937 71.2513C633.684 69.8646 630.777 68.1579 628.217 66.1312C625.711 64.1046 623.524 61.6512 621.657 58.7712C619.844 55.8379 618.351 52.3446 617.177 48.2912L618.297 47.6512ZM620.297 48.8512C617.311 51.5179 613.711 53.8646 609.497 55.8912C605.337 57.9179 600.724 59.6512 595.657 61.0912C590.644 62.5312 585.391 63.7046 579.897 64.6112L579.417 63.3312C585.764 61.5712 591.631 59.3046 597.017 56.5312C602.457 53.7579 606.884 50.7712 610.297 47.5712H620.297V48.8512ZM640.697 34.9312C640.697 34.9312 641.124 35.2246 641.977 35.8112C642.831 36.3979 643.844 37.1179 645.017 37.9712C646.244 38.7712 647.337 39.5979 648.297 40.4512C648.137 41.3046 647.444 41.7312 646.217 41.7312H586.617L585.977 39.4112H636.617L640.697 34.9312ZM645.417 42.0512C645.417 42.0512 645.844 42.3446 646.697 42.9312C647.551 43.5179 648.591 44.2646 649.817 45.1712C651.044 46.0246 652.164 46.8779 653.177 47.7312C652.964 48.5846 652.244 49.0112 651.017 49.0112H581.977L581.337 46.6912H641.177L645.417 42.0512ZM644.217 3.97125C644.217 3.97125 644.484 4.21125 645.017 4.69125C645.604 5.11791 646.297 5.67792 647.097 6.37125C647.951 7.06458 648.857 7.81125 649.817 8.61125C650.777 9.41125 651.631 10.1579 652.377 10.8512C652.164 11.7046 651.417 12.1312 650.137 12.1312H581.657L581.017 9.81125H639.817L644.217 3.97125Z" fill="white"/>
</svg>
