<svg xmlns="http://www.w3.org/2000/svg" version="1.1" viewBox="0 0 652 321">
  <path d="M210,121.1c0,49.1-39.8,88.9-88.9,88.9s-88.9-39.8-88.9-88.9S72,32.2,121.1,32.2s88.9,39.8,88.9,88.9ZM363.4,139.6c-42.6,0-77.1,34.5-77.1,77.1s34.5,77.1,77.1,77.1,77.1-34.5,77.1-77.1-34.5-77.1-77.1-77.1ZM581,49c-28.8,0-52.2,23.4-52.2,52.2s23.4,52.2,52.2,52.2,52.2-23.4,52.2-52.2-23.4-52.2-52.2-52.2Z" fill="#fff" style="filter:drop-shadow(0px 0px 3px #fff) drop-shadow(0px 0px 2px #fff) drop-shadow(0px 0px 1px #fff);" />
  <path d="M240.2,121.1c0,65.8-53.3,119.1-119.1,119.1S2,186.9,2,121.1,55.3,2,121.1,2s119.1,53.3,119.1,119.1ZM363.4,113.3c-57.1,0-103.3,46.3-103.3,103.3s46.3,103.3,103.3,103.3,103.3-46.3,103.3-103.3-46.3-103.3-103.3-103.3ZM581,31.2c-38.6,0-70,31.3-70,70s31.3,70,70,70,70-31.3,70-70-31.3-70-70-70ZM264,188.4l-35.8-15.3M461.6,184.6l65.5-38.8" fill="none" stroke="#fff" stroke-miterlimit="10" stroke-width="2"/>
  <path d="M580.4,97.1c0,3.3-1.2,6.1-3.5,8.3-2.4,2.2-5.3,3.4-8.7,3.4s-6.5-1.3-8.8-3.9l1.3-1.2c2,2.6,4.4,3.9,7.2,3.9s4.7-1,6.4-3c1.7-2,2.5-4.5,2.5-7.5s-.9-5.5-2.7-7.3c-1.6-1.7-3.6-2.6-6-2.6s-5.6.9-7.5,2.6l1.8-16.8h15.6v2.6h-14.6l-1.3,11.8c1.9-1.1,4.2-1.7,6.9-1.7s6.1,1.1,8.2,3.2c2.1,2.1,3.2,4.9,3.2,8.2ZM590.7,98.8c0,5-.9,8.4-3,10.5l-.5-.5c1.7-2.6,1.8-5.8,1.8-10.7v-5.1h9c-1.1-.9-2.3-1.9-3.3-2.6l.3-.6c1.3.5,3.2,1.3,4.4,2.1l-.8,1.1h7.3v.8h-15.2v4.9ZM606.2,107.3v.9h-16.2v-.9h7.2v-3h-5.7v-.9h5.7v-9h1.6v9h6v.9h-6v3h7.3ZM597.3,101.3l-1.5.8c-.4-1-1.1-2.3-1.7-3.4-.6,1.6-1.5,3.1-2.6,4.2l-.5-.4c1.2-1.8,2-4.5,2.2-7.3l1.8.4c-.1.8-.3,1.6-.6,2.3,1.1,1,2.2,2.3,2.8,3.4ZM603,95.6c-.1.8-.3,1.6-.5,2.3,1.1,1,2.4,2.4,3.1,3.5l-1.4.8c-.5-1.1-1.2-2.4-1.9-3.5-.5,1.5-1.3,2.8-2.4,4l-.6-.4c1.2-2,1.8-4.4,2-7.1l1.7.4ZM559.5,123.5h5.3v6.5h-1.3v-.9h-2.7v1h-1.3v-6.6ZM563.5,125.9v-1.7h-2.7v1.7h2.7ZM563.5,128.4v-1.9h-2.7v1.9h2.7ZM561.8,117.3h7.4v5h-7.4v-5ZM567.9,119.4v-1.5h-4.8v1.5h4.8ZM567.9,121.6v-1.5h-4.8v1.5h4.8ZM566.1,123.5h5.3v6.5h-1.3v-1h-2.7v1h-1.3v-6.6ZM570.1,125.9v-1.7h-2.7v1.7h2.7ZM570.1,128.4v-1.8h-2.7v1.8h2.7ZM577,117.3h11.9v12.8h-1.3v-.8h-9.2v.8h-1.3v-12.8ZM587.5,128.7v-10.8h-9.2v10.8h9.2ZM578.6,128.2c1-.4,2.2-1.1,2.9-1.8l1.1.7c-1.1.7-2.6,1.3-3.8,1.6l-.2-.5ZM579.2,121.5h7.2v4.8h-7.2v-4.8ZM579.8,118.7h6v2.2h-6v-2.2ZM585.2,122.8v-.7h-4.7v.7h4.7ZM585.2,124.2v-.8h-4.7v.8h4.7ZM585.2,125.6v-.8h-4.7v.8h4.7ZM584.6,120.2v-1h-3.5v1h3.5ZM583.2,126.9l.2-.5c1.2.2,2.8.7,3.6,1.1l-.6,1.1c-.7-.4-2.2-1.2-3.2-1.7ZM606.9,118.8h-11.2v3.3c0,3.8-.5,6.9-1.7,8.1l-.4-.3c.7-1.6.8-2.8.8-8.2v-3.6h6.7c-.8-.4-1.7-.9-2.4-1.2l.2-.5c1.1.2,2.4.4,3.4.9l-.5.8h5.1v.7ZM607.3,128.9l-.9,1.2c-.8-.5-1.4-1.3-1.9-2.2-.8,1.1-1.9,1.9-3.1,2.4l-.3-.4c1.2-.6,2.2-1.6,2.9-3.1-.4-.9-.7-2-.8-3.1-.2.3-.4.6-.6.9l-.3-.2v3.9c0,1-1.2,1.5-3,.6v-.5c1.6.2,1.9,0,1.9-.6v-4.7h-3.6v6.9h-1.1v-7.6h2.4v-3.4h1.2v3.4h2.3v1.6c.8-1.7,1-3.4,1.1-5l1.3.2c0,.6-.2,1.4-.5,2.2h2.8v.7h-.7c0,1.9-.4,3.5-1,4.7.7,1,1.4,1.7,2.1,2.2ZM596.3,119.6l.4-.2c.6.6,1.1,1.6,1.4,2.3l-1,.4c-.2-.7-.5-1.9-.8-2.5ZM599.6,127.2h-.8v.8h-.9v-4.2h2.5v3.9h-.9v-.6ZM599.6,126.5v-2.1h-.8v2.1h.8ZM600.2,122c.4-.6.8-1.6,1.1-2.6l1.2.5c-.6,1-1.3,1.7-1.9,2.3l-.4-.2ZM604.5,125.6c.3-1,.5-2.2.6-3.5h-1.2c0,.3-.2.5-.3.8.2,1,.5,1.9.9,2.7ZM81.4,85.9c-8.7,14.9-13.4,27.4-14.1,37.3h-4.4c.9-4.8,2.6-10.1,5.4-15.9,2.1-4.5,5.5-10.7,10.1-18.7h-19v-2.7h22.1ZM113.1,104.5c0,5.9-1.3,10.6-3.9,14.1-2.4,3.4-5.5,5.1-9.3,5.1s-6.9-1.7-9.3-5.1c-2.6-3.6-3.8-8.3-3.8-14.1s1.3-10.6,3.8-14.2c2.4-3.4,5.6-5.1,9.3-5.1s6.8,1.7,9.3,5.1c2.6,3.6,3.9,8.3,3.9,14.2ZM109.2,104.5c0-5.5-.9-9.9-2.7-13.2-1.7-3.2-3.9-4.8-6.5-4.8s-4.8,1.6-6.6,4.8c-1.8,3.3-2.7,7.7-2.7,13.2s.9,9.8,2.7,13.2c1.7,3.2,3.9,4.8,6.6,4.8s4.8-1.6,6.5-4.8c1.8-3.4,2.7-7.8,2.7-13.2ZM146.2,104.5c0,5.9-1.3,10.6-3.9,14.1-2.4,3.4-5.5,5.1-9.3,5.1s-6.9-1.7-9.3-5.1c-2.6-3.6-3.8-8.3-3.8-14.1s1.3-10.6,3.8-14.2c2.4-3.4,5.6-5.1,9.3-5.1s6.8,1.7,9.3,5.1c2.6,3.6,3.9,8.3,3.9,14.2ZM142.3,104.5c0-5.5-.9-9.9-2.7-13.2-1.7-3.2-3.9-4.8-6.5-4.8s-4.8,1.6-6.6,4.8c-1.8,3.3-2.7,7.7-2.7,13.2s.9,9.8,2.7,13.2c1.7,3.2,3.9,4.8,6.6,4.8s4.8-1.6,6.5-4.8c1.8-3.4,2.7-7.8,2.7-13.2ZM179.3,104.5c0,5.9-1.3,10.6-3.9,14.1-2.4,3.4-5.5,5.1-9.3,5.1s-6.9-1.7-9.3-5.1c-2.6-3.6-3.8-8.3-3.8-14.1s1.3-10.6,3.8-14.2c2.4-3.4,5.6-5.1,9.3-5.1s6.8,1.7,9.3,5.1c2.6,3.6,3.9,8.3,3.9,14.2ZM175.4,104.5c0-5.5-.9-9.9-2.7-13.2-1.7-3.2-3.9-4.8-6.5-4.8s-4.8,1.6-6.6,4.8c-1.8,3.3-2.7,7.7-2.7,13.2s.9,9.8,2.7,13.2c1.7,3.2,3.9,4.8,6.6,4.8s4.8-1.6,6.5-4.8c1.8-3.4,2.7-7.8,2.7-13.2ZM75.8,155.6c-.8-.5-1.5-1.5-1.9-2.9-1.5,1.5-3.1,2.5-4.9,3.3l-.4-.6c1.7-1,3.4-2.4,4.8-4.2-.4-1.9-.6-4.1-.7-6h-7.2v10.8h-1.6v-4.7c-1.4.9-2.9,1.5-4,1.9l-.7-1.7c.4,0,.8-.1,1.2-.2v-11.8h-1.1v-.9h7.3v.9h-1.1v4.8h2c-.3-1.1-.6-2-1-2.9l.6-.4c.7.7,1.5,1.8,1.9,2.8l-1,.4h1.6c.3-1.1.5-1.9.7-3.3l1.7.5c-.5,1.2-.9,2-1.5,2.7h2.2c0-2.3,0-4.6,0-6.8h1.7c0,1.9,0,4.3,0,6.8h3.3v.9h-3.3c0,1.2.1,2.6.3,3.9.5-.9.9-1.8,1.2-2.9l1.6.8c-.8,1.7-1.6,3.1-2.5,4.2.3,1.3.7,2.3,1.2,2.6.5.3.6-.7.6-2.8h.7c.7,3.5.2,5.7-1.8,4.5ZM62,142.3h1.9v-2.8h-1.9v2.8ZM62,146.2h1.9v-3h-1.9v3ZM63.9,150.4v-3.4h-1.9v3.9c.6-.2,1.2-.3,1.9-.5ZM68.8,140.1c-.5-.9-1-1.7-1.5-2.3l.5-.5c.8.4,1.8,1.2,2.7,2.1l-.9.7h2.8v.9h-6.3v-.9h2.8ZM71.9,152.8h-3.8v1.2h-1.6v-7.6h5.4v6.4ZM70.2,147.3h-2.1v1.7h2.1v-1.7ZM70.2,149.9h-2.1v2h2.1v-2ZM76,143.3c-.3-1.3-.7-2.6-1.2-4l.6-.4c.9,1.2,1.6,2.5,2.1,3.8l-1.5.6ZM85.3,153.3v1.8h-1.7v-7.9h1.7v5.2h1.2v-6.8h-3.5v-.9h3.5v-3h-1c-.6,1-1.3,1.9-2.2,2.6l-.5-.5c1.3-1.7,2-3.5,2.5-6.4l1.9.4c-.3,1-.7,2-1.2,2.9h4.9v.9h-2.7v3h3.6v.9h-3.6v6.8h1v-4.8h1.7v5.7h-5.6ZM101.7,153.9l-1.5,1.9c-2.8-1.9-4.1-4.8-4.6-7.8-.7,3.6-2.6,6.4-6.2,8.1l-.4-.6c2.9-1.8,4.3-4.5,4.9-8.1h-3v-.9h3.1c.1-1,.2-2,.2-3.1v-1.4h-2.9v-.9h2.9v-3.7h1.9v3.7h3.8v5.4h1.3v.9h-4.9c.8,3,2.2,4.7,5.4,6.4ZM95.9,146.6h2.2v-4.5h-2.1v1.8c0,.9,0,1.8-.1,2.7ZM112.4,149.6c-.4-.7-.9-1.6-1.4-2.4v8.8h-1.7v-7c-.8,1.5-1.9,3.1-2.7,3.8l-.5-.5c1-1.5,2.1-4.1,2.9-6.7h-2.7v-.9h2.9v-4.7c-.8.1-1.7.3-2.6.4l-.2-.7c2.8-.6,4.5-1.4,5.7-2.1l1.5,1.4c-.8.3-1.7.5-2.6.7v5h2.6v.9h-2.6v.6c1,.7,1.9,1.4,2.7,2.3l-1.3,1.1ZM109,144l-1.5.3c0-.9-.2-2.3-.5-3.4l.6-.2c.6,1,1.2,2.3,1.4,3.2ZM111.4,144c.3-1.3.5-2.4.7-3.7l1.6.5c-.5,1.2-.9,2.3-1.7,3.5l-.6-.3ZM124.7,151.6v.9h-5v3.4h-1.8v-3.4h-5v-.9h5v-1.4h-4v-.9h2.8c-.3-.8-.7-1.6-1.2-2.3l.2-.2h-2.2v-.9h4.4v-1.3h-3.7v-.9h3.7v-1.1h-4.1v-4h10v4h-4.2v1.1h3.7v.9h-3.7v1.3h4.5v.9h-3.1l1.1.4c-.5.8-1,1.5-1.6,2h3.1v.9h-3.9v1.4h5ZM116.8,139.5h-1.3v2.2h1.3v-2.2ZM119.6,149.3c.3-.7.5-1.6.7-2.4h-3.9c.7.6,1.3,1.2,1.9,1.9l-.8.5h2.1ZM118.2,141.7h1.3v-2.2h-1.3v2.2ZM120.9,141.7h1.4v-2.2h-1.4v2.2ZM146.5,147.6v8.3h-1.9v-1.7h-11.4v1.8h-1.9v-8.4h1.9v5.7h4.7v-7.2h-5.6v-6.7h1.8v5.8h3.8v-7.4h1.9v7.4h3.9v-5.8h1.8v6.7h-5.7v7.2h4.8v-5.7h1.9ZM152.9,147.4c0-3.2,1.2-6.7,3.7-9.3h1.1c-2.1,3-2.8,6.3-2.7,9.3,0,3.3.6,6.4,2.8,9.4h-1.1c-2.5-2.5-3.8-6.1-3.8-9.4ZM163,150c.1,2.3-.1,4.5-.6,5.8l-1.9-.8c.8-1.2,1.5-3,1.8-5.1h.7ZM166.7,145.2c1,1.1,2.2,2.6,2.8,3.7l-1.6.9c-.2-.6-.4-1.2-.7-1.9-1.9.7-4.3,1.3-6.1,1.6l-.4-1.9c.5,0,1,0,1.5,0,1-1.1,1.8-2.2,2.7-3.6-1.2.4-2.4.7-3.6.8l-.4-1.7c.4,0,.9,0,1.3,0,.8-1.5,1.6-3.8,2.1-5.7l1.9.6c-.9,1.8-2.1,3.7-3.1,5,.8,0,1.6,0,2.4-.1.4-.8.9-1.6,1.3-2.6l1.8.9c-1.5,2.6-3.6,4.8-5.3,6.3,1.2,0,2.5-.2,3.6-.3-.2-.6-.5-1.1-.7-1.6l.6-.4ZM164.7,149.7c.7,1.6,1.3,3.5,1.6,5l-1.9.3c0-1.4-.2-3.5-.4-5.1l.7-.2ZM166.5,149.1c.9,1,2,2.8,2.6,3.9l-1.7.7c-.3-1.3-.9-3.1-1.5-4.3l.7-.3ZM178,141.4c-.1,6.8-.3,10.5-.6,12.4-.3,2.4-2.6,3.1-6.6.6l.2-.7c3.4.8,4.3.9,4.5-.7.1-1.2.4-4.2.5-10.7h-5.3c-.6,1.2-1.5,2.4-2.5,3.5l-.6-.5c1.6-2.6,2.3-5.1,2.8-7.9l2,.5c-.2.9-.6,2.1-1.3,3.5h6.7ZM172.7,150.3c-.7-1.7-1.6-3.6-2.5-5.3l.6-.4c1.4,1.3,2.9,3.1,3.8,4.7l-1.9,1ZM182.5,156.2c2.2-3,2.8-6.1,2.8-9.4,0-3-.7-6.4-2.7-9.3h1.1c2.5,2.6,3.7,6.1,3.7,9.3s-1.2,6.9-3.8,9.4h-1.1ZM334.6,217.3h-19.6c4-3.3,7.4-7.3,10.3-12.2,2.9-4.9,4.3-9.1,4.3-12.6s-1.9-6.4-5.8-6.4-4.7,1.1-6.7,3.2l-.9-1.2c2-2,4.6-3.1,7.6-3.1s5.4.7,7,2c1.5,1.3,2.3,3,2.3,5.3s-1.2,5.7-3.7,9.8c-2.6,4.4-6,8.7-10.2,12.8h15.4v2.3ZM362.5,201.4c0,5-1.1,9-3.3,12-2.1,2.9-4.7,4.4-7.9,4.4s-5.8-1.4-7.9-4.4c-2.2-3-3.3-7-3.3-12s1.1-9,3.3-12.1c2.1-2.9,4.7-4.3,7.9-4.3s5.8,1.4,7.9,4.3c2.2,3,3.3,7.1,3.3,12.1ZM359.2,201.4c0-4.6-.8-8.4-2.3-11.2-1.5-2.7-3.3-4.1-5.6-4.1s-4.1,1.4-5.6,4.1c-1.5,2.9-2.3,6.6-2.3,11.2s.8,8.4,2.3,11.2c1.5,2.7,3.3,4.1,5.6,4.1s4.1-1.4,5.6-4.1c1.5-2.9,2.3-6.6,2.3-11.2ZM386.3,217.3h-19.6c4-3.3,7.4-7.3,10.3-12.2,2.9-4.9,4.3-9.1,4.3-12.6s-1.9-6.4-5.8-6.4-4.7,1.1-6.7,3.2l-.9-1.2c2-2,4.6-3.1,7.6-3.1s5.4.7,7,2c1.5,1.3,2.3,3,2.3,5.3s-1.2,5.7-3.7,9.8c-2.6,4.4-6,8.7-10.2,12.8h15.4v2.3ZM410.7,185.6c-7.4,12.7-11.4,23.3-12,31.8h-3.7c.7-4,2.3-8.6,4.6-13.5,1.8-3.8,4.6-9.1,8.6-15.9h-16.2v-2.3h18.8ZM326.5,248.5h8.6v1.2h-19.2v-1.2h8.4v-4.1h-6v-1.1h6v-3.7h-5.2v-.6c-1.2.7-2.6,1.3-4,1.8l-.4-.8c4.9-2.3,7.9-5.8,8.9-8.2h-5.4v-1.1h8.2c.9,2.9,4.6,6,9.9,7.6l-1.3,2.4c-1-.4-2.1-1-3.4-1.9v.7h-5.2v3.7h6v1.1h-6v4.1ZM331.2,238.5c-2-1.5-4.1-3.6-5.3-6.4-.9,2.1-3.1,4.5-6.1,6.4h11.4ZM362.4,248.8c-1.2.7-2.2.8-4.3.9-2.9.1-7.1,0-9.9,0-3.6-.1-4.8-.2-4.8-3.9v-14h-1.5v-1.1h19.7v1.1h-16.1v14c0,1.7.2,1.9,2.6,1.9,3,.1,7.1.1,10,0,1.6,0,2.6-.3,3.5-.8l.8,1.7ZM346.9,240h6.1v6.2h-6.1v-6.2ZM348.9,245.2h2.2v-4.3h-2.2v4.3ZM358,238.3h-8.9v-4.9h8.9v4.9ZM356,234.3h-4.9v3h4.9v-3ZM360.7,246.2h-6.3v-6.2h6.3v6.2ZM358.7,241h-2.3v4.3h2.3v-4.3ZM387.2,249.7c-1.3.1-2.8.1-4.1,0-2.3-.2-2.9-.5-2.9-2.6v-5.6h-2.7c-.5,5.4-3.2,7.8-8.6,9.1l-.3-.7c4.8-1.9,6.4-4.2,6.7-8.3h-5.5v-1h18.5v1h-6v5.1c0,1,.2,1.2,1.1,1.3,1,0,2.3,0,3.3,0,1,0,1.2-.6,1.1-3.9h.8c1.3,4.9.4,5.5-1.5,5.7ZM371.4,237.2h-2.1v-4.4h10c-1.2-1.1-2.5-2.1-3.6-2.9l.4-.7c1.4.3,3.2.9,5,2l-1.2,1.6h8.7v4.4h-2.1v-3.3h-15.1v3.3ZM372.7,237.7v-1h12.4v1h-12.4ZM415.8,247.4v1.2h-20.1v-1.2h8.9v-14.2h-7.7v-1.2h17.5v1.2h-7.5v14.2h8.9Z" fill="#376ab2" stroke="#376ab2" stroke-miterlimit="10" stroke-width=".9"/>
</svg>