<svg width="608" height="34" viewBox="0 0 608 34" fill="none" xmlns="http://www.w3.org/2000/svg">
<path d="M0.323301 4.24H31.0533V6.55H0.323301V4.24ZM8.2683 10.435V13.62H23.4233V10.435H8.2683ZM5.6433 8.51H26.1533V15.545H5.6433V8.51ZM1.6183 17.505H29.0933V19.71H4.1383V32.765H1.6183V17.505ZM27.3083 17.505H29.9333V30C29.9333 30.6533 29.84 31.1317 29.6533 31.435C29.4666 31.7617 29.14 32.0183 28.6733 32.205C28.2066 32.3683 27.5883 32.4617 26.8183 32.485C26.0483 32.5083 25.1033 32.52 23.9833 32.52C23.9133 32.2167 23.7966 31.8783 23.6333 31.505C23.47 31.1317 23.3066 30.805 23.1433 30.525C23.6566 30.5483 24.1583 30.56 24.6483 30.56C25.1383 30.56 25.57 30.56 25.9433 30.56C26.3166 30.56 26.5733 30.56 26.7133 30.56C27.11 30.5367 27.3083 30.3617 27.3083 30.035V17.505ZM13.6933 1.09L16.2133 0.494998C16.54 1.21833 16.855 2.02333 17.1583 2.91C17.485 3.79666 17.7183 4.52 17.8583 5.08L15.1633 5.885C15.0233 5.255 14.8016 4.485 14.4983 3.575C14.2183 2.665 13.95 1.83667 13.6933 1.09ZM9.4933 21.775H22.9683V28.985H9.4933V27.025H20.5883V23.735H9.4933V21.775ZM8.0933 21.775H10.5783V30.735H8.0933V21.775ZM35.3233 6.62H49.5683V9.14H35.3233V6.62ZM45.3333 20.585L47.3633 19.955C47.76 21.0983 48.1333 22.3233 48.4833 23.63C48.8566 24.9133 49.195 26.1733 49.4983 27.41C49.825 28.6467 50.07 29.755 50.2333 30.735L48.0633 31.435C47.9233 30.455 47.7016 29.3467 47.3983 28.11C47.1183 26.85 46.7916 25.5667 46.4183 24.26C46.045 22.9533 45.6833 21.7283 45.3333 20.585ZM40.5733 0.564999L43.1283 0.774999C42.7783 4.205 42.3116 7.47167 41.7283 10.575C41.1683 13.655 40.4566 16.5017 39.5933 19.115C38.73 21.705 37.6333 23.98 36.3033 25.94C36.14 25.8233 35.9183 25.6717 35.6383 25.485C35.3816 25.275 35.1133 25.0767 34.8333 24.89C34.5533 24.68 34.3083 24.5167 34.0983 24.4C35.405 22.6033 36.4783 20.4683 37.3183 17.995C38.1583 15.4983 38.835 12.78 39.3483 9.84C39.8616 6.87667 40.27 3.785 40.5733 0.564999ZM38.4733 30.91C38.45 30.7467 38.3916 30.5133 38.2983 30.21C38.205 29.93 38.1 29.6383 37.9833 29.335C37.89 29.0317 37.785 28.7867 37.6683 28.6C37.9716 28.4833 38.2633 28.1683 38.5433 27.655C38.8466 27.1417 39.1733 26.5117 39.5233 25.765C39.71 25.3683 39.9666 24.75 40.2933 23.91C40.6433 23.0467 41.0166 22.02 41.4133 20.83C41.81 19.64 42.195 18.38 42.5683 17.05C42.965 15.72 43.2916 14.39 43.5483 13.06L46.0683 13.69C45.6016 15.5567 45.0416 17.435 44.3883 19.325C43.7583 21.215 43.0816 23.035 42.3583 24.785C41.635 26.5117 40.9 28.075 40.1533 29.475V29.51C40.1533 29.51 40.06 29.5567 39.8733 29.65C39.71 29.7433 39.5233 29.86 39.3133 30C39.1033 30.1633 38.905 30.315 38.7183 30.455C38.555 30.6183 38.4733 30.77 38.4733 30.91ZM38.4733 30.91L38.4033 28.915L39.5933 28.04L47.9583 26.605C48.005 26.9317 48.075 27.2933 48.1683 27.69C48.285 28.0867 48.3783 28.4133 48.4483 28.67C46.4183 29.0667 44.7733 29.3933 43.5133 29.65C42.2766 29.8833 41.32 30.07 40.6433 30.21C39.9666 30.3733 39.4766 30.5017 39.1733 30.595C38.8933 30.7117 38.66 30.8167 38.4733 30.91ZM52.3333 14.39H65.9833V16.665H52.3333V14.39ZM52.3683 21.425H66.0183V23.735H52.3683V21.425ZM52.1933 28.565H66.5083V30.98H52.1933V28.565ZM53.6633 0.739999L55.9733 1.37C55.4366 3.09667 54.8066 4.82333 54.0833 6.55C53.36 8.25333 52.5666 9.86333 51.7033 11.38C50.8633 12.8967 49.9766 14.2383 49.0433 15.405C48.95 15.2417 48.7983 15.0317 48.5883 14.775C48.4016 14.5183 48.2033 14.2617 47.9933 14.005C47.8066 13.7483 47.6316 13.5383 47.4683 13.375C48.775 11.8117 49.965 9.91 51.0383 7.67C52.1116 5.43 52.9866 3.12 53.6633 0.739999ZM53.8733 7.25H66.0533V9.595H53.8733V32.73H51.5283V9.14L53.2783 7.25H53.8733ZM58.8783 8.335H61.2933V29.79H58.8783V8.335ZM57.2333 1.86L59.4733 1.055C59.9633 1.84833 60.4416 2.72333 60.9083 3.68C61.375 4.63667 61.725 5.465 61.9583 6.165L59.6483 7.11C59.4383 6.38666 59.1 5.535 58.6333 4.555C58.1666 3.575 57.7 2.67667 57.2333 1.86ZM75.8533 28.32H95.5583V30.875H75.8533V28.32ZM74.5233 18.03H96.9933V32.695H94.1933V20.55H77.1833V32.765H74.5233V18.03ZM89.2233 5.955L91.2883 4.555C92.4316 5.55833 93.61 6.66667 94.8233 7.88C96.0366 9.09333 97.1566 10.3067 98.1833 11.52C99.21 12.7333 100.027 13.83 100.633 14.81L98.3933 16.42C97.81 15.44 97.0166 14.3317 96.0133 13.095C95.0333 11.8583 93.9366 10.6217 92.7233 9.385C91.5333 8.125 90.3666 6.98167 89.2233 5.955ZM72.6683 15.09C72.645 14.9033 72.575 14.6583 72.4583 14.355C72.3416 14.0283 72.225 13.7017 72.1083 13.375C72.015 13.025 71.91 12.7333 71.7933 12.5C72.19 12.43 72.6216 12.2083 73.0883 11.835C73.555 11.4617 74.08 10.995 74.6633 10.435C74.9666 10.1317 75.4333 9.65333 76.0633 9C76.6933 8.34667 77.3933 7.565 78.1633 6.655C78.9333 5.745 79.715 4.765 80.5083 3.715C81.325 2.64166 82.0833 1.55667 82.7833 0.459999L85.4083 1.615C84.2883 3.155 83.11 4.66 81.8733 6.13C80.66 7.57667 79.4116 8.94167 78.1283 10.225C76.8683 11.485 75.62 12.6283 74.3833 13.655V13.76C74.3833 13.76 74.3016 13.8067 74.1383 13.9C73.975 13.97 73.765 14.075 73.5083 14.215C73.275 14.355 73.0766 14.5067 72.9133 14.67C72.75 14.81 72.6683 14.95 72.6683 15.09ZM72.6683 15.09L72.6333 13.025L74.5933 12.01L96.9583 10.995C96.9816 11.345 97.0166 11.7533 97.0633 12.22C97.1333 12.6867 97.1916 13.06 97.2383 13.34C93.7383 13.5267 90.7166 13.69 88.1733 13.83C85.6533 13.97 83.53 14.0867 81.8033 14.18C80.0766 14.2733 78.665 14.3667 77.5683 14.46C76.4716 14.53 75.6083 14.6 74.9783 14.67C74.3483 14.7167 73.8583 14.775 73.5083 14.845C73.1816 14.915 72.9016 14.9967 72.6683 15.09ZM110.433 3.505H112.988V32.73H110.433V3.505ZM105.008 10.33H116.943V12.78H105.008V10.33ZM110.608 11.415L112.253 12.08C111.903 13.3167 111.472 14.6 110.958 15.93C110.468 17.26 109.92 18.5783 109.313 19.885C108.73 21.1683 108.1 22.3817 107.423 23.525C106.77 24.645 106.117 25.6017 105.463 26.395C105.3 26.045 105.09 25.6367 104.833 25.17C104.577 24.7033 104.332 24.3067 104.098 23.98C104.728 23.28 105.358 22.44 105.988 21.46C106.618 20.48 107.225 19.4183 107.808 18.275C108.415 17.1317 108.952 15.9767 109.418 14.81C109.885 13.62 110.282 12.4883 110.608 11.415ZM115.578 1.09L117.398 3.12C116.372 3.54 115.193 3.925 113.863 4.275C112.533 4.60167 111.157 4.89333 109.733 5.15C108.31 5.38333 106.933 5.58167 105.603 5.745C105.557 5.465 105.452 5.12666 105.288 4.73C105.125 4.33333 104.973 3.995 104.833 3.715C106.093 3.505 107.388 3.27167 108.718 3.015C110.072 2.75833 111.343 2.46666 112.533 2.14C113.747 1.81333 114.762 1.46333 115.578 1.09ZM112.743 14.775C112.953 14.9617 113.28 15.2883 113.723 15.755C114.19 16.1983 114.692 16.6883 115.228 17.225C115.765 17.7617 116.255 18.2633 116.698 18.73C117.142 19.1967 117.445 19.535 117.608 19.745L116.033 21.81C115.823 21.46 115.52 21.0167 115.123 20.48C114.75 19.92 114.33 19.3483 113.863 18.765C113.397 18.1583 112.953 17.5983 112.533 17.085C112.137 16.5483 111.798 16.1283 111.518 15.825L112.743 14.775ZM125.378 0.599999H127.968V11.24H125.378V0.599999ZM117.853 2.525H135.983V4.345H117.853V2.525ZM118.658 6.13H135.073V7.845H118.658V6.13ZM116.803 9.7H136.823V11.555H116.803V9.7ZM121.528 19.08V21.355H132.343V19.08H121.528ZM121.528 23.07V25.38H132.343V23.07H121.528ZM121.528 15.125V17.365H132.343V15.125H121.528ZM119.113 13.305H134.828V27.2H119.113V13.305ZM128.633 28.775L130.418 27.445C131.212 27.8883 132.017 28.355 132.833 28.845C133.65 29.335 134.432 29.8133 135.178 30.28C135.948 30.7467 136.602 31.1667 137.138 31.54L134.828 32.835C134.338 32.485 133.755 32.0767 133.078 31.61C132.402 31.1433 131.678 30.6533 130.908 30.14C130.138 29.65 129.38 29.195 128.633 28.775ZM123.068 27.34L125.308 28.67C124.608 29.23 123.78 29.7783 122.823 30.315C121.89 30.875 120.91 31.3767 119.883 31.82C118.88 32.2633 117.9 32.6367 116.943 32.94C116.733 32.6833 116.453 32.3917 116.103 32.065C115.777 31.7383 115.485 31.4583 115.228 31.225C116.185 30.945 117.165 30.5833 118.168 30.14C119.172 29.72 120.105 29.2767 120.968 28.81C121.832 28.32 122.532 27.83 123.068 27.34ZM145.223 21.6H166.223V23.35H145.223V21.6ZM145.293 17.26H167.728V27.69H145.293V25.765H165.138V19.185H145.293V17.26ZM154.253 18.205H156.808V28.775C156.808 29.3583 156.972 29.7433 157.298 29.93C157.625 30.1167 158.337 30.21 159.433 30.21C159.643 30.21 159.993 30.21 160.483 30.21C160.997 30.21 161.58 30.21 162.233 30.21C162.887 30.21 163.54 30.21 164.193 30.21C164.87 30.21 165.477 30.21 166.013 30.21C166.573 30.21 166.993 30.21 167.273 30.21C167.903 30.21 168.37 30.1167 168.673 29.93C169 29.72 169.233 29.3233 169.373 28.74C169.513 28.1333 169.607 27.2467 169.653 26.08C169.933 26.2667 170.295 26.4417 170.738 26.605C171.182 26.7683 171.578 26.885 171.928 26.955C171.812 28.3783 171.613 29.475 171.333 30.245C171.053 31.015 170.61 31.5517 170.003 31.855C169.397 32.1817 168.545 32.345 167.448 32.345C167.262 32.345 166.888 32.345 166.328 32.345C165.792 32.345 165.162 32.345 164.438 32.345C163.715 32.345 162.992 32.345 162.268 32.345C161.568 32.345 160.938 32.345 160.378 32.345C159.842 32.345 159.48 32.345 159.293 32.345C158.01 32.345 156.995 32.24 156.248 32.03C155.502 31.8433 154.977 31.4817 154.673 30.945C154.393 30.4317 154.253 29.7083 154.253 28.775V18.205ZM143.963 17.26H146.483V29.51H143.963V17.26ZM142.458 2H169.023V3.89H142.458V2ZM154.358 2.49H156.913V15.965H154.358V2.49ZM140.918 6.095H170.668V13.655H168.043V7.985H143.438V13.655H140.918V6.095ZM144.068 14.075C145.165 13.935 146.437 13.76 147.883 13.55C149.33 13.34 150.835 13.1183 152.398 12.885L152.503 14.53C151.15 14.8333 149.82 15.1133 148.513 15.37C147.207 15.6267 145.982 15.8717 144.838 16.105L144.068 14.075ZM144.943 10.085L145.713 8.65C146.483 8.79 147.288 8.965 148.128 9.175C148.968 9.36167 149.773 9.57167 150.543 9.805C151.337 10.0383 151.99 10.2717 152.503 10.505L151.733 12.115C151.22 11.8817 150.578 11.6367 149.808 11.38C149.038 11.1233 148.222 10.8783 147.358 10.645C146.518 10.4117 145.713 10.225 144.943 10.085ZM165.488 8.475L166.678 10.015C166.002 10.295 165.255 10.5633 164.438 10.82C163.645 11.0533 162.84 11.275 162.023 11.485C161.207 11.6717 160.46 11.835 159.783 11.975L158.838 10.645C159.515 10.4817 160.262 10.2717 161.078 10.015C161.895 9.75833 162.688 9.49 163.458 9.21C164.252 8.93 164.928 8.685 165.488 8.475ZM158.383 14.285L159.013 12.675C159.923 12.7683 160.88 12.9083 161.883 13.095C162.91 13.2817 163.89 13.4917 164.823 13.725C165.78 13.9583 166.573 14.18 167.203 14.39L166.643 16.21C165.99 15.9767 165.185 15.7433 164.228 15.51C163.295 15.2533 162.315 15.02 161.288 14.81C160.285 14.5767 159.317 14.4017 158.383 14.285ZM193.943 17.505H196.568V28.495C196.568 29.0083 196.662 29.3467 196.848 29.51C197.058 29.65 197.49 29.72 198.143 29.72C198.307 29.72 198.587 29.72 198.983 29.72C199.38 29.72 199.812 29.72 200.278 29.72C200.768 29.72 201.223 29.72 201.643 29.72C202.087 29.72 202.402 29.72 202.588 29.72C203.032 29.72 203.358 29.6033 203.568 29.37C203.802 29.1133 203.953 28.6117 204.023 27.865C204.117 27.1183 204.187 25.9867 204.233 24.47C204.42 24.61 204.653 24.7617 204.933 24.925C205.237 25.065 205.54 25.1933 205.843 25.31C206.147 25.4033 206.415 25.485 206.648 25.555C206.555 27.3283 206.38 28.705 206.123 29.685C205.89 30.6417 205.505 31.3067 204.968 31.68C204.455 32.0533 203.732 32.24 202.798 32.24C202.635 32.24 202.32 32.24 201.853 32.24C201.387 32.24 200.873 32.24 200.313 32.24C199.753 32.24 199.24 32.24 198.773 32.24C198.33 32.24 198.027 32.24 197.863 32.24C196.813 32.24 196.008 32.1233 195.448 31.89C194.888 31.68 194.492 31.295 194.258 30.735C194.048 30.1983 193.943 29.4517 193.943 28.495V17.505ZM175.393 15.65H206.158V18.205H175.393V15.65ZM181.168 6.06H203.638V8.58H181.168V6.06ZM184.598 17.61H187.328C187.165 19.3833 186.885 21.0517 186.488 22.615C186.115 24.1783 185.543 25.6133 184.773 26.92C184.003 28.2033 182.953 29.3583 181.623 30.385C180.317 31.4117 178.637 32.275 176.583 32.975C176.49 32.7417 176.338 32.485 176.128 32.205C175.942 31.9483 175.743 31.68 175.533 31.4C175.323 31.1433 175.113 30.9333 174.903 30.77C176.817 30.1633 178.38 29.4283 179.593 28.565C180.807 27.7017 181.752 26.71 182.428 25.59C183.105 24.4467 183.595 23.21 183.898 21.88C184.225 20.55 184.458 19.1267 184.598 17.61ZM181.868 1.405L184.528 1.965C184.155 3.295 183.7 4.68333 183.163 6.13C182.65 7.57667 182.043 8.98833 181.343 10.365C180.667 11.7183 179.92 12.9083 179.103 13.935C178.917 13.795 178.683 13.655 178.403 13.515C178.123 13.3517 177.843 13.2 177.563 13.06C177.307 12.8967 177.062 12.78 176.828 12.71C177.645 11.7067 178.368 10.5633 178.998 9.28C179.652 7.97333 180.223 6.64333 180.713 5.29C181.203 3.91333 181.588 2.61833 181.868 1.405ZM189.428 0.599999H192.088V16.49H189.428V0.599999ZM224.463 6.375H240.528V8.58H224.463V25.975H222.083V8.72L224.253 6.375H224.463ZM223.203 12.15H239.548V14.25H223.203V12.15ZM223.308 17.855H239.583V19.99H223.308V17.855ZM223.238 23.735H241.333V25.975H223.238V23.735ZM230.623 7.32H232.933V24.89H230.623V7.32ZM224.848 0.809998L227.088 1.44C226.482 3.14333 225.77 4.835 224.953 6.515C224.137 8.17167 223.25 9.735 222.293 11.205C221.36 12.675 220.38 13.97 219.353 15.09C219.283 14.9033 219.155 14.6817 218.968 14.425C218.782 14.1683 218.595 13.9117 218.408 13.655C218.222 13.3983 218.047 13.1883 217.883 13.025C219.283 11.5083 220.59 9.665 221.803 7.495C223.04 5.325 224.055 3.09666 224.848 0.809998ZM229.643 1.755L231.848 1.09C232.385 1.95333 232.91 2.91 233.423 3.96C233.937 4.98667 234.298 5.86167 234.508 6.585L232.233 7.355C232 6.60833 231.638 5.71 231.148 4.66C230.658 3.58667 230.157 2.61833 229.643 1.755ZM211.163 1.825L213.158 0.634998C213.695 1.195 214.243 1.80166 214.803 2.455C215.387 3.10833 215.923 3.75 216.413 4.38C216.927 4.98667 217.335 5.52333 217.638 5.99L215.643 7.425C215.317 6.935 214.897 6.36333 214.383 5.71C213.893 5.05667 213.368 4.39166 212.808 3.715C212.248 3.015 211.7 2.385 211.163 1.825ZM209.903 8.685H217.568V10.89H209.903V8.685ZM216.168 24.715C216.892 26.255 217.872 27.3983 219.108 28.145C220.368 28.8917 221.885 29.3817 223.658 29.615C225.455 29.825 227.508 29.9417 229.818 29.965C231.055 29.965 232.408 29.9417 233.878 29.895C235.348 29.8483 236.807 29.79 238.253 29.72C239.723 29.65 241.042 29.5683 242.208 29.475C242.092 29.6617 241.975 29.9067 241.858 30.21C241.742 30.5133 241.637 30.8167 241.543 31.12C241.45 31.4467 241.38 31.7383 241.333 31.995C240.26 32.0417 239.07 32.0883 237.763 32.135C236.457 32.205 235.127 32.24 233.773 32.24C232.42 32.2633 231.102 32.275 229.818 32.275C227.765 32.275 225.922 32.1933 224.288 32.03C222.678 31.8667 221.255 31.5517 220.018 31.085C218.782 30.6183 217.697 29.9417 216.763 29.055C215.83 28.1683 215.037 27.0017 214.383 25.555L216.168 24.715ZM216.623 17.4H217.253L217.708 17.365L219.003 17.855C218.42 21.565 217.428 24.6683 216.028 27.165C214.628 29.6383 212.948 31.54 210.988 32.87C210.872 32.6833 210.708 32.4733 210.498 32.24C210.288 32.0067 210.067 31.7733 209.833 31.54C209.623 31.33 209.425 31.1783 209.238 31.085C211.105 29.895 212.68 28.1917 213.963 25.975C215.247 23.7583 216.133 21.0517 216.623 17.855V17.4ZM210.393 20.06V18.03L211.653 17.4H217.498V19.535H212.493C212.05 19.535 211.618 19.5933 211.198 19.71C210.802 19.8033 210.533 19.92 210.393 20.06ZM210.393 20.06C210.347 19.85 210.253 19.5933 210.113 19.29C209.997 18.9867 209.88 18.6833 209.763 18.38C209.647 18.0767 209.53 17.8433 209.413 17.68C209.693 17.61 209.973 17.505 210.253 17.365C210.533 17.2017 210.825 16.945 211.128 16.595C211.408 16.3383 211.805 15.895 212.318 15.265C212.832 14.6117 213.38 13.8883 213.963 13.095C214.547 12.2783 215.095 11.4967 215.608 10.75C216.145 10.0033 216.565 9.39667 216.868 8.93V8.86L217.673 8.51L219.388 9.315C218.968 9.92167 218.467 10.6333 217.883 11.45C217.3 12.2433 216.682 13.0717 216.028 13.935C215.375 14.775 214.733 15.5917 214.103 16.385C213.473 17.1783 212.902 17.855 212.388 18.415C212.388 18.415 212.283 18.4733 212.073 18.59C211.887 18.6833 211.653 18.8233 211.373 19.01C211.117 19.1733 210.883 19.3483 210.673 19.535C210.487 19.6983 210.393 19.8733 210.393 20.06ZM259.393 20.515L261.493 21.46C260.583 22.2533 259.533 23.0117 258.343 23.735C257.153 24.435 255.87 25.0883 254.493 25.695C253.117 26.2783 251.717 26.8033 250.293 27.27C248.87 27.7133 247.47 28.0867 246.093 28.39C245.93 28.0867 245.697 27.7367 245.393 27.34C245.113 26.9433 244.845 26.6283 244.588 26.395C245.942 26.1617 247.318 25.8467 248.718 25.45C250.142 25.0533 251.507 24.61 252.813 24.12C254.143 23.6067 255.38 23.0467 256.523 22.44C257.667 21.81 258.623 21.1683 259.393 20.515ZM262.438 20.27C263.535 22.9533 265.308 25.135 267.758 26.815C270.208 28.495 273.23 29.6267 276.823 30.21C276.567 30.4667 276.298 30.805 276.018 31.225C275.738 31.645 275.505 32.0183 275.318 32.345C272.822 31.855 270.593 31.0967 268.633 30.07C266.673 29.0433 264.993 27.76 263.593 26.22C262.217 24.68 261.097 22.8833 260.233 20.83L262.438 20.27ZM272.693 22.16L274.618 23.56C273.522 24.33 272.285 25.0767 270.908 25.8C269.555 26.5233 268.295 27.13 267.128 27.62L265.483 26.325C266.253 25.9517 267.082 25.5317 267.968 25.065C268.855 24.575 269.718 24.085 270.558 23.595C271.398 23.0817 272.11 22.6033 272.693 22.16ZM245.183 19.71H276.368V21.88H245.183V19.71ZM265.448 2.385H267.828V13.9H265.448V2.385ZM272.098 0.949998H274.478V15.475C274.478 16.1517 274.385 16.665 274.198 17.015C274.035 17.3417 273.708 17.5983 273.218 17.785C272.705 17.9717 272.028 18.0883 271.188 18.135C270.372 18.1583 269.357 18.17 268.143 18.17C268.097 17.8433 267.992 17.4817 267.828 17.085C267.665 16.665 267.49 16.3033 267.303 16C268.26 16.0233 269.123 16.035 269.893 16.035C270.663 16.035 271.177 16.0233 271.433 16C271.69 16 271.865 15.965 271.958 15.895C272.052 15.8017 272.098 15.65 272.098 15.44V0.949998ZM252.988 0.599999H255.298V18.38H252.988V0.599999ZM259.603 10.855H261.808V15.16C261.808 15.65 261.75 16.035 261.633 16.315C261.517 16.5717 261.272 16.77 260.898 16.91C260.548 17.0733 260.105 17.1667 259.568 17.19C259.032 17.2133 258.367 17.225 257.573 17.225C257.527 16.9683 257.433 16.6883 257.293 16.385C257.153 16.0817 257.013 15.8017 256.873 15.545C257.457 15.5683 257.958 15.58 258.378 15.58C258.798 15.58 259.078 15.5683 259.218 15.545C259.475 15.545 259.603 15.4167 259.603 15.16V10.855ZM246.863 10.855H260.583V12.64H248.963V17.435H246.863V10.855ZM245.043 7.11H262.718V9H245.043V7.11ZM248.683 3.085H261.493V4.94H247.948L248.683 3.085ZM248.368 0.705L250.433 1.195C250.06 2.26833 249.605 3.33 249.068 4.38C248.555 5.43 248.018 6.32833 247.458 7.075C247.248 6.91166 246.945 6.73667 246.548 6.55C246.152 6.34 245.813 6.165 245.533 6.025C246.163 5.325 246.712 4.50833 247.178 3.575C247.668 2.61833 248.065 1.66167 248.368 0.705ZM251.588 32.835L251.518 30.98L252.603 30.105L262.718 27.935C262.672 28.2617 262.637 28.6117 262.613 28.985C262.59 29.3583 262.59 29.6733 262.613 29.93C260.303 30.49 258.448 30.9333 257.048 31.26C255.648 31.5867 254.587 31.8433 253.863 32.03C253.14 32.24 252.615 32.3917 252.288 32.485C251.985 32.6017 251.752 32.7183 251.588 32.835ZM251.623 32.8C251.577 32.6133 251.495 32.3917 251.378 32.135C251.285 31.9017 251.168 31.6567 251.028 31.4C250.912 31.1667 250.795 30.98 250.678 30.84C250.958 30.6767 251.273 30.3967 251.623 30C251.973 29.6033 252.148 28.9967 252.148 28.18V24.855H254.598V30.035C254.598 30.035 254.493 30.0933 254.283 30.21C254.097 30.3267 253.852 30.49 253.548 30.7C253.268 30.91 252.977 31.1433 252.673 31.4C252.37 31.6567 252.113 31.9017 251.903 32.135C251.717 32.3683 251.623 32.59 251.623 32.8ZM258.973 17.505L261.423 16.84C261.773 17.3767 262.112 17.9833 262.438 18.66C262.765 19.3133 262.998 19.8733 263.138 20.34L260.583 21.145C260.443 20.6783 260.222 20.1067 259.918 19.43C259.615 18.73 259.3 18.0883 258.973 17.505ZM300.553 17.015H303.143V31.12H300.553V17.015ZM291.768 29.58H311.718V31.925H291.768V29.58ZM293.693 22.58H310.248V24.855H293.693V22.58ZM296.528 4.66V11.24H307.308V4.66H296.528ZM294.078 2.385H309.828V13.515H294.078V2.385ZM308.708 14.81L310.458 16.77C309.012 17.1667 307.332 17.505 305.418 17.785C303.505 18.065 301.522 18.2983 299.468 18.485C297.438 18.6717 295.478 18.8117 293.588 18.905C293.565 18.625 293.483 18.2867 293.343 17.89C293.227 17.4933 293.098 17.155 292.958 16.875C294.335 16.7817 295.747 16.6767 297.193 16.56C298.663 16.42 300.11 16.2683 301.533 16.105C302.957 15.9417 304.287 15.755 305.523 15.545C306.76 15.3117 307.822 15.0667 308.708 14.81ZM285.678 3.505H288.268V32.73H285.678V3.505ZM279.973 10.47H292.643V12.92H279.973V10.47ZM285.818 11.415L287.463 12.115C287.113 13.3517 286.682 14.635 286.168 15.965C285.655 17.2717 285.095 18.5783 284.488 19.885C283.905 21.1683 283.275 22.3817 282.598 23.525C281.945 24.645 281.28 25.6017 280.603 26.395C280.463 26.045 280.253 25.6367 279.973 25.17C279.717 24.7033 279.472 24.3067 279.238 23.98C279.892 23.28 280.533 22.44 281.163 21.46C281.793 20.48 282.4 19.4183 282.983 18.275C283.59 17.1317 284.138 15.9767 284.628 14.81C285.118 13.62 285.515 12.4883 285.818 11.415ZM290.998 1.09L292.853 3.12C291.757 3.56333 290.508 3.97167 289.108 4.345C287.732 4.695 286.297 5.01 284.803 5.29C283.333 5.54667 281.91 5.76833 280.533 5.955C280.487 5.675 280.382 5.34833 280.218 4.975C280.055 4.57833 279.903 4.24 279.763 3.96C281.093 3.72667 282.447 3.47 283.823 3.19C285.223 2.91 286.553 2.595 287.813 2.245C289.073 1.87167 290.135 1.48667 290.998 1.09ZM288.128 14.95C288.362 15.16 288.7 15.4983 289.143 15.965C289.61 16.4083 290.112 16.8983 290.648 17.435C291.185 17.9483 291.663 18.4383 292.083 18.905C292.527 19.3717 292.842 19.71 293.028 19.92L291.453 21.985C291.243 21.635 290.94 21.1917 290.543 20.655C290.17 20.1183 289.75 19.5467 289.283 18.94C288.817 18.3333 288.373 17.7733 287.953 17.26C287.533 16.7467 287.183 16.3383 286.903 16.035L288.128 14.95ZM323.15 2.28H334.525V4.625H323.15V2.28ZM322.415 13.41H335.785V15.79H322.415V13.41ZM328.19 14.565H330.71V29.72C330.71 30.42 330.617 30.9683 330.43 31.365C330.244 31.7617 329.905 32.065 329.415 32.275C328.925 32.485 328.272 32.6133 327.455 32.66C326.662 32.7067 325.659 32.73 324.445 32.73C324.399 32.38 324.294 31.96 324.13 31.47C323.967 31.0033 323.792 30.5833 323.605 30.21C324.515 30.2333 325.332 30.245 326.055 30.245C326.802 30.245 327.292 30.245 327.525 30.245C327.782 30.2217 327.957 30.175 328.05 30.105C328.144 30.035 328.19 29.8833 328.19 29.65V14.565ZM333.72 2.28H334.28L334.805 2.14L336.45 3.295C335.914 4.18167 335.284 5.09167 334.56 6.025C333.837 6.95833 333.09 7.845 332.32 8.685C331.55 9.50167 330.792 10.225 330.045 10.855C329.882 10.5983 329.637 10.33 329.31 10.05C329.007 9.74667 328.739 9.49 328.505 9.28C329.159 8.72 329.812 8.06667 330.465 7.32C331.119 6.57333 331.737 5.80333 332.32 5.01C332.904 4.21667 333.37 3.48167 333.72 2.805V2.28ZM335.05 13.41H335.4L335.785 13.305L337.43 13.76C336.987 15.09 336.497 16.4667 335.96 17.89C335.447 19.29 334.957 20.4683 334.49 21.425L332.495 20.9C332.775 20.3167 333.067 19.6283 333.37 18.835C333.674 18.0183 333.965 17.1783 334.245 16.315C334.549 15.4283 334.817 14.5883 335.05 13.795V13.41ZM324.165 8.405L325.565 6.69C326.545 7.18 327.549 7.75167 328.575 8.405C329.625 9.05833 330.605 9.735 331.515 10.435C332.425 11.1117 333.16 11.7417 333.72 12.325L332.215 14.285C331.679 13.6783 330.955 13.025 330.045 12.325C329.159 11.6017 328.202 10.9017 327.175 10.225C326.149 9.525 325.145 8.91833 324.165 8.405ZM336.695 2.245H354.475V4.52H336.695V2.245ZM340.51 15.23V18.66H350.765V15.23H340.51ZM340.51 20.62V24.085H350.765V20.62H340.51ZM340.51 9.91V13.27H350.765V9.91H340.51ZM338.06 7.845H353.285V26.115H338.06V7.845ZM344.22 3.33L347.195 3.715C346.915 4.71833 346.624 5.73333 346.32 6.76C346.017 7.78667 345.725 8.67333 345.445 9.42L343.1 8.965C343.24 8.42833 343.38 7.83333 343.52 7.18C343.684 6.50333 343.824 5.82666 343.94 5.15C344.057 4.47333 344.15 3.86667 344.22 3.33ZM341.56 26.745L343.835 28.11C343.205 28.7167 342.447 29.3233 341.56 29.93C340.674 30.5367 339.729 31.0967 338.725 31.61C337.745 32.1233 336.789 32.555 335.855 32.905C335.645 32.6717 335.365 32.38 335.015 32.03C334.665 31.68 334.35 31.3883 334.07 31.155C335.004 30.805 335.949 30.3967 336.905 29.93C337.862 29.44 338.749 28.9267 339.565 28.39C340.382 27.83 341.047 27.2817 341.56 26.745ZM346.985 28.285L348.945 26.92C349.669 27.3167 350.415 27.7833 351.185 28.32C351.979 28.8567 352.725 29.3933 353.425 29.93C354.149 30.4667 354.744 30.9567 355.21 31.4L353.11 32.905C352.69 32.4617 352.13 31.9717 351.43 31.435C350.754 30.8983 350.019 30.35 349.225 29.79C348.432 29.23 347.685 28.7283 346.985 28.285ZM359.865 11.17H371.31V13.27H359.865V11.17ZM359.865 15.79H371.24V17.855H359.865V15.79ZM358.325 6.55H372.815V8.72H358.325V6.55ZM361.265 20.445H371.31V30.665H361.265V28.46H369V22.65H361.265V20.445ZM360.145 20.445H362.42V32.345H360.145V20.445ZM362.455 1.51L364.52 0.459999C365.034 1.16 365.535 1.93 366.025 2.77C366.539 3.61 366.935 4.345 367.215 4.975L365.08 6.2C364.824 5.57 364.439 4.81167 363.925 3.925C363.435 3.015 362.945 2.21 362.455 1.51ZM372.745 12.71H389.51V15.3H372.745V12.71ZM379.605 1.23H382.3V32.8H379.605V1.23ZM392.625 30V28.11C395.309 25.7533 397.514 23.6067 399.24 21.67C400.99 19.7333 402.285 17.9367 403.125 16.28C403.965 14.6 404.385 13.025 404.385 11.555C404.385 10.575 404.21 9.7 403.86 8.93C403.534 8.16 403.02 7.565 402.32 7.145C401.62 6.70166 400.734 6.48 399.66 6.48C398.61 6.48 397.63 6.76 396.72 7.32C395.834 7.88 395.04 8.59167 394.34 9.455L392.485 7.635C393.512 6.49167 394.62 5.58167 395.81 4.905C397 4.22833 398.412 3.89 400.045 3.89C401.585 3.89 402.904 4.205 404 4.835C405.12 5.44167 405.984 6.31667 406.59 7.46C407.22 8.58 407.535 9.89833 407.535 11.415C407.535 13.1183 407.104 14.845 406.24 16.595C405.4 18.345 404.222 20.13 402.705 21.95C401.212 23.7467 399.462 25.59 397.455 27.48C398.132 27.4333 398.832 27.3867 399.555 27.34C400.302 27.27 401.002 27.235 401.655 27.235H408.76V30H392.625ZM420.23 30.455C418.62 30.455 417.208 29.965 415.995 28.985C414.805 28.005 413.883 26.5233 413.23 24.54C412.576 22.5567 412.25 20.0717 412.25 17.085C412.25 14.0983 412.576 11.6367 413.23 9.7C413.883 7.74 414.805 6.28167 415.995 5.325C417.208 4.36833 418.62 3.89 420.23 3.89C421.863 3.89 423.275 4.38 424.465 5.36C425.655 6.31666 426.576 7.76333 427.23 9.7C427.883 11.6367 428.21 14.0983 428.21 17.085C428.21 20.0717 427.883 22.5567 427.23 24.54C426.576 26.5233 425.655 28.005 424.465 28.985C423.275 29.965 421.863 30.455 420.23 30.455ZM420.23 27.865C421.21 27.865 422.061 27.4917 422.785 26.745C423.531 25.9983 424.103 24.8317 424.5 23.245C424.92 21.635 425.13 19.5817 425.13 17.085C425.13 14.5883 424.92 12.5583 424.5 10.995C424.103 9.40833 423.531 8.25333 422.785 7.53C422.061 6.78333 421.21 6.41 420.23 6.41C419.273 6.41 418.421 6.78333 417.675 7.53C416.928 8.25333 416.345 9.40833 415.925 10.995C415.528 12.5583 415.33 14.5883 415.33 17.085C415.33 19.5817 415.528 21.635 415.925 23.245C416.345 24.8317 416.928 25.9983 417.675 26.745C418.421 27.4917 419.273 27.865 420.23 27.865ZM431.454 30V28.11C434.137 25.7533 436.342 23.6067 438.069 21.67C439.819 19.7333 441.114 17.9367 441.954 16.28C442.794 14.6 443.214 13.025 443.214 11.555C443.214 10.575 443.039 9.7 442.689 8.93C442.362 8.16 441.849 7.565 441.149 7.145C440.449 6.70166 439.562 6.48 438.489 6.48C437.439 6.48 436.459 6.76 435.549 7.32C434.662 7.88 433.869 8.59167 433.169 9.455L431.314 7.635C432.34 6.49167 433.449 5.58167 434.639 4.905C435.829 4.22833 437.24 3.89 438.874 3.89C440.414 3.89 441.732 4.205 442.829 4.835C443.949 5.44167 444.812 6.31667 445.419 7.46C446.049 8.58 446.364 9.89833 446.364 11.415C446.364 13.1183 445.932 14.845 445.069 16.595C444.229 18.345 443.05 20.13 441.534 21.95C440.04 23.7467 438.29 25.59 436.284 27.48C436.96 27.4333 437.66 27.3867 438.384 27.34C439.13 27.27 439.83 27.235 440.484 27.235H447.589V30H431.454ZM458.498 30.455C457.168 30.455 455.989 30.2917 454.963 29.965C453.959 29.6383 453.073 29.2183 452.303 28.705C451.556 28.1917 450.879 27.6433 450.273 27.06L451.883 24.96C452.373 25.45 452.909 25.9167 453.493 26.36C454.099 26.78 454.788 27.13 455.558 27.41C456.328 27.6667 457.203 27.795 458.183 27.795C459.186 27.795 460.096 27.55 460.913 27.06C461.753 26.57 462.418 25.87 462.908 24.96C463.398 24.05 463.643 22.9767 463.643 21.74C463.643 19.92 463.153 18.4967 462.173 17.47C461.216 16.42 459.933 15.895 458.323 15.895C457.483 15.895 456.748 16.0233 456.118 16.28C455.488 16.5367 454.799 16.91 454.053 17.4L452.338 16.315L453.178 4.345H465.638V7.075H455.978L455.313 14.495C455.873 14.1683 456.456 13.9233 457.063 13.76C457.693 13.5733 458.393 13.48 459.163 13.48C460.586 13.48 461.881 13.7717 463.048 14.355C464.214 14.915 465.148 15.8017 465.848 17.015C466.548 18.2283 466.898 19.78 466.898 21.67C466.898 23.5367 466.489 25.1233 465.673 26.43C464.879 27.7367 463.841 28.74 462.558 29.44C461.274 30.1167 459.921 30.455 458.498 30.455ZM478.437 0.459999L481.097 1.16C480.443 2.86333 479.673 4.53166 478.787 6.165C477.923 7.775 476.978 9.28 475.952 10.68C474.925 12.0567 473.863 13.27 472.767 14.32C472.603 14.18 472.382 14.005 472.102 13.795C471.845 13.5617 471.565 13.34 471.262 13.13C470.982 12.92 470.725 12.7567 470.492 12.64C471.612 11.66 472.662 10.54 473.642 9.28C474.645 7.99667 475.555 6.60833 476.372 5.115C477.188 3.59833 477.877 2.04667 478.437 0.459999ZM477.912 4.835H500.487V7.355H476.617L477.912 4.835ZM476.197 12.745H499.682V15.23H478.822V23.49H476.197V12.745ZM470.422 22.195H502.132V24.715H470.422V22.195ZM486.662 6.165H489.357V32.8H486.662V6.165ZM515.747 17.47H536.187V19.815H515.747V17.47ZM532.652 8.3L534.612 10.225C532.908 10.575 530.96 10.89 528.767 11.17C526.573 11.4267 524.31 11.6367 521.977 11.8C519.643 11.9633 517.392 12.08 515.222 12.15C515.175 11.87 515.082 11.5317 514.942 11.135C514.825 10.715 514.697 10.365 514.557 10.085C516.143 10.015 517.777 9.93333 519.457 9.84C521.137 9.72333 522.782 9.595 524.392 9.455C526.025 9.29167 527.542 9.11667 528.942 8.93C530.365 8.74333 531.602 8.53333 532.652 8.3ZM524.427 10.19H527.017C527.063 12.9433 527.297 15.51 527.717 17.89C528.137 20.27 528.673 22.3583 529.327 24.155C529.98 25.9283 530.692 27.3167 531.462 28.32C532.255 29.3233 533.048 29.825 533.842 29.825C534.262 29.825 534.553 29.4283 534.717 28.635C534.903 27.8417 535.032 26.5817 535.102 24.855C535.382 25.1117 535.72 25.345 536.117 25.555C536.513 25.765 536.887 25.9283 537.237 26.045C537.12 27.6783 536.922 28.9617 536.642 29.895C536.362 30.805 535.988 31.435 535.522 31.785C535.055 32.1583 534.437 32.345 533.667 32.345C532.617 32.345 531.637 31.96 530.727 31.19C529.84 30.4433 529.023 29.3817 528.277 28.005C527.53 26.6283 526.877 25.0183 526.317 23.175C525.78 21.3317 525.348 19.3133 525.022 17.12C524.695 14.9033 524.497 12.5933 524.427 10.19ZM509.272 4.135H537.062V6.515H509.272V4.135ZM507.977 4.135H510.532V14.25C510.532 15.6033 510.485 17.085 510.392 18.695C510.322 20.305 510.17 21.9617 509.937 23.665C509.703 25.345 509.353 26.9783 508.887 28.565C508.42 30.1517 507.802 31.61 507.032 32.94C506.892 32.7767 506.682 32.6017 506.402 32.415C506.122 32.2283 505.842 32.0417 505.562 31.855C505.305 31.6683 505.06 31.54 504.827 31.47C505.55 30.21 506.122 28.8567 506.542 27.41C506.962 25.94 507.277 24.435 507.487 22.895C507.697 21.355 507.825 19.85 507.872 18.38C507.942 16.8867 507.977 15.51 507.977 14.25V4.135ZM520.157 1.265L522.712 0.564999C523.202 1.21833 523.657 1.95333 524.077 2.77C524.52 3.58667 524.835 4.28667 525.022 4.87L522.292 5.71C522.128 5.10333 521.848 4.38 521.452 3.54C521.055 2.7 520.623 1.94166 520.157 1.265ZM519.212 29.44H528.347V31.61H519.212V29.44ZM514.452 29.335L514.277 27.2L515.502 26.29L523.797 24.33C523.797 24.68 523.797 25.0767 523.797 25.52C523.82 25.94 523.832 26.29 523.832 26.57C521.942 27.06 520.413 27.4683 519.247 27.795C518.08 28.0983 517.17 28.3433 516.517 28.53C515.887 28.7167 515.432 28.88 515.152 29.02C514.872 29.1367 514.638 29.2417 514.452 29.335ZM514.452 29.335C514.405 29.125 514.323 28.88 514.207 28.6C514.09 28.32 513.962 28.04 513.822 27.76C513.705 27.48 513.577 27.2583 513.437 27.095C513.693 26.9783 513.938 26.78 514.172 26.5C514.428 26.1967 514.557 25.7183 514.557 25.065V10.085L517.042 10.68V27.2C517.042 27.2 516.913 27.27 516.657 27.41C516.4 27.55 516.097 27.725 515.747 27.935C515.397 28.145 515.093 28.3783 514.837 28.635C514.58 28.8683 514.452 29.1017 514.452 29.335ZM547.492 6.725V8.65H564.887V6.725H547.492ZM547.492 3.295V5.185H564.887V3.295H547.492ZM544.937 1.72H567.512V10.225H544.937V1.72ZM546.792 20.445V22.475H565.937V20.445H546.792ZM546.792 16.945V18.905H565.937V16.945H546.792ZM544.307 15.3H568.527V24.085H544.307V15.3ZM554.912 15.895H557.467V30.945H554.912V15.895ZM540.562 11.73H571.957V13.725H540.562V11.73ZM543.327 26.01H569.297V27.865H543.327V26.01ZM540.387 29.895H572.167V31.925H540.387V29.895ZM579.377 12.675H606.817V14.88H579.377V12.675ZM578.222 3.82H605.732V5.99H578.222V3.82ZM584.592 18.485H604.822V20.62H584.592V18.485ZM584.522 23.77H604.052V25.87H584.522V23.77ZM581.232 29.475H607.342V31.68H581.232V29.475ZM592.747 15.51H595.337V30.91H592.747V15.51ZM578.047 12.675H580.602V20.095C580.602 21.075 580.555 22.1367 580.462 23.28C580.368 24.4233 580.182 25.59 579.902 26.78C579.645 27.9467 579.272 29.0667 578.782 30.14C578.292 31.2367 577.65 32.24 576.857 33.15C576.717 32.9633 576.518 32.7533 576.262 32.52C576.028 32.31 575.772 32.1 575.492 31.89C575.235 31.7033 575.013 31.5517 574.827 31.435C575.807 30.3383 576.518 29.1367 576.962 27.83C577.428 26.5 577.72 25.17 577.837 23.84C577.977 22.4867 578.047 21.2267 578.047 20.06V12.675ZM585.327 15.475L587.602 16.14C586.995 17.82 586.202 19.4533 585.222 21.04C584.242 22.6033 583.192 23.9217 582.072 24.995C582.002 24.8317 581.873 24.61 581.687 24.33C581.523 24.05 581.348 23.77 581.162 23.49C580.975 23.1867 580.8 22.9533 580.637 22.79C581.617 21.88 582.515 20.7833 583.332 19.5C584.148 18.2167 584.813 16.875 585.327 15.475ZM582.317 7.25L584.067 5.85C585.63 6.22333 587.275 6.64333 589.002 7.11C590.752 7.55333 592.49 8.03167 594.217 8.545C595.943 9.035 597.577 9.525 599.117 10.015C600.657 10.505 601.998 10.96 603.142 11.38L601.462 12.92C600.342 12.5 599.023 12.0333 597.507 11.52C595.99 11.0067 594.368 10.505 592.642 10.015C590.938 9.50166 589.2 9.01166 587.427 8.545C585.653 8.055 583.95 7.62333 582.317 7.25ZM599.887 5.675L601.742 6.83C600.505 7.50667 599.117 8.13667 597.577 8.72C596.037 9.30333 594.415 9.86333 592.712 10.4C591.008 10.9367 589.293 11.415 587.567 11.835C585.863 12.255 584.23 12.6283 582.667 12.955C582.503 12.7217 582.27 12.4417 581.967 12.115C581.687 11.7883 581.43 11.5317 581.197 11.345C582.783 11.065 584.44 10.7267 586.167 10.33C587.917 9.93333 589.643 9.49 591.347 9C593.05 8.48667 594.637 7.95 596.107 7.39C597.577 6.83 598.837 6.25833 599.887 5.675ZM589.352 1.23L591.207 0.284999C591.767 0.891666 592.327 1.58 592.887 2.35C593.447 3.12 593.867 3.785 594.147 4.345L592.152 5.465C591.895 4.88167 591.487 4.19333 590.927 3.4C590.39 2.60667 589.865 1.88333 589.352 1.23Z" fill="white"/>
</svg>
