<svg width="649" height="75" viewBox="0 0 649 75" fill="none" xmlns="http://www.w3.org/2000/svg">
<path d="M59.7828 21.84C59.7828 21.84 60.0761 22.1067 60.6628 22.64C61.2495 23.1733 62.0228 23.84 62.9828 24.64C63.9428 25.44 64.9028 26.2933 65.8628 27.2C66.8762 28.0533 67.8095 28.9067 68.6628 29.76C68.4495 30.6133 67.7028 31.04 66.4228 31.04H40.2628V28.72H54.7428L59.7828 21.84ZM14.9028 2.56C14.7961 3.2 14.4761 3.73333 13.9428 4.16C13.4628 4.53333 12.6628 4.82666 11.5428 5.04V7.6H4.10281V2.8V1.44L14.9028 2.56ZM3.22281 64.8C4.87615 64.3733 7.22281 63.7067 10.2628 62.8C13.3561 61.8933 16.8495 60.8267 20.7428 59.6C24.6361 58.32 28.6095 57.0133 32.6628 55.68L32.9828 56.64C30.3161 58.3467 26.6361 60.6933 21.9428 63.68C17.3028 66.6133 12.0761 69.6533 6.26281 72.8L3.22281 64.8ZM9.78281 5.04L11.5428 6.16V65.28L4.90281 68.24L8.02281 65.2C8.60948 66.7467 8.82281 68.1333 8.66281 69.36C8.55615 70.5867 8.23615 71.6 7.70281 72.4C7.22281 73.2533 6.71615 73.8667 6.18281 74.24L0.582813 66.24C2.07615 65.28 3.03615 64.5333 3.46281 64C3.88948 63.4667 4.10281 62.7467 4.10281 61.84V5.04H9.78281ZM24.6628 22C24.6628 22 24.9561 22.2667 25.5428 22.8C26.1295 23.3333 26.8495 24 27.7028 24.8C28.6095 25.6 29.5161 26.4533 30.4228 27.36C31.3828 28.2133 32.2361 29.04 32.9828 29.84C32.9295 30.2667 32.6895 30.5867 32.2628 30.8C31.8895 31.0133 31.4095 31.12 30.8228 31.12H8.74281V28.8H20.1028L24.6628 22ZM46.2628 2.56C46.2095 3.09333 45.9695 3.57333 45.5428 4C45.1161 4.37333 44.3961 4.64 43.3828 4.8V61.28C43.3828 62.2933 43.6228 63.0133 44.1028 63.44C44.6361 63.8667 45.7028 64.08 47.3028 64.08H54.5828C56.1828 64.08 57.5428 64.08 58.6628 64.08C59.7828 64.0267 60.6628 63.9733 61.3028 63.92C61.7295 63.8667 62.1028 63.76 62.4228 63.6C62.7428 63.44 63.0361 63.1467 63.3028 62.72C63.6228 62.1867 63.9428 61.3067 64.2628 60.08C64.6362 58.8533 65.0361 57.4133 65.4628 55.76C65.8895 54.0533 66.2895 52.32 66.6628 50.56H67.6228L67.9428 63.2C69.1161 63.68 69.8895 64.1867 70.2628 64.72C70.6895 65.2 70.9028 65.8133 70.9028 66.56C70.9028 67.7333 70.4228 68.6667 69.4628 69.36C68.5028 70.1067 66.8228 70.64 64.4228 70.96C62.0228 71.28 58.5828 71.44 54.1028 71.44H45.7828C43.2761 71.44 41.3028 71.2 39.8628 70.72C38.4228 70.2933 37.3828 69.4933 36.7428 68.32C36.1561 67.1467 35.8628 65.5467 35.8628 63.52V1.44L46.2628 2.56ZM124.823 4L132.583 7.12H131.543V72.64C131.543 72.96 131.036 73.4133 130.023 74C129.063 74.5867 127.703 74.88 125.943 74.88H124.823V7.12V4ZM144.183 7.04V9.36H128.663V7.04H144.183ZM140.583 7.04L144.503 3.2L151.783 10.16C151.249 10.7467 150.049 11.04 148.183 11.04C147.543 12.3733 146.769 13.9467 145.863 15.76C144.956 17.52 143.996 19.36 142.983 21.28C141.969 23.1467 140.929 24.9867 139.863 26.8C138.849 28.56 137.889 30.08 136.983 31.36C141.729 34.5067 145.116 37.8933 147.143 41.52C149.169 45.0933 150.183 48.6133 150.183 52.08C150.236 56.1333 149.383 59.1733 147.623 61.2C145.863 63.2267 142.743 64.32 138.263 64.48C138.263 63.4667 138.183 62.4533 138.023 61.44C137.863 60.3733 137.569 59.6533 137.143 59.28C136.823 58.8533 136.263 58.5067 135.463 58.24C134.716 57.9733 133.809 57.76 132.743 57.6V56.48C133.703 56.48 134.903 56.48 136.343 56.48C137.783 56.48 138.876 56.48 139.623 56.48C140.316 56.48 140.956 56.32 141.543 56C142.236 55.5733 142.769 54.9333 143.143 54.08C143.516 53.2267 143.703 52 143.703 50.4C143.703 47.2533 143.009 44.1067 141.623 40.96C140.289 37.76 138.103 34.64 135.063 31.6C135.543 30.1067 136.076 28.32 136.663 26.24C137.249 24.1067 137.836 21.8933 138.423 19.6C139.063 17.2533 139.649 14.9867 140.183 12.8C140.716 10.56 141.143 8.64 141.463 7.04H140.583ZM106.743 42.8C106.529 44.24 106.209 46.0267 105.783 48.16C105.356 50.2933 104.903 52.4267 104.423 54.56C103.996 56.6933 103.569 58.5067 103.143 60H103.703L101.703 62L96.5028 58.4C96.9828 58.08 97.5695 57.7333 98.2628 57.36C98.9561 56.9867 99.5961 56.72 100.183 56.56L98.4228 59.12C98.7961 57.7333 99.1961 56.0267 99.6228 54C100.049 51.92 100.449 49.8667 100.823 47.84C101.249 45.76 101.516 44.08 101.623 42.8H106.743ZM96.8228 23.28C96.6095 23.6533 96.2895 23.8933 95.8628 24C95.4361 24.1067 94.7428 24.0533 93.7828 23.84C91.8095 25.7067 89.3561 27.6533 86.4228 29.68C83.4895 31.6533 80.5295 33.2533 77.5428 34.48L76.7428 33.68C78.0761 32.5067 79.4095 31.12 80.7428 29.52C82.1295 27.8667 83.3828 26.16 84.5028 24.4C85.6761 22.64 86.6361 20.96 87.3828 19.36L96.8228 23.28ZM104.983 20.56C108.076 20.6667 110.663 21.12 112.743 21.92C114.876 22.72 116.529 23.68 117.703 24.8C118.929 25.8667 119.756 26.96 120.183 28.08C120.609 29.1467 120.689 30.1333 120.423 31.04C120.209 31.8933 119.756 32.48 119.063 32.8C118.369 33.12 117.463 33.04 116.343 32.56C115.009 30.8533 113.356 28.9333 111.383 26.8C109.409 24.6667 107.089 22.88 104.423 21.44L104.983 20.56ZM106.503 1.6C106.449 2.13333 106.209 2.58666 105.783 2.96C105.356 3.33333 104.609 3.6 103.543 3.76V34.08C103.543 34.2933 103.276 34.56 102.743 34.88C102.209 35.2 101.516 35.4933 100.663 35.76C99.8095 36.0267 98.9295 36.16 98.0228 36.16H96.8228V0.639995L106.503 1.6ZM117.303 34.8C117.249 35.2267 117.036 35.6 116.663 35.92C116.343 36.24 115.783 36.4533 114.983 36.56V72.56C114.983 72.7733 114.743 73.0133 114.263 73.28C113.783 73.6 113.169 73.8667 112.423 74.08C111.676 74.2933 110.956 74.4 110.263 74.4H109.063V33.92L117.303 34.8ZM119.703 5.68C119.489 6.10666 119.116 6.45333 118.583 6.72C118.103 6.98666 117.436 7.06666 116.583 6.96C115.089 8.24 113.489 9.52 111.783 10.8C110.076 12.08 108.449 13.1467 106.903 14L105.863 13.28C106.663 11.8933 107.543 10.1867 108.503 8.16C109.516 6.08 110.476 3.97333 111.383 1.84L119.703 5.68ZM92.5028 34.8C92.3428 35.28 92.0228 35.68 91.5428 36C91.0628 36.2667 90.3695 36.4267 89.4628 36.48C88.0761 40.8 86.3161 44.8 84.1828 48.48C82.1028 52.16 79.7028 55.2 76.9828 57.6L75.7828 56.88C77.6495 53.8933 79.3028 50.2667 80.7428 46C82.1828 41.68 83.2761 37.2 84.0228 32.56L92.5028 34.8ZM91.8628 40.08L95.2228 36.72L101.223 42C100.743 42.5867 99.7295 42.9333 98.1828 43.04C97.3828 47.2533 96.1828 51.3333 94.5828 55.28C93.0361 59.1733 90.8495 62.8 88.0228 66.16C85.1961 69.4667 81.5161 72.32 76.9828 74.72L76.1828 73.6C79.8628 70.9333 82.8228 67.84 85.0628 64.32C87.3028 60.7467 89.0095 56.9067 90.1828 52.8C91.3561 48.64 92.1828 44.4 92.6628 40.08H91.8628ZM81.9428 2.88C84.7695 3.30666 87.0361 3.97333 88.7428 4.88C90.4495 5.78666 91.6761 6.77333 92.4228 7.84C93.2228 8.85333 93.6228 9.84 93.6228 10.8C93.6761 11.76 93.4361 12.5867 92.9028 13.28C92.4228 13.92 91.7295 14.32 90.8228 14.48C89.9695 14.5867 89.0095 14.32 87.9428 13.68C87.6228 12.4533 87.0895 11.2267 86.3428 10C85.6495 8.72 84.8495 7.52 83.9428 6.4C83.0361 5.22666 82.1028 4.24 81.1428 3.44L81.9428 2.88ZM81.5428 48.88C84.1028 49.1467 86.0495 49.68 87.3828 50.48C88.7161 51.28 89.5695 52.16 89.9428 53.12C90.3161 54.08 90.3161 54.96 89.9428 55.76C89.6228 56.5067 89.0361 57.0133 88.1828 57.28C87.3828 57.4933 86.5028 57.28 85.5428 56.64C85.3295 55.4133 84.7428 54.1333 83.7828 52.8C82.8228 51.4133 81.8095 50.32 80.7428 49.52L81.5428 48.88ZM95.3028 40.08V42.4H84.0228L84.7428 40.08H95.3028ZM119.223 53.68C119.223 53.68 119.516 53.9733 120.103 54.56C120.743 55.0933 121.463 55.7333 122.263 56.48C123.116 57.2267 123.889 57.9733 124.583 58.72C124.369 59.5733 123.676 60 122.503 60H100.743L100.103 57.68H116.263L119.223 53.68ZM118.743 38.16C118.743 38.16 119.009 38.4267 119.543 38.96C120.129 39.44 120.796 40.0267 121.543 40.72C122.343 41.4133 123.036 42.1067 123.623 42.8C123.463 43.6533 122.796 44.08 121.623 44.08H99.6228L98.9828 41.76H116.023L118.743 38.16ZM116.023 11.52C116.023 11.52 116.396 11.8133 117.143 12.4C117.889 12.9867 118.769 13.7067 119.783 14.56C120.849 15.4133 121.809 16.24 122.663 17.04C122.449 17.8933 121.756 18.32 120.583 18.32H78.0228L77.3828 16H112.423L116.023 11.52ZM246.177 16.56C245.911 16.9333 245.564 17.2267 245.137 17.44C244.711 17.6 244.017 17.5733 243.057 17.36C241.457 18.8 239.537 20.4 237.297 22.16C235.111 23.92 232.764 25.6533 230.257 27.36C227.804 29.0667 225.297 30.64 222.737 32.08L221.937 31.2C223.751 29.1733 225.591 26.9333 227.457 24.48C229.377 21.9733 231.137 19.52 232.737 17.12C234.391 14.6667 235.724 12.5067 236.737 10.64L246.177 16.56ZM223.137 35.28C227.724 36.5067 231.457 37.9467 234.337 39.6C237.217 41.2533 239.404 42.96 240.897 44.72C242.444 46.48 243.404 48.1333 243.777 49.68C244.204 51.1733 244.204 52.4533 243.777 53.52C243.351 54.5333 242.604 55.1733 241.537 55.44C240.524 55.7067 239.324 55.44 237.937 54.64C237.297 53.0933 236.391 51.4667 235.217 49.76C234.044 48.0533 232.737 46.3733 231.297 44.72C229.857 43.0667 228.364 41.4933 226.817 40C225.271 38.5067 223.804 37.1733 222.417 36L223.137 35.28ZM183.217 11.52C186.897 12.9067 189.831 14.4533 192.017 16.16C194.257 17.8667 195.884 19.5733 196.897 21.28C197.911 22.9333 198.444 24.48 198.497 25.92C198.604 27.36 198.337 28.5333 197.697 29.44C197.111 30.3467 196.284 30.8533 195.217 30.96C194.204 31.0667 193.111 30.64 191.937 29.68C191.671 27.6533 191.031 25.5733 190.017 23.44C189.004 21.3067 187.804 19.2533 186.417 17.28C185.084 15.3067 183.724 13.5733 182.337 12.08L183.217 11.52ZM179.057 46.24C180.551 45.6533 182.604 44.8 185.217 43.68C187.831 42.5067 190.791 41.1467 194.097 39.6C197.457 38.0533 200.844 36.4533 204.257 34.8L204.737 35.68C202.817 37.6 200.364 39.9467 197.377 42.72C194.444 45.44 190.924 48.56 186.817 52.08C186.657 53.2 186.177 53.9733 185.377 54.4L179.057 46.24ZM227.697 2.16C227.644 2.69333 227.404 3.17333 226.977 3.59999C226.551 3.97333 225.831 4.24 224.817 4.4V61.6C224.817 62.6133 225.057 63.3333 225.537 63.76C226.017 64.1867 227.031 64.4 228.577 64.4H235.457C236.844 64.4 238.097 64.3733 239.217 64.32C240.337 64.2667 241.164 64.2133 241.697 64.16C242.124 64.16 242.497 64.1067 242.817 64C243.191 63.84 243.511 63.6267 243.777 63.36C244.204 62.8267 244.684 61.76 245.217 60.16C245.751 58.5067 246.284 56.72 246.817 54.8H247.697L248.017 63.6C249.191 64.0267 249.991 64.5067 250.417 65.04C250.897 65.5733 251.137 66.1867 251.137 66.88C251.137 68.0533 250.657 68.9867 249.697 69.68C248.791 70.3733 247.164 70.88 244.817 71.2C242.471 71.5733 239.137 71.76 234.817 71.76H226.977C224.524 71.76 222.577 71.52 221.137 71.04C219.697 70.56 218.684 69.7333 218.097 68.56C217.511 67.44 217.217 65.8667 217.217 63.84V1.04L227.697 2.16ZM211.297 2.08C211.244 2.61333 211.004 3.09333 210.577 3.52C210.204 3.89333 209.511 4.16 208.497 4.31999V33.92C208.444 38.6133 207.911 43.04 206.897 47.2C205.884 51.36 204.204 55.1733 201.857 58.64C199.564 62.1067 196.391 65.2 192.337 67.92C188.284 70.64 183.191 72.9333 177.057 74.8L176.417 73.68C181.217 71.4933 185.191 69.0133 188.337 66.24C191.537 63.4667 194.044 60.4267 195.857 57.12C197.671 53.76 198.951 50.16 199.697 46.32C200.497 42.4267 200.897 38.2667 200.897 33.84V1.04L211.297 2.08ZM256.897 27.76H316.657L321.617 21.44C321.617 21.44 321.911 21.68 322.497 22.16C323.137 22.5867 323.911 23.1733 324.817 23.92C325.724 24.6667 326.711 25.4667 327.777 26.32C328.844 27.1733 329.804 28 330.657 28.8C330.444 29.6533 329.697 30.08 328.417 30.08H257.537L256.897 27.76ZM265.297 7.84H309.617L314.417 1.84C314.417 1.84 314.711 2.08 315.297 2.56C315.884 2.98666 316.631 3.57333 317.537 4.31999C318.497 5.01333 319.457 5.76 320.417 6.56C321.431 7.36 322.337 8.13333 323.137 8.88C322.924 9.73333 322.204 10.16 320.977 10.16H265.937L265.297 7.84ZM298.657 28.96H306.417C306.417 29.4933 306.417 30.0267 306.417 30.56C306.417 31.04 306.417 31.4667 306.417 31.84V63.2C306.417 63.8933 306.604 64.3733 306.977 64.64C307.351 64.9067 308.204 65.04 309.537 65.04H316.417C317.804 65.04 319.031 65.04 320.097 65.04C321.164 65.04 321.991 65.0133 322.577 64.96C323.057 64.9067 323.404 64.8 323.617 64.64C323.884 64.48 324.124 64.16 324.337 63.68C324.604 63.1467 324.924 62.2667 325.297 61.04C325.671 59.76 326.044 58.2667 326.417 56.56C326.844 54.8533 327.297 53.04 327.777 51.12H328.737L328.977 64.32C330.097 64.7467 330.817 65.2267 331.137 65.76C331.511 66.24 331.697 66.88 331.697 67.68C331.697 68.7467 331.244 69.6267 330.337 70.32C329.484 71.0667 327.911 71.6 325.617 71.92C323.324 72.24 320.044 72.4 315.777 72.4H307.777C305.324 72.4 303.431 72.1867 302.097 71.76C300.764 71.3333 299.857 70.5867 299.377 69.52C298.897 68.5067 298.657 67.0667 298.657 65.2V28.96ZM278.417 29.04H287.137C286.871 34.64 286.231 39.8133 285.217 44.56C284.204 49.2533 282.577 53.52 280.337 57.36C278.097 61.2 275.031 64.5867 271.137 67.52C267.244 70.4 262.284 72.8533 256.257 74.88L255.857 73.92C260.497 71.2533 264.257 68.3733 267.137 65.28C270.071 62.1333 272.337 58.72 273.937 55.04C275.537 51.3067 276.657 47.28 277.297 42.96C277.937 38.64 278.311 34 278.417 29.04ZM392.497 2.16L402.817 3.28C402.764 3.81333 402.524 4.29333 402.097 4.72C401.724 5.09333 401.004 5.36 399.937 5.52V71.84C399.937 72.1067 399.644 72.4533 399.057 72.88C398.471 73.36 397.697 73.7333 396.737 74C395.831 74.32 394.897 74.48 393.937 74.48H392.497V2.16ZM373.377 8.88C376.844 9.46666 379.617 10.32 381.697 11.44C383.831 12.56 385.377 13.76 386.337 15.04C387.297 16.2667 387.804 17.4933 387.857 18.72C387.964 19.8933 387.724 20.88 387.137 21.68C386.551 22.48 385.751 22.96 384.737 23.12C383.724 23.28 382.604 22.96 381.377 22.16C381.057 20.6667 380.417 19.1467 379.457 17.6C378.551 16 377.484 14.5067 376.257 13.12C375.084 11.68 373.884 10.48 372.657 9.52L373.377 8.88ZM371.697 28.24C375.217 28.72 378.044 29.4933 380.177 30.56C382.311 31.5733 383.884 32.72 384.897 34C385.911 35.28 386.444 36.5067 386.497 37.68C386.604 38.8 386.364 39.7867 385.777 40.64C385.244 41.44 384.444 41.92 383.377 42.08C382.364 42.24 381.244 41.9467 380.017 41.2C379.644 39.76 378.977 38.2933 378.017 36.8C377.057 35.2533 375.937 33.7867 374.657 32.4C373.431 31.0133 372.204 29.84 370.977 28.88L371.697 28.24ZM337.057 24.88H360.417L364.337 19.44C364.337 19.44 364.737 19.7867 365.537 20.48C366.391 21.1733 367.377 22.0267 368.497 23.04C369.617 24.0533 370.604 25.0133 371.457 25.92C371.244 26.7733 370.524 27.2 369.297 27.2H337.697L337.057 24.88ZM361.857 0.719998L370.577 8.24C370.151 8.61333 369.537 8.82667 368.737 8.88C367.991 8.88 367.031 8.69333 365.857 8.32C363.511 9.01333 360.737 9.70666 357.537 10.4C354.337 11.0933 350.977 11.7067 347.457 12.24C343.937 12.7733 340.497 13.1733 337.137 13.44L336.817 12.4C339.804 11.44 342.871 10.2933 346.017 8.96C349.217 7.62667 352.204 6.24 354.977 4.8C357.804 3.30667 360.097 1.94667 361.857 0.719998ZM349.777 25.44H357.697V26.72C355.831 33.2267 353.084 39.2533 349.457 44.8C345.831 50.2933 341.457 55.1733 336.337 59.44L335.297 58.48C337.644 55.4933 339.724 52.1867 341.537 48.56C343.404 44.9333 345.031 41.1467 346.417 37.2C347.804 33.2 348.924 29.28 349.777 25.44ZM350.497 10.56L358.017 7.6V72.56C358.017 72.72 357.751 72.9867 357.217 73.36C356.684 73.7333 355.964 74.0533 355.057 74.32C354.151 74.64 353.084 74.8 351.857 74.8H350.497V10.56ZM357.377 31.92C360.471 32.9333 362.924 34.08 364.737 35.36C366.551 36.64 367.831 37.9467 368.577 39.28C369.377 40.56 369.777 41.76 369.777 42.88C369.777 43.9467 369.484 44.8267 368.897 45.52C368.364 46.16 367.644 46.5333 366.737 46.64C365.831 46.6933 364.871 46.32 363.857 45.52C363.537 44.0267 362.951 42.5067 362.097 40.96C361.297 39.36 360.391 37.84 359.377 36.4C358.417 34.9067 357.484 33.6 356.577 32.48L357.377 31.92ZM365.057 53.68L401.937 46.64L405.297 40C405.297 40 405.697 40.32 406.497 40.96C407.351 41.5467 408.364 42.2667 409.537 43.12C410.711 43.9733 411.751 44.7733 412.657 45.52C412.657 45.9467 412.471 46.32 412.097 46.64C411.777 46.9067 411.377 47.0933 410.897 47.2L366.097 55.84L365.057 53.68ZM444.257 15.28H478.337L482.897 9.44C482.897 9.44 483.164 9.68 483.697 10.16C484.231 10.5867 484.924 11.1467 485.777 11.84C486.684 12.5333 487.591 13.28 488.497 14.08C489.457 14.88 490.337 15.6267 491.137 16.32C491.031 16.7467 490.764 17.0667 490.337 17.28C489.964 17.4933 489.484 17.6 488.897 17.6H444.897L444.257 15.28ZM461.617 1.04L472.177 1.92C472.124 2.50666 471.884 2.98666 471.457 3.36C471.031 3.73333 470.284 4.02666 469.217 4.24V32.64H461.617V1.04ZM445.697 31.84H480.577V34.16H446.417L445.697 31.84ZM476.337 31.84H475.457L480.177 27.36L487.777 34.32C487.511 34.7467 487.137 35.0667 486.657 35.28C486.177 35.44 485.431 35.5467 484.417 35.6C482.017 41.84 478.791 47.5467 474.737 52.72C470.684 57.84 465.564 62.2667 459.377 66C453.191 69.68 445.697 72.5867 436.897 74.72L436.337 73.52C447.164 69.52 455.884 63.92 462.497 56.72C469.164 49.52 473.777 41.2267 476.337 31.84ZM452.257 32.24C453.697 36.9867 455.724 41.2533 458.337 45.04C461.004 48.7733 464.097 52.08 467.617 54.96C471.137 57.7867 475.004 60.2133 479.217 62.24C483.431 64.2667 487.831 65.92 492.417 67.2L492.257 68C490.551 68.2667 489.084 68.96 487.857 70.08C486.684 71.2 485.751 72.6933 485.057 74.56C479.297 72.1067 474.151 69.04 469.617 65.36C465.084 61.6267 461.271 57.0933 458.177 51.76C455.084 46.4267 452.711 40.1333 451.057 32.88L452.257 32.24ZM416.417 19.04H435.937L439.617 13.52C439.617 13.52 440.017 13.8933 440.817 14.64C441.617 15.3867 442.551 16.2667 443.617 17.28C444.684 18.24 445.617 19.1733 446.417 20.08C446.204 20.9333 445.484 21.36 444.257 21.36H417.057L416.417 19.04ZM427.217 0.399998L437.457 1.44C437.351 1.97333 437.057 2.45333 436.577 2.88C436.151 3.25333 435.457 3.52 434.497 3.68V65.36C434.497 67.1733 434.284 68.72 433.857 70C433.431 71.3333 432.524 72.3733 431.137 73.12C429.804 73.92 427.724 74.4533 424.897 74.72C424.791 73.6 424.631 72.5867 424.417 71.68C424.204 70.7733 423.831 70.0267 423.297 69.44C422.817 68.8533 422.124 68.3733 421.217 68C420.311 67.5733 419.057 67.2267 417.457 66.96V65.76C417.457 65.76 417.804 65.7867 418.497 65.84C419.191 65.8933 420.017 65.9467 420.977 66C421.937 66.0533 422.844 66.1067 423.697 66.16C424.604 66.2133 425.244 66.24 425.617 66.24C426.257 66.24 426.684 66.1333 426.897 65.92C427.111 65.7067 427.217 65.3333 427.217 64.8V0.399998ZM415.377 40.72C416.977 40.2933 419.297 39.5733 422.337 38.56C425.431 37.4933 428.897 36.2667 432.737 34.88C436.631 33.4933 440.577 32.0533 444.577 30.56L444.897 31.52C442.231 33.3333 438.897 35.6267 434.897 38.4C430.897 41.12 426.204 44.16 420.817 47.52C420.551 48.64 419.964 49.3867 419.057 49.76L415.377 40.72ZM532.577 47.04C537.271 48.1067 541.111 49.3067 544.097 50.64C547.084 51.9733 549.351 53.3333 550.897 54.72C552.497 56.1067 553.537 57.44 554.017 58.72C554.497 59.9467 554.577 60.9867 554.257 61.84C553.937 62.6933 553.324 63.2533 552.417 63.52C551.564 63.7333 550.604 63.5733 549.537 63.04C548.737 61.76 547.484 60.2933 545.777 58.64C544.124 56.9333 542.124 55.1733 539.777 53.36C537.431 51.5467 534.844 49.84 532.017 48.24L532.577 47.04ZM527.457 46.88V53.12H521.217V50L527.457 46.88ZM520.497 59.2C521.564 58.9333 523.031 58.56 524.897 58.08C526.764 57.6 528.844 57.04 531.137 56.4C533.484 55.7067 535.884 55.0133 538.337 54.32L538.657 55.52C537.591 56.1067 536.204 56.9067 534.497 57.92C532.791 58.9333 530.897 60.0267 528.817 61.2C526.791 62.3733 524.684 63.52 522.497 64.64L520.497 59.2ZM526.017 50.8L527.457 51.68V59.44L522.097 61.44L523.937 59.36C524.524 61.0667 524.551 62.4533 524.017 63.52C523.484 64.5867 522.924 65.28 522.337 65.6L518.497 60.24C519.671 59.44 520.417 58.8267 520.737 58.4C521.057 57.9733 521.217 57.4933 521.217 56.96V50.8H526.017ZM555.537 48.64C555.324 48.9067 555.004 49.0667 554.577 49.12C554.151 49.1733 553.591 49.0667 552.897 48.8C552.044 49.1733 550.951 49.6267 549.617 50.16C548.337 50.6933 547.031 51.2 545.697 51.68C544.364 52.16 543.164 52.6133 542.097 53.04L541.377 52.24C542.231 51.4933 543.164 50.5867 544.177 49.52C545.244 48.4 546.257 47.28 547.217 46.16C548.177 45.04 549.004 44.08 549.697 43.28L555.537 48.64ZM535.457 42.8C532.631 45.9467 528.951 48.64 524.417 50.88C519.937 53.0667 515.084 54.8533 509.857 56.24L509.137 54.96C513.191 53.3067 516.897 51.3333 520.257 49.04C523.671 46.6933 526.471 44.1867 528.657 41.52H535.457V42.8ZM550.817 19.84C550.817 19.84 551.191 20.1333 551.937 20.72C552.737 21.3067 553.671 22.0533 554.737 22.96C555.804 23.8133 556.764 24.64 557.617 25.44C557.404 26.2933 556.711 26.72 555.537 26.72H511.217L510.577 24.4H547.057L550.817 19.84ZM547.297 12.08C547.297 12.08 547.671 12.3733 548.417 12.96C549.164 13.5467 550.044 14.2667 551.057 15.12C552.071 15.92 553.031 16.72 553.937 17.52C553.724 18.3733 553.031 18.8 551.857 18.8H514.657L514.017 16.48H543.697L547.297 12.08ZM538.737 10.32C538.684 10.8 538.497 11.2 538.177 11.52C537.857 11.84 537.297 12.0533 536.497 12.16V25.44H529.537V9.44L538.737 10.32ZM522.897 44.4C522.897 44.6133 522.604 44.88 522.017 45.2C521.484 45.4667 520.791 45.7333 519.937 46C519.084 46.2133 518.231 46.32 517.377 46.32H516.417V31.52V28.64L523.297 31.52H546.897V33.84H522.897V44.4ZM543.377 31.52L546.497 28.32L552.977 33.2C552.764 33.4133 552.444 33.6533 552.017 33.92C551.644 34.1867 551.164 34.3467 550.577 34.4V43.44C550.577 43.6 550.257 43.84 549.617 44.16C548.977 44.4267 548.231 44.6667 547.377 44.88C546.577 45.0933 545.804 45.2 545.057 45.2H544.017V31.52H543.377ZM546.657 41.28V43.6H519.857V41.28H546.657ZM508.897 71.76C508.897 72.08 508.604 72.48 508.017 72.96C507.431 73.44 506.657 73.84 505.697 74.16C504.791 74.5333 503.777 74.72 502.657 74.72H501.377V5.2V1.6L509.537 5.2H560.977V7.52H508.897V71.76ZM557.937 5.2L561.857 0.879996L569.777 7.2C569.511 7.57333 569.084 7.89333 568.497 8.16C567.911 8.42666 567.217 8.64 566.417 8.8V71.52C566.417 71.7333 566.071 72.0533 565.377 72.48C564.684 72.9067 563.831 73.28 562.817 73.6C561.857 73.9733 560.897 74.16 559.937 74.16H558.737V5.2H557.937ZM561.297 66.24V68.56H505.617V66.24H561.297ZM588.337 7.04C588.337 7.62666 588.337 8.18666 588.337 8.72C588.337 9.25333 588.337 9.73333 588.337 10.16V61.76C588.337 62.9333 588.577 63.8667 589.057 64.56C589.591 65.2533 590.524 65.76 591.857 66.08C593.244 66.3467 595.191 66.48 597.697 66.48H617.697C621.644 66.48 625.137 66.4533 628.177 66.4C631.271 66.2933 633.431 66.2133 634.657 66.16C635.457 66.1067 636.204 66.0267 636.897 65.92C637.644 65.8133 638.284 65.7333 638.817 65.68C639.991 65.5733 641.297 65.2533 642.737 64.72H643.617L644.097 64.8C645.964 65.12 647.191 65.5467 647.777 66.08C648.417 66.56 648.737 67.1467 648.737 67.84C648.737 68.8 648.311 69.5733 647.457 70.16C646.604 70.8 645.057 71.2533 642.817 71.52C640.577 71.84 637.377 72.0533 633.217 72.16C629.111 72.2667 623.724 72.32 617.057 72.32H598.497C594.444 72.32 591.137 72.08 588.577 71.6C586.017 71.1733 584.151 70.2667 582.977 68.88C581.857 67.4933 581.297 65.44 581.297 62.72V7.04H588.337ZM638.897 0.319999C638.897 0.319999 639.164 0.533331 639.697 0.959995C640.231 1.38666 640.897 1.94666 641.697 2.64C642.551 3.28 643.404 4 644.257 4.8C645.164 5.54666 645.991 6.26667 646.737 6.96C646.524 7.81333 645.831 8.24 644.657 8.24H578.257L577.617 5.92H634.577L638.897 0.319999ZM634.737 39.76L637.937 36.32L644.897 41.6C644.684 41.8667 644.311 42.1333 643.777 42.4C643.297 42.6667 642.711 42.8533 642.017 42.96V59.68C642.017 59.84 641.697 60.08 641.057 60.4C640.471 60.6667 639.751 60.9333 638.897 61.2C638.044 61.4133 637.244 61.52 636.497 61.52H635.457V39.76H634.737ZM638.017 55.44V57.76H623.857V55.44H638.017ZM626.977 60.32C626.977 60.48 626.711 60.7467 626.177 61.12C625.644 61.44 624.951 61.7333 624.097 62C623.244 62.2133 622.364 62.32 621.457 62.32H620.497V39.76V36.96L627.377 39.76H638.737V42.08H626.977V60.32ZM607.777 39.76L610.977 36.48L617.617 41.52C617.404 41.7867 617.057 42.0533 616.577 42.32C616.151 42.5867 615.617 42.7467 614.977 42.8V60C614.977 60.16 614.657 60.4 614.017 60.72C613.431 60.9867 612.711 61.2533 611.857 61.52C611.057 61.7333 610.284 61.84 609.537 61.84H608.497V39.76H607.777ZM611.377 55.44V57.76H597.377V55.44H611.377ZM600.177 61.44C600.177 61.6533 599.911 61.92 599.377 62.24C598.844 62.56 598.151 62.8533 597.297 63.12C596.444 63.3867 595.564 63.52 594.657 63.52H593.777V39.76V36.96L600.497 39.76H611.457V42.08H600.177V61.44ZM625.617 14.48L629.137 10.72L636.657 16.4C636.444 16.6667 636.071 16.96 635.537 17.28C635.004 17.5467 634.391 17.7333 633.697 17.84V32.64C633.697 32.8 633.324 33.04 632.577 33.36C631.884 33.68 631.084 33.9733 630.177 34.24C629.271 34.4533 628.391 34.56 627.537 34.56H626.337V14.48H625.617ZM629.457 28.72V31.04H605.457V28.72H629.457ZM608.177 33.52C608.177 33.7333 607.857 34.0267 607.217 34.4C606.631 34.72 605.857 35.04 604.897 35.36C603.991 35.6267 603.031 35.76 602.017 35.76H600.977V14.48V11.36L608.577 14.48H629.297V16.8H608.177V33.52Z" fill="white"/>
</svg>
