<svg width="303" height="52" viewBox="0 0 303 52" fill="none" xmlns="http://www.w3.org/2000/svg">
<path d="M106.847 51.8097L109.708 47.9304L106.988 44.0801H108.429L110.502 46.9953L112.681 44.0801H113.835L111.082 47.815L113.903 51.8097H112.461L110.271 48.7444L108.007 51.8097H106.847Z" fill="#4D4D4D"/>
<path d="M115.322 51.8097V44.0801H116.544V51.8097H115.322Z" fill="#4D4D4D"/>
<path d="M118.757 51.8097V44.0801H119.956L124.292 50.049V44.0801H125.34V51.8097H124.146L119.804 45.8407V51.8097H118.757Z" fill="#4D4D4D"/>
<path d="M134.04 51.5956C132.998 51.8611 132.086 51.9997 131.309 51.9997C129.94 51.9997 128.887 51.6475 128.155 50.949C127.423 50.2505 127.057 49.2461 127.057 47.9415C127.057 46.6369 127.429 45.6613 128.167 44.9512C128.91 44.2412 129.946 43.8833 131.286 43.8833C132.165 43.8833 133.077 43.9988 134.023 44.2354V45.2514C132.835 44.8877 131.928 44.7088 131.292 44.7088C130.363 44.7088 129.636 44.9917 129.124 45.5574C128.611 46.1231 128.352 46.9255 128.352 47.953C128.352 48.9806 128.628 49.7656 129.18 50.3314C129.732 50.8971 130.504 51.1799 131.495 51.1799C131.9 51.1799 132.345 51.1164 132.818 50.9894V48.4726H134.034V51.6013L134.04 51.5956Z" fill="#4D4D4D"/>
<path d="M139.953 51.8097V44.0801H141.175V50.9899H145.049V51.8097H139.953Z" fill="#4D4D4D"/>
<path d="M146.305 51.8097V44.0801H147.527V51.8097H146.305Z" fill="#4D4D4D"/>
<path d="M155.4 51.8097L154.465 49.668H150.816L149.87 51.8097H148.732L152.15 44.0801H153.361L156.729 51.8097H155.405H155.4ZM154.11 48.8541L152.646 45.5232L151.171 48.8541H154.11Z" fill="#4D4D4D"/>
<path d="M157.968 51.8097V44.0801H159.167L163.503 50.049V44.0801H164.55V51.8097H163.357L159.015 45.8407V51.8097H157.968Z" fill="#4D4D4D"/>
<path d="M174.236 51.9997C172.896 51.9997 171.866 51.6475 171.133 50.9433C170.401 50.239 170.041 49.2403 170.041 47.9472C170.041 46.6542 170.413 45.6613 171.156 44.9512C171.899 44.2412 172.947 43.8833 174.298 43.8833C175.07 43.8833 175.976 43.9988 177.013 44.2239V45.2514C175.83 44.8877 174.923 44.703 174.281 44.703C173.347 44.703 172.62 44.9859 172.108 45.5516C171.595 46.1173 171.342 46.9197 171.342 47.953C171.342 48.9863 171.618 49.7137 172.164 50.2852C172.71 50.8567 173.459 51.1395 174.405 51.1395C175.222 51.1395 176.095 50.9144 177.024 50.4641V51.4051C176.174 51.7976 175.244 51.9939 174.242 51.9939L174.236 51.9997Z" fill="#4D4D4D"/>
<path d="M178.792 51.8097V44.0801H180.014V47.3416H184.114V44.0801H185.336V51.8097H184.114V48.1613H180.014V51.8097H178.792Z" fill="#4D4D4D"/>
<path d="M187.554 51.8097V44.0801H192.369V44.8998H188.776V47.382H191.783V48.1902H188.776V50.9899H192.617V51.8097H187.554Z" fill="#4D4D4D"/>
<path d="M194.013 51.8097V44.0801H195.213L199.549 50.049V44.0801H200.596V51.8097H199.403L195.061 45.8407V51.8097H194.013Z" fill="#4D4D4D"/>
<path d="M209.291 51.5956C208.249 51.8611 207.337 51.9997 206.56 51.9997C205.191 51.9997 204.138 51.6475 203.406 50.949C202.674 50.2505 202.308 49.2461 202.308 47.9415C202.308 46.6369 202.68 45.6613 203.418 44.9512C204.161 44.2412 205.197 43.8833 206.537 43.8833C207.416 43.8833 208.328 43.9988 209.274 44.2354V45.2514C208.086 44.8877 207.179 44.7088 206.543 44.7088C205.614 44.7088 204.887 44.9917 204.375 45.5574C203.862 46.1231 203.603 46.9255 203.603 47.953C203.603 48.9806 203.879 49.7656 204.431 50.3314C204.983 50.8971 205.755 51.1799 206.746 51.1799C207.151 51.1799 207.596 51.1164 208.069 50.9894V48.4726H209.285V51.6013L209.291 51.5956Z" fill="#4D4D4D"/>
<path d="M215.21 51.8097V44.0801H218.076C218.932 44.0801 219.619 44.1667 220.143 44.3341C220.666 44.5073 221.123 44.7959 221.506 45.2C222.114 45.8465 222.418 46.7009 222.418 47.7573C222.418 49.0446 222.04 50.0375 221.286 50.7475C220.531 51.4518 219.461 51.8097 218.087 51.8097H215.204H215.21ZM216.432 50.9899H217.997C219.112 50.9899 219.906 50.7186 220.374 50.1818C220.875 49.6045 221.123 48.8367 221.123 47.8669C221.123 46.9606 220.875 46.2448 220.385 45.7253C220.086 45.4078 219.732 45.1942 219.315 45.073C218.898 44.9575 218.273 44.8998 217.44 44.8998H216.432V50.9899Z" fill="#4D4D4D"/>
<path d="M224.135 51.8097V44.0801H228.95V44.8998H225.357V47.382H228.364V48.1902H225.357V50.9899H229.198V51.8097H224.135Z" fill="#4D4D4D"/>
<path d="M232.948 51.8097L229.693 44.0801H230.915L233.579 50.4127L236.152 44.0801H237.222L234.097 51.8097H232.942H232.948Z" fill="#4D4D4D"/>
<path d="M238.388 51.8097V44.0801H243.203V44.8998H239.61V47.382H242.617V48.1902H239.61V50.9899H243.45V51.8097H238.388Z" fill="#4D4D4D"/>
<path d="M244.853 51.8097V44.0801H246.075V50.9899H249.949V51.8097H244.847H244.853Z" fill="#4D4D4D"/>
<path d="M254.679 51.9997C253.485 51.9997 252.522 51.6302 251.796 50.8855C251.069 50.1409 250.703 49.1595 250.703 47.9357C250.703 46.7119 251.069 45.7248 251.801 44.9859C252.534 44.247 253.508 43.8833 254.73 43.8833C255.952 43.8833 256.926 44.2528 257.658 44.9859C258.39 45.719 258.756 46.7004 258.756 47.9242C258.756 49.148 258.39 50.1639 257.658 50.8971C256.926 51.6302 255.929 51.9939 254.679 51.9939V51.9997ZM254.696 51.1799C255.574 51.1799 256.256 50.8971 256.74 50.3256C257.219 49.7541 257.461 48.9517 257.461 47.9126C257.461 46.8735 257.219 46.1173 256.734 45.5516C256.25 44.9859 255.586 44.703 254.73 44.703C253.874 44.703 253.204 44.9859 252.719 45.5574C252.241 46.1289 251.999 46.9197 251.999 47.9299C251.999 48.9401 252.235 49.731 252.714 50.314C253.192 50.8913 253.851 51.1799 254.69 51.1799H254.696Z" fill="#4D4D4D"/>
<path d="M260.468 51.8097V44.0801H262.816C263.858 44.0801 264.602 44.2359 265.058 44.5534C265.514 44.8709 265.739 45.3847 265.739 46.1063C265.739 46.926 265.429 47.5725 264.81 48.0401C264.191 48.5077 263.329 48.7386 262.225 48.7386H261.685V51.8097H260.474H260.468ZM261.679 47.9073H262.175C262.901 47.9073 263.458 47.7573 263.858 47.4571C264.252 47.1569 264.45 46.7355 264.45 46.1871C264.45 45.7253 264.292 45.3905 263.982 45.1942C263.672 44.9979 263.154 44.894 262.428 44.894H261.679V47.9016V47.9073Z" fill="#4D4D4D"/>
<path d="M267.057 51.8097V44.0801H268.752L271.139 50.0605L273.595 44.0801H275.11V51.8097H273.966V45.5232L271.59 51.2959H270.407L268.104 45.5117V51.8154H267.057V51.8097Z" fill="#4D4D4D"/>
<path d="M277.323 51.8097V44.0801H282.138V44.8998H278.545V47.382H281.552V48.1902H278.545V50.9899H282.385V51.8097H277.323Z" fill="#4D4D4D"/>
<path d="M283.787 51.8097V44.0801H284.987L289.323 50.049V44.0801H290.37V51.8097H289.176L284.835 45.8407V51.8097H283.787Z" fill="#4D4D4D"/>
<path d="M294.639 51.8097V44.8998H291.581V44.0801H298.913V44.8998H295.855V51.8097H294.633H294.639Z" fill="#4D4D4D"/>
<path d="M115.648 25.5442V1.68589H131.472V25.5442H136.557L136.597 21.0243H132.914V17.5318H136.721L136.799 13.3005H132.874V9.80801H136.878L136.918 5.90569H132.711V2.25738H140.403L139.925 25.5385H142.087V29.0309H105.354V25.5385H107.596L107.156 3.15791C109.854 2.85774 112.095 2.25738 113.886 1.35107L115.367 4.67612C114.646 4.9763 113.807 5.25339 112.844 5.49584L110.8 6.02692L110.839 9.80223H114.207V13.2947H110.924L111.003 17.5664H114.449V21.0589H111.081L111.121 25.5327H115.648V25.5442ZM120.013 31.8249C116.837 34.3706 112.906 36.3449 108.238 37.7361L105.715 34.3706C110.124 33.1641 113.942 31.5074 117.174 29.4004L120.018 31.8249H120.013ZM128.223 25.5442V5.05134H118.892V25.5442H128.223ZM127.384 6.939V9.85419H119.77V6.939H127.384ZM126.905 11.8688V23.4892H120.255V11.8688H126.905ZM124.54 14.8244H122.62V20.5336H124.54V14.8244ZM139.683 37.6957L133.393 34.6189C131.416 33.7125 129.389 32.8409 127.305 31.9923L129.71 29.4062C130.138 29.5447 130.498 29.6544 130.791 29.7352C133.702 30.6646 136.771 31.9115 140.004 33.4701C140.51 33.7183 141.164 34.03 141.969 34.4168L139.683 37.7014V37.6957Z" fill="#4D4D4D"/>
<path d="M283.815 5.38054C282.588 6.96802 281.309 8.24955 279.992 9.21935C278.668 10.1892 276.422 11.1705 273.24 12.1576H281.129V21.7287H273.476L273.037 25.3828H281.692L281.332 30.9649C281.332 32.6101 281.141 33.8859 280.752 34.8037C280.363 35.7216 279.772 36.3854 278.967 36.7953C278.167 37.2052 276.016 37.413 272.519 37.413H271.438C270.452 37.413 269.85 37.3957 269.636 37.3726L268.476 33.7589C269.061 33.7878 269.546 33.7993 269.917 33.7993C272.587 33.909 274.31 33.9609 275.087 33.9609C276.714 33.9609 277.559 33.3317 277.61 32.0733C277.638 31.496 277.705 30.5666 277.812 29.2793C277.812 29.008 277.841 28.679 277.891 28.2922H268.96L270.081 18.8077H277.531V15.1132H271.584L270.16 13.3872L267.755 14.0453L265.711 10.6798L268.633 10.1488C269.304 9.98712 270.238 9.68117 271.438 9.24245L270.114 7.96669L268.594 6.5293L271.596 4.84369C271.81 5.03418 271.984 5.18427 272.119 5.29395C273.375 6.36189 274.231 7.26243 274.681 8.00133C276.602 7.51065 278.46 6.34457 280.251 4.50887H270.599V1.27619H284.66C285.567 2.48267 286.676 3.61411 287.983 4.68205C288.225 4.46269 288.422 4.28374 288.585 4.15097C289.441 3.38321 290.269 2.42495 291.069 1.27619C291.119 1.19537 291.215 1.06837 291.35 0.906738L294.436 2.79439L292.752 4.72246L290.787 6.73712L292.189 7.43561L293.631 8.21491L294.312 7.51642C295.461 6.28685 296.3 5.23045 296.835 4.35301C296.886 4.24333 296.981 4.09324 297.116 3.90274L300.202 5.50177C299.988 5.80195 299.831 6.03285 299.724 6.20026C299.031 7.21625 298.322 8.08792 297.601 8.82681L297.038 9.40408C297.201 9.46181 297.33 9.50221 297.437 9.5253C298.958 10.0737 300.377 10.4432 301.683 10.6337C301.79 10.6337 301.926 10.6625 302.083 10.7145L300.439 14.2877L298.434 13.7105L296.39 12.9716V16.135C296.39 16.9316 296.536 17.4396 296.829 17.6763C297.122 17.9072 297.697 18.0226 298.552 18.0226H299.651L301.075 20.9782H296.306C293.957 20.9782 292.78 19.9796 292.78 17.9822V15.1075H289.216C289.216 17.6243 287.746 19.8872 284.812 21.8846L281.766 19.5409C284.384 18.3344 285.691 16.3544 285.691 13.5835V12.1461H294.746C290.528 10.9165 286.879 8.65364 283.81 5.369L283.815 5.38054ZM299.836 25.1346C298.338 27.8419 296.565 30.1163 294.509 31.9521C296.086 32.8814 297.421 33.6781 300.889 34.3362L299.836 37.6612C296.925 36.8415 294.109 35.6927 291.384 34.2092C289.357 35.4965 287.098 36.5355 284.615 37.3322C284.401 37.3841 284.136 37.4707 283.815 37.5804L282.515 34.4574C285.584 33.7993 286.794 32.9623 288.264 31.9521C287.701 31.5422 286.958 30.8726 286.023 29.9374L283.782 27.6803L288.692 27.8823L288.946 28.1363C289.638 28.7655 290.427 29.4121 291.311 30.0644C293.045 28.7251 294.408 27.23 295.399 25.5906H283.579V22.3464H299.842V25.1403L299.836 25.1346Z" fill="#4D4D4D"/>
<path d="M195.523 22.4208L194.16 23.3271L192.797 24.1468V14.0851H195.883V10.5522H192.797V0.409668H189.232V10.5522H185.589V14.0851H189.232V25.7862C188.855 26.0056 188.269 26.2654 187.47 26.5655L185.347 27.3449L185.989 31.6974C190.584 29.4519 193.76 27.7143 195.523 26.4847V22.4208Z" fill="#4D4D4D"/>
<path d="M222.243 5.09148H221.055V5.10302H213.61V0H210.029V5.09148H197.251V15.5227C197.251 20.3659 196.919 24.1239 196.249 26.7966C195.579 29.4636 195.483 29.6714 194.582 31.9112L194.346 37.1355C197.601 32.6155 200.698 25.9077 200.855 16.8446H204.859C204.78 22.0746 204.617 25.0648 204.381 25.8153C204.139 26.5657 203.711 26.9467 203.097 26.9467L200.214 26.7851L201.413 30.7278C201.548 30.7567 201.655 30.7682 201.734 30.7682H202.534C204.538 30.7682 205.879 30.4738 206.56 29.885C207.241 29.2962 207.703 27.9281 207.94 25.7807C208.182 23.6332 208.3 20.0542 208.3 15.0435V13.3579H200.85V8.59548H210.102C210.395 10.5928 210.541 13.456 210.541 17.1794C210.541 20.4121 210.941 23.6679 211.741 26.9525C209.657 29.8561 207.895 31.79 205.282 33.5391L205.597 34.6648L206.414 37.4645C208.869 35.496 210.806 33.6603 212.219 31.9632C212.433 31.6918 212.715 31.3628 213.058 30.976C214.624 35.0054 219.315 37.4934 221.134 37.9436L221.213 33.2043C216.747 31.357 216.567 30.6932 215.621 27.4836C217.839 23.8699 219.67 19.298 221.111 13.7678L217.744 12.5382C217.637 12.9481 217.558 13.2771 217.502 13.5253C216.646 17.0005 215.66 19.9445 214.54 22.3517C214.112 19.5866 213.898 17.1505 213.898 15.0435C213.898 12.798 213.819 10.6505 213.655 8.59548H222.226V5.10302L222.243 5.09148Z" fill="#4D4D4D"/>
<path d="M180.262 33.3831C177.322 33.5216 174.253 33.5909 171.049 33.5909C165.091 33.5909 160.907 33.3023 158.491 32.7308C156.075 32.1535 154.307 30.7334 153.181 28.459C153.502 27.8009 153.795 26.7214 154.065 25.2148L154.544 22.0918V19.7943H150.258C151.993 17.11 153.384 14.4834 154.425 11.9088V9.15527H145.691V12.3995H150.698C149.977 14.0678 148.603 16.4808 146.57 19.6269L146.17 20.2445V22.9981H151.058C150.258 28.1184 148.349 32.0727 145.331 34.8667L147.854 37.7818L148.254 37.372C149.723 35.8365 150.912 33.9892 151.818 31.8302C153.074 34.0469 154.853 35.467 157.168 36.0789C159.477 36.6966 164.387 37.0025 171.888 37.0025H181.54L182.182 33.2676C181.433 33.3485 180.791 33.3889 180.262 33.3889V33.3831Z" fill="#4D4D4D"/>
<path d="M149.014 5.21275L151.418 8.12794L154.02 5.5822C152.578 3.93699 151.137 2.4996 149.695 1.27003C149.453 1.07953 149.149 0.819764 148.772 0.490723L146.406 2.4592C147.369 3.35973 148.237 4.27758 149.008 5.21275H149.014Z" fill="#4D4D4D"/>
<path d="M170.328 25.417V22.9116H180.222V8.41652H170.328V6.24023H181.506V2.99601H170.328V0H166.803V2.99601H156.07V6.24023H166.803V8.41652H157.19V22.9116H166.803V25.417H155.467V28.6208H166.803V32.5231H170.328V28.6208H181.827V25.417H170.328ZM166.803 14.0853H162.259L161.786 17.0005H166.803V19.9965H160.552V17.0005V14.0853V11.3779H166.803V14.0853ZM170.323 17.2602V12.8441H170.328V11.3779H176.861V14.0853H172.023L171.55 17.0005H176.861V19.9965H170.328" fill="#4D4D4D"/>
<path d="M245.196 1.31592V15.0721H257.456V32.442C257.456 33.2906 256.999 33.712 256.093 33.712L252.089 33.5504L253.013 37.2045H257.377C259.888 37.2045 261.144 35.946 261.144 33.4292V1.31592H245.202H245.196ZM257.456 6.81725H250.428L249.955 9.36299H257.456V11.9895H248.721V9.36299V6.81725V4.35233H257.456V6.81725Z" fill="#4D4D4D"/>
<path d="M226.973 1.27588V37.7417H230.656V15.0321H242.752V1.27588H226.968H226.973ZM239.193 6.77721H232.368L231.895 9.32295H239.199V11.9495H230.667V9.32295V6.77721V4.31229H239.199V6.77721H239.193Z" fill="#4D4D4D"/>
<path d="M249.527 24.6373V20.4925H254.015V17.3291H233.466V20.4925H238.275V24.6373H232.267V27.8815H237.994C237.701 30.3753 236.135 32.3842 233.308 33.9197C233.066 34.0582 232.773 34.2199 232.43 34.4104L235.155 36.9965C239.266 34.6701 241.389 31.6337 241.524 27.8815H244.943L244.47 24.6373H241.643V20.4925H246.17V23.8868V28.3029V36.6271H249.538V27.8815H255.225V24.6373H249.538H249.527Z" fill="#4D4D4D"/>
<path d="M219.715 2.23975H216.004V6.04392H219.715V2.23975Z" fill="#4D4D4D"/>
<path d="M73.4194 1.68579H68.8018H64.6796C64.6796 1.68579 63.8012 1.4722 62.8213 3.05968C62.1118 4.20843 46.6032 27.5415 38.1112 40.3164C29.6136 27.5473 14.0994 4.20266 13.3899 3.0539C12.41 1.46642 11.5316 1.68001 11.5316 1.68001H2.79743C0.280246 1.69733 0.894056 3.25017 1.25446 3.80435C8.53571 15.0206 29.8389 47.7688 31.0778 49.0388C32.3166 50.3088 33.4485 50.2569 33.4485 50.2569H33.5048C33.5499 50.2569 33.5893 50.2684 33.6344 50.2684H42.7627C42.7627 50.2684 43.8946 50.3204 45.1334 49.0504C46.3723 47.7804 67.5629 15.1765 74.9286 3.7928C75.2834 3.25017 75.931 1.70888 73.4138 1.69156L73.4194 1.68579Z" fill="#004552"/>
<path d="M86.3881 1.63363H82.266C82.266 1.63363 81.3875 1.42004 80.4076 3.00752C79.4278 4.595 55.3991 40.6683 50.2408 48.4671C49.8692 49.0271 49.8016 49.8526 51.1587 50.1989C51.6881 50.3317 52.9889 50.2509 54.3967 50.2509C57.0772 50.2509 60.349 50.2163 60.349 50.2163C60.349 50.2163 61.4809 50.2682 62.7198 48.9982C63.9586 47.7282 85.2449 14.9742 92.5431 3.76373C92.9035 3.21533 93.5173 1.65672 91.0001 1.63363H86.3881Z" fill="#004552"/>
<path d="M31.1284 3.04218C30.1486 1.45471 29.2701 1.66829 29.2701 1.66829H20.536C18.0188 1.68561 18.6326 3.24423 18.993 3.79263C23.391 10.4831 28.431 18.1203 36.8216 30.8721C37.4805 31.8766 38.5786 31.8939 39.2656 30.9068C40.7917 28.7074 42.4022 26.0981 44.0128 23.7602C44.2775 23.3735 44.2831 22.7442 44.0241 22.3517C36.6414 11.2567 31.624 3.84458 31.1284 3.04218Z" fill="#004552"/>
<path d="M46.1019 17.9529L36.3936 3.37697C35.9262 2.6727 36.4161 1.72021 37.2496 1.72021H56.6662C57.4997 1.72021 57.9896 2.6727 57.5222 3.37697L47.8139 17.9587C47.4028 18.5764 46.5187 18.5764 46.1076 17.9587L46.1019 17.9529Z" fill="#BB7430"/>
</svg>
