<svg width="557" height="183" viewBox="0 0 557 183" fill="none" xmlns="http://www.w3.org/2000/svg">
<path d="M65.28 21.92C65.0667 22.3467 64.6933 22.6933 64.16 22.96C63.6267 23.1733 62.9333 23.1733 62.08 22.96C59.6267 26.9067 56.72 30.16 53.36 32.72C50 35.28 46.48 37.2533 42.8 38.64L41.92 37.6C44.96 35.68 47.92 33.04 50.8 29.68C53.68 26.32 56.0533 22.5067 57.92 18.24L65.28 21.92ZM57.68 2.56C57.52 3.14666 57.1733 3.6 56.64 3.92C56.1067 4.18666 55.4133 4.31999 54.56 4.31999C53.5467 5.33333 52.32 6.50667 50.88 7.84C49.4933 9.12 48.24 10.2667 47.12 11.28H44.72C45.2 9.89333 45.7067 8.13333 46.24 6C46.8267 3.86666 47.3067 2 47.68 0.399998L57.68 2.56ZM68.8 39.44V41.76H36V39.44H68.8ZM32.72 6.88L40.08 9.92H64.88L68.16 6L75.04 11.28C74.7733 11.6533 74.4 11.9467 73.92 12.16C73.44 12.3733 72.7733 12.56 71.92 12.72V42.88C71.92 43.0933 71.3867 43.44 70.32 43.92C69.3067 44.4 67.9733 44.64 66.32 44.64H65.28V12.24H39.2V44.32C39.2 44.5867 38.72 44.96 37.76 45.44C36.8 45.92 35.4933 46.16 33.84 46.16H32.72V9.92V6.88ZM41.36 17.6C46.32 19.6267 50.2933 21.68 53.28 23.76C56.2667 25.84 58.4533 27.7867 59.84 29.6C61.2267 31.4133 62 32.96 62.16 34.24C62.32 35.52 62.0267 36.4267 61.28 36.96C60.5867 37.44 59.6267 37.3333 58.4 36.64C57.6533 35.2533 56.5867 33.76 55.2 32.16C53.8133 30.5067 52.24 28.8533 50.48 27.2C48.7733 25.4933 47.04 23.8933 45.28 22.4C43.5733 20.9067 41.9733 19.5733 40.48 18.4L41.36 17.6ZM56.64 15.6C56.48 16.0267 56.16 16.3733 55.68 16.64C55.2 16.9067 54.5333 16.9867 53.68 16.88C52.08 19.8133 50.1867 22.3733 48 24.56C45.8667 26.7467 43.6 28.5333 41.2 29.92L40.08 28.96C41.84 27.0933 43.52 24.7467 45.12 21.92C46.72 19.04 48.0267 15.9733 49.04 12.72L56.64 15.6ZM34.56 50.48C35.7867 54.4267 36.1333 57.7867 35.6 60.56C35.12 63.3333 34.2667 65.36 33.04 66.64C32.4533 67.2267 31.76 67.6267 30.96 67.84C30.16 68 29.36 67.9733 28.56 67.76C27.8133 67.5467 27.2267 67.0933 26.8 66.4C26.3733 65.3867 26.3733 64.4267 26.8 63.52C27.2267 62.56 27.8933 61.7867 28.8 61.2C29.5467 60.6133 30.2667 59.7333 30.96 58.56C31.7067 57.3867 32.2933 56.1067 32.72 54.72C33.1467 53.28 33.3067 51.8667 33.2 50.48H34.56ZM48.48 48.32C48.32 49.3867 47.52 50.0267 46.08 50.24V64.88C46.08 65.36 46.2133 65.7067 46.48 65.92C46.8 66.08 47.4933 66.16 48.56 66.16H54.4C55.6267 66.16 56.72 66.16 57.68 66.16C58.64 66.16 59.3067 66.1333 59.68 66.08C60.4267 66.0267 60.96 65.7067 61.28 65.12C61.6 64.5333 61.9733 63.4133 62.4 61.76C62.88 60.1067 63.3867 58.2667 63.92 56.24H64.88L65.12 65.44C66.08 65.8133 66.72 66.24 67.04 66.72C67.36 67.1467 67.52 67.6533 67.52 68.24C67.52 69.2 67.12 70 66.32 70.64C65.5733 71.28 64.2133 71.7333 62.24 72C60.2667 72.2667 57.4667 72.4 53.84 72.4H46.88C44.7467 72.4 43.12 72.2133 42 71.84C40.88 71.52 40.1333 70.9067 39.76 70C39.44 69.0933 39.28 67.8667 39.28 66.32V47.44L48.48 48.32ZM64.8 48.8C67.7867 50.0267 70.1333 51.3867 71.84 52.88C73.5467 54.3733 74.7467 55.84 75.44 57.28C76.1867 58.72 76.5333 60.0533 76.48 61.28C76.4267 62.4533 76.1067 63.4133 75.52 64.16C74.9333 64.9067 74.16 65.3333 73.2 65.44C72.2933 65.4933 71.3333 65.0933 70.32 64.24C70.16 62.5333 69.7333 60.8 69.04 59.04C68.4 57.2267 67.6267 55.4933 66.72 53.84C65.8133 52.1333 64.88 50.64 63.92 49.36L64.8 48.8ZM49.28 44.24C52.0533 45.4133 54.2133 46.6667 55.76 48C57.3067 49.3333 58.3733 50.6933 58.96 52.08C59.5467 53.4133 59.7333 54.64 59.52 55.76C59.36 56.8267 58.96 57.7067 58.32 58.4C57.68 59.04 56.88 59.36 55.92 59.36C55.0133 59.36 54.08 58.9067 53.12 58C53.1733 56.5067 52.96 54.96 52.48 53.36C52.0533 51.76 51.4667 50.2133 50.72 48.72C50.0267 47.2267 49.2533 45.92 48.4 44.8L49.28 44.24ZM31.76 19.6C31.4933 20.08 30.9333 20.4267 30.08 20.64C29.28 20.8 28.2667 20.56 27.04 19.92L29.36 19.36C28.1867 21.1733 26.6667 23.2 24.8 25.44C22.9867 27.6267 20.96 29.8933 18.72 32.24C16.5333 34.5333 14.2667 36.7467 11.92 38.88C9.57333 40.96 7.28 42.7733 5.04 44.32L4.88 43.36H8.56C8.29333 45.5467 7.78667 47.2533 7.04 48.48C6.29333 49.7067 5.46667 50.48 4.56 50.8L1.52 42.24C1.52 42.24 1.86667 42.16 2.56 42C3.25333 41.7867 3.76 41.5733 4.08 41.36C5.73333 39.9733 7.49333 38.16 9.36 35.92C11.2267 33.6267 13.0667 31.1467 14.88 28.48C16.6933 25.8133 18.32 23.2267 19.76 20.72C21.2 18.16 22.32 15.8933 23.12 13.92L31.76 19.6ZM24.56 5.2C24.3467 5.68 23.84 6.05333 23.04 6.32C22.2933 6.53333 21.2533 6.4 19.92 5.92L22.24 5.36C21.0667 7.33333 19.52 9.57333 17.6 12.08C15.68 14.5333 13.6267 16.9333 11.44 19.28C9.25333 21.5733 7.12 23.5467 5.04 25.2L4.96 24.32H8.72C8.56 26.4 8.13333 28.0533 7.44 29.28C6.74667 30.5067 5.97333 31.3067 5.12 31.68L1.76 23.2C1.76 23.2 2.02667 23.12 2.56 22.96C3.14667 22.8 3.57333 22.6133 3.84 22.4C4.90667 21.28 6 19.8133 7.12 18C8.24 16.1867 9.33333 14.2133 10.4 12.08C11.4667 9.94666 12.4267 7.86667 13.28 5.84C14.1333 3.81333 14.7733 2.02666 15.2 0.479997L24.56 5.2ZM8.32 52.32C9.76 56.5333 10.2933 60.16 9.92 63.2C9.54667 66.1867 8.74667 68.3733 7.52 69.76C6.93333 70.3467 6.21333 70.7733 5.36 71.04C4.56 71.3067 3.76 71.3067 2.96 71.04C2.16 70.8267 1.54667 70.3467 1.12 69.6C0.64 68.5867 0.613333 67.6 1.04 66.64C1.46667 65.6267 2.16 64.7733 3.12 64.08C3.81333 63.3867 4.48 62.4267 5.12 61.2C5.76 59.92 6.26667 58.5067 6.64 56.96C7.06667 55.36 7.17333 53.8133 6.96 52.32H8.32ZM21.92 49.12C24.6933 50.0267 26.72 51.12 28 52.4C29.28 53.6267 30.0267 54.8267 30.24 56C30.5067 57.1733 30.3733 58.1867 29.84 59.04C29.36 59.8933 28.64 60.4 27.68 60.56C26.72 60.72 25.7333 60.4 24.72 59.6C24.72 57.8933 24.32 56.1067 23.52 54.24C22.7733 52.3733 21.9467 50.8267 21.04 49.6L21.92 49.12ZM14.88 51.04C17.1733 53.12 18.7733 55.1733 19.68 57.2C20.64 59.1733 21.0667 60.9867 20.96 62.64C20.8533 64.24 20.4267 65.52 19.68 66.48C18.9333 67.44 18.0533 67.9467 17.04 68C16.0267 68 15.0667 67.4133 14.16 66.24C14.64 63.7867 14.8 61.2 14.64 58.48C14.48 55.76 14.1867 53.36 13.76 51.28L14.88 51.04ZM21.28 32.88C24.32 34.5867 26.56 36.3467 28 38.16C29.44 39.92 30.2933 41.6 30.56 43.2C30.88 44.8 30.7733 46.1333 30.24 47.2C29.76 48.2133 29.0133 48.8267 28 49.04C26.9867 49.2 25.9467 48.7733 24.88 47.76C24.8267 46.16 24.56 44.5067 24.08 42.8C23.6 41.04 23.0133 39.3333 22.32 37.68C21.68 36.0267 21.0133 34.5867 20.32 33.36L21.28 32.88ZM2.8 42.48C4.24 42.4267 6.24 42.32 8.8 42.16C11.36 42 14.2667 41.8133 17.52 41.6C20.7733 41.3333 24.08 41.0933 27.44 40.88L27.52 42C25.28 42.8 22.16 43.92 18.16 45.36C14.16 46.7467 9.81333 48.1067 5.12 49.44L2.8 42.48ZM2.72 23.44C3.94667 23.4933 5.6 23.5467 7.68 23.6C9.81333 23.6 12.16 23.6 14.72 23.6C17.28 23.5467 19.8667 23.4933 22.48 23.44V24.56C20.88 25.2 18.5067 26.08 15.36 27.2C12.2667 28.2667 8.96 29.3333 5.44 30.4L2.72 23.44ZM134.8 46.72V69.2H127.04V46.72H134.8ZM151.76 14.32C151.653 14.64 151.387 14.9067 150.96 15.12C150.587 15.3333 150.053 15.36 149.36 15.2C148.613 15.8933 147.493 16.8533 146 18.08C144.56 19.3067 143.013 20.5867 141.36 21.92C139.76 23.2 138.347 24.32 137.12 25.28C140.48 26.4 143.12 27.6533 145.04 29.04C147.013 30.4267 148.4 31.7867 149.2 33.12C150.053 34.4 150.48 35.6 150.48 36.72C150.48 37.84 150.187 38.7733 149.6 39.52C149.013 40.2133 148.24 40.6133 147.28 40.72C146.32 40.8267 145.36 40.56 144.4 39.92C144.08 38.5333 143.467 36.9867 142.56 35.28C141.707 33.52 140.64 31.7867 139.36 30.08C138.08 28.32 136.613 26.8 134.96 25.52C135.813 24.1333 136.773 22.5067 137.84 20.64C138.96 18.72 140 16.88 140.96 15.12C141.92 13.36 142.587 12.0267 142.96 11.12L151.76 14.32ZM138.56 14.24C138.4 14.56 138.107 14.8267 137.68 15.04C137.253 15.2 136.72 15.2267 136.08 15.12C135.387 15.8133 134.32 16.8 132.88 18.08C131.493 19.36 130 20.6933 128.4 22.08C126.853 23.4667 125.467 24.6667 124.24 25.68C127.493 26.96 130.027 28.32 131.84 29.76C133.653 31.2 134.933 32.6133 135.68 34C136.48 35.3333 136.827 36.56 136.72 37.68C136.667 38.8 136.347 39.7333 135.76 40.48C135.173 41.1733 134.4 41.5733 133.44 41.68C132.533 41.7867 131.6 41.4933 130.64 40.8C130.373 39.4133 129.867 37.84 129.12 36.08C128.373 34.2667 127.413 32.48 126.24 30.72C125.067 28.9067 123.707 27.3067 122.16 25.92C122.96 24.5333 123.867 22.8533 124.88 20.88C125.947 18.9067 126.907 17.0133 127.76 15.2C128.667 13.3867 129.307 12 129.68 11.04L138.56 14.24ZM125.92 13.76C125.76 14.08 125.467 14.3467 125.04 14.56C124.667 14.72 124.133 14.7733 123.44 14.72C122.693 15.4133 121.627 16.4533 120.24 17.84C118.853 19.1733 117.387 20.56 115.84 22C114.347 23.44 112.987 24.6933 111.76 25.76C114.907 27.1467 117.36 28.6133 119.12 30.16C120.88 31.6533 122.107 33.0933 122.8 34.48C123.493 35.8667 123.787 37.1467 123.68 38.32C123.627 39.44 123.28 40.3733 122.64 41.12C122 41.8133 121.227 42.2133 120.32 42.32C119.413 42.3733 118.48 42.0533 117.52 41.36C117.307 39.9733 116.853 38.3733 116.16 36.56C115.52 34.6933 114.64 32.8267 113.52 30.96C112.453 29.0933 111.173 27.44 109.68 26C110.267 24.88 110.933 23.6 111.68 22.16C112.427 20.72 113.147 19.28 113.84 17.84C114.587 16.3467 115.227 14.96 115.76 13.68C116.347 12.4 116.773 11.4133 117.04 10.72L125.92 13.76ZM145.36 40.88C145.36 40.88 145.76 41.2 146.56 41.84C147.36 42.48 148.293 43.2533 149.36 44.16C150.48 45.0667 151.493 45.9467 152.4 46.8C152.187 47.6533 151.467 48.08 150.24 48.08H113.28L112.64 45.76H141.52L145.36 40.88ZM148.4 61.68C148.4 61.68 148.667 61.8933 149.2 62.32C149.733 62.7467 150.427 63.3067 151.28 64C152.133 64.6933 153.013 65.44 153.92 66.24C154.88 67.04 155.733 67.7867 156.48 68.48C156.267 69.3333 155.52 69.76 154.24 69.76H108.56L107.92 67.44H144L148.4 61.68ZM146.48 1.04C146.48 1.04 146.933 1.38666 147.84 2.08C148.747 2.72 149.813 3.54666 151.04 4.56C152.267 5.52 153.36 6.45333 154.32 7.36C154.107 8.21333 153.387 8.64 152.16 8.64H110.72L110.08 6.32H142.32L146.48 1.04ZM111.6 19.36C111.333 19.7867 110.773 20.08 109.92 20.24C109.12 20.3467 108.133 20.08 106.96 19.44L109.28 18.96C108.16 20.7733 106.693 22.8 104.88 25.04C103.067 27.28 101.04 29.5733 98.8 31.92C96.6133 34.2133 94.3467 36.4533 92 38.64C89.6533 40.7733 87.3867 42.64 85.2 44.24L85.12 43.28H88.72C88.4533 45.52 87.9467 47.2267 87.2 48.4C86.5067 49.5733 85.68 50.32 84.72 50.64L81.68 42.16C81.68 42.16 82.0267 42.08 82.72 41.92C83.4133 41.76 83.92 41.5467 84.24 41.28C85.8933 39.84 87.6533 37.9733 89.52 35.68C91.3867 33.3333 93.2 30.8267 94.96 28.16C96.7733 25.44 98.4 22.8 99.84 20.24C101.28 17.6267 102.373 15.3333 103.12 13.36L111.6 19.36ZM104.24 5.28C104.027 5.76 103.52 6.13333 102.72 6.4C101.973 6.61333 100.96 6.48 99.68 6L102.08 5.43999C100.853 7.41333 99.28 9.65333 97.36 12.16C95.4933 14.6133 93.4933 17.0133 91.36 19.36C89.2267 21.6533 87.12 23.6267 85.04 25.28L84.96 24.32H88.8C88.5867 26.4 88.1333 28.08 87.44 29.36C86.8 30.5867 86.0533 31.3867 85.2 31.76L81.76 23.28C81.76 23.28 82.0267 23.2 82.56 23.04C83.1467 22.88 83.6 22.6667 83.92 22.4C84.9333 21.3333 85.9733 19.8933 87.04 18.08C88.16 16.2667 89.2267 14.2933 90.24 12.16C91.3067 10.0267 92.24 7.94666 93.04 5.92C93.84 3.89333 94.4533 2.10666 94.88 0.559996L104.24 5.28ZM88.48 52C89.8667 56.3733 90.4 60.1867 90.08 63.44C89.76 66.64 89.0133 69.0667 87.84 70.72C87.36 71.4133 86.6667 71.92 85.76 72.24C84.9067 72.56 84.0533 72.64 83.2 72.48C82.3467 72.32 81.68 71.8667 81.2 71.12C80.6133 70.1067 80.5067 69.0933 80.88 68.08C81.2533 67.0667 81.8933 66.2133 82.8 65.52C83.6 64.6667 84.3467 63.52 85.04 62.08C85.7333 60.64 86.2933 59.04 86.72 57.28C87.1467 55.4667 87.28 53.7067 87.12 52H88.48ZM102 49.36C104.613 50.5867 106.64 51.8933 108.08 53.28C109.573 54.6667 110.613 56.0533 111.2 57.44C111.787 58.8267 112.027 60.08 111.92 61.2C111.867 62.2667 111.547 63.1467 110.96 63.84C110.427 64.5333 109.707 64.9067 108.8 64.96C107.947 64.96 107.067 64.56 106.16 63.76C106.107 62.2133 105.813 60.6133 105.28 58.96C104.747 57.2533 104.107 55.6 103.36 54C102.613 52.4 101.84 50.9867 101.04 49.76L102 49.36ZM94.96 51.04C96.9333 52.9067 98.4 54.7467 99.36 56.56C100.32 58.3733 100.907 60.08 101.12 61.68C101.333 63.2267 101.227 64.6133 100.8 65.84C100.427 67.0133 99.8667 67.8933 99.12 68.48C98.4267 69.12 97.6267 69.3867 96.72 69.28C95.8667 69.1733 95.0133 68.6133 94.16 67.6C94.5333 65.7867 94.72 63.92 94.72 62C94.7733 60.08 94.72 58.1867 94.56 56.32C94.4 54.4533 94.16 52.7733 93.84 51.28L94.96 51.04ZM101.44 33.04C104.48 34.8533 106.72 36.6933 108.16 38.56C109.6 40.4267 110.453 42.1867 110.72 43.84C110.987 45.44 110.853 46.8 110.32 47.92C109.787 48.9867 109.013 49.6267 108 49.84C107.04 50 106 49.5733 104.88 48.56C104.88 46.9067 104.64 45.1733 104.16 43.36C103.733 41.5467 103.173 39.7867 102.48 38.08C101.84 36.32 101.173 34.8 100.48 33.52L101.44 33.04ZM82.88 42.4C84.3733 42.3467 86.4 42.2667 88.96 42.16C91.52 42 94.4 41.8133 97.6 41.6C100.853 41.3333 104.187 41.0933 107.6 40.88L107.68 42C105.387 42.8 102.24 43.8933 98.24 45.28C94.24 46.6667 89.8933 48.0533 85.2 49.44L82.88 42.4ZM82.96 23.52C84.1867 23.5733 85.84 23.6267 87.92 23.68C90.0533 23.68 92.4 23.68 94.96 23.68C97.52 23.6267 100.107 23.5733 102.72 23.52V24.72C101.12 25.36 98.7467 26.2133 95.6 27.28C92.5067 28.3467 89.1733 29.3867 85.6 30.4L82.96 23.52ZM189.04 53.12H221.52L225.76 47.28C225.76 47.28 226.027 47.4933 226.56 47.92C227.093 48.3467 227.76 48.9067 228.56 49.6C229.36 50.2933 230.187 51.04 231.04 51.84C231.947 52.64 232.773 53.4133 233.52 54.16C233.36 54.96 232.64 55.36 231.36 55.36H189.68L189.04 53.12ZM181.52 69.6H224.16L228.72 63.28C228.72 63.28 228.987 63.52 229.52 64C230.107 64.48 230.827 65.0933 231.68 65.84C232.533 66.5867 233.413 67.3867 234.32 68.24C235.28 69.0933 236.133 69.8933 236.88 70.64C236.827 71.0133 236.587 71.3067 236.16 71.52C235.787 71.7333 235.333 71.84 234.8 71.84H182.16L181.52 69.6ZM194.16 22.4H227.36V24.72H194.16V22.4ZM194.16 38.4H227.36V40.64H194.16V38.4ZM206.24 6.48H213.76V71.04H206.24V6.48ZM223.76 6.48H222.96L226.72 2.4L234.56 8.48C234.347 8.8 233.947 9.12 233.36 9.44C232.773 9.70666 232.08 9.94666 231.28 10.16V41.68C231.28 41.8933 230.933 42.2133 230.24 42.64C229.547 43.0133 228.72 43.36 227.76 43.68C226.8 44 225.867 44.16 224.96 44.16H223.76V6.48ZM189.44 6.48V3.2L197.28 6.48H227.44V8.8H196.8V43.28C196.8 43.5467 196.507 43.8933 195.92 44.32C195.333 44.6933 194.56 45.04 193.6 45.36C192.693 45.68 191.68 45.84 190.56 45.84H189.44V6.48ZM160.72 8.8H178L182.24 3.04C182.24 3.04 182.507 3.25333 183.04 3.68C183.627 4.10666 184.32 4.69333 185.12 5.43999C185.92 6.13333 186.773 6.88 187.68 7.68C188.587 8.42667 189.387 9.14666 190.08 9.84C189.92 10.6933 189.227 11.12 188 11.12H161.36L160.72 8.8ZM160.88 30.72H178.72L182.4 25.2C182.4 25.2 182.773 25.5733 183.52 26.32C184.267 27.0667 185.147 27.9467 186.16 28.96C187.173 29.92 188.053 30.8533 188.8 31.76C188.587 32.6133 187.893 33.04 186.72 33.04H161.52L160.88 30.72ZM159.76 58.48C161.413 58.1067 163.76 57.4667 166.8 56.56C169.84 55.6533 173.307 54.5867 177.2 53.36C181.093 52.1333 185.04 50.88 189.04 49.6L189.44 50.56C186.72 52.2667 183.333 54.3733 179.28 56.88C175.28 59.3867 170.56 62.16 165.12 65.2C164.853 66.2667 164.24 66.9867 163.28 67.36L159.76 58.48ZM170.16 8.8H177.6V55.68L170.16 58.24V8.8ZM271.12 0.399998C274.267 0.45333 276.747 0.826664 278.56 1.52C280.373 2.21333 281.653 3.06667 282.4 4.08C283.2 5.09333 283.573 6.13333 283.52 7.2C283.467 8.21333 283.093 9.09333 282.4 9.84C281.76 10.5867 280.907 11.04 279.84 11.2C278.773 11.36 277.627 11.0667 276.4 10.32C276.133 8.56 275.413 6.82667 274.24 5.12C273.12 3.36 271.867 1.97333 270.48 0.959995L271.12 0.399998ZM303.2 11.2L307.36 7.04L314.8 14.08C314.48 14.3467 314.08 14.5333 313.6 14.64C313.173 14.7467 312.56 14.8267 311.76 14.88C310.693 16.0533 309.333 17.3333 307.68 18.72C306.08 20.0533 304.56 21.1733 303.12 22.08L302.32 21.52C302.533 20.56 302.747 19.44 302.96 18.16C303.227 16.88 303.467 15.6267 303.68 14.4C303.893 13.12 304.027 12.0533 304.08 11.2H303.2ZM251.44 7.04C252.453 9.97333 252.907 12.5867 252.8 14.88C252.693 17.1733 252.213 19.0933 251.36 20.64C250.56 22.1867 249.6 23.3333 248.48 24.08C247.733 24.56 246.907 24.8533 246 24.96C245.093 25.0667 244.24 24.9333 243.44 24.56C242.693 24.1867 242.133 23.6 241.76 22.8C241.333 21.6267 241.413 20.5867 242 19.68C242.587 18.72 243.413 17.9733 244.48 17.44C245.493 16.9067 246.427 16.1333 247.28 15.12C248.187 14.0533 248.907 12.8267 249.44 11.44C250.027 10.0533 250.267 8.58666 250.16 7.04H251.44ZM307.28 11.2V13.52H250.24V11.2H307.28ZM309.36 33.84C309.04 34.2133 308.667 34.4533 308.24 34.56C307.813 34.6133 307.173 34.5067 306.32 34.24C304.187 35.36 301.627 36.5067 298.64 37.68C295.653 38.8533 292.507 39.9733 289.2 41.04C285.893 42.1067 282.64 43.04 279.44 43.84L278.72 42.8C281.333 41.36 284.053 39.7333 286.88 37.92C289.707 36.0533 292.347 34.1867 294.8 32.32C297.307 30.4 299.36 28.6933 300.96 27.2L309.36 33.84ZM287.04 38.4C288.533 42.56 290.693 46.1867 293.52 49.28C296.4 52.3733 299.707 54.9867 303.44 57.12C307.173 59.2 311.093 60.9067 315.2 62.24L315.04 63.12C311.893 63.6533 309.76 65.8133 308.64 69.6C304.853 67.52 301.467 65.0667 298.48 62.24C295.493 59.4133 292.933 56.1067 290.8 52.32C288.72 48.48 287.067 44.0533 285.84 39.04L287.04 38.4ZM282.88 50.8C279.84 53.5733 276.16 56.24 271.84 58.8C267.573 61.3067 262.933 63.5467 257.92 65.52C252.907 67.4933 247.84 69.0933 242.72 70.32L242.16 69.04C246.853 67.3333 251.467 65.1467 256 62.48C260.587 59.8133 264.8 56.8533 268.64 53.6C272.48 50.2933 275.6 46.9067 278 43.44L282.88 50.8ZM277.84 40.56C275.227 42.5333 272.08 44.5333 268.4 46.56C264.773 48.5867 260.907 50.4533 256.8 52.16C252.693 53.8667 248.613 55.28 244.56 56.4L244.08 55.28C247.707 53.6267 251.333 51.6267 254.96 49.28C258.64 46.9333 262.053 44.4 265.2 41.68C268.4 38.9067 271.013 36.2133 273.04 33.6L277.84 40.56ZM269.76 29.92C273.28 32.2667 276.16 34.9867 278.4 38.08C280.693 41.12 282.4 44.2933 283.52 47.6C284.693 50.9067 285.387 54.1333 285.6 57.28C285.813 60.4267 285.627 63.2533 285.04 65.76C284.453 68.2667 283.547 70.24 282.32 71.68C281.36 72.8 280 73.6 278.24 74.08C276.48 74.6133 274.32 74.8533 271.76 74.8C271.707 72.6667 271.093 71.0667 269.92 70C269.44 69.52 268.587 69.04 267.36 68.56C266.133 68.1333 264.747 67.76 263.2 67.44L263.12 66.32C264.24 66.4267 265.493 66.5333 266.88 66.64C268.32 66.7467 269.68 66.8267 270.96 66.88C272.24 66.9333 273.2 66.96 273.84 66.96C274.427 66.96 274.907 66.9067 275.28 66.8C275.653 66.6933 275.947 66.48 276.16 66.16C276.907 65.1467 277.467 63.6533 277.84 61.68C278.213 59.7067 278.347 57.44 278.24 54.88C278.133 52.2667 277.733 49.5467 277.04 46.72C276.4 43.84 275.387 41.0133 274 38.24C272.667 35.4667 270.96 32.9333 268.88 30.64L269.76 29.92ZM281.92 23.92C279.253 26.6933 275.973 29.28 272.08 31.68C268.24 34.08 264.053 36.2133 259.52 38.08C254.987 39.8933 250.32 41.4667 245.52 42.8L244.88 41.68C248.56 40.08 252.08 38.24 255.44 36.16C258.853 34.0267 262 31.8133 264.88 29.52C267.813 27.2267 270.32 24.9333 272.4 22.64H281.92V23.92ZM296.64 17.2C296.64 17.2 296.88 17.4133 297.36 17.84C297.893 18.2667 298.56 18.8 299.36 19.44C300.213 20.08 301.093 20.8 302 21.6C302.96 22.3467 303.813 23.04 304.56 23.68C304.507 24.1067 304.267 24.4267 303.84 24.64C303.467 24.8533 302.987 24.96 302.4 24.96H253.36L252.72 22.64H292.24L296.64 17.2ZM330.48 6.48V5.68V3.2L339.28 6.48H338.08V31.04C338.08 34.72 337.92 38.5067 337.6 42.4C337.333 46.24 336.667 50.0533 335.6 53.84C334.533 57.6267 332.907 61.28 330.72 64.8C328.533 68.2667 325.52 71.44 321.68 74.32L320.64 73.6C323.627 69.6 325.813 65.28 327.2 60.64C328.587 56 329.467 51.2 329.84 46.24C330.267 41.2267 330.48 36.1867 330.48 31.12V6.48ZM334.72 25.2H382.8V27.52H334.72V25.2ZM334.72 6.48H383.28V8.8H334.72V6.48ZM334.32 44.4H382.8V46.72H334.32V44.4ZM379.92 6.48H379.04L382.8 2L391.2 8.56C390.933 8.93333 390.48 9.28 389.84 9.6C389.2 9.92 388.427 10.1867 387.52 10.4V64.64C387.52 66.4533 387.28 68 386.8 69.28C386.373 70.6133 385.413 71.68 383.92 72.48C382.427 73.28 380.107 73.84 376.96 74.16C376.853 72.9333 376.667 71.8667 376.4 70.96C376.133 70.0533 375.733 69.3067 375.2 68.72C374.56 68.1333 373.733 67.6267 372.72 67.2C371.707 66.7733 370.213 66.4267 368.24 66.16V64.96C368.24 64.96 368.667 64.9867 369.52 65.04C370.373 65.0933 371.36 65.1733 372.48 65.28C373.653 65.3333 374.773 65.4133 375.84 65.52C376.907 65.5733 377.627 65.6 378 65.6C378.747 65.6 379.253 65.4667 379.52 65.2C379.787 64.88 379.92 64.4267 379.92 63.84V6.48ZM354.4 6.96H361.92V71.6C361.92 71.8667 361.36 72.2933 360.24 72.88C359.173 73.52 357.653 73.84 355.68 73.84H354.4V6.96ZM417.12 30.08H434.24L437.84 25.44C437.84 25.44 438.213 25.7333 438.96 26.32C439.76 26.9067 440.693 27.6533 441.76 28.56C442.827 29.4133 443.787 30.2667 444.64 31.12C444.427 31.9733 443.707 32.4 442.48 32.4H417.76L417.12 30.08ZM411.12 23.04H462.8L467.36 17.68C467.36 17.68 467.627 17.8933 468.16 18.32C468.693 18.6933 469.387 19.2267 470.24 19.92C471.093 20.56 471.973 21.2533 472.88 22C473.84 22.7467 474.72 23.44 475.52 24.08C475.307 24.9333 474.587 25.36 473.36 25.36H411.12V23.04ZM406.96 23.04V22.32V19.84L415.52 23.04H414.24V37.76C414.24 40.5333 414.133 43.52 413.92 46.72C413.707 49.92 413.2 53.2 412.4 56.56C411.6 59.8667 410.32 63.0667 408.56 66.16C406.853 69.2533 404.533 72.08 401.6 74.64L400.64 73.84C402.667 70.2667 404.107 66.4533 404.96 62.4C405.867 58.2933 406.427 54.16 406.64 50C406.853 45.7867 406.96 41.7333 406.96 37.84V23.04ZM449.68 25.6L459.6 27.76C459.44 28.24 459.12 28.64 458.64 28.96C458.213 29.28 457.547 29.4667 456.64 29.52C455.307 34.32 453.573 38.64 451.44 42.48C449.307 46.2667 446.773 49.3867 443.84 51.84L442.72 51.12C444.48 47.8667 445.973 44.0267 447.2 39.6C448.427 35.12 449.253 30.4533 449.68 25.6ZM426.56 30.08H433.44V39.36H426.56V30.08ZM412.64 38.56H437.44L441.12 33.68C441.12 33.68 441.493 34 442.24 34.64C443.04 35.28 443.947 36.0533 444.96 36.96C446.027 37.8133 446.987 38.6667 447.84 39.52C447.627 40.3733 446.933 40.8 445.76 40.8H413.28L412.64 38.56ZM434.56 38.56H440.96V72.88C440.96 73.04 440.48 73.3867 439.52 73.92C438.613 74.4533 437.333 74.72 435.68 74.72H434.56V38.56ZM418.96 38.56H425.36V64.96L418.96 65.6V38.56ZM422.08 46.4H437.68V48.72H422.08V46.4ZM446.16 15.44H462V17.76H446.16V15.44ZM416 15.44H432V17.76H416V15.44ZM422.08 54.56H437.68V56.88H422.08V54.56ZM411.92 64.08C413.573 63.9733 415.787 63.8133 418.56 63.6C421.333 63.3333 424.427 63.04 427.84 62.72C431.307 62.3467 434.853 61.9733 438.48 61.6L438.56 62.8C436.267 63.6 433.413 64.56 430 65.68C426.587 66.8 422.48 68.08 417.68 69.52C417.52 70.0533 417.253 70.4533 416.88 70.72C416.56 71.04 416.187 71.2533 415.76 71.36L411.92 64.08ZM461.68 36.32H469.36C468.56 42.24 467.147 47.6267 465.12 52.48C463.093 57.28 460.24 61.5467 456.56 65.28C452.88 69.0133 448.133 72.1867 442.32 74.8L441.68 73.76C446.213 70.6667 449.867 67.2267 452.64 63.44C455.413 59.6 457.52 55.4133 458.96 50.88C460.4 46.3467 461.307 41.4933 461.68 36.32ZM450.64 37.36C451.76 42.1067 453.333 46.4267 455.36 50.32C457.387 54.2133 460.053 57.6 463.36 60.48C466.72 63.3067 470.827 65.5733 475.68 67.28L475.44 68.08C473.893 68.56 472.667 69.3333 471.76 70.4C470.853 71.4667 470.24 72.9067 469.92 74.72C465.653 72.32 462.187 69.36 459.52 65.84C456.907 62.2667 454.827 58.2133 453.28 53.68C451.787 49.1467 450.587 44.24 449.68 38.96L450.64 37.36ZM412 5.2V2.08L419.6 5.2H428.8L432 1.44L438.8 6.48C438.587 6.85333 438.267 7.14666 437.84 7.36C437.467 7.52 436.853 7.68 436 7.84V18.32C436 18.48 435.44 18.7733 434.32 19.2C433.253 19.6267 431.867 19.84 430.16 19.84H428.96V7.44H418.72V19.12C418.72 19.3867 418.213 19.76 417.2 20.24C416.24 20.6667 414.88 20.88 413.12 20.88H412V5.2ZM442 5.2V2.08L449.68 5.2H458.64L462 1.44L468.88 6.56C468.667 6.88 468.347 7.14666 467.92 7.36C467.493 7.57333 466.88 7.73333 466.08 7.84V18.32C466.08 18.48 465.52 18.8 464.4 19.28C463.333 19.7067 461.893 19.92 460.08 19.92H458.88V7.52H448.8V19.12C448.8 19.3867 448.293 19.76 447.28 20.24C446.32 20.72 444.933 20.96 443.12 20.96H442V5.2ZM450.08 36.32H463.92L467.92 31.12C467.92 31.12 468.16 31.3333 468.64 31.76C469.12 32.1333 469.733 32.64 470.48 33.28C471.227 33.8667 472 34.5333 472.8 35.28C473.653 36.0267 474.427 36.72 475.12 37.36C474.907 38.2133 474.187 38.64 472.96 38.64H450.08V36.32ZM495.68 54.56C497.493 57.9733 499.653 60.5067 502.16 62.16C504.72 63.76 507.813 64.8267 511.44 65.36C515.12 65.84 519.547 66.08 524.72 66.08C526.48 66.08 528.747 66.08 531.52 66.08C534.347 66.08 537.307 66.08 540.4 66.08C543.547 66.08 546.533 66.08 549.36 66.08C552.187 66.0267 554.507 65.9733 556.32 65.92V66.88C555.04 67.2 554.053 67.8933 553.36 68.96C552.72 70.0267 552.373 71.3067 552.32 72.8C550.773 72.8 548.773 72.8 546.32 72.8C543.92 72.8 541.333 72.8 538.56 72.8C535.84 72.8 533.227 72.8 530.72 72.8C528.213 72.8 526.16 72.8 524.56 72.8C519.12 72.8 514.507 72.32 510.72 71.36C506.933 70.4 503.76 68.6667 501.2 66.16C498.693 63.6 496.533 59.92 494.72 55.12L495.68 54.56ZM499.92 24C499.387 25.0667 498.667 26.3467 497.76 27.84C496.907 29.28 495.973 30.8267 494.96 32.48C494 34.1333 493.013 35.7067 492 37.2C491.04 38.6933 490.187 40 489.44 41.12H490.08L487.52 43.36L481.76 38.8C482.24 38.4267 482.933 38.08 483.84 37.76C484.747 37.3867 485.573 37.1467 486.32 37.04L483.52 39.28C484.32 38.2133 485.2 36.9067 486.16 35.36C487.173 33.8133 488.187 32.1867 489.2 30.48C490.213 28.72 491.147 27.04 492 25.44C492.907 23.84 493.627 22.48 494.16 21.36L499.92 24ZM494 21.36L497.2 18L503.92 23.92C503.28 24.56 502.16 24.96 500.56 25.12C499.013 25.2267 497.44 25.2 495.84 25.04L494.96 21.36H494ZM495.04 39.12L498.8 35.28L505.44 41.04C505.013 41.68 504 42.0533 502.4 42.16C501.387 46.1067 499.947 50.08 498.08 54.08C496.267 58.08 493.947 61.8667 491.12 65.44C488.293 69.0133 484.853 72.16 480.8 74.88L480 73.92C482.933 70.9867 485.467 67.5733 487.6 63.68C489.733 59.7867 491.467 55.7333 492.8 51.52C494.187 47.2533 495.2 43.12 495.84 39.12H495.04ZM496.96 21.36V23.68H482.32L481.6 21.36H496.96ZM498.8 39.04V41.36H486.64L487.6 39.04H498.8ZM485.84 0.399998C489.04 1.25333 491.547 2.29333 493.36 3.52C495.227 4.69333 496.56 5.94666 497.36 7.27999C498.16 8.61333 498.56 9.86666 498.56 11.04C498.56 12.16 498.24 13.12 497.6 13.92C496.96 14.72 496.133 15.1733 495.12 15.28C494.16 15.3333 493.093 14.9333 491.92 14.08C491.707 12.5867 491.253 11.04 490.56 9.44C489.867 7.78666 489.013 6.24 488 4.8C487.04 3.30667 486.053 2.02666 485.04 0.959995L485.84 0.399998ZM506.24 2.4L513.6 5.43999H512.56V10.16C512.56 10.16 512.053 10.16 511.04 10.16C510.027 10.16 508.427 10.16 506.24 10.16V5.43999V2.4ZM505.68 24.96C506.96 24.8533 508.72 24.6667 510.96 24.4C513.2 24.1333 515.707 23.8133 518.48 23.44C521.307 23.0667 524.187 22.6667 527.12 22.24L527.28 23.44C526 23.9733 524.32 24.64 522.24 25.44C520.16 26.24 517.867 27.12 515.36 28.08C512.853 28.9867 510.267 29.8933 507.6 30.8L505.68 24.96ZM511.04 6.56L512.56 7.52V25.76L507.84 27.52L510 25.52C510.267 27.3333 510.053 28.7467 509.36 29.76C508.667 30.72 507.973 31.36 507.28 31.68L504.48 25.52C505.227 25.04 505.707 24.6133 505.92 24.24C506.133 23.8667 506.24 23.3333 506.24 22.64V6.56H511.04ZM530.96 50.88C535.44 51.52 539.093 52.32 541.92 53.28C544.747 54.24 546.907 55.2533 548.4 56.32C549.893 57.3333 550.853 58.3467 551.28 59.36C551.76 60.32 551.84 61.2 551.52 62C551.253 62.7467 550.747 63.3333 550 63.76C549.253 64.1867 548.4 64.3467 547.44 64.24C546.48 64.1333 545.6 63.68 544.8 62.88C543.573 61.1733 541.76 59.36 539.36 57.44C536.96 55.4667 534 53.68 530.48 52.08L530.96 50.88ZM519.76 5.43999L522.72 2.32L529.12 7.2C528.907 7.41333 528.56 7.65333 528.08 7.92C527.6 8.18666 527.04 8.37333 526.4 8.48V17.76C526.4 17.92 526.107 18.16 525.52 18.48C524.987 18.8 524.32 19.0933 523.52 19.36C522.773 19.5733 522.053 19.68 521.36 19.68H520.4V5.43999H519.76ZM523.6 14.64V16.96H509.36V14.64H523.6ZM543.6 5.43999L546.64 2.24L553.12 7.2C552.64 7.84 551.733 8.26666 550.4 8.48V17.28C550.4 17.44 550.107 17.68 549.52 18C548.987 18.2667 548.32 18.5333 547.52 18.8C546.72 19.0133 545.973 19.12 545.28 19.12H544.32V5.43999H543.6ZM547.04 5.43999V7.76H533.2L532.48 5.43999H547.04ZM530.08 2.56V2.4L537.44 5.43999H536.4V21.44C536.4 21.92 536.507 22.2667 536.72 22.48C536.933 22.64 537.467 22.72 538.32 22.72H542.8C543.653 22.72 544.453 22.72 545.2 22.72C545.947 22.72 546.507 22.6933 546.88 22.64C547.147 22.64 547.413 22.64 547.68 22.64C548 22.64 548.24 22.6133 548.4 22.56C548.667 22.56 548.933 22.5333 549.2 22.48C549.52 22.3733 549.813 22.2933 550.08 22.24H550.8L551.12 22.32C552.027 22.64 552.667 22.96 553.04 23.28C553.467 23.5467 553.68 23.9733 553.68 24.56C553.68 25.3067 553.333 25.92 552.64 26.4C551.947 26.88 550.747 27.2267 549.04 27.44C547.387 27.6 545.067 27.68 542.08 27.68H536.56C534.693 27.68 533.307 27.52 532.4 27.2C531.493 26.8267 530.88 26.2667 530.56 25.52C530.24 24.72 530.08 23.68 530.08 22.4V5.43999V2.56ZM527.28 53.84C527.067 54.32 526.64 54.64 526 54.8C525.36 54.96 524.48 54.9867 523.36 54.88C522.027 56 520.347 57.1467 518.32 58.32C516.347 59.4933 514.16 60.5867 511.76 61.6C509.36 62.56 506.907 63.36 504.4 64L503.84 63.04C505.76 61.8667 507.627 60.5067 509.44 58.96C511.307 57.4133 512.987 55.84 514.48 54.24C515.973 52.5867 517.12 51.04 517.92 49.6L527.28 53.84ZM542 29.2C541.947 29.6267 541.76 30 541.44 30.32C541.12 30.64 540.587 30.8533 539.84 30.96V48.32H533.04V28.32L542 29.2ZM525.28 28.96C525.227 29.3867 525.04 29.76 524.72 30.08C524.453 30.4 523.947 30.64 523.2 30.8V48.32H516.32V28.08L525.28 28.96ZM547.84 42.32C547.84 42.32 548.213 42.64 548.96 43.28C549.76 43.92 550.693 44.72 551.76 45.68C552.827 46.5867 553.787 47.4667 554.64 48.32C554.427 49.1733 553.733 49.6 552.56 49.6H504.24L503.6 47.28H544.08L547.84 42.32ZM546.8 32C546.8 32 547.147 32.32 547.84 32.96C548.587 33.5467 549.44 34.2667 550.4 35.12C551.36 35.9733 552.213 36.8267 552.96 37.68C552.8 38.5333 552.133 38.96 550.96 38.96H507.44L506.8 36.64H543.28L546.8 32ZM546.88 14.64V16.96H533.68V14.64H546.88ZM523.84 5.43999V7.76H509.44L508.72 5.43999H523.84ZM31.84 108.24C34.8267 108.24 37.2 108.533 38.96 109.12C40.72 109.707 41.9733 110.48 42.72 111.44C43.4667 112.347 43.8133 113.28 43.76 114.24C43.7067 115.2 43.3333 116.027 42.64 116.72C42 117.413 41.1733 117.84 40.16 118C39.1467 118.107 38.0533 117.787 36.88 117.04C36.56 115.493 35.84 113.973 34.72 112.48C33.6 110.933 32.4267 109.707 31.2 108.8L31.84 108.24ZM63.44 140L67.52 135.92L74.64 142.8C74.32 143.12 73.92 143.333 73.44 143.44C72.96 143.493 72.32 143.547 71.52 143.6C70.72 144.293 69.7333 145.04 68.56 145.84C67.44 146.587 66.2933 147.333 65.12 148.08C63.9467 148.827 62.8533 149.467 61.84 150L60.88 149.44C61.3067 148.587 61.7333 147.6 62.16 146.48C62.5867 145.307 62.9867 144.133 63.36 142.96C63.7333 141.787 64.0533 140.8 64.32 140H63.44ZM11.04 135.92C12.16 138.747 12.6667 141.307 12.56 143.6C12.5067 145.84 12.0533 147.707 11.2 149.2C10.3467 150.64 9.30667 151.653 8.08 152.24C6.90667 152.88 5.65333 153.067 4.32 152.8C3.04 152.48 2.18667 151.68 1.76 150.4C1.38667 149.173 1.52 148.133 2.16 147.28C2.8 146.373 3.68 145.68 4.8 145.2C6.18667 144.453 7.41333 143.253 8.48 141.6C9.6 139.893 10.0533 138.027 9.84 136L11.04 135.92ZM67.36 140V142.32H10.88V140H67.36ZM51.2 124.4L54.8 120.64L62.32 126.24C62.1067 126.507 61.76 126.773 61.28 127.04C60.8 127.307 60.2133 127.493 59.52 127.6V135.92C59.52 136.08 59.1467 136.32 58.4 136.64C57.7067 136.907 56.88 137.173 55.92 137.44C54.96 137.707 54.0533 137.84 53.2 137.84H51.92V124.4H51.2ZM24.24 136.4C24.24 136.56 23.8933 136.827 23.2 137.2C22.56 137.573 21.7333 137.92 20.72 138.24C19.76 138.507 18.7733 138.64 17.76 138.64H16.72V124.4V121.2L24.72 124.4H55.36V126.72H24.24V136.4ZM54.96 133.12V135.44H20.72V133.12H54.96ZM65.44 111.44C65.44 111.44 65.7333 111.68 66.32 112.16C66.9067 112.587 67.6267 113.173 68.48 113.92C69.3333 114.613 70.24 115.36 71.2 116.16C72.2133 116.96 73.12 117.733 73.92 118.48C73.7067 119.333 72.9867 119.76 71.76 119.76H3.28L2.56 117.44H60.88L65.44 111.44ZM66.64 156.16C66.3733 156.533 66.0267 156.773 65.6 156.88C65.1733 156.933 64.5333 156.8 63.68 156.48C61.8667 157.173 59.7067 157.867 57.2 158.56C54.6933 159.2 52.0533 159.813 49.28 160.4C46.56 160.987 43.92 161.493 41.36 161.92L40.56 160.88C42.6933 159.92 44.9067 158.827 47.2 157.6C49.5467 156.32 51.7867 155.013 53.92 153.68C56.0533 152.347 57.7867 151.173 59.12 150.16L66.64 156.16ZM47.04 158.4C48.5867 161.173 50.7467 163.52 53.52 165.44C56.3467 167.307 59.5467 168.827 63.12 170C66.6933 171.173 70.3733 172.08 74.16 172.72V173.6C71.2267 174.4 69.3333 176.693 68.48 180.48C64.8533 179.093 61.5733 177.44 58.64 175.52C55.7067 173.6 53.1733 171.307 51.04 168.64C48.9067 165.92 47.2 162.693 45.92 158.96L47.04 158.4ZM42.96 164.8C39.7067 166.987 35.84 169.067 31.36 171.04C26.88 173.013 22.1333 174.747 17.12 176.24C12.16 177.787 7.25333 178.987 2.4 179.84L1.84 178.48C5.25333 177.52 8.72 176.373 12.24 175.04C15.76 173.653 19.1467 172.133 22.4 170.48C25.7067 168.773 28.7467 167.013 31.52 165.2C34.3467 163.333 36.7733 161.44 38.8 159.52L42.96 164.8ZM38.32 158.08C35.4933 159.733 32.1867 161.333 28.4 162.88C24.6133 164.373 20.64 165.707 16.48 166.88C12.32 168 8.24 168.88 4.24 169.52L3.76 168.08C7.49333 167.173 11.28 165.973 15.12 164.48C19.0133 162.933 22.64 161.227 26 159.36C29.4133 157.493 32.24 155.6 34.48 153.68L38.32 158.08ZM31.92 150.4C35.4933 152.373 38.2933 154.773 40.32 157.6C42.4 160.373 43.8133 163.227 44.56 166.16C45.3067 169.04 45.52 171.707 45.2 174.16C44.88 176.613 44.1333 178.507 42.96 179.84C42.16 180.853 40.96 181.573 39.36 182C37.8133 182.427 35.8133 182.64 33.36 182.64C33.3067 180.773 32.7733 179.36 31.76 178.4C31.28 178.027 30.48 177.653 29.36 177.28C28.2933 176.907 27.12 176.587 25.84 176.32V175.2C26.7467 175.253 27.8133 175.333 29.04 175.44C30.32 175.493 31.5467 175.547 32.72 175.6C33.8933 175.653 34.7467 175.68 35.28 175.68C36.1867 175.68 36.8 175.467 37.12 175.04C37.76 174.24 38.16 172.933 38.32 171.12C38.5333 169.253 38.4533 167.147 38.08 164.8C37.7067 162.453 36.96 160.107 35.84 157.76C34.72 155.36 33.1467 153.173 31.12 151.2L31.92 150.4ZM41.68 148.64C38.8533 150.56 35.4933 152.267 31.6 153.76C27.7067 155.253 23.52 156.533 19.04 157.6C14.56 158.667 10 159.493 5.36 160.08L4.8 158.88C10.1333 157.547 15.2 155.867 20 153.84C24.8 151.813 28.8267 149.653 32.08 147.36H41.68V148.64ZM52.4 142.48C52.4 142.48 52.8 142.8 53.6 143.44C54.4533 144.08 55.4667 144.853 56.64 145.76C57.8133 146.667 58.88 147.547 59.84 148.4C59.6267 149.253 58.9067 149.68 57.68 149.68H15.92L15.28 147.36H48.4L52.4 142.48ZM142 145.52C142 145.52 142.293 145.76 142.88 146.24C143.52 146.72 144.32 147.333 145.28 148.08C146.24 148.827 147.227 149.627 148.24 150.48C149.253 151.333 150.187 152.16 151.04 152.96C150.987 153.387 150.747 153.707 150.32 153.92C149.947 154.133 149.467 154.24 148.88 154.24H83.52L82.8 151.92H137.04L142 145.52ZM117.92 134.88C117.92 135.36 117.92 135.867 117.92 136.4C117.92 136.88 117.92 137.333 117.92 137.76V170.96C117.92 171.867 118.187 172.507 118.72 172.88C119.307 173.2 120.587 173.36 122.56 173.36H133.68C135.92 173.36 137.893 173.333 139.6 173.28C141.307 173.227 142.56 173.173 143.36 173.12C144.053 173.067 144.56 172.96 144.88 172.8C145.2 172.587 145.493 172.24 145.76 171.76C146.24 171.013 146.773 169.6 147.36 167.52C148 165.44 148.693 162.933 149.44 160H150.4L150.64 172.32C151.92 172.693 152.773 173.147 153.2 173.68C153.68 174.16 153.92 174.8 153.92 175.6C153.92 176.453 153.627 177.2 153.04 177.84C152.507 178.48 151.493 178.987 150 179.36C148.507 179.733 146.4 180 143.68 180.16C140.96 180.32 137.44 180.4 133.12 180.4H121.68C118.747 180.4 116.453 180.187 114.8 179.76C113.147 179.387 111.973 178.64 111.28 177.52C110.64 176.4 110.32 174.8 110.32 172.72V134.88H117.92ZM139.76 133.52C139.387 133.893 138.8 134.107 138 134.16C137.2 134.16 136.24 133.92 135.12 133.44C131.173 134.4 126.587 135.307 121.36 136.16C116.187 137.013 110.747 137.733 105.04 138.32C99.3333 138.853 93.7333 139.227 88.24 139.44L88 138.16C91.8933 137.573 95.8933 136.827 100 135.92C104.16 135.013 108.24 134.027 112.24 132.96C116.24 131.84 119.947 130.72 123.36 129.6C126.773 128.48 129.68 127.387 132.08 126.32L139.76 133.52ZM111.04 108.24C114.293 108.667 116.8 109.387 118.56 110.4C120.373 111.36 121.6 112.453 122.24 113.68C122.933 114.907 123.147 116.08 122.88 117.2C122.667 118.267 122.133 119.173 121.28 119.92C120.48 120.613 119.467 120.987 118.24 121.04C117.067 121.04 115.84 120.507 114.56 119.44C114.613 117.52 114.24 115.573 113.44 113.6C112.64 111.573 111.6 109.947 110.32 108.72L111.04 108.24ZM144.08 120L148.48 115.6L156.08 122.96C155.813 123.28 155.44 123.493 154.96 123.6C154.48 123.707 153.84 123.787 153.04 123.84C152.187 124.853 151.147 126 149.92 127.28C148.747 128.507 147.493 129.707 146.16 130.88C144.827 132 143.573 133.013 142.4 133.92L141.52 133.36C141.947 132.08 142.373 130.64 142.8 129.04C143.28 127.387 143.707 125.76 144.08 124.16C144.507 122.56 144.8 121.173 144.96 120H144.08ZM90.48 115.6C91.5467 118.587 92.0267 121.28 91.92 123.68C91.8667 126.027 91.44 128 90.64 129.6C89.8933 131.147 88.9333 132.32 87.76 133.12C87.0133 133.653 86.16 133.973 85.2 134.08C84.2933 134.187 83.4133 134.053 82.56 133.68C81.76 133.253 81.2 132.613 80.88 131.76C80.4 130.587 80.4533 129.52 81.04 128.56C81.68 127.547 82.5333 126.747 83.6 126.16C84.6133 125.627 85.5467 124.827 86.4 123.76C87.3067 122.693 88.0267 121.467 88.56 120.08C89.0933 118.64 89.3067 117.173 89.2 115.68L90.48 115.6ZM146.48 120V122.32H89.44V120H146.48ZM213.76 180.96C213.76 181.12 213.2 181.44 212.08 181.92C211.013 182.4 209.547 182.64 207.68 182.64H206.4V158H213.76V180.96ZM195.36 143.76C195.36 143.973 195.067 144.267 194.48 144.64C193.947 144.96 193.253 145.253 192.4 145.52C191.6 145.733 190.747 145.84 189.84 145.84H188.96V124.32V121.44L195.84 124.32H226.56V126.64H195.36V143.76ZM204.32 166C204.107 166.373 203.787 166.667 203.36 166.88C202.933 167.04 202.267 167.04 201.36 166.88C199.547 169.28 197.173 171.733 194.24 174.24C191.307 176.693 188.08 178.72 184.56 180.32L183.76 179.36C185.467 177.707 187.067 175.84 188.56 173.76C190.053 171.68 191.36 169.573 192.48 167.44C193.653 165.253 194.56 163.253 195.2 161.44L204.32 166ZM217.28 163.04C221.067 163.787 224.133 164.8 226.48 166.08C228.827 167.307 230.587 168.613 231.76 170C232.987 171.387 233.707 172.747 233.92 174.08C234.187 175.36 234.053 176.427 233.52 177.28C233.04 178.187 232.32 178.747 231.36 178.96C230.4 179.173 229.28 178.907 228 178.16C227.413 176.453 226.48 174.72 225.2 172.96C223.92 171.2 222.507 169.52 220.96 167.92C219.467 166.267 218 164.853 216.56 163.68L217.28 163.04ZM217.92 114.24V139.6H212.24V114.24H217.92ZM206.72 114.24V139.6H200.96V114.24H206.72ZM227.36 108.4C227.36 108.4 227.627 108.613 228.16 109.04C228.693 109.467 229.36 110 230.16 110.64C231.013 111.28 231.867 111.973 232.72 112.72C233.627 113.467 234.427 114.187 235.12 114.88C234.96 115.733 234.24 116.16 232.96 116.16H186.72L186.08 113.84H223.12L227.36 108.4ZM223.36 142.88C223.36 142.88 223.787 143.2 224.64 143.84C225.493 144.48 226.507 145.253 227.68 146.16C228.907 147.067 230.027 147.973 231.04 148.88C230.827 149.733 230.107 150.16 228.88 150.16H191.52L190.88 147.84H219.12L223.36 142.88ZM227.76 151.84C227.76 151.84 228.187 152.187 229.04 152.88C229.947 153.573 231.013 154.4 232.24 155.36C233.467 156.267 234.587 157.173 235.6 158.08C235.387 158.933 234.667 159.36 233.44 159.36H186.88L186.24 157.04H223.52L227.76 151.84ZM222.88 124.32L226.24 120.64L233.68 126.24C233.413 126.56 232.987 126.88 232.4 127.2C231.813 127.467 231.12 127.68 230.32 127.84V142C230.32 142.16 230 142.373 229.36 142.64C228.72 142.907 227.973 143.147 227.12 143.36C226.267 143.573 225.467 143.68 224.72 143.68H223.68V124.32H222.88ZM226.64 138.72V141.04H193.76V138.72H226.64ZM177.44 135.84C180.48 137.173 182.747 138.613 184.24 140.16C185.787 141.707 186.72 143.173 187.04 144.56C187.413 145.893 187.36 147.04 186.88 148C186.453 148.907 185.76 149.467 184.8 149.68C183.84 149.84 182.827 149.467 181.76 148.56C181.653 147.227 181.307 145.84 180.72 144.4C180.187 142.907 179.547 141.467 178.8 140.08C178.053 138.64 177.307 137.387 176.56 136.32L177.44 135.84ZM180.32 109.2C180.267 109.787 180.027 110.267 179.6 110.64C179.227 111.013 178.507 111.28 177.44 111.44V180.08C177.44 180.4 177.147 180.747 176.56 181.12C176.027 181.547 175.333 181.92 174.48 182.24C173.68 182.56 172.853 182.72 172 182.72H170.64V108.24L180.32 109.2ZM176.72 129.2C175.6 135.867 173.76 142.133 171.2 148C168.693 153.813 165.387 159.12 161.28 163.92L160.08 162.96C161.893 159.707 163.413 156.16 164.64 152.32C165.92 148.427 166.987 144.427 167.84 140.32C168.693 136.16 169.36 132.027 169.84 127.92H176.72V129.2ZM181.76 122.64C181.76 122.64 182.133 122.987 182.88 123.68C183.627 124.373 184.507 125.2 185.52 126.16C186.533 127.12 187.44 128.053 188.24 128.96C188.027 129.813 187.333 130.24 186.16 130.24H161.52L160.88 127.92H178.16L181.76 122.64ZM264.16 156.64C264.16 156.64 264.48 156.96 265.12 157.6C265.76 158.187 266.533 158.907 267.44 159.76C268.347 160.56 269.147 161.36 269.84 162.16C269.68 163.013 269.013 163.44 267.84 163.44H252.64L252 161.12H261.04L264.16 156.64ZM258.08 129.6H252.56V114.88H258.08V129.6ZM258.24 134.4C258.24 136.373 258.08 138.64 257.76 141.2C257.493 143.707 256.827 146.24 255.76 148.8C254.747 151.36 253.04 153.68 250.64 155.76L249.68 154.64C251.12 152.4 252.133 150.107 252.72 147.76C253.307 145.36 253.653 143.013 253.76 140.72C253.92 138.427 254 136.293 254 134.32V128.64H258.24V134.4ZM249.84 180.08C249.84 180.293 249.6 180.587 249.12 180.96C248.64 181.333 248 181.653 247.2 181.92C246.453 182.187 245.6 182.32 244.64 182.32H243.68V128.56V125.6L250.24 128.56H272.48V130.88H249.84V180.08ZM265.92 128.64C265.92 129.067 265.92 129.493 265.92 129.92C265.92 130.293 265.92 130.64 265.92 130.96V146.96C265.92 147.653 266.16 148 266.64 148H267.6C267.813 148 268 148 268.16 148C268.32 148 268.453 148 268.56 148C268.667 148 268.8 148 268.96 148C269.12 148 269.227 147.973 269.28 147.92C269.44 147.92 269.627 147.92 269.84 147.92C270.053 147.867 270.24 147.813 270.4 147.76H271.04H271.36C272.053 147.973 272.56 148.213 272.88 148.48C273.2 148.747 273.36 149.147 273.36 149.68C273.36 150.587 272.933 151.253 272.08 151.68C271.227 152.107 269.627 152.32 267.28 152.32H265.36C263.813 152.32 262.827 152.027 262.4 151.44C261.973 150.8 261.76 149.813 261.76 148.48V128.64H265.92ZM267.28 114.88V129.6H261.76V114.88H267.28ZM269.12 128.56L272.48 124.88L279.44 130.4C279.227 130.72 278.8 131.04 278.16 131.36C277.573 131.627 276.88 131.84 276.08 132V178.8C276.08 178.96 275.787 179.2 275.2 179.52C274.667 179.84 274 180.133 273.2 180.4C272.4 180.667 271.627 180.8 270.88 180.8H269.92V128.56H269.12ZM272.56 173.36V175.68H246.4V173.36H272.56ZM272.8 109.36C272.8 109.36 273.227 109.707 274.08 110.4C274.933 111.093 275.947 111.947 277.12 112.96C278.293 113.92 279.36 114.88 280.32 115.84C280.107 116.693 279.387 117.12 278.16 117.12H241.52L240.88 114.8H268.72L272.8 109.36ZM282.08 134.4V134.24L290.16 137.52H289.12V170.56C289.12 171.253 289.307 171.76 289.68 172.08C290.107 172.347 291.067 172.48 292.56 172.48H300.16C301.867 172.48 303.307 172.48 304.48 172.48C305.707 172.427 306.587 172.373 307.12 172.32C307.653 172.267 308.053 172.187 308.32 172.08C308.587 171.92 308.827 171.627 309.04 171.2C309.413 170.507 309.867 169.173 310.4 167.2C310.933 165.173 311.493 162.96 312.08 160.56H313.04L313.28 171.68C314.4 172.053 315.12 172.48 315.44 172.96C315.813 173.44 316 174 316 174.64C316 175.707 315.547 176.56 314.64 177.2C313.733 177.893 312.107 178.4 309.76 178.72C307.413 179.04 304.053 179.2 299.68 179.2H291.04C288.64 179.2 286.773 178.987 285.44 178.56C284.16 178.187 283.28 177.493 282.8 176.48C282.32 175.467 282.08 174.08 282.08 172.32V137.52V134.4ZM307.36 137.52V139.84H284.88V137.52H307.36ZM302.24 114.48L305.92 110.32L314.08 116.48C313.813 116.853 313.333 117.227 312.64 117.6C311.947 117.92 311.147 118.16 310.24 118.32V144.4C310.24 144.56 309.893 144.8 309.2 145.12C308.56 145.44 307.76 145.733 306.8 146C305.893 146.267 305.04 146.4 304.24 146.4H303.12V114.48H302.24ZM307.68 114.48V116.8H282.32L281.6 114.48H307.68ZM377.6 117.2L381.12 113.36L388.72 119.12C388.507 119.387 388.107 119.68 387.52 120C386.933 120.267 386.24 120.48 385.44 120.64V141.12C385.44 141.333 385.093 141.6 384.4 141.92C383.76 142.187 382.987 142.453 382.08 142.72C381.173 142.987 380.32 143.12 379.52 143.12H378.4V117.2H377.6ZM372.24 109.52C372.133 110.107 371.867 110.587 371.44 110.96C371.067 111.333 370.347 111.6 369.28 111.76V169.6C369.28 169.867 368.987 170.187 368.4 170.56C367.867 170.88 367.147 171.173 366.24 171.44C365.333 171.707 364.4 171.84 363.44 171.84H362V108.48L372.24 109.52ZM382.4 143.36C382.4 143.36 382.64 143.573 383.12 144C383.653 144.373 384.293 144.907 385.04 145.6C385.84 146.24 386.667 146.933 387.52 147.68C388.373 148.373 389.147 149.04 389.84 149.68C389.627 150.533 388.907 150.96 387.68 150.96H348.24L347.6 148.64H378.4L382.4 143.36ZM385.52 153.68C385.52 153.68 385.787 153.893 386.32 154.32C386.907 154.747 387.627 155.307 388.48 156C389.333 156.693 390.24 157.44 391.2 158.24C392.16 158.987 393.04 159.707 393.84 160.4C393.733 160.827 393.467 161.147 393.04 161.36C392.667 161.573 392.187 161.68 391.6 161.68H344.24L343.6 159.36H381.04L385.52 153.68ZM390.08 122.16C390.08 122.16 390.453 122.533 391.2 123.28C391.947 123.973 392.8 124.827 393.76 125.84C394.773 126.8 395.653 127.733 396.4 128.64C396.187 129.493 395.493 129.92 394.32 129.92H342.96L342.32 127.6H386.48L390.08 122.16ZM381.44 138.16V140.48H349.2L348.48 138.16H381.44ZM381.6 117.2V119.52H348.72L348 117.2H381.6ZM342.8 119.04C342.213 120.373 341.44 122.027 340.48 124C339.573 125.973 338.56 128.08 337.44 130.32C336.373 132.507 335.333 134.64 334.32 136.72C333.307 138.8 332.4 140.56 331.6 142H332.16L329.52 144.48L322.96 139.92C323.44 139.547 324.107 139.147 324.96 138.72C325.867 138.293 326.693 138.027 327.44 137.92L324.72 140.24C325.573 138.853 326.533 137.12 327.6 135.04C328.667 132.907 329.733 130.693 330.8 128.4C331.92 126.053 332.933 123.813 333.84 121.68C334.8 119.547 335.547 117.76 336.08 116.32L342.8 119.04ZM335.12 116.32L338.72 112.72L345.92 119.2C345.493 119.627 344.8 119.947 343.84 120.16C342.88 120.373 341.787 120.48 340.56 120.48C339.387 120.427 338.213 120.347 337.04 120.24L336.16 116.32H335.12ZM324.48 146.96C326.507 152.72 328.96 157.333 331.84 160.8C334.773 164.267 338.293 166.907 342.4 168.72C346.507 170.533 351.307 171.76 356.8 172.4C362.347 173.04 368.72 173.36 375.92 173.36C377.04 173.36 378.4 173.36 380 173.36C381.653 173.36 383.413 173.36 385.28 173.36C387.147 173.36 388.933 173.36 390.64 173.36C392.4 173.307 393.92 173.28 395.2 173.28V174.24C393.653 174.56 392.48 175.307 391.68 176.48C390.933 177.653 390.507 179.013 390.4 180.56C389.28 180.56 387.76 180.56 385.84 180.56C383.92 180.56 382 180.56 380.08 180.56C378.16 180.56 376.587 180.56 375.36 180.56C367.893 180.56 361.333 180.133 355.68 179.28C350.08 178.427 345.227 176.827 341.12 174.48C337.067 172.133 333.6 168.8 330.72 164.48C327.84 160.16 325.413 154.507 323.44 147.52L324.48 146.96ZM338.08 139.76L341.84 135.76L348.8 141.76C348.373 142.453 347.387 142.853 345.84 142.96C345.253 146.96 344.427 150.88 343.36 154.72C342.293 158.507 340.827 162.133 338.96 165.6C337.093 169.013 334.667 172.16 331.68 175.04C328.747 177.92 325.093 180.453 320.72 182.64L320 181.6C324.48 178.293 328 174.453 330.56 170.08C333.173 165.653 335.093 160.853 336.32 155.68C337.6 150.507 338.453 145.2 338.88 139.76H338.08ZM342.48 139.76V142.08H327.2L328.4 139.76H342.48ZM339.36 116.32V118.64H321.44L320.72 116.32H339.36ZM437.12 127.28H465.36L469.12 121.6C469.12 121.6 469.52 121.973 470.32 122.72C471.12 123.467 472.027 124.373 473.04 125.44C474.107 126.453 475.04 127.413 475.84 128.32C475.627 129.173 474.933 129.6 473.76 129.6H437.76L437.12 127.28ZM455.92 108.48L466.4 109.52C466.293 110.053 466.027 110.533 465.6 110.96C465.173 111.333 464.453 111.573 463.44 111.68V173.28C463.44 175.04 463.173 176.56 462.64 177.84C462.16 179.173 461.147 180.213 459.6 180.96C458.053 181.76 455.68 182.32 452.48 182.64C452.32 181.52 452.08 180.533 451.76 179.68C451.493 178.88 451.013 178.213 450.32 177.68C449.573 177.147 448.613 176.667 447.44 176.24C446.267 175.813 444.587 175.44 442.4 175.12V174C442.4 174 442.88 174.027 443.84 174.08C444.853 174.133 446.053 174.213 447.44 174.32C448.827 174.427 450.133 174.507 451.36 174.56C452.587 174.613 453.44 174.64 453.92 174.64C454.667 174.64 455.173 174.507 455.44 174.24C455.76 173.973 455.92 173.52 455.92 172.88V108.48ZM453.92 127.28H462.56V128.56C459.52 136.827 455.093 144.453 449.28 151.44C443.467 158.373 436.48 164.267 428.32 169.12L427.36 168.08C431.52 164.613 435.307 160.64 438.72 156.16C442.187 151.627 445.2 146.88 447.76 141.92C450.373 136.96 452.427 132.08 453.92 127.28ZM401.68 127.28H425.6L429.6 121.84C429.6 121.84 430 122.187 430.8 122.88C431.653 123.573 432.667 124.427 433.84 125.44C435.013 126.453 436.027 127.413 436.88 128.32C436.667 129.173 435.973 129.6 434.8 129.6H402.32L401.68 127.28ZM414.56 127.28H422.4V128.56C420.747 135.92 418.133 142.72 414.56 148.96C411.04 155.147 406.48 160.64 400.88 165.44L399.92 164.48C402.427 161.173 404.613 157.493 406.48 153.44C408.4 149.333 410.027 145.067 411.36 140.64C412.747 136.16 413.813 131.707 414.56 127.28ZM415.04 108.48L425.44 109.52C425.333 110.107 425.067 110.613 424.64 111.04C424.267 111.413 423.573 111.68 422.56 111.84V180.48C422.56 180.693 422.24 180.987 421.6 181.36C421.013 181.733 420.267 182.053 419.36 182.32C418.453 182.64 417.547 182.8 416.64 182.8H415.04V108.48ZM422.56 137.12C425.76 138.187 428.267 139.387 430.08 140.72C431.947 142.053 433.253 143.413 434 144.8C434.8 146.133 435.147 147.387 435.04 148.56C434.987 149.68 434.64 150.613 434 151.36C433.413 152.053 432.613 152.427 431.6 152.48C430.587 152.48 429.547 152.027 428.48 151.12C428.267 149.627 427.787 148.08 427.04 146.48C426.347 144.827 425.52 143.227 424.56 141.68C423.6 140.133 422.64 138.773 421.68 137.6L422.56 137.12Z" fill="#AA0C24"/>
</svg>
